<?xml version="1.0" encoding="utf-8" standalone="no"?>
<!DOCTYPE svg PUBLIC "-//W3C//DTD SVG 1.1//EN"
  "http://www.w3.org/Graphics/SVG/1.1/DTD/svg11.dtd">
<svg xmlns:xlink="http://www.w3.org/1999/xlink" width="208.497646pt" height="137.329688pt" viewBox="0 0 208.497646 137.329688" xmlns="http://www.w3.org/2000/svg" version="1.1">
 <metadata>
  <rdf:RDF xmlns:dc="http://purl.org/dc/elements/1.1/" xmlns:cc="http://creativecommons.org/ns#" xmlns:rdf="http://www.w3.org/1999/02/22-rdf-syntax-ns#">
   <cc:Work>
    <dc:type rdf:resource="http://purl.org/dc/dcmitype/StillImage"/>
    <dc:date>2022-07-28T13:56:42.290445</dc:date>
    <dc:format>image/svg+xml</dc:format>
    <dc:creator>
     <cc:Agent>
      <dc:title>Matplotlib v3.5.1, https://matplotlib.org/</dc:title>
     </cc:Agent>
    </dc:creator>
   </cc:Work>
  </rdf:RDF>
 </metadata>
 <defs>
  <style type="text/css">*{stroke-linejoin: round; stroke-linecap: butt}</style>
 </defs>
 <g id="figure_1">
  <g id="patch_1">
   <path d="M 0 137.329688 
L 208.497646 137.329688 
L 208.497646 0 
L 0 0 
z
" style="fill: #ffffff"/>
  </g>
  <g id="axes_1">
   <g id="patch_2">
    <path d="M 43.284375 100.6 
L 193.351536 100.6 
L 193.351536 7.2 
L 43.284375 7.2 
z
" style="fill: #ffffff"/>
   </g>
   <g id="matplotlib.axis_1">
    <g id="xtick_1">
     <g id="line2d_1">
      <defs>
       <path id="m9494dde4aa" d="M 0 0 
L 0 3.5 
" style="stroke: #262626; stroke-width: 0.8"/>
      </defs>
      <g>
       <use xlink:href="#m9494dde4aa" x="49.965399" y="100.6" style="fill: #262626; stroke: #262626; stroke-width: 0.8"/>
      </g>
     </g>
     <g id="text_1">
      <!-- 0 -->
      <g style="fill: #262626" transform="translate(47.18493 114.757812)scale(0.1 -0.1)">
       <defs>
        <path id="ArialMT-30" d="M 266 2259 
Q 266 3072 433 3567 
Q 600 4063 929 4331 
Q 1259 4600 1759 4600 
Q 2128 4600 2406 4451 
Q 2684 4303 2865 4023 
Q 3047 3744 3150 3342 
Q 3253 2941 3253 2259 
Q 3253 1453 3087 958 
Q 2922 463 2592 192 
Q 2263 -78 1759 -78 
Q 1097 -78 719 397 
Q 266 969 266 2259 
z
M 844 2259 
Q 844 1131 1108 757 
Q 1372 384 1759 384 
Q 2147 384 2411 759 
Q 2675 1134 2675 2259 
Q 2675 3391 2411 3762 
Q 2147 4134 1753 4134 
Q 1366 4134 1134 3806 
Q 844 3388 844 2259 
z
" transform="scale(0.015625)"/>
       </defs>
       <use xlink:href="#ArialMT-30"/>
      </g>
     </g>
    </g>
    <g id="xtick_2">
     <g id="line2d_2">
      <g>
       <use xlink:href="#m9494dde4aa" x="85.017992" y="100.6" style="fill: #262626; stroke: #262626; stroke-width: 0.8"/>
      </g>
     </g>
     <g id="text_2">
      <!-- 250 -->
      <g style="fill: #262626" transform="translate(76.676586 114.757812)scale(0.1 -0.1)">
       <defs>
        <path id="ArialMT-32" d="M 3222 541 
L 3222 0 
L 194 0 
Q 188 203 259 391 
Q 375 700 629 1000 
Q 884 1300 1366 1694 
Q 2113 2306 2375 2664 
Q 2638 3022 2638 3341 
Q 2638 3675 2398 3904 
Q 2159 4134 1775 4134 
Q 1369 4134 1125 3890 
Q 881 3647 878 3216 
L 300 3275 
Q 359 3922 746 4261 
Q 1134 4600 1788 4600 
Q 2447 4600 2831 4234 
Q 3216 3869 3216 3328 
Q 3216 3053 3103 2787 
Q 2991 2522 2730 2228 
Q 2469 1934 1863 1422 
Q 1356 997 1212 845 
Q 1069 694 975 541 
L 3222 541 
z
" transform="scale(0.015625)"/>
        <path id="ArialMT-35" d="M 266 1200 
L 856 1250 
Q 922 819 1161 601 
Q 1400 384 1738 384 
Q 2144 384 2425 690 
Q 2706 997 2706 1503 
Q 2706 1984 2436 2262 
Q 2166 2541 1728 2541 
Q 1456 2541 1237 2417 
Q 1019 2294 894 2097 
L 366 2166 
L 809 4519 
L 3088 4519 
L 3088 3981 
L 1259 3981 
L 1013 2750 
Q 1425 3038 1878 3038 
Q 2478 3038 2890 2622 
Q 3303 2206 3303 1553 
Q 3303 931 2941 478 
Q 2500 -78 1738 -78 
Q 1113 -78 717 272 
Q 322 622 266 1200 
z
" transform="scale(0.015625)"/>
       </defs>
       <use xlink:href="#ArialMT-32"/>
       <use xlink:href="#ArialMT-35" x="55.615234"/>
       <use xlink:href="#ArialMT-30" x="111.230469"/>
      </g>
     </g>
    </g>
    <g id="xtick_3">
     <g id="line2d_3">
      <g>
       <use xlink:href="#m9494dde4aa" x="120.070585" y="100.6" style="fill: #262626; stroke: #262626; stroke-width: 0.8"/>
      </g>
     </g>
     <g id="text_3">
      <!-- 500 -->
      <g style="fill: #262626" transform="translate(111.729179 114.757812)scale(0.1 -0.1)">
       <use xlink:href="#ArialMT-35"/>
       <use xlink:href="#ArialMT-30" x="55.615234"/>
       <use xlink:href="#ArialMT-30" x="111.230469"/>
      </g>
     </g>
    </g>
    <g id="xtick_4">
     <g id="line2d_4">
      <g>
       <use xlink:href="#m9494dde4aa" x="155.123178" y="100.6" style="fill: #262626; stroke: #262626; stroke-width: 0.8"/>
      </g>
     </g>
     <g id="text_4">
      <!-- 750 -->
      <g style="fill: #262626" transform="translate(146.781772 114.757812)scale(0.1 -0.1)">
       <defs>
        <path id="ArialMT-37" d="M 303 3981 
L 303 4522 
L 3269 4522 
L 3269 4084 
Q 2831 3619 2401 2847 
Q 1972 2075 1738 1259 
Q 1569 684 1522 0 
L 944 0 
Q 953 541 1156 1306 
Q 1359 2072 1739 2783 
Q 2119 3494 2547 3981 
L 303 3981 
z
" transform="scale(0.015625)"/>
       </defs>
       <use xlink:href="#ArialMT-37"/>
       <use xlink:href="#ArialMT-35" x="55.615234"/>
       <use xlink:href="#ArialMT-30" x="111.230469"/>
      </g>
     </g>
    </g>
    <g id="xtick_5">
     <g id="line2d_5">
      <g>
       <use xlink:href="#m9494dde4aa" x="190.175771" y="100.6" style="fill: #262626; stroke: #262626; stroke-width: 0.8"/>
      </g>
     </g>
     <g id="text_5">
      <!-- 1000 -->
      <g style="fill: #262626" transform="translate(179.053896 114.757812)scale(0.1 -0.1)">
       <defs>
        <path id="ArialMT-31" d="M 2384 0 
L 1822 0 
L 1822 3584 
Q 1619 3391 1289 3197 
Q 959 3003 697 2906 
L 697 3450 
Q 1169 3672 1522 3987 
Q 1875 4303 2022 4600 
L 2384 4600 
L 2384 0 
z
" transform="scale(0.015625)"/>
       </defs>
       <use xlink:href="#ArialMT-31"/>
       <use xlink:href="#ArialMT-30" x="55.615234"/>
       <use xlink:href="#ArialMT-30" x="111.230469"/>
       <use xlink:href="#ArialMT-30" x="166.845703"/>
      </g>
     </g>
    </g>
    <g id="text_6">
     <!-- Regulon Size -->
     <g style="fill: #262626" transform="translate(88.578112 128.025)scale(0.1 -0.1)">
      <defs>
       <path id="ArialMT-52" d="M 503 0 
L 503 4581 
L 2534 4581 
Q 3147 4581 3465 4457 
Q 3784 4334 3975 4021 
Q 4166 3709 4166 3331 
Q 4166 2844 3850 2509 
Q 3534 2175 2875 2084 
Q 3116 1969 3241 1856 
Q 3506 1613 3744 1247 
L 4541 0 
L 3778 0 
L 3172 953 
Q 2906 1366 2734 1584 
Q 2563 1803 2427 1890 
Q 2291 1978 2150 2013 
Q 2047 2034 1813 2034 
L 1109 2034 
L 1109 0 
L 503 0 
z
M 1109 2559 
L 2413 2559 
Q 2828 2559 3062 2645 
Q 3297 2731 3419 2920 
Q 3541 3109 3541 3331 
Q 3541 3656 3305 3865 
Q 3069 4075 2559 4075 
L 1109 4075 
L 1109 2559 
z
" transform="scale(0.015625)"/>
       <path id="ArialMT-65" d="M 2694 1069 
L 3275 997 
Q 3138 488 2766 206 
Q 2394 -75 1816 -75 
Q 1088 -75 661 373 
Q 234 822 234 1631 
Q 234 2469 665 2931 
Q 1097 3394 1784 3394 
Q 2450 3394 2872 2941 
Q 3294 2488 3294 1666 
Q 3294 1616 3291 1516 
L 816 1516 
Q 847 969 1125 678 
Q 1403 388 1819 388 
Q 2128 388 2347 550 
Q 2566 713 2694 1069 
z
M 847 1978 
L 2700 1978 
Q 2663 2397 2488 2606 
Q 2219 2931 1791 2931 
Q 1403 2931 1139 2672 
Q 875 2413 847 1978 
z
" transform="scale(0.015625)"/>
       <path id="ArialMT-67" d="M 319 -275 
L 866 -356 
Q 900 -609 1056 -725 
Q 1266 -881 1628 -881 
Q 2019 -881 2231 -725 
Q 2444 -569 2519 -288 
Q 2563 -116 2559 434 
Q 2191 0 1641 0 
Q 956 0 581 494 
Q 206 988 206 1678 
Q 206 2153 378 2554 
Q 550 2956 876 3175 
Q 1203 3394 1644 3394 
Q 2231 3394 2613 2919 
L 2613 3319 
L 3131 3319 
L 3131 450 
Q 3131 -325 2973 -648 
Q 2816 -972 2473 -1159 
Q 2131 -1347 1631 -1347 
Q 1038 -1347 672 -1080 
Q 306 -813 319 -275 
z
M 784 1719 
Q 784 1066 1043 766 
Q 1303 466 1694 466 
Q 2081 466 2343 764 
Q 2606 1063 2606 1700 
Q 2606 2309 2336 2618 
Q 2066 2928 1684 2928 
Q 1309 2928 1046 2623 
Q 784 2319 784 1719 
z
" transform="scale(0.015625)"/>
       <path id="ArialMT-75" d="M 2597 0 
L 2597 488 
Q 2209 -75 1544 -75 
Q 1250 -75 995 37 
Q 741 150 617 320 
Q 494 491 444 738 
Q 409 903 409 1263 
L 409 3319 
L 972 3319 
L 972 1478 
Q 972 1038 1006 884 
Q 1059 663 1231 536 
Q 1403 409 1656 409 
Q 1909 409 2131 539 
Q 2353 669 2445 892 
Q 2538 1116 2538 1541 
L 2538 3319 
L 3100 3319 
L 3100 0 
L 2597 0 
z
" transform="scale(0.015625)"/>
       <path id="ArialMT-6c" d="M 409 0 
L 409 4581 
L 972 4581 
L 972 0 
L 409 0 
z
" transform="scale(0.015625)"/>
       <path id="ArialMT-6f" d="M 213 1659 
Q 213 2581 725 3025 
Q 1153 3394 1769 3394 
Q 2453 3394 2887 2945 
Q 3322 2497 3322 1706 
Q 3322 1066 3130 698 
Q 2938 331 2570 128 
Q 2203 -75 1769 -75 
Q 1072 -75 642 372 
Q 213 819 213 1659 
z
M 791 1659 
Q 791 1022 1069 705 
Q 1347 388 1769 388 
Q 2188 388 2466 706 
Q 2744 1025 2744 1678 
Q 2744 2294 2464 2611 
Q 2184 2928 1769 2928 
Q 1347 2928 1069 2612 
Q 791 2297 791 1659 
z
" transform="scale(0.015625)"/>
       <path id="ArialMT-6e" d="M 422 0 
L 422 3319 
L 928 3319 
L 928 2847 
Q 1294 3394 1984 3394 
Q 2284 3394 2536 3286 
Q 2788 3178 2913 3003 
Q 3038 2828 3088 2588 
Q 3119 2431 3119 2041 
L 3119 0 
L 2556 0 
L 2556 2019 
Q 2556 2363 2490 2533 
Q 2425 2703 2258 2804 
Q 2091 2906 1866 2906 
Q 1506 2906 1245 2678 
Q 984 2450 984 1813 
L 984 0 
L 422 0 
z
" transform="scale(0.015625)"/>
       <path id="ArialMT-20" transform="scale(0.015625)"/>
       <path id="ArialMT-53" d="M 288 1472 
L 859 1522 
Q 900 1178 1048 958 
Q 1197 738 1509 602 
Q 1822 466 2213 466 
Q 2559 466 2825 569 
Q 3091 672 3220 851 
Q 3350 1031 3350 1244 
Q 3350 1459 3225 1620 
Q 3100 1781 2813 1891 
Q 2628 1963 1997 2114 
Q 1366 2266 1113 2400 
Q 784 2572 623 2826 
Q 463 3081 463 3397 
Q 463 3744 659 4045 
Q 856 4347 1234 4503 
Q 1613 4659 2075 4659 
Q 2584 4659 2973 4495 
Q 3363 4331 3572 4012 
Q 3781 3694 3797 3291 
L 3216 3247 
Q 3169 3681 2898 3903 
Q 2628 4125 2100 4125 
Q 1550 4125 1298 3923 
Q 1047 3722 1047 3438 
Q 1047 3191 1225 3031 
Q 1400 2872 2139 2705 
Q 2878 2538 3153 2413 
Q 3553 2228 3743 1945 
Q 3934 1663 3934 1294 
Q 3934 928 3725 604 
Q 3516 281 3123 101 
Q 2731 -78 2241 -78 
Q 1619 -78 1198 103 
Q 778 284 539 648 
Q 300 1013 288 1472 
z
" transform="scale(0.015625)"/>
       <path id="ArialMT-69" d="M 425 3934 
L 425 4581 
L 988 4581 
L 988 3934 
L 425 3934 
z
M 425 0 
L 425 3319 
L 988 3319 
L 988 0 
L 425 0 
z
" transform="scale(0.015625)"/>
       <path id="ArialMT-7a" d="M 125 0 
L 125 456 
L 2238 2881 
Q 1878 2863 1603 2863 
L 250 2863 
L 250 3319 
L 2963 3319 
L 2963 2947 
L 1166 841 
L 819 456 
Q 1197 484 1528 484 
L 3063 484 
L 3063 0 
L 125 0 
z
" transform="scale(0.015625)"/>
      </defs>
      <use xlink:href="#ArialMT-52"/>
      <use xlink:href="#ArialMT-65" x="72.216797"/>
      <use xlink:href="#ArialMT-67" x="127.832031"/>
      <use xlink:href="#ArialMT-75" x="183.447266"/>
      <use xlink:href="#ArialMT-6c" x="239.0625"/>
      <use xlink:href="#ArialMT-6f" x="261.279297"/>
      <use xlink:href="#ArialMT-6e" x="316.894531"/>
      <use xlink:href="#ArialMT-20" x="372.509766"/>
      <use xlink:href="#ArialMT-53" x="400.292969"/>
      <use xlink:href="#ArialMT-69" x="466.992188"/>
      <use xlink:href="#ArialMT-7a" x="489.208984"/>
      <use xlink:href="#ArialMT-65" x="539.208984"/>
     </g>
    </g>
   </g>
   <g id="matplotlib.axis_2">
    <g id="ytick_1">
     <g id="line2d_6">
      <defs>
       <path id="m36d173e416" d="M 0 0 
L -3.5 0 
" style="stroke: #262626; stroke-width: 0.8"/>
      </defs>
      <g>
       <use xlink:href="#m36d173e416" x="43.284375" y="96.354545" style="fill: #262626; stroke: #262626; stroke-width: 0.8"/>
      </g>
     </g>
     <g id="text_7">
      <!-- $\mathdefault{10^{0}}$ -->
      <g style="fill: #262626" transform="translate(20.584375 101.510795)scale(0.1 -0.1)">
       <use xlink:href="#ArialMT-31" transform="translate(0 0.99375)"/>
       <use xlink:href="#ArialMT-30" transform="translate(55.615234 0.99375)"/>
       <use xlink:href="#ArialMT-30" transform="translate(112.972813 70.6875)scale(0.7)"/>
      </g>
     </g>
    </g>
    <g id="ytick_2">
     <g id="line2d_7">
      <g>
       <use xlink:href="#m36d173e416" x="43.284375" y="60.788887" style="fill: #262626; stroke: #262626; stroke-width: 0.8"/>
      </g>
     </g>
     <g id="text_8">
      <!-- $\mathdefault{10^{1}}$ -->
      <g style="fill: #262626" transform="translate(20.584375 65.945137)scale(0.1 -0.1)">
       <use xlink:href="#ArialMT-31" transform="translate(0 0.99375)"/>
       <use xlink:href="#ArialMT-30" transform="translate(55.615234 0.99375)"/>
       <use xlink:href="#ArialMT-31" transform="translate(112.972813 70.6875)scale(0.7)"/>
      </g>
     </g>
    </g>
    <g id="ytick_3">
     <g id="line2d_8">
      <g>
       <use xlink:href="#m36d173e416" x="43.284375" y="25.223229" style="fill: #262626; stroke: #262626; stroke-width: 0.8"/>
      </g>
     </g>
     <g id="text_9">
      <!-- $\mathdefault{10^{2}}$ -->
      <g style="fill: #262626" transform="translate(20.584375 30.379479)scale(0.1 -0.1)">
       <use xlink:href="#ArialMT-31" transform="translate(0 0.99375)"/>
       <use xlink:href="#ArialMT-30" transform="translate(55.615234 0.99375)"/>
       <use xlink:href="#ArialMT-32" transform="translate(112.972813 70.6875)scale(0.7)"/>
      </g>
     </g>
    </g>
    <g id="ytick_4">
     <g id="line2d_9">
      <defs>
       <path id="ma678ec29df" d="M 0 0 
L -2 0 
" style="stroke: #262626; stroke-width: 0.6"/>
      </defs>
      <g>
       <use xlink:href="#ma678ec29df" x="43.284375" y="99.801214" style="fill: #262626; stroke: #262626; stroke-width: 0.6"/>
      </g>
     </g>
    </g>
    <g id="ytick_5">
     <g id="line2d_10">
      <g>
       <use xlink:href="#ma678ec29df" x="43.284375" y="97.981941" style="fill: #262626; stroke: #262626; stroke-width: 0.6"/>
      </g>
     </g>
    </g>
    <g id="ytick_6">
     <g id="line2d_11">
      <g>
       <use xlink:href="#ma678ec29df" x="43.284375" y="85.648215" style="fill: #262626; stroke: #262626; stroke-width: 0.6"/>
      </g>
     </g>
    </g>
    <g id="ytick_7">
     <g id="line2d_12">
      <g>
       <use xlink:href="#ma678ec29df" x="43.284375" y="79.385414" style="fill: #262626; stroke: #262626; stroke-width: 0.6"/>
      </g>
     </g>
    </g>
    <g id="ytick_8">
     <g id="line2d_13">
      <g>
       <use xlink:href="#ma678ec29df" x="43.284375" y="74.941885" style="fill: #262626; stroke: #262626; stroke-width: 0.6"/>
      </g>
     </g>
    </g>
    <g id="ytick_9">
     <g id="line2d_14">
      <g>
       <use xlink:href="#ma678ec29df" x="43.284375" y="71.495217" style="fill: #262626; stroke: #262626; stroke-width: 0.6"/>
      </g>
     </g>
    </g>
    <g id="ytick_10">
     <g id="line2d_15">
      <g>
       <use xlink:href="#ma678ec29df" x="43.284375" y="68.679084" style="fill: #262626; stroke: #262626; stroke-width: 0.6"/>
      </g>
     </g>
    </g>
    <g id="ytick_11">
     <g id="line2d_16">
      <g>
       <use xlink:href="#ma678ec29df" x="43.284375" y="66.298077" style="fill: #262626; stroke: #262626; stroke-width: 0.6"/>
      </g>
     </g>
    </g>
    <g id="ytick_12">
     <g id="line2d_17">
      <g>
       <use xlink:href="#ma678ec29df" x="43.284375" y="64.235556" style="fill: #262626; stroke: #262626; stroke-width: 0.6"/>
      </g>
     </g>
    </g>
    <g id="ytick_13">
     <g id="line2d_18">
      <g>
       <use xlink:href="#ma678ec29df" x="43.284375" y="62.416282" style="fill: #262626; stroke: #262626; stroke-width: 0.6"/>
      </g>
     </g>
    </g>
    <g id="ytick_14">
     <g id="line2d_19">
      <g>
       <use xlink:href="#ma678ec29df" x="43.284375" y="50.082557" style="fill: #262626; stroke: #262626; stroke-width: 0.6"/>
      </g>
     </g>
    </g>
    <g id="ytick_15">
     <g id="line2d_20">
      <g>
       <use xlink:href="#ma678ec29df" x="43.284375" y="43.819756" style="fill: #262626; stroke: #262626; stroke-width: 0.6"/>
      </g>
     </g>
    </g>
    <g id="ytick_16">
     <g id="line2d_21">
      <g>
       <use xlink:href="#ma678ec29df" x="43.284375" y="39.376227" style="fill: #262626; stroke: #262626; stroke-width: 0.6"/>
      </g>
     </g>
    </g>
    <g id="ytick_17">
     <g id="line2d_22">
      <g>
       <use xlink:href="#ma678ec29df" x="43.284375" y="35.929559" style="fill: #262626; stroke: #262626; stroke-width: 0.6"/>
      </g>
     </g>
    </g>
    <g id="ytick_18">
     <g id="line2d_23">
      <g>
       <use xlink:href="#ma678ec29df" x="43.284375" y="33.113426" style="fill: #262626; stroke: #262626; stroke-width: 0.6"/>
      </g>
     </g>
    </g>
    <g id="ytick_19">
     <g id="line2d_24">
      <g>
       <use xlink:href="#ma678ec29df" x="43.284375" y="30.732419" style="fill: #262626; stroke: #262626; stroke-width: 0.6"/>
      </g>
     </g>
    </g>
    <g id="ytick_20">
     <g id="line2d_25">
      <g>
       <use xlink:href="#ma678ec29df" x="43.284375" y="28.669897" style="fill: #262626; stroke: #262626; stroke-width: 0.6"/>
      </g>
     </g>
    </g>
    <g id="ytick_21">
     <g id="line2d_26">
      <g>
       <use xlink:href="#ma678ec29df" x="43.284375" y="26.850624" style="fill: #262626; stroke: #262626; stroke-width: 0.6"/>
      </g>
     </g>
    </g>
    <g id="ytick_22">
     <g id="line2d_27">
      <g>
       <use xlink:href="#ma678ec29df" x="43.284375" y="14.516899" style="fill: #262626; stroke: #262626; stroke-width: 0.6"/>
      </g>
     </g>
    </g>
    <g id="ytick_23">
     <g id="line2d_28">
      <g>
       <use xlink:href="#ma678ec29df" x="43.284375" y="8.254097" style="fill: #262626; stroke: #262626; stroke-width: 0.6"/>
      </g>
     </g>
    </g>
    <g id="text_10">
     <!-- # Regulons -->
     <g style="fill: #262626" transform="translate(14.479687 79.19375)rotate(-90)scale(0.1 -0.1)">
      <defs>
       <path id="ArialMT-23" d="M 322 -78 
L 594 1253 
L 66 1253 
L 66 1719 
L 688 1719 
L 919 2853 
L 66 2853 
L 66 3319 
L 1013 3319 
L 1284 4659 
L 1753 4659 
L 1481 3319 
L 2466 3319 
L 2738 4659 
L 3209 4659 
L 2938 3319 
L 3478 3319 
L 3478 2853 
L 2844 2853 
L 2609 1719 
L 3478 1719 
L 3478 1253 
L 2516 1253 
L 2244 -78 
L 1775 -78 
L 2044 1253 
L 1063 1253 
L 791 -78 
L 322 -78 
z
M 1156 1719 
L 2138 1719 
L 2372 2853 
L 1388 2853 
L 1156 1719 
z
" transform="scale(0.015625)"/>
       <path id="ArialMT-73" d="M 197 991 
L 753 1078 
Q 800 744 1014 566 
Q 1228 388 1613 388 
Q 2000 388 2187 545 
Q 2375 703 2375 916 
Q 2375 1106 2209 1216 
Q 2094 1291 1634 1406 
Q 1016 1563 777 1677 
Q 538 1791 414 1992 
Q 291 2194 291 2438 
Q 291 2659 392 2848 
Q 494 3038 669 3163 
Q 800 3259 1026 3326 
Q 1253 3394 1513 3394 
Q 1903 3394 2198 3281 
Q 2494 3169 2634 2976 
Q 2775 2784 2828 2463 
L 2278 2388 
Q 2241 2644 2061 2787 
Q 1881 2931 1553 2931 
Q 1166 2931 1000 2803 
Q 834 2675 834 2503 
Q 834 2394 903 2306 
Q 972 2216 1119 2156 
Q 1203 2125 1616 2013 
Q 2213 1853 2448 1751 
Q 2684 1650 2818 1456 
Q 2953 1263 2953 975 
Q 2953 694 2789 445 
Q 2625 197 2315 61 
Q 2006 -75 1616 -75 
Q 969 -75 630 194 
Q 291 463 197 991 
z
" transform="scale(0.015625)"/>
      </defs>
      <use xlink:href="#ArialMT-23"/>
      <use xlink:href="#ArialMT-20" x="55.615234"/>
      <use xlink:href="#ArialMT-52" x="83.398438"/>
      <use xlink:href="#ArialMT-65" x="155.615234"/>
      <use xlink:href="#ArialMT-67" x="211.230469"/>
      <use xlink:href="#ArialMT-75" x="266.845703"/>
      <use xlink:href="#ArialMT-6c" x="322.460938"/>
      <use xlink:href="#ArialMT-6f" x="344.677734"/>
      <use xlink:href="#ArialMT-6e" x="400.292969"/>
      <use xlink:href="#ArialMT-73" x="455.908203"/>
     </g>
    </g>
   </g>
   <g id="patch_3">
    <path d="M 50.10561 35662.012894 
L 55.562597 35662.012894 
L 55.562597 28.478019 
L 50.10561 28.478019 
z
" clip-path="url(#p8a6b780d3e)" style="fill: #4682b4; fill-opacity: 0.6; stroke: #ffffff; stroke-width: 0.608727; stroke-linejoin: miter"/>
   </g>
   <g id="patch_4">
    <path d="M 55.562597 35662.012894 
L 61.019585 35662.012894 
L 61.019585 51.709952 
L 55.562597 51.709952 
z
" clip-path="url(#p8a6b780d3e)" style="fill: #4682b4; fill-opacity: 0.6; stroke: #ffffff; stroke-width: 0.608727; stroke-linejoin: miter"/>
   </g>
   <g id="patch_5">
    <path d="M 61.019585 35662.012894 
L 66.476573 35662.012894 
L 66.476573 74.941885 
L 61.019585 74.941885 
z
" clip-path="url(#p8a6b780d3e)" style="fill: #4682b4; fill-opacity: 0.6; stroke: #ffffff; stroke-width: 0.608727; stroke-linejoin: miter"/>
   </g>
   <g id="patch_6">
    <path d="M 66.476573 35662.012894 
L 71.93356 35662.012894 
L 71.93356 71.495217 
L 66.476573 71.495217 
z
" clip-path="url(#p8a6b780d3e)" style="fill: #4682b4; fill-opacity: 0.6; stroke: #ffffff; stroke-width: 0.608727; stroke-linejoin: miter"/>
   </g>
   <g id="patch_7">
    <path d="M 71.93356 35662.012894 
L 77.390548 35662.012894 
L 77.390548 85.648215 
L 71.93356 85.648215 
z
" clip-path="url(#p8a6b780d3e)" style="fill: #4682b4; fill-opacity: 0.6; stroke: #ffffff; stroke-width: 0.608727; stroke-linejoin: miter"/>
   </g>
   <g id="patch_8">
    <path d="M 77.390548 35662.012894 
L 82.847536 35662.012894 
L 82.847536 85.648215 
L 77.390548 85.648215 
z
" clip-path="url(#p8a6b780d3e)" style="fill: #4682b4; fill-opacity: 0.6; stroke: #ffffff; stroke-width: 0.608727; stroke-linejoin: miter"/>
   </g>
   <g id="patch_9">
    <path d="M 82.847536 35662.012894 
L 88.304523 35662.012894 
L 88.304523 85.648215 
L 82.847536 85.648215 
z
" clip-path="url(#p8a6b780d3e)" style="fill: #4682b4; fill-opacity: 0.6; stroke: #ffffff; stroke-width: 0.608727; stroke-linejoin: miter"/>
   </g>
   <g id="patch_10">
    <path d="M 88.304523 35662.012894 
L 93.761511 35662.012894 
L 93.761511 35662.012894 
L 88.304523 35662.012894 
z
" clip-path="url(#p8a6b780d3e)" style="fill: #4682b4; fill-opacity: 0.6; stroke: #ffffff; stroke-width: 0.608727; stroke-linejoin: miter"/>
   </g>
   <g id="patch_11">
    <path d="M 93.761511 35662.012894 
L 99.218499 35662.012894 
L 99.218499 85.648215 
L 93.761511 85.648215 
z
" clip-path="url(#p8a6b780d3e)" style="fill: #4682b4; fill-opacity: 0.6; stroke: #ffffff; stroke-width: 0.608727; stroke-linejoin: miter"/>
   </g>
   <g id="patch_12">
    <path d="M 99.218499 35662.012894 
L 104.675486 35662.012894 
L 104.675486 96.354545 
L 99.218499 96.354545 
z
" clip-path="url(#p8a6b780d3e)" style="fill: #4682b4; fill-opacity: 0.6; stroke: #ffffff; stroke-width: 0.608727; stroke-linejoin: miter"/>
   </g>
   <g id="patch_13">
    <path d="M 104.675486 35662.012894 
L 110.132474 35662.012894 
L 110.132474 35662.012894 
L 104.675486 35662.012894 
z
" clip-path="url(#p8a6b780d3e)" style="fill: #4682b4; fill-opacity: 0.6; stroke: #ffffff; stroke-width: 0.608727; stroke-linejoin: miter"/>
   </g>
   <g id="patch_14">
    <path d="M 110.132474 35662.012894 
L 115.589462 35662.012894 
L 115.589462 35662.012894 
L 110.132474 35662.012894 
z
" clip-path="url(#p8a6b780d3e)" style="fill: #4682b4; fill-opacity: 0.6; stroke: #ffffff; stroke-width: 0.608727; stroke-linejoin: miter"/>
   </g>
   <g id="patch_15">
    <path d="M 115.589462 35662.012894 
L 121.046449 35662.012894 
L 121.046449 35662.012894 
L 115.589462 35662.012894 
z
" clip-path="url(#p8a6b780d3e)" style="fill: #4682b4; fill-opacity: 0.6; stroke: #ffffff; stroke-width: 0.608727; stroke-linejoin: miter"/>
   </g>
   <g id="patch_16">
    <path d="M 121.046449 35662.012894 
L 126.503437 35662.012894 
L 126.503437 96.354545 
L 121.046449 96.354545 
z
" clip-path="url(#p8a6b780d3e)" style="fill: #4682b4; fill-opacity: 0.6; stroke: #ffffff; stroke-width: 0.608727; stroke-linejoin: miter"/>
   </g>
   <g id="patch_17">
    <path d="M 126.503437 35662.012894 
L 131.960425 35662.012894 
L 131.960425 96.354545 
L 126.503437 96.354545 
z
" clip-path="url(#p8a6b780d3e)" style="fill: #4682b4; fill-opacity: 0.6; stroke: #ffffff; stroke-width: 0.608727; stroke-linejoin: miter"/>
   </g>
   <g id="patch_18">
    <path d="M 131.960425 35662.012894 
L 137.417413 35662.012894 
L 137.417413 35662.012894 
L 131.960425 35662.012894 
z
" clip-path="url(#p8a6b780d3e)" style="fill: #4682b4; fill-opacity: 0.6; stroke: #ffffff; stroke-width: 0.608727; stroke-linejoin: miter"/>
   </g>
   <g id="patch_19">
    <path d="M 137.417413 35662.012894 
L 142.8744 35662.012894 
L 142.8744 35662.012894 
L 137.417413 35662.012894 
z
" clip-path="url(#p8a6b780d3e)" style="fill: #4682b4; fill-opacity: 0.6; stroke: #ffffff; stroke-width: 0.608727; stroke-linejoin: miter"/>
   </g>
   <g id="patch_20">
    <path d="M 142.8744 35662.012894 
L 148.331388 35662.012894 
L 148.331388 35662.012894 
L 142.8744 35662.012894 
z
" clip-path="url(#p8a6b780d3e)" style="fill: #4682b4; fill-opacity: 0.6; stroke: #ffffff; stroke-width: 0.608727; stroke-linejoin: miter"/>
   </g>
   <g id="patch_21">
    <path d="M 148.331388 35662.012894 
L 153.788376 35662.012894 
L 153.788376 35662.012894 
L 148.331388 35662.012894 
z
" clip-path="url(#p8a6b780d3e)" style="fill: #4682b4; fill-opacity: 0.6; stroke: #ffffff; stroke-width: 0.608727; stroke-linejoin: miter"/>
   </g>
   <g id="patch_22">
    <path d="M 153.788376 35662.012894 
L 159.245363 35662.012894 
L 159.245363 35662.012894 
L 153.788376 35662.012894 
z
" clip-path="url(#p8a6b780d3e)" style="fill: #4682b4; fill-opacity: 0.6; stroke: #ffffff; stroke-width: 0.608727; stroke-linejoin: miter"/>
   </g>
   <g id="patch_23">
    <path d="M 159.245363 35662.012894 
L 164.702351 35662.012894 
L 164.702351 35662.012894 
L 159.245363 35662.012894 
z
" clip-path="url(#p8a6b780d3e)" style="fill: #4682b4; fill-opacity: 0.6; stroke: #ffffff; stroke-width: 0.608727; stroke-linejoin: miter"/>
   </g>
   <g id="patch_24">
    <path d="M 164.702351 35662.012894 
L 170.159339 35662.012894 
L 170.159339 35662.012894 
L 164.702351 35662.012894 
z
" clip-path="url(#p8a6b780d3e)" style="fill: #4682b4; fill-opacity: 0.6; stroke: #ffffff; stroke-width: 0.608727; stroke-linejoin: miter"/>
   </g>
   <g id="patch_25">
    <path d="M 170.159339 35662.012894 
L 175.616326 35662.012894 
L 175.616326 35662.012894 
L 170.159339 35662.012894 
z
" clip-path="url(#p8a6b780d3e)" style="fill: #4682b4; fill-opacity: 0.6; stroke: #ffffff; stroke-width: 0.608727; stroke-linejoin: miter"/>
   </g>
   <g id="patch_26">
    <path d="M 175.616326 35662.012894 
L 181.073314 35662.012894 
L 181.073314 35662.012894 
L 175.616326 35662.012894 
z
" clip-path="url(#p8a6b780d3e)" style="fill: #4682b4; fill-opacity: 0.6; stroke: #ffffff; stroke-width: 0.608727; stroke-linejoin: miter"/>
   </g>
   <g id="patch_27">
    <path d="M 181.073314 35662.012894 
L 186.530302 35662.012894 
L 186.530302 96.354545 
L 181.073314 96.354545 
z
" clip-path="url(#p8a6b780d3e)" style="fill: #4682b4; fill-opacity: 0.6; stroke: #ffffff; stroke-width: 0.608727; stroke-linejoin: miter"/>
   </g>
   <g id="patch_28">
    <path d="M 50.10561 35662.012894 
L 55.562597 35662.012894 
L 55.562597 11.445455 
L 50.10561 11.445455 
z
" clip-path="url(#p8a6b780d3e)" style="fill: #b22222; fill-opacity: 0.6; stroke: #ffffff; stroke-width: 0.608727; stroke-linejoin: miter"/>
   </g>
   <g id="patch_29">
    <path d="M 55.562597 35662.012894 
L 61.019585 35662.012894 
L 61.019585 74.941885 
L 55.562597 74.941885 
z
" clip-path="url(#p8a6b780d3e)" style="fill: #b22222; fill-opacity: 0.6; stroke: #ffffff; stroke-width: 0.608727; stroke-linejoin: miter"/>
   </g>
   <g id="patch_30">
    <path d="M 61.019585 35662.012894 
L 66.476573 35662.012894 
L 66.476573 85.648215 
L 61.019585 85.648215 
z
" clip-path="url(#p8a6b780d3e)" style="fill: #b22222; fill-opacity: 0.6; stroke: #ffffff; stroke-width: 0.608727; stroke-linejoin: miter"/>
   </g>
   <g id="patch_31">
    <path d="M 66.476573 35662.012894 
L 71.93356 35662.012894 
L 71.93356 35662.012894 
L 66.476573 35662.012894 
z
" clip-path="url(#p8a6b780d3e)" style="fill: #b22222; fill-opacity: 0.6; stroke: #ffffff; stroke-width: 0.608727; stroke-linejoin: miter"/>
   </g>
   <g id="patch_32">
    <path d="M 71.93356 35662.012894 
L 77.390548 35662.012894 
L 77.390548 35662.012894 
L 71.93356 35662.012894 
z
" clip-path="url(#p8a6b780d3e)" style="fill: #b22222; fill-opacity: 0.6; stroke: #ffffff; stroke-width: 0.608727; stroke-linejoin: miter"/>
   </g>
   <g id="patch_33">
    <path d="M 77.390548 35662.012894 
L 82.847536 35662.012894 
L 82.847536 35662.012894 
L 77.390548 35662.012894 
z
" clip-path="url(#p8a6b780d3e)" style="fill: #b22222; fill-opacity: 0.6; stroke: #ffffff; stroke-width: 0.608727; stroke-linejoin: miter"/>
   </g>
   <g id="patch_34">
    <path d="M 82.847536 35662.012894 
L 88.304523 35662.012894 
L 88.304523 35662.012894 
L 82.847536 35662.012894 
z
" clip-path="url(#p8a6b780d3e)" style="fill: #b22222; fill-opacity: 0.6; stroke: #ffffff; stroke-width: 0.608727; stroke-linejoin: miter"/>
   </g>
   <g id="patch_35">
    <path d="M 88.304523 35662.012894 
L 93.761511 35662.012894 
L 93.761511 35662.012894 
L 88.304523 35662.012894 
z
" clip-path="url(#p8a6b780d3e)" style="fill: #b22222; fill-opacity: 0.6; stroke: #ffffff; stroke-width: 0.608727; stroke-linejoin: miter"/>
   </g>
   <g id="patch_36">
    <path d="M 93.761511 35662.012894 
L 99.218499 35662.012894 
L 99.218499 35662.012894 
L 93.761511 35662.012894 
z
" clip-path="url(#p8a6b780d3e)" style="fill: #b22222; fill-opacity: 0.6; stroke: #ffffff; stroke-width: 0.608727; stroke-linejoin: miter"/>
   </g>
   <g id="patch_37">
    <path d="M 99.218499 35662.012894 
L 104.675486 35662.012894 
L 104.675486 35662.012894 
L 99.218499 35662.012894 
z
" clip-path="url(#p8a6b780d3e)" style="fill: #b22222; fill-opacity: 0.6; stroke: #ffffff; stroke-width: 0.608727; stroke-linejoin: miter"/>
   </g>
   <g id="patch_38">
    <path d="M 104.675486 35662.012894 
L 110.132474 35662.012894 
L 110.132474 35662.012894 
L 104.675486 35662.012894 
z
" clip-path="url(#p8a6b780d3e)" style="fill: #b22222; fill-opacity: 0.6; stroke: #ffffff; stroke-width: 0.608727; stroke-linejoin: miter"/>
   </g>
   <g id="patch_39">
    <path d="M 110.132474 35662.012894 
L 115.589462 35662.012894 
L 115.589462 35662.012894 
L 110.132474 35662.012894 
z
" clip-path="url(#p8a6b780d3e)" style="fill: #b22222; fill-opacity: 0.6; stroke: #ffffff; stroke-width: 0.608727; stroke-linejoin: miter"/>
   </g>
   <g id="patch_40">
    <path d="M 115.589462 35662.012894 
L 121.046449 35662.012894 
L 121.046449 35662.012894 
L 115.589462 35662.012894 
z
" clip-path="url(#p8a6b780d3e)" style="fill: #b22222; fill-opacity: 0.6; stroke: #ffffff; stroke-width: 0.608727; stroke-linejoin: miter"/>
   </g>
   <g id="patch_41">
    <path d="M 121.046449 35662.012894 
L 126.503437 35662.012894 
L 126.503437 35662.012894 
L 121.046449 35662.012894 
z
" clip-path="url(#p8a6b780d3e)" style="fill: #b22222; fill-opacity: 0.6; stroke: #ffffff; stroke-width: 0.608727; stroke-linejoin: miter"/>
   </g>
   <g id="patch_42">
    <path d="M 126.503437 35662.012894 
L 131.960425 35662.012894 
L 131.960425 35662.012894 
L 126.503437 35662.012894 
z
" clip-path="url(#p8a6b780d3e)" style="fill: #b22222; fill-opacity: 0.6; stroke: #ffffff; stroke-width: 0.608727; stroke-linejoin: miter"/>
   </g>
   <g id="patch_43">
    <path d="M 131.960425 35662.012894 
L 137.417413 35662.012894 
L 137.417413 35662.012894 
L 131.960425 35662.012894 
z
" clip-path="url(#p8a6b780d3e)" style="fill: #b22222; fill-opacity: 0.6; stroke: #ffffff; stroke-width: 0.608727; stroke-linejoin: miter"/>
   </g>
   <g id="patch_44">
    <path d="M 137.417413 35662.012894 
L 142.8744 35662.012894 
L 142.8744 35662.012894 
L 137.417413 35662.012894 
z
" clip-path="url(#p8a6b780d3e)" style="fill: #b22222; fill-opacity: 0.6; stroke: #ffffff; stroke-width: 0.608727; stroke-linejoin: miter"/>
   </g>
   <g id="patch_45">
    <path d="M 142.8744 35662.012894 
L 148.331388 35662.012894 
L 148.331388 35662.012894 
L 142.8744 35662.012894 
z
" clip-path="url(#p8a6b780d3e)" style="fill: #b22222; fill-opacity: 0.6; stroke: #ffffff; stroke-width: 0.608727; stroke-linejoin: miter"/>
   </g>
   <g id="patch_46">
    <path d="M 148.331388 35662.012894 
L 153.788376 35662.012894 
L 153.788376 35662.012894 
L 148.331388 35662.012894 
z
" clip-path="url(#p8a6b780d3e)" style="fill: #b22222; fill-opacity: 0.6; stroke: #ffffff; stroke-width: 0.608727; stroke-linejoin: miter"/>
   </g>
   <g id="patch_47">
    <path d="M 153.788376 35662.012894 
L 159.245363 35662.012894 
L 159.245363 35662.012894 
L 153.788376 35662.012894 
z
" clip-path="url(#p8a6b780d3e)" style="fill: #b22222; fill-opacity: 0.6; stroke: #ffffff; stroke-width: 0.608727; stroke-linejoin: miter"/>
   </g>
   <g id="patch_48">
    <path d="M 159.245363 35662.012894 
L 164.702351 35662.012894 
L 164.702351 35662.012894 
L 159.245363 35662.012894 
z
" clip-path="url(#p8a6b780d3e)" style="fill: #b22222; fill-opacity: 0.6; stroke: #ffffff; stroke-width: 0.608727; stroke-linejoin: miter"/>
   </g>
   <g id="patch_49">
    <path d="M 164.702351 35662.012894 
L 170.159339 35662.012894 
L 170.159339 35662.012894 
L 164.702351 35662.012894 
z
" clip-path="url(#p8a6b780d3e)" style="fill: #b22222; fill-opacity: 0.6; stroke: #ffffff; stroke-width: 0.608727; stroke-linejoin: miter"/>
   </g>
   <g id="patch_50">
    <path d="M 170.159339 35662.012894 
L 175.616326 35662.012894 
L 175.616326 35662.012894 
L 170.159339 35662.012894 
z
" clip-path="url(#p8a6b780d3e)" style="fill: #b22222; fill-opacity: 0.6; stroke: #ffffff; stroke-width: 0.608727; stroke-linejoin: miter"/>
   </g>
   <g id="patch_51">
    <path d="M 175.616326 35662.012894 
L 181.073314 35662.012894 
L 181.073314 35662.012894 
L 175.616326 35662.012894 
z
" clip-path="url(#p8a6b780d3e)" style="fill: #b22222; fill-opacity: 0.6; stroke: #ffffff; stroke-width: 0.608727; stroke-linejoin: miter"/>
   </g>
   <g id="patch_52">
    <path d="M 181.073314 35662.012894 
L 186.530302 35662.012894 
L 186.530302 35662.012894 
L 181.073314 35662.012894 
z
" clip-path="url(#p8a6b780d3e)" style="fill: #b22222; fill-opacity: 0.6; stroke: #ffffff; stroke-width: 0.608727; stroke-linejoin: miter"/>
   </g>
   <g id="patch_53">
    <path d="M 43.284375 100.6 
L 43.284375 7.2 
" style="fill: none; stroke: #000000; stroke-linejoin: miter; stroke-linecap: square"/>
   </g>
   <g id="patch_54">
    <path d="M 193.351536 100.6 
L 193.351536 7.2 
" style="fill: none; stroke: #000000; stroke-linejoin: miter; stroke-linecap: square"/>
   </g>
   <g id="patch_55">
    <path d="M 43.284375 100.6 
L 193.351536 100.6 
" style="fill: none; stroke: #000000; stroke-linejoin: miter; stroke-linecap: square"/>
   </g>
   <g id="patch_56">
    <path d="M 43.284375 7.2 
L 193.351536 7.2 
" style="fill: none; stroke: #000000; stroke-linejoin: miter; stroke-linecap: square"/>
   </g>
   <g id="legend_1">
    <g id="patch_57">
     <path d="M 129.899974 57.635937 
L 186.351536 57.635937 
Q 188.351536 57.635937 188.351536 55.635937 
L 188.351536 14.2 
Q 188.351536 12.2 186.351536 12.2 
L 129.899974 12.2 
Q 127.899974 12.2 127.899974 14.2 
L 127.899974 55.635937 
Q 127.899974 57.635937 129.899974 57.635937 
z
" style="fill: #ffffff; opacity: 0.8; stroke: #cccccc; stroke-linejoin: miter"/>
    </g>
    <g id="text_11">
     <!-- in iM -->
     <g style="fill: #262626" transform="translate(147.569505 23.357812)scale(0.1 -0.1)">
      <defs>
       <path id="ArialMT-4d" d="M 475 0 
L 475 4581 
L 1388 4581 
L 2472 1338 
Q 2622 884 2691 659 
Q 2769 909 2934 1394 
L 4031 4581 
L 4847 4581 
L 4847 0 
L 4263 0 
L 4263 3834 
L 2931 0 
L 2384 0 
L 1059 3900 
L 1059 0 
L 475 0 
z
" transform="scale(0.015625)"/>
      </defs>
      <use xlink:href="#ArialMT-69"/>
      <use xlink:href="#ArialMT-6e" x="22.216797"/>
      <use xlink:href="#ArialMT-20" x="77.832031"/>
      <use xlink:href="#ArialMT-69" x="105.615234"/>
      <use xlink:href="#ArialMT-4d" x="127.832031"/>
     </g>
    </g>
    <g id="patch_58">
     <path d="M 131.899974 37.503125 
L 151.899974 37.503125 
L 151.899974 30.503125 
L 131.899974 30.503125 
z
" style="fill: #b22222; fill-opacity: 0.6; stroke: #ffffff; stroke-linejoin: miter"/>
    </g>
    <g id="text_12">
     <!-- False -->
     <g style="fill: #262626" transform="translate(159.899974 37.503125)scale(0.1 -0.1)">
      <defs>
       <path id="ArialMT-46" d="M 525 0 
L 525 4581 
L 3616 4581 
L 3616 4041 
L 1131 4041 
L 1131 2622 
L 3281 2622 
L 3281 2081 
L 1131 2081 
L 1131 0 
L 525 0 
z
" transform="scale(0.015625)"/>
       <path id="ArialMT-61" d="M 2588 409 
Q 2275 144 1986 34 
Q 1697 -75 1366 -75 
Q 819 -75 525 192 
Q 231 459 231 875 
Q 231 1119 342 1320 
Q 453 1522 633 1644 
Q 813 1766 1038 1828 
Q 1203 1872 1538 1913 
Q 2219 1994 2541 2106 
Q 2544 2222 2544 2253 
Q 2544 2597 2384 2738 
Q 2169 2928 1744 2928 
Q 1347 2928 1158 2789 
Q 969 2650 878 2297 
L 328 2372 
Q 403 2725 575 2942 
Q 747 3159 1072 3276 
Q 1397 3394 1825 3394 
Q 2250 3394 2515 3294 
Q 2781 3194 2906 3042 
Q 3031 2891 3081 2659 
Q 3109 2516 3109 2141 
L 3109 1391 
Q 3109 606 3145 398 
Q 3181 191 3288 0 
L 2700 0 
Q 2613 175 2588 409 
z
M 2541 1666 
Q 2234 1541 1622 1453 
Q 1275 1403 1131 1340 
Q 988 1278 909 1158 
Q 831 1038 831 891 
Q 831 666 1001 516 
Q 1172 366 1500 366 
Q 1825 366 2078 508 
Q 2331 650 2450 897 
Q 2541 1088 2541 1459 
L 2541 1666 
z
" transform="scale(0.015625)"/>
      </defs>
      <use xlink:href="#ArialMT-46"/>
      <use xlink:href="#ArialMT-61" x="61.083984"/>
      <use xlink:href="#ArialMT-6c" x="116.699219"/>
      <use xlink:href="#ArialMT-73" x="138.916016"/>
      <use xlink:href="#ArialMT-65" x="188.916016"/>
     </g>
    </g>
    <g id="patch_59">
     <path d="M 131.899974 51.648438 
L 151.899974 51.648438 
L 151.899974 44.648438 
L 131.899974 44.648438 
z
" style="fill: #4682b4; fill-opacity: 0.6; stroke: #ffffff; stroke-linejoin: miter"/>
    </g>
    <g id="text_13">
     <!-- True -->
     <g style="fill: #262626" transform="translate(159.899974 51.648438)scale(0.1 -0.1)">
      <defs>
       <path id="ArialMT-54" d="M 1659 0 
L 1659 4041 
L 150 4041 
L 150 4581 
L 3781 4581 
L 3781 4041 
L 2266 4041 
L 2266 0 
L 1659 0 
z
" transform="scale(0.015625)"/>
       <path id="ArialMT-72" d="M 416 0 
L 416 3319 
L 922 3319 
L 922 2816 
Q 1116 3169 1280 3281 
Q 1444 3394 1641 3394 
Q 1925 3394 2219 3213 
L 2025 2691 
Q 1819 2813 1613 2813 
Q 1428 2813 1281 2702 
Q 1134 2591 1072 2394 
Q 978 2094 978 1738 
L 978 0 
L 416 0 
z
" transform="scale(0.015625)"/>
      </defs>
      <use xlink:href="#ArialMT-54"/>
      <use xlink:href="#ArialMT-72" x="57.333984"/>
      <use xlink:href="#ArialMT-75" x="90.634766"/>
      <use xlink:href="#ArialMT-65" x="146.25"/>
     </g>
    </g>
   </g>
  </g>
 </g>
 <defs>
  <clipPath id="p8a6b780d3e">
   <rect x="43.284375" y="7.2" width="150.067161" height="93.4"/>
  </clipPath>
 </defs>
</svg>
