<?xml version="1.0" encoding="utf-8" standalone="no"?>
<!DOCTYPE svg PUBLIC "-//W3C//DTD SVG 1.1//EN"
  "http://www.w3.org/Graphics/SVG/1.1/DTD/svg11.dtd">
<svg xmlns:xlink="http://www.w3.org/1999/xlink" width="226.66125pt" height="269.029531pt" viewBox="0 0 226.66125 269.029531" xmlns="http://www.w3.org/2000/svg" version="1.1">
 <metadata>
  <rdf:RDF xmlns:dc="http://purl.org/dc/elements/1.1/" xmlns:cc="http://creativecommons.org/ns#" xmlns:rdf="http://www.w3.org/1999/02/22-rdf-syntax-ns#">
   <cc:Work>
    <dc:type rdf:resource="http://purl.org/dc/dcmitype/StillImage"/>
    <dc:date>2023-07-27T17:39:25.841180</dc:date>
    <dc:format>image/svg+xml</dc:format>
    <dc:creator>
     <cc:Agent>
      <dc:title>Matplotlib v3.6.2, https://matplotlib.org/</dc:title>
     </cc:Agent>
    </dc:creator>
   </cc:Work>
  </rdf:RDF>
 </metadata>
 <defs>
  <style type="text/css">*{stroke-linejoin: round; stroke-linecap: butt}</style>
 </defs>
 <g id="figure_1">
  <g id="patch_1">
   <path d="M 0 269.029531 
L 226.66125 269.029531 
L 226.66125 0 
L 0 0 
z
" style="fill: #ffffff"/>
  </g>
  <g id="axes_1">
   <g id="patch_2">
    <path d="M 52.06125 145.178906 
L 219.46125 145.178906 
L 219.46125 10.778906 
L 52.06125 10.778906 
z
" style="fill: #ffffff"/>
   </g>
   <g id="matplotlib.axis_1">
    <g id="xtick_1">
     <g id="line2d_1">
      <defs>
       <path id="m29054f255a" d="M 0 0 
L 0 3.5 
" style="stroke: #262626; stroke-width: 0.8"/>
      </defs>
      <g>
       <use xlink:href="#m29054f255a" x="66.01125" y="145.178906" style="fill: #262626; stroke: #262626; stroke-width: 0.8"/>
      </g>
     </g>
     <g id="text_1">
      <!-- 2 -->
      <g style="fill: #262626" transform="translate(63.230781 159.336719) scale(0.1 -0.1)">
       <defs>
        <path id="ArialMT-32" d="M 3222 541 
L 3222 0 
L 194 0 
Q 188 203 259 391 
Q 375 700 629 1000 
Q 884 1300 1366 1694 
Q 2113 2306 2375 2664 
Q 2638 3022 2638 3341 
Q 2638 3675 2398 3904 
Q 2159 4134 1775 4134 
Q 1369 4134 1125 3890 
Q 881 3647 878 3216 
L 300 3275 
Q 359 3922 746 4261 
Q 1134 4600 1788 4600 
Q 2447 4600 2831 4234 
Q 3216 3869 3216 3328 
Q 3216 3053 3103 2787 
Q 2991 2522 2730 2228 
Q 2469 1934 1863 1422 
Q 1356 997 1212 845 
Q 1069 694 975 541 
L 3222 541 
z
" transform="scale(0.015625)"/>
       </defs>
       <use xlink:href="#ArialMT-32"/>
      </g>
     </g>
    </g>
    <g id="xtick_2">
     <g id="line2d_2">
      <g>
       <use xlink:href="#m29054f255a" x="93.91125" y="145.178906" style="fill: #262626; stroke: #262626; stroke-width: 0.8"/>
      </g>
     </g>
     <g id="text_2">
      <!-- 3 -->
      <g style="fill: #262626" transform="translate(91.130781 159.336719) scale(0.1 -0.1)">
       <defs>
        <path id="ArialMT-33" d="M 269 1209 
L 831 1284 
Q 928 806 1161 595 
Q 1394 384 1728 384 
Q 2125 384 2398 659 
Q 2672 934 2672 1341 
Q 2672 1728 2419 1979 
Q 2166 2231 1775 2231 
Q 1616 2231 1378 2169 
L 1441 2663 
Q 1497 2656 1531 2656 
Q 1891 2656 2178 2843 
Q 2466 3031 2466 3422 
Q 2466 3731 2256 3934 
Q 2047 4138 1716 4138 
Q 1388 4138 1169 3931 
Q 950 3725 888 3313 
L 325 3413 
Q 428 3978 793 4289 
Q 1159 4600 1703 4600 
Q 2078 4600 2393 4439 
Q 2709 4278 2876 4000 
Q 3044 3722 3044 3409 
Q 3044 3113 2884 2869 
Q 2725 2625 2413 2481 
Q 2819 2388 3044 2092 
Q 3269 1797 3269 1353 
Q 3269 753 2831 336 
Q 2394 -81 1725 -81 
Q 1122 -81 723 278 
Q 325 638 269 1209 
z
" transform="scale(0.015625)"/>
       </defs>
       <use xlink:href="#ArialMT-33"/>
      </g>
     </g>
    </g>
    <g id="xtick_3">
     <g id="line2d_3">
      <g>
       <use xlink:href="#m29054f255a" x="121.81125" y="145.178906" style="fill: #262626; stroke: #262626; stroke-width: 0.8"/>
      </g>
     </g>
     <g id="text_3">
      <!-- 4 -->
      <g style="fill: #262626" transform="translate(119.030781 159.336719) scale(0.1 -0.1)">
       <defs>
        <path id="ArialMT-34" d="M 2069 0 
L 2069 1097 
L 81 1097 
L 81 1613 
L 2172 4581 
L 2631 4581 
L 2631 1613 
L 3250 1613 
L 3250 1097 
L 2631 1097 
L 2631 0 
L 2069 0 
z
M 2069 1613 
L 2069 3678 
L 634 1613 
L 2069 1613 
z
" transform="scale(0.015625)"/>
       </defs>
       <use xlink:href="#ArialMT-34"/>
      </g>
     </g>
    </g>
    <g id="xtick_4">
     <g id="line2d_4">
      <g>
       <use xlink:href="#m29054f255a" x="149.71125" y="145.178906" style="fill: #262626; stroke: #262626; stroke-width: 0.8"/>
      </g>
     </g>
     <g id="text_4">
      <!-- 5 -->
      <g style="fill: #262626" transform="translate(146.930781 159.336719) scale(0.1 -0.1)">
       <defs>
        <path id="ArialMT-35" d="M 266 1200 
L 856 1250 
Q 922 819 1161 601 
Q 1400 384 1738 384 
Q 2144 384 2425 690 
Q 2706 997 2706 1503 
Q 2706 1984 2436 2262 
Q 2166 2541 1728 2541 
Q 1456 2541 1237 2417 
Q 1019 2294 894 2097 
L 366 2166 
L 809 4519 
L 3088 4519 
L 3088 3981 
L 1259 3981 
L 1013 2750 
Q 1425 3038 1878 3038 
Q 2478 3038 2890 2622 
Q 3303 2206 3303 1553 
Q 3303 931 2941 478 
Q 2500 -78 1738 -78 
Q 1113 -78 717 272 
Q 322 622 266 1200 
z
" transform="scale(0.015625)"/>
       </defs>
       <use xlink:href="#ArialMT-35"/>
      </g>
     </g>
    </g>
    <g id="xtick_5">
     <g id="line2d_5">
      <g>
       <use xlink:href="#m29054f255a" x="177.61125" y="145.178906" style="fill: #262626; stroke: #262626; stroke-width: 0.8"/>
      </g>
     </g>
     <g id="text_5">
      <!-- 6 -->
      <g style="fill: #262626" transform="translate(174.830781 159.336719) scale(0.1 -0.1)">
       <defs>
        <path id="ArialMT-36" d="M 3184 3459 
L 2625 3416 
Q 2550 3747 2413 3897 
Q 2184 4138 1850 4138 
Q 1581 4138 1378 3988 
Q 1113 3794 959 3422 
Q 806 3050 800 2363 
Q 1003 2672 1297 2822 
Q 1591 2972 1913 2972 
Q 2475 2972 2870 2558 
Q 3266 2144 3266 1488 
Q 3266 1056 3080 686 
Q 2894 316 2569 119 
Q 2244 -78 1831 -78 
Q 1128 -78 684 439 
Q 241 956 241 2144 
Q 241 3472 731 4075 
Q 1159 4600 1884 4600 
Q 2425 4600 2770 4297 
Q 3116 3994 3184 3459 
z
M 888 1484 
Q 888 1194 1011 928 
Q 1134 663 1356 523 
Q 1578 384 1822 384 
Q 2178 384 2434 671 
Q 2691 959 2691 1453 
Q 2691 1928 2437 2201 
Q 2184 2475 1800 2475 
Q 1419 2475 1153 2201 
Q 888 1928 888 1484 
z
" transform="scale(0.015625)"/>
       </defs>
       <use xlink:href="#ArialMT-36"/>
      </g>
     </g>
    </g>
    <g id="xtick_6">
     <g id="line2d_6">
      <g>
       <use xlink:href="#m29054f255a" x="205.51125" y="145.178906" style="fill: #262626; stroke: #262626; stroke-width: 0.8"/>
      </g>
     </g>
     <g id="text_6">
      <!-- 7 -->
      <g style="fill: #262626" transform="translate(202.730781 159.336719) scale(0.1 -0.1)">
       <defs>
        <path id="ArialMT-37" d="M 303 3981 
L 303 4522 
L 3269 4522 
L 3269 4084 
Q 2831 3619 2401 2847 
Q 1972 2075 1738 1259 
Q 1569 684 1522 0 
L 944 0 
Q 953 541 1156 1306 
Q 1359 2072 1739 2783 
Q 2119 3494 2547 3981 
L 303 3981 
z
" transform="scale(0.015625)"/>
       </defs>
       <use xlink:href="#ArialMT-37"/>
      </g>
     </g>
    </g>
   </g>
   <g id="matplotlib.axis_2">
    <g id="ytick_1">
     <g id="line2d_7">
      <defs>
       <path id="ma417b750e0" d="M 0 0 
L -3.5 0 
" style="stroke: #262626; stroke-width: 0.8"/>
      </defs>
      <g>
       <use xlink:href="#ma417b750e0" x="52.06125" y="145.178906" style="fill: #262626; stroke: #262626; stroke-width: 0.8"/>
      </g>
     </g>
     <g id="text_7">
      <!-- 0.0 -->
      <g style="fill: #262626" transform="translate(31.16125 148.757812) scale(0.1 -0.1)">
       <defs>
        <path id="ArialMT-30" d="M 266 2259 
Q 266 3072 433 3567 
Q 600 4063 929 4331 
Q 1259 4600 1759 4600 
Q 2128 4600 2406 4451 
Q 2684 4303 2865 4023 
Q 3047 3744 3150 3342 
Q 3253 2941 3253 2259 
Q 3253 1453 3087 958 
Q 2922 463 2592 192 
Q 2263 -78 1759 -78 
Q 1097 -78 719 397 
Q 266 969 266 2259 
z
M 844 2259 
Q 844 1131 1108 757 
Q 1372 384 1759 384 
Q 2147 384 2411 759 
Q 2675 1134 2675 2259 
Q 2675 3391 2411 3762 
Q 2147 4134 1753 4134 
Q 1366 4134 1134 3806 
Q 844 3388 844 2259 
z
" transform="scale(0.015625)"/>
        <path id="ArialMT-2e" d="M 581 0 
L 581 641 
L 1222 641 
L 1222 0 
L 581 0 
z
" transform="scale(0.015625)"/>
       </defs>
       <use xlink:href="#ArialMT-30"/>
       <use xlink:href="#ArialMT-2e" x="55.615234"/>
       <use xlink:href="#ArialMT-30" x="83.398438"/>
      </g>
     </g>
    </g>
    <g id="ytick_2">
     <g id="line2d_8">
      <g>
       <use xlink:href="#ma417b750e0" x="52.06125" y="118.298906" style="fill: #262626; stroke: #262626; stroke-width: 0.8"/>
      </g>
     </g>
     <g id="text_8">
      <!-- 0.2 -->
      <g style="fill: #262626" transform="translate(31.16125 121.877812) scale(0.1 -0.1)">
       <use xlink:href="#ArialMT-30"/>
       <use xlink:href="#ArialMT-2e" x="55.615234"/>
       <use xlink:href="#ArialMT-32" x="83.398438"/>
      </g>
     </g>
    </g>
    <g id="ytick_3">
     <g id="line2d_9">
      <g>
       <use xlink:href="#ma417b750e0" x="52.06125" y="91.418906" style="fill: #262626; stroke: #262626; stroke-width: 0.8"/>
      </g>
     </g>
     <g id="text_9">
      <!-- 0.4 -->
      <g style="fill: #262626" transform="translate(31.16125 94.997812) scale(0.1 -0.1)">
       <use xlink:href="#ArialMT-30"/>
       <use xlink:href="#ArialMT-2e" x="55.615234"/>
       <use xlink:href="#ArialMT-34" x="83.398438"/>
      </g>
     </g>
    </g>
    <g id="ytick_4">
     <g id="line2d_10">
      <g>
       <use xlink:href="#ma417b750e0" x="52.06125" y="64.538906" style="fill: #262626; stroke: #262626; stroke-width: 0.8"/>
      </g>
     </g>
     <g id="text_10">
      <!-- 0.6 -->
      <g style="fill: #262626" transform="translate(31.16125 68.117812) scale(0.1 -0.1)">
       <use xlink:href="#ArialMT-30"/>
       <use xlink:href="#ArialMT-2e" x="55.615234"/>
       <use xlink:href="#ArialMT-36" x="83.398438"/>
      </g>
     </g>
    </g>
    <g id="ytick_5">
     <g id="line2d_11">
      <g>
       <use xlink:href="#ma417b750e0" x="52.06125" y="37.658906" style="fill: #262626; stroke: #262626; stroke-width: 0.8"/>
      </g>
     </g>
     <g id="text_11">
      <!-- 0.8 -->
      <g style="fill: #262626" transform="translate(31.16125 41.237812) scale(0.1 -0.1)">
       <defs>
        <path id="ArialMT-38" d="M 1131 2484 
Q 781 2613 612 2850 
Q 444 3088 444 3419 
Q 444 3919 803 4259 
Q 1163 4600 1759 4600 
Q 2359 4600 2725 4251 
Q 3091 3903 3091 3403 
Q 3091 3084 2923 2848 
Q 2756 2613 2416 2484 
Q 2838 2347 3058 2040 
Q 3278 1734 3278 1309 
Q 3278 722 2862 322 
Q 2447 -78 1769 -78 
Q 1091 -78 675 323 
Q 259 725 259 1325 
Q 259 1772 486 2073 
Q 713 2375 1131 2484 
z
M 1019 3438 
Q 1019 3113 1228 2906 
Q 1438 2700 1772 2700 
Q 2097 2700 2305 2904 
Q 2513 3109 2513 3406 
Q 2513 3716 2298 3927 
Q 2084 4138 1766 4138 
Q 1444 4138 1231 3931 
Q 1019 3725 1019 3438 
z
M 838 1322 
Q 838 1081 952 856 
Q 1066 631 1291 507 
Q 1516 384 1775 384 
Q 2178 384 2440 643 
Q 2703 903 2703 1303 
Q 2703 1709 2433 1975 
Q 2163 2241 1756 2241 
Q 1359 2241 1098 1978 
Q 838 1716 838 1322 
z
" transform="scale(0.015625)"/>
       </defs>
       <use xlink:href="#ArialMT-30"/>
       <use xlink:href="#ArialMT-2e" x="55.615234"/>
       <use xlink:href="#ArialMT-38" x="83.398438"/>
      </g>
     </g>
    </g>
    <g id="ytick_6">
     <g id="line2d_12">
      <g>
       <use xlink:href="#ma417b750e0" x="52.06125" y="10.778906" style="fill: #262626; stroke: #262626; stroke-width: 0.8"/>
      </g>
     </g>
     <g id="text_12">
      <!-- 1.0 -->
      <g style="fill: #262626" transform="translate(31.16125 14.357812) scale(0.1 -0.1)">
       <defs>
        <path id="ArialMT-31" d="M 2384 0 
L 1822 0 
L 1822 3584 
Q 1619 3391 1289 3197 
Q 959 3003 697 2906 
L 697 3450 
Q 1169 3672 1522 3987 
Q 1875 4303 2022 4600 
L 2384 4600 
L 2384 0 
z
" transform="scale(0.015625)"/>
       </defs>
       <use xlink:href="#ArialMT-31"/>
       <use xlink:href="#ArialMT-2e" x="55.615234"/>
       <use xlink:href="#ArialMT-30" x="83.398438"/>
      </g>
     </g>
    </g>
    <g id="text_13">
     <!-- Median Correlation between -->
     <g style="fill: #262626" transform="translate(14.596875 140.510937) rotate(-90) scale(0.1 -0.1)">
      <defs>
       <path id="ArialMT-4d" d="M 475 0 
L 475 4581 
L 1388 4581 
L 2472 1338 
Q 2622 884 2691 659 
Q 2769 909 2934 1394 
L 4031 4581 
L 4847 4581 
L 4847 0 
L 4263 0 
L 4263 3834 
L 2931 0 
L 2384 0 
L 1059 3900 
L 1059 0 
L 475 0 
z
" transform="scale(0.015625)"/>
       <path id="ArialMT-65" d="M 2694 1069 
L 3275 997 
Q 3138 488 2766 206 
Q 2394 -75 1816 -75 
Q 1088 -75 661 373 
Q 234 822 234 1631 
Q 234 2469 665 2931 
Q 1097 3394 1784 3394 
Q 2450 3394 2872 2941 
Q 3294 2488 3294 1666 
Q 3294 1616 3291 1516 
L 816 1516 
Q 847 969 1125 678 
Q 1403 388 1819 388 
Q 2128 388 2347 550 
Q 2566 713 2694 1069 
z
M 847 1978 
L 2700 1978 
Q 2663 2397 2488 2606 
Q 2219 2931 1791 2931 
Q 1403 2931 1139 2672 
Q 875 2413 847 1978 
z
" transform="scale(0.015625)"/>
       <path id="ArialMT-64" d="M 2575 0 
L 2575 419 
Q 2259 -75 1647 -75 
Q 1250 -75 917 144 
Q 584 363 401 755 
Q 219 1147 219 1656 
Q 219 2153 384 2558 
Q 550 2963 881 3178 
Q 1213 3394 1622 3394 
Q 1922 3394 2156 3267 
Q 2391 3141 2538 2938 
L 2538 4581 
L 3097 4581 
L 3097 0 
L 2575 0 
z
M 797 1656 
Q 797 1019 1065 703 
Q 1334 388 1700 388 
Q 2069 388 2326 689 
Q 2584 991 2584 1609 
Q 2584 2291 2321 2609 
Q 2059 2928 1675 2928 
Q 1300 2928 1048 2622 
Q 797 2316 797 1656 
z
" transform="scale(0.015625)"/>
       <path id="ArialMT-69" d="M 425 3934 
L 425 4581 
L 988 4581 
L 988 3934 
L 425 3934 
z
M 425 0 
L 425 3319 
L 988 3319 
L 988 0 
L 425 0 
z
" transform="scale(0.015625)"/>
       <path id="ArialMT-61" d="M 2588 409 
Q 2275 144 1986 34 
Q 1697 -75 1366 -75 
Q 819 -75 525 192 
Q 231 459 231 875 
Q 231 1119 342 1320 
Q 453 1522 633 1644 
Q 813 1766 1038 1828 
Q 1203 1872 1538 1913 
Q 2219 1994 2541 2106 
Q 2544 2222 2544 2253 
Q 2544 2597 2384 2738 
Q 2169 2928 1744 2928 
Q 1347 2928 1158 2789 
Q 969 2650 878 2297 
L 328 2372 
Q 403 2725 575 2942 
Q 747 3159 1072 3276 
Q 1397 3394 1825 3394 
Q 2250 3394 2515 3294 
Q 2781 3194 2906 3042 
Q 3031 2891 3081 2659 
Q 3109 2516 3109 2141 
L 3109 1391 
Q 3109 606 3145 398 
Q 3181 191 3288 0 
L 2700 0 
Q 2613 175 2588 409 
z
M 2541 1666 
Q 2234 1541 1622 1453 
Q 1275 1403 1131 1340 
Q 988 1278 909 1158 
Q 831 1038 831 891 
Q 831 666 1001 516 
Q 1172 366 1500 366 
Q 1825 366 2078 508 
Q 2331 650 2450 897 
Q 2541 1088 2541 1459 
L 2541 1666 
z
" transform="scale(0.015625)"/>
       <path id="ArialMT-6e" d="M 422 0 
L 422 3319 
L 928 3319 
L 928 2847 
Q 1294 3394 1984 3394 
Q 2284 3394 2536 3286 
Q 2788 3178 2913 3003 
Q 3038 2828 3088 2588 
Q 3119 2431 3119 2041 
L 3119 0 
L 2556 0 
L 2556 2019 
Q 2556 2363 2490 2533 
Q 2425 2703 2258 2804 
Q 2091 2906 1866 2906 
Q 1506 2906 1245 2678 
Q 984 2450 984 1813 
L 984 0 
L 422 0 
z
" transform="scale(0.015625)"/>
       <path id="ArialMT-20" transform="scale(0.015625)"/>
       <path id="ArialMT-43" d="M 3763 1606 
L 4369 1453 
Q 4178 706 3683 314 
Q 3188 -78 2472 -78 
Q 1731 -78 1267 223 
Q 803 525 561 1097 
Q 319 1669 319 2325 
Q 319 3041 592 3573 
Q 866 4106 1370 4382 
Q 1875 4659 2481 4659 
Q 3169 4659 3637 4309 
Q 4106 3959 4291 3325 
L 3694 3184 
Q 3534 3684 3231 3912 
Q 2928 4141 2469 4141 
Q 1941 4141 1586 3887 
Q 1231 3634 1087 3207 
Q 944 2781 944 2328 
Q 944 1744 1114 1308 
Q 1284 872 1643 656 
Q 2003 441 2422 441 
Q 2931 441 3284 734 
Q 3638 1028 3763 1606 
z
" transform="scale(0.015625)"/>
       <path id="ArialMT-6f" d="M 213 1659 
Q 213 2581 725 3025 
Q 1153 3394 1769 3394 
Q 2453 3394 2887 2945 
Q 3322 2497 3322 1706 
Q 3322 1066 3130 698 
Q 2938 331 2570 128 
Q 2203 -75 1769 -75 
Q 1072 -75 642 372 
Q 213 819 213 1659 
z
M 791 1659 
Q 791 1022 1069 705 
Q 1347 388 1769 388 
Q 2188 388 2466 706 
Q 2744 1025 2744 1678 
Q 2744 2294 2464 2611 
Q 2184 2928 1769 2928 
Q 1347 2928 1069 2612 
Q 791 2297 791 1659 
z
" transform="scale(0.015625)"/>
       <path id="ArialMT-72" d="M 416 0 
L 416 3319 
L 922 3319 
L 922 2816 
Q 1116 3169 1280 3281 
Q 1444 3394 1641 3394 
Q 1925 3394 2219 3213 
L 2025 2691 
Q 1819 2813 1613 2813 
Q 1428 2813 1281 2702 
Q 1134 2591 1072 2394 
Q 978 2094 978 1738 
L 978 0 
L 416 0 
z
" transform="scale(0.015625)"/>
       <path id="ArialMT-6c" d="M 409 0 
L 409 4581 
L 972 4581 
L 972 0 
L 409 0 
z
" transform="scale(0.015625)"/>
       <path id="ArialMT-74" d="M 1650 503 
L 1731 6 
Q 1494 -44 1306 -44 
Q 1000 -44 831 53 
Q 663 150 594 308 
Q 525 466 525 972 
L 525 2881 
L 113 2881 
L 113 3319 
L 525 3319 
L 525 4141 
L 1084 4478 
L 1084 3319 
L 1650 3319 
L 1650 2881 
L 1084 2881 
L 1084 941 
Q 1084 700 1114 631 
Q 1144 563 1211 522 
Q 1278 481 1403 481 
Q 1497 481 1650 503 
z
" transform="scale(0.015625)"/>
       <path id="ArialMT-62" d="M 941 0 
L 419 0 
L 419 4581 
L 981 4581 
L 981 2947 
Q 1338 3394 1891 3394 
Q 2197 3394 2470 3270 
Q 2744 3147 2920 2923 
Q 3097 2700 3197 2384 
Q 3297 2069 3297 1709 
Q 3297 856 2875 390 
Q 2453 -75 1863 -75 
Q 1275 -75 941 416 
L 941 0 
z
M 934 1684 
Q 934 1088 1097 822 
Q 1363 388 1816 388 
Q 2184 388 2453 708 
Q 2722 1028 2722 1663 
Q 2722 2313 2464 2622 
Q 2206 2931 1841 2931 
Q 1472 2931 1203 2611 
Q 934 2291 934 1684 
z
" transform="scale(0.015625)"/>
       <path id="ArialMT-77" d="M 1034 0 
L 19 3319 
L 600 3319 
L 1128 1403 
L 1325 691 
Q 1338 744 1497 1375 
L 2025 3319 
L 2603 3319 
L 3100 1394 
L 3266 759 
L 3456 1400 
L 4025 3319 
L 4572 3319 
L 3534 0 
L 2950 0 
L 2422 1988 
L 2294 2553 
L 1622 0 
L 1034 0 
z
" transform="scale(0.015625)"/>
      </defs>
      <use xlink:href="#ArialMT-4d"/>
      <use xlink:href="#ArialMT-65" x="83.300781"/>
      <use xlink:href="#ArialMT-64" x="138.916016"/>
      <use xlink:href="#ArialMT-69" x="194.53125"/>
      <use xlink:href="#ArialMT-61" x="216.748047"/>
      <use xlink:href="#ArialMT-6e" x="272.363281"/>
      <use xlink:href="#ArialMT-20" x="327.978516"/>
      <use xlink:href="#ArialMT-43" x="355.761719"/>
      <use xlink:href="#ArialMT-6f" x="427.978516"/>
      <use xlink:href="#ArialMT-72" x="483.59375"/>
      <use xlink:href="#ArialMT-72" x="516.894531"/>
      <use xlink:href="#ArialMT-65" x="550.195312"/>
      <use xlink:href="#ArialMT-6c" x="605.810547"/>
      <use xlink:href="#ArialMT-61" x="628.027344"/>
      <use xlink:href="#ArialMT-74" x="683.642578"/>
      <use xlink:href="#ArialMT-69" x="711.425781"/>
      <use xlink:href="#ArialMT-6f" x="733.642578"/>
      <use xlink:href="#ArialMT-6e" x="789.257812"/>
      <use xlink:href="#ArialMT-20" x="844.873047"/>
      <use xlink:href="#ArialMT-62" x="872.65625"/>
      <use xlink:href="#ArialMT-65" x="928.271484"/>
      <use xlink:href="#ArialMT-74" x="983.886719"/>
      <use xlink:href="#ArialMT-77" x="1011.669922"/>
      <use xlink:href="#ArialMT-65" x="1083.886719"/>
      <use xlink:href="#ArialMT-65" x="1139.501953"/>
      <use xlink:href="#ArialMT-6e" x="1195.117188"/>
     </g>
     <!-- iMs for Gene -->
     <g style="fill: #262626" transform="translate(25.17375 106.597656) rotate(-90) scale(0.1 -0.1)">
      <defs>
       <path id="ArialMT-73" d="M 197 991 
L 753 1078 
Q 800 744 1014 566 
Q 1228 388 1613 388 
Q 2000 388 2187 545 
Q 2375 703 2375 916 
Q 2375 1106 2209 1216 
Q 2094 1291 1634 1406 
Q 1016 1563 777 1677 
Q 538 1791 414 1992 
Q 291 2194 291 2438 
Q 291 2659 392 2848 
Q 494 3038 669 3163 
Q 800 3259 1026 3326 
Q 1253 3394 1513 3394 
Q 1903 3394 2198 3281 
Q 2494 3169 2634 2976 
Q 2775 2784 2828 2463 
L 2278 2388 
Q 2241 2644 2061 2787 
Q 1881 2931 1553 2931 
Q 1166 2931 1000 2803 
Q 834 2675 834 2503 
Q 834 2394 903 2306 
Q 972 2216 1119 2156 
Q 1203 2125 1616 2013 
Q 2213 1853 2448 1751 
Q 2684 1650 2818 1456 
Q 2953 1263 2953 975 
Q 2953 694 2789 445 
Q 2625 197 2315 61 
Q 2006 -75 1616 -75 
Q 969 -75 630 194 
Q 291 463 197 991 
z
" transform="scale(0.015625)"/>
       <path id="ArialMT-66" d="M 556 0 
L 556 2881 
L 59 2881 
L 59 3319 
L 556 3319 
L 556 3672 
Q 556 4006 616 4169 
Q 697 4388 901 4523 
Q 1106 4659 1475 4659 
Q 1713 4659 2000 4603 
L 1916 4113 
Q 1741 4144 1584 4144 
Q 1328 4144 1222 4034 
Q 1116 3925 1116 3625 
L 1116 3319 
L 1763 3319 
L 1763 2881 
L 1116 2881 
L 1116 0 
L 556 0 
z
" transform="scale(0.015625)"/>
       <path id="ArialMT-47" d="M 2638 1797 
L 2638 2334 
L 4578 2338 
L 4578 638 
Q 4131 281 3656 101 
Q 3181 -78 2681 -78 
Q 2006 -78 1454 211 
Q 903 500 622 1047 
Q 341 1594 341 2269 
Q 341 2938 620 3517 
Q 900 4097 1425 4378 
Q 1950 4659 2634 4659 
Q 3131 4659 3532 4498 
Q 3934 4338 4162 4050 
Q 4391 3763 4509 3300 
L 3963 3150 
Q 3859 3500 3706 3700 
Q 3553 3900 3268 4020 
Q 2984 4141 2638 4141 
Q 2222 4141 1919 4014 
Q 1616 3888 1430 3681 
Q 1244 3475 1141 3228 
Q 966 2803 966 2306 
Q 966 1694 1177 1281 
Q 1388 869 1791 669 
Q 2194 469 2647 469 
Q 3041 469 3416 620 
Q 3791 772 3984 944 
L 3984 1797 
L 2638 1797 
z
" transform="scale(0.015625)"/>
      </defs>
      <use xlink:href="#ArialMT-69"/>
      <use xlink:href="#ArialMT-4d" x="22.216797"/>
      <use xlink:href="#ArialMT-73" x="105.517578"/>
      <use xlink:href="#ArialMT-20" x="155.517578"/>
      <use xlink:href="#ArialMT-66" x="183.300781"/>
      <use xlink:href="#ArialMT-6f" x="211.083984"/>
      <use xlink:href="#ArialMT-72" x="266.699219"/>
      <use xlink:href="#ArialMT-20" x="300"/>
      <use xlink:href="#ArialMT-47" x="327.783203"/>
      <use xlink:href="#ArialMT-65" x="405.566406"/>
      <use xlink:href="#ArialMT-6e" x="461.181641"/>
      <use xlink:href="#ArialMT-65" x="516.796875"/>
     </g>
    </g>
   </g>
   <g id="patch_3">
    <path d="M 54.96285 127.889064 
L 65.89965 127.889064 
L 65.89965 86.409168 
L 54.96285 86.409168 
L 54.96285 127.889064 
z
" clip-path="url(#p59eb2d0883)" style="fill: #3274a1; stroke: #3f3f3f; stroke-width: 1.5; stroke-linejoin: miter"/>
   </g>
   <g id="patch_4">
    <path d="M 66.12285 137.38952 
L 77.05965 137.38952 
L 77.05965 113.907542 
L 66.12285 113.907542 
L 66.12285 137.38952 
z
" clip-path="url(#p59eb2d0883)" style="fill: #c03d3e; stroke: #3f3f3f; stroke-width: 1.5; stroke-linejoin: miter"/>
   </g>
   <g id="patch_5">
    <path d="M 82.86285 128.859654 
L 93.79965 128.859654 
L 93.79965 101.08776 
L 82.86285 101.08776 
L 82.86285 128.859654 
z
" clip-path="url(#p59eb2d0883)" style="fill: #3274a1; stroke: #3f3f3f; stroke-width: 1.5; stroke-linejoin: miter"/>
   </g>
   <g id="patch_6">
    <path d="M 94.02285 134.460579 
L 104.95965 134.460579 
L 104.95965 118.062266 
L 94.02285 118.062266 
L 94.02285 134.460579 
z
" clip-path="url(#p59eb2d0883)" style="fill: #c03d3e; stroke: #3f3f3f; stroke-width: 1.5; stroke-linejoin: miter"/>
   </g>
   <g id="patch_7">
    <path d="M 110.76285 127.803981 
L 121.69965 127.803981 
L 121.69965 103.4966 
L 110.76285 103.4966 
L 110.76285 127.803981 
z
" clip-path="url(#p59eb2d0883)" style="fill: #3274a1; stroke: #3f3f3f; stroke-width: 1.5; stroke-linejoin: miter"/>
   </g>
   <g id="patch_8">
    <path d="M 121.92285 132.004698 
L 132.85965 132.004698 
L 132.85965 120.650865 
L 121.92285 120.650865 
L 121.92285 132.004698 
z
" clip-path="url(#p59eb2d0883)" style="fill: #c03d3e; stroke: #3f3f3f; stroke-width: 1.5; stroke-linejoin: miter"/>
   </g>
   <g id="patch_9">
    <path d="M 138.66285 127.950005 
L 149.59965 127.950005 
L 149.59965 106.711771 
L 138.66285 106.711771 
L 138.66285 127.950005 
z
" clip-path="url(#p59eb2d0883)" style="fill: #3274a1; stroke: #3f3f3f; stroke-width: 1.5; stroke-linejoin: miter"/>
   </g>
   <g id="patch_10">
    <path d="M 149.82285 131.354033 
L 160.75965 131.354033 
L 160.75965 122.370882 
L 149.82285 122.370882 
L 149.82285 131.354033 
z
" clip-path="url(#p59eb2d0883)" style="fill: #c03d3e; stroke: #3f3f3f; stroke-width: 1.5; stroke-linejoin: miter"/>
   </g>
   <g id="patch_11">
    <path d="M 166.56285 129.813953 
L 177.49965 129.813953 
L 177.49965 111.270309 
L 166.56285 111.270309 
L 166.56285 129.813953 
z
" clip-path="url(#p59eb2d0883)" style="fill: #3274a1; stroke: #3f3f3f; stroke-width: 1.5; stroke-linejoin: miter"/>
   </g>
   <g id="patch_12">
    <path d="M 177.72285 130.837353 
L 188.65965 130.837353 
L 188.65965 122.289607 
L 177.72285 122.289607 
L 177.72285 130.837353 
z
" clip-path="url(#p59eb2d0883)" style="fill: #c03d3e; stroke: #3f3f3f; stroke-width: 1.5; stroke-linejoin: miter"/>
   </g>
   <g id="patch_13">
    <path d="M 194.46285 125.150712 
L 205.39965 125.150712 
L 205.39965 124.491534 
L 194.46285 124.491534 
L 194.46285 125.150712 
z
" clip-path="url(#p59eb2d0883)" style="fill: #3274a1; stroke: #3f3f3f; stroke-width: 1.5; stroke-linejoin: miter"/>
   </g>
   <g id="patch_14">
    <path d="M 205.62285 130.363666 
L 216.55965 130.363666 
L 216.55965 122.645175 
L 205.62285 122.645175 
L 205.62285 130.363666 
z
" clip-path="url(#p59eb2d0883)" style="fill: #c03d3e; stroke: #3f3f3f; stroke-width: 1.5; stroke-linejoin: miter"/>
   </g>
   <g id="patch_15">
    <path d="M 66.01125 145.178906 
L 66.01125 145.178906 
L 66.01125 145.178906 
L 66.01125 145.178906 
z
" clip-path="url(#p59eb2d0883)" style="fill: #3274a1; stroke: #3f3f3f; stroke-width: 0.75; stroke-linejoin: miter"/>
   </g>
   <g id="patch_16">
    <path d="M 66.01125 145.178906 
L 66.01125 145.178906 
L 66.01125 145.178906 
L 66.01125 145.178906 
z
" clip-path="url(#p59eb2d0883)" style="fill: #c03d3e; stroke: #3f3f3f; stroke-width: 0.75; stroke-linejoin: miter"/>
   </g>
   <g id="line2d_13">
    <path d="M 60.43125 127.889064 
L 60.43125 145.14807 
" clip-path="url(#p59eb2d0883)" style="fill: none; stroke: #3f3f3f; stroke-width: 1.5; stroke-linecap: round"/>
   </g>
   <g id="line2d_14">
    <path d="M 60.43125 86.409168 
L 60.43125 28.449397 
" clip-path="url(#p59eb2d0883)" style="fill: none; stroke: #3f3f3f; stroke-width: 1.5; stroke-linecap: round"/>
   </g>
   <g id="line2d_15">
    <path d="M 57.69705 145.14807 
L 63.16545 145.14807 
" clip-path="url(#p59eb2d0883)" style="fill: none; stroke: #3f3f3f; stroke-width: 1.5; stroke-linecap: round"/>
   </g>
   <g id="line2d_16">
    <path d="M 57.69705 28.449397 
L 63.16545 28.449397 
" clip-path="url(#p59eb2d0883)" style="fill: none; stroke: #3f3f3f; stroke-width: 1.5; stroke-linecap: round"/>
   </g>
   <g id="line2d_17">
    <path d="M 71.59125 137.38952 
L 71.59125 145.160898 
" clip-path="url(#p59eb2d0883)" style="fill: none; stroke: #3f3f3f; stroke-width: 1.5; stroke-linecap: round"/>
   </g>
   <g id="line2d_18">
    <path d="M 71.59125 113.907542 
L 71.59125 78.897396 
" clip-path="url(#p59eb2d0883)" style="fill: none; stroke: #3f3f3f; stroke-width: 1.5; stroke-linecap: round"/>
   </g>
   <g id="line2d_19">
    <path d="M 68.85705 145.160898 
L 74.32545 145.160898 
" clip-path="url(#p59eb2d0883)" style="fill: none; stroke: #3f3f3f; stroke-width: 1.5; stroke-linecap: round"/>
   </g>
   <g id="line2d_20">
    <path d="M 68.85705 78.897396 
L 74.32545 78.897396 
" clip-path="url(#p59eb2d0883)" style="fill: none; stroke: #3f3f3f; stroke-width: 1.5; stroke-linecap: round"/>
   </g>
   <g id="line2d_21">
    <path d="M 88.33125 128.859654 
L 88.33125 144.374666 
" clip-path="url(#p59eb2d0883)" style="fill: none; stroke: #3f3f3f; stroke-width: 1.5; stroke-linecap: round"/>
   </g>
   <g id="line2d_22">
    <path d="M 88.33125 101.08776 
L 88.33125 60.682106 
" clip-path="url(#p59eb2d0883)" style="fill: none; stroke: #3f3f3f; stroke-width: 1.5; stroke-linecap: round"/>
   </g>
   <g id="line2d_23">
    <path d="M 85.59705 144.374666 
L 91.06545 144.374666 
" clip-path="url(#p59eb2d0883)" style="fill: none; stroke: #3f3f3f; stroke-width: 1.5; stroke-linecap: round"/>
   </g>
   <g id="line2d_24">
    <path d="M 85.59705 60.682106 
L 91.06545 60.682106 
" clip-path="url(#p59eb2d0883)" style="fill: none; stroke: #3f3f3f; stroke-width: 1.5; stroke-linecap: round"/>
   </g>
   <g id="line2d_25">
    <path d="M 99.49125 134.460579 
L 99.49125 144.880571 
" clip-path="url(#p59eb2d0883)" style="fill: none; stroke: #3f3f3f; stroke-width: 1.5; stroke-linecap: round"/>
   </g>
   <g id="line2d_26">
    <path d="M 99.49125 118.062266 
L 99.49125 93.582965 
" clip-path="url(#p59eb2d0883)" style="fill: none; stroke: #3f3f3f; stroke-width: 1.5; stroke-linecap: round"/>
   </g>
   <g id="line2d_27">
    <path d="M 96.75705 144.880571 
L 102.22545 144.880571 
" clip-path="url(#p59eb2d0883)" style="fill: none; stroke: #3f3f3f; stroke-width: 1.5; stroke-linecap: round"/>
   </g>
   <g id="line2d_28">
    <path d="M 96.75705 93.582965 
L 102.22545 93.582965 
" clip-path="url(#p59eb2d0883)" style="fill: none; stroke: #3f3f3f; stroke-width: 1.5; stroke-linecap: round"/>
   </g>
   <g id="line2d_29">
    <path d="M 116.23125 127.803981 
L 116.23125 139.309072 
" clip-path="url(#p59eb2d0883)" style="fill: none; stroke: #3f3f3f; stroke-width: 1.5; stroke-linecap: round"/>
   </g>
   <g id="line2d_30">
    <path d="M 116.23125 103.4966 
L 116.23125 74.826657 
" clip-path="url(#p59eb2d0883)" style="fill: none; stroke: #3f3f3f; stroke-width: 1.5; stroke-linecap: round"/>
   </g>
   <g id="line2d_31">
    <path d="M 113.49705 139.309072 
L 118.96545 139.309072 
" clip-path="url(#p59eb2d0883)" style="fill: none; stroke: #3f3f3f; stroke-width: 1.5; stroke-linecap: round"/>
   </g>
   <g id="line2d_32">
    <path d="M 113.49705 74.826657 
L 118.96545 74.826657 
" clip-path="url(#p59eb2d0883)" style="fill: none; stroke: #3f3f3f; stroke-width: 1.5; stroke-linecap: round"/>
   </g>
   <g id="line2d_33">
    <path d="M 127.39125 132.004698 
L 127.39125 143.892206 
" clip-path="url(#p59eb2d0883)" style="fill: none; stroke: #3f3f3f; stroke-width: 1.5; stroke-linecap: round"/>
   </g>
   <g id="line2d_34">
    <path d="M 127.39125 120.650865 
L 127.39125 103.759094 
" clip-path="url(#p59eb2d0883)" style="fill: none; stroke: #3f3f3f; stroke-width: 1.5; stroke-linecap: round"/>
   </g>
   <g id="line2d_35">
    <path d="M 124.65705 143.892206 
L 130.12545 143.892206 
" clip-path="url(#p59eb2d0883)" style="fill: none; stroke: #3f3f3f; stroke-width: 1.5; stroke-linecap: round"/>
   </g>
   <g id="line2d_36">
    <path d="M 124.65705 103.759094 
L 130.12545 103.759094 
" clip-path="url(#p59eb2d0883)" style="fill: none; stroke: #3f3f3f; stroke-width: 1.5; stroke-linecap: round"/>
   </g>
   <g id="line2d_37">
    <path d="M 144.13125 127.950005 
L 144.13125 130.215492 
" clip-path="url(#p59eb2d0883)" style="fill: none; stroke: #3f3f3f; stroke-width: 1.5; stroke-linecap: round"/>
   </g>
   <g id="line2d_38">
    <path d="M 144.13125 106.711771 
L 144.13125 87.124381 
" clip-path="url(#p59eb2d0883)" style="fill: none; stroke: #3f3f3f; stroke-width: 1.5; stroke-linecap: round"/>
   </g>
   <g id="line2d_39">
    <path d="M 141.39705 130.215492 
L 146.86545 130.215492 
" clip-path="url(#p59eb2d0883)" style="fill: none; stroke: #3f3f3f; stroke-width: 1.5; stroke-linecap: round"/>
   </g>
   <g id="line2d_40">
    <path d="M 141.39705 87.124381 
L 146.86545 87.124381 
" clip-path="url(#p59eb2d0883)" style="fill: none; stroke: #3f3f3f; stroke-width: 1.5; stroke-linecap: round"/>
   </g>
   <g id="line2d_41">
    <path d="M 155.29125 131.354033 
L 155.29125 142.009207 
" clip-path="url(#p59eb2d0883)" style="fill: none; stroke: #3f3f3f; stroke-width: 1.5; stroke-linecap: round"/>
   </g>
   <g id="line2d_42">
    <path d="M 155.29125 122.370882 
L 155.29125 109.041624 
" clip-path="url(#p59eb2d0883)" style="fill: none; stroke: #3f3f3f; stroke-width: 1.5; stroke-linecap: round"/>
   </g>
   <g id="line2d_43">
    <path d="M 152.55705 142.009207 
L 158.02545 142.009207 
" clip-path="url(#p59eb2d0883)" style="fill: none; stroke: #3f3f3f; stroke-width: 1.5; stroke-linecap: round"/>
   </g>
   <g id="line2d_44">
    <path d="M 152.55705 109.041624 
L 158.02545 109.041624 
" clip-path="url(#p59eb2d0883)" style="fill: none; stroke: #3f3f3f; stroke-width: 1.5; stroke-linecap: round"/>
   </g>
   <g id="line2d_45">
    <path d="M 172.03125 129.813953 
L 172.03125 131.33532 
" clip-path="url(#p59eb2d0883)" style="fill: none; stroke: #3f3f3f; stroke-width: 1.5; stroke-linecap: round"/>
   </g>
   <g id="line2d_46">
    <path d="M 172.03125 111.270309 
L 172.03125 94.075972 
" clip-path="url(#p59eb2d0883)" style="fill: none; stroke: #3f3f3f; stroke-width: 1.5; stroke-linecap: round"/>
   </g>
   <g id="line2d_47">
    <path d="M 169.29705 131.33532 
L 174.76545 131.33532 
" clip-path="url(#p59eb2d0883)" style="fill: none; stroke: #3f3f3f; stroke-width: 1.5; stroke-linecap: round"/>
   </g>
   <g id="line2d_48">
    <path d="M 169.29705 94.075972 
L 174.76545 94.075972 
" clip-path="url(#p59eb2d0883)" style="fill: none; stroke: #3f3f3f; stroke-width: 1.5; stroke-linecap: round"/>
   </g>
   <g id="line2d_49">
    <path d="M 183.19125 130.837353 
L 183.19125 141.054166 
" clip-path="url(#p59eb2d0883)" style="fill: none; stroke: #3f3f3f; stroke-width: 1.5; stroke-linecap: round"/>
   </g>
   <g id="line2d_50">
    <path d="M 183.19125 122.289607 
L 183.19125 109.731422 
" clip-path="url(#p59eb2d0883)" style="fill: none; stroke: #3f3f3f; stroke-width: 1.5; stroke-linecap: round"/>
   </g>
   <g id="line2d_51">
    <path d="M 180.45705 141.054166 
L 185.92545 141.054166 
" clip-path="url(#p59eb2d0883)" style="fill: none; stroke: #3f3f3f; stroke-width: 1.5; stroke-linecap: round"/>
   </g>
   <g id="line2d_52">
    <path d="M 180.45705 109.731422 
L 185.92545 109.731422 
" clip-path="url(#p59eb2d0883)" style="fill: none; stroke: #3f3f3f; stroke-width: 1.5; stroke-linecap: round"/>
   </g>
   <g id="line2d_53">
    <path d="M 199.93125 125.150712 
L 199.93125 125.480302 
" clip-path="url(#p59eb2d0883)" style="fill: none; stroke: #3f3f3f; stroke-width: 1.5; stroke-linecap: round"/>
   </g>
   <g id="line2d_54">
    <path d="M 199.93125 124.491534 
L 199.93125 124.161945 
" clip-path="url(#p59eb2d0883)" style="fill: none; stroke: #3f3f3f; stroke-width: 1.5; stroke-linecap: round"/>
   </g>
   <g id="line2d_55">
    <path d="M 197.19705 125.480302 
L 202.66545 125.480302 
" clip-path="url(#p59eb2d0883)" style="fill: none; stroke: #3f3f3f; stroke-width: 1.5; stroke-linecap: round"/>
   </g>
   <g id="line2d_56">
    <path d="M 197.19705 124.161945 
L 202.66545 124.161945 
" clip-path="url(#p59eb2d0883)" style="fill: none; stroke: #3f3f3f; stroke-width: 1.5; stroke-linecap: round"/>
   </g>
   <g id="line2d_57">
    <path d="M 211.09125 130.363666 
L 211.09125 138.252894 
" clip-path="url(#p59eb2d0883)" style="fill: none; stroke: #3f3f3f; stroke-width: 1.5; stroke-linecap: round"/>
   </g>
   <g id="line2d_58">
    <path d="M 211.09125 122.645175 
L 211.09125 111.167446 
" clip-path="url(#p59eb2d0883)" style="fill: none; stroke: #3f3f3f; stroke-width: 1.5; stroke-linecap: round"/>
   </g>
   <g id="line2d_59">
    <path d="M 208.35705 138.252894 
L 213.82545 138.252894 
" clip-path="url(#p59eb2d0883)" style="fill: none; stroke: #3f3f3f; stroke-width: 1.5; stroke-linecap: round"/>
   </g>
   <g id="line2d_60">
    <path d="M 208.35705 111.167446 
L 213.82545 111.167446 
" clip-path="url(#p59eb2d0883)" style="fill: none; stroke: #3f3f3f; stroke-width: 1.5; stroke-linecap: round"/>
   </g>
   <g id="line2d_61">
    <path d="M 54.96285 112.330592 
L 65.89965 112.330592 
" clip-path="url(#p59eb2d0883)" style="fill: none; stroke: #3f3f3f; stroke-width: 1.5; stroke-linecap: round"/>
   </g>
   <g id="line2d_62">
    <path d="M 66.12285 127.852992 
L 77.05965 127.852992 
" clip-path="url(#p59eb2d0883)" style="fill: none; stroke: #3f3f3f; stroke-width: 1.5; stroke-linecap: round"/>
   </g>
   <g id="line2d_63">
    <path d="M 82.86285 120.353304 
L 93.79965 120.353304 
" clip-path="url(#p59eb2d0883)" style="fill: none; stroke: #3f3f3f; stroke-width: 1.5; stroke-linecap: round"/>
   </g>
   <g id="line2d_64">
    <path d="M 94.02285 127.427005 
L 104.95965 127.427005 
" clip-path="url(#p59eb2d0883)" style="fill: none; stroke: #3f3f3f; stroke-width: 1.5; stroke-linecap: round"/>
   </g>
   <g id="line2d_65">
    <path d="M 110.76285 121.654203 
L 121.69965 121.654203 
" clip-path="url(#p59eb2d0883)" style="fill: none; stroke: #3f3f3f; stroke-width: 1.5; stroke-linecap: round"/>
   </g>
   <g id="line2d_66">
    <path d="M 121.92285 127.310839 
L 132.85965 127.310839 
" clip-path="url(#p59eb2d0883)" style="fill: none; stroke: #3f3f3f; stroke-width: 1.5; stroke-linecap: round"/>
   </g>
   <g id="line2d_67">
    <path d="M 138.66285 122.371626 
L 149.59965 122.371626 
" clip-path="url(#p59eb2d0883)" style="fill: none; stroke: #3f3f3f; stroke-width: 1.5; stroke-linecap: round"/>
   </g>
   <g id="line2d_68">
    <path d="M 149.82285 127.096742 
L 160.75965 127.096742 
" clip-path="url(#p59eb2d0883)" style="fill: none; stroke: #3f3f3f; stroke-width: 1.5; stroke-linecap: round"/>
   </g>
   <g id="line2d_69">
    <path d="M 166.56285 128.194024 
L 177.49965 128.194024 
" clip-path="url(#p59eb2d0883)" style="fill: none; stroke: #3f3f3f; stroke-width: 1.5; stroke-linecap: round"/>
   </g>
   <g id="line2d_70">
    <path d="M 177.72285 127.135637 
L 188.65965 127.135637 
" clip-path="url(#p59eb2d0883)" style="fill: none; stroke: #3f3f3f; stroke-width: 1.5; stroke-linecap: round"/>
   </g>
   <g id="line2d_71">
    <path d="M 194.46285 124.821123 
L 205.39965 124.821123 
" clip-path="url(#p59eb2d0883)" style="fill: none; stroke: #3f3f3f; stroke-width: 1.5; stroke-linecap: round"/>
   </g>
   <g id="line2d_72">
    <path d="M 205.62285 126.887195 
L 216.55965 126.887195 
" clip-path="url(#p59eb2d0883)" style="fill: none; stroke: #3f3f3f; stroke-width: 1.5; stroke-linecap: round"/>
   </g>
   <g id="patch_17">
    <path d="M 52.06125 145.178906 
L 52.06125 10.778906 
" style="fill: none; stroke: #262626; stroke-width: 0.8; stroke-linejoin: miter; stroke-linecap: square"/>
   </g>
   <g id="patch_18">
    <path d="M 219.46125 145.178906 
L 219.46125 10.778906 
" style="fill: none; stroke: #262626; stroke-width: 0.8; stroke-linejoin: miter; stroke-linecap: square"/>
   </g>
   <g id="patch_19">
    <path d="M 52.06125 145.178906 
L 219.46125 145.178906 
" style="fill: none; stroke: #262626; stroke-width: 0.8; stroke-linejoin: miter; stroke-linecap: square"/>
   </g>
   <g id="patch_20">
    <path d="M 52.06125 10.778906 
L 219.46125 10.778906 
" style="fill: none; stroke: #262626; stroke-width: 0.8; stroke-linejoin: miter; stroke-linecap: square"/>
   </g>
   <g id="legend_1">
    <g id="patch_21">
     <path d="M 142.665938 61.214844 
L 212.46125 61.214844 
Q 214.46125 61.214844 214.46125 59.214844 
L 214.46125 17.778906 
Q 214.46125 15.778906 212.46125 15.778906 
L 142.665938 15.778906 
Q 140.665938 15.778906 140.665938 17.778906 
L 140.665938 59.214844 
Q 140.665938 61.214844 142.665938 61.214844 
z
" style="fill: #ffffff; opacity: 0.8; stroke: #cccccc; stroke-linejoin: miter"/>
    </g>
    <g id="text_14">
     <!-- iM Set -->
     <g style="fill: #262626" transform="translate(163.394063 26.936719) scale(0.1 -0.1)">
      <defs>
       <path id="ArialMT-53" d="M 288 1472 
L 859 1522 
Q 900 1178 1048 958 
Q 1197 738 1509 602 
Q 1822 466 2213 466 
Q 2559 466 2825 569 
Q 3091 672 3220 851 
Q 3350 1031 3350 1244 
Q 3350 1459 3225 1620 
Q 3100 1781 2813 1891 
Q 2628 1963 1997 2114 
Q 1366 2266 1113 2400 
Q 784 2572 623 2826 
Q 463 3081 463 3397 
Q 463 3744 659 4045 
Q 856 4347 1234 4503 
Q 1613 4659 2075 4659 
Q 2584 4659 2973 4495 
Q 3363 4331 3572 4012 
Q 3781 3694 3797 3291 
L 3216 3247 
Q 3169 3681 2898 3903 
Q 2628 4125 2100 4125 
Q 1550 4125 1298 3923 
Q 1047 3722 1047 3438 
Q 1047 3191 1225 3031 
Q 1400 2872 2139 2705 
Q 2878 2538 3153 2413 
Q 3553 2228 3743 1945 
Q 3934 1663 3934 1294 
Q 3934 928 3725 604 
Q 3516 281 3123 101 
Q 2731 -78 2241 -78 
Q 1619 -78 1198 103 
Q 778 284 539 648 
Q 300 1013 288 1472 
z
" transform="scale(0.015625)"/>
      </defs>
      <use xlink:href="#ArialMT-69"/>
      <use xlink:href="#ArialMT-4d" x="22.216797"/>
      <use xlink:href="#ArialMT-20" x="105.517578"/>
      <use xlink:href="#ArialMT-53" x="133.300781"/>
      <use xlink:href="#ArialMT-65" x="200"/>
      <use xlink:href="#ArialMT-74" x="255.615234"/>
     </g>
    </g>
    <g id="patch_22">
     <path d="M 144.665938 41.082031 
L 164.665938 41.082031 
L 164.665938 34.082031 
L 144.665938 34.082031 
z
" style="fill: #3274a1; stroke: #3f3f3f; stroke-width: 0.75; stroke-linejoin: miter"/>
    </g>
    <g id="text_15">
     <!-- True -->
     <g style="fill: #262626" transform="translate(172.665938 41.082031) scale(0.1 -0.1)">
      <defs>
       <path id="ArialMT-54" d="M 1659 0 
L 1659 4041 
L 150 4041 
L 150 4581 
L 3781 4581 
L 3781 4041 
L 2266 4041 
L 2266 0 
L 1659 0 
z
" transform="scale(0.015625)"/>
       <path id="ArialMT-75" d="M 2597 0 
L 2597 488 
Q 2209 -75 1544 -75 
Q 1250 -75 995 37 
Q 741 150 617 320 
Q 494 491 444 738 
Q 409 903 409 1263 
L 409 3319 
L 972 3319 
L 972 1478 
Q 972 1038 1006 884 
Q 1059 663 1231 536 
Q 1403 409 1656 409 
Q 1909 409 2131 539 
Q 2353 669 2445 892 
Q 2538 1116 2538 1541 
L 2538 3319 
L 3100 3319 
L 3100 0 
L 2597 0 
z
" transform="scale(0.015625)"/>
      </defs>
      <use xlink:href="#ArialMT-54"/>
      <use xlink:href="#ArialMT-72" x="57.333984"/>
      <use xlink:href="#ArialMT-75" x="90.634766"/>
      <use xlink:href="#ArialMT-65" x="146.25"/>
     </g>
    </g>
    <g id="patch_23">
     <path d="M 144.665938 55.227344 
L 164.665938 55.227344 
L 164.665938 48.227344 
L 144.665938 48.227344 
z
" style="fill: #c03d3e; stroke: #3f3f3f; stroke-width: 0.75; stroke-linejoin: miter"/>
    </g>
    <g id="text_16">
     <!-- Random -->
     <g style="fill: #262626" transform="translate(172.665938 55.227344) scale(0.1 -0.1)">
      <defs>
       <path id="ArialMT-52" d="M 503 0 
L 503 4581 
L 2534 4581 
Q 3147 4581 3465 4457 
Q 3784 4334 3975 4021 
Q 4166 3709 4166 3331 
Q 4166 2844 3850 2509 
Q 3534 2175 2875 2084 
Q 3116 1969 3241 1856 
Q 3506 1613 3744 1247 
L 4541 0 
L 3778 0 
L 3172 953 
Q 2906 1366 2734 1584 
Q 2563 1803 2427 1890 
Q 2291 1978 2150 2013 
Q 2047 2034 1813 2034 
L 1109 2034 
L 1109 0 
L 503 0 
z
M 1109 2559 
L 2413 2559 
Q 2828 2559 3062 2645 
Q 3297 2731 3419 2920 
Q 3541 3109 3541 3331 
Q 3541 3656 3305 3865 
Q 3069 4075 2559 4075 
L 1109 4075 
L 1109 2559 
z
" transform="scale(0.015625)"/>
       <path id="ArialMT-6d" d="M 422 0 
L 422 3319 
L 925 3319 
L 925 2853 
Q 1081 3097 1340 3245 
Q 1600 3394 1931 3394 
Q 2300 3394 2536 3241 
Q 2772 3088 2869 2813 
Q 3263 3394 3894 3394 
Q 4388 3394 4653 3120 
Q 4919 2847 4919 2278 
L 4919 0 
L 4359 0 
L 4359 2091 
Q 4359 2428 4304 2576 
Q 4250 2725 4106 2815 
Q 3963 2906 3769 2906 
Q 3419 2906 3187 2673 
Q 2956 2441 2956 1928 
L 2956 0 
L 2394 0 
L 2394 2156 
Q 2394 2531 2256 2718 
Q 2119 2906 1806 2906 
Q 1569 2906 1367 2781 
Q 1166 2656 1075 2415 
Q 984 2175 984 1722 
L 984 0 
L 422 0 
z
" transform="scale(0.015625)"/>
      </defs>
      <use xlink:href="#ArialMT-52"/>
      <use xlink:href="#ArialMT-61" x="72.216797"/>
      <use xlink:href="#ArialMT-6e" x="127.832031"/>
      <use xlink:href="#ArialMT-64" x="183.447266"/>
      <use xlink:href="#ArialMT-6f" x="239.0625"/>
      <use xlink:href="#ArialMT-6d" x="294.677734"/>
     </g>
    </g>
   </g>
  </g>
  <g id="axes_2">
   <g id="patch_24">
    <path d="M 52.06125 232.538906 
L 219.46125 232.538906 
L 219.46125 165.338906 
L 52.06125 165.338906 
z
" style="fill: #ffffff"/>
   </g>
   <g id="matplotlib.axis_3">
    <g id="xtick_7">
     <g id="line2d_73">
      <g>
       <use xlink:href="#m29054f255a" x="66.01125" y="232.538906" style="fill: #262626; stroke: #262626; stroke-width: 0.8"/>
      </g>
     </g>
     <g id="text_17">
      <!-- 2 -->
      <g style="fill: #262626" transform="translate(63.230781 246.696719) scale(0.1 -0.1)">
       <use xlink:href="#ArialMT-32"/>
      </g>
     </g>
    </g>
    <g id="xtick_8">
     <g id="line2d_74">
      <g>
       <use xlink:href="#m29054f255a" x="93.91125" y="232.538906" style="fill: #262626; stroke: #262626; stroke-width: 0.8"/>
      </g>
     </g>
     <g id="text_18">
      <!-- 3 -->
      <g style="fill: #262626" transform="translate(91.130781 246.696719) scale(0.1 -0.1)">
       <use xlink:href="#ArialMT-33"/>
      </g>
     </g>
    </g>
    <g id="xtick_9">
     <g id="line2d_75">
      <g>
       <use xlink:href="#m29054f255a" x="121.81125" y="232.538906" style="fill: #262626; stroke: #262626; stroke-width: 0.8"/>
      </g>
     </g>
     <g id="text_19">
      <!-- 4 -->
      <g style="fill: #262626" transform="translate(119.030781 246.696719) scale(0.1 -0.1)">
       <use xlink:href="#ArialMT-34"/>
      </g>
     </g>
    </g>
    <g id="xtick_10">
     <g id="line2d_76">
      <g>
       <use xlink:href="#m29054f255a" x="149.71125" y="232.538906" style="fill: #262626; stroke: #262626; stroke-width: 0.8"/>
      </g>
     </g>
     <g id="text_20">
      <!-- 5 -->
      <g style="fill: #262626" transform="translate(146.930781 246.696719) scale(0.1 -0.1)">
       <use xlink:href="#ArialMT-35"/>
      </g>
     </g>
    </g>
    <g id="xtick_11">
     <g id="line2d_77">
      <g>
       <use xlink:href="#m29054f255a" x="177.61125" y="232.538906" style="fill: #262626; stroke: #262626; stroke-width: 0.8"/>
      </g>
     </g>
     <g id="text_21">
      <!-- 6 -->
      <g style="fill: #262626" transform="translate(174.830781 246.696719) scale(0.1 -0.1)">
       <use xlink:href="#ArialMT-36"/>
      </g>
     </g>
    </g>
    <g id="xtick_12">
     <g id="line2d_78">
      <g>
       <use xlink:href="#m29054f255a" x="205.51125" y="232.538906" style="fill: #262626; stroke: #262626; stroke-width: 0.8"/>
      </g>
     </g>
     <g id="text_22">
      <!-- 7 -->
      <g style="fill: #262626" transform="translate(202.730781 246.696719) scale(0.1 -0.1)">
       <use xlink:href="#ArialMT-37"/>
      </g>
     </g>
    </g>
    <g id="text_23">
     <!-- # of iMs Gene is in -->
     <g style="fill: #262626" transform="translate(94.357344 259.842031) scale(0.1 -0.1)">
      <defs>
       <path id="ArialMT-23" d="M 322 -78 
L 594 1253 
L 66 1253 
L 66 1719 
L 688 1719 
L 919 2853 
L 66 2853 
L 66 3319 
L 1013 3319 
L 1284 4659 
L 1753 4659 
L 1481 3319 
L 2466 3319 
L 2738 4659 
L 3209 4659 
L 2938 3319 
L 3478 3319 
L 3478 2853 
L 2844 2853 
L 2609 1719 
L 3478 1719 
L 3478 1253 
L 2516 1253 
L 2244 -78 
L 1775 -78 
L 2044 1253 
L 1063 1253 
L 791 -78 
L 322 -78 
z
M 1156 1719 
L 2138 1719 
L 2372 2853 
L 1388 2853 
L 1156 1719 
z
" transform="scale(0.015625)"/>
      </defs>
      <use xlink:href="#ArialMT-23"/>
      <use xlink:href="#ArialMT-20" x="55.615234"/>
      <use xlink:href="#ArialMT-6f" x="83.398438"/>
      <use xlink:href="#ArialMT-66" x="139.013672"/>
      <use xlink:href="#ArialMT-20" x="166.796875"/>
      <use xlink:href="#ArialMT-69" x="194.580078"/>
      <use xlink:href="#ArialMT-4d" x="216.796875"/>
      <use xlink:href="#ArialMT-73" x="300.097656"/>
      <use xlink:href="#ArialMT-20" x="350.097656"/>
      <use xlink:href="#ArialMT-47" x="377.880859"/>
      <use xlink:href="#ArialMT-65" x="455.664062"/>
      <use xlink:href="#ArialMT-6e" x="511.279297"/>
      <use xlink:href="#ArialMT-65" x="566.894531"/>
      <use xlink:href="#ArialMT-20" x="622.509766"/>
      <use xlink:href="#ArialMT-69" x="650.292969"/>
      <use xlink:href="#ArialMT-73" x="672.509766"/>
      <use xlink:href="#ArialMT-20" x="722.509766"/>
      <use xlink:href="#ArialMT-69" x="750.292969"/>
      <use xlink:href="#ArialMT-6e" x="772.509766"/>
     </g>
    </g>
   </g>
   <g id="matplotlib.axis_4">
    <g id="ytick_7">
     <g id="line2d_79">
      <g>
       <use xlink:href="#ma417b750e0" x="52.06125" y="232.538906" style="fill: #262626; stroke: #262626; stroke-width: 0.8"/>
      </g>
     </g>
     <g id="text_24">
      <!-- 0.0 -->
      <g style="fill: #262626" transform="translate(31.16125 236.117812) scale(0.1 -0.1)">
       <use xlink:href="#ArialMT-30"/>
       <use xlink:href="#ArialMT-2e" x="55.615234"/>
       <use xlink:href="#ArialMT-30" x="83.398438"/>
      </g>
     </g>
    </g>
    <g id="ytick_8">
     <g id="line2d_80">
      <g>
       <use xlink:href="#ma417b750e0" x="52.06125" y="210.138906" style="fill: #262626; stroke: #262626; stroke-width: 0.8"/>
      </g>
     </g>
     <g id="text_25">
      <!-- 0.1 -->
      <g style="fill: #262626" transform="translate(31.16125 213.717812) scale(0.1 -0.1)">
       <use xlink:href="#ArialMT-30"/>
       <use xlink:href="#ArialMT-2e" x="55.615234"/>
       <use xlink:href="#ArialMT-31" x="83.398438"/>
      </g>
     </g>
    </g>
    <g id="ytick_9">
     <g id="line2d_81">
      <g>
       <use xlink:href="#ma417b750e0" x="52.06125" y="187.738906" style="fill: #262626; stroke: #262626; stroke-width: 0.8"/>
      </g>
     </g>
     <g id="text_26">
      <!-- 0.2 -->
      <g style="fill: #262626" transform="translate(31.16125 191.317812) scale(0.1 -0.1)">
       <use xlink:href="#ArialMT-30"/>
       <use xlink:href="#ArialMT-2e" x="55.615234"/>
       <use xlink:href="#ArialMT-32" x="83.398438"/>
      </g>
     </g>
    </g>
    <g id="ytick_10">
     <g id="line2d_82">
      <g>
       <use xlink:href="#ma417b750e0" x="52.06125" y="165.338906" style="fill: #262626; stroke: #262626; stroke-width: 0.8"/>
      </g>
     </g>
     <g id="text_27">
      <!-- 0.3 -->
      <g style="fill: #262626" transform="translate(31.16125 168.917812) scale(0.1 -0.1)">
       <use xlink:href="#ArialMT-30"/>
       <use xlink:href="#ArialMT-2e" x="55.615234"/>
       <use xlink:href="#ArialMT-33" x="83.398438"/>
      </g>
     </g>
    </g>
    <g id="text_28">
     <!-- Frac signif -->
     <g style="fill: #262626" transform="translate(14.479687 221.999062) rotate(-90) scale(0.1 -0.1)">
      <defs>
       <path id="ArialMT-46" d="M 525 0 
L 525 4581 
L 3616 4581 
L 3616 4041 
L 1131 4041 
L 1131 2622 
L 3281 2622 
L 3281 2081 
L 1131 2081 
L 1131 0 
L 525 0 
z
" transform="scale(0.015625)"/>
       <path id="ArialMT-63" d="M 2588 1216 
L 3141 1144 
Q 3050 572 2676 248 
Q 2303 -75 1759 -75 
Q 1078 -75 664 370 
Q 250 816 250 1647 
Q 250 2184 428 2587 
Q 606 2991 970 3192 
Q 1334 3394 1763 3394 
Q 2303 3394 2647 3120 
Q 2991 2847 3088 2344 
L 2541 2259 
Q 2463 2594 2264 2762 
Q 2066 2931 1784 2931 
Q 1359 2931 1093 2626 
Q 828 2322 828 1663 
Q 828 994 1084 691 
Q 1341 388 1753 388 
Q 2084 388 2306 591 
Q 2528 794 2588 1216 
z
" transform="scale(0.015625)"/>
       <path id="ArialMT-67" d="M 319 -275 
L 866 -356 
Q 900 -609 1056 -725 
Q 1266 -881 1628 -881 
Q 2019 -881 2231 -725 
Q 2444 -569 2519 -288 
Q 2563 -116 2559 434 
Q 2191 0 1641 0 
Q 956 0 581 494 
Q 206 988 206 1678 
Q 206 2153 378 2554 
Q 550 2956 876 3175 
Q 1203 3394 1644 3394 
Q 2231 3394 2613 2919 
L 2613 3319 
L 3131 3319 
L 3131 450 
Q 3131 -325 2973 -648 
Q 2816 -972 2473 -1159 
Q 2131 -1347 1631 -1347 
Q 1038 -1347 672 -1080 
Q 306 -813 319 -275 
z
M 784 1719 
Q 784 1066 1043 766 
Q 1303 466 1694 466 
Q 2081 466 2343 764 
Q 2606 1063 2606 1700 
Q 2606 2309 2336 2618 
Q 2066 2928 1684 2928 
Q 1309 2928 1046 2623 
Q 784 2319 784 1719 
z
" transform="scale(0.015625)"/>
      </defs>
      <use xlink:href="#ArialMT-46"/>
      <use xlink:href="#ArialMT-72" x="61.083984"/>
      <use xlink:href="#ArialMT-61" x="94.384766"/>
      <use xlink:href="#ArialMT-63" x="150"/>
      <use xlink:href="#ArialMT-20" x="200"/>
      <use xlink:href="#ArialMT-73" x="227.783203"/>
      <use xlink:href="#ArialMT-69" x="277.783203"/>
      <use xlink:href="#ArialMT-67" x="300"/>
      <use xlink:href="#ArialMT-6e" x="355.615234"/>
      <use xlink:href="#ArialMT-69" x="411.230469"/>
      <use xlink:href="#ArialMT-66" x="433.447266"/>
     </g>
     <!-- correlations -->
     <g style="fill: #262626" transform="translate(25.17375 224.781875) rotate(-90) scale(0.1 -0.1)">
      <use xlink:href="#ArialMT-63"/>
      <use xlink:href="#ArialMT-6f" x="50"/>
      <use xlink:href="#ArialMT-72" x="105.615234"/>
      <use xlink:href="#ArialMT-72" x="138.916016"/>
      <use xlink:href="#ArialMT-65" x="172.216797"/>
      <use xlink:href="#ArialMT-6c" x="227.832031"/>
      <use xlink:href="#ArialMT-61" x="250.048828"/>
      <use xlink:href="#ArialMT-74" x="305.664062"/>
      <use xlink:href="#ArialMT-69" x="333.447266"/>
      <use xlink:href="#ArialMT-6f" x="355.664062"/>
      <use xlink:href="#ArialMT-6e" x="411.279297"/>
      <use xlink:href="#ArialMT-73" x="466.894531"/>
     </g>
    </g>
   </g>
   <g id="patch_25">
    <path d="M 54.85125 232.538906 
L 77.17125 232.538906 
L 77.17125 199.216592 
L 54.85125 199.216592 
z
" clip-path="url(#pae7fb493cd)" style="fill: #3274a1; stroke: #ffffff; stroke-linejoin: miter"/>
   </g>
   <g id="patch_26">
    <path d="M 82.75125 232.538906 
L 105.07125 232.538906 
L 105.07125 200.695769 
L 82.75125 200.695769 
z
" clip-path="url(#pae7fb493cd)" style="fill: #3274a1; stroke: #ffffff; stroke-linejoin: miter"/>
   </g>
   <g id="patch_27">
    <path d="M 110.65125 232.538906 
L 132.97125 232.538906 
L 132.97125 188.617338 
L 110.65125 188.617338 
z
" clip-path="url(#pae7fb493cd)" style="fill: #3274a1; stroke: #ffffff; stroke-linejoin: miter"/>
   </g>
   <g id="patch_28">
    <path d="M 138.55125 232.538906 
L 160.87125 232.538906 
L 160.87125 212.17527 
L 138.55125 212.17527 
z
" clip-path="url(#pae7fb493cd)" style="fill: #3274a1; stroke: #ffffff; stroke-linejoin: miter"/>
   </g>
   <g id="patch_29">
    <path d="M 166.45125 232.538906 
L 188.77125 232.538906 
L 188.77125 195.205573 
L 166.45125 195.205573 
z
" clip-path="url(#pae7fb493cd)" style="fill: #3274a1; stroke: #ffffff; stroke-linejoin: miter"/>
   </g>
   <g id="patch_30">
    <path d="M 194.35125 232.538906 
L 216.67125 232.538906 
L 216.67125 232.538906 
L 194.35125 232.538906 
z
" clip-path="url(#pae7fb493cd)" style="fill: #3274a1; stroke: #ffffff; stroke-linejoin: miter"/>
   </g>
   <g id="line2d_83">
    <path clip-path="url(#pae7fb493cd)" style="fill: none; stroke: #424242; stroke-width: 2.7; stroke-linecap: round"/>
   </g>
   <g id="line2d_84">
    <path clip-path="url(#pae7fb493cd)" style="fill: none; stroke: #424242; stroke-width: 2.7; stroke-linecap: round"/>
   </g>
   <g id="line2d_85">
    <path clip-path="url(#pae7fb493cd)" style="fill: none; stroke: #424242; stroke-width: 2.7; stroke-linecap: round"/>
   </g>
   <g id="line2d_86">
    <path clip-path="url(#pae7fb493cd)" style="fill: none; stroke: #424242; stroke-width: 2.7; stroke-linecap: round"/>
   </g>
   <g id="line2d_87">
    <path clip-path="url(#pae7fb493cd)" style="fill: none; stroke: #424242; stroke-width: 2.7; stroke-linecap: round"/>
   </g>
   <g id="line2d_88">
    <path clip-path="url(#pae7fb493cd)" style="fill: none; stroke: #424242; stroke-width: 2.7; stroke-linecap: round"/>
   </g>
   <g id="patch_31">
    <path d="M 52.06125 232.538906 
L 52.06125 165.338906 
" style="fill: none; stroke: #262626; stroke-width: 0.8; stroke-linejoin: miter; stroke-linecap: square"/>
   </g>
   <g id="patch_32">
    <path d="M 219.46125 232.538906 
L 219.46125 165.338906 
" style="fill: none; stroke: #262626; stroke-width: 0.8; stroke-linejoin: miter; stroke-linecap: square"/>
   </g>
   <g id="patch_33">
    <path d="M 52.06125 232.538906 
L 219.46125 232.538906 
" style="fill: none; stroke: #262626; stroke-width: 0.8; stroke-linejoin: miter; stroke-linecap: square"/>
   </g>
   <g id="patch_34">
    <path d="M 52.06125 165.338906 
L 219.46125 165.338906 
" style="fill: none; stroke: #262626; stroke-width: 0.8; stroke-linejoin: miter; stroke-linecap: square"/>
   </g>
  </g>
 </g>
 <defs>
  <clipPath id="p59eb2d0883">
   <rect x="52.06125" y="10.778906" width="167.4" height="134.4"/>
  </clipPath>
  <clipPath id="pae7fb493cd">
   <rect x="52.06125" y="165.338906" width="167.4" height="67.2"/>
  </clipPath>
 </defs>
</svg>
