<?xml version="1.0" encoding="utf-8" standalone="no"?>
<!DOCTYPE svg PUBLIC "-//W3C//DTD SVG 1.1//EN"
  "http://www.w3.org/Graphics/SVG/1.1/DTD/svg11.dtd">
<svg xmlns:xlink="http://www.w3.org/1999/xlink" width="393.822187pt" height="184.22pt" viewBox="0 0 393.822187 184.22" xmlns="http://www.w3.org/2000/svg" version="1.1">
 <metadata>
  <rdf:RDF xmlns:dc="http://purl.org/dc/elements/1.1/" xmlns:cc="http://creativecommons.org/ns#" xmlns:rdf="http://www.w3.org/1999/02/22-rdf-syntax-ns#">
   <cc:Work>
    <dc:type rdf:resource="http://purl.org/dc/dcmitype/StillImage"/>
    <dc:date>2023-07-27T17:33:35.277734</dc:date>
    <dc:format>image/svg+xml</dc:format>
    <dc:creator>
     <cc:Agent>
      <dc:title>Matplotlib v3.6.2, https://matplotlib.org/</dc:title>
     </cc:Agent>
    </dc:creator>
   </cc:Work>
  </rdf:RDF>
 </metadata>
 <defs>
  <style type="text/css">*{stroke-linejoin: round; stroke-linecap: butt}</style>
 </defs>
 <g id="figure_1">
  <g id="patch_1">
   <path d="M 0 184.22 
L 393.822187 184.22 
L 393.822187 0 
L 0 0 
z
" style="fill: #ffffff"/>
  </g>
  <g id="axes_1">
   <g id="patch_2">
    <path d="M 51.822188 173.52 
L 386.622187 173.52 
L 386.622187 7.2 
L 51.822188 7.2 
z
" style="fill: #ffffff"/>
   </g>
   <g id="matplotlib.axis_1"/>
   <g id="matplotlib.axis_2">
    <g id="ytick_1">
     <g id="line2d_1">
      <defs>
       <path id="m424acff3c3" d="M 0 0 
L -3.5 0 
" style="stroke: #262626; stroke-width: 0.8"/>
      </defs>
      <g>
       <use xlink:href="#m424acff3c3" x="51.822188" y="150.697127" style="fill: #262626; stroke: #262626; stroke-width: 0.8"/>
      </g>
     </g>
     <g id="text_1">
      <!-- 0.0 -->
      <g style="fill: #262626" transform="translate(30.922188 154.276033) scale(0.1 -0.1)">
       <defs>
        <path id="ArialMT-30" d="M 266 2259 
Q 266 3072 433 3567 
Q 600 4063 929 4331 
Q 1259 4600 1759 4600 
Q 2128 4600 2406 4451 
Q 2684 4303 2865 4023 
Q 3047 3744 3150 3342 
Q 3253 2941 3253 2259 
Q 3253 1453 3087 958 
Q 2922 463 2592 192 
Q 2263 -78 1759 -78 
Q 1097 -78 719 397 
Q 266 969 266 2259 
z
M 844 2259 
Q 844 1131 1108 757 
Q 1372 384 1759 384 
Q 2147 384 2411 759 
Q 2675 1134 2675 2259 
Q 2675 3391 2411 3762 
Q 2147 4134 1753 4134 
Q 1366 4134 1134 3806 
Q 844 3388 844 2259 
z
" transform="scale(0.015625)"/>
        <path id="ArialMT-2e" d="M 581 0 
L 581 641 
L 1222 641 
L 1222 0 
L 581 0 
z
" transform="scale(0.015625)"/>
       </defs>
       <use xlink:href="#ArialMT-30"/>
       <use xlink:href="#ArialMT-2e" x="55.615234"/>
       <use xlink:href="#ArialMT-30" x="83.398438"/>
      </g>
     </g>
    </g>
    <g id="ytick_2">
     <g id="line2d_2">
      <g>
       <use xlink:href="#m424acff3c3" x="51.822188" y="117.498179" style="fill: #262626; stroke: #262626; stroke-width: 0.8"/>
      </g>
     </g>
     <g id="text_2">
      <!-- 0.2 -->
      <g style="fill: #262626" transform="translate(30.922188 121.077086) scale(0.1 -0.1)">
       <defs>
        <path id="ArialMT-32" d="M 3222 541 
L 3222 0 
L 194 0 
Q 188 203 259 391 
Q 375 700 629 1000 
Q 884 1300 1366 1694 
Q 2113 2306 2375 2664 
Q 2638 3022 2638 3341 
Q 2638 3675 2398 3904 
Q 2159 4134 1775 4134 
Q 1369 4134 1125 3890 
Q 881 3647 878 3216 
L 300 3275 
Q 359 3922 746 4261 
Q 1134 4600 1788 4600 
Q 2447 4600 2831 4234 
Q 3216 3869 3216 3328 
Q 3216 3053 3103 2787 
Q 2991 2522 2730 2228 
Q 2469 1934 1863 1422 
Q 1356 997 1212 845 
Q 1069 694 975 541 
L 3222 541 
z
" transform="scale(0.015625)"/>
       </defs>
       <use xlink:href="#ArialMT-30"/>
       <use xlink:href="#ArialMT-2e" x="55.615234"/>
       <use xlink:href="#ArialMT-32" x="83.398438"/>
      </g>
     </g>
    </g>
    <g id="ytick_3">
     <g id="line2d_3">
      <g>
       <use xlink:href="#m424acff3c3" x="51.822188" y="84.299232" style="fill: #262626; stroke: #262626; stroke-width: 0.8"/>
      </g>
     </g>
     <g id="text_3">
      <!-- 0.4 -->
      <g style="fill: #262626" transform="translate(30.922188 87.878138) scale(0.1 -0.1)">
       <defs>
        <path id="ArialMT-34" d="M 2069 0 
L 2069 1097 
L 81 1097 
L 81 1613 
L 2172 4581 
L 2631 4581 
L 2631 1613 
L 3250 1613 
L 3250 1097 
L 2631 1097 
L 2631 0 
L 2069 0 
z
M 2069 1613 
L 2069 3678 
L 634 1613 
L 2069 1613 
z
" transform="scale(0.015625)"/>
       </defs>
       <use xlink:href="#ArialMT-30"/>
       <use xlink:href="#ArialMT-2e" x="55.615234"/>
       <use xlink:href="#ArialMT-34" x="83.398438"/>
      </g>
     </g>
    </g>
    <g id="ytick_4">
     <g id="line2d_4">
      <g>
       <use xlink:href="#m424acff3c3" x="51.822188" y="51.100285" style="fill: #262626; stroke: #262626; stroke-width: 0.8"/>
      </g>
     </g>
     <g id="text_4">
      <!-- 0.6 -->
      <g style="fill: #262626" transform="translate(30.922188 54.679191) scale(0.1 -0.1)">
       <defs>
        <path id="ArialMT-36" d="M 3184 3459 
L 2625 3416 
Q 2550 3747 2413 3897 
Q 2184 4138 1850 4138 
Q 1581 4138 1378 3988 
Q 1113 3794 959 3422 
Q 806 3050 800 2363 
Q 1003 2672 1297 2822 
Q 1591 2972 1913 2972 
Q 2475 2972 2870 2558 
Q 3266 2144 3266 1488 
Q 3266 1056 3080 686 
Q 2894 316 2569 119 
Q 2244 -78 1831 -78 
Q 1128 -78 684 439 
Q 241 956 241 2144 
Q 241 3472 731 4075 
Q 1159 4600 1884 4600 
Q 2425 4600 2770 4297 
Q 3116 3994 3184 3459 
z
M 888 1484 
Q 888 1194 1011 928 
Q 1134 663 1356 523 
Q 1578 384 1822 384 
Q 2178 384 2434 671 
Q 2691 959 2691 1453 
Q 2691 1928 2437 2201 
Q 2184 2475 1800 2475 
Q 1419 2475 1153 2201 
Q 888 1928 888 1484 
z
" transform="scale(0.015625)"/>
       </defs>
       <use xlink:href="#ArialMT-30"/>
       <use xlink:href="#ArialMT-2e" x="55.615234"/>
       <use xlink:href="#ArialMT-36" x="83.398438"/>
      </g>
     </g>
    </g>
    <g id="ytick_5">
     <g id="line2d_5">
      <g>
       <use xlink:href="#m424acff3c3" x="51.822188" y="17.901337" style="fill: #262626; stroke: #262626; stroke-width: 0.8"/>
      </g>
     </g>
     <g id="text_5">
      <!-- 0.8 -->
      <g style="fill: #262626" transform="translate(30.922188 21.480243) scale(0.1 -0.1)">
       <defs>
        <path id="ArialMT-38" d="M 1131 2484 
Q 781 2613 612 2850 
Q 444 3088 444 3419 
Q 444 3919 803 4259 
Q 1163 4600 1759 4600 
Q 2359 4600 2725 4251 
Q 3091 3903 3091 3403 
Q 3091 3084 2923 2848 
Q 2756 2613 2416 2484 
Q 2838 2347 3058 2040 
Q 3278 1734 3278 1309 
Q 3278 722 2862 322 
Q 2447 -78 1769 -78 
Q 1091 -78 675 323 
Q 259 725 259 1325 
Q 259 1772 486 2073 
Q 713 2375 1131 2484 
z
M 1019 3438 
Q 1019 3113 1228 2906 
Q 1438 2700 1772 2700 
Q 2097 2700 2305 2904 
Q 2513 3109 2513 3406 
Q 2513 3716 2298 3927 
Q 2084 4138 1766 4138 
Q 1444 4138 1231 3931 
Q 1019 3725 1019 3438 
z
M 838 1322 
Q 838 1081 952 856 
Q 1066 631 1291 507 
Q 1516 384 1775 384 
Q 2178 384 2440 643 
Q 2703 903 2703 1303 
Q 2703 1709 2433 1975 
Q 2163 2241 1756 2241 
Q 1359 2241 1098 1978 
Q 838 1716 838 1322 
z
" transform="scale(0.015625)"/>
       </defs>
       <use xlink:href="#ArialMT-30"/>
       <use xlink:href="#ArialMT-2e" x="55.615234"/>
       <use xlink:href="#ArialMT-38" x="83.398438"/>
      </g>
     </g>
    </g>
    <g id="text_6">
     <!-- Within-iM Gene Correlation -->
     <g style="fill: #262626" transform="translate(14.357813 150.654531) rotate(-90) scale(0.1 -0.1)">
      <defs>
       <path id="ArialMT-57" d="M 1294 0 
L 78 4581 
L 700 4581 
L 1397 1578 
Q 1509 1106 1591 641 
Q 1766 1375 1797 1488 
L 2669 4581 
L 3400 4581 
L 4056 2263 
Q 4303 1400 4413 641 
Q 4500 1075 4641 1638 
L 5359 4581 
L 5969 4581 
L 4713 0 
L 4128 0 
L 3163 3491 
Q 3041 3928 3019 4028 
Q 2947 3713 2884 3491 
L 1913 0 
L 1294 0 
z
" transform="scale(0.015625)"/>
       <path id="ArialMT-69" d="M 425 3934 
L 425 4581 
L 988 4581 
L 988 3934 
L 425 3934 
z
M 425 0 
L 425 3319 
L 988 3319 
L 988 0 
L 425 0 
z
" transform="scale(0.015625)"/>
       <path id="ArialMT-74" d="M 1650 503 
L 1731 6 
Q 1494 -44 1306 -44 
Q 1000 -44 831 53 
Q 663 150 594 308 
Q 525 466 525 972 
L 525 2881 
L 113 2881 
L 113 3319 
L 525 3319 
L 525 4141 
L 1084 4478 
L 1084 3319 
L 1650 3319 
L 1650 2881 
L 1084 2881 
L 1084 941 
Q 1084 700 1114 631 
Q 1144 563 1211 522 
Q 1278 481 1403 481 
Q 1497 481 1650 503 
z
" transform="scale(0.015625)"/>
       <path id="ArialMT-68" d="M 422 0 
L 422 4581 
L 984 4581 
L 984 2938 
Q 1378 3394 1978 3394 
Q 2347 3394 2619 3248 
Q 2891 3103 3008 2847 
Q 3125 2591 3125 2103 
L 3125 0 
L 2563 0 
L 2563 2103 
Q 2563 2525 2380 2717 
Q 2197 2909 1863 2909 
Q 1613 2909 1392 2779 
Q 1172 2650 1078 2428 
Q 984 2206 984 1816 
L 984 0 
L 422 0 
z
" transform="scale(0.015625)"/>
       <path id="ArialMT-6e" d="M 422 0 
L 422 3319 
L 928 3319 
L 928 2847 
Q 1294 3394 1984 3394 
Q 2284 3394 2536 3286 
Q 2788 3178 2913 3003 
Q 3038 2828 3088 2588 
Q 3119 2431 3119 2041 
L 3119 0 
L 2556 0 
L 2556 2019 
Q 2556 2363 2490 2533 
Q 2425 2703 2258 2804 
Q 2091 2906 1866 2906 
Q 1506 2906 1245 2678 
Q 984 2450 984 1813 
L 984 0 
L 422 0 
z
" transform="scale(0.015625)"/>
       <path id="ArialMT-2d" d="M 203 1375 
L 203 1941 
L 1931 1941 
L 1931 1375 
L 203 1375 
z
" transform="scale(0.015625)"/>
       <path id="ArialMT-4d" d="M 475 0 
L 475 4581 
L 1388 4581 
L 2472 1338 
Q 2622 884 2691 659 
Q 2769 909 2934 1394 
L 4031 4581 
L 4847 4581 
L 4847 0 
L 4263 0 
L 4263 3834 
L 2931 0 
L 2384 0 
L 1059 3900 
L 1059 0 
L 475 0 
z
" transform="scale(0.015625)"/>
       <path id="ArialMT-20" transform="scale(0.015625)"/>
       <path id="ArialMT-47" d="M 2638 1797 
L 2638 2334 
L 4578 2338 
L 4578 638 
Q 4131 281 3656 101 
Q 3181 -78 2681 -78 
Q 2006 -78 1454 211 
Q 903 500 622 1047 
Q 341 1594 341 2269 
Q 341 2938 620 3517 
Q 900 4097 1425 4378 
Q 1950 4659 2634 4659 
Q 3131 4659 3532 4498 
Q 3934 4338 4162 4050 
Q 4391 3763 4509 3300 
L 3963 3150 
Q 3859 3500 3706 3700 
Q 3553 3900 3268 4020 
Q 2984 4141 2638 4141 
Q 2222 4141 1919 4014 
Q 1616 3888 1430 3681 
Q 1244 3475 1141 3228 
Q 966 2803 966 2306 
Q 966 1694 1177 1281 
Q 1388 869 1791 669 
Q 2194 469 2647 469 
Q 3041 469 3416 620 
Q 3791 772 3984 944 
L 3984 1797 
L 2638 1797 
z
" transform="scale(0.015625)"/>
       <path id="ArialMT-65" d="M 2694 1069 
L 3275 997 
Q 3138 488 2766 206 
Q 2394 -75 1816 -75 
Q 1088 -75 661 373 
Q 234 822 234 1631 
Q 234 2469 665 2931 
Q 1097 3394 1784 3394 
Q 2450 3394 2872 2941 
Q 3294 2488 3294 1666 
Q 3294 1616 3291 1516 
L 816 1516 
Q 847 969 1125 678 
Q 1403 388 1819 388 
Q 2128 388 2347 550 
Q 2566 713 2694 1069 
z
M 847 1978 
L 2700 1978 
Q 2663 2397 2488 2606 
Q 2219 2931 1791 2931 
Q 1403 2931 1139 2672 
Q 875 2413 847 1978 
z
" transform="scale(0.015625)"/>
       <path id="ArialMT-43" d="M 3763 1606 
L 4369 1453 
Q 4178 706 3683 314 
Q 3188 -78 2472 -78 
Q 1731 -78 1267 223 
Q 803 525 561 1097 
Q 319 1669 319 2325 
Q 319 3041 592 3573 
Q 866 4106 1370 4382 
Q 1875 4659 2481 4659 
Q 3169 4659 3637 4309 
Q 4106 3959 4291 3325 
L 3694 3184 
Q 3534 3684 3231 3912 
Q 2928 4141 2469 4141 
Q 1941 4141 1586 3887 
Q 1231 3634 1087 3207 
Q 944 2781 944 2328 
Q 944 1744 1114 1308 
Q 1284 872 1643 656 
Q 2003 441 2422 441 
Q 2931 441 3284 734 
Q 3638 1028 3763 1606 
z
" transform="scale(0.015625)"/>
       <path id="ArialMT-6f" d="M 213 1659 
Q 213 2581 725 3025 
Q 1153 3394 1769 3394 
Q 2453 3394 2887 2945 
Q 3322 2497 3322 1706 
Q 3322 1066 3130 698 
Q 2938 331 2570 128 
Q 2203 -75 1769 -75 
Q 1072 -75 642 372 
Q 213 819 213 1659 
z
M 791 1659 
Q 791 1022 1069 705 
Q 1347 388 1769 388 
Q 2188 388 2466 706 
Q 2744 1025 2744 1678 
Q 2744 2294 2464 2611 
Q 2184 2928 1769 2928 
Q 1347 2928 1069 2612 
Q 791 2297 791 1659 
z
" transform="scale(0.015625)"/>
       <path id="ArialMT-72" d="M 416 0 
L 416 3319 
L 922 3319 
L 922 2816 
Q 1116 3169 1280 3281 
Q 1444 3394 1641 3394 
Q 1925 3394 2219 3213 
L 2025 2691 
Q 1819 2813 1613 2813 
Q 1428 2813 1281 2702 
Q 1134 2591 1072 2394 
Q 978 2094 978 1738 
L 978 0 
L 416 0 
z
" transform="scale(0.015625)"/>
       <path id="ArialMT-6c" d="M 409 0 
L 409 4581 
L 972 4581 
L 972 0 
L 409 0 
z
" transform="scale(0.015625)"/>
       <path id="ArialMT-61" d="M 2588 409 
Q 2275 144 1986 34 
Q 1697 -75 1366 -75 
Q 819 -75 525 192 
Q 231 459 231 875 
Q 231 1119 342 1320 
Q 453 1522 633 1644 
Q 813 1766 1038 1828 
Q 1203 1872 1538 1913 
Q 2219 1994 2541 2106 
Q 2544 2222 2544 2253 
Q 2544 2597 2384 2738 
Q 2169 2928 1744 2928 
Q 1347 2928 1158 2789 
Q 969 2650 878 2297 
L 328 2372 
Q 403 2725 575 2942 
Q 747 3159 1072 3276 
Q 1397 3394 1825 3394 
Q 2250 3394 2515 3294 
Q 2781 3194 2906 3042 
Q 3031 2891 3081 2659 
Q 3109 2516 3109 2141 
L 3109 1391 
Q 3109 606 3145 398 
Q 3181 191 3288 0 
L 2700 0 
Q 2613 175 2588 409 
z
M 2541 1666 
Q 2234 1541 1622 1453 
Q 1275 1403 1131 1340 
Q 988 1278 909 1158 
Q 831 1038 831 891 
Q 831 666 1001 516 
Q 1172 366 1500 366 
Q 1825 366 2078 508 
Q 2331 650 2450 897 
Q 2541 1088 2541 1459 
L 2541 1666 
z
" transform="scale(0.015625)"/>
      </defs>
      <use xlink:href="#ArialMT-57"/>
      <use xlink:href="#ArialMT-69" x="94.384766"/>
      <use xlink:href="#ArialMT-74" x="116.601562"/>
      <use xlink:href="#ArialMT-68" x="144.384766"/>
      <use xlink:href="#ArialMT-69" x="200"/>
      <use xlink:href="#ArialMT-6e" x="222.216797"/>
      <use xlink:href="#ArialMT-2d" x="277.832031"/>
      <use xlink:href="#ArialMT-69" x="311.132812"/>
      <use xlink:href="#ArialMT-4d" x="333.349609"/>
      <use xlink:href="#ArialMT-20" x="416.650391"/>
      <use xlink:href="#ArialMT-47" x="444.433594"/>
      <use xlink:href="#ArialMT-65" x="522.216797"/>
      <use xlink:href="#ArialMT-6e" x="577.832031"/>
      <use xlink:href="#ArialMT-65" x="633.447266"/>
      <use xlink:href="#ArialMT-20" x="689.0625"/>
      <use xlink:href="#ArialMT-43" x="716.845703"/>
      <use xlink:href="#ArialMT-6f" x="789.0625"/>
      <use xlink:href="#ArialMT-72" x="844.677734"/>
      <use xlink:href="#ArialMT-72" x="877.978516"/>
      <use xlink:href="#ArialMT-65" x="911.279297"/>
      <use xlink:href="#ArialMT-6c" x="966.894531"/>
      <use xlink:href="#ArialMT-61" x="989.111328"/>
      <use xlink:href="#ArialMT-74" x="1044.726562"/>
      <use xlink:href="#ArialMT-69" x="1072.509766"/>
      <use xlink:href="#ArialMT-6f" x="1094.726562"/>
      <use xlink:href="#ArialMT-6e" x="1150.341797"/>
     </g>
     <!-- over Baseline -->
     <g style="fill: #262626" transform="translate(24.934688 120.65375) rotate(-90) scale(0.1 -0.1)">
      <defs>
       <path id="ArialMT-76" d="M 1344 0 
L 81 3319 
L 675 3319 
L 1388 1331 
Q 1503 1009 1600 663 
Q 1675 925 1809 1294 
L 2547 3319 
L 3125 3319 
L 1869 0 
L 1344 0 
z
" transform="scale(0.015625)"/>
       <path id="ArialMT-42" d="M 469 0 
L 469 4581 
L 2188 4581 
Q 2713 4581 3030 4442 
Q 3347 4303 3526 4014 
Q 3706 3725 3706 3409 
Q 3706 3116 3547 2856 
Q 3388 2597 3066 2438 
Q 3481 2316 3704 2022 
Q 3928 1728 3928 1328 
Q 3928 1006 3792 729 
Q 3656 453 3456 303 
Q 3256 153 2954 76 
Q 2653 0 2216 0 
L 469 0 
z
M 1075 2656 
L 2066 2656 
Q 2469 2656 2644 2709 
Q 2875 2778 2992 2937 
Q 3109 3097 3109 3338 
Q 3109 3566 3000 3739 
Q 2891 3913 2687 3977 
Q 2484 4041 1991 4041 
L 1075 4041 
L 1075 2656 
z
M 1075 541 
L 2216 541 
Q 2509 541 2628 563 
Q 2838 600 2978 687 
Q 3119 775 3209 942 
Q 3300 1109 3300 1328 
Q 3300 1584 3169 1773 
Q 3038 1963 2805 2039 
Q 2572 2116 2134 2116 
L 1075 2116 
L 1075 541 
z
" transform="scale(0.015625)"/>
       <path id="ArialMT-73" d="M 197 991 
L 753 1078 
Q 800 744 1014 566 
Q 1228 388 1613 388 
Q 2000 388 2187 545 
Q 2375 703 2375 916 
Q 2375 1106 2209 1216 
Q 2094 1291 1634 1406 
Q 1016 1563 777 1677 
Q 538 1791 414 1992 
Q 291 2194 291 2438 
Q 291 2659 392 2848 
Q 494 3038 669 3163 
Q 800 3259 1026 3326 
Q 1253 3394 1513 3394 
Q 1903 3394 2198 3281 
Q 2494 3169 2634 2976 
Q 2775 2784 2828 2463 
L 2278 2388 
Q 2241 2644 2061 2787 
Q 1881 2931 1553 2931 
Q 1166 2931 1000 2803 
Q 834 2675 834 2503 
Q 834 2394 903 2306 
Q 972 2216 1119 2156 
Q 1203 2125 1616 2013 
Q 2213 1853 2448 1751 
Q 2684 1650 2818 1456 
Q 2953 1263 2953 975 
Q 2953 694 2789 445 
Q 2625 197 2315 61 
Q 2006 -75 1616 -75 
Q 969 -75 630 194 
Q 291 463 197 991 
z
" transform="scale(0.015625)"/>
      </defs>
      <use xlink:href="#ArialMT-6f"/>
      <use xlink:href="#ArialMT-76" x="55.615234"/>
      <use xlink:href="#ArialMT-65" x="105.615234"/>
      <use xlink:href="#ArialMT-72" x="161.230469"/>
      <use xlink:href="#ArialMT-20" x="194.53125"/>
      <use xlink:href="#ArialMT-42" x="222.314453"/>
      <use xlink:href="#ArialMT-61" x="289.013672"/>
      <use xlink:href="#ArialMT-73" x="344.628906"/>
      <use xlink:href="#ArialMT-65" x="394.628906"/>
      <use xlink:href="#ArialMT-6c" x="450.244141"/>
      <use xlink:href="#ArialMT-69" x="472.460938"/>
      <use xlink:href="#ArialMT-6e" x="494.677734"/>
      <use xlink:href="#ArialMT-65" x="550.292969"/>
     </g>
    </g>
   </g>
   <g id="patch_3">
    <path d="M 67.040369 150.697127 
L 68.650759 150.697127 
L 68.650759 14.76 
L 67.040369 14.76 
z
" clip-path="url(#pe301dc38fc)" style="fill: #1f77b4"/>
   </g>
   <g id="patch_4">
    <path d="M 68.650759 150.697127 
L 70.261149 150.697127 
L 70.261149 19.268844 
L 68.650759 19.268844 
z
" clip-path="url(#pe301dc38fc)" style="fill: #1f77b4"/>
   </g>
   <g id="patch_5">
    <path d="M 70.261149 150.697127 
L 71.871538 150.697127 
L 71.871538 21.358541 
L 70.261149 21.358541 
z
" clip-path="url(#pe301dc38fc)" style="fill: #1f77b4"/>
   </g>
   <g id="patch_6">
    <path d="M 71.871538 150.697127 
L 73.481928 150.697127 
L 73.481928 25.544201 
L 71.871538 25.544201 
z
" clip-path="url(#pe301dc38fc)" style="fill: #d62728"/>
   </g>
   <g id="patch_7">
    <path d="M 73.481928 150.697127 
L 75.092317 150.697127 
L 75.092317 25.741157 
L 73.481928 25.741157 
z
" clip-path="url(#pe301dc38fc)" style="fill: #9467bd"/>
   </g>
   <g id="patch_8">
    <path d="M 75.092317 150.697127 
L 76.702707 150.697127 
L 76.702707 29.662702 
L 75.092317 29.662702 
z
" clip-path="url(#pe301dc38fc)" style="fill: #1f77b4"/>
   </g>
   <g id="patch_9">
    <path d="M 76.702707 150.697127 
L 78.313097 150.697127 
L 78.313097 31.411121 
L 76.702707 31.411121 
z
" clip-path="url(#pe301dc38fc)" style="fill: #1f77b4"/>
   </g>
   <g id="patch_10">
    <path d="M 78.313097 150.697127 
L 79.923486 150.697127 
L 79.923486 31.526576 
L 78.313097 31.526576 
z
" clip-path="url(#pe301dc38fc)" style="fill: #1f77b4"/>
   </g>
   <g id="patch_11">
    <path d="M 79.923486 150.697127 
L 81.533876 150.697127 
L 81.533876 31.809239 
L 79.923486 31.809239 
z
" clip-path="url(#pe301dc38fc)" style="fill: #1f77b4"/>
   </g>
   <g id="patch_12">
    <path d="M 81.533876 150.697127 
L 83.144265 150.697127 
L 83.144265 32.939764 
L 81.533876 32.939764 
z
" clip-path="url(#pe301dc38fc)" style="fill: #1f77b4"/>
   </g>
   <g id="patch_13">
    <path d="M 83.144265 150.697127 
L 84.754655 150.697127 
L 84.754655 33.891667 
L 83.144265 33.891667 
z
" clip-path="url(#pe301dc38fc)" style="fill: #e377c2"/>
   </g>
   <g id="patch_14">
    <path d="M 84.754655 150.697127 
L 86.365045 150.697127 
L 86.365045 34.666594 
L 84.754655 34.666594 
z
" clip-path="url(#pe301dc38fc)" style="fill: #1f77b4"/>
   </g>
   <g id="patch_15">
    <path d="M 86.365045 150.697127 
L 87.975434 150.697127 
L 87.975434 34.964398 
L 86.365045 34.964398 
z
" clip-path="url(#pe301dc38fc)" style="fill: #d62728"/>
   </g>
   <g id="patch_16">
    <path d="M 87.975434 150.697127 
L 89.585824 150.697127 
L 89.585824 40.085492 
L 87.975434 40.085492 
z
" clip-path="url(#pe301dc38fc)" style="fill: #1f77b4"/>
   </g>
   <g id="patch_17">
    <path d="M 89.585824 150.697127 
L 91.196213 150.697127 
L 91.196213 40.484442 
L 89.585824 40.484442 
z
" clip-path="url(#pe301dc38fc)" style="fill: #1f77b4"/>
   </g>
   <g id="patch_18">
    <path d="M 91.196213 150.697127 
L 92.806603 150.697127 
L 92.806603 41.169568 
L 91.196213 41.169568 
z
" clip-path="url(#pe301dc38fc)" style="fill: #1f77b4"/>
   </g>
   <g id="patch_19">
    <path d="M 92.806603 150.697127 
L 94.416993 150.697127 
L 94.416993 42.973746 
L 92.806603 42.973746 
z
" clip-path="url(#pe301dc38fc)" style="fill: #1f77b4"/>
   </g>
   <g id="patch_20">
    <path d="M 94.416993 150.697127 
L 96.027382 150.697127 
L 96.027382 42.981751 
L 94.416993 42.981751 
z
" clip-path="url(#pe301dc38fc)" style="fill: #1f77b4"/>
   </g>
   <g id="patch_21">
    <path d="M 96.027382 150.697127 
L 97.637772 150.697127 
L 97.637772 43.473529 
L 96.027382 43.473529 
z
" clip-path="url(#pe301dc38fc)" style="fill: #1f77b4"/>
   </g>
   <g id="patch_22">
    <path d="M 97.637772 150.697127 
L 99.248162 150.697127 
L 99.248162 44.455761 
L 97.637772 44.455761 
z
" clip-path="url(#pe301dc38fc)" style="fill: #1f77b4"/>
   </g>
   <g id="patch_23">
    <path d="M 99.248162 150.697127 
L 100.858551 150.697127 
L 100.858551 44.47262 
L 99.248162 44.47262 
z
" clip-path="url(#pe301dc38fc)" style="fill: #1f77b4"/>
   </g>
   <g id="patch_24">
    <path d="M 100.858551 150.697127 
L 102.468941 150.697127 
L 102.468941 45.244606 
L 100.858551 45.244606 
z
" clip-path="url(#pe301dc38fc)" style="fill: #1f77b4"/>
   </g>
   <g id="patch_25">
    <path d="M 102.468941 150.697127 
L 104.07933 150.697127 
L 104.07933 47.742667 
L 102.468941 47.742667 
z
" clip-path="url(#pe301dc38fc)" style="fill: #1f77b4"/>
   </g>
   <g id="patch_26">
    <path d="M 104.07933 150.697127 
L 105.68972 150.697127 
L 105.68972 49.609938 
L 104.07933 49.609938 
z
" clip-path="url(#pe301dc38fc)" style="fill: #1f77b4"/>
   </g>
   <g id="patch_27">
    <path d="M 105.68972 150.697127 
L 107.30011 150.697127 
L 107.30011 49.956733 
L 105.68972 49.956733 
z
" clip-path="url(#pe301dc38fc)" style="fill: #e377c2"/>
   </g>
   <g id="patch_28">
    <path d="M 107.30011 150.697127 
L 108.910499 150.697127 
L 108.910499 51.086221 
L 107.30011 51.086221 
z
" clip-path="url(#pe301dc38fc)" style="fill: #1f77b4"/>
   </g>
   <g id="patch_29">
    <path d="M 108.910499 150.697127 
L 110.520889 150.697127 
L 110.520889 52.193688 
L 108.910499 52.193688 
z
" clip-path="url(#pe301dc38fc)" style="fill: #1f77b4"/>
   </g>
   <g id="patch_30">
    <path d="M 110.520889 150.697127 
L 112.131278 150.697127 
L 112.131278 53.630583 
L 110.520889 53.630583 
z
" clip-path="url(#pe301dc38fc)" style="fill: #1f77b4"/>
   </g>
   <g id="patch_31">
    <path d="M 112.131278 150.697127 
L 113.741668 150.697127 
L 113.741668 55.676082 
L 112.131278 55.676082 
z
" clip-path="url(#pe301dc38fc)" style="fill: #1f77b4"/>
   </g>
   <g id="patch_32">
    <path d="M 113.741668 150.697127 
L 115.352058 150.697127 
L 115.352058 55.817188 
L 113.741668 55.817188 
z
" clip-path="url(#pe301dc38fc)" style="fill: #1f77b4"/>
   </g>
   <g id="patch_33">
    <path d="M 115.352058 150.697127 
L 116.962447 150.697127 
L 116.962447 56.444279 
L 115.352058 56.444279 
z
" clip-path="url(#pe301dc38fc)" style="fill: #1f77b4"/>
   </g>
   <g id="patch_34">
    <path d="M 116.962447 150.697127 
L 118.572837 150.697127 
L 118.572837 59.996362 
L 116.962447 59.996362 
z
" clip-path="url(#pe301dc38fc)" style="fill: #1f77b4"/>
   </g>
   <g id="patch_35">
    <path d="M 118.572837 150.697127 
L 120.183226 150.697127 
L 120.183226 60.582026 
L 118.572837 60.582026 
z
" clip-path="url(#pe301dc38fc)" style="fill: #1f77b4"/>
   </g>
   <g id="patch_36">
    <path d="M 120.183226 150.697127 
L 121.793616 150.697127 
L 121.793616 61.489323 
L 120.183226 61.489323 
z
" clip-path="url(#pe301dc38fc)" style="fill: #1f77b4"/>
   </g>
   <g id="patch_37">
    <path d="M 121.793616 150.697127 
L 123.404006 150.697127 
L 123.404006 62.161956 
L 121.793616 62.161956 
z
" clip-path="url(#pe301dc38fc)" style="fill: #d62728"/>
   </g>
   <g id="patch_38">
    <path d="M 123.404006 150.697127 
L 125.014395 150.697127 
L 125.014395 62.393009 
L 123.404006 62.393009 
z
" clip-path="url(#pe301dc38fc)" style="fill: #e377c2"/>
   </g>
   <g id="patch_39">
    <path d="M 125.014395 150.697127 
L 126.624785 150.697127 
L 126.624785 64.512367 
L 125.014395 64.512367 
z
" clip-path="url(#pe301dc38fc)" style="fill: #1f77b4"/>
   </g>
   <g id="patch_40">
    <path d="M 126.624785 150.697127 
L 128.235175 150.697127 
L 128.235175 65.885609 
L 126.624785 65.885609 
z
" clip-path="url(#pe301dc38fc)" style="fill: #1f77b4"/>
   </g>
   <g id="patch_41">
    <path d="M 128.235175 150.697127 
L 129.845564 150.697127 
L 129.845564 66.429943 
L 128.235175 66.429943 
z
" clip-path="url(#pe301dc38fc)" style="fill: #1f77b4"/>
   </g>
   <g id="patch_42">
    <path d="M 129.845564 150.697127 
L 131.455954 150.697127 
L 131.455954 68.891358 
L 129.845564 68.891358 
z
" clip-path="url(#pe301dc38fc)" style="fill: #1f77b4"/>
   </g>
   <g id="patch_43">
    <path d="M 131.455954 150.697127 
L 133.066343 150.697127 
L 133.066343 68.912824 
L 131.455954 68.912824 
z
" clip-path="url(#pe301dc38fc)" style="fill: #1f77b4"/>
   </g>
   <g id="patch_44">
    <path d="M 133.066343 150.697127 
L 134.676733 150.697127 
L 134.676733 70.257845 
L 133.066343 70.257845 
z
" clip-path="url(#pe301dc38fc)" style="fill: #1f77b4"/>
   </g>
   <g id="patch_45">
    <path d="M 134.676733 150.697127 
L 136.287123 150.697127 
L 136.287123 70.637952 
L 134.676733 70.637952 
z
" clip-path="url(#pe301dc38fc)" style="fill: #1f77b4"/>
   </g>
   <g id="patch_46">
    <path d="M 136.287123 150.697127 
L 137.897512 150.697127 
L 137.897512 71.115876 
L 136.287123 71.115876 
z
" clip-path="url(#pe301dc38fc)" style="fill: #1f77b4"/>
   </g>
   <g id="patch_47">
    <path d="M 137.897512 150.697127 
L 139.507902 150.697127 
L 139.507902 71.476984 
L 137.897512 71.476984 
z
" clip-path="url(#pe301dc38fc)" style="fill: #1f77b4"/>
   </g>
   <g id="patch_48">
    <path d="M 139.507902 150.697127 
L 141.118291 150.697127 
L 141.118291 75.089064 
L 139.507902 75.089064 
z
" clip-path="url(#pe301dc38fc)" style="fill: #1f77b4"/>
   </g>
   <g id="patch_49">
    <path d="M 141.118291 150.697127 
L 142.728681 150.697127 
L 142.728681 75.726652 
L 141.118291 75.726652 
z
" clip-path="url(#pe301dc38fc)" style="fill: #e377c2"/>
   </g>
   <g id="patch_50">
    <path d="M 142.728681 150.697127 
L 144.339071 150.697127 
L 144.339071 76.171273 
L 142.728681 76.171273 
z
" clip-path="url(#pe301dc38fc)" style="fill: #1f77b4"/>
   </g>
   <g id="patch_51">
    <path d="M 144.339071 150.697127 
L 145.94946 150.697127 
L 145.94946 78.121236 
L 144.339071 78.121236 
z
" clip-path="url(#pe301dc38fc)" style="fill: #9467bd"/>
   </g>
   <g id="patch_52">
    <path d="M 145.94946 150.697127 
L 147.55985 150.697127 
L 147.55985 79.012756 
L 145.94946 79.012756 
z
" clip-path="url(#pe301dc38fc)" style="fill: #1f77b4"/>
   </g>
   <g id="patch_53">
    <path d="M 147.55985 150.697127 
L 149.170239 150.697127 
L 149.170239 79.189965 
L 147.55985 79.189965 
z
" clip-path="url(#pe301dc38fc)" style="fill: #1f77b4"/>
   </g>
   <g id="patch_54">
    <path d="M 149.170239 150.697127 
L 150.780629 150.697127 
L 150.780629 79.971854 
L 149.170239 79.971854 
z
" clip-path="url(#pe301dc38fc)" style="fill: #6a5acd"/>
   </g>
   <g id="patch_55">
    <path d="M 150.780629 150.697127 
L 152.391019 150.697127 
L 152.391019 80.601626 
L 150.780629 80.601626 
z
" clip-path="url(#pe301dc38fc)" style="fill: #1f77b4"/>
   </g>
   <g id="patch_56">
    <path d="M 152.391019 150.697127 
L 154.001408 150.697127 
L 154.001408 80.975635 
L 152.391019 80.975635 
z
" clip-path="url(#pe301dc38fc)" style="fill: #1f77b4"/>
   </g>
   <g id="patch_57">
    <path d="M 154.001408 150.697127 
L 155.611798 150.697127 
L 155.611798 82.317305 
L 154.001408 82.317305 
z
" clip-path="url(#pe301dc38fc)" style="fill: #1f77b4"/>
   </g>
   <g id="patch_58">
    <path d="M 155.611798 150.697127 
L 157.222187 150.697127 
L 157.222187 82.809133 
L 155.611798 82.809133 
z
" clip-path="url(#pe301dc38fc)" style="fill: #1f77b4"/>
   </g>
   <g id="patch_59">
    <path d="M 157.222188 150.697127 
L 158.832577 150.697127 
L 158.832577 83.251851 
L 157.222188 83.251851 
z
" clip-path="url(#pe301dc38fc)" style="fill: #e377c2"/>
   </g>
   <g id="patch_60">
    <path d="M 158.832577 150.697127 
L 160.442967 150.697127 
L 160.442967 84.348454 
L 158.832577 84.348454 
z
" clip-path="url(#pe301dc38fc)" style="fill: #1f77b4"/>
   </g>
   <g id="patch_61">
    <path d="M 160.442967 150.697127 
L 162.053356 150.697127 
L 162.053356 85.482115 
L 160.442967 85.482115 
z
" clip-path="url(#pe301dc38fc)" style="fill: #1f77b4"/>
   </g>
   <g id="patch_62">
    <path d="M 162.053356 150.697127 
L 163.663746 150.697127 
L 163.663746 86.614196 
L 162.053356 86.614196 
z
" clip-path="url(#pe301dc38fc)" style="fill: #1f77b4"/>
   </g>
   <g id="patch_63">
    <path d="M 163.663746 150.697127 
L 165.274136 150.697127 
L 165.274136 89.618945 
L 163.663746 89.618945 
z
" clip-path="url(#pe301dc38fc)" style="fill: #1f77b4"/>
   </g>
   <g id="patch_64">
    <path d="M 165.274136 150.697127 
L 166.884525 150.697127 
L 166.884525 91.010503 
L 165.274136 91.010503 
z
" clip-path="url(#pe301dc38fc)" style="fill: #d62728"/>
   </g>
   <g id="patch_65">
    <path d="M 166.884525 150.697127 
L 168.494915 150.697127 
L 168.494915 91.216361 
L 166.884525 91.216361 
z
" clip-path="url(#pe301dc38fc)" style="fill: #1f77b4"/>
   </g>
   <g id="patch_66">
    <path d="M 168.494915 150.697127 
L 170.105304 150.697127 
L 170.105304 91.358865 
L 168.494915 91.358865 
z
" clip-path="url(#pe301dc38fc)" style="fill: #1f77b4"/>
   </g>
   <g id="patch_67">
    <path d="M 170.105304 150.697127 
L 171.715694 150.697127 
L 171.715694 93.076821 
L 170.105304 93.076821 
z
" clip-path="url(#pe301dc38fc)" style="fill: #1f77b4"/>
   </g>
   <g id="patch_68">
    <path d="M 171.715694 150.697127 
L 173.326084 150.697127 
L 173.326084 93.734844 
L 171.715694 93.734844 
z
" clip-path="url(#pe301dc38fc)" style="fill: #1f77b4"/>
   </g>
   <g id="patch_69">
    <path d="M 173.326084 150.697127 
L 174.936473 150.697127 
L 174.936473 94.664361 
L 173.326084 94.664361 
z
" clip-path="url(#pe301dc38fc)" style="fill: #1f77b4"/>
   </g>
   <g id="patch_70">
    <path d="M 174.936473 150.697127 
L 176.546863 150.697127 
L 176.546863 94.752499 
L 174.936473 94.752499 
z
" clip-path="url(#pe301dc38fc)" style="fill: #1f77b4"/>
   </g>
   <g id="patch_71">
    <path d="M 176.546863 150.697127 
L 178.157252 150.697127 
L 178.157252 95.016945 
L 176.546863 95.016945 
z
" clip-path="url(#pe301dc38fc)" style="fill: #1f77b4"/>
   </g>
   <g id="patch_72">
    <path d="M 178.157252 150.697127 
L 179.767642 150.697127 
L 179.767642 95.478307 
L 178.157252 95.478307 
z
" clip-path="url(#pe301dc38fc)" style="fill: #1f77b4"/>
   </g>
   <g id="patch_73">
    <path d="M 179.767642 150.697127 
L 181.378032 150.697127 
L 181.378032 95.800949 
L 179.767642 95.800949 
z
" clip-path="url(#pe301dc38fc)" style="fill: #1f77b4"/>
   </g>
   <g id="patch_74">
    <path d="M 181.378032 150.697127 
L 182.988421 150.697127 
L 182.988421 95.831786 
L 181.378032 95.831786 
z
" clip-path="url(#pe301dc38fc)" style="fill: #1f77b4"/>
   </g>
   <g id="patch_75">
    <path d="M 182.988421 150.697127 
L 184.598811 150.697127 
L 184.598811 98.532099 
L 182.988421 98.532099 
z
" clip-path="url(#pe301dc38fc)" style="fill: #1f77b4"/>
   </g>
   <g id="patch_76">
    <path d="M 184.598811 150.697127 
L 186.2092 150.697127 
L 186.2092 99.544224 
L 184.598811 99.544224 
z
" clip-path="url(#pe301dc38fc)" style="fill: #1f77b4"/>
   </g>
   <g id="patch_77">
    <path d="M 186.2092 150.697127 
L 187.81959 150.697127 
L 187.81959 100.397159 
L 186.2092 100.397159 
z
" clip-path="url(#pe301dc38fc)" style="fill: #1f77b4"/>
   </g>
   <g id="patch_78">
    <path d="M 187.81959 150.697127 
L 189.42998 150.697127 
L 189.42998 100.781719 
L 187.81959 100.781719 
z
" clip-path="url(#pe301dc38fc)" style="fill: #1f77b4"/>
   </g>
   <g id="patch_79">
    <path d="M 189.42998 150.697127 
L 191.040369 150.697127 
L 191.040369 102.056869 
L 189.42998 102.056869 
z
" clip-path="url(#pe301dc38fc)" style="fill: #1f77b4"/>
   </g>
   <g id="patch_80">
    <path d="M 191.040369 150.697127 
L 192.650759 150.697127 
L 192.650759 102.560404 
L 191.040369 102.560404 
z
" clip-path="url(#pe301dc38fc)" style="fill: #1f77b4"/>
   </g>
   <g id="patch_81">
    <path d="M 192.650759 150.697127 
L 194.261149 150.697127 
L 194.261149 104.070129 
L 192.650759 104.070129 
z
" clip-path="url(#pe301dc38fc)" style="fill: #1f77b4"/>
   </g>
   <g id="patch_82">
    <path d="M 194.261149 150.697127 
L 195.871538 150.697127 
L 195.871538 104.21691 
L 194.261149 104.21691 
z
" clip-path="url(#pe301dc38fc)" style="fill: #1f77b4"/>
   </g>
   <g id="patch_83">
    <path d="M 195.871538 150.697127 
L 197.481928 150.697127 
L 197.481928 104.317011 
L 195.871538 104.317011 
z
" clip-path="url(#pe301dc38fc)" style="fill: #1f77b4"/>
   </g>
   <g id="patch_84">
    <path d="M 197.481928 150.697127 
L 199.092317 150.697127 
L 199.092317 104.95125 
L 197.481928 104.95125 
z
" clip-path="url(#pe301dc38fc)" style="fill: #e377c2"/>
   </g>
   <g id="patch_85">
    <path d="M 199.092317 150.697127 
L 200.702707 150.697127 
L 200.702707 105.235813 
L 199.092317 105.235813 
z
" clip-path="url(#pe301dc38fc)" style="fill: #9467bd"/>
   </g>
   <g id="patch_86">
    <path d="M 200.702707 150.697127 
L 202.313097 150.697127 
L 202.313097 105.939209 
L 200.702707 105.939209 
z
" clip-path="url(#pe301dc38fc)" style="fill: #d62728"/>
   </g>
   <g id="patch_87">
    <path d="M 202.313097 150.697127 
L 203.923486 150.697127 
L 203.923486 106.126661 
L 202.313097 106.126661 
z
" clip-path="url(#pe301dc38fc)" style="fill: #1f77b4"/>
   </g>
   <g id="patch_88">
    <path d="M 203.923486 150.697127 
L 205.533876 150.697127 
L 205.533876 106.486072 
L 203.923486 106.486072 
z
" clip-path="url(#pe301dc38fc)" style="fill: #1f77b4"/>
   </g>
   <g id="patch_89">
    <path d="M 205.533876 150.697127 
L 207.144265 150.697127 
L 207.144265 107.000442 
L 205.533876 107.000442 
z
" clip-path="url(#pe301dc38fc)" style="fill: #1f77b4"/>
   </g>
   <g id="patch_90">
    <path d="M 207.144265 150.697127 
L 208.754655 150.697127 
L 208.754655 107.173286 
L 207.144265 107.173286 
z
" clip-path="url(#pe301dc38fc)" style="fill: #1f77b4"/>
   </g>
   <g id="patch_91">
    <path d="M 208.754655 150.697127 
L 210.365045 150.697127 
L 210.365045 107.406071 
L 208.754655 107.406071 
z
" clip-path="url(#pe301dc38fc)" style="fill: #1f77b4"/>
   </g>
   <g id="patch_92">
    <path d="M 210.365045 150.697127 
L 211.975434 150.697127 
L 211.975434 108.214524 
L 210.365045 108.214524 
z
" clip-path="url(#pe301dc38fc)" style="fill: #1f77b4"/>
   </g>
   <g id="patch_93">
    <path d="M 211.975434 150.697127 
L 213.585824 150.697127 
L 213.585824 108.950086 
L 211.975434 108.950086 
z
" clip-path="url(#pe301dc38fc)" style="fill: #d62728"/>
   </g>
   <g id="patch_94">
    <path d="M 213.585824 150.697127 
L 215.196213 150.697127 
L 215.196213 111.561581 
L 213.585824 111.561581 
z
" clip-path="url(#pe301dc38fc)" style="fill: #1f77b4"/>
   </g>
   <g id="patch_95">
    <path d="M 215.196213 150.697127 
L 216.806603 150.697127 
L 216.806603 111.588388 
L 215.196213 111.588388 
z
" clip-path="url(#pe301dc38fc)" style="fill: #d62728"/>
   </g>
   <g id="patch_96">
    <path d="M 216.806603 150.697127 
L 218.416993 150.697127 
L 218.416993 111.905472 
L 216.806603 111.905472 
z
" clip-path="url(#pe301dc38fc)" style="fill: #9467bd"/>
   </g>
   <g id="patch_97">
    <path d="M 218.416993 150.697127 
L 220.027382 150.697127 
L 220.027382 112.176979 
L 218.416993 112.176979 
z
" clip-path="url(#pe301dc38fc)" style="fill: #1f77b4"/>
   </g>
   <g id="patch_98">
    <path d="M 220.027382 150.697127 
L 221.637772 150.697127 
L 221.637772 112.558534 
L 220.027382 112.558534 
z
" clip-path="url(#pe301dc38fc)" style="fill: #e377c2"/>
   </g>
   <g id="patch_99">
    <path d="M 221.637772 150.697127 
L 223.248162 150.697127 
L 223.248162 112.647855 
L 221.637772 112.647855 
z
" clip-path="url(#pe301dc38fc)" style="fill: #1f77b4"/>
   </g>
   <g id="patch_100">
    <path d="M 223.248162 150.697127 
L 224.858551 150.697127 
L 224.858551 112.667344 
L 223.248162 112.667344 
z
" clip-path="url(#pe301dc38fc)" style="fill: #1f77b4"/>
   </g>
   <g id="patch_101">
    <path d="M 224.858551 150.697127 
L 226.468941 150.697127 
L 226.468941 112.755464 
L 224.858551 112.755464 
z
" clip-path="url(#pe301dc38fc)" style="fill: #1f77b4"/>
   </g>
   <g id="patch_102">
    <path d="M 226.468941 150.697127 
L 228.07933 150.697127 
L 228.07933 113.047757 
L 226.468941 113.047757 
z
" clip-path="url(#pe301dc38fc)" style="fill: #1f77b4"/>
   </g>
   <g id="patch_103">
    <path d="M 228.07933 150.697127 
L 229.68972 150.697127 
L 229.68972 113.209653 
L 228.07933 113.209653 
z
" clip-path="url(#pe301dc38fc)" style="fill: #1f77b4"/>
   </g>
   <g id="patch_104">
    <path d="M 229.68972 150.697127 
L 231.30011 150.697127 
L 231.30011 113.225476 
L 229.68972 113.225476 
z
" clip-path="url(#pe301dc38fc)" style="fill: #1f77b4"/>
   </g>
   <g id="patch_105">
    <path d="M 231.30011 150.697127 
L 232.910499 150.697127 
L 232.910499 113.963157 
L 231.30011 113.963157 
z
" clip-path="url(#pe301dc38fc)" style="fill: #d62728"/>
   </g>
   <g id="patch_106">
    <path d="M 232.910499 150.697127 
L 234.520889 150.697127 
L 234.520889 114.259583 
L 232.910499 114.259583 
z
" clip-path="url(#pe301dc38fc)" style="fill: #1f77b4"/>
   </g>
   <g id="patch_107">
    <path d="M 234.520889 150.697127 
L 236.131278 150.697127 
L 236.131278 114.848654 
L 234.520889 114.848654 
z
" clip-path="url(#pe301dc38fc)" style="fill: #d62728"/>
   </g>
   <g id="patch_108">
    <path d="M 236.131278 150.697127 
L 237.741668 150.697127 
L 237.741668 116.246186 
L 236.131278 116.246186 
z
" clip-path="url(#pe301dc38fc)" style="fill: #d62728"/>
   </g>
   <g id="patch_109">
    <path d="M 237.741668 150.697127 
L 239.352058 150.697127 
L 239.352058 116.299111 
L 237.741668 116.299111 
z
" clip-path="url(#pe301dc38fc)" style="fill: #1f77b4"/>
   </g>
   <g id="patch_110">
    <path d="M 239.352058 150.697127 
L 240.962447 150.697127 
L 240.962447 116.953414 
L 239.352058 116.953414 
z
" clip-path="url(#pe301dc38fc)" style="fill: #1f77b4"/>
   </g>
   <g id="patch_111">
    <path d="M 240.962447 150.697127 
L 242.572837 150.697127 
L 242.572837 117.288744 
L 240.962447 117.288744 
z
" clip-path="url(#pe301dc38fc)" style="fill: #1f77b4"/>
   </g>
   <g id="patch_112">
    <path d="M 242.572837 150.697127 
L 244.183226 150.697127 
L 244.183226 118.053227 
L 242.572837 118.053227 
z
" clip-path="url(#pe301dc38fc)" style="fill: #e377c2"/>
   </g>
   <g id="patch_113">
    <path d="M 244.183226 150.697127 
L 245.793616 150.697127 
L 245.793616 118.39088 
L 244.183226 118.39088 
z
" clip-path="url(#pe301dc38fc)" style="fill: #e377c2"/>
   </g>
   <g id="patch_114">
    <path d="M 245.793616 150.697127 
L 247.404006 150.697127 
L 247.404006 119.474452 
L 245.793616 119.474452 
z
" clip-path="url(#pe301dc38fc)" style="fill: #1f77b4"/>
   </g>
   <g id="patch_115">
    <path d="M 247.404006 150.697127 
L 249.014395 150.697127 
L 249.014395 121.107997 
L 247.404006 121.107997 
z
" clip-path="url(#pe301dc38fc)" style="fill: #1f77b4"/>
   </g>
   <g id="patch_116">
    <path d="M 249.014395 150.697127 
L 250.624785 150.697127 
L 250.624785 121.490751 
L 249.014395 121.490751 
z
" clip-path="url(#pe301dc38fc)" style="fill: #6a5acd"/>
   </g>
   <g id="patch_117">
    <path d="M 250.624785 150.697127 
L 252.235175 150.697127 
L 252.235175 123.874889 
L 250.624785 123.874889 
z
" clip-path="url(#pe301dc38fc)" style="fill: #d62728"/>
   </g>
   <g id="patch_118">
    <path d="M 252.235175 150.697127 
L 253.845564 150.697127 
L 253.845564 124.280194 
L 252.235175 124.280194 
z
" clip-path="url(#pe301dc38fc)" style="fill: #1f77b4"/>
   </g>
   <g id="patch_119">
    <path d="M 253.845564 150.697127 
L 255.455954 150.697127 
L 255.455954 124.744211 
L 253.845564 124.744211 
z
" clip-path="url(#pe301dc38fc)" style="fill: #1f77b4"/>
   </g>
   <g id="patch_120">
    <path d="M 255.455954 150.697127 
L 257.066343 150.697127 
L 257.066343 124.875915 
L 255.455954 124.875915 
z
" clip-path="url(#pe301dc38fc)" style="fill: #9467bd"/>
   </g>
   <g id="patch_121">
    <path d="M 257.066343 150.697127 
L 258.676733 150.697127 
L 258.676733 125.133864 
L 257.066343 125.133864 
z
" clip-path="url(#pe301dc38fc)" style="fill: #e377c2"/>
   </g>
   <g id="patch_122">
    <path d="M 258.676733 150.697127 
L 260.287123 150.697127 
L 260.287123 125.303904 
L 258.676733 125.303904 
z
" clip-path="url(#pe301dc38fc)" style="fill: #1f77b4"/>
   </g>
   <g id="patch_123">
    <path d="M 260.287123 150.697127 
L 261.897512 150.697127 
L 261.897512 125.44878 
L 260.287123 125.44878 
z
" clip-path="url(#pe301dc38fc)" style="fill: #6a5acd"/>
   </g>
   <g id="patch_124">
    <path d="M 261.897512 150.697127 
L 263.507902 150.697127 
L 263.507902 125.531255 
L 261.897512 125.531255 
z
" clip-path="url(#pe301dc38fc)" style="fill: #1f77b4"/>
   </g>
   <g id="patch_125">
    <path d="M 263.507902 150.697127 
L 265.118291 150.697127 
L 265.118291 126.831523 
L 263.507902 126.831523 
z
" clip-path="url(#pe301dc38fc)" style="fill: #e377c2"/>
   </g>
   <g id="patch_126">
    <path d="M 265.118291 150.697127 
L 266.728681 150.697127 
L 266.728681 127.271874 
L 265.118291 127.271874 
z
" clip-path="url(#pe301dc38fc)" style="fill: #d62728"/>
   </g>
   <g id="patch_127">
    <path d="M 266.728681 150.697127 
L 268.339071 150.697127 
L 268.339071 127.552689 
L 266.728681 127.552689 
z
" clip-path="url(#pe301dc38fc)" style="fill: #6a5acd"/>
   </g>
   <g id="patch_128">
    <path d="M 268.339071 150.697127 
L 269.94946 150.697127 
L 269.94946 127.846566 
L 268.339071 127.846566 
z
" clip-path="url(#pe301dc38fc)" style="fill: #1f77b4"/>
   </g>
   <g id="patch_129">
    <path d="M 269.94946 150.697127 
L 271.55985 150.697127 
L 271.55985 127.85675 
L 269.94946 127.85675 
z
" clip-path="url(#pe301dc38fc)" style="fill: #e377c2"/>
   </g>
   <g id="patch_130">
    <path d="M 271.55985 150.697127 
L 273.170239 150.697127 
L 273.170239 128.768229 
L 271.55985 128.768229 
z
" clip-path="url(#pe301dc38fc)" style="fill: #6a5acd"/>
   </g>
   <g id="patch_131">
    <path d="M 273.170239 150.697127 
L 274.780629 150.697127 
L 274.780629 129.03896 
L 273.170239 129.03896 
z
" clip-path="url(#pe301dc38fc)" style="fill: #1f77b4"/>
   </g>
   <g id="patch_132">
    <path d="M 274.780629 150.697127 
L 276.391019 150.697127 
L 276.391019 129.04222 
L 274.780629 129.04222 
z
" clip-path="url(#pe301dc38fc)" style="fill: #6a5acd"/>
   </g>
   <g id="patch_133">
    <path d="M 276.391019 150.697127 
L 278.001408 150.697127 
L 278.001408 129.120639 
L 276.391019 129.120639 
z
" clip-path="url(#pe301dc38fc)" style="fill: #6a5acd"/>
   </g>
   <g id="patch_134">
    <path d="M 278.001408 150.697127 
L 279.611798 150.697127 
L 279.611798 130.453225 
L 278.001408 130.453225 
z
" clip-path="url(#pe301dc38fc)" style="fill: #1f77b4"/>
   </g>
   <g id="patch_135">
    <path d="M 279.611798 150.697127 
L 281.222188 150.697127 
L 281.222188 132.208705 
L 279.611798 132.208705 
z
" clip-path="url(#pe301dc38fc)" style="fill: #1f77b4"/>
   </g>
   <g id="patch_136">
    <path d="M 281.222188 150.697127 
L 282.832577 150.697127 
L 282.832577 133.549517 
L 281.222188 133.549517 
z
" clip-path="url(#pe301dc38fc)" style="fill: #1f77b4"/>
   </g>
   <g id="patch_137">
    <path d="M 282.832577 150.697127 
L 284.442967 150.697127 
L 284.442967 133.836106 
L 282.832577 133.836106 
z
" clip-path="url(#pe301dc38fc)" style="fill: #1f77b4"/>
   </g>
   <g id="patch_138">
    <path d="M 284.442967 150.697127 
L 286.053356 150.697127 
L 286.053356 134.746074 
L 284.442967 134.746074 
z
" clip-path="url(#pe301dc38fc)" style="fill: #d62728"/>
   </g>
   <g id="patch_139">
    <path d="M 286.053356 150.697127 
L 287.663746 150.697127 
L 287.663746 135.702122 
L 286.053356 135.702122 
z
" clip-path="url(#pe301dc38fc)" style="fill: #d62728"/>
   </g>
   <g id="patch_140">
    <path d="M 287.663746 150.697127 
L 289.274136 150.697127 
L 289.274136 136.09329 
L 287.663746 136.09329 
z
" clip-path="url(#pe301dc38fc)" style="fill: #9467bd"/>
   </g>
   <g id="patch_141">
    <path d="M 289.274136 150.697127 
L 290.884525 150.697127 
L 290.884525 136.2893 
L 289.274136 136.2893 
z
" clip-path="url(#pe301dc38fc)" style="fill: #1f77b4"/>
   </g>
   <g id="patch_142">
    <path d="M 290.884525 150.697127 
L 292.494915 150.697127 
L 292.494915 137.337951 
L 290.884525 137.337951 
z
" clip-path="url(#pe301dc38fc)" style="fill: #d62728"/>
   </g>
   <g id="patch_143">
    <path d="M 292.494915 150.697127 
L 294.105304 150.697127 
L 294.105304 137.634238 
L 292.494915 137.634238 
z
" clip-path="url(#pe301dc38fc)" style="fill: #d62728"/>
   </g>
   <g id="patch_144">
    <path d="M 294.105304 150.697127 
L 295.715694 150.697127 
L 295.715694 137.798893 
L 294.105304 137.798893 
z
" clip-path="url(#pe301dc38fc)" style="fill: #e377c2"/>
   </g>
   <g id="patch_145">
    <path d="M 295.715694 150.697127 
L 297.326084 150.697127 
L 297.326084 138.59112 
L 295.715694 138.59112 
z
" clip-path="url(#pe301dc38fc)" style="fill: #d62728"/>
   </g>
   <g id="patch_146">
    <path d="M 297.326084 150.697127 
L 298.936473 150.697127 
L 298.936473 139.87146 
L 297.326084 139.87146 
z
" clip-path="url(#pe301dc38fc)" style="fill: #e377c2"/>
   </g>
   <g id="patch_147">
    <path d="M 298.936473 150.697127 
L 300.546863 150.697127 
L 300.546863 140.131063 
L 298.936473 140.131063 
z
" clip-path="url(#pe301dc38fc)" style="fill: #6a5acd"/>
   </g>
   <g id="patch_148">
    <path d="M 300.546863 150.697127 
L 302.157252 150.697127 
L 302.157252 140.493923 
L 300.546863 140.493923 
z
" clip-path="url(#pe301dc38fc)" style="fill: #d62728"/>
   </g>
   <g id="patch_149">
    <path d="M 302.157252 150.697127 
L 303.767642 150.697127 
L 303.767642 141.00816 
L 302.157252 141.00816 
z
" clip-path="url(#pe301dc38fc)" style="fill: #1f77b4"/>
   </g>
   <g id="patch_150">
    <path d="M 303.767642 150.697127 
L 305.378032 150.697127 
L 305.378032 141.763812 
L 303.767642 141.763812 
z
" clip-path="url(#pe301dc38fc)" style="fill: #1f77b4"/>
   </g>
   <g id="patch_151">
    <path d="M 305.378032 150.697127 
L 306.988421 150.697127 
L 306.988421 142.055648 
L 305.378032 142.055648 
z
" clip-path="url(#pe301dc38fc)" style="fill: #6a5acd"/>
   </g>
   <g id="patch_152">
    <path d="M 306.988421 150.697127 
L 308.598811 150.697127 
L 308.598811 142.33377 
L 306.988421 142.33377 
z
" clip-path="url(#pe301dc38fc)" style="fill: #e377c2"/>
   </g>
   <g id="patch_153">
    <path d="M 308.598811 150.697127 
L 310.2092 150.697127 
L 310.2092 142.426511 
L 308.598811 142.426511 
z
" clip-path="url(#pe301dc38fc)" style="fill: #1f77b4"/>
   </g>
   <g id="patch_154">
    <path d="M 310.2092 150.697127 
L 311.81959 150.697127 
L 311.81959 142.653438 
L 310.2092 142.653438 
z
" clip-path="url(#pe301dc38fc)" style="fill: #d62728"/>
   </g>
   <g id="patch_155">
    <path d="M 311.81959 150.697127 
L 313.42998 150.697127 
L 313.42998 142.764723 
L 311.81959 142.764723 
z
" clip-path="url(#pe301dc38fc)" style="fill: #1f77b4"/>
   </g>
   <g id="patch_156">
    <path d="M 313.42998 150.697127 
L 315.040369 150.697127 
L 315.040369 143.304643 
L 313.42998 143.304643 
z
" clip-path="url(#pe301dc38fc)" style="fill: #e377c2"/>
   </g>
   <g id="patch_157">
    <path d="M 315.040369 150.697127 
L 316.650759 150.697127 
L 316.650759 143.413382 
L 315.040369 143.413382 
z
" clip-path="url(#pe301dc38fc)" style="fill: #1f77b4"/>
   </g>
   <g id="patch_158">
    <path d="M 316.650759 150.697127 
L 318.261149 150.697127 
L 318.261149 143.732692 
L 316.650759 143.732692 
z
" clip-path="url(#pe301dc38fc)" style="fill: #d62728"/>
   </g>
   <g id="patch_159">
    <path d="M 318.261149 150.697127 
L 319.871538 150.697127 
L 319.871538 144.462893 
L 318.261149 144.462893 
z
" clip-path="url(#pe301dc38fc)" style="fill: #1f77b4"/>
   </g>
   <g id="patch_160">
    <path d="M 319.871538 150.697127 
L 321.481928 150.697127 
L 321.481928 144.505219 
L 319.871538 144.505219 
z
" clip-path="url(#pe301dc38fc)" style="fill: #1f77b4"/>
   </g>
   <g id="patch_161">
    <path d="M 321.481928 150.697127 
L 323.092317 150.697127 
L 323.092317 144.570205 
L 321.481928 144.570205 
z
" clip-path="url(#pe301dc38fc)" style="fill: #d62728"/>
   </g>
   <g id="patch_162">
    <path d="M 323.092317 150.697127 
L 324.702707 150.697127 
L 324.702707 144.905221 
L 323.092317 144.905221 
z
" clip-path="url(#pe301dc38fc)" style="fill: #1f77b4"/>
   </g>
   <g id="patch_163">
    <path d="M 324.702707 150.697127 
L 326.313097 150.697127 
L 326.313097 145.143074 
L 324.702707 145.143074 
z
" clip-path="url(#pe301dc38fc)" style="fill: #d62728"/>
   </g>
   <g id="patch_164">
    <path d="M 326.313097 150.697127 
L 327.923486 150.697127 
L 327.923486 145.23337 
L 326.313097 145.23337 
z
" clip-path="url(#pe301dc38fc)" style="fill: #e377c2"/>
   </g>
   <g id="patch_165">
    <path d="M 327.923486 150.697127 
L 329.533876 150.697127 
L 329.533876 145.268477 
L 327.923486 145.268477 
z
" clip-path="url(#pe301dc38fc)" style="fill: #d62728"/>
   </g>
   <g id="patch_166">
    <path d="M 329.533876 150.697127 
L 331.144265 150.697127 
L 331.144265 145.452066 
L 329.533876 145.452066 
z
" clip-path="url(#pe301dc38fc)" style="fill: #d62728"/>
   </g>
   <g id="patch_167">
    <path d="M 331.144265 150.697127 
L 332.754655 150.697127 
L 332.754655 145.999734 
L 331.144265 145.999734 
z
" clip-path="url(#pe301dc38fc)" style="fill: #d62728"/>
   </g>
   <g id="patch_168">
    <path d="M 332.754655 150.697127 
L 334.365045 150.697127 
L 334.365045 146.957229 
L 332.754655 146.957229 
z
" clip-path="url(#pe301dc38fc)" style="fill: #d62728"/>
   </g>
   <g id="patch_169">
    <path d="M 334.365045 150.697127 
L 335.975434 150.697127 
L 335.975434 147.164584 
L 334.365045 147.164584 
z
" clip-path="url(#pe301dc38fc)" style="fill: #1f77b4"/>
   </g>
   <g id="patch_170">
    <path d="M 335.975434 150.697127 
L 337.585824 150.697127 
L 337.585824 147.196967 
L 335.975434 147.196967 
z
" clip-path="url(#pe301dc38fc)" style="fill: #1f77b4"/>
   </g>
   <g id="patch_171">
    <path d="M 337.585824 150.697127 
L 339.196213 150.697127 
L 339.196213 147.30818 
L 337.585824 147.30818 
z
" clip-path="url(#pe301dc38fc)" style="fill: #1f77b4"/>
   </g>
   <g id="patch_172">
    <path d="M 339.196213 150.697127 
L 340.806603 150.697127 
L 340.806603 147.527598 
L 339.196213 147.527598 
z
" clip-path="url(#pe301dc38fc)" style="fill: #d62728"/>
   </g>
   <g id="patch_173">
    <path d="M 340.806603 150.697127 
L 342.416993 150.697127 
L 342.416993 147.800644 
L 340.806603 147.800644 
z
" clip-path="url(#pe301dc38fc)" style="fill: #1f77b4"/>
   </g>
   <g id="patch_174">
    <path d="M 342.416993 150.697127 
L 344.027382 150.697127 
L 344.027382 148.208474 
L 342.416993 148.208474 
z
" clip-path="url(#pe301dc38fc)" style="fill: #d62728"/>
   </g>
   <g id="patch_175">
    <path d="M 344.027382 150.697127 
L 345.637772 150.697127 
L 345.637772 148.70277 
L 344.027382 148.70277 
z
" clip-path="url(#pe301dc38fc)" style="fill: #d62728"/>
   </g>
   <g id="patch_176">
    <path d="M 345.637772 150.697127 
L 347.248162 150.697127 
L 347.248162 148.79166 
L 345.637772 148.79166 
z
" clip-path="url(#pe301dc38fc)" style="fill: #d62728"/>
   </g>
   <g id="patch_177">
    <path d="M 347.248162 150.697127 
L 348.858551 150.697127 
L 348.858551 149.532631 
L 347.248162 149.532631 
z
" clip-path="url(#pe301dc38fc)" style="fill: #9467bd"/>
   </g>
   <g id="patch_178">
    <path d="M 348.858551 150.697127 
L 350.468941 150.697127 
L 350.468941 150.65698 
L 348.858551 150.65698 
z
" clip-path="url(#pe301dc38fc)" style="fill: #9467bd"/>
   </g>
   <g id="patch_179">
    <path d="M 350.468941 150.697127 
L 352.07933 150.697127 
L 352.07933 150.972738 
L 350.468941 150.972738 
z
" clip-path="url(#pe301dc38fc)" style="fill: #d62728"/>
   </g>
   <g id="patch_180">
    <path d="M 352.07933 150.697127 
L 353.68972 150.697127 
L 353.68972 151.261199 
L 352.07933 151.261199 
z
" clip-path="url(#pe301dc38fc)" style="fill: #1f77b4"/>
   </g>
   <g id="patch_181">
    <path d="M 353.68972 150.697127 
L 355.30011 150.697127 
L 355.30011 153.220445 
L 353.68972 153.220445 
z
" clip-path="url(#pe301dc38fc)" style="fill: #1f77b4"/>
   </g>
   <g id="patch_182">
    <path d="M 355.30011 150.697127 
L 356.910499 150.697127 
L 356.910499 154.571494 
L 355.30011 154.571494 
z
" clip-path="url(#pe301dc38fc)" style="fill: #9467bd"/>
   </g>
   <g id="patch_183">
    <path d="M 356.910499 150.697127 
L 358.520889 150.697127 
L 358.520889 154.743539 
L 356.910499 154.743539 
z
" clip-path="url(#pe301dc38fc)" style="fill: #d62728"/>
   </g>
   <g id="patch_184">
    <path d="M 358.520889 150.697127 
L 360.131278 150.697127 
L 360.131278 154.801981 
L 358.520889 154.801981 
z
" clip-path="url(#pe301dc38fc)" style="fill: #1f77b4"/>
   </g>
   <g id="patch_185">
    <path d="M 360.131278 150.697127 
L 361.741668 150.697127 
L 361.741668 154.862282 
L 360.131278 154.862282 
z
" clip-path="url(#pe301dc38fc)" style="fill: #d62728"/>
   </g>
   <g id="patch_186">
    <path d="M 361.741668 150.697127 
L 363.352058 150.697127 
L 363.352058 154.924875 
L 361.741668 154.924875 
z
" clip-path="url(#pe301dc38fc)" style="fill: #9467bd"/>
   </g>
   <g id="patch_187">
    <path d="M 363.352058 150.697127 
L 364.962447 150.697127 
L 364.962447 155.15676 
L 363.352058 155.15676 
z
" clip-path="url(#pe301dc38fc)" style="fill: #d62728"/>
   </g>
   <g id="patch_188">
    <path d="M 364.962447 150.697127 
L 366.572837 150.697127 
L 366.572837 161.42944 
L 364.962447 161.42944 
z
" clip-path="url(#pe301dc38fc)" style="fill: #d62728"/>
   </g>
   <g id="patch_189">
    <path d="M 366.572837 150.697127 
L 368.183226 150.697127 
L 368.183226 163.801676 
L 366.572837 163.801676 
z
" clip-path="url(#pe301dc38fc)" style="fill: #9467bd"/>
   </g>
   <g id="patch_190">
    <path d="M 368.183226 150.697127 
L 369.793616 150.697127 
L 369.793616 164.935267 
L 368.183226 164.935267 
z
" clip-path="url(#pe301dc38fc)" style="fill: #9467bd"/>
   </g>
   <g id="patch_191">
    <path d="M 369.793616 150.697127 
L 371.404006 150.697127 
L 371.404006 165.96 
L 369.793616 165.96 
z
" clip-path="url(#pe301dc38fc)" style="fill: #d62728"/>
   </g>
   <g id="line2d_6">
    <path d="M 51.822188 150.697127 
L 386.622187 150.697127 
" clip-path="url(#pe301dc38fc)" style="fill: none; stroke-dasharray: 2.22,0.96; stroke-dashoffset: 0; stroke: #808080; stroke-width: 0.6"/>
   </g>
   <g id="patch_192">
    <path d="M 51.822188 173.52 
L 51.822188 7.2 
" style="fill: none; stroke: #262626; stroke-width: 0.8; stroke-linejoin: miter; stroke-linecap: square"/>
   </g>
   <g id="patch_193">
    <path d="M 386.622187 173.52 
L 386.622187 7.2 
" style="fill: none; stroke: #262626; stroke-width: 0.8; stroke-linejoin: miter; stroke-linecap: square"/>
   </g>
   <g id="patch_194">
    <path d="M 51.822188 173.52 
L 386.622187 173.52 
" style="fill: none; stroke: #262626; stroke-width: 0.8; stroke-linejoin: miter; stroke-linecap: square"/>
   </g>
   <g id="patch_195">
    <path d="M 51.822188 7.2 
L 386.622187 7.2 
" style="fill: none; stroke: #262626; stroke-width: 0.8; stroke-linejoin: miter; stroke-linecap: square"/>
   </g>
   <g id="text_7">
    <!-- * -->
    <g style="fill: #262626" transform="translate(66.677908 155.568115) scale(0.06 -0.06)">
     <defs>
      <path id="ArialMT-2a" d="M 200 3741 
L 344 4184 
Q 841 4009 1066 3881 
Q 1006 4447 1003 4659 
L 1456 4659 
Q 1447 4350 1384 3884 
Q 1706 4047 2122 4184 
L 2266 3741 
Q 1869 3609 1488 3566 
Q 1678 3400 2025 2975 
L 1650 2709 
Q 1469 2956 1222 3381 
Q 991 2941 816 2709 
L 447 2975 
Q 809 3422 966 3566 
Q 563 3644 200 3741 
z
" transform="scale(0.015625)"/>
     </defs>
     <use xlink:href="#ArialMT-2a"/>
    </g>
   </g>
   <g id="text_8">
    <!-- * -->
    <g style="fill: #262626" transform="translate(68.288297 155.568115) scale(0.06 -0.06)">
     <use xlink:href="#ArialMT-2a"/>
    </g>
   </g>
   <g id="text_9">
    <!-- * -->
    <g style="fill: #262626" transform="translate(69.898687 155.568115) scale(0.06 -0.06)">
     <use xlink:href="#ArialMT-2a"/>
    </g>
   </g>
   <g id="text_10">
    <!-- * -->
    <g style="fill: #262626" transform="translate(71.509077 155.568115) scale(0.06 -0.06)">
     <use xlink:href="#ArialMT-2a"/>
    </g>
   </g>
   <g id="text_11">
    <!-- * -->
    <g style="fill: #262626" transform="translate(73.119466 155.568115) scale(0.06 -0.06)">
     <use xlink:href="#ArialMT-2a"/>
    </g>
   </g>
   <g id="text_12">
    <!-- * -->
    <g style="fill: #262626" transform="translate(74.729856 155.568115) scale(0.06 -0.06)">
     <use xlink:href="#ArialMT-2a"/>
    </g>
   </g>
   <g id="text_13">
    <!-- * -->
    <g style="fill: #262626" transform="translate(76.340246 155.568115) scale(0.06 -0.06)">
     <use xlink:href="#ArialMT-2a"/>
    </g>
   </g>
   <g id="text_14">
    <!-- * -->
    <g style="fill: #262626" transform="translate(77.950635 155.568115) scale(0.06 -0.06)">
     <use xlink:href="#ArialMT-2a"/>
    </g>
   </g>
   <g id="text_15">
    <!-- * -->
    <g style="fill: #262626" transform="translate(79.561025 155.568115) scale(0.06 -0.06)">
     <use xlink:href="#ArialMT-2a"/>
    </g>
   </g>
   <g id="text_16">
    <!-- * -->
    <g style="fill: #262626" transform="translate(81.171414 155.568115) scale(0.06 -0.06)">
     <use xlink:href="#ArialMT-2a"/>
    </g>
   </g>
   <g id="text_17">
    <!-- * -->
    <g style="fill: #262626" transform="translate(82.781804 155.568115) scale(0.06 -0.06)">
     <use xlink:href="#ArialMT-2a"/>
    </g>
   </g>
   <g id="text_18">
    <!-- * -->
    <g style="fill: #262626" transform="translate(84.392194 155.568115) scale(0.06 -0.06)">
     <use xlink:href="#ArialMT-2a"/>
    </g>
   </g>
   <g id="text_19">
    <!-- * -->
    <g style="fill: #262626" transform="translate(86.002583 155.568115) scale(0.06 -0.06)">
     <use xlink:href="#ArialMT-2a"/>
    </g>
   </g>
   <g id="text_20">
    <!-- * -->
    <g style="fill: #262626" transform="translate(87.612973 155.568115) scale(0.06 -0.06)">
     <use xlink:href="#ArialMT-2a"/>
    </g>
   </g>
   <g id="text_21">
    <!-- * -->
    <g style="fill: #262626" transform="translate(89.223362 155.568115) scale(0.06 -0.06)">
     <use xlink:href="#ArialMT-2a"/>
    </g>
   </g>
   <g id="text_22">
    <!-- * -->
    <g style="fill: #262626" transform="translate(90.833752 155.568115) scale(0.06 -0.06)">
     <use xlink:href="#ArialMT-2a"/>
    </g>
   </g>
   <g id="text_23">
    <!-- * -->
    <g style="fill: #262626" transform="translate(92.444142 155.568115) scale(0.06 -0.06)">
     <use xlink:href="#ArialMT-2a"/>
    </g>
   </g>
   <g id="text_24">
    <!-- * -->
    <g style="fill: #262626" transform="translate(94.054531 155.568115) scale(0.06 -0.06)">
     <use xlink:href="#ArialMT-2a"/>
    </g>
   </g>
   <g id="text_25">
    <!-- * -->
    <g style="fill: #262626" transform="translate(95.664921 155.568115) scale(0.06 -0.06)">
     <use xlink:href="#ArialMT-2a"/>
    </g>
   </g>
   <g id="text_26">
    <!-- * -->
    <g style="fill: #262626" transform="translate(97.27531 155.568115) scale(0.06 -0.06)">
     <use xlink:href="#ArialMT-2a"/>
    </g>
   </g>
   <g id="text_27">
    <!-- * -->
    <g style="fill: #262626" transform="translate(98.8857 155.568115) scale(0.06 -0.06)">
     <use xlink:href="#ArialMT-2a"/>
    </g>
   </g>
   <g id="text_28">
    <!-- * -->
    <g style="fill: #262626" transform="translate(100.49609 155.568115) scale(0.06 -0.06)">
     <use xlink:href="#ArialMT-2a"/>
    </g>
   </g>
   <g id="text_29">
    <!-- * -->
    <g style="fill: #262626" transform="translate(102.106479 155.568115) scale(0.06 -0.06)">
     <use xlink:href="#ArialMT-2a"/>
    </g>
   </g>
   <g id="text_30">
    <!-- * -->
    <g style="fill: #262626" transform="translate(103.716869 155.568115) scale(0.06 -0.06)">
     <use xlink:href="#ArialMT-2a"/>
    </g>
   </g>
   <g id="text_31">
    <!-- * -->
    <g style="fill: #262626" transform="translate(105.327259 155.568115) scale(0.06 -0.06)">
     <use xlink:href="#ArialMT-2a"/>
    </g>
   </g>
   <g id="text_32">
    <!-- * -->
    <g style="fill: #262626" transform="translate(106.937648 155.568115) scale(0.06 -0.06)">
     <use xlink:href="#ArialMT-2a"/>
    </g>
   </g>
   <g id="text_33">
    <!-- * -->
    <g style="fill: #262626" transform="translate(108.548038 155.568115) scale(0.06 -0.06)">
     <use xlink:href="#ArialMT-2a"/>
    </g>
   </g>
   <g id="text_34">
    <!-- * -->
    <g style="fill: #262626" transform="translate(110.158427 155.568115) scale(0.06 -0.06)">
     <use xlink:href="#ArialMT-2a"/>
    </g>
   </g>
   <g id="text_35">
    <!-- * -->
    <g style="fill: #262626" transform="translate(111.768817 155.568115) scale(0.06 -0.06)">
     <use xlink:href="#ArialMT-2a"/>
    </g>
   </g>
   <g id="text_36">
    <!-- * -->
    <g style="fill: #262626" transform="translate(113.379207 155.568115) scale(0.06 -0.06)">
     <use xlink:href="#ArialMT-2a"/>
    </g>
   </g>
   <g id="text_37">
    <!-- * -->
    <g style="fill: #262626" transform="translate(114.989596 155.568115) scale(0.06 -0.06)">
     <use xlink:href="#ArialMT-2a"/>
    </g>
   </g>
   <g id="text_38">
    <!-- * -->
    <g style="fill: #262626" transform="translate(116.599986 155.568115) scale(0.06 -0.06)">
     <use xlink:href="#ArialMT-2a"/>
    </g>
   </g>
   <g id="text_39">
    <!-- * -->
    <g style="fill: #262626" transform="translate(118.210375 155.568115) scale(0.06 -0.06)">
     <use xlink:href="#ArialMT-2a"/>
    </g>
   </g>
   <g id="text_40">
    <!-- * -->
    <g style="fill: #262626" transform="translate(119.820765 155.568115) scale(0.06 -0.06)">
     <use xlink:href="#ArialMT-2a"/>
    </g>
   </g>
   <g id="text_41">
    <!-- * -->
    <g style="fill: #262626" transform="translate(121.431155 155.568115) scale(0.06 -0.06)">
     <use xlink:href="#ArialMT-2a"/>
    </g>
   </g>
   <g id="text_42">
    <!-- * -->
    <g style="fill: #262626" transform="translate(123.041544 155.568115) scale(0.06 -0.06)">
     <use xlink:href="#ArialMT-2a"/>
    </g>
   </g>
   <g id="text_43">
    <!-- * -->
    <g style="fill: #262626" transform="translate(124.651934 155.568115) scale(0.06 -0.06)">
     <use xlink:href="#ArialMT-2a"/>
    </g>
   </g>
   <g id="text_44">
    <!-- * -->
    <g style="fill: #262626" transform="translate(126.262323 155.568115) scale(0.06 -0.06)">
     <use xlink:href="#ArialMT-2a"/>
    </g>
   </g>
   <g id="text_45">
    <!-- * -->
    <g style="fill: #262626" transform="translate(127.872713 155.568115) scale(0.06 -0.06)">
     <use xlink:href="#ArialMT-2a"/>
    </g>
   </g>
   <g id="text_46">
    <!-- * -->
    <g style="fill: #262626" transform="translate(129.483103 155.568115) scale(0.06 -0.06)">
     <use xlink:href="#ArialMT-2a"/>
    </g>
   </g>
   <g id="text_47">
    <!-- * -->
    <g style="fill: #262626" transform="translate(131.093492 155.568115) scale(0.06 -0.06)">
     <use xlink:href="#ArialMT-2a"/>
    </g>
   </g>
   <g id="text_48">
    <!-- * -->
    <g style="fill: #262626" transform="translate(132.703882 155.568115) scale(0.06 -0.06)">
     <use xlink:href="#ArialMT-2a"/>
    </g>
   </g>
   <g id="text_49">
    <!-- * -->
    <g style="fill: #262626" transform="translate(134.314272 155.568115) scale(0.06 -0.06)">
     <use xlink:href="#ArialMT-2a"/>
    </g>
   </g>
   <g id="text_50">
    <!-- * -->
    <g style="fill: #262626" transform="translate(135.924661 155.568115) scale(0.06 -0.06)">
     <use xlink:href="#ArialMT-2a"/>
    </g>
   </g>
   <g id="text_51">
    <!-- * -->
    <g style="fill: #262626" transform="translate(137.535051 155.568115) scale(0.06 -0.06)">
     <use xlink:href="#ArialMT-2a"/>
    </g>
   </g>
   <g id="text_52">
    <!-- * -->
    <g style="fill: #262626" transform="translate(139.14544 155.568115) scale(0.06 -0.06)">
     <use xlink:href="#ArialMT-2a"/>
    </g>
   </g>
   <g id="text_53">
    <!-- * -->
    <g style="fill: #262626" transform="translate(140.75583 155.568115) scale(0.06 -0.06)">
     <use xlink:href="#ArialMT-2a"/>
    </g>
   </g>
   <g id="text_54">
    <!-- * -->
    <g style="fill: #262626" transform="translate(142.36622 155.568115) scale(0.06 -0.06)">
     <use xlink:href="#ArialMT-2a"/>
    </g>
   </g>
   <g id="text_55">
    <!-- * -->
    <g style="fill: #262626" transform="translate(143.976609 155.568115) scale(0.06 -0.06)">
     <use xlink:href="#ArialMT-2a"/>
    </g>
   </g>
   <g id="text_56">
    <!-- * -->
    <g style="fill: #262626" transform="translate(145.586999 155.568115) scale(0.06 -0.06)">
     <use xlink:href="#ArialMT-2a"/>
    </g>
   </g>
   <g id="text_57">
    <!-- * -->
    <g style="fill: #262626" transform="translate(147.197388 155.568115) scale(0.06 -0.06)">
     <use xlink:href="#ArialMT-2a"/>
    </g>
   </g>
   <g id="text_58">
    <!-- * -->
    <g style="fill: #262626" transform="translate(148.807778 155.568115) scale(0.06 -0.06)">
     <use xlink:href="#ArialMT-2a"/>
    </g>
   </g>
   <g id="text_59">
    <!-- * -->
    <g style="fill: #262626" transform="translate(150.418168 155.568115) scale(0.06 -0.06)">
     <use xlink:href="#ArialMT-2a"/>
    </g>
   </g>
   <g id="text_60">
    <!-- * -->
    <g style="fill: #262626" transform="translate(152.028557 155.568115) scale(0.06 -0.06)">
     <use xlink:href="#ArialMT-2a"/>
    </g>
   </g>
   <g id="text_61">
    <!-- * -->
    <g style="fill: #262626" transform="translate(153.638947 155.568115) scale(0.06 -0.06)">
     <use xlink:href="#ArialMT-2a"/>
    </g>
   </g>
   <g id="text_62">
    <!-- * -->
    <g style="fill: #262626" transform="translate(155.249336 155.568115) scale(0.06 -0.06)">
     <use xlink:href="#ArialMT-2a"/>
    </g>
   </g>
   <g id="text_63">
    <!-- * -->
    <g style="fill: #262626" transform="translate(156.859726 155.568115) scale(0.06 -0.06)">
     <use xlink:href="#ArialMT-2a"/>
    </g>
   </g>
   <g id="text_64">
    <!-- * -->
    <g style="fill: #262626" transform="translate(158.470116 155.568115) scale(0.06 -0.06)">
     <use xlink:href="#ArialMT-2a"/>
    </g>
   </g>
   <g id="text_65">
    <!-- * -->
    <g style="fill: #262626" transform="translate(160.080505 155.568115) scale(0.06 -0.06)">
     <use xlink:href="#ArialMT-2a"/>
    </g>
   </g>
   <g id="text_66">
    <!-- * -->
    <g style="fill: #262626" transform="translate(161.690895 155.568115) scale(0.06 -0.06)">
     <use xlink:href="#ArialMT-2a"/>
    </g>
   </g>
   <g id="text_67">
    <!-- * -->
    <g style="fill: #262626" transform="translate(163.301284 155.568115) scale(0.06 -0.06)">
     <use xlink:href="#ArialMT-2a"/>
    </g>
   </g>
   <g id="text_68">
    <!-- * -->
    <g style="fill: #262626" transform="translate(164.911674 155.568115) scale(0.06 -0.06)">
     <use xlink:href="#ArialMT-2a"/>
    </g>
   </g>
   <g id="text_69">
    <!-- * -->
    <g style="fill: #262626" transform="translate(166.522064 155.568115) scale(0.06 -0.06)">
     <use xlink:href="#ArialMT-2a"/>
    </g>
   </g>
   <g id="text_70">
    <!-- * -->
    <g style="fill: #262626" transform="translate(168.132453 155.568115) scale(0.06 -0.06)">
     <use xlink:href="#ArialMT-2a"/>
    </g>
   </g>
   <g id="text_71">
    <!-- * -->
    <g style="fill: #262626" transform="translate(169.742843 155.568115) scale(0.06 -0.06)">
     <use xlink:href="#ArialMT-2a"/>
    </g>
   </g>
   <g id="text_72">
    <!-- * -->
    <g style="fill: #262626" transform="translate(171.353233 155.568115) scale(0.06 -0.06)">
     <use xlink:href="#ArialMT-2a"/>
    </g>
   </g>
   <g id="text_73">
    <!-- * -->
    <g style="fill: #262626" transform="translate(172.963622 155.568115) scale(0.06 -0.06)">
     <use xlink:href="#ArialMT-2a"/>
    </g>
   </g>
   <g id="text_74">
    <!-- * -->
    <g style="fill: #262626" transform="translate(174.574012 155.568115) scale(0.06 -0.06)">
     <use xlink:href="#ArialMT-2a"/>
    </g>
   </g>
   <g id="text_75">
    <!-- * -->
    <g style="fill: #262626" transform="translate(176.184401 155.568115) scale(0.06 -0.06)">
     <use xlink:href="#ArialMT-2a"/>
    </g>
   </g>
   <g id="text_76">
    <!-- * -->
    <g style="fill: #262626" transform="translate(177.794791 155.568115) scale(0.06 -0.06)">
     <use xlink:href="#ArialMT-2a"/>
    </g>
   </g>
   <g id="text_77">
    <!-- * -->
    <g style="fill: #262626" transform="translate(179.405181 155.568115) scale(0.06 -0.06)">
     <use xlink:href="#ArialMT-2a"/>
    </g>
   </g>
   <g id="text_78">
    <!-- * -->
    <g style="fill: #262626" transform="translate(181.01557 155.568115) scale(0.06 -0.06)">
     <use xlink:href="#ArialMT-2a"/>
    </g>
   </g>
   <g id="text_79">
    <!-- * -->
    <g style="fill: #262626" transform="translate(182.62596 155.568115) scale(0.06 -0.06)">
     <use xlink:href="#ArialMT-2a"/>
    </g>
   </g>
   <g id="text_80">
    <!-- * -->
    <g style="fill: #262626" transform="translate(184.236349 155.568115) scale(0.06 -0.06)">
     <use xlink:href="#ArialMT-2a"/>
    </g>
   </g>
   <g id="text_81">
    <!-- * -->
    <g style="fill: #262626" transform="translate(185.846739 155.568115) scale(0.06 -0.06)">
     <use xlink:href="#ArialMT-2a"/>
    </g>
   </g>
   <g id="text_82">
    <!-- * -->
    <g style="fill: #262626" transform="translate(187.457129 155.568115) scale(0.06 -0.06)">
     <use xlink:href="#ArialMT-2a"/>
    </g>
   </g>
   <g id="text_83">
    <!-- * -->
    <g style="fill: #262626" transform="translate(189.067518 155.568115) scale(0.06 -0.06)">
     <use xlink:href="#ArialMT-2a"/>
    </g>
   </g>
   <g id="text_84">
    <!-- * -->
    <g style="fill: #262626" transform="translate(190.677908 155.568115) scale(0.06 -0.06)">
     <use xlink:href="#ArialMT-2a"/>
    </g>
   </g>
   <g id="text_85">
    <!-- * -->
    <g style="fill: #262626" transform="translate(192.288297 155.568115) scale(0.06 -0.06)">
     <use xlink:href="#ArialMT-2a"/>
    </g>
   </g>
   <g id="text_86">
    <!-- * -->
    <g style="fill: #262626" transform="translate(193.898687 155.568115) scale(0.06 -0.06)">
     <use xlink:href="#ArialMT-2a"/>
    </g>
   </g>
   <g id="text_87">
    <!-- * -->
    <g style="fill: #262626" transform="translate(195.509077 155.568115) scale(0.06 -0.06)">
     <use xlink:href="#ArialMT-2a"/>
    </g>
   </g>
   <g id="text_88">
    <!-- * -->
    <g style="fill: #262626" transform="translate(197.119466 155.568115) scale(0.06 -0.06)">
     <use xlink:href="#ArialMT-2a"/>
    </g>
   </g>
   <g id="text_89">
    <!-- * -->
    <g style="fill: #262626" transform="translate(200.340246 155.568115) scale(0.06 -0.06)">
     <use xlink:href="#ArialMT-2a"/>
    </g>
   </g>
   <g id="text_90">
    <!-- * -->
    <g style="fill: #262626" transform="translate(201.950635 155.568115) scale(0.06 -0.06)">
     <use xlink:href="#ArialMT-2a"/>
    </g>
   </g>
   <g id="text_91">
    <!-- * -->
    <g style="fill: #262626" transform="translate(203.561025 155.568115) scale(0.06 -0.06)">
     <use xlink:href="#ArialMT-2a"/>
    </g>
   </g>
   <g id="text_92">
    <!-- * -->
    <g style="fill: #262626" transform="translate(205.171414 155.568115) scale(0.06 -0.06)">
     <use xlink:href="#ArialMT-2a"/>
    </g>
   </g>
   <g id="text_93">
    <!-- * -->
    <g style="fill: #262626" transform="translate(206.781804 155.568115) scale(0.06 -0.06)">
     <use xlink:href="#ArialMT-2a"/>
    </g>
   </g>
   <g id="text_94">
    <!-- * -->
    <g style="fill: #262626" transform="translate(208.392194 155.568115) scale(0.06 -0.06)">
     <use xlink:href="#ArialMT-2a"/>
    </g>
   </g>
   <g id="text_95">
    <!-- * -->
    <g style="fill: #262626" transform="translate(210.002583 155.568115) scale(0.06 -0.06)">
     <use xlink:href="#ArialMT-2a"/>
    </g>
   </g>
   <g id="text_96">
    <!-- * -->
    <g style="fill: #262626" transform="translate(211.612973 155.568115) scale(0.06 -0.06)">
     <use xlink:href="#ArialMT-2a"/>
    </g>
   </g>
   <g id="text_97">
    <!-- * -->
    <g style="fill: #262626" transform="translate(213.223362 155.568115) scale(0.06 -0.06)">
     <use xlink:href="#ArialMT-2a"/>
    </g>
   </g>
   <g id="text_98">
    <!-- * -->
    <g style="fill: #262626" transform="translate(214.833752 155.568115) scale(0.06 -0.06)">
     <use xlink:href="#ArialMT-2a"/>
    </g>
   </g>
   <g id="text_99">
    <!-- * -->
    <g style="fill: #262626" transform="translate(216.444142 155.568115) scale(0.06 -0.06)">
     <use xlink:href="#ArialMT-2a"/>
    </g>
   </g>
   <g id="text_100">
    <!-- * -->
    <g style="fill: #262626" transform="translate(218.054531 155.568115) scale(0.06 -0.06)">
     <use xlink:href="#ArialMT-2a"/>
    </g>
   </g>
   <g id="text_101">
    <!-- * -->
    <g style="fill: #262626" transform="translate(219.664921 155.568115) scale(0.06 -0.06)">
     <use xlink:href="#ArialMT-2a"/>
    </g>
   </g>
   <g id="text_102">
    <!-- * -->
    <g style="fill: #262626" transform="translate(221.27531 155.568115) scale(0.06 -0.06)">
     <use xlink:href="#ArialMT-2a"/>
    </g>
   </g>
   <g id="text_103">
    <!-- * -->
    <g style="fill: #262626" transform="translate(222.8857 155.568115) scale(0.06 -0.06)">
     <use xlink:href="#ArialMT-2a"/>
    </g>
   </g>
   <g id="text_104">
    <!-- * -->
    <g style="fill: #262626" transform="translate(224.49609 155.568115) scale(0.06 -0.06)">
     <use xlink:href="#ArialMT-2a"/>
    </g>
   </g>
   <g id="text_105">
    <!-- * -->
    <g style="fill: #262626" transform="translate(226.106479 155.568115) scale(0.06 -0.06)">
     <use xlink:href="#ArialMT-2a"/>
    </g>
   </g>
   <g id="text_106">
    <!-- * -->
    <g style="fill: #262626" transform="translate(227.716869 155.568115) scale(0.06 -0.06)">
     <use xlink:href="#ArialMT-2a"/>
    </g>
   </g>
   <g id="text_107">
    <!-- * -->
    <g style="fill: #262626" transform="translate(229.327259 155.568115) scale(0.06 -0.06)">
     <use xlink:href="#ArialMT-2a"/>
    </g>
   </g>
   <g id="text_108">
    <!-- * -->
    <g style="fill: #262626" transform="translate(230.937648 155.568115) scale(0.06 -0.06)">
     <use xlink:href="#ArialMT-2a"/>
    </g>
   </g>
   <g id="text_109">
    <!-- * -->
    <g style="fill: #262626" transform="translate(232.548038 155.568115) scale(0.06 -0.06)">
     <use xlink:href="#ArialMT-2a"/>
    </g>
   </g>
   <g id="text_110">
    <!-- * -->
    <g style="fill: #262626" transform="translate(235.768817 155.568115) scale(0.06 -0.06)">
     <use xlink:href="#ArialMT-2a"/>
    </g>
   </g>
   <g id="text_111">
    <!-- * -->
    <g style="fill: #262626" transform="translate(237.379207 155.568115) scale(0.06 -0.06)">
     <use xlink:href="#ArialMT-2a"/>
    </g>
   </g>
   <g id="text_112">
    <!-- * -->
    <g style="fill: #262626" transform="translate(238.989596 155.568115) scale(0.06 -0.06)">
     <use xlink:href="#ArialMT-2a"/>
    </g>
   </g>
   <g id="text_113">
    <!-- * -->
    <g style="fill: #262626" transform="translate(240.599986 155.568115) scale(0.06 -0.06)">
     <use xlink:href="#ArialMT-2a"/>
    </g>
   </g>
   <g id="text_114">
    <!-- * -->
    <g style="fill: #262626" transform="translate(242.210375 155.568115) scale(0.06 -0.06)">
     <use xlink:href="#ArialMT-2a"/>
    </g>
   </g>
   <g id="text_115">
    <!-- * -->
    <g style="fill: #262626" transform="translate(243.820765 155.568115) scale(0.06 -0.06)">
     <use xlink:href="#ArialMT-2a"/>
    </g>
   </g>
   <g id="text_116">
    <!-- * -->
    <g style="fill: #262626" transform="translate(245.431155 155.568115) scale(0.06 -0.06)">
     <use xlink:href="#ArialMT-2a"/>
    </g>
   </g>
   <g id="text_117">
    <!-- * -->
    <g style="fill: #262626" transform="translate(247.041544 155.568115) scale(0.06 -0.06)">
     <use xlink:href="#ArialMT-2a"/>
    </g>
   </g>
   <g id="text_118">
    <!-- * -->
    <g style="fill: #262626" transform="translate(248.651934 155.568115) scale(0.06 -0.06)">
     <use xlink:href="#ArialMT-2a"/>
    </g>
   </g>
   <g id="text_119">
    <!-- * -->
    <g style="fill: #262626" transform="translate(250.262323 155.568115) scale(0.06 -0.06)">
     <use xlink:href="#ArialMT-2a"/>
    </g>
   </g>
   <g id="text_120">
    <!-- * -->
    <g style="fill: #262626" transform="translate(251.872713 155.568115) scale(0.06 -0.06)">
     <use xlink:href="#ArialMT-2a"/>
    </g>
   </g>
   <g id="text_121">
    <!-- * -->
    <g style="fill: #262626" transform="translate(253.483103 155.568115) scale(0.06 -0.06)">
     <use xlink:href="#ArialMT-2a"/>
    </g>
   </g>
   <g id="text_122">
    <!-- * -->
    <g style="fill: #262626" transform="translate(256.703882 155.568115) scale(0.06 -0.06)">
     <use xlink:href="#ArialMT-2a"/>
    </g>
   </g>
   <g id="text_123">
    <!-- * -->
    <g style="fill: #262626" transform="translate(259.924661 155.568115) scale(0.06 -0.06)">
     <use xlink:href="#ArialMT-2a"/>
    </g>
   </g>
   <g id="text_124">
    <!-- * -->
    <g style="fill: #262626" transform="translate(261.535051 155.568115) scale(0.06 -0.06)">
     <use xlink:href="#ArialMT-2a"/>
    </g>
   </g>
   <g id="text_125">
    <!-- * -->
    <g style="fill: #262626" transform="translate(263.14544 155.568115) scale(0.06 -0.06)">
     <use xlink:href="#ArialMT-2a"/>
    </g>
   </g>
   <g id="text_126">
    <!-- * -->
    <g style="fill: #262626" transform="translate(266.36622 155.568115) scale(0.06 -0.06)">
     <use xlink:href="#ArialMT-2a"/>
    </g>
   </g>
   <g id="text_127">
    <!-- * -->
    <g style="fill: #262626" transform="translate(267.976609 155.568115) scale(0.06 -0.06)">
     <use xlink:href="#ArialMT-2a"/>
    </g>
   </g>
   <g id="text_128">
    <!-- * -->
    <g style="fill: #262626" transform="translate(271.197388 155.568115) scale(0.06 -0.06)">
     <use xlink:href="#ArialMT-2a"/>
    </g>
   </g>
   <g id="text_129">
    <!-- * -->
    <g style="fill: #262626" transform="translate(272.807778 155.568115) scale(0.06 -0.06)">
     <use xlink:href="#ArialMT-2a"/>
    </g>
   </g>
   <g id="text_130">
    <!-- * -->
    <g style="fill: #262626" transform="translate(274.418168 155.568115) scale(0.06 -0.06)">
     <use xlink:href="#ArialMT-2a"/>
    </g>
   </g>
   <g id="text_131">
    <!-- * -->
    <g style="fill: #262626" transform="translate(276.028557 155.568115) scale(0.06 -0.06)">
     <use xlink:href="#ArialMT-2a"/>
    </g>
   </g>
   <g id="text_132">
    <!-- * -->
    <g style="fill: #262626" transform="translate(277.638947 155.568115) scale(0.06 -0.06)">
     <use xlink:href="#ArialMT-2a"/>
    </g>
   </g>
   <g id="text_133">
    <!-- * -->
    <g style="fill: #262626" transform="translate(279.249336 155.568115) scale(0.06 -0.06)">
     <use xlink:href="#ArialMT-2a"/>
    </g>
   </g>
   <g id="text_134">
    <!-- * -->
    <g style="fill: #262626" transform="translate(280.859726 155.568115) scale(0.06 -0.06)">
     <use xlink:href="#ArialMT-2a"/>
    </g>
   </g>
   <g id="text_135">
    <!-- * -->
    <g style="fill: #262626" transform="translate(282.470116 155.568115) scale(0.06 -0.06)">
     <use xlink:href="#ArialMT-2a"/>
    </g>
   </g>
   <g id="text_136">
    <!-- * -->
    <g style="fill: #262626" transform="translate(285.690895 155.568115) scale(0.06 -0.06)">
     <use xlink:href="#ArialMT-2a"/>
    </g>
   </g>
   <g id="text_137">
    <!-- * -->
    <g style="fill: #262626" transform="translate(288.911674 155.568115) scale(0.06 -0.06)">
     <use xlink:href="#ArialMT-2a"/>
    </g>
   </g>
   <g id="text_138">
    <!-- * -->
    <g style="fill: #262626" transform="translate(292.132453 155.568115) scale(0.06 -0.06)">
     <use xlink:href="#ArialMT-2a"/>
    </g>
   </g>
   <g id="text_139">
    <!-- * -->
    <g style="fill: #262626" transform="translate(295.353233 155.568115) scale(0.06 -0.06)">
     <use xlink:href="#ArialMT-2a"/>
    </g>
   </g>
   <g id="text_140">
    <!-- * -->
    <g style="fill: #262626" transform="translate(296.963622 155.568115) scale(0.06 -0.06)">
     <use xlink:href="#ArialMT-2a"/>
    </g>
   </g>
   <g id="text_141">
    <!-- * -->
    <g style="fill: #262626" transform="translate(300.184401 155.568115) scale(0.06 -0.06)">
     <use xlink:href="#ArialMT-2a"/>
    </g>
   </g>
   <g id="text_142">
    <!-- * -->
    <g style="fill: #262626" transform="translate(303.405181 155.568115) scale(0.06 -0.06)">
     <use xlink:href="#ArialMT-2a"/>
    </g>
   </g>
   <g id="text_143">
    <!-- * -->
    <g style="fill: #262626" transform="translate(305.01557 155.568115) scale(0.06 -0.06)">
     <use xlink:href="#ArialMT-2a"/>
    </g>
   </g>
   <g id="text_144">
    <!-- * -->
    <g style="fill: #262626" transform="translate(306.62596 155.568115) scale(0.06 -0.06)">
     <use xlink:href="#ArialMT-2a"/>
    </g>
   </g>
   <g id="text_145">
    <!-- * -->
    <g style="fill: #262626" transform="translate(308.236349 155.568115) scale(0.06 -0.06)">
     <use xlink:href="#ArialMT-2a"/>
    </g>
   </g>
   <g id="text_146">
    <!-- * -->
    <g style="fill: #262626" transform="translate(313.067518 155.568115) scale(0.06 -0.06)">
     <use xlink:href="#ArialMT-2a"/>
    </g>
   </g>
   <g id="text_147">
    <!-- * -->
    <g style="fill: #262626" transform="translate(314.677908 155.568115) scale(0.06 -0.06)">
     <use xlink:href="#ArialMT-2a"/>
    </g>
   </g>
   <g id="text_148">
    <!-- * -->
    <g style="fill: #262626" transform="translate(322.729856 155.568115) scale(0.06 -0.06)">
     <use xlink:href="#ArialMT-2a"/>
    </g>
   </g>
   <g id="text_149">
    <!-- * -->
    <g style="fill: #262626" transform="translate(324.340246 155.568115) scale(0.06 -0.06)">
     <use xlink:href="#ArialMT-2a"/>
    </g>
   </g>
   <g id="text_150">
    <!-- * -->
    <g style="fill: #262626" transform="translate(329.171414 155.568115) scale(0.06 -0.06)">
     <use xlink:href="#ArialMT-2a"/>
    </g>
   </g>
   <g id="text_151">
    <!-- * -->
    <g style="fill: #262626" transform="translate(338.833752 155.568115) scale(0.06 -0.06)">
     <use xlink:href="#ArialMT-2a"/>
    </g>
   </g>
   <g id="legend_1">
    <g id="patch_196">
     <path d="M 308.001563 78.264844 
L 380.322187 78.264844 
Q 382.122187 78.264844 382.122187 76.464844 
L 382.122187 13.5 
Q 382.122187 11.7 380.322187 11.7 
L 308.001563 11.7 
Q 306.201563 11.7 306.201563 13.5 
L 306.201563 76.464844 
Q 306.201563 78.264844 308.001563 78.264844 
z
" style="fill: #ffffff; opacity: 0.8; stroke: #cccccc; stroke-linejoin: miter"/>
    </g>
    <g id="patch_197">
     <path d="M 309.801563 21.742031 
L 327.801563 21.742031 
L 327.801563 15.442031 
L 309.801563 15.442031 
z
" style="fill: #1f77b4"/>
    </g>
    <g id="text_152">
     <!-- Regulatory -->
     <g style="fill: #262626" transform="translate(335.001563 21.742031) scale(0.09 -0.09)">
      <defs>
       <path id="ArialMT-52" d="M 503 0 
L 503 4581 
L 2534 4581 
Q 3147 4581 3465 4457 
Q 3784 4334 3975 4021 
Q 4166 3709 4166 3331 
Q 4166 2844 3850 2509 
Q 3534 2175 2875 2084 
Q 3116 1969 3241 1856 
Q 3506 1613 3744 1247 
L 4541 0 
L 3778 0 
L 3172 953 
Q 2906 1366 2734 1584 
Q 2563 1803 2427 1890 
Q 2291 1978 2150 2013 
Q 2047 2034 1813 2034 
L 1109 2034 
L 1109 0 
L 503 0 
z
M 1109 2559 
L 2413 2559 
Q 2828 2559 3062 2645 
Q 3297 2731 3419 2920 
Q 3541 3109 3541 3331 
Q 3541 3656 3305 3865 
Q 3069 4075 2559 4075 
L 1109 4075 
L 1109 2559 
z
" transform="scale(0.015625)"/>
       <path id="ArialMT-67" d="M 319 -275 
L 866 -356 
Q 900 -609 1056 -725 
Q 1266 -881 1628 -881 
Q 2019 -881 2231 -725 
Q 2444 -569 2519 -288 
Q 2563 -116 2559 434 
Q 2191 0 1641 0 
Q 956 0 581 494 
Q 206 988 206 1678 
Q 206 2153 378 2554 
Q 550 2956 876 3175 
Q 1203 3394 1644 3394 
Q 2231 3394 2613 2919 
L 2613 3319 
L 3131 3319 
L 3131 450 
Q 3131 -325 2973 -648 
Q 2816 -972 2473 -1159 
Q 2131 -1347 1631 -1347 
Q 1038 -1347 672 -1080 
Q 306 -813 319 -275 
z
M 784 1719 
Q 784 1066 1043 766 
Q 1303 466 1694 466 
Q 2081 466 2343 764 
Q 2606 1063 2606 1700 
Q 2606 2309 2336 2618 
Q 2066 2928 1684 2928 
Q 1309 2928 1046 2623 
Q 784 2319 784 1719 
z
" transform="scale(0.015625)"/>
       <path id="ArialMT-75" d="M 2597 0 
L 2597 488 
Q 2209 -75 1544 -75 
Q 1250 -75 995 37 
Q 741 150 617 320 
Q 494 491 444 738 
Q 409 903 409 1263 
L 409 3319 
L 972 3319 
L 972 1478 
Q 972 1038 1006 884 
Q 1059 663 1231 536 
Q 1403 409 1656 409 
Q 1909 409 2131 539 
Q 2353 669 2445 892 
Q 2538 1116 2538 1541 
L 2538 3319 
L 3100 3319 
L 3100 0 
L 2597 0 
z
" transform="scale(0.015625)"/>
       <path id="ArialMT-79" d="M 397 -1278 
L 334 -750 
Q 519 -800 656 -800 
Q 844 -800 956 -737 
Q 1069 -675 1141 -563 
Q 1194 -478 1313 -144 
Q 1328 -97 1363 -6 
L 103 3319 
L 709 3319 
L 1400 1397 
Q 1534 1031 1641 628 
Q 1738 1016 1872 1384 
L 2581 3319 
L 3144 3319 
L 1881 -56 
Q 1678 -603 1566 -809 
Q 1416 -1088 1222 -1217 
Q 1028 -1347 759 -1347 
Q 597 -1347 397 -1278 
z
" transform="scale(0.015625)"/>
      </defs>
      <use xlink:href="#ArialMT-52"/>
      <use xlink:href="#ArialMT-65" x="72.216797"/>
      <use xlink:href="#ArialMT-67" x="127.832031"/>
      <use xlink:href="#ArialMT-75" x="183.447266"/>
      <use xlink:href="#ArialMT-6c" x="239.0625"/>
      <use xlink:href="#ArialMT-61" x="261.279297"/>
      <use xlink:href="#ArialMT-74" x="316.894531"/>
      <use xlink:href="#ArialMT-6f" x="344.677734"/>
      <use xlink:href="#ArialMT-72" x="400.292969"/>
      <use xlink:href="#ArialMT-79" x="433.59375"/>
     </g>
    </g>
    <g id="patch_198">
     <path d="M 309.801563 34.578281 
L 327.801563 34.578281 
L 327.801563 28.278281 
L 309.801563 28.278281 
z
" style="fill: #d62728"/>
    </g>
    <g id="text_153">
     <!-- Genomic -->
     <g style="fill: #262626" transform="translate(335.001563 34.578281) scale(0.09 -0.09)">
      <defs>
       <path id="ArialMT-6d" d="M 422 0 
L 422 3319 
L 925 3319 
L 925 2853 
Q 1081 3097 1340 3245 
Q 1600 3394 1931 3394 
Q 2300 3394 2536 3241 
Q 2772 3088 2869 2813 
Q 3263 3394 3894 3394 
Q 4388 3394 4653 3120 
Q 4919 2847 4919 2278 
L 4919 0 
L 4359 0 
L 4359 2091 
Q 4359 2428 4304 2576 
Q 4250 2725 4106 2815 
Q 3963 2906 3769 2906 
Q 3419 2906 3187 2673 
Q 2956 2441 2956 1928 
L 2956 0 
L 2394 0 
L 2394 2156 
Q 2394 2531 2256 2718 
Q 2119 2906 1806 2906 
Q 1569 2906 1367 2781 
Q 1166 2656 1075 2415 
Q 984 2175 984 1722 
L 984 0 
L 422 0 
z
" transform="scale(0.015625)"/>
       <path id="ArialMT-63" d="M 2588 1216 
L 3141 1144 
Q 3050 572 2676 248 
Q 2303 -75 1759 -75 
Q 1078 -75 664 370 
Q 250 816 250 1647 
Q 250 2184 428 2587 
Q 606 2991 970 3192 
Q 1334 3394 1763 3394 
Q 2303 3394 2647 3120 
Q 2991 2847 3088 2344 
L 2541 2259 
Q 2463 2594 2264 2762 
Q 2066 2931 1784 2931 
Q 1359 2931 1093 2626 
Q 828 2322 828 1663 
Q 828 994 1084 691 
Q 1341 388 1753 388 
Q 2084 388 2306 591 
Q 2528 794 2588 1216 
z
" transform="scale(0.015625)"/>
      </defs>
      <use xlink:href="#ArialMT-47"/>
      <use xlink:href="#ArialMT-65" x="77.783203"/>
      <use xlink:href="#ArialMT-6e" x="133.398438"/>
      <use xlink:href="#ArialMT-6f" x="189.013672"/>
      <use xlink:href="#ArialMT-6d" x="244.628906"/>
      <use xlink:href="#ArialMT-69" x="327.929688"/>
      <use xlink:href="#ArialMT-63" x="350.146484"/>
     </g>
    </g>
    <g id="patch_199">
     <path d="M 309.801563 47.309063 
L 327.801563 47.309063 
L 327.801563 41.009063 
L 309.801563 41.009063 
z
" style="fill: #9467bd"/>
    </g>
    <g id="text_154">
     <!-- Technical -->
     <g style="fill: #262626" transform="translate(335.001563 47.309063) scale(0.09 -0.09)">
      <defs>
       <path id="ArialMT-54" d="M 1659 0 
L 1659 4041 
L 150 4041 
L 150 4581 
L 3781 4581 
L 3781 4041 
L 2266 4041 
L 2266 0 
L 1659 0 
z
" transform="scale(0.015625)"/>
      </defs>
      <use xlink:href="#ArialMT-54"/>
      <use xlink:href="#ArialMT-65" x="49.958984"/>
      <use xlink:href="#ArialMT-63" x="105.574219"/>
      <use xlink:href="#ArialMT-68" x="155.574219"/>
      <use xlink:href="#ArialMT-6e" x="211.189453"/>
      <use xlink:href="#ArialMT-69" x="266.804688"/>
      <use xlink:href="#ArialMT-63" x="289.021484"/>
      <use xlink:href="#ArialMT-61" x="339.021484"/>
      <use xlink:href="#ArialMT-6c" x="394.636719"/>
     </g>
    </g>
    <g id="patch_200">
     <path d="M 309.801563 60.039844 
L 327.801563 60.039844 
L 327.801563 53.739844 
L 309.801563 53.739844 
z
" style="fill: #e377c2"/>
    </g>
    <g id="text_155">
     <!-- Biological -->
     <g style="fill: #262626" transform="translate(335.001563 60.039844) scale(0.09 -0.09)">
      <use xlink:href="#ArialMT-42"/>
      <use xlink:href="#ArialMT-69" x="66.699219"/>
      <use xlink:href="#ArialMT-6f" x="88.916016"/>
      <use xlink:href="#ArialMT-6c" x="144.53125"/>
      <use xlink:href="#ArialMT-6f" x="166.748047"/>
      <use xlink:href="#ArialMT-67" x="222.363281"/>
      <use xlink:href="#ArialMT-69" x="277.978516"/>
      <use xlink:href="#ArialMT-63" x="300.195312"/>
      <use xlink:href="#ArialMT-61" x="350.195312"/>
      <use xlink:href="#ArialMT-6c" x="405.810547"/>
     </g>
    </g>
    <g id="patch_201">
     <path d="M 309.801563 72.876094 
L 327.801563 72.876094 
L 327.801563 66.576094 
L 309.801563 66.576094 
z
" style="fill: #6a5acd"/>
    </g>
    <g id="text_156">
     <!-- Unknown -->
     <g style="fill: #262626" transform="translate(335.001563 72.876094) scale(0.09 -0.09)">
      <defs>
       <path id="ArialMT-55" d="M 3500 4581 
L 4106 4581 
L 4106 1934 
Q 4106 1244 3950 837 
Q 3794 431 3386 176 
Q 2978 -78 2316 -78 
Q 1672 -78 1262 144 
Q 853 366 678 786 
Q 503 1206 503 1934 
L 503 4581 
L 1109 4581 
L 1109 1938 
Q 1109 1341 1220 1058 
Q 1331 775 1601 622 
Q 1872 469 2263 469 
Q 2931 469 3215 772 
Q 3500 1075 3500 1938 
L 3500 4581 
z
" transform="scale(0.015625)"/>
       <path id="ArialMT-6b" d="M 425 0 
L 425 4581 
L 988 4581 
L 988 1969 
L 2319 3319 
L 3047 3319 
L 1778 2088 
L 3175 0 
L 2481 0 
L 1384 1697 
L 988 1316 
L 988 0 
L 425 0 
z
" transform="scale(0.015625)"/>
       <path id="ArialMT-77" d="M 1034 0 
L 19 3319 
L 600 3319 
L 1128 1403 
L 1325 691 
Q 1338 744 1497 1375 
L 2025 3319 
L 2603 3319 
L 3100 1394 
L 3266 759 
L 3456 1400 
L 4025 3319 
L 4572 3319 
L 3534 0 
L 2950 0 
L 2422 1988 
L 2294 2553 
L 1622 0 
L 1034 0 
z
" transform="scale(0.015625)"/>
      </defs>
      <use xlink:href="#ArialMT-55"/>
      <use xlink:href="#ArialMT-6e" x="72.216797"/>
      <use xlink:href="#ArialMT-6b" x="127.832031"/>
      <use xlink:href="#ArialMT-6e" x="177.832031"/>
      <use xlink:href="#ArialMT-6f" x="233.447266"/>
      <use xlink:href="#ArialMT-77" x="289.0625"/>
      <use xlink:href="#ArialMT-6e" x="361.279297"/>
     </g>
    </g>
   </g>
  </g>
 </g>
 <defs>
  <clipPath id="pe301dc38fc">
   <rect x="51.822188" y="7.2" width="334.8" height="166.32"/>
  </clipPath>
 </defs>
</svg>
