<?xml version="1.0" encoding="utf-8" standalone="no"?>
<!DOCTYPE svg PUBLIC "-//W3C//DTD SVG 1.1//EN"
  "http://www.w3.org/Graphics/SVG/1.1/DTD/svg11.dtd">
<svg xmlns:xlink="http://www.w3.org/1999/xlink" width="288.393312pt" height="199.023625pt" viewBox="0 0 288.393312 199.023625" xmlns="http://www.w3.org/2000/svg" version="1.1">
 <metadata>
  <rdf:RDF xmlns:dc="http://purl.org/dc/elements/1.1/" xmlns:cc="http://creativecommons.org/ns#" xmlns:rdf="http://www.w3.org/1999/02/22-rdf-syntax-ns#">
   <cc:Work>
    <dc:type rdf:resource="http://purl.org/dc/dcmitype/StillImage"/>
    <dc:date>2022-10-06T14:36:32.719392</dc:date>
    <dc:format>image/svg+xml</dc:format>
    <dc:creator>
     <cc:Agent>
      <dc:title>Matplotlib v3.5.1, https://matplotlib.org/</dc:title>
     </cc:Agent>
    </dc:creator>
   </cc:Work>
  </rdf:RDF>
 </metadata>
 <defs>
  <style type="text/css">*{stroke-linejoin: round; stroke-linecap: butt}</style>
 </defs>
 <g id="figure_1">
  <g id="patch_1">
   <path d="M 0 199.023625 
L 288.393312 199.023625 
L 288.393312 0 
L 0 0 
L 0 199.023625 
z
" style="fill: none"/>
  </g>
  <g id="axes_1">
   <g id="patch_2">
    <path d="M 57.993313 170.28 
L 281.193312 170.28 
L 281.193312 7.2 
L 57.993313 7.2 
z
" style="fill: #ffffff"/>
   </g>
   <g id="patch_3">
    <path d="M 95.193313 145.984743 
L 119.993313 145.984743 
L 119.993313 27.521561 
L 95.193313 27.521561 
z
" clip-path="url(#p4e813dfb04)" style="fill: #d62728"/>
   </g>
   <g id="patch_4">
    <path d="M 119.993313 145.984743 
L 144.793313 145.984743 
L 144.793313 52.476911 
L 119.993313 52.476911 
z
" clip-path="url(#p4e813dfb04)" style="fill: #ff7f0e"/>
   </g>
   <g id="patch_5">
    <path d="M 144.793313 145.984743 
L 169.593313 145.984743 
L 169.593313 91.827062 
L 144.793313 91.827062 
z
" clip-path="url(#p4e813dfb04)" style="fill: #2ca02c"/>
   </g>
   <g id="patch_6">
    <path d="M 169.593312 145.984743 
L 194.393312 145.984743 
L 194.393312 129.780317 
L 169.593312 129.780317 
z
" clip-path="url(#p4e813dfb04)" style="fill: #9467bd"/>
   </g>
   <g id="patch_7">
    <path d="M 194.393312 145.984743 
L 219.193312 145.984743 
L 219.193312 153.25253 
L 194.393312 153.25253 
z
" clip-path="url(#p4e813dfb04)" style="fill: #8c564b"/>
   </g>
   <g id="patch_8">
    <path d="M 219.193312 145.984743 
L 243.993313 145.984743 
L 243.993313 151.60145 
L 219.193312 151.60145 
z
" clip-path="url(#p4e813dfb04)" style="fill: #e377c2"/>
   </g>
   <g id="matplotlib.axis_1"/>
   <g id="matplotlib.axis_2">
    <g id="ytick_1">
     <g id="line2d_1">
      <defs>
       <path id="m0787772d35" d="M 0 0 
L -3.5 0 
" style="stroke: #000000; stroke-width: 0.8"/>
      </defs>
      <g>
       <use xlink:href="#m0787772d35" x="57.993313" y="167.609567" style="stroke: #000000; stroke-width: 0.8"/>
      </g>
     </g>
     <g id="text_1">
      <!-- −2 -->
      <g transform="translate(36.251125 171.408786)scale(0.1 -0.1)">
       <defs>
        <path id="DejaVuSans-2212" d="M 678 2272 
L 4684 2272 
L 4684 1741 
L 678 1741 
L 678 2272 
z
" transform="scale(0.015625)"/>
        <path id="DejaVuSans-32" d="M 1228 531 
L 3431 531 
L 3431 0 
L 469 0 
L 469 531 
Q 828 903 1448 1529 
Q 2069 2156 2228 2338 
Q 2531 2678 2651 2914 
Q 2772 3150 2772 3378 
Q 2772 3750 2511 3984 
Q 2250 4219 1831 4219 
Q 1534 4219 1204 4116 
Q 875 4013 500 3803 
L 500 4441 
Q 881 4594 1212 4672 
Q 1544 4750 1819 4750 
Q 2544 4750 2975 4387 
Q 3406 4025 3406 3419 
Q 3406 3131 3298 2873 
Q 3191 2616 2906 2266 
Q 2828 2175 2409 1742 
Q 1991 1309 1228 531 
z
" transform="scale(0.015625)"/>
       </defs>
       <use xlink:href="#DejaVuSans-2212"/>
       <use xlink:href="#DejaVuSans-32" x="83.789062"/>
      </g>
     </g>
    </g>
    <g id="ytick_2">
     <g id="line2d_2">
      <g>
       <use xlink:href="#m0787772d35" x="57.993313" y="145.984743" style="stroke: #000000; stroke-width: 0.8"/>
      </g>
     </g>
     <g id="text_2">
      <!-- 0 -->
      <g transform="translate(44.630813 149.783961)scale(0.1 -0.1)">
       <defs>
        <path id="DejaVuSans-30" d="M 2034 4250 
Q 1547 4250 1301 3770 
Q 1056 3291 1056 2328 
Q 1056 1369 1301 889 
Q 1547 409 2034 409 
Q 2525 409 2770 889 
Q 3016 1369 3016 2328 
Q 3016 3291 2770 3770 
Q 2525 4250 2034 4250 
z
M 2034 4750 
Q 2819 4750 3233 4129 
Q 3647 3509 3647 2328 
Q 3647 1150 3233 529 
Q 2819 -91 2034 -91 
Q 1250 -91 836 529 
Q 422 1150 422 2328 
Q 422 3509 836 4129 
Q 1250 4750 2034 4750 
z
" transform="scale(0.015625)"/>
       </defs>
       <use xlink:href="#DejaVuSans-30"/>
      </g>
     </g>
    </g>
    <g id="ytick_3">
     <g id="line2d_3">
      <g>
       <use xlink:href="#m0787772d35" x="57.993313" y="124.359918" style="stroke: #000000; stroke-width: 0.8"/>
      </g>
     </g>
     <g id="text_3">
      <!-- 2 -->
      <g transform="translate(44.630813 128.159137)scale(0.1 -0.1)">
       <use xlink:href="#DejaVuSans-32"/>
      </g>
     </g>
    </g>
    <g id="ytick_4">
     <g id="line2d_4">
      <g>
       <use xlink:href="#m0787772d35" x="57.993313" y="102.735094" style="stroke: #000000; stroke-width: 0.8"/>
      </g>
     </g>
     <g id="text_4">
      <!-- 4 -->
      <g transform="translate(44.630813 106.534312)scale(0.1 -0.1)">
       <defs>
        <path id="DejaVuSans-34" d="M 2419 4116 
L 825 1625 
L 2419 1625 
L 2419 4116 
z
M 2253 4666 
L 3047 4666 
L 3047 1625 
L 3713 1625 
L 3713 1100 
L 3047 1100 
L 3047 0 
L 2419 0 
L 2419 1100 
L 313 1100 
L 313 1709 
L 2253 4666 
z
" transform="scale(0.015625)"/>
       </defs>
       <use xlink:href="#DejaVuSans-34"/>
      </g>
     </g>
    </g>
    <g id="ytick_5">
     <g id="line2d_5">
      <g>
       <use xlink:href="#m0787772d35" x="57.993313" y="81.110269" style="stroke: #000000; stroke-width: 0.8"/>
      </g>
     </g>
     <g id="text_5">
      <!-- 6 -->
      <g transform="translate(44.630813 84.909488)scale(0.1 -0.1)">
       <defs>
        <path id="DejaVuSans-36" d="M 2113 2584 
Q 1688 2584 1439 2293 
Q 1191 2003 1191 1497 
Q 1191 994 1439 701 
Q 1688 409 2113 409 
Q 2538 409 2786 701 
Q 3034 994 3034 1497 
Q 3034 2003 2786 2293 
Q 2538 2584 2113 2584 
z
M 3366 4563 
L 3366 3988 
Q 3128 4100 2886 4159 
Q 2644 4219 2406 4219 
Q 1781 4219 1451 3797 
Q 1122 3375 1075 2522 
Q 1259 2794 1537 2939 
Q 1816 3084 2150 3084 
Q 2853 3084 3261 2657 
Q 3669 2231 3669 1497 
Q 3669 778 3244 343 
Q 2819 -91 2113 -91 
Q 1303 -91 875 529 
Q 447 1150 447 2328 
Q 447 3434 972 4092 
Q 1497 4750 2381 4750 
Q 2619 4750 2861 4703 
Q 3103 4656 3366 4563 
z
" transform="scale(0.015625)"/>
       </defs>
       <use xlink:href="#DejaVuSans-36"/>
      </g>
     </g>
    </g>
    <g id="ytick_6">
     <g id="line2d_6">
      <g>
       <use xlink:href="#m0787772d35" x="57.993313" y="59.485444" style="stroke: #000000; stroke-width: 0.8"/>
      </g>
     </g>
     <g id="text_6">
      <!-- 8 -->
      <g transform="translate(44.630813 63.284663)scale(0.1 -0.1)">
       <defs>
        <path id="DejaVuSans-38" d="M 2034 2216 
Q 1584 2216 1326 1975 
Q 1069 1734 1069 1313 
Q 1069 891 1326 650 
Q 1584 409 2034 409 
Q 2484 409 2743 651 
Q 3003 894 3003 1313 
Q 3003 1734 2745 1975 
Q 2488 2216 2034 2216 
z
M 1403 2484 
Q 997 2584 770 2862 
Q 544 3141 544 3541 
Q 544 4100 942 4425 
Q 1341 4750 2034 4750 
Q 2731 4750 3128 4425 
Q 3525 4100 3525 3541 
Q 3525 3141 3298 2862 
Q 3072 2584 2669 2484 
Q 3125 2378 3379 2068 
Q 3634 1759 3634 1313 
Q 3634 634 3220 271 
Q 2806 -91 2034 -91 
Q 1263 -91 848 271 
Q 434 634 434 1313 
Q 434 1759 690 2068 
Q 947 2378 1403 2484 
z
M 1172 3481 
Q 1172 3119 1398 2916 
Q 1625 2713 2034 2713 
Q 2441 2713 2670 2916 
Q 2900 3119 2900 3481 
Q 2900 3844 2670 4047 
Q 2441 4250 2034 4250 
Q 1625 4250 1398 4047 
Q 1172 3844 1172 3481 
z
" transform="scale(0.015625)"/>
       </defs>
       <use xlink:href="#DejaVuSans-38"/>
      </g>
     </g>
    </g>
    <g id="ytick_7">
     <g id="line2d_7">
      <g>
       <use xlink:href="#m0787772d35" x="57.993313" y="37.86062" style="stroke: #000000; stroke-width: 0.8"/>
      </g>
     </g>
     <g id="text_7">
      <!-- 10 -->
      <g transform="translate(38.268313 41.659839)scale(0.1 -0.1)">
       <defs>
        <path id="DejaVuSans-31" d="M 794 531 
L 1825 531 
L 1825 4091 
L 703 3866 
L 703 4441 
L 1819 4666 
L 2450 4666 
L 2450 531 
L 3481 531 
L 3481 0 
L 794 0 
L 794 531 
z
" transform="scale(0.015625)"/>
       </defs>
       <use xlink:href="#DejaVuSans-31"/>
       <use xlink:href="#DejaVuSans-30" x="63.623047"/>
      </g>
     </g>
    </g>
    <g id="ytick_8">
     <g id="line2d_8">
      <g>
       <use xlink:href="#m0787772d35" x="57.993313" y="16.235795" style="stroke: #000000; stroke-width: 0.8"/>
      </g>
     </g>
     <g id="text_8">
      <!-- 12 -->
      <g transform="translate(38.268313 20.035014)scale(0.1 -0.1)">
       <use xlink:href="#DejaVuSans-31"/>
       <use xlink:href="#DejaVuSans-32" x="63.623047"/>
      </g>
     </g>
    </g>
    <g id="text_9">
     <!-- Fnr-2 iModulon -->
     <g transform="translate(16.318125 133.23375)rotate(-90)scale(0.12 -0.12)">
      <defs>
       <path id="DejaVuSans-46" d="M 628 4666 
L 3309 4666 
L 3309 4134 
L 1259 4134 
L 1259 2759 
L 3109 2759 
L 3109 2228 
L 1259 2228 
L 1259 0 
L 628 0 
L 628 4666 
z
" transform="scale(0.015625)"/>
       <path id="DejaVuSans-6e" d="M 3513 2113 
L 3513 0 
L 2938 0 
L 2938 2094 
Q 2938 2591 2744 2837 
Q 2550 3084 2163 3084 
Q 1697 3084 1428 2787 
Q 1159 2491 1159 1978 
L 1159 0 
L 581 0 
L 581 3500 
L 1159 3500 
L 1159 2956 
Q 1366 3272 1645 3428 
Q 1925 3584 2291 3584 
Q 2894 3584 3203 3211 
Q 3513 2838 3513 2113 
z
" transform="scale(0.015625)"/>
       <path id="DejaVuSans-72" d="M 2631 2963 
Q 2534 3019 2420 3045 
Q 2306 3072 2169 3072 
Q 1681 3072 1420 2755 
Q 1159 2438 1159 1844 
L 1159 0 
L 581 0 
L 581 3500 
L 1159 3500 
L 1159 2956 
Q 1341 3275 1631 3429 
Q 1922 3584 2338 3584 
Q 2397 3584 2469 3576 
Q 2541 3569 2628 3553 
L 2631 2963 
z
" transform="scale(0.015625)"/>
       <path id="DejaVuSans-2d" d="M 313 2009 
L 1997 2009 
L 1997 1497 
L 313 1497 
L 313 2009 
z
" transform="scale(0.015625)"/>
       <path id="DejaVuSans-20" transform="scale(0.015625)"/>
       <path id="DejaVuSans-69" d="M 603 3500 
L 1178 3500 
L 1178 0 
L 603 0 
L 603 3500 
z
M 603 4863 
L 1178 4863 
L 1178 4134 
L 603 4134 
L 603 4863 
z
" transform="scale(0.015625)"/>
       <path id="DejaVuSans-4d" d="M 628 4666 
L 1569 4666 
L 2759 1491 
L 3956 4666 
L 4897 4666 
L 4897 0 
L 4281 0 
L 4281 4097 
L 3078 897 
L 2444 897 
L 1241 4097 
L 1241 0 
L 628 0 
L 628 4666 
z
" transform="scale(0.015625)"/>
       <path id="DejaVuSans-6f" d="M 1959 3097 
Q 1497 3097 1228 2736 
Q 959 2375 959 1747 
Q 959 1119 1226 758 
Q 1494 397 1959 397 
Q 2419 397 2687 759 
Q 2956 1122 2956 1747 
Q 2956 2369 2687 2733 
Q 2419 3097 1959 3097 
z
M 1959 3584 
Q 2709 3584 3137 3096 
Q 3566 2609 3566 1747 
Q 3566 888 3137 398 
Q 2709 -91 1959 -91 
Q 1206 -91 779 398 
Q 353 888 353 1747 
Q 353 2609 779 3096 
Q 1206 3584 1959 3584 
z
" transform="scale(0.015625)"/>
       <path id="DejaVuSans-64" d="M 2906 2969 
L 2906 4863 
L 3481 4863 
L 3481 0 
L 2906 0 
L 2906 525 
Q 2725 213 2448 61 
Q 2172 -91 1784 -91 
Q 1150 -91 751 415 
Q 353 922 353 1747 
Q 353 2572 751 3078 
Q 1150 3584 1784 3584 
Q 2172 3584 2448 3432 
Q 2725 3281 2906 2969 
z
M 947 1747 
Q 947 1113 1208 752 
Q 1469 391 1925 391 
Q 2381 391 2643 752 
Q 2906 1113 2906 1747 
Q 2906 2381 2643 2742 
Q 2381 3103 1925 3103 
Q 1469 3103 1208 2742 
Q 947 2381 947 1747 
z
" transform="scale(0.015625)"/>
       <path id="DejaVuSans-75" d="M 544 1381 
L 544 3500 
L 1119 3500 
L 1119 1403 
Q 1119 906 1312 657 
Q 1506 409 1894 409 
Q 2359 409 2629 706 
Q 2900 1003 2900 1516 
L 2900 3500 
L 3475 3500 
L 3475 0 
L 2900 0 
L 2900 538 
Q 2691 219 2414 64 
Q 2138 -91 1772 -91 
Q 1169 -91 856 284 
Q 544 659 544 1381 
z
M 1991 3584 
L 1991 3584 
z
" transform="scale(0.015625)"/>
       <path id="DejaVuSans-6c" d="M 603 4863 
L 1178 4863 
L 1178 0 
L 603 0 
L 603 4863 
z
" transform="scale(0.015625)"/>
      </defs>
      <use xlink:href="#DejaVuSans-46"/>
      <use xlink:href="#DejaVuSans-6e" x="57.519531"/>
      <use xlink:href="#DejaVuSans-72" x="120.898438"/>
      <use xlink:href="#DejaVuSans-2d" x="155.636719"/>
      <use xlink:href="#DejaVuSans-32" x="191.720703"/>
      <use xlink:href="#DejaVuSans-20" x="255.34375"/>
      <use xlink:href="#DejaVuSans-69" x="287.130859"/>
      <use xlink:href="#DejaVuSans-4d" x="314.914062"/>
      <use xlink:href="#DejaVuSans-6f" x="401.193359"/>
      <use xlink:href="#DejaVuSans-64" x="462.375"/>
      <use xlink:href="#DejaVuSans-75" x="525.851562"/>
      <use xlink:href="#DejaVuSans-6c" x="589.230469"/>
      <use xlink:href="#DejaVuSans-6f" x="617.013672"/>
      <use xlink:href="#DejaVuSans-6e" x="678.195312"/>
     </g>
     <!-- Activity -->
     <g transform="translate(29.7555 111.179063)rotate(-90)scale(0.12 -0.12)">
      <defs>
       <path id="DejaVuSans-41" d="M 2188 4044 
L 1331 1722 
L 3047 1722 
L 2188 4044 
z
M 1831 4666 
L 2547 4666 
L 4325 0 
L 3669 0 
L 3244 1197 
L 1141 1197 
L 716 0 
L 50 0 
L 1831 4666 
z
" transform="scale(0.015625)"/>
       <path id="DejaVuSans-63" d="M 3122 3366 
L 3122 2828 
Q 2878 2963 2633 3030 
Q 2388 3097 2138 3097 
Q 1578 3097 1268 2742 
Q 959 2388 959 1747 
Q 959 1106 1268 751 
Q 1578 397 2138 397 
Q 2388 397 2633 464 
Q 2878 531 3122 666 
L 3122 134 
Q 2881 22 2623 -34 
Q 2366 -91 2075 -91 
Q 1284 -91 818 406 
Q 353 903 353 1747 
Q 353 2603 823 3093 
Q 1294 3584 2113 3584 
Q 2378 3584 2631 3529 
Q 2884 3475 3122 3366 
z
" transform="scale(0.015625)"/>
       <path id="DejaVuSans-74" d="M 1172 4494 
L 1172 3500 
L 2356 3500 
L 2356 3053 
L 1172 3053 
L 1172 1153 
Q 1172 725 1289 603 
Q 1406 481 1766 481 
L 2356 481 
L 2356 0 
L 1766 0 
Q 1100 0 847 248 
Q 594 497 594 1153 
L 594 3053 
L 172 3053 
L 172 3500 
L 594 3500 
L 594 4494 
L 1172 4494 
z
" transform="scale(0.015625)"/>
       <path id="DejaVuSans-76" d="M 191 3500 
L 800 3500 
L 1894 563 
L 2988 3500 
L 3597 3500 
L 2284 0 
L 1503 0 
L 191 3500 
z
" transform="scale(0.015625)"/>
       <path id="DejaVuSans-79" d="M 2059 -325 
Q 1816 -950 1584 -1140 
Q 1353 -1331 966 -1331 
L 506 -1331 
L 506 -850 
L 844 -850 
Q 1081 -850 1212 -737 
Q 1344 -625 1503 -206 
L 1606 56 
L 191 3500 
L 800 3500 
L 1894 763 
L 2988 3500 
L 3597 3500 
L 2059 -325 
z
" transform="scale(0.015625)"/>
      </defs>
      <use xlink:href="#DejaVuSans-41"/>
      <use xlink:href="#DejaVuSans-63" x="66.658203"/>
      <use xlink:href="#DejaVuSans-74" x="121.638672"/>
      <use xlink:href="#DejaVuSans-69" x="160.847656"/>
      <use xlink:href="#DejaVuSans-76" x="188.630859"/>
      <use xlink:href="#DejaVuSans-69" x="247.810547"/>
      <use xlink:href="#DejaVuSans-74" x="275.59375"/>
      <use xlink:href="#DejaVuSans-79" x="314.802734"/>
     </g>
    </g>
   </g>
   <g id="PathCollection_1">
    <defs>
     <path id="m0d03cea6d9" d="M 0 1.581139 
C 0.419323 1.581139 0.821528 1.41454 1.118034 1.118034 
C 1.41454 0.821528 1.581139 0.419323 1.581139 0 
C 1.581139 -0.419323 1.41454 -0.821528 1.118034 -1.118034 
C 0.821528 -1.41454 0.419323 -1.581139 0 -1.581139 
C -0.419323 -1.581139 -0.821528 -1.41454 -1.118034 -1.118034 
C -1.41454 -0.821528 -1.581139 -0.419323 -1.581139 0 
C -1.581139 0.419323 -1.41454 0.821528 -1.118034 1.118034 
C -0.821528 1.41454 -0.419323 1.581139 0 1.581139 
z
" style="stroke: #000000"/>
    </defs>
    <g clip-path="url(#p4e813dfb04)">
     <use xlink:href="#m0d03cea6d9" x="107.593312" y="39.437641" style="stroke: #000000"/>
     <use xlink:href="#m0d03cea6d9" x="107.593312" y="22.337042" style="stroke: #000000"/>
     <use xlink:href="#m0d03cea6d9" x="107.593312" y="20.79" style="stroke: #000000"/>
     <use xlink:href="#m0d03cea6d9" x="132.393313" y="44.502408" style="stroke: #000000"/>
     <use xlink:href="#m0d03cea6d9" x="132.393313" y="60.894642" style="stroke: #000000"/>
     <use xlink:href="#m0d03cea6d9" x="132.393313" y="52.033683" style="stroke: #000000"/>
     <use xlink:href="#m0d03cea6d9" x="157.193312" y="82.781629" style="stroke: #000000"/>
     <use xlink:href="#m0d03cea6d9" x="157.193312" y="110.990875" style="stroke: #000000"/>
     <use xlink:href="#m0d03cea6d9" x="157.193312" y="81.708681" style="stroke: #000000"/>
     <use xlink:href="#m0d03cea6d9" x="181.993313" y="125.712934" style="stroke: #000000"/>
     <use xlink:href="#m0d03cea6d9" x="181.993313" y="137.753865" style="stroke: #000000"/>
     <use xlink:href="#m0d03cea6d9" x="181.993313" y="125.874151" style="stroke: #000000"/>
     <use xlink:href="#m0d03cea6d9" x="206.793312" y="151.339983" style="stroke: #000000"/>
     <use xlink:href="#m0d03cea6d9" x="206.793312" y="156.69" style="stroke: #000000"/>
     <use xlink:href="#m0d03cea6d9" x="206.793312" y="151.727607" style="stroke: #000000"/>
     <use xlink:href="#m0d03cea6d9" x="231.593312" y="150.62004" style="stroke: #000000"/>
     <use xlink:href="#m0d03cea6d9" x="231.593312" y="150.221847" style="stroke: #000000"/>
     <use xlink:href="#m0d03cea6d9" x="231.593312" y="153.962463" style="stroke: #000000"/>
    </g>
   </g>
   <g id="LineCollection_1">
    <path d="M 95.193313 170.28 
L 95.193313 7.2 
" clip-path="url(#p4e813dfb04)" style="fill: none; stroke: #d3d3d3"/>
    <path d="M 243.993312 170.28 
L 243.993312 7.2 
" clip-path="url(#p4e813dfb04)" style="fill: none; stroke: #d3d3d3"/>
   </g>
   <g id="LineCollection_2">
    <path d="M 57.993313 145.984743 
L 281.193312 145.984743 
" clip-path="url(#p4e813dfb04)" style="fill: none; stroke: #000000; stroke-width: 1.5"/>
   </g>
   <g id="patch_9">
    <path d="M 57.993313 170.28 
L 57.993313 7.2 
" style="fill: none; stroke: #000000; stroke-width: 0.8; stroke-linejoin: miter; stroke-linecap: square"/>
   </g>
   <g id="patch_10">
    <path d="M 281.193312 170.28 
L 281.193312 7.2 
" style="fill: none; stroke: #000000; stroke-width: 0.8; stroke-linejoin: miter; stroke-linecap: square"/>
   </g>
   <g id="patch_11">
    <path d="M 57.993313 170.28 
L 281.193312 170.28 
" style="fill: none; stroke: #000000; stroke-width: 0.8; stroke-linejoin: miter; stroke-linecap: square"/>
   </g>
   <g id="patch_12">
    <path d="M 57.993313 7.2 
L 281.193312 7.2 
" style="fill: none; stroke: #000000; stroke-width: 0.8; stroke-linejoin: miter; stroke-linecap: square"/>
   </g>
   <g id="text_10">
    <!-- aat -->
    <g transform="translate(181.484194 190.353064)rotate(-45)scale(0.1 -0.1)">
     <defs>
      <path id="DejaVuSans-61" d="M 2194 1759 
Q 1497 1759 1228 1600 
Q 959 1441 959 1056 
Q 959 750 1161 570 
Q 1363 391 1709 391 
Q 2188 391 2477 730 
Q 2766 1069 2766 1631 
L 2766 1759 
L 2194 1759 
z
M 3341 1997 
L 3341 0 
L 2766 0 
L 2766 531 
Q 2569 213 2275 61 
Q 1981 -91 1556 -91 
Q 1019 -91 701 211 
Q 384 513 384 1019 
Q 384 1609 779 1909 
Q 1175 2209 1959 2209 
L 2766 2209 
L 2766 2266 
Q 2766 2663 2505 2880 
Q 2244 3097 1772 3097 
Q 1472 3097 1187 3025 
Q 903 2953 641 2809 
L 641 3341 
Q 956 3463 1253 3523 
Q 1550 3584 1831 3584 
Q 2591 3584 2966 3190 
Q 3341 2797 3341 1997 
z
" transform="scale(0.015625)"/>
     </defs>
     <use xlink:href="#DejaVuSans-61"/>
     <use xlink:href="#DejaVuSans-61" x="61.279297"/>
     <use xlink:href="#DejaVuSans-74" x="122.558594"/>
    </g>
   </g>
   <g id="legend_1">
    <g id="patch_13">
     <path d="M 170.652687 104.9375 
L 274.193312 104.9375 
Q 276.193312 104.9375 276.193312 102.9375 
L 276.193312 14.2 
Q 276.193312 12.2 274.193312 12.2 
L 170.652687 12.2 
Q 168.652687 12.2 168.652687 14.2 
L 168.652687 102.9375 
Q 168.652687 104.9375 170.652687 104.9375 
z
" style="fill: #ffffff; opacity: 0.8; stroke: #cccccc; stroke-linejoin: miter"/>
    </g>
    <g id="patch_14">
     <path d="M 172.652687 23.798438 
L 192.652687 23.798438 
L 192.652687 16.798438 
L 172.652687 16.798438 
z
" style="fill: #d62728"/>
    </g>
    <g id="text_11">
     <!-- aat - 00m_00s -->
     <g transform="translate(200.652687 23.798438)scale(0.1 -0.1)">
      <defs>
       <path id="DejaVuSans-6d" d="M 3328 2828 
Q 3544 3216 3844 3400 
Q 4144 3584 4550 3584 
Q 5097 3584 5394 3201 
Q 5691 2819 5691 2113 
L 5691 0 
L 5113 0 
L 5113 2094 
Q 5113 2597 4934 2840 
Q 4756 3084 4391 3084 
Q 3944 3084 3684 2787 
Q 3425 2491 3425 1978 
L 3425 0 
L 2847 0 
L 2847 2094 
Q 2847 2600 2669 2842 
Q 2491 3084 2119 3084 
Q 1678 3084 1418 2786 
Q 1159 2488 1159 1978 
L 1159 0 
L 581 0 
L 581 3500 
L 1159 3500 
L 1159 2956 
Q 1356 3278 1631 3431 
Q 1906 3584 2284 3584 
Q 2666 3584 2933 3390 
Q 3200 3197 3328 2828 
z
" transform="scale(0.015625)"/>
       <path id="DejaVuSans-5f" d="M 3263 -1063 
L 3263 -1509 
L -63 -1509 
L -63 -1063 
L 3263 -1063 
z
" transform="scale(0.015625)"/>
       <path id="DejaVuSans-73" d="M 2834 3397 
L 2834 2853 
Q 2591 2978 2328 3040 
Q 2066 3103 1784 3103 
Q 1356 3103 1142 2972 
Q 928 2841 928 2578 
Q 928 2378 1081 2264 
Q 1234 2150 1697 2047 
L 1894 2003 
Q 2506 1872 2764 1633 
Q 3022 1394 3022 966 
Q 3022 478 2636 193 
Q 2250 -91 1575 -91 
Q 1294 -91 989 -36 
Q 684 19 347 128 
L 347 722 
Q 666 556 975 473 
Q 1284 391 1588 391 
Q 1994 391 2212 530 
Q 2431 669 2431 922 
Q 2431 1156 2273 1281 
Q 2116 1406 1581 1522 
L 1381 1569 
Q 847 1681 609 1914 
Q 372 2147 372 2553 
Q 372 3047 722 3315 
Q 1072 3584 1716 3584 
Q 2034 3584 2315 3537 
Q 2597 3491 2834 3397 
z
" transform="scale(0.015625)"/>
      </defs>
      <use xlink:href="#DejaVuSans-61"/>
      <use xlink:href="#DejaVuSans-61" x="61.279297"/>
      <use xlink:href="#DejaVuSans-74" x="122.558594"/>
      <use xlink:href="#DejaVuSans-20" x="161.767578"/>
      <use xlink:href="#DejaVuSans-2d" x="193.554688"/>
      <use xlink:href="#DejaVuSans-20" x="229.638672"/>
      <use xlink:href="#DejaVuSans-30" x="261.425781"/>
      <use xlink:href="#DejaVuSans-30" x="325.048828"/>
      <use xlink:href="#DejaVuSans-6d" x="388.671875"/>
      <use xlink:href="#DejaVuSans-5f" x="486.083984"/>
      <use xlink:href="#DejaVuSans-30" x="536.083984"/>
      <use xlink:href="#DejaVuSans-30" x="599.707031"/>
      <use xlink:href="#DejaVuSans-73" x="663.330078"/>
     </g>
    </g>
    <g id="patch_15">
     <path d="M 172.652687 38.754687 
L 192.652687 38.754687 
L 192.652687 31.754687 
L 172.652687 31.754687 
z
" style="fill: #ff7f0e"/>
    </g>
    <g id="text_12">
     <!-- aat - 00m_30s -->
     <g transform="translate(200.652687 38.754687)scale(0.1 -0.1)">
      <defs>
       <path id="DejaVuSans-33" d="M 2597 2516 
Q 3050 2419 3304 2112 
Q 3559 1806 3559 1356 
Q 3559 666 3084 287 
Q 2609 -91 1734 -91 
Q 1441 -91 1130 -33 
Q 819 25 488 141 
L 488 750 
Q 750 597 1062 519 
Q 1375 441 1716 441 
Q 2309 441 2620 675 
Q 2931 909 2931 1356 
Q 2931 1769 2642 2001 
Q 2353 2234 1838 2234 
L 1294 2234 
L 1294 2753 
L 1863 2753 
Q 2328 2753 2575 2939 
Q 2822 3125 2822 3475 
Q 2822 3834 2567 4026 
Q 2313 4219 1838 4219 
Q 1578 4219 1281 4162 
Q 984 4106 628 3988 
L 628 4550 
Q 988 4650 1302 4700 
Q 1616 4750 1894 4750 
Q 2613 4750 3031 4423 
Q 3450 4097 3450 3541 
Q 3450 3153 3228 2886 
Q 3006 2619 2597 2516 
z
" transform="scale(0.015625)"/>
      </defs>
      <use xlink:href="#DejaVuSans-61"/>
      <use xlink:href="#DejaVuSans-61" x="61.279297"/>
      <use xlink:href="#DejaVuSans-74" x="122.558594"/>
      <use xlink:href="#DejaVuSans-20" x="161.767578"/>
      <use xlink:href="#DejaVuSans-2d" x="193.554688"/>
      <use xlink:href="#DejaVuSans-20" x="229.638672"/>
      <use xlink:href="#DejaVuSans-30" x="261.425781"/>
      <use xlink:href="#DejaVuSans-30" x="325.048828"/>
      <use xlink:href="#DejaVuSans-6d" x="388.671875"/>
      <use xlink:href="#DejaVuSans-5f" x="486.083984"/>
      <use xlink:href="#DejaVuSans-33" x="536.083984"/>
      <use xlink:href="#DejaVuSans-30" x="599.707031"/>
      <use xlink:href="#DejaVuSans-73" x="663.330078"/>
     </g>
    </g>
    <g id="patch_16">
     <path d="M 172.652687 53.710938 
L 192.652687 53.710938 
L 192.652687 46.710938 
L 172.652687 46.710938 
z
" style="fill: #2ca02c"/>
    </g>
    <g id="text_13">
     <!-- aat - 01m_00s -->
     <g transform="translate(200.652687 53.710938)scale(0.1 -0.1)">
      <use xlink:href="#DejaVuSans-61"/>
      <use xlink:href="#DejaVuSans-61" x="61.279297"/>
      <use xlink:href="#DejaVuSans-74" x="122.558594"/>
      <use xlink:href="#DejaVuSans-20" x="161.767578"/>
      <use xlink:href="#DejaVuSans-2d" x="193.554688"/>
      <use xlink:href="#DejaVuSans-20" x="229.638672"/>
      <use xlink:href="#DejaVuSans-30" x="261.425781"/>
      <use xlink:href="#DejaVuSans-31" x="325.048828"/>
      <use xlink:href="#DejaVuSans-6d" x="388.671875"/>
      <use xlink:href="#DejaVuSans-5f" x="486.083984"/>
      <use xlink:href="#DejaVuSans-30" x="536.083984"/>
      <use xlink:href="#DejaVuSans-30" x="599.707031"/>
      <use xlink:href="#DejaVuSans-73" x="663.330078"/>
     </g>
    </g>
    <g id="patch_17">
     <path d="M 172.652687 68.667188 
L 192.652687 68.667188 
L 192.652687 61.667188 
L 172.652687 61.667188 
z
" style="fill: #9467bd"/>
    </g>
    <g id="text_14">
     <!-- aat - 02m_00s -->
     <g transform="translate(200.652687 68.667188)scale(0.1 -0.1)">
      <use xlink:href="#DejaVuSans-61"/>
      <use xlink:href="#DejaVuSans-61" x="61.279297"/>
      <use xlink:href="#DejaVuSans-74" x="122.558594"/>
      <use xlink:href="#DejaVuSans-20" x="161.767578"/>
      <use xlink:href="#DejaVuSans-2d" x="193.554688"/>
      <use xlink:href="#DejaVuSans-20" x="229.638672"/>
      <use xlink:href="#DejaVuSans-30" x="261.425781"/>
      <use xlink:href="#DejaVuSans-32" x="325.048828"/>
      <use xlink:href="#DejaVuSans-6d" x="388.671875"/>
      <use xlink:href="#DejaVuSans-5f" x="486.083984"/>
      <use xlink:href="#DejaVuSans-30" x="536.083984"/>
      <use xlink:href="#DejaVuSans-30" x="599.707031"/>
      <use xlink:href="#DejaVuSans-73" x="663.330078"/>
     </g>
    </g>
    <g id="patch_18">
     <path d="M 172.652687 83.623438 
L 192.652687 83.623438 
L 192.652687 76.623438 
L 172.652687 76.623438 
z
" style="fill: #8c564b"/>
    </g>
    <g id="text_15">
     <!-- aat - 05m_00s -->
     <g transform="translate(200.652687 83.623438)scale(0.1 -0.1)">
      <defs>
       <path id="DejaVuSans-35" d="M 691 4666 
L 3169 4666 
L 3169 4134 
L 1269 4134 
L 1269 2991 
Q 1406 3038 1543 3061 
Q 1681 3084 1819 3084 
Q 2600 3084 3056 2656 
Q 3513 2228 3513 1497 
Q 3513 744 3044 326 
Q 2575 -91 1722 -91 
Q 1428 -91 1123 -41 
Q 819 9 494 109 
L 494 744 
Q 775 591 1075 516 
Q 1375 441 1709 441 
Q 2250 441 2565 725 
Q 2881 1009 2881 1497 
Q 2881 1984 2565 2268 
Q 2250 2553 1709 2553 
Q 1456 2553 1204 2497 
Q 953 2441 691 2322 
L 691 4666 
z
" transform="scale(0.015625)"/>
      </defs>
      <use xlink:href="#DejaVuSans-61"/>
      <use xlink:href="#DejaVuSans-61" x="61.279297"/>
      <use xlink:href="#DejaVuSans-74" x="122.558594"/>
      <use xlink:href="#DejaVuSans-20" x="161.767578"/>
      <use xlink:href="#DejaVuSans-2d" x="193.554688"/>
      <use xlink:href="#DejaVuSans-20" x="229.638672"/>
      <use xlink:href="#DejaVuSans-30" x="261.425781"/>
      <use xlink:href="#DejaVuSans-35" x="325.048828"/>
      <use xlink:href="#DejaVuSans-6d" x="388.671875"/>
      <use xlink:href="#DejaVuSans-5f" x="486.083984"/>
      <use xlink:href="#DejaVuSans-30" x="536.083984"/>
      <use xlink:href="#DejaVuSans-30" x="599.707031"/>
      <use xlink:href="#DejaVuSans-73" x="663.330078"/>
     </g>
    </g>
    <g id="patch_19">
     <path d="M 172.652687 98.579688 
L 192.652687 98.579688 
L 192.652687 91.579688 
L 172.652687 91.579688 
z
" style="fill: #e377c2"/>
    </g>
    <g id="text_16">
     <!-- aat - 10m_00s -->
     <g transform="translate(200.652687 98.579688)scale(0.1 -0.1)">
      <use xlink:href="#DejaVuSans-61"/>
      <use xlink:href="#DejaVuSans-61" x="61.279297"/>
      <use xlink:href="#DejaVuSans-74" x="122.558594"/>
      <use xlink:href="#DejaVuSans-20" x="161.767578"/>
      <use xlink:href="#DejaVuSans-2d" x="193.554688"/>
      <use xlink:href="#DejaVuSans-20" x="229.638672"/>
      <use xlink:href="#DejaVuSans-31" x="261.425781"/>
      <use xlink:href="#DejaVuSans-30" x="325.048828"/>
      <use xlink:href="#DejaVuSans-6d" x="388.671875"/>
      <use xlink:href="#DejaVuSans-5f" x="486.083984"/>
      <use xlink:href="#DejaVuSans-30" x="536.083984"/>
      <use xlink:href="#DejaVuSans-30" x="599.707031"/>
      <use xlink:href="#DejaVuSans-73" x="663.330078"/>
     </g>
    </g>
   </g>
  </g>
 </g>
 <defs>
  <clipPath id="p4e813dfb04">
   <rect x="57.993313" y="7.2" width="223.2" height="163.08"/>
  </clipPath>
 </defs>
</svg>
