<?xml version="1.0" encoding="utf-8" standalone="no"?>
<!DOCTYPE svg PUBLIC "-//W3C//DTD SVG 1.1//EN"
  "http://www.w3.org/Graphics/SVG/1.1/DTD/svg11.dtd">
<svg xmlns:xlink="http://www.w3.org/1999/xlink" width="271.970937pt" height="212.044062pt" viewBox="0 0 271.970937 212.044062" xmlns="http://www.w3.org/2000/svg" version="1.1">
 <metadata>
  <rdf:RDF xmlns:dc="http://purl.org/dc/elements/1.1/" xmlns:cc="http://creativecommons.org/ns#" xmlns:rdf="http://www.w3.org/1999/02/22-rdf-syntax-ns#">
   <cc:Work>
    <dc:type rdf:resource="http://purl.org/dc/dcmitype/StillImage"/>
    <dc:date>2023-01-11T13:58:45.480702</dc:date>
    <dc:format>image/svg+xml</dc:format>
    <dc:creator>
     <cc:Agent>
      <dc:title>Matplotlib v3.6.2, https://matplotlib.org/</dc:title>
     </cc:Agent>
    </dc:creator>
   </cc:Work>
  </rdf:RDF>
 </metadata>
 <defs>
  <style type="text/css">*{stroke-linejoin: round; stroke-linecap: butt}</style>
 </defs>
 <g id="figure_1">
  <g id="patch_1">
   <path d="M 0 212.044062 
L 271.970937 212.044062 
L 271.970937 0 
L 0 0 
z
" style="fill: #ffffff"/>
  </g>
  <g id="axes_1">
   <g id="patch_2">
    <path d="M 41.570938 173.52 
L 264.770938 173.52 
L 264.770938 7.2 
L 41.570938 7.2 
z
" style="fill: #ffffff"/>
   </g>
   <g id="patch_3">
    <path d="M 52.301205 173.52 
L 56.347691 173.52 
L 56.347691 169.792941 
L 52.301205 169.792941 
z
" clip-path="url(#p183c796393)" style="fill: #808080; fill-opacity: 0.75; stroke: #000000; stroke-width: 0.405818; stroke-linejoin: miter"/>
   </g>
   <g id="patch_4">
    <path d="M 56.347691 173.52 
L 60.394176 173.52 
L 60.394176 173.52 
L 56.347691 173.52 
z
" clip-path="url(#p183c796393)" style="fill: #808080; fill-opacity: 0.75; stroke: #000000; stroke-width: 0.405818; stroke-linejoin: miter"/>
   </g>
   <g id="patch_5">
    <path d="M 60.394176 173.52 
L 64.440662 173.52 
L 64.440662 169.792941 
L 60.394176 169.792941 
z
" clip-path="url(#p183c796393)" style="fill: #808080; fill-opacity: 0.75; stroke: #000000; stroke-width: 0.405818; stroke-linejoin: miter"/>
   </g>
   <g id="patch_6">
    <path d="M 64.440662 173.52 
L 68.487147 173.52 
L 68.487147 171.656471 
L 64.440662 171.656471 
z
" clip-path="url(#p183c796393)" style="fill: #808080; fill-opacity: 0.75; stroke: #000000; stroke-width: 0.405818; stroke-linejoin: miter"/>
   </g>
   <g id="patch_7">
    <path d="M 68.487147 173.52 
L 72.533633 173.52 
L 72.533633 167.929412 
L 68.487147 167.929412 
z
" clip-path="url(#p183c796393)" style="fill: #808080; fill-opacity: 0.75; stroke: #000000; stroke-width: 0.405818; stroke-linejoin: miter"/>
   </g>
   <g id="patch_8">
    <path d="M 72.533633 173.52 
L 76.580118 173.52 
L 76.580118 171.656471 
L 72.533633 171.656471 
z
" clip-path="url(#p183c796393)" style="fill: #808080; fill-opacity: 0.75; stroke: #000000; stroke-width: 0.405818; stroke-linejoin: miter"/>
   </g>
   <g id="patch_9">
    <path d="M 76.580118 173.52 
L 80.626604 173.52 
L 80.626604 167.929412 
L 76.580118 167.929412 
z
" clip-path="url(#p183c796393)" style="fill: #808080; fill-opacity: 0.75; stroke: #000000; stroke-width: 0.405818; stroke-linejoin: miter"/>
   </g>
   <g id="patch_10">
    <path d="M 80.626604 173.52 
L 84.673089 173.52 
L 84.673089 171.656471 
L 80.626604 171.656471 
z
" clip-path="url(#p183c796393)" style="fill: #808080; fill-opacity: 0.75; stroke: #000000; stroke-width: 0.405818; stroke-linejoin: miter"/>
   </g>
   <g id="patch_11">
    <path d="M 84.673089 173.52 
L 88.719575 173.52 
L 88.719575 154.884706 
L 84.673089 154.884706 
z
" clip-path="url(#p183c796393)" style="fill: #808080; fill-opacity: 0.75; stroke: #000000; stroke-width: 0.405818; stroke-linejoin: miter"/>
   </g>
   <g id="patch_12">
    <path d="M 88.719575 173.52 
L 92.766061 173.52 
L 92.766061 162.338824 
L 88.719575 162.338824 
z
" clip-path="url(#p183c796393)" style="fill: #808080; fill-opacity: 0.75; stroke: #000000; stroke-width: 0.405818; stroke-linejoin: miter"/>
   </g>
   <g id="patch_13">
    <path d="M 92.766061 173.52 
L 96.812546 173.52 
L 96.812546 164.202353 
L 92.766061 164.202353 
z
" clip-path="url(#p183c796393)" style="fill: #808080; fill-opacity: 0.75; stroke: #000000; stroke-width: 0.405818; stroke-linejoin: miter"/>
   </g>
   <g id="patch_14">
    <path d="M 96.812546 173.52 
L 100.859032 173.52 
L 100.859032 162.338824 
L 96.812546 162.338824 
z
" clip-path="url(#p183c796393)" style="fill: #808080; fill-opacity: 0.75; stroke: #000000; stroke-width: 0.405818; stroke-linejoin: miter"/>
   </g>
   <g id="patch_15">
    <path d="M 100.859032 173.52 
L 104.905517 173.52 
L 104.905517 147.430588 
L 100.859032 147.430588 
z
" clip-path="url(#p183c796393)" style="fill: #808080; fill-opacity: 0.75; stroke: #000000; stroke-width: 0.405818; stroke-linejoin: miter"/>
   </g>
   <g id="patch_16">
    <path d="M 104.905517 173.52 
L 108.952003 173.52 
L 108.952003 149.294118 
L 104.905517 149.294118 
z
" clip-path="url(#p183c796393)" style="fill: #808080; fill-opacity: 0.75; stroke: #000000; stroke-width: 0.405818; stroke-linejoin: miter"/>
   </g>
   <g id="patch_17">
    <path d="M 108.952003 173.52 
L 112.998488 173.52 
L 112.998488 153.021176 
L 108.952003 153.021176 
z
" clip-path="url(#p183c796393)" style="fill: #808080; fill-opacity: 0.75; stroke: #000000; stroke-width: 0.405818; stroke-linejoin: miter"/>
   </g>
   <g id="patch_18">
    <path d="M 112.998488 173.52 
L 117.044974 173.52 
L 117.044974 160.475294 
L 112.998488 160.475294 
z
" clip-path="url(#p183c796393)" style="fill: #808080; fill-opacity: 0.75; stroke: #000000; stroke-width: 0.405818; stroke-linejoin: miter"/>
   </g>
   <g id="patch_19">
    <path d="M 117.044974 173.52 
L 121.091459 173.52 
L 121.091459 149.294118 
L 117.044974 149.294118 
z
" clip-path="url(#p183c796393)" style="fill: #808080; fill-opacity: 0.75; stroke: #000000; stroke-width: 0.405818; stroke-linejoin: miter"/>
   </g>
   <g id="patch_20">
    <path d="M 121.091459 173.52 
L 125.137945 173.52 
L 125.137945 162.338824 
L 121.091459 162.338824 
z
" clip-path="url(#p183c796393)" style="fill: #808080; fill-opacity: 0.75; stroke: #000000; stroke-width: 0.405818; stroke-linejoin: miter"/>
   </g>
   <g id="patch_21">
    <path d="M 125.137945 173.52 
L 129.184431 173.52 
L 129.184431 154.884706 
L 125.137945 154.884706 
z
" clip-path="url(#p183c796393)" style="fill: #808080; fill-opacity: 0.75; stroke: #000000; stroke-width: 0.405818; stroke-linejoin: miter"/>
   </g>
   <g id="patch_22">
    <path d="M 129.184431 173.52 
L 133.230916 173.52 
L 133.230916 149.294118 
L 129.184431 149.294118 
z
" clip-path="url(#p183c796393)" style="fill: #808080; fill-opacity: 0.75; stroke: #000000; stroke-width: 0.405818; stroke-linejoin: miter"/>
   </g>
   <g id="patch_23">
    <path d="M 133.230916 173.52 
L 137.277402 173.52 
L 137.277402 154.884706 
L 133.230916 154.884706 
z
" clip-path="url(#p183c796393)" style="fill: #808080; fill-opacity: 0.75; stroke: #000000; stroke-width: 0.405818; stroke-linejoin: miter"/>
   </g>
   <g id="patch_24">
    <path d="M 137.277402 173.52 
L 141.323887 173.52 
L 141.323887 153.021176 
L 137.277402 153.021176 
z
" clip-path="url(#p183c796393)" style="fill: #808080; fill-opacity: 0.75; stroke: #000000; stroke-width: 0.405818; stroke-linejoin: miter"/>
   </g>
   <g id="patch_25">
    <path d="M 141.323887 173.52 
L 145.370373 173.52 
L 145.370373 156.748235 
L 141.323887 156.748235 
z
" clip-path="url(#p183c796393)" style="fill: #808080; fill-opacity: 0.75; stroke: #000000; stroke-width: 0.405818; stroke-linejoin: miter"/>
   </g>
   <g id="patch_26">
    <path d="M 145.370373 173.52 
L 149.416858 173.52 
L 149.416858 153.021176 
L 145.370373 153.021176 
z
" clip-path="url(#p183c796393)" style="fill: #808080; fill-opacity: 0.75; stroke: #000000; stroke-width: 0.405818; stroke-linejoin: miter"/>
   </g>
   <g id="patch_27">
    <path d="M 149.416858 173.52 
L 153.463344 173.52 
L 153.463344 138.112941 
L 149.416858 138.112941 
z
" clip-path="url(#p183c796393)" style="fill: #808080; fill-opacity: 0.75; stroke: #000000; stroke-width: 0.405818; stroke-linejoin: miter"/>
   </g>
   <g id="patch_28">
    <path d="M 153.463344 173.52 
L 157.50983 173.52 
L 157.50983 128.795294 
L 153.463344 128.795294 
z
" clip-path="url(#p183c796393)" style="fill: #808080; fill-opacity: 0.75; stroke: #000000; stroke-width: 0.405818; stroke-linejoin: miter"/>
   </g>
   <g id="patch_29">
    <path d="M 157.50983 173.52 
L 161.556315 173.52 
L 161.556315 139.976471 
L 157.50983 139.976471 
z
" clip-path="url(#p183c796393)" style="fill: #808080; fill-opacity: 0.75; stroke: #000000; stroke-width: 0.405818; stroke-linejoin: miter"/>
   </g>
   <g id="patch_30">
    <path d="M 161.556315 173.52 
L 165.602801 173.52 
L 165.602801 147.430588 
L 161.556315 147.430588 
z
" clip-path="url(#p183c796393)" style="fill: #808080; fill-opacity: 0.75; stroke: #000000; stroke-width: 0.405818; stroke-linejoin: miter"/>
   </g>
   <g id="patch_31">
    <path d="M 165.602801 173.52 
L 169.649286 173.52 
L 169.649286 136.249412 
L 165.602801 136.249412 
z
" clip-path="url(#p183c796393)" style="fill: #808080; fill-opacity: 0.75; stroke: #000000; stroke-width: 0.405818; stroke-linejoin: miter"/>
   </g>
   <g id="patch_32">
    <path d="M 169.649286 173.52 
L 173.695772 173.52 
L 173.695772 138.112941 
L 169.649286 138.112941 
z
" clip-path="url(#p183c796393)" style="fill: #808080; fill-opacity: 0.75; stroke: #000000; stroke-width: 0.405818; stroke-linejoin: miter"/>
   </g>
   <g id="patch_33">
    <path d="M 173.695772 173.52 
L 177.742257 173.52 
L 177.742257 125.068235 
L 173.695772 125.068235 
z
" clip-path="url(#p183c796393)" style="fill: #808080; fill-opacity: 0.75; stroke: #000000; stroke-width: 0.405818; stroke-linejoin: miter"/>
   </g>
   <g id="patch_34">
    <path d="M 177.742257 173.52 
L 181.788743 173.52 
L 181.788743 115.750588 
L 177.742257 115.750588 
z
" clip-path="url(#p183c796393)" style="fill: #808080; fill-opacity: 0.75; stroke: #000000; stroke-width: 0.405818; stroke-linejoin: miter"/>
   </g>
   <g id="patch_35">
    <path d="M 181.788743 173.52 
L 185.835228 173.52 
L 185.835228 102.705882 
L 181.788743 102.705882 
z
" clip-path="url(#p183c796393)" style="fill: #808080; fill-opacity: 0.75; stroke: #000000; stroke-width: 0.405818; stroke-linejoin: miter"/>
   </g>
   <g id="patch_36">
    <path d="M 185.835228 173.52 
L 189.881714 173.52 
L 189.881714 113.887059 
L 185.835228 113.887059 
z
" clip-path="url(#p183c796393)" style="fill: #808080; fill-opacity: 0.75; stroke: #000000; stroke-width: 0.405818; stroke-linejoin: miter"/>
   </g>
   <g id="patch_37">
    <path d="M 189.881714 173.52 
L 193.9282 173.52 
L 193.9282 52.390588 
L 189.881714 52.390588 
z
" clip-path="url(#p183c796393)" style="fill: #808080; fill-opacity: 0.75; stroke: #000000; stroke-width: 0.405818; stroke-linejoin: miter"/>
   </g>
   <g id="patch_38">
    <path d="M 193.9282 173.52 
L 197.974685 173.52 
L 197.974685 46.8 
L 193.9282 46.8 
z
" clip-path="url(#p183c796393)" style="fill: #808080; fill-opacity: 0.75; stroke: #000000; stroke-width: 0.405818; stroke-linejoin: miter"/>
   </g>
   <g id="patch_39">
    <path d="M 197.974685 173.52 
L 202.021171 173.52 
L 202.021171 15.12 
L 197.974685 15.12 
z
" clip-path="url(#p183c796393)" style="fill: #808080; fill-opacity: 0.75; stroke: #000000; stroke-width: 0.405818; stroke-linejoin: miter"/>
   </g>
   <g id="patch_40">
    <path d="M 202.021171 173.52 
L 206.067656 173.52 
L 206.067656 35.618824 
L 202.021171 35.618824 
z
" clip-path="url(#p183c796393)" style="fill: #808080; fill-opacity: 0.75; stroke: #000000; stroke-width: 0.405818; stroke-linejoin: miter"/>
   </g>
   <g id="patch_41">
    <path d="M 206.067656 173.52 
L 210.114142 173.52 
L 210.114142 41.209412 
L 206.067656 41.209412 
z
" clip-path="url(#p183c796393)" style="fill: #808080; fill-opacity: 0.75; stroke: #000000; stroke-width: 0.405818; stroke-linejoin: miter"/>
   </g>
   <g id="patch_42">
    <path d="M 210.114142 173.52 
L 214.160627 173.52 
L 214.160627 63.571765 
L 210.114142 63.571765 
z
" clip-path="url(#p183c796393)" style="fill: #808080; fill-opacity: 0.75; stroke: #000000; stroke-width: 0.405818; stroke-linejoin: miter"/>
   </g>
   <g id="patch_43">
    <path d="M 214.160627 173.52 
L 218.207113 173.52 
L 218.207113 110.16 
L 214.160627 110.16 
z
" clip-path="url(#p183c796393)" style="fill: #808080; fill-opacity: 0.75; stroke: #000000; stroke-width: 0.405818; stroke-linejoin: miter"/>
   </g>
   <g id="patch_44">
    <path d="M 218.207113 173.52 
L 222.253598 173.52 
L 222.253598 110.16 
L 218.207113 110.16 
z
" clip-path="url(#p183c796393)" style="fill: #808080; fill-opacity: 0.75; stroke: #000000; stroke-width: 0.405818; stroke-linejoin: miter"/>
   </g>
   <g id="patch_45">
    <path d="M 222.253598 173.52 
L 226.300084 173.52 
L 226.300084 108.296471 
L 222.253598 108.296471 
z
" clip-path="url(#p183c796393)" style="fill: #808080; fill-opacity: 0.75; stroke: #000000; stroke-width: 0.405818; stroke-linejoin: miter"/>
   </g>
   <g id="patch_46">
    <path d="M 226.300084 173.52 
L 230.34657 173.52 
L 230.34657 87.797647 
L 226.300084 87.797647 
z
" clip-path="url(#p183c796393)" style="fill: #808080; fill-opacity: 0.75; stroke: #000000; stroke-width: 0.405818; stroke-linejoin: miter"/>
   </g>
   <g id="patch_47">
    <path d="M 230.34657 173.52 
L 234.393055 173.52 
L 234.393055 136.249412 
L 230.34657 136.249412 
z
" clip-path="url(#p183c796393)" style="fill: #808080; fill-opacity: 0.75; stroke: #000000; stroke-width: 0.405818; stroke-linejoin: miter"/>
   </g>
   <g id="patch_48">
    <path d="M 234.393055 173.52 
L 238.439541 173.52 
L 238.439541 147.430588 
L 234.393055 147.430588 
z
" clip-path="url(#p183c796393)" style="fill: #808080; fill-opacity: 0.75; stroke: #000000; stroke-width: 0.405818; stroke-linejoin: miter"/>
   </g>
   <g id="patch_49">
    <path d="M 238.439541 173.52 
L 242.486026 173.52 
L 242.486026 156.748235 
L 238.439541 156.748235 
z
" clip-path="url(#p183c796393)" style="fill: #808080; fill-opacity: 0.75; stroke: #000000; stroke-width: 0.405818; stroke-linejoin: miter"/>
   </g>
   <g id="patch_50">
    <path d="M 242.486026 173.52 
L 246.532512 173.52 
L 246.532512 164.202353 
L 242.486026 164.202353 
z
" clip-path="url(#p183c796393)" style="fill: #808080; fill-opacity: 0.75; stroke: #000000; stroke-width: 0.405818; stroke-linejoin: miter"/>
   </g>
   <g id="patch_51">
    <path d="M 246.532512 173.52 
L 250.578997 173.52 
L 250.578997 166.065882 
L 246.532512 166.065882 
z
" clip-path="url(#p183c796393)" style="fill: #808080; fill-opacity: 0.75; stroke: #000000; stroke-width: 0.405818; stroke-linejoin: miter"/>
   </g>
   <g id="patch_52">
    <path d="M 250.578997 173.52 
L 254.625483 173.52 
L 254.625483 167.929412 
L 250.578997 167.929412 
z
" clip-path="url(#p183c796393)" style="fill: #808080; fill-opacity: 0.75; stroke: #000000; stroke-width: 0.405818; stroke-linejoin: miter"/>
   </g>
   <g id="patch_53">
    <path d="M 51.716392 173.52 
L 77.496531 173.52 
L 77.496531 164.202353 
L 51.716392 164.202353 
z
" clip-path="url(#p183c796393)" style="fill: #ff0000; fill-opacity: 0.6; stroke: #000000; stroke-linejoin: miter"/>
   </g>
   <g id="patch_54">
    <path d="M 77.496531 173.52 
L 103.276671 173.52 
L 103.276671 167.929412 
L 77.496531 167.929412 
z
" clip-path="url(#p183c796393)" style="fill: #ff0000; fill-opacity: 0.6; stroke: #000000; stroke-linejoin: miter"/>
   </g>
   <g id="patch_55">
    <path d="M 103.276671 173.52 
L 129.05681 173.52 
L 129.05681 173.52 
L 103.276671 173.52 
z
" clip-path="url(#p183c796393)" style="fill: #ff0000; fill-opacity: 0.6; stroke: #000000; stroke-linejoin: miter"/>
   </g>
   <g id="patch_56">
    <path d="M 129.05681 173.52 
L 154.836949 173.52 
L 154.836949 171.656471 
L 129.05681 171.656471 
z
" clip-path="url(#p183c796393)" style="fill: #ff0000; fill-opacity: 0.6; stroke: #000000; stroke-linejoin: miter"/>
   </g>
   <g id="patch_57">
    <path d="M 154.836949 173.52 
L 180.617088 173.52 
L 180.617088 169.792941 
L 154.836949 169.792941 
z
" clip-path="url(#p183c796393)" style="fill: #ff0000; fill-opacity: 0.6; stroke: #000000; stroke-linejoin: miter"/>
   </g>
   <g id="patch_58">
    <path d="M 180.617088 173.52 
L 206.397228 173.52 
L 206.397228 160.475294 
L 180.617088 160.475294 
z
" clip-path="url(#p183c796393)" style="fill: #ff0000; fill-opacity: 0.6; stroke: #000000; stroke-linejoin: miter"/>
   </g>
   <g id="matplotlib.axis_1">
    <g id="xtick_1">
     <g id="line2d_1">
      <defs>
       <path id="mf118dc3f9a" d="M 0 0 
L 0 3.5 
" style="stroke: #000000; stroke-width: 0.8"/>
      </defs>
      <g>
       <use xlink:href="#mf118dc3f9a" x="51.74169" y="173.52" style="stroke: #000000; stroke-width: 0.8"/>
      </g>
     </g>
     <g id="text_1">
      <!-- −30 -->
      <g transform="translate(41.189347 188.118437) scale(0.1 -0.1)">
       <defs>
        <path id="DejaVuSans-2212" d="M 678 2272 
L 4684 2272 
L 4684 1741 
L 678 1741 
L 678 2272 
z
" transform="scale(0.015625)"/>
        <path id="DejaVuSans-33" d="M 2597 2516 
Q 3050 2419 3304 2112 
Q 3559 1806 3559 1356 
Q 3559 666 3084 287 
Q 2609 -91 1734 -91 
Q 1441 -91 1130 -33 
Q 819 25 488 141 
L 488 750 
Q 750 597 1062 519 
Q 1375 441 1716 441 
Q 2309 441 2620 675 
Q 2931 909 2931 1356 
Q 2931 1769 2642 2001 
Q 2353 2234 1838 2234 
L 1294 2234 
L 1294 2753 
L 1863 2753 
Q 2328 2753 2575 2939 
Q 2822 3125 2822 3475 
Q 2822 3834 2567 4026 
Q 2313 4219 1838 4219 
Q 1578 4219 1281 4162 
Q 984 4106 628 3988 
L 628 4550 
Q 988 4650 1302 4700 
Q 1616 4750 1894 4750 
Q 2613 4750 3031 4423 
Q 3450 4097 3450 3541 
Q 3450 3153 3228 2886 
Q 3006 2619 2597 2516 
z
" transform="scale(0.015625)"/>
        <path id="DejaVuSans-30" d="M 2034 4250 
Q 1547 4250 1301 3770 
Q 1056 3291 1056 2328 
Q 1056 1369 1301 889 
Q 1547 409 2034 409 
Q 2525 409 2770 889 
Q 3016 1369 3016 2328 
Q 3016 3291 2770 3770 
Q 2525 4250 2034 4250 
z
M 2034 4750 
Q 2819 4750 3233 4129 
Q 3647 3509 3647 2328 
Q 3647 1150 3233 529 
Q 2819 -91 2034 -91 
Q 1250 -91 836 529 
Q 422 1150 422 2328 
Q 422 3509 836 4129 
Q 1250 4750 2034 4750 
z
" transform="scale(0.015625)"/>
       </defs>
       <use xlink:href="#DejaVuSans-2212"/>
       <use xlink:href="#DejaVuSans-33" x="83.789062"/>
       <use xlink:href="#DejaVuSans-30" x="147.412109"/>
      </g>
     </g>
    </g>
    <g id="xtick_2">
     <g id="line2d_2">
      <g>
       <use xlink:href="#mf118dc3f9a" x="105.33925" y="173.52" style="stroke: #000000; stroke-width: 0.8"/>
      </g>
     </g>
     <g id="text_2">
      <!-- −20 -->
      <g transform="translate(94.786907 188.118437) scale(0.1 -0.1)">
       <defs>
        <path id="DejaVuSans-32" d="M 1228 531 
L 3431 531 
L 3431 0 
L 469 0 
L 469 531 
Q 828 903 1448 1529 
Q 2069 2156 2228 2338 
Q 2531 2678 2651 2914 
Q 2772 3150 2772 3378 
Q 2772 3750 2511 3984 
Q 2250 4219 1831 4219 
Q 1534 4219 1204 4116 
Q 875 4013 500 3803 
L 500 4441 
Q 881 4594 1212 4672 
Q 1544 4750 1819 4750 
Q 2544 4750 2975 4387 
Q 3406 4025 3406 3419 
Q 3406 3131 3298 2873 
Q 3191 2616 2906 2266 
Q 2828 2175 2409 1742 
Q 1991 1309 1228 531 
z
" transform="scale(0.015625)"/>
       </defs>
       <use xlink:href="#DejaVuSans-2212"/>
       <use xlink:href="#DejaVuSans-32" x="83.789062"/>
       <use xlink:href="#DejaVuSans-30" x="147.412109"/>
      </g>
     </g>
    </g>
    <g id="xtick_3">
     <g id="line2d_3">
      <g>
       <use xlink:href="#mf118dc3f9a" x="158.93681" y="173.52" style="stroke: #000000; stroke-width: 0.8"/>
      </g>
     </g>
     <g id="text_3">
      <!-- −10 -->
      <g transform="translate(148.384467 188.118437) scale(0.1 -0.1)">
       <defs>
        <path id="DejaVuSans-31" d="M 794 531 
L 1825 531 
L 1825 4091 
L 703 3866 
L 703 4441 
L 1819 4666 
L 2450 4666 
L 2450 531 
L 3481 531 
L 3481 0 
L 794 0 
L 794 531 
z
" transform="scale(0.015625)"/>
       </defs>
       <use xlink:href="#DejaVuSans-2212"/>
       <use xlink:href="#DejaVuSans-31" x="83.789062"/>
       <use xlink:href="#DejaVuSans-30" x="147.412109"/>
      </g>
     </g>
    </g>
    <g id="xtick_4">
     <g id="line2d_4">
      <g>
       <use xlink:href="#mf118dc3f9a" x="212.53437" y="173.52" style="stroke: #000000; stroke-width: 0.8"/>
      </g>
     </g>
     <g id="text_4">
      <!-- 0 -->
      <g transform="translate(209.35312 188.118437) scale(0.1 -0.1)">
       <use xlink:href="#DejaVuSans-30"/>
      </g>
     </g>
    </g>
    <g id="text_5">
     <!-- ArcA Activity -->
     <g transform="translate(118.167734 202.556406) scale(0.11 -0.11)">
      <defs>
       <path id="DejaVuSans-41" d="M 2188 4044 
L 1331 1722 
L 3047 1722 
L 2188 4044 
z
M 1831 4666 
L 2547 4666 
L 4325 0 
L 3669 0 
L 3244 1197 
L 1141 1197 
L 716 0 
L 50 0 
L 1831 4666 
z
" transform="scale(0.015625)"/>
       <path id="DejaVuSans-72" d="M 2631 2963 
Q 2534 3019 2420 3045 
Q 2306 3072 2169 3072 
Q 1681 3072 1420 2755 
Q 1159 2438 1159 1844 
L 1159 0 
L 581 0 
L 581 3500 
L 1159 3500 
L 1159 2956 
Q 1341 3275 1631 3429 
Q 1922 3584 2338 3584 
Q 2397 3584 2469 3576 
Q 2541 3569 2628 3553 
L 2631 2963 
z
" transform="scale(0.015625)"/>
       <path id="DejaVuSans-63" d="M 3122 3366 
L 3122 2828 
Q 2878 2963 2633 3030 
Q 2388 3097 2138 3097 
Q 1578 3097 1268 2742 
Q 959 2388 959 1747 
Q 959 1106 1268 751 
Q 1578 397 2138 397 
Q 2388 397 2633 464 
Q 2878 531 3122 666 
L 3122 134 
Q 2881 22 2623 -34 
Q 2366 -91 2075 -91 
Q 1284 -91 818 406 
Q 353 903 353 1747 
Q 353 2603 823 3093 
Q 1294 3584 2113 3584 
Q 2378 3584 2631 3529 
Q 2884 3475 3122 3366 
z
" transform="scale(0.015625)"/>
       <path id="DejaVuSans-20" transform="scale(0.015625)"/>
       <path id="DejaVuSans-74" d="M 1172 4494 
L 1172 3500 
L 2356 3500 
L 2356 3053 
L 1172 3053 
L 1172 1153 
Q 1172 725 1289 603 
Q 1406 481 1766 481 
L 2356 481 
L 2356 0 
L 1766 0 
Q 1100 0 847 248 
Q 594 497 594 1153 
L 594 3053 
L 172 3053 
L 172 3500 
L 594 3500 
L 594 4494 
L 1172 4494 
z
" transform="scale(0.015625)"/>
       <path id="DejaVuSans-69" d="M 603 3500 
L 1178 3500 
L 1178 0 
L 603 0 
L 603 3500 
z
M 603 4863 
L 1178 4863 
L 1178 4134 
L 603 4134 
L 603 4863 
z
" transform="scale(0.015625)"/>
       <path id="DejaVuSans-76" d="M 191 3500 
L 800 3500 
L 1894 563 
L 2988 3500 
L 3597 3500 
L 2284 0 
L 1503 0 
L 191 3500 
z
" transform="scale(0.015625)"/>
       <path id="DejaVuSans-79" d="M 2059 -325 
Q 1816 -950 1584 -1140 
Q 1353 -1331 966 -1331 
L 506 -1331 
L 506 -850 
L 844 -850 
Q 1081 -850 1212 -737 
Q 1344 -625 1503 -206 
L 1606 56 
L 191 3500 
L 800 3500 
L 1894 763 
L 2988 3500 
L 3597 3500 
L 2059 -325 
z
" transform="scale(0.015625)"/>
      </defs>
      <use xlink:href="#DejaVuSans-41"/>
      <use xlink:href="#DejaVuSans-72" x="68.408203"/>
      <use xlink:href="#DejaVuSans-63" x="107.271484"/>
      <use xlink:href="#DejaVuSans-41" x="162.251953"/>
      <use xlink:href="#DejaVuSans-20" x="230.660156"/>
      <use xlink:href="#DejaVuSans-41" x="262.447266"/>
      <use xlink:href="#DejaVuSans-63" x="329.105469"/>
      <use xlink:href="#DejaVuSans-74" x="384.085938"/>
      <use xlink:href="#DejaVuSans-69" x="423.294922"/>
      <use xlink:href="#DejaVuSans-76" x="451.078125"/>
      <use xlink:href="#DejaVuSans-69" x="510.257812"/>
      <use xlink:href="#DejaVuSans-74" x="538.041016"/>
      <use xlink:href="#DejaVuSans-79" x="577.25"/>
     </g>
    </g>
   </g>
   <g id="matplotlib.axis_2">
    <g id="ytick_1">
     <g id="line2d_5">
      <defs>
       <path id="m047bbc0173" d="M 0 0 
L -3.5 0 
" style="stroke: #000000; stroke-width: 0.8"/>
      </defs>
      <g>
       <use xlink:href="#m047bbc0173" x="41.570938" y="173.52" style="stroke: #000000; stroke-width: 0.8"/>
      </g>
     </g>
     <g id="text_6">
      <!-- 0 -->
      <g transform="translate(28.208438 177.319219) scale(0.1 -0.1)">
       <use xlink:href="#DejaVuSans-30"/>
      </g>
     </g>
    </g>
    <g id="ytick_2">
     <g id="line2d_6">
      <g>
       <use xlink:href="#m047bbc0173" x="41.570938" y="136.249412" style="stroke: #000000; stroke-width: 0.8"/>
      </g>
     </g>
     <g id="text_7">
      <!-- 20 -->
      <g transform="translate(21.845938 140.048631) scale(0.1 -0.1)">
       <use xlink:href="#DejaVuSans-32"/>
       <use xlink:href="#DejaVuSans-30" x="63.623047"/>
      </g>
     </g>
    </g>
    <g id="ytick_3">
     <g id="line2d_7">
      <g>
       <use xlink:href="#m047bbc0173" x="41.570938" y="98.978824" style="stroke: #000000; stroke-width: 0.8"/>
      </g>
     </g>
     <g id="text_8">
      <!-- 40 -->
      <g transform="translate(21.845938 102.778042) scale(0.1 -0.1)">
       <defs>
        <path id="DejaVuSans-34" d="M 2419 4116 
L 825 1625 
L 2419 1625 
L 2419 4116 
z
M 2253 4666 
L 3047 4666 
L 3047 1625 
L 3713 1625 
L 3713 1100 
L 3047 1100 
L 3047 0 
L 2419 0 
L 2419 1100 
L 313 1100 
L 313 1709 
L 2253 4666 
z
" transform="scale(0.015625)"/>
       </defs>
       <use xlink:href="#DejaVuSans-34"/>
       <use xlink:href="#DejaVuSans-30" x="63.623047"/>
      </g>
     </g>
    </g>
    <g id="ytick_4">
     <g id="line2d_8">
      <g>
       <use xlink:href="#m047bbc0173" x="41.570938" y="61.708235" style="stroke: #000000; stroke-width: 0.8"/>
      </g>
     </g>
     <g id="text_9">
      <!-- 60 -->
      <g transform="translate(21.845938 65.507454) scale(0.1 -0.1)">
       <defs>
        <path id="DejaVuSans-36" d="M 2113 2584 
Q 1688 2584 1439 2293 
Q 1191 2003 1191 1497 
Q 1191 994 1439 701 
Q 1688 409 2113 409 
Q 2538 409 2786 701 
Q 3034 994 3034 1497 
Q 3034 2003 2786 2293 
Q 2538 2584 2113 2584 
z
M 3366 4563 
L 3366 3988 
Q 3128 4100 2886 4159 
Q 2644 4219 2406 4219 
Q 1781 4219 1451 3797 
Q 1122 3375 1075 2522 
Q 1259 2794 1537 2939 
Q 1816 3084 2150 3084 
Q 2853 3084 3261 2657 
Q 3669 2231 3669 1497 
Q 3669 778 3244 343 
Q 2819 -91 2113 -91 
Q 1303 -91 875 529 
Q 447 1150 447 2328 
Q 447 3434 972 4092 
Q 1497 4750 2381 4750 
Q 2619 4750 2861 4703 
Q 3103 4656 3366 4563 
z
" transform="scale(0.015625)"/>
       </defs>
       <use xlink:href="#DejaVuSans-36"/>
       <use xlink:href="#DejaVuSans-30" x="63.623047"/>
      </g>
     </g>
    </g>
    <g id="ytick_5">
     <g id="line2d_9">
      <g>
       <use xlink:href="#m047bbc0173" x="41.570938" y="24.437647" style="stroke: #000000; stroke-width: 0.8"/>
      </g>
     </g>
     <g id="text_10">
      <!-- 80 -->
      <g transform="translate(21.845938 28.236866) scale(0.1 -0.1)">
       <defs>
        <path id="DejaVuSans-38" d="M 2034 2216 
Q 1584 2216 1326 1975 
Q 1069 1734 1069 1313 
Q 1069 891 1326 650 
Q 1584 409 2034 409 
Q 2484 409 2743 651 
Q 3003 894 3003 1313 
Q 3003 1734 2745 1975 
Q 2488 2216 2034 2216 
z
M 1403 2484 
Q 997 2584 770 2862 
Q 544 3141 544 3541 
Q 544 4100 942 4425 
Q 1341 4750 2034 4750 
Q 2731 4750 3128 4425 
Q 3525 4100 3525 3541 
Q 3525 3141 3298 2862 
Q 3072 2584 2669 2484 
Q 3125 2378 3379 2068 
Q 3634 1759 3634 1313 
Q 3634 634 3220 271 
Q 2806 -91 2034 -91 
Q 1263 -91 848 271 
Q 434 634 434 1313 
Q 434 1759 690 2068 
Q 947 2378 1403 2484 
z
M 1172 3481 
Q 1172 3119 1398 2916 
Q 1625 2713 2034 2713 
Q 2441 2713 2670 2916 
Q 2900 3119 2900 3481 
Q 2900 3844 2670 4047 
Q 2441 4250 2034 4250 
Q 1625 4250 1398 4047 
Q 1172 3844 1172 3481 
z
" transform="scale(0.015625)"/>
       </defs>
       <use xlink:href="#DejaVuSans-38"/>
       <use xlink:href="#DejaVuSans-30" x="63.623047"/>
      </g>
     </g>
    </g>
    <g id="text_11">
     <!-- # of Samples -->
     <g transform="translate(15.558281 127.254688) rotate(-90) scale(0.11 -0.11)">
      <defs>
       <path id="DejaVuSans-23" d="M 3272 2816 
L 2363 2816 
L 2100 1772 
L 3016 1772 
L 3272 2816 
z
M 2803 4594 
L 2478 3297 
L 3391 3297 
L 3719 4594 
L 4219 4594 
L 3897 3297 
L 4872 3297 
L 4872 2816 
L 3775 2816 
L 3519 1772 
L 4513 1772 
L 4513 1294 
L 3397 1294 
L 3072 0 
L 2572 0 
L 2894 1294 
L 1978 1294 
L 1656 0 
L 1153 0 
L 1478 1294 
L 494 1294 
L 494 1772 
L 1594 1772 
L 1856 2816 
L 850 2816 
L 850 3297 
L 1978 3297 
L 2297 4594 
L 2803 4594 
z
" transform="scale(0.015625)"/>
       <path id="DejaVuSans-6f" d="M 1959 3097 
Q 1497 3097 1228 2736 
Q 959 2375 959 1747 
Q 959 1119 1226 758 
Q 1494 397 1959 397 
Q 2419 397 2687 759 
Q 2956 1122 2956 1747 
Q 2956 2369 2687 2733 
Q 2419 3097 1959 3097 
z
M 1959 3584 
Q 2709 3584 3137 3096 
Q 3566 2609 3566 1747 
Q 3566 888 3137 398 
Q 2709 -91 1959 -91 
Q 1206 -91 779 398 
Q 353 888 353 1747 
Q 353 2609 779 3096 
Q 1206 3584 1959 3584 
z
" transform="scale(0.015625)"/>
       <path id="DejaVuSans-66" d="M 2375 4863 
L 2375 4384 
L 1825 4384 
Q 1516 4384 1395 4259 
Q 1275 4134 1275 3809 
L 1275 3500 
L 2222 3500 
L 2222 3053 
L 1275 3053 
L 1275 0 
L 697 0 
L 697 3053 
L 147 3053 
L 147 3500 
L 697 3500 
L 697 3744 
Q 697 4328 969 4595 
Q 1241 4863 1831 4863 
L 2375 4863 
z
" transform="scale(0.015625)"/>
       <path id="DejaVuSans-53" d="M 3425 4513 
L 3425 3897 
Q 3066 4069 2747 4153 
Q 2428 4238 2131 4238 
Q 1616 4238 1336 4038 
Q 1056 3838 1056 3469 
Q 1056 3159 1242 3001 
Q 1428 2844 1947 2747 
L 2328 2669 
Q 3034 2534 3370 2195 
Q 3706 1856 3706 1288 
Q 3706 609 3251 259 
Q 2797 -91 1919 -91 
Q 1588 -91 1214 -16 
Q 841 59 441 206 
L 441 856 
Q 825 641 1194 531 
Q 1563 422 1919 422 
Q 2459 422 2753 634 
Q 3047 847 3047 1241 
Q 3047 1584 2836 1778 
Q 2625 1972 2144 2069 
L 1759 2144 
Q 1053 2284 737 2584 
Q 422 2884 422 3419 
Q 422 4038 858 4394 
Q 1294 4750 2059 4750 
Q 2388 4750 2728 4690 
Q 3069 4631 3425 4513 
z
" transform="scale(0.015625)"/>
       <path id="DejaVuSans-61" d="M 2194 1759 
Q 1497 1759 1228 1600 
Q 959 1441 959 1056 
Q 959 750 1161 570 
Q 1363 391 1709 391 
Q 2188 391 2477 730 
Q 2766 1069 2766 1631 
L 2766 1759 
L 2194 1759 
z
M 3341 1997 
L 3341 0 
L 2766 0 
L 2766 531 
Q 2569 213 2275 61 
Q 1981 -91 1556 -91 
Q 1019 -91 701 211 
Q 384 513 384 1019 
Q 384 1609 779 1909 
Q 1175 2209 1959 2209 
L 2766 2209 
L 2766 2266 
Q 2766 2663 2505 2880 
Q 2244 3097 1772 3097 
Q 1472 3097 1187 3025 
Q 903 2953 641 2809 
L 641 3341 
Q 956 3463 1253 3523 
Q 1550 3584 1831 3584 
Q 2591 3584 2966 3190 
Q 3341 2797 3341 1997 
z
" transform="scale(0.015625)"/>
       <path id="DejaVuSans-6d" d="M 3328 2828 
Q 3544 3216 3844 3400 
Q 4144 3584 4550 3584 
Q 5097 3584 5394 3201 
Q 5691 2819 5691 2113 
L 5691 0 
L 5113 0 
L 5113 2094 
Q 5113 2597 4934 2840 
Q 4756 3084 4391 3084 
Q 3944 3084 3684 2787 
Q 3425 2491 3425 1978 
L 3425 0 
L 2847 0 
L 2847 2094 
Q 2847 2600 2669 2842 
Q 2491 3084 2119 3084 
Q 1678 3084 1418 2786 
Q 1159 2488 1159 1978 
L 1159 0 
L 581 0 
L 581 3500 
L 1159 3500 
L 1159 2956 
Q 1356 3278 1631 3431 
Q 1906 3584 2284 3584 
Q 2666 3584 2933 3390 
Q 3200 3197 3328 2828 
z
" transform="scale(0.015625)"/>
       <path id="DejaVuSans-70" d="M 1159 525 
L 1159 -1331 
L 581 -1331 
L 581 3500 
L 1159 3500 
L 1159 2969 
Q 1341 3281 1617 3432 
Q 1894 3584 2278 3584 
Q 2916 3584 3314 3078 
Q 3713 2572 3713 1747 
Q 3713 922 3314 415 
Q 2916 -91 2278 -91 
Q 1894 -91 1617 61 
Q 1341 213 1159 525 
z
M 3116 1747 
Q 3116 2381 2855 2742 
Q 2594 3103 2138 3103 
Q 1681 3103 1420 2742 
Q 1159 2381 1159 1747 
Q 1159 1113 1420 752 
Q 1681 391 2138 391 
Q 2594 391 2855 752 
Q 3116 1113 3116 1747 
z
" transform="scale(0.015625)"/>
       <path id="DejaVuSans-6c" d="M 603 4863 
L 1178 4863 
L 1178 0 
L 603 0 
L 603 4863 
z
" transform="scale(0.015625)"/>
       <path id="DejaVuSans-65" d="M 3597 1894 
L 3597 1613 
L 953 1613 
Q 991 1019 1311 708 
Q 1631 397 2203 397 
Q 2534 397 2845 478 
Q 3156 559 3463 722 
L 3463 178 
Q 3153 47 2828 -22 
Q 2503 -91 2169 -91 
Q 1331 -91 842 396 
Q 353 884 353 1716 
Q 353 2575 817 3079 
Q 1281 3584 2069 3584 
Q 2775 3584 3186 3129 
Q 3597 2675 3597 1894 
z
M 3022 2063 
Q 3016 2534 2758 2815 
Q 2500 3097 2075 3097 
Q 1594 3097 1305 2825 
Q 1016 2553 972 2059 
L 3022 2063 
z
" transform="scale(0.015625)"/>
       <path id="DejaVuSans-73" d="M 2834 3397 
L 2834 2853 
Q 2591 2978 2328 3040 
Q 2066 3103 1784 3103 
Q 1356 3103 1142 2972 
Q 928 2841 928 2578 
Q 928 2378 1081 2264 
Q 1234 2150 1697 2047 
L 1894 2003 
Q 2506 1872 2764 1633 
Q 3022 1394 3022 966 
Q 3022 478 2636 193 
Q 2250 -91 1575 -91 
Q 1294 -91 989 -36 
Q 684 19 347 128 
L 347 722 
Q 666 556 975 473 
Q 1284 391 1588 391 
Q 1994 391 2212 530 
Q 2431 669 2431 922 
Q 2431 1156 2273 1281 
Q 2116 1406 1581 1522 
L 1381 1569 
Q 847 1681 609 1914 
Q 372 2147 372 2553 
Q 372 3047 722 3315 
Q 1072 3584 1716 3584 
Q 2034 3584 2315 3537 
Q 2597 3491 2834 3397 
z
" transform="scale(0.015625)"/>
      </defs>
      <use xlink:href="#DejaVuSans-23"/>
      <use xlink:href="#DejaVuSans-20" x="83.789062"/>
      <use xlink:href="#DejaVuSans-6f" x="115.576172"/>
      <use xlink:href="#DejaVuSans-66" x="176.757812"/>
      <use xlink:href="#DejaVuSans-20" x="211.962891"/>
      <use xlink:href="#DejaVuSans-53" x="243.75"/>
      <use xlink:href="#DejaVuSans-61" x="307.226562"/>
      <use xlink:href="#DejaVuSans-6d" x="368.505859"/>
      <use xlink:href="#DejaVuSans-70" x="465.917969"/>
      <use xlink:href="#DejaVuSans-6c" x="529.394531"/>
      <use xlink:href="#DejaVuSans-65" x="557.177734"/>
      <use xlink:href="#DejaVuSans-73" x="618.701172"/>
     </g>
    </g>
   </g>
   <g id="patch_59">
    <path d="M 41.570938 173.52 
L 41.570938 7.2 
" style="fill: none; stroke: #000000; stroke-width: 0.8; stroke-linejoin: miter; stroke-linecap: square"/>
   </g>
   <g id="patch_60">
    <path d="M 264.770938 173.52 
L 264.770938 7.2 
" style="fill: none; stroke: #000000; stroke-width: 0.8; stroke-linejoin: miter; stroke-linecap: square"/>
   </g>
   <g id="patch_61">
    <path d="M 41.570937 173.52 
L 264.770937 173.52 
" style="fill: none; stroke: #000000; stroke-width: 0.8; stroke-linejoin: miter; stroke-linecap: square"/>
   </g>
   <g id="patch_62">
    <path d="M 41.570937 7.2 
L 264.770937 7.2 
" style="fill: none; stroke: #000000; stroke-width: 0.8; stroke-linejoin: miter; stroke-linecap: square"/>
   </g>
   <g id="legend_1">
    <g id="patch_63">
     <path d="M 48.570938 44.55625 
L 150.669375 44.55625 
Q 152.669375 44.55625 152.669375 42.55625 
L 152.669375 14.2 
Q 152.669375 12.2 150.669375 12.2 
L 48.570938 12.2 
Q 46.570938 12.2 46.570938 14.2 
L 46.570938 42.55625 
Q 46.570938 44.55625 48.570938 44.55625 
z
" style="fill: #ffffff; opacity: 0.8; stroke: #cccccc; stroke-linejoin: miter"/>
    </g>
    <g id="patch_64">
     <path d="M 50.570938 23.798438 
L 70.570938 23.798438 
L 70.570938 16.798438 
L 50.570938 16.798438 
z
" style="fill: #808080; fill-opacity: 0.75; stroke: #000000; stroke-width: 0.405818; stroke-linejoin: miter"/>
    </g>
    <g id="text_12">
     <!-- P1K (n=1035) -->
     <g transform="translate(78.570938 23.798438) scale(0.1 -0.1)">
      <defs>
       <path id="DejaVuSans-50" d="M 1259 4147 
L 1259 2394 
L 2053 2394 
Q 2494 2394 2734 2622 
Q 2975 2850 2975 3272 
Q 2975 3691 2734 3919 
Q 2494 4147 2053 4147 
L 1259 4147 
z
M 628 4666 
L 2053 4666 
Q 2838 4666 3239 4311 
Q 3641 3956 3641 3272 
Q 3641 2581 3239 2228 
Q 2838 1875 2053 1875 
L 1259 1875 
L 1259 0 
L 628 0 
L 628 4666 
z
" transform="scale(0.015625)"/>
       <path id="DejaVuSans-4b" d="M 628 4666 
L 1259 4666 
L 1259 2694 
L 3353 4666 
L 4166 4666 
L 1850 2491 
L 4331 0 
L 3500 0 
L 1259 2247 
L 1259 0 
L 628 0 
L 628 4666 
z
" transform="scale(0.015625)"/>
       <path id="DejaVuSans-28" d="M 1984 4856 
Q 1566 4138 1362 3434 
Q 1159 2731 1159 2009 
Q 1159 1288 1364 580 
Q 1569 -128 1984 -844 
L 1484 -844 
Q 1016 -109 783 600 
Q 550 1309 550 2009 
Q 550 2706 781 3412 
Q 1013 4119 1484 4856 
L 1984 4856 
z
" transform="scale(0.015625)"/>
       <path id="DejaVuSans-6e" d="M 3513 2113 
L 3513 0 
L 2938 0 
L 2938 2094 
Q 2938 2591 2744 2837 
Q 2550 3084 2163 3084 
Q 1697 3084 1428 2787 
Q 1159 2491 1159 1978 
L 1159 0 
L 581 0 
L 581 3500 
L 1159 3500 
L 1159 2956 
Q 1366 3272 1645 3428 
Q 1925 3584 2291 3584 
Q 2894 3584 3203 3211 
Q 3513 2838 3513 2113 
z
" transform="scale(0.015625)"/>
       <path id="DejaVuSans-3d" d="M 678 2906 
L 4684 2906 
L 4684 2381 
L 678 2381 
L 678 2906 
z
M 678 1631 
L 4684 1631 
L 4684 1100 
L 678 1100 
L 678 1631 
z
" transform="scale(0.015625)"/>
       <path id="DejaVuSans-35" d="M 691 4666 
L 3169 4666 
L 3169 4134 
L 1269 4134 
L 1269 2991 
Q 1406 3038 1543 3061 
Q 1681 3084 1819 3084 
Q 2600 3084 3056 2656 
Q 3513 2228 3513 1497 
Q 3513 744 3044 326 
Q 2575 -91 1722 -91 
Q 1428 -91 1123 -41 
Q 819 9 494 109 
L 494 744 
Q 775 591 1075 516 
Q 1375 441 1709 441 
Q 2250 441 2565 725 
Q 2881 1009 2881 1497 
Q 2881 1984 2565 2268 
Q 2250 2553 1709 2553 
Q 1456 2553 1204 2497 
Q 953 2441 691 2322 
L 691 4666 
z
" transform="scale(0.015625)"/>
       <path id="DejaVuSans-29" d="M 513 4856 
L 1013 4856 
Q 1481 4119 1714 3412 
Q 1947 2706 1947 2009 
Q 1947 1309 1714 600 
Q 1481 -109 1013 -844 
L 513 -844 
Q 928 -128 1133 580 
Q 1338 1288 1338 2009 
Q 1338 2731 1133 3434 
Q 928 4138 513 4856 
z
" transform="scale(0.015625)"/>
      </defs>
      <use xlink:href="#DejaVuSans-50"/>
      <use xlink:href="#DejaVuSans-31" x="60.302734"/>
      <use xlink:href="#DejaVuSans-4b" x="123.925781"/>
      <use xlink:href="#DejaVuSans-20" x="189.501953"/>
      <use xlink:href="#DejaVuSans-28" x="221.289062"/>
      <use xlink:href="#DejaVuSans-6e" x="260.302734"/>
      <use xlink:href="#DejaVuSans-3d" x="323.681641"/>
      <use xlink:href="#DejaVuSans-31" x="407.470703"/>
      <use xlink:href="#DejaVuSans-30" x="471.09375"/>
      <use xlink:href="#DejaVuSans-33" x="534.716797"/>
      <use xlink:href="#DejaVuSans-35" x="598.339844"/>
      <use xlink:href="#DejaVuSans-29" x="661.962891"/>
     </g>
    </g>
    <g id="patch_65">
     <path d="M 50.570938 38.476562 
L 70.570938 38.476562 
L 70.570938 31.476562 
L 50.570938 31.476562 
z
" style="fill: #ff0000; fill-opacity: 0.6; stroke: #000000; stroke-linejoin: miter"/>
    </g>
    <g id="text_13">
     <!-- aat (n=18) -->
     <g transform="translate(78.570938 38.476562) scale(0.1 -0.1)">
      <use xlink:href="#DejaVuSans-61"/>
      <use xlink:href="#DejaVuSans-61" x="61.279297"/>
      <use xlink:href="#DejaVuSans-74" x="122.558594"/>
      <use xlink:href="#DejaVuSans-20" x="161.767578"/>
      <use xlink:href="#DejaVuSans-28" x="193.554688"/>
      <use xlink:href="#DejaVuSans-6e" x="232.568359"/>
      <use xlink:href="#DejaVuSans-3d" x="295.947266"/>
      <use xlink:href="#DejaVuSans-31" x="379.736328"/>
      <use xlink:href="#DejaVuSans-38" x="443.359375"/>
      <use xlink:href="#DejaVuSans-29" x="506.982422"/>
     </g>
    </g>
   </g>
  </g>
 </g>
 <defs>
  <clipPath id="p183c796393">
   <rect x="41.570938" y="7.2" width="223.2" height="166.32"/>
  </clipPath>
 </defs>
</svg>
