<?xml version="1.0" encoding="utf-8" standalone="no"?>
<!DOCTYPE svg PUBLIC "-//W3C//DTD SVG 1.1//EN"
  "http://www.w3.org/Graphics/SVG/1.1/DTD/svg11.dtd">
<svg xmlns:xlink="http://www.w3.org/1999/xlink" width="363.625pt" height="210.715625pt" viewBox="0 0 363.625 210.715625" xmlns="http://www.w3.org/2000/svg" version="1.1">
 <metadata>
  <rdf:RDF xmlns:dc="http://purl.org/dc/elements/1.1/" xmlns:cc="http://creativecommons.org/ns#" xmlns:rdf="http://www.w3.org/1999/02/22-rdf-syntax-ns#">
   <cc:Work>
    <dc:type rdf:resource="http://purl.org/dc/dcmitype/StillImage"/>
    <dc:date>2022-09-15T12:01:23.586457</dc:date>
    <dc:format>image/svg+xml</dc:format>
    <dc:creator>
     <cc:Agent>
      <dc:title>Matplotlib v3.5.1, https://matplotlib.org/</dc:title>
     </cc:Agent>
    </dc:creator>
   </cc:Work>
  </rdf:RDF>
 </metadata>
 <defs>
  <style type="text/css">*{stroke-linejoin: round; stroke-linecap: butt}</style>
 </defs>
 <g id="figure_1">
  <g id="patch_1">
   <path d="M 0 210.715625 
L 363.625 210.715625 
L 363.625 0 
L 0 0 
L 0 210.715625 
z
" style="fill: none"/>
  </g>
  <g id="axes_1">
   <g id="patch_2">
    <path d="M 133.225 170.28 
L 356.425 170.28 
L 356.425 7.2 
L 133.225 7.2 
z
" style="fill: #ffffff"/>
   </g>
   <g id="patch_3">
    <path d="M 133.225 51.676364 
L 257.787151 51.676364 
L 257.787151 14.612727 
L 133.225 14.612727 
z
" clip-path="url(#pde9ab584ad)" style="fill: #333399"/>
   </g>
   <g id="patch_4">
    <path d="M 257.787151 51.676364 
L 298.654204 51.676364 
L 298.654204 14.612727 
L 257.787151 14.612727 
z
" clip-path="url(#pde9ab584ad)" style="fill: #1c60c6"/>
   </g>
   <g id="patch_5">
    <path d="M 298.654204 51.676364 
L 317.558158 51.676364 
L 317.558158 14.612727 
L 298.654204 14.612727 
z
" clip-path="url(#pde9ab584ad)" style="fill: #068ef4"/>
   </g>
   <g id="patch_6">
    <path d="M 317.558158 51.676364 
L 331.049776 51.676364 
L 331.049776 14.612727 
L 317.558158 14.612727 
z
" clip-path="url(#pde9ab584ad)" style="fill: #00b2b2"/>
   </g>
   <g id="patch_7">
    <path d="M 331.049776 51.676364 
L 334.57956 51.676364 
L 334.57956 14.612727 
L 331.049776 14.612727 
z
" clip-path="url(#pde9ab584ad)" style="fill: #11cf69"/>
   </g>
   <g id="patch_8">
    <path d="M 334.57956 51.676364 
L 337.795585 51.676364 
L 337.795585 14.612727 
L 334.57956 14.612727 
z
" clip-path="url(#pde9ab584ad)" style="fill: #55dd77"/>
   </g>
   <g id="patch_9">
    <path d="M 337.795585 51.676364 
L 340.697852 51.676364 
L 340.697852 14.612727 
L 337.795585 14.612727 
z
" clip-path="url(#pde9ab584ad)" style="fill: #99eb85"/>
   </g>
   <g id="patch_10">
    <path d="M 340.697852 51.676364 
L 342.737283 51.676364 
L 342.737283 14.612727 
L 340.697852 14.612727 
z
" clip-path="url(#pde9ab584ad)" style="fill: #ddf892"/>
   </g>
   <g id="patch_11">
    <path d="M 342.737283 51.676364 
L 344.149196 51.676364 
L 344.149196 14.612727 
L 342.737283 14.612727 
z
" clip-path="url(#pde9ab584ad)" style="fill: #eee990"/>
   </g>
   <g id="patch_12">
    <path d="M 344.149196 51.676364 
L 344.855153 51.676364 
L 344.855153 14.612727 
L 344.149196 14.612727 
z
" clip-path="url(#pde9ab584ad)" style="fill: #ccbe7d"/>
   </g>
   <g id="patch_13">
    <path d="M 344.855153 51.676364 
L 345.090472 51.676364 
L 345.090472 14.612727 
L 344.855153 14.612727 
z
" clip-path="url(#pde9ab584ad)" style="fill: #aa926b"/>
   </g>
   <g id="patch_14">
    <path d="M 345.090472 51.676364 
L 345.325791 51.676364 
L 345.325791 14.612727 
L 345.090472 14.612727 
z
" clip-path="url(#pde9ab584ad)" style="fill: #886759"/>
   </g>
   <g id="patch_15">
    <path d="M 345.325791 51.676364 
L 345.56111 51.676364 
L 345.56111 14.612727 
L 345.325791 14.612727 
z
" clip-path="url(#pde9ab584ad)" style="fill: #997c76"/>
   </g>
   <g id="patch_16">
    <path d="M 345.56111 51.676364 
L 345.717989 51.676364 
L 345.717989 14.612727 
L 345.56111 14.612727 
z
" clip-path="url(#pde9ab584ad)" style="fill: #bba8a4"/>
   </g>
   <g id="patch_17">
    <path d="M 345.717989 51.676364 
L 345.796429 51.676364 
L 345.796429 14.612727 
L 345.717989 14.612727 
z
" clip-path="url(#pde9ab584ad)" style="fill: #ddd3d1"/>
   </g>
   <g id="patch_18">
    <path d="M 133.225 88.74 
L 225.2347 88.74 
L 225.2347 51.676364 
L 133.225 51.676364 
z
" clip-path="url(#pde9ab584ad)" style="fill: #9e0142"/>
   </g>
   <g id="patch_19">
    <path d="M 225.2347 88.74 
L 294.261584 88.74 
L 294.261584 51.676364 
L 225.2347 51.676364 
z
" clip-path="url(#pde9ab584ad)" style="fill: #d0384e"/>
   </g>
   <g id="patch_20">
    <path d="M 294.261584 88.74 
L 304.772496 88.74 
L 304.772496 51.676364 
L 294.261584 51.676364 
z
" clip-path="url(#pde9ab584ad)" style="fill: #ee6445"/>
   </g>
   <g id="patch_21">
    <path d="M 304.772496 88.74 
L 311.204547 88.74 
L 311.204547 51.676364 
L 304.772496 51.676364 
z
" clip-path="url(#pde9ab584ad)" style="fill: #fa9b58"/>
   </g>
   <g id="patch_22">
    <path d="M 311.204547 88.74 
L 314.499012 88.74 
L 314.499012 51.676364 
L 311.204547 51.676364 
z
" clip-path="url(#pde9ab584ad)" style="fill: #fece7c"/>
   </g>
   <g id="patch_23">
    <path d="M 314.499012 88.74 
L 316.695322 88.74 
L 316.695322 51.676364 
L 314.499012 51.676364 
z
" clip-path="url(#pde9ab584ad)" style="fill: #fff1a8"/>
   </g>
   <g id="patch_24">
    <path d="M 316.695322 88.74 
L 318.891632 88.74 
L 318.891632 51.676364 
L 316.695322 51.676364 
z
" clip-path="url(#pde9ab584ad)" style="fill: #f4faad"/>
   </g>
   <g id="patch_25">
    <path d="M 318.891632 88.74 
L 321.087941 88.74 
L 321.087941 51.676364 
L 318.891632 51.676364 
z
" clip-path="url(#pde9ab584ad)" style="fill: #d1ed9c"/>
   </g>
   <g id="patch_26">
    <path d="M 321.087941 88.74 
L 322.499855 88.74 
L 322.499855 51.676364 
L 321.087941 51.676364 
z
" clip-path="url(#pde9ab584ad)" style="fill: #97d5a4"/>
   </g>
   <g id="patch_27">
    <path d="M 322.499855 88.74 
L 323.59801 88.74 
L 323.59801 51.676364 
L 322.499855 51.676364 
z
" clip-path="url(#pde9ab584ad)" style="fill: #5cb7aa"/>
   </g>
   <g id="patch_28">
    <path d="M 323.59801 88.74 
L 323.990208 88.74 
L 323.990208 51.676364 
L 323.59801 51.676364 
z
" clip-path="url(#pde9ab584ad)" style="fill: #3682ba"/>
   </g>
   <g id="patch_29">
    <path d="M 323.990208 88.74 
L 345.796429 88.74 
L 345.796429 51.676364 
L 323.990208 51.676364 
z
" clip-path="url(#pde9ab584ad)" style="fill: #7f7f7f"/>
   </g>
   <g id="patch_30">
    <path d="M 133.225 125.803636 
L 304.537177 125.803636 
L 304.537177 88.74 
L 133.225 88.74 
z
" clip-path="url(#pde9ab584ad)"/>
   </g>
   <g id="patch_31">
    <path d="M 304.537177 125.803636 
L 319.28383 125.803636 
L 319.28383 88.74 
L 304.537177 88.74 
z
" clip-path="url(#pde9ab584ad)" style="fill: #2a0000"/>
   </g>
   <g id="patch_32">
    <path d="M 319.28383 125.803636 
L 320.695743 125.803636 
L 320.695743 88.74 
L 319.28383 88.74 
z
" clip-path="url(#pde9ab584ad)" style="fill: #540000"/>
   </g>
   <g id="patch_33">
    <path d="M 320.695743 125.803636 
L 321.715459 125.803636 
L 321.715459 88.74 
L 320.695743 88.74 
z
" clip-path="url(#pde9ab584ad)" style="fill: #800000"/>
   </g>
   <g id="patch_34">
    <path d="M 321.715459 125.803636 
L 322.735174 125.803636 
L 322.735174 88.74 
L 321.715459 88.74 
z
" clip-path="url(#pde9ab584ad)" style="fill: #aa0000"/>
   </g>
   <g id="patch_35">
    <path d="M 322.735174 125.803636 
L 323.284251 125.803636 
L 323.284251 88.74 
L 322.735174 88.74 
z
" clip-path="url(#pde9ab584ad)" style="fill: #d51d00"/>
   </g>
   <g id="patch_36">
    <path d="M 323.284251 125.803636 
L 323.754889 125.803636 
L 323.754889 88.74 
L 323.284251 88.74 
z
" clip-path="url(#pde9ab584ad)" style="fill: #ff5500"/>
   </g>
   <g id="patch_37">
    <path d="M 323.754889 125.803636 
L 323.990208 125.803636 
L 323.990208 88.74 
L 323.754889 88.74 
z
" clip-path="url(#pde9ab584ad)" style="fill: #ff8f1f"/>
   </g>
   <g id="patch_38">
    <path d="M 323.990208 125.803636 
L 324.225527 125.803636 
L 324.225527 88.74 
L 323.990208 88.74 
z
" clip-path="url(#pde9ab584ad)" style="fill: #ffc78f"/>
   </g>
   <g id="patch_39">
    <path d="M 324.225527 125.803636 
L 345.796429 125.803636 
L 345.796429 88.74 
L 324.225527 88.74 
z
" clip-path="url(#pde9ab584ad)" style="fill: #7f7f7f"/>
   </g>
   <g id="patch_40">
    <path d="M 133.225 162.867273 
L 290.574921 162.867273 
L 290.574921 125.803636 
L 133.225 125.803636 
z
" clip-path="url(#pde9ab584ad)" style="fill: #00ffff"/>
   </g>
   <g id="patch_41">
    <path d="M 290.574921 162.867273 
L 302.105548 162.867273 
L 302.105548 125.803636 
L 290.574921 125.803636 
z
" clip-path="url(#pde9ab584ad)" style="fill: #1ce3ff"/>
   </g>
   <g id="patch_42">
    <path d="M 302.105548 162.867273 
L 305.635332 162.867273 
L 305.635332 125.803636 
L 302.105548 125.803636 
z
" clip-path="url(#pde9ab584ad)" style="fill: #38c7ff"/>
   </g>
   <g id="patch_43">
    <path d="M 305.635332 162.867273 
L 308.145401 162.867273 
L 308.145401 125.803636 
L 305.635332 125.803636 
z
" clip-path="url(#pde9ab584ad)" style="fill: #55aaff"/>
   </g>
   <g id="patch_44">
    <path d="M 308.145401 162.867273 
L 310.263271 162.867273 
L 310.263271 125.803636 
L 308.145401 125.803636 
z
" clip-path="url(#pde9ab584ad)" style="fill: #718eff"/>
   </g>
   <g id="patch_45">
    <path d="M 310.263271 162.867273 
L 311.753624 162.867273 
L 311.753624 125.803636 
L 310.263271 125.803636 
z
" clip-path="url(#pde9ab584ad)" style="fill: #8e71ff"/>
   </g>
   <g id="patch_46">
    <path d="M 311.753624 162.867273 
L 312.851779 162.867273 
L 312.851779 125.803636 
L 311.753624 125.803636 
z
" clip-path="url(#pde9ab584ad)" style="fill: #aa55ff"/>
   </g>
   <g id="patch_47">
    <path d="M 312.851779 162.867273 
L 313.165538 162.867273 
L 313.165538 125.803636 
L 312.851779 125.803636 
z
" clip-path="url(#pde9ab584ad)" style="fill: #c738ff"/>
   </g>
   <g id="patch_48">
    <path d="M 313.165538 162.867273 
L 313.479296 162.867273 
L 313.479296 125.803636 
L 313.165538 125.803636 
z
" clip-path="url(#pde9ab584ad)" style="fill: #e31cff"/>
   </g>
   <g id="patch_49">
    <path d="M 313.479296 162.867273 
L 345.796429 162.867273 
L 345.796429 125.803636 
L 313.479296 125.803636 
z
" clip-path="url(#pde9ab584ad)" style="fill: #7f7f7f"/>
   </g>
   <g id="matplotlib.axis_1">
    <g id="xtick_1">
     <g id="line2d_1">
      <defs>
       <path id="mf6b87f7476" d="M 0 0 
L 0 3.5 
" style="stroke: #000000; stroke-width: 0.8"/>
      </defs>
      <g>
       <use xlink:href="#mf6b87f7476" x="133.225" y="170.28" style="stroke: #000000; stroke-width: 0.8"/>
      </g>
     </g>
     <g id="text_1">
      <!-- 0 -->
      <g transform="translate(129.888437 185.869375)scale(0.12 -0.12)">
       <defs>
        <path id="ArialMT-30" d="M 266 2259 
Q 266 3072 433 3567 
Q 600 4063 929 4331 
Q 1259 4600 1759 4600 
Q 2128 4600 2406 4451 
Q 2684 4303 2865 4023 
Q 3047 3744 3150 3342 
Q 3253 2941 3253 2259 
Q 3253 1453 3087 958 
Q 2922 463 2592 192 
Q 2263 -78 1759 -78 
Q 1097 -78 719 397 
Q 266 969 266 2259 
z
M 844 2259 
Q 844 1131 1108 757 
Q 1372 384 1759 384 
Q 2147 384 2411 759 
Q 2675 1134 2675 2259 
Q 2675 3391 2411 3762 
Q 2147 4134 1753 4134 
Q 1366 4134 1134 3806 
Q 844 3388 844 2259 
z
" transform="scale(0.015625)"/>
       </defs>
       <use xlink:href="#ArialMT-30"/>
      </g>
     </g>
    </g>
    <g id="xtick_2">
     <g id="line2d_2">
      <g>
       <use xlink:href="#mf6b87f7476" x="172.444821" y="170.28" style="stroke: #000000; stroke-width: 0.8"/>
      </g>
     </g>
     <g id="text_2">
      <!-- 500 -->
      <g transform="translate(162.435133 185.869375)scale(0.12 -0.12)">
       <defs>
        <path id="ArialMT-35" d="M 266 1200 
L 856 1250 
Q 922 819 1161 601 
Q 1400 384 1738 384 
Q 2144 384 2425 690 
Q 2706 997 2706 1503 
Q 2706 1984 2436 2262 
Q 2166 2541 1728 2541 
Q 1456 2541 1237 2417 
Q 1019 2294 894 2097 
L 366 2166 
L 809 4519 
L 3088 4519 
L 3088 3981 
L 1259 3981 
L 1013 2750 
Q 1425 3038 1878 3038 
Q 2478 3038 2890 2622 
Q 3303 2206 3303 1553 
Q 3303 931 2941 478 
Q 2500 -78 1738 -78 
Q 1113 -78 717 272 
Q 322 622 266 1200 
z
" transform="scale(0.015625)"/>
       </defs>
       <use xlink:href="#ArialMT-35"/>
       <use xlink:href="#ArialMT-30" x="55.615234"/>
       <use xlink:href="#ArialMT-30" x="111.230469"/>
      </g>
     </g>
    </g>
    <g id="xtick_3">
     <g id="line2d_3">
      <g>
       <use xlink:href="#mf6b87f7476" x="211.664642" y="170.28" style="stroke: #000000; stroke-width: 0.8"/>
      </g>
     </g>
     <g id="text_3">
      <!-- 1000 -->
      <g transform="translate(198.318392 185.869375)scale(0.12 -0.12)">
       <defs>
        <path id="ArialMT-31" d="M 2384 0 
L 1822 0 
L 1822 3584 
Q 1619 3391 1289 3197 
Q 959 3003 697 2906 
L 697 3450 
Q 1169 3672 1522 3987 
Q 1875 4303 2022 4600 
L 2384 4600 
L 2384 0 
z
" transform="scale(0.015625)"/>
       </defs>
       <use xlink:href="#ArialMT-31"/>
       <use xlink:href="#ArialMT-30" x="55.615234"/>
       <use xlink:href="#ArialMT-30" x="111.230469"/>
       <use xlink:href="#ArialMT-30" x="166.845703"/>
      </g>
     </g>
    </g>
    <g id="xtick_4">
     <g id="line2d_4">
      <g>
       <use xlink:href="#mf6b87f7476" x="250.884462" y="170.28" style="stroke: #000000; stroke-width: 0.8"/>
      </g>
     </g>
     <g id="text_4">
      <!-- 1500 -->
      <g transform="translate(237.538212 185.869375)scale(0.12 -0.12)">
       <use xlink:href="#ArialMT-31"/>
       <use xlink:href="#ArialMT-35" x="55.615234"/>
       <use xlink:href="#ArialMT-30" x="111.230469"/>
       <use xlink:href="#ArialMT-30" x="166.845703"/>
      </g>
     </g>
    </g>
    <g id="xtick_5">
     <g id="line2d_5">
      <g>
       <use xlink:href="#mf6b87f7476" x="290.104283" y="170.28" style="stroke: #000000; stroke-width: 0.8"/>
      </g>
     </g>
     <g id="text_5">
      <!-- 2000 -->
      <g transform="translate(276.758033 185.869375)scale(0.12 -0.12)">
       <defs>
        <path id="ArialMT-32" d="M 3222 541 
L 3222 0 
L 194 0 
Q 188 203 259 391 
Q 375 700 629 1000 
Q 884 1300 1366 1694 
Q 2113 2306 2375 2664 
Q 2638 3022 2638 3341 
Q 2638 3675 2398 3904 
Q 2159 4134 1775 4134 
Q 1369 4134 1125 3890 
Q 881 3647 878 3216 
L 300 3275 
Q 359 3922 746 4261 
Q 1134 4600 1788 4600 
Q 2447 4600 2831 4234 
Q 3216 3869 3216 3328 
Q 3216 3053 3103 2787 
Q 2991 2522 2730 2228 
Q 2469 1934 1863 1422 
Q 1356 997 1212 845 
Q 1069 694 975 541 
L 3222 541 
z
" transform="scale(0.015625)"/>
       </defs>
       <use xlink:href="#ArialMT-32"/>
       <use xlink:href="#ArialMT-30" x="55.615234"/>
       <use xlink:href="#ArialMT-30" x="111.230469"/>
       <use xlink:href="#ArialMT-30" x="166.845703"/>
      </g>
     </g>
    </g>
    <g id="xtick_6">
     <g id="line2d_6">
      <g>
       <use xlink:href="#mf6b87f7476" x="329.324104" y="170.28" style="stroke: #000000; stroke-width: 0.8"/>
      </g>
     </g>
     <g id="text_6">
      <!-- 2500 -->
      <g transform="translate(315.977854 185.869375)scale(0.12 -0.12)">
       <use xlink:href="#ArialMT-32"/>
       <use xlink:href="#ArialMT-35" x="55.615234"/>
       <use xlink:href="#ArialMT-30" x="111.230469"/>
       <use xlink:href="#ArialMT-30" x="166.845703"/>
      </g>
     </g>
    </g>
    <g id="text_7">
     <!-- Samples (n=2710) -->
     <g transform="translate(195.6325 200.99)scale(0.12 -0.12)">
      <defs>
       <path id="ArialMT-53" d="M 288 1472 
L 859 1522 
Q 900 1178 1048 958 
Q 1197 738 1509 602 
Q 1822 466 2213 466 
Q 2559 466 2825 569 
Q 3091 672 3220 851 
Q 3350 1031 3350 1244 
Q 3350 1459 3225 1620 
Q 3100 1781 2813 1891 
Q 2628 1963 1997 2114 
Q 1366 2266 1113 2400 
Q 784 2572 623 2826 
Q 463 3081 463 3397 
Q 463 3744 659 4045 
Q 856 4347 1234 4503 
Q 1613 4659 2075 4659 
Q 2584 4659 2973 4495 
Q 3363 4331 3572 4012 
Q 3781 3694 3797 3291 
L 3216 3247 
Q 3169 3681 2898 3903 
Q 2628 4125 2100 4125 
Q 1550 4125 1298 3923 
Q 1047 3722 1047 3438 
Q 1047 3191 1225 3031 
Q 1400 2872 2139 2705 
Q 2878 2538 3153 2413 
Q 3553 2228 3743 1945 
Q 3934 1663 3934 1294 
Q 3934 928 3725 604 
Q 3516 281 3123 101 
Q 2731 -78 2241 -78 
Q 1619 -78 1198 103 
Q 778 284 539 648 
Q 300 1013 288 1472 
z
" transform="scale(0.015625)"/>
       <path id="ArialMT-61" d="M 2588 409 
Q 2275 144 1986 34 
Q 1697 -75 1366 -75 
Q 819 -75 525 192 
Q 231 459 231 875 
Q 231 1119 342 1320 
Q 453 1522 633 1644 
Q 813 1766 1038 1828 
Q 1203 1872 1538 1913 
Q 2219 1994 2541 2106 
Q 2544 2222 2544 2253 
Q 2544 2597 2384 2738 
Q 2169 2928 1744 2928 
Q 1347 2928 1158 2789 
Q 969 2650 878 2297 
L 328 2372 
Q 403 2725 575 2942 
Q 747 3159 1072 3276 
Q 1397 3394 1825 3394 
Q 2250 3394 2515 3294 
Q 2781 3194 2906 3042 
Q 3031 2891 3081 2659 
Q 3109 2516 3109 2141 
L 3109 1391 
Q 3109 606 3145 398 
Q 3181 191 3288 0 
L 2700 0 
Q 2613 175 2588 409 
z
M 2541 1666 
Q 2234 1541 1622 1453 
Q 1275 1403 1131 1340 
Q 988 1278 909 1158 
Q 831 1038 831 891 
Q 831 666 1001 516 
Q 1172 366 1500 366 
Q 1825 366 2078 508 
Q 2331 650 2450 897 
Q 2541 1088 2541 1459 
L 2541 1666 
z
" transform="scale(0.015625)"/>
       <path id="ArialMT-6d" d="M 422 0 
L 422 3319 
L 925 3319 
L 925 2853 
Q 1081 3097 1340 3245 
Q 1600 3394 1931 3394 
Q 2300 3394 2536 3241 
Q 2772 3088 2869 2813 
Q 3263 3394 3894 3394 
Q 4388 3394 4653 3120 
Q 4919 2847 4919 2278 
L 4919 0 
L 4359 0 
L 4359 2091 
Q 4359 2428 4304 2576 
Q 4250 2725 4106 2815 
Q 3963 2906 3769 2906 
Q 3419 2906 3187 2673 
Q 2956 2441 2956 1928 
L 2956 0 
L 2394 0 
L 2394 2156 
Q 2394 2531 2256 2718 
Q 2119 2906 1806 2906 
Q 1569 2906 1367 2781 
Q 1166 2656 1075 2415 
Q 984 2175 984 1722 
L 984 0 
L 422 0 
z
" transform="scale(0.015625)"/>
       <path id="ArialMT-70" d="M 422 -1272 
L 422 3319 
L 934 3319 
L 934 2888 
Q 1116 3141 1344 3267 
Q 1572 3394 1897 3394 
Q 2322 3394 2647 3175 
Q 2972 2956 3137 2557 
Q 3303 2159 3303 1684 
Q 3303 1175 3120 767 
Q 2938 359 2589 142 
Q 2241 -75 1856 -75 
Q 1575 -75 1351 44 
Q 1128 163 984 344 
L 984 -1272 
L 422 -1272 
z
M 931 1641 
Q 931 1000 1190 694 
Q 1450 388 1819 388 
Q 2194 388 2461 705 
Q 2728 1022 2728 1688 
Q 2728 2322 2467 2637 
Q 2206 2953 1844 2953 
Q 1484 2953 1207 2617 
Q 931 2281 931 1641 
z
" transform="scale(0.015625)"/>
       <path id="ArialMT-6c" d="M 409 0 
L 409 4581 
L 972 4581 
L 972 0 
L 409 0 
z
" transform="scale(0.015625)"/>
       <path id="ArialMT-65" d="M 2694 1069 
L 3275 997 
Q 3138 488 2766 206 
Q 2394 -75 1816 -75 
Q 1088 -75 661 373 
Q 234 822 234 1631 
Q 234 2469 665 2931 
Q 1097 3394 1784 3394 
Q 2450 3394 2872 2941 
Q 3294 2488 3294 1666 
Q 3294 1616 3291 1516 
L 816 1516 
Q 847 969 1125 678 
Q 1403 388 1819 388 
Q 2128 388 2347 550 
Q 2566 713 2694 1069 
z
M 847 1978 
L 2700 1978 
Q 2663 2397 2488 2606 
Q 2219 2931 1791 2931 
Q 1403 2931 1139 2672 
Q 875 2413 847 1978 
z
" transform="scale(0.015625)"/>
       <path id="ArialMT-73" d="M 197 991 
L 753 1078 
Q 800 744 1014 566 
Q 1228 388 1613 388 
Q 2000 388 2187 545 
Q 2375 703 2375 916 
Q 2375 1106 2209 1216 
Q 2094 1291 1634 1406 
Q 1016 1563 777 1677 
Q 538 1791 414 1992 
Q 291 2194 291 2438 
Q 291 2659 392 2848 
Q 494 3038 669 3163 
Q 800 3259 1026 3326 
Q 1253 3394 1513 3394 
Q 1903 3394 2198 3281 
Q 2494 3169 2634 2976 
Q 2775 2784 2828 2463 
L 2278 2388 
Q 2241 2644 2061 2787 
Q 1881 2931 1553 2931 
Q 1166 2931 1000 2803 
Q 834 2675 834 2503 
Q 834 2394 903 2306 
Q 972 2216 1119 2156 
Q 1203 2125 1616 2013 
Q 2213 1853 2448 1751 
Q 2684 1650 2818 1456 
Q 2953 1263 2953 975 
Q 2953 694 2789 445 
Q 2625 197 2315 61 
Q 2006 -75 1616 -75 
Q 969 -75 630 194 
Q 291 463 197 991 
z
" transform="scale(0.015625)"/>
       <path id="ArialMT-20" transform="scale(0.015625)"/>
       <path id="ArialMT-28" d="M 1497 -1347 
Q 1031 -759 709 28 
Q 388 816 388 1659 
Q 388 2403 628 3084 
Q 909 3875 1497 4659 
L 1900 4659 
Q 1522 4009 1400 3731 
Q 1209 3300 1100 2831 
Q 966 2247 966 1656 
Q 966 153 1900 -1347 
L 1497 -1347 
z
" transform="scale(0.015625)"/>
       <path id="ArialMT-6e" d="M 422 0 
L 422 3319 
L 928 3319 
L 928 2847 
Q 1294 3394 1984 3394 
Q 2284 3394 2536 3286 
Q 2788 3178 2913 3003 
Q 3038 2828 3088 2588 
Q 3119 2431 3119 2041 
L 3119 0 
L 2556 0 
L 2556 2019 
Q 2556 2363 2490 2533 
Q 2425 2703 2258 2804 
Q 2091 2906 1866 2906 
Q 1506 2906 1245 2678 
Q 984 2450 984 1813 
L 984 0 
L 422 0 
z
" transform="scale(0.015625)"/>
       <path id="ArialMT-3d" d="M 3381 2694 
L 356 2694 
L 356 3219 
L 3381 3219 
L 3381 2694 
z
M 3381 1303 
L 356 1303 
L 356 1828 
L 3381 1828 
L 3381 1303 
z
" transform="scale(0.015625)"/>
       <path id="ArialMT-37" d="M 303 3981 
L 303 4522 
L 3269 4522 
L 3269 4084 
Q 2831 3619 2401 2847 
Q 1972 2075 1738 1259 
Q 1569 684 1522 0 
L 944 0 
Q 953 541 1156 1306 
Q 1359 2072 1739 2783 
Q 2119 3494 2547 3981 
L 303 3981 
z
" transform="scale(0.015625)"/>
       <path id="ArialMT-29" d="M 791 -1347 
L 388 -1347 
Q 1322 153 1322 1656 
Q 1322 2244 1188 2822 
Q 1081 3291 891 3722 
Q 769 4003 388 4659 
L 791 4659 
Q 1378 3875 1659 3084 
Q 1900 2403 1900 1659 
Q 1900 816 1576 28 
Q 1253 -759 791 -1347 
z
" transform="scale(0.015625)"/>
      </defs>
      <use xlink:href="#ArialMT-53"/>
      <use xlink:href="#ArialMT-61" x="66.699219"/>
      <use xlink:href="#ArialMT-6d" x="122.314453"/>
      <use xlink:href="#ArialMT-70" x="205.615234"/>
      <use xlink:href="#ArialMT-6c" x="261.230469"/>
      <use xlink:href="#ArialMT-65" x="283.447266"/>
      <use xlink:href="#ArialMT-73" x="339.0625"/>
      <use xlink:href="#ArialMT-20" x="389.0625"/>
      <use xlink:href="#ArialMT-28" x="416.845703"/>
      <use xlink:href="#ArialMT-6e" x="450.146484"/>
      <use xlink:href="#ArialMT-3d" x="505.761719"/>
      <use xlink:href="#ArialMT-32" x="564.160156"/>
      <use xlink:href="#ArialMT-37" x="619.775391"/>
      <use xlink:href="#ArialMT-31" x="675.390625"/>
      <use xlink:href="#ArialMT-30" x="731.005859"/>
      <use xlink:href="#ArialMT-29" x="786.621094"/>
     </g>
    </g>
   </g>
   <g id="matplotlib.axis_2">
    <g id="ytick_1">
     <g id="line2d_7">
      <defs>
       <path id="md378b390a7" d="M 0 0 
L -3.5 0 
" style="stroke: #000000; stroke-width: 0.8"/>
      </defs>
      <g>
       <use xlink:href="#md378b390a7" x="133.225" y="144.335455" style="stroke: #000000; stroke-width: 0.8"/>
      </g>
     </g>
     <g id="text_8">
      <!-- pH (n=9) -->
      <g transform="translate(79.205625 148.703267)scale(0.12 -0.12)">
       <defs>
        <path id="ArialMT-48" d="M 513 0 
L 513 4581 
L 1119 4581 
L 1119 2700 
L 3500 2700 
L 3500 4581 
L 4106 4581 
L 4106 0 
L 3500 0 
L 3500 2159 
L 1119 2159 
L 1119 0 
L 513 0 
z
" transform="scale(0.015625)"/>
        <path id="ArialMT-39" d="M 350 1059 
L 891 1109 
Q 959 728 1153 556 
Q 1347 384 1650 384 
Q 1909 384 2104 503 
Q 2300 622 2425 820 
Q 2550 1019 2634 1356 
Q 2719 1694 2719 2044 
Q 2719 2081 2716 2156 
Q 2547 1888 2255 1720 
Q 1963 1553 1622 1553 
Q 1053 1553 659 1965 
Q 266 2378 266 3053 
Q 266 3750 677 4175 
Q 1088 4600 1706 4600 
Q 2153 4600 2523 4359 
Q 2894 4119 3086 3673 
Q 3278 3228 3278 2384 
Q 3278 1506 3087 986 
Q 2897 466 2520 194 
Q 2144 -78 1638 -78 
Q 1100 -78 759 220 
Q 419 519 350 1059 
z
M 2653 3081 
Q 2653 3566 2395 3850 
Q 2138 4134 1775 4134 
Q 1400 4134 1122 3828 
Q 844 3522 844 3034 
Q 844 2597 1108 2323 
Q 1372 2050 1759 2050 
Q 2150 2050 2401 2323 
Q 2653 2597 2653 3081 
z
" transform="scale(0.015625)"/>
       </defs>
       <use xlink:href="#ArialMT-70"/>
       <use xlink:href="#ArialMT-48" x="55.615234"/>
       <use xlink:href="#ArialMT-20" x="127.832031"/>
       <use xlink:href="#ArialMT-28" x="155.615234"/>
       <use xlink:href="#ArialMT-6e" x="188.916016"/>
       <use xlink:href="#ArialMT-3d" x="244.53125"/>
       <use xlink:href="#ArialMT-39" x="302.929688"/>
       <use xlink:href="#ArialMT-29" x="358.544922"/>
      </g>
     </g>
    </g>
    <g id="ytick_2">
     <g id="line2d_8">
      <g>
       <use xlink:href="#md378b390a7" x="133.225" y="107.271818" style="stroke: #000000; stroke-width: 0.8"/>
      </g>
     </g>
     <g id="text_9">
      <!-- Temperature (C) (n=9) -->
      <g transform="translate(7.2 111.639631)scale(0.12 -0.12)">
       <defs>
        <path id="ArialMT-54" d="M 1659 0 
L 1659 4041 
L 150 4041 
L 150 4581 
L 3781 4581 
L 3781 4041 
L 2266 4041 
L 2266 0 
L 1659 0 
z
" transform="scale(0.015625)"/>
        <path id="ArialMT-72" d="M 416 0 
L 416 3319 
L 922 3319 
L 922 2816 
Q 1116 3169 1280 3281 
Q 1444 3394 1641 3394 
Q 1925 3394 2219 3213 
L 2025 2691 
Q 1819 2813 1613 2813 
Q 1428 2813 1281 2702 
Q 1134 2591 1072 2394 
Q 978 2094 978 1738 
L 978 0 
L 416 0 
z
" transform="scale(0.015625)"/>
        <path id="ArialMT-74" d="M 1650 503 
L 1731 6 
Q 1494 -44 1306 -44 
Q 1000 -44 831 53 
Q 663 150 594 308 
Q 525 466 525 972 
L 525 2881 
L 113 2881 
L 113 3319 
L 525 3319 
L 525 4141 
L 1084 4478 
L 1084 3319 
L 1650 3319 
L 1650 2881 
L 1084 2881 
L 1084 941 
Q 1084 700 1114 631 
Q 1144 563 1211 522 
Q 1278 481 1403 481 
Q 1497 481 1650 503 
z
" transform="scale(0.015625)"/>
        <path id="ArialMT-75" d="M 2597 0 
L 2597 488 
Q 2209 -75 1544 -75 
Q 1250 -75 995 37 
Q 741 150 617 320 
Q 494 491 444 738 
Q 409 903 409 1263 
L 409 3319 
L 972 3319 
L 972 1478 
Q 972 1038 1006 884 
Q 1059 663 1231 536 
Q 1403 409 1656 409 
Q 1909 409 2131 539 
Q 2353 669 2445 892 
Q 2538 1116 2538 1541 
L 2538 3319 
L 3100 3319 
L 3100 0 
L 2597 0 
z
" transform="scale(0.015625)"/>
        <path id="ArialMT-43" d="M 3763 1606 
L 4369 1453 
Q 4178 706 3683 314 
Q 3188 -78 2472 -78 
Q 1731 -78 1267 223 
Q 803 525 561 1097 
Q 319 1669 319 2325 
Q 319 3041 592 3573 
Q 866 4106 1370 4382 
Q 1875 4659 2481 4659 
Q 3169 4659 3637 4309 
Q 4106 3959 4291 3325 
L 3694 3184 
Q 3534 3684 3231 3912 
Q 2928 4141 2469 4141 
Q 1941 4141 1586 3887 
Q 1231 3634 1087 3207 
Q 944 2781 944 2328 
Q 944 1744 1114 1308 
Q 1284 872 1643 656 
Q 2003 441 2422 441 
Q 2931 441 3284 734 
Q 3638 1028 3763 1606 
z
" transform="scale(0.015625)"/>
       </defs>
       <use xlink:href="#ArialMT-54"/>
       <use xlink:href="#ArialMT-65" x="49.958984"/>
       <use xlink:href="#ArialMT-6d" x="105.574219"/>
       <use xlink:href="#ArialMT-70" x="188.875"/>
       <use xlink:href="#ArialMT-65" x="244.490234"/>
       <use xlink:href="#ArialMT-72" x="300.105469"/>
       <use xlink:href="#ArialMT-61" x="333.40625"/>
       <use xlink:href="#ArialMT-74" x="389.021484"/>
       <use xlink:href="#ArialMT-75" x="416.804688"/>
       <use xlink:href="#ArialMT-72" x="472.419922"/>
       <use xlink:href="#ArialMT-65" x="505.720703"/>
       <use xlink:href="#ArialMT-20" x="561.335938"/>
       <use xlink:href="#ArialMT-28" x="589.119141"/>
       <use xlink:href="#ArialMT-43" x="622.419922"/>
       <use xlink:href="#ArialMT-29" x="694.636719"/>
       <use xlink:href="#ArialMT-20" x="727.9375"/>
       <use xlink:href="#ArialMT-28" x="755.720703"/>
       <use xlink:href="#ArialMT-6e" x="789.021484"/>
       <use xlink:href="#ArialMT-3d" x="844.636719"/>
       <use xlink:href="#ArialMT-39" x="903.035156"/>
       <use xlink:href="#ArialMT-29" x="958.650391"/>
      </g>
     </g>
    </g>
    <g id="ytick_3">
     <g id="line2d_9">
      <g>
       <use xlink:href="#md378b390a7" x="133.225" y="70.208182" style="stroke: #000000; stroke-width: 0.8"/>
      </g>
     </g>
     <g id="text_10">
      <!-- Culture Type (n=11) -->
      <g transform="translate(20.93625 74.575994)scale(0.12 -0.12)">
       <defs>
        <path id="ArialMT-79" d="M 397 -1278 
L 334 -750 
Q 519 -800 656 -800 
Q 844 -800 956 -737 
Q 1069 -675 1141 -563 
Q 1194 -478 1313 -144 
Q 1328 -97 1363 -6 
L 103 3319 
L 709 3319 
L 1400 1397 
Q 1534 1031 1641 628 
Q 1738 1016 1872 1384 
L 2581 3319 
L 3144 3319 
L 1881 -56 
Q 1678 -603 1566 -809 
Q 1416 -1088 1222 -1217 
Q 1028 -1347 759 -1347 
Q 597 -1347 397 -1278 
z
" transform="scale(0.015625)"/>
       </defs>
       <use xlink:href="#ArialMT-43"/>
       <use xlink:href="#ArialMT-75" x="72.216797"/>
       <use xlink:href="#ArialMT-6c" x="127.832031"/>
       <use xlink:href="#ArialMT-74" x="150.048828"/>
       <use xlink:href="#ArialMT-75" x="177.832031"/>
       <use xlink:href="#ArialMT-72" x="233.447266"/>
       <use xlink:href="#ArialMT-65" x="266.748047"/>
       <use xlink:href="#ArialMT-20" x="322.363281"/>
       <use xlink:href="#ArialMT-54" x="348.396484"/>
       <use xlink:href="#ArialMT-79" x="403.980469"/>
       <use xlink:href="#ArialMT-70" x="453.980469"/>
       <use xlink:href="#ArialMT-65" x="509.595703"/>
       <use xlink:href="#ArialMT-20" x="565.210938"/>
       <use xlink:href="#ArialMT-28" x="592.994141"/>
       <use xlink:href="#ArialMT-6e" x="626.294922"/>
       <use xlink:href="#ArialMT-3d" x="681.910156"/>
       <use xlink:href="#ArialMT-31" x="740.308594"/>
       <use xlink:href="#ArialMT-31" x="788.548828"/>
       <use xlink:href="#ArialMT-29" x="844.164062"/>
      </g>
     </g>
    </g>
    <g id="ytick_4">
     <g id="line2d_10">
      <g>
       <use xlink:href="#md378b390a7" x="133.225" y="33.144545" style="stroke: #000000; stroke-width: 0.8"/>
      </g>
     </g>
     <g id="text_11">
      <!-- Strain (n=15) -->
      <g transform="translate(56.525625 37.512358)scale(0.12 -0.12)">
       <defs>
        <path id="ArialMT-69" d="M 425 3934 
L 425 4581 
L 988 4581 
L 988 3934 
L 425 3934 
z
M 425 0 
L 425 3319 
L 988 3319 
L 988 0 
L 425 0 
z
" transform="scale(0.015625)"/>
       </defs>
       <use xlink:href="#ArialMT-53"/>
       <use xlink:href="#ArialMT-74" x="66.699219"/>
       <use xlink:href="#ArialMT-72" x="94.482422"/>
       <use xlink:href="#ArialMT-61" x="127.783203"/>
       <use xlink:href="#ArialMT-69" x="183.398438"/>
       <use xlink:href="#ArialMT-6e" x="205.615234"/>
       <use xlink:href="#ArialMT-20" x="261.230469"/>
       <use xlink:href="#ArialMT-28" x="289.013672"/>
       <use xlink:href="#ArialMT-6e" x="322.314453"/>
       <use xlink:href="#ArialMT-3d" x="377.929688"/>
       <use xlink:href="#ArialMT-31" x="436.328125"/>
       <use xlink:href="#ArialMT-35" x="491.943359"/>
       <use xlink:href="#ArialMT-29" x="547.558594"/>
      </g>
     </g>
    </g>
   </g>
  </g>
 </g>
 <defs>
  <clipPath id="pde9ab584ad">
   <rect x="133.225" y="7.2" width="223.2" height="163.08"/>
  </clipPath>
 </defs>
</svg>
