<?xml version="1.0" encoding="utf-8" standalone="no"?>
<!DOCTYPE svg PUBLIC "-//W3C//DTD SVG 1.1//EN"
  "http://www.w3.org/Graphics/SVG/1.1/DTD/svg11.dtd">
<svg xmlns:xlink="http://www.w3.org/1999/xlink" width="363.660625pt" height="210.715625pt" viewBox="0 0 363.660625 210.715625" xmlns="http://www.w3.org/2000/svg" version="1.1">
 <metadata>
  <rdf:RDF xmlns:dc="http://purl.org/dc/elements/1.1/" xmlns:cc="http://creativecommons.org/ns#" xmlns:rdf="http://www.w3.org/1999/02/22-rdf-syntax-ns#">
   <cc:Work>
    <dc:type rdf:resource="http://purl.org/dc/dcmitype/StillImage"/>
    <dc:date>2022-10-25T11:57:27.567820</dc:date>
    <dc:format>image/svg+xml</dc:format>
    <dc:creator>
     <cc:Agent>
      <dc:title>Matplotlib v3.5.1, https://matplotlib.org/</dc:title>
     </cc:Agent>
    </dc:creator>
   </cc:Work>
  </rdf:RDF>
 </metadata>
 <defs>
  <style type="text/css">*{stroke-linejoin: round; stroke-linecap: butt}</style>
 </defs>
 <g id="figure_1">
  <g id="patch_1">
   <path d="M 0 210.715625 
L 363.660625 210.715625 
L 363.660625 0 
L 0 0 
L 0 210.715625 
z
" style="fill: none"/>
  </g>
  <g id="axes_1">
   <g id="patch_2">
    <path d="M 133.260625 170.28 
L 356.460625 170.28 
L 356.460625 7.2 
L 133.260625 7.2 
z
" style="fill: #ffffff"/>
   </g>
   <g id="patch_3">
    <path d="M 133.260625 44.263636 
L 257.822776 44.263636 
L 257.822776 14.612727 
L 133.260625 14.612727 
z
" clip-path="url(#p0488ead7fb)" style="fill: #fc8a6a"/>
   </g>
   <g id="patch_4">
    <path d="M 257.822776 44.263636 
L 298.689829 44.263636 
L 298.689829 14.612727 
L 257.822776 14.612727 
z
" clip-path="url(#p0488ead7fb)" style="fill: #fb7d5d"/>
   </g>
   <g id="patch_5">
    <path d="M 298.689829 44.263636 
L 317.593783 44.263636 
L 317.593783 14.612727 
L 298.689829 14.612727 
z
" clip-path="url(#p0488ead7fb)" style="fill: #fb7151"/>
   </g>
   <g id="patch_6">
    <path d="M 317.593783 44.263636 
L 331.085401 44.263636 
L 331.085401 14.612727 
L 317.593783 14.612727 
z
" clip-path="url(#p0488ead7fb)" style="fill: #f96245"/>
   </g>
   <g id="patch_7">
    <path d="M 331.085401 44.263636 
L 334.615185 44.263636 
L 334.615185 14.612727 
L 331.085401 14.612727 
z
" clip-path="url(#p0488ead7fb)" style="fill: #f5533b"/>
   </g>
   <g id="patch_8">
    <path d="M 334.615185 44.263636 
L 337.83121 44.263636 
L 337.83121 14.612727 
L 334.615185 14.612727 
z
" clip-path="url(#p0488ead7fb)" style="fill: #f14432"/>
   </g>
   <g id="patch_9">
    <path d="M 337.83121 44.263636 
L 340.733477 44.263636 
L 340.733477 14.612727 
L 337.83121 14.612727 
z
" clip-path="url(#p0488ead7fb)" style="fill: #eb372a"/>
   </g>
   <g id="patch_10">
    <path d="M 340.733477 44.263636 
L 342.772908 44.263636 
L 342.772908 14.612727 
L 340.733477 14.612727 
z
" clip-path="url(#p0488ead7fb)" style="fill: #de2b25"/>
   </g>
   <g id="patch_11">
    <path d="M 342.772908 44.263636 
L 344.184821 44.263636 
L 344.184821 14.612727 
L 342.772908 14.612727 
z
" clip-path="url(#p0488ead7fb)" style="fill: #d32020"/>
   </g>
   <g id="patch_12">
    <path d="M 344.184821 44.263636 
L 344.890778 44.263636 
L 344.890778 14.612727 
L 344.184821 14.612727 
z
" clip-path="url(#p0488ead7fb)" style="fill: #c8171c"/>
   </g>
   <g id="patch_13">
    <path d="M 344.890778 44.263636 
L 345.126097 44.263636 
L 345.126097 14.612727 
L 344.890778 14.612727 
z
" clip-path="url(#p0488ead7fb)" style="fill: #bc141a"/>
   </g>
   <g id="patch_14">
    <path d="M 345.126097 44.263636 
L 345.361416 44.263636 
L 345.361416 14.612727 
L 345.126097 14.612727 
z
" clip-path="url(#p0488ead7fb)" style="fill: #af1117"/>
   </g>
   <g id="patch_15">
    <path d="M 345.361416 44.263636 
L 345.596735 44.263636 
L 345.596735 14.612727 
L 345.361416 14.612727 
z
" clip-path="url(#p0488ead7fb)" style="fill: #a10e15"/>
   </g>
   <g id="patch_16">
    <path d="M 345.596735 44.263636 
L 345.753614 44.263636 
L 345.753614 14.612727 
L 345.596735 14.612727 
z
" clip-path="url(#p0488ead7fb)" style="fill: #8e0912"/>
   </g>
   <g id="patch_17">
    <path d="M 345.753614 44.263636 
L 345.832054 44.263636 
L 345.832054 14.612727 
L 345.753614 14.612727 
z
" clip-path="url(#p0488ead7fb)" style="fill: #7a0510"/>
   </g>
   <g id="patch_18">
    <path d="M 133.260625 73.914545 
L 304.572802 73.914545 
L 304.572802 44.263636 
L 133.260625 44.263636 
z
" clip-path="url(#p0488ead7fb)" style="fill: #fda762"/>
   </g>
   <g id="patch_19">
    <path d="M 304.572802 73.914545 
L 319.319455 73.914545 
L 319.319455 44.263636 
L 304.572802 44.263636 
z
" clip-path="url(#p0488ead7fb)" style="fill: #fd9649"/>
   </g>
   <g id="patch_20">
    <path d="M 319.319455 73.914545 
L 320.731368 73.914545 
L 320.731368 44.263636 
L 319.319455 44.263636 
z
" clip-path="url(#p0488ead7fb)" style="fill: #fa8331"/>
   </g>
   <g id="patch_21">
    <path d="M 320.731368 73.914545 
L 321.751084 73.914545 
L 321.751084 44.263636 
L 320.731368 44.263636 
z
" clip-path="url(#p0488ead7fb)" style="fill: #f3701b"/>
   </g>
   <g id="patch_22">
    <path d="M 321.751084 73.914545 
L 322.770799 73.914545 
L 322.770799 44.263636 
L 321.751084 44.263636 
z
" clip-path="url(#p0488ead7fb)" style="fill: #e95e0d"/>
   </g>
   <g id="patch_23">
    <path d="M 322.770799 73.914545 
L 323.319876 73.914545 
L 323.319876 44.263636 
L 322.770799 44.263636 
z
" clip-path="url(#p0488ead7fb)" style="fill: #dc4c03"/>
   </g>
   <g id="patch_24">
    <path d="M 323.319876 73.914545 
L 323.790514 73.914545 
L 323.790514 44.263636 
L 323.319876 44.263636 
z
" clip-path="url(#p0488ead7fb)" style="fill: #c54102"/>
   </g>
   <g id="patch_25">
    <path d="M 323.790514 73.914545 
L 324.025833 73.914545 
L 324.025833 44.263636 
L 323.790514 44.263636 
z
" clip-path="url(#p0488ead7fb)" style="fill: #a93703"/>
   </g>
   <g id="patch_26">
    <path d="M 324.025833 73.914545 
L 324.261152 73.914545 
L 324.261152 44.263636 
L 324.025833 44.263636 
z
" clip-path="url(#p0488ead7fb)" style="fill: #942f03"/>
   </g>
   <g id="patch_27">
    <path d="M 324.261152 73.914545 
L 345.832054 73.914545 
L 345.832054 44.263636 
L 324.261152 44.263636 
z
" clip-path="url(#p0488ead7fb)" style="fill: #7f7f7f"/>
   </g>
   <g id="patch_28">
    <path d="M 133.260625 103.565455 
L 290.610546 103.565455 
L 290.610546 73.914545 
L 133.260625 73.914545 
z
" clip-path="url(#p0488ead7fb)" style="fill: #98d594"/>
   </g>
   <g id="patch_29">
    <path d="M 290.610546 103.565455 
L 302.141173 103.565455 
L 302.141173 73.914545 
L 290.610546 73.914545 
z
" clip-path="url(#p0488ead7fb)" style="fill: #80ca80"/>
   </g>
   <g id="patch_30">
    <path d="M 302.141173 103.565455 
L 305.670957 103.565455 
L 305.670957 73.914545 
L 302.141173 73.914545 
z
" clip-path="url(#p0488ead7fb)" style="fill: #66bd6f"/>
   </g>
   <g id="patch_31">
    <path d="M 305.670957 103.565455 
L 308.181026 103.565455 
L 308.181026 73.914545 
L 305.670957 73.914545 
z
" clip-path="url(#p0488ead7fb)" style="fill: #4bb062"/>
   </g>
   <g id="patch_32">
    <path d="M 308.181026 103.565455 
L 310.298896 103.565455 
L 310.298896 73.914545 
L 308.181026 73.914545 
z
" clip-path="url(#p0488ead7fb)" style="fill: #37a055"/>
   </g>
   <g id="patch_33">
    <path d="M 310.298896 103.565455 
L 311.789249 103.565455 
L 311.789249 73.914545 
L 310.298896 73.914545 
z
" clip-path="url(#p0488ead7fb)" style="fill: #278f48"/>
   </g>
   <g id="patch_34">
    <path d="M 311.789249 103.565455 
L 312.887404 103.565455 
L 312.887404 73.914545 
L 311.789249 73.914545 
z
" clip-path="url(#p0488ead7fb)" style="fill: #157f3b"/>
   </g>
   <g id="patch_35">
    <path d="M 312.887404 103.565455 
L 313.201163 103.565455 
L 313.201163 73.914545 
L 312.887404 73.914545 
z
" clip-path="url(#p0488ead7fb)" style="fill: #026f2e"/>
   </g>
   <g id="patch_36">
    <path d="M 313.201163 103.565455 
L 313.514921 103.565455 
L 313.514921 73.914545 
L 313.201163 73.914545 
z
" clip-path="url(#p0488ead7fb)" style="fill: #005a24"/>
   </g>
   <g id="patch_37">
    <path d="M 313.514921 103.565455 
L 345.832054 103.565455 
L 345.832054 73.914545 
L 313.514921 73.914545 
z
" clip-path="url(#p0488ead7fb)" style="fill: #7f7f7f"/>
   </g>
   <g id="patch_38">
    <path d="M 133.260625 133.216364 
L 233.741806 133.216364 
L 233.741806 103.565455 
L 133.260625 103.565455 
z
" clip-path="url(#p0488ead7fb)" style="fill: #94c4df"/>
   </g>
   <g id="patch_39">
    <path d="M 233.741806 133.216364 
L 269.98092 133.216364 
L 269.98092 103.565455 
L 233.741806 103.565455 
z
" clip-path="url(#p0488ead7fb)" style="fill: #8dc1dd"/>
   </g>
   <g id="patch_40">
    <path d="M 269.98092 133.216364 
L 279.550556 133.216364 
L 279.550556 103.565455 
L 269.98092 103.565455 
z
" clip-path="url(#p0488ead7fb)" style="fill: #85bcdc"/>
   </g>
   <g id="patch_41">
    <path d="M 279.550556 133.216364 
L 285.35509 133.216364 
L 285.35509 103.565455 
L 279.550556 103.565455 
z
" clip-path="url(#p0488ead7fb)" style="fill: #7fb9da"/>
   </g>
   <g id="patch_42">
    <path d="M 285.35509 133.216364 
L 290.688986 133.216364 
L 290.688986 103.565455 
L 285.35509 103.565455 
z
" clip-path="url(#p0488ead7fb)" style="fill: #77b5d9"/>
   </g>
   <g id="patch_43">
    <path d="M 290.688986 133.216364 
L 295.081605 133.216364 
L 295.081605 103.565455 
L 290.688986 103.565455 
z
" clip-path="url(#p0488ead7fb)" style="fill: #71b1d7"/>
   </g>
   <g id="patch_44">
    <path d="M 295.081605 133.216364 
L 298.37607 133.216364 
L 298.37607 103.565455 
L 295.081605 103.565455 
z
" clip-path="url(#p0488ead7fb)" style="fill: #69add5"/>
   </g>
   <g id="patch_45">
    <path d="M 298.37607 133.216364 
L 301.199898 133.216364 
L 301.199898 103.565455 
L 298.37607 103.565455 
z
" clip-path="url(#p0488ead7fb)" style="fill: #63a8d3"/>
   </g>
   <g id="patch_46">
    <path d="M 301.199898 133.216364 
L 303.709966 133.216364 
L 303.709966 103.565455 
L 301.199898 103.565455 
z
" clip-path="url(#p0488ead7fb)" style="fill: #5da5d1"/>
   </g>
   <g id="patch_47">
    <path d="M 303.709966 133.216364 
L 306.063155 133.216364 
L 306.063155 103.565455 
L 303.709966 103.565455 
z
" clip-path="url(#p0488ead7fb)" style="fill: #57a0ce"/>
   </g>
   <g id="patch_48">
    <path d="M 306.063155 133.216364 
L 308.416345 133.216364 
L 308.416345 103.565455 
L 306.063155 103.565455 
z
" clip-path="url(#p0488ead7fb)" style="fill: #529dcc"/>
   </g>
   <g id="patch_49">
    <path d="M 308.416345 133.216364 
L 310.377336 133.216364 
L 310.377336 103.565455 
L 308.416345 103.565455 
z
" clip-path="url(#p0488ead7fb)" style="fill: #4b98ca"/>
   </g>
   <g id="patch_50">
    <path d="M 310.377336 133.216364 
L 312.181447 133.216364 
L 312.181447 103.565455 
L 310.377336 103.565455 
z
" clip-path="url(#p0488ead7fb)" style="fill: #4695c8"/>
   </g>
   <g id="patch_51">
    <path d="M 312.181447 133.216364 
L 313.593361 133.216364 
L 313.593361 103.565455 
L 312.181447 103.565455 
z
" clip-path="url(#p0488ead7fb)" style="fill: #4090c5"/>
   </g>
   <g id="patch_52">
    <path d="M 313.593361 133.216364 
L 314.769956 133.216364 
L 314.769956 103.565455 
L 313.593361 103.565455 
z
" clip-path="url(#p0488ead7fb)" style="fill: #3c8cc3"/>
   </g>
   <g id="patch_53">
    <path d="M 314.769956 133.216364 
L 315.711231 133.216364 
L 315.711231 103.565455 
L 314.769956 103.565455 
z
" clip-path="url(#p0488ead7fb)" style="fill: #3787c0"/>
   </g>
   <g id="patch_54">
    <path d="M 315.711231 133.216364 
L 316.652507 133.216364 
L 316.652507 103.565455 
L 315.711231 103.565455 
z
" clip-path="url(#p0488ead7fb)" style="fill: #3383be"/>
   </g>
   <g id="patch_55">
    <path d="M 316.652507 133.216364 
L 317.593783 133.216364 
L 317.593783 103.565455 
L 316.652507 103.565455 
z
" clip-path="url(#p0488ead7fb)" style="fill: #2e7ebc"/>
   </g>
   <g id="patch_56">
    <path d="M 317.593783 133.216364 
L 318.535058 133.216364 
L 318.535058 103.565455 
L 317.593783 103.565455 
z
" clip-path="url(#p0488ead7fb)" style="fill: #2a7ab9"/>
   </g>
   <g id="patch_57">
    <path d="M 318.535058 133.216364 
L 319.476334 133.216364 
L 319.476334 103.565455 
L 318.535058 103.565455 
z
" clip-path="url(#p0488ead7fb)" style="fill: #2474b7"/>
   </g>
   <g id="patch_58">
    <path d="M 319.476334 133.216364 
L 320.33917 133.216364 
L 320.33917 103.565455 
L 319.476334 103.565455 
z
" clip-path="url(#p0488ead7fb)" style="fill: #2070b4"/>
   </g>
   <g id="patch_59">
    <path d="M 320.33917 133.216364 
L 321.123566 133.216364 
L 321.123566 103.565455 
L 320.33917 103.565455 
z
" clip-path="url(#p0488ead7fb)" style="fill: #1c6bb0"/>
   </g>
   <g id="patch_60">
    <path d="M 321.123566 133.216364 
L 321.907963 133.216364 
L 321.907963 103.565455 
L 321.123566 103.565455 
z
" clip-path="url(#p0488ead7fb)" style="fill: #1967ad"/>
   </g>
   <g id="patch_61">
    <path d="M 321.907963 133.216364 
L 322.692359 133.216364 
L 322.692359 103.565455 
L 321.907963 103.565455 
z
" clip-path="url(#p0488ead7fb)" style="fill: #1562a9"/>
   </g>
   <g id="patch_62">
    <path d="M 322.692359 133.216364 
L 323.398316 133.216364 
L 323.398316 103.565455 
L 322.692359 103.565455 
z
" clip-path="url(#p0488ead7fb)" style="fill: #125ea6"/>
   </g>
   <g id="patch_63">
    <path d="M 323.398316 133.216364 
L 324.104273 133.216364 
L 324.104273 103.565455 
L 323.398316 103.565455 
z
" clip-path="url(#p0488ead7fb)" style="fill: #0e59a2"/>
   </g>
   <g id="patch_64">
    <path d="M 324.104273 133.216364 
L 324.73179 133.216364 
L 324.73179 103.565455 
L 324.104273 103.565455 
z
" clip-path="url(#p0488ead7fb)" style="fill: #0b559f"/>
   </g>
   <g id="patch_65">
    <path d="M 324.73179 133.216364 
L 325.359307 133.216364 
L 325.359307 103.565455 
L 324.73179 103.565455 
z
" clip-path="url(#p0488ead7fb)" style="fill: #08509b"/>
   </g>
   <g id="patch_66">
    <path d="M 325.359307 133.216364 
L 325.986824 133.216364 
L 325.986824 103.565455 
L 325.359307 103.565455 
z
" clip-path="url(#p0488ead7fb)" style="fill: #084c95"/>
   </g>
   <g id="patch_67">
    <path d="M 325.986824 133.216364 
L 326.457462 133.216364 
L 326.457462 103.565455 
L 325.986824 103.565455 
z
" clip-path="url(#p0488ead7fb)" style="fill: #08478d"/>
   </g>
   <g id="patch_68">
    <path d="M 326.457462 133.216364 
L 326.771221 133.216364 
L 326.771221 103.565455 
L 326.457462 103.565455 
z
" clip-path="url(#p0488ead7fb)" style="fill: #084387"/>
   </g>
   <g id="patch_69">
    <path d="M 326.771221 133.216364 
L 327.084979 133.216364 
L 327.084979 103.565455 
L 326.771221 103.565455 
z
" clip-path="url(#p0488ead7fb)" style="fill: #083d7f"/>
   </g>
   <g id="patch_70">
    <path d="M 327.084979 133.216364 
L 327.320298 133.216364 
L 327.320298 103.565455 
L 327.084979 103.565455 
z
" clip-path="url(#p0488ead7fb)" style="fill: #083979"/>
   </g>
   <g id="patch_71">
    <path d="M 327.320298 133.216364 
L 327.477177 133.216364 
L 327.477177 103.565455 
L 327.320298 103.565455 
z
" clip-path="url(#p0488ead7fb)" style="fill: #083471"/>
   </g>
   <g id="patch_72">
    <path d="M 327.477177 133.216364 
L 345.832054 133.216364 
L 345.832054 103.565455 
L 327.477177 103.565455 
z
" clip-path="url(#p0488ead7fb)" style="fill: #7f7f7f"/>
   </g>
   <g id="patch_73">
    <path d="M 133.260625 162.867273 
L 225.584083 162.867273 
L 225.584083 133.216364 
L 133.260625 133.216364 
z
" clip-path="url(#p0488ead7fb)" style="fill: #b6b6d8"/>
   </g>
   <g id="patch_74">
    <path d="M 225.584083 162.867273 
L 314.534637 162.867273 
L 314.534637 133.216364 
L 225.584083 133.216364 
z
" clip-path="url(#p0488ead7fb)" style="fill: #aeadd3"/>
   </g>
   <g id="patch_75">
    <path d="M 314.534637 162.867273 
L 329.673487 162.867273 
L 329.673487 133.216364 
L 314.534637 133.216364 
z
" clip-path="url(#p0488ead7fb)" style="fill: #a8a6cf"/>
   </g>
   <g id="patch_76">
    <path d="M 329.673487 162.867273 
L 340.184399 162.867273 
L 340.184399 133.216364 
L 329.673487 133.216364 
z
" clip-path="url(#p0488ead7fb)" style="fill: #a09dca"/>
   </g>
   <g id="patch_77">
    <path d="M 340.184399 162.867273 
L 340.890356 162.867273 
L 340.890356 133.216364 
L 340.184399 133.216364 
z
" clip-path="url(#p0488ead7fb)" style="fill: #9995c6"/>
   </g>
   <g id="patch_78">
    <path d="M 340.890356 162.867273 
L 341.517873 162.867273 
L 341.517873 133.216364 
L 340.890356 133.216364 
z
" clip-path="url(#p0488ead7fb)" style="fill: #928fc3"/>
   </g>
   <g id="patch_79">
    <path d="M 341.517873 162.867273 
L 342.14539 162.867273 
L 342.14539 133.216364 
L 341.517873 133.216364 
z
" clip-path="url(#p0488ead7fb)" style="fill: #8b87bf"/>
   </g>
   <g id="patch_80">
    <path d="M 342.14539 162.867273 
L 342.772908 162.867273 
L 342.772908 133.216364 
L 342.14539 133.216364 
z
" clip-path="url(#p0488ead7fb)" style="fill: #8380bb"/>
   </g>
   <g id="patch_81">
    <path d="M 342.772908 162.867273 
L 343.243545 162.867273 
L 343.243545 133.216364 
L 342.772908 133.216364 
z
" clip-path="url(#p0488ead7fb)" style="fill: #7d78b7"/>
   </g>
   <g id="patch_82">
    <path d="M 343.243545 162.867273 
L 343.714183 162.867273 
L 343.714183 133.216364 
L 343.243545 133.216364 
z
" clip-path="url(#p0488ead7fb)" style="fill: #786db2"/>
   </g>
   <g id="patch_83">
    <path d="M 343.714183 162.867273 
L 344.106381 162.867273 
L 344.106381 133.216364 
L 343.714183 133.216364 
z
" clip-path="url(#p0488ead7fb)" style="fill: #7262ac"/>
   </g>
   <g id="patch_84">
    <path d="M 344.106381 162.867273 
L 344.49858 162.867273 
L 344.49858 133.216364 
L 344.106381 133.216364 
z
" clip-path="url(#p0488ead7fb)" style="fill: #6e58a7"/>
   </g>
   <g id="patch_85">
    <path d="M 344.49858 162.867273 
L 344.733899 162.867273 
L 344.733899 133.216364 
L 344.49858 133.216364 
z
" clip-path="url(#p0488ead7fb)" style="fill: #684da1"/>
   </g>
   <g id="patch_86">
    <path d="M 344.733899 162.867273 
L 344.890778 162.867273 
L 344.890778 133.216364 
L 344.733899 133.216364 
z
" clip-path="url(#p0488ead7fb)" style="fill: #63439c"/>
   </g>
   <g id="patch_87">
    <path d="M 344.890778 162.867273 
L 345.047657 162.867273 
L 345.047657 133.216364 
L 344.890778 133.216364 
z
" clip-path="url(#p0488ead7fb)" style="fill: #5e3a98"/>
   </g>
   <g id="patch_88">
    <path d="M 345.047657 162.867273 
L 345.204536 162.867273 
L 345.204536 133.216364 
L 345.047657 133.216364 
z
" clip-path="url(#p0488ead7fb)" style="fill: #582f93"/>
   </g>
   <g id="patch_89">
    <path d="M 345.204536 162.867273 
L 345.361416 162.867273 
L 345.361416 133.216364 
L 345.204536 133.216364 
z
" clip-path="url(#p0488ead7fb)" style="fill: #53258e"/>
   </g>
   <g id="patch_90">
    <path d="M 345.361416 162.867273 
L 345.518295 162.867273 
L 345.518295 133.216364 
L 345.361416 133.216364 
z
" clip-path="url(#p0488ead7fb)" style="fill: #4e1c8a"/>
   </g>
   <g id="patch_91">
    <path d="M 345.518295 162.867273 
L 345.675174 162.867273 
L 345.675174 133.216364 
L 345.518295 133.216364 
z
" clip-path="url(#p0488ead7fb)" style="fill: #491285"/>
   </g>
   <g id="patch_92">
    <path d="M 345.675174 162.867273 
L 345.832054 162.867273 
L 345.832054 133.216364 
L 345.675174 133.216364 
z
" clip-path="url(#p0488ead7fb)" style="fill: #440981"/>
   </g>
   <g id="matplotlib.axis_1">
    <g id="xtick_1">
     <g id="line2d_1">
      <defs>
       <path id="m6c23387132" d="M 0 0 
L 0 3.5 
" style="stroke: #000000; stroke-width: 0.8"/>
      </defs>
      <g>
       <use xlink:href="#m6c23387132" x="133.260625" y="170.28" style="stroke: #000000; stroke-width: 0.8"/>
      </g>
     </g>
     <g id="text_1">
      <!-- 0 -->
      <g transform="translate(129.924062 185.869375)scale(0.12 -0.12)">
       <defs>
        <path id="ArialMT-30" d="M 266 2259 
Q 266 3072 433 3567 
Q 600 4063 929 4331 
Q 1259 4600 1759 4600 
Q 2128 4600 2406 4451 
Q 2684 4303 2865 4023 
Q 3047 3744 3150 3342 
Q 3253 2941 3253 2259 
Q 3253 1453 3087 958 
Q 2922 463 2592 192 
Q 2263 -78 1759 -78 
Q 1097 -78 719 397 
Q 266 969 266 2259 
z
M 844 2259 
Q 844 1131 1108 757 
Q 1372 384 1759 384 
Q 2147 384 2411 759 
Q 2675 1134 2675 2259 
Q 2675 3391 2411 3762 
Q 2147 4134 1753 4134 
Q 1366 4134 1134 3806 
Q 844 3388 844 2259 
z
" transform="scale(0.015625)"/>
       </defs>
       <use xlink:href="#ArialMT-30"/>
      </g>
     </g>
    </g>
    <g id="xtick_2">
     <g id="line2d_2">
      <g>
       <use xlink:href="#m6c23387132" x="172.480446" y="170.28" style="stroke: #000000; stroke-width: 0.8"/>
      </g>
     </g>
     <g id="text_2">
      <!-- 500 -->
      <g transform="translate(162.470758 185.869375)scale(0.12 -0.12)">
       <defs>
        <path id="ArialMT-35" d="M 266 1200 
L 856 1250 
Q 922 819 1161 601 
Q 1400 384 1738 384 
Q 2144 384 2425 690 
Q 2706 997 2706 1503 
Q 2706 1984 2436 2262 
Q 2166 2541 1728 2541 
Q 1456 2541 1237 2417 
Q 1019 2294 894 2097 
L 366 2166 
L 809 4519 
L 3088 4519 
L 3088 3981 
L 1259 3981 
L 1013 2750 
Q 1425 3038 1878 3038 
Q 2478 3038 2890 2622 
Q 3303 2206 3303 1553 
Q 3303 931 2941 478 
Q 2500 -78 1738 -78 
Q 1113 -78 717 272 
Q 322 622 266 1200 
z
" transform="scale(0.015625)"/>
       </defs>
       <use xlink:href="#ArialMT-35"/>
       <use xlink:href="#ArialMT-30" x="55.615234"/>
       <use xlink:href="#ArialMT-30" x="111.230469"/>
      </g>
     </g>
    </g>
    <g id="xtick_3">
     <g id="line2d_3">
      <g>
       <use xlink:href="#m6c23387132" x="211.700267" y="170.28" style="stroke: #000000; stroke-width: 0.8"/>
      </g>
     </g>
     <g id="text_3">
      <!-- 1000 -->
      <g transform="translate(198.354017 185.869375)scale(0.12 -0.12)">
       <defs>
        <path id="ArialMT-31" d="M 2384 0 
L 1822 0 
L 1822 3584 
Q 1619 3391 1289 3197 
Q 959 3003 697 2906 
L 697 3450 
Q 1169 3672 1522 3987 
Q 1875 4303 2022 4600 
L 2384 4600 
L 2384 0 
z
" transform="scale(0.015625)"/>
       </defs>
       <use xlink:href="#ArialMT-31"/>
       <use xlink:href="#ArialMT-30" x="55.615234"/>
       <use xlink:href="#ArialMT-30" x="111.230469"/>
       <use xlink:href="#ArialMT-30" x="166.845703"/>
      </g>
     </g>
    </g>
    <g id="xtick_4">
     <g id="line2d_4">
      <g>
       <use xlink:href="#m6c23387132" x="250.920087" y="170.28" style="stroke: #000000; stroke-width: 0.8"/>
      </g>
     </g>
     <g id="text_4">
      <!-- 1500 -->
      <g transform="translate(237.573837 185.869375)scale(0.12 -0.12)">
       <use xlink:href="#ArialMT-31"/>
       <use xlink:href="#ArialMT-35" x="55.615234"/>
       <use xlink:href="#ArialMT-30" x="111.230469"/>
       <use xlink:href="#ArialMT-30" x="166.845703"/>
      </g>
     </g>
    </g>
    <g id="xtick_5">
     <g id="line2d_5">
      <g>
       <use xlink:href="#m6c23387132" x="290.139908" y="170.28" style="stroke: #000000; stroke-width: 0.8"/>
      </g>
     </g>
     <g id="text_5">
      <!-- 2000 -->
      <g transform="translate(276.793658 185.869375)scale(0.12 -0.12)">
       <defs>
        <path id="ArialMT-32" d="M 3222 541 
L 3222 0 
L 194 0 
Q 188 203 259 391 
Q 375 700 629 1000 
Q 884 1300 1366 1694 
Q 2113 2306 2375 2664 
Q 2638 3022 2638 3341 
Q 2638 3675 2398 3904 
Q 2159 4134 1775 4134 
Q 1369 4134 1125 3890 
Q 881 3647 878 3216 
L 300 3275 
Q 359 3922 746 4261 
Q 1134 4600 1788 4600 
Q 2447 4600 2831 4234 
Q 3216 3869 3216 3328 
Q 3216 3053 3103 2787 
Q 2991 2522 2730 2228 
Q 2469 1934 1863 1422 
Q 1356 997 1212 845 
Q 1069 694 975 541 
L 3222 541 
z
" transform="scale(0.015625)"/>
       </defs>
       <use xlink:href="#ArialMT-32"/>
       <use xlink:href="#ArialMT-30" x="55.615234"/>
       <use xlink:href="#ArialMT-30" x="111.230469"/>
       <use xlink:href="#ArialMT-30" x="166.845703"/>
      </g>
     </g>
    </g>
    <g id="xtick_6">
     <g id="line2d_6">
      <g>
       <use xlink:href="#m6c23387132" x="329.359729" y="170.28" style="stroke: #000000; stroke-width: 0.8"/>
      </g>
     </g>
     <g id="text_6">
      <!-- 2500 -->
      <g transform="translate(316.013479 185.869375)scale(0.12 -0.12)">
       <use xlink:href="#ArialMT-32"/>
       <use xlink:href="#ArialMT-35" x="55.615234"/>
       <use xlink:href="#ArialMT-30" x="111.230469"/>
       <use xlink:href="#ArialMT-30" x="166.845703"/>
      </g>
     </g>
    </g>
    <g id="text_7">
     <!-- Samples (n=2710) -->
     <g transform="translate(195.668125 200.99)scale(0.12 -0.12)">
      <defs>
       <path id="ArialMT-53" d="M 288 1472 
L 859 1522 
Q 900 1178 1048 958 
Q 1197 738 1509 602 
Q 1822 466 2213 466 
Q 2559 466 2825 569 
Q 3091 672 3220 851 
Q 3350 1031 3350 1244 
Q 3350 1459 3225 1620 
Q 3100 1781 2813 1891 
Q 2628 1963 1997 2114 
Q 1366 2266 1113 2400 
Q 784 2572 623 2826 
Q 463 3081 463 3397 
Q 463 3744 659 4045 
Q 856 4347 1234 4503 
Q 1613 4659 2075 4659 
Q 2584 4659 2973 4495 
Q 3363 4331 3572 4012 
Q 3781 3694 3797 3291 
L 3216 3247 
Q 3169 3681 2898 3903 
Q 2628 4125 2100 4125 
Q 1550 4125 1298 3923 
Q 1047 3722 1047 3438 
Q 1047 3191 1225 3031 
Q 1400 2872 2139 2705 
Q 2878 2538 3153 2413 
Q 3553 2228 3743 1945 
Q 3934 1663 3934 1294 
Q 3934 928 3725 604 
Q 3516 281 3123 101 
Q 2731 -78 2241 -78 
Q 1619 -78 1198 103 
Q 778 284 539 648 
Q 300 1013 288 1472 
z
" transform="scale(0.015625)"/>
       <path id="ArialMT-61" d="M 2588 409 
Q 2275 144 1986 34 
Q 1697 -75 1366 -75 
Q 819 -75 525 192 
Q 231 459 231 875 
Q 231 1119 342 1320 
Q 453 1522 633 1644 
Q 813 1766 1038 1828 
Q 1203 1872 1538 1913 
Q 2219 1994 2541 2106 
Q 2544 2222 2544 2253 
Q 2544 2597 2384 2738 
Q 2169 2928 1744 2928 
Q 1347 2928 1158 2789 
Q 969 2650 878 2297 
L 328 2372 
Q 403 2725 575 2942 
Q 747 3159 1072 3276 
Q 1397 3394 1825 3394 
Q 2250 3394 2515 3294 
Q 2781 3194 2906 3042 
Q 3031 2891 3081 2659 
Q 3109 2516 3109 2141 
L 3109 1391 
Q 3109 606 3145 398 
Q 3181 191 3288 0 
L 2700 0 
Q 2613 175 2588 409 
z
M 2541 1666 
Q 2234 1541 1622 1453 
Q 1275 1403 1131 1340 
Q 988 1278 909 1158 
Q 831 1038 831 891 
Q 831 666 1001 516 
Q 1172 366 1500 366 
Q 1825 366 2078 508 
Q 2331 650 2450 897 
Q 2541 1088 2541 1459 
L 2541 1666 
z
" transform="scale(0.015625)"/>
       <path id="ArialMT-6d" d="M 422 0 
L 422 3319 
L 925 3319 
L 925 2853 
Q 1081 3097 1340 3245 
Q 1600 3394 1931 3394 
Q 2300 3394 2536 3241 
Q 2772 3088 2869 2813 
Q 3263 3394 3894 3394 
Q 4388 3394 4653 3120 
Q 4919 2847 4919 2278 
L 4919 0 
L 4359 0 
L 4359 2091 
Q 4359 2428 4304 2576 
Q 4250 2725 4106 2815 
Q 3963 2906 3769 2906 
Q 3419 2906 3187 2673 
Q 2956 2441 2956 1928 
L 2956 0 
L 2394 0 
L 2394 2156 
Q 2394 2531 2256 2718 
Q 2119 2906 1806 2906 
Q 1569 2906 1367 2781 
Q 1166 2656 1075 2415 
Q 984 2175 984 1722 
L 984 0 
L 422 0 
z
" transform="scale(0.015625)"/>
       <path id="ArialMT-70" d="M 422 -1272 
L 422 3319 
L 934 3319 
L 934 2888 
Q 1116 3141 1344 3267 
Q 1572 3394 1897 3394 
Q 2322 3394 2647 3175 
Q 2972 2956 3137 2557 
Q 3303 2159 3303 1684 
Q 3303 1175 3120 767 
Q 2938 359 2589 142 
Q 2241 -75 1856 -75 
Q 1575 -75 1351 44 
Q 1128 163 984 344 
L 984 -1272 
L 422 -1272 
z
M 931 1641 
Q 931 1000 1190 694 
Q 1450 388 1819 388 
Q 2194 388 2461 705 
Q 2728 1022 2728 1688 
Q 2728 2322 2467 2637 
Q 2206 2953 1844 2953 
Q 1484 2953 1207 2617 
Q 931 2281 931 1641 
z
" transform="scale(0.015625)"/>
       <path id="ArialMT-6c" d="M 409 0 
L 409 4581 
L 972 4581 
L 972 0 
L 409 0 
z
" transform="scale(0.015625)"/>
       <path id="ArialMT-65" d="M 2694 1069 
L 3275 997 
Q 3138 488 2766 206 
Q 2394 -75 1816 -75 
Q 1088 -75 661 373 
Q 234 822 234 1631 
Q 234 2469 665 2931 
Q 1097 3394 1784 3394 
Q 2450 3394 2872 2941 
Q 3294 2488 3294 1666 
Q 3294 1616 3291 1516 
L 816 1516 
Q 847 969 1125 678 
Q 1403 388 1819 388 
Q 2128 388 2347 550 
Q 2566 713 2694 1069 
z
M 847 1978 
L 2700 1978 
Q 2663 2397 2488 2606 
Q 2219 2931 1791 2931 
Q 1403 2931 1139 2672 
Q 875 2413 847 1978 
z
" transform="scale(0.015625)"/>
       <path id="ArialMT-73" d="M 197 991 
L 753 1078 
Q 800 744 1014 566 
Q 1228 388 1613 388 
Q 2000 388 2187 545 
Q 2375 703 2375 916 
Q 2375 1106 2209 1216 
Q 2094 1291 1634 1406 
Q 1016 1563 777 1677 
Q 538 1791 414 1992 
Q 291 2194 291 2438 
Q 291 2659 392 2848 
Q 494 3038 669 3163 
Q 800 3259 1026 3326 
Q 1253 3394 1513 3394 
Q 1903 3394 2198 3281 
Q 2494 3169 2634 2976 
Q 2775 2784 2828 2463 
L 2278 2388 
Q 2241 2644 2061 2787 
Q 1881 2931 1553 2931 
Q 1166 2931 1000 2803 
Q 834 2675 834 2503 
Q 834 2394 903 2306 
Q 972 2216 1119 2156 
Q 1203 2125 1616 2013 
Q 2213 1853 2448 1751 
Q 2684 1650 2818 1456 
Q 2953 1263 2953 975 
Q 2953 694 2789 445 
Q 2625 197 2315 61 
Q 2006 -75 1616 -75 
Q 969 -75 630 194 
Q 291 463 197 991 
z
" transform="scale(0.015625)"/>
       <path id="ArialMT-20" transform="scale(0.015625)"/>
       <path id="ArialMT-28" d="M 1497 -1347 
Q 1031 -759 709 28 
Q 388 816 388 1659 
Q 388 2403 628 3084 
Q 909 3875 1497 4659 
L 1900 4659 
Q 1522 4009 1400 3731 
Q 1209 3300 1100 2831 
Q 966 2247 966 1656 
Q 966 153 1900 -1347 
L 1497 -1347 
z
" transform="scale(0.015625)"/>
       <path id="ArialMT-6e" d="M 422 0 
L 422 3319 
L 928 3319 
L 928 2847 
Q 1294 3394 1984 3394 
Q 2284 3394 2536 3286 
Q 2788 3178 2913 3003 
Q 3038 2828 3088 2588 
Q 3119 2431 3119 2041 
L 3119 0 
L 2556 0 
L 2556 2019 
Q 2556 2363 2490 2533 
Q 2425 2703 2258 2804 
Q 2091 2906 1866 2906 
Q 1506 2906 1245 2678 
Q 984 2450 984 1813 
L 984 0 
L 422 0 
z
" transform="scale(0.015625)"/>
       <path id="ArialMT-3d" d="M 3381 2694 
L 356 2694 
L 356 3219 
L 3381 3219 
L 3381 2694 
z
M 3381 1303 
L 356 1303 
L 356 1828 
L 3381 1828 
L 3381 1303 
z
" transform="scale(0.015625)"/>
       <path id="ArialMT-37" d="M 303 3981 
L 303 4522 
L 3269 4522 
L 3269 4084 
Q 2831 3619 2401 2847 
Q 1972 2075 1738 1259 
Q 1569 684 1522 0 
L 944 0 
Q 953 541 1156 1306 
Q 1359 2072 1739 2783 
Q 2119 3494 2547 3981 
L 303 3981 
z
" transform="scale(0.015625)"/>
       <path id="ArialMT-29" d="M 791 -1347 
L 388 -1347 
Q 1322 153 1322 1656 
Q 1322 2244 1188 2822 
Q 1081 3291 891 3722 
Q 769 4003 388 4659 
L 791 4659 
Q 1378 3875 1659 3084 
Q 1900 2403 1900 1659 
Q 1900 816 1576 28 
Q 1253 -759 791 -1347 
z
" transform="scale(0.015625)"/>
      </defs>
      <use xlink:href="#ArialMT-53"/>
      <use xlink:href="#ArialMT-61" x="66.699219"/>
      <use xlink:href="#ArialMT-6d" x="122.314453"/>
      <use xlink:href="#ArialMT-70" x="205.615234"/>
      <use xlink:href="#ArialMT-6c" x="261.230469"/>
      <use xlink:href="#ArialMT-65" x="283.447266"/>
      <use xlink:href="#ArialMT-73" x="339.0625"/>
      <use xlink:href="#ArialMT-20" x="389.0625"/>
      <use xlink:href="#ArialMT-28" x="416.845703"/>
      <use xlink:href="#ArialMT-6e" x="450.146484"/>
      <use xlink:href="#ArialMT-3d" x="505.761719"/>
      <use xlink:href="#ArialMT-32" x="564.160156"/>
      <use xlink:href="#ArialMT-37" x="619.775391"/>
      <use xlink:href="#ArialMT-31" x="675.390625"/>
      <use xlink:href="#ArialMT-30" x="731.005859"/>
      <use xlink:href="#ArialMT-29" x="786.621094"/>
     </g>
    </g>
   </g>
   <g id="matplotlib.axis_2">
    <g id="ytick_1">
     <g id="line2d_7">
      <defs>
       <path id="m40fb50b947" d="M 0 0 
L -3.5 0 
" style="stroke: #000000; stroke-width: 0.8"/>
      </defs>
      <g>
       <use xlink:href="#m40fb50b947" x="133.260625" y="148.041818" style="stroke: #000000; stroke-width: 0.8"/>
      </g>
     </g>
     <g id="text_8">
      <!-- Carbon Source (n=20) -->
      <g transform="translate(7.2 152.409631)scale(0.12 -0.12)">
       <defs>
        <path id="ArialMT-43" d="M 3763 1606 
L 4369 1453 
Q 4178 706 3683 314 
Q 3188 -78 2472 -78 
Q 1731 -78 1267 223 
Q 803 525 561 1097 
Q 319 1669 319 2325 
Q 319 3041 592 3573 
Q 866 4106 1370 4382 
Q 1875 4659 2481 4659 
Q 3169 4659 3637 4309 
Q 4106 3959 4291 3325 
L 3694 3184 
Q 3534 3684 3231 3912 
Q 2928 4141 2469 4141 
Q 1941 4141 1586 3887 
Q 1231 3634 1087 3207 
Q 944 2781 944 2328 
Q 944 1744 1114 1308 
Q 1284 872 1643 656 
Q 2003 441 2422 441 
Q 2931 441 3284 734 
Q 3638 1028 3763 1606 
z
" transform="scale(0.015625)"/>
        <path id="ArialMT-72" d="M 416 0 
L 416 3319 
L 922 3319 
L 922 2816 
Q 1116 3169 1280 3281 
Q 1444 3394 1641 3394 
Q 1925 3394 2219 3213 
L 2025 2691 
Q 1819 2813 1613 2813 
Q 1428 2813 1281 2702 
Q 1134 2591 1072 2394 
Q 978 2094 978 1738 
L 978 0 
L 416 0 
z
" transform="scale(0.015625)"/>
        <path id="ArialMT-62" d="M 941 0 
L 419 0 
L 419 4581 
L 981 4581 
L 981 2947 
Q 1338 3394 1891 3394 
Q 2197 3394 2470 3270 
Q 2744 3147 2920 2923 
Q 3097 2700 3197 2384 
Q 3297 2069 3297 1709 
Q 3297 856 2875 390 
Q 2453 -75 1863 -75 
Q 1275 -75 941 416 
L 941 0 
z
M 934 1684 
Q 934 1088 1097 822 
Q 1363 388 1816 388 
Q 2184 388 2453 708 
Q 2722 1028 2722 1663 
Q 2722 2313 2464 2622 
Q 2206 2931 1841 2931 
Q 1472 2931 1203 2611 
Q 934 2291 934 1684 
z
" transform="scale(0.015625)"/>
        <path id="ArialMT-6f" d="M 213 1659 
Q 213 2581 725 3025 
Q 1153 3394 1769 3394 
Q 2453 3394 2887 2945 
Q 3322 2497 3322 1706 
Q 3322 1066 3130 698 
Q 2938 331 2570 128 
Q 2203 -75 1769 -75 
Q 1072 -75 642 372 
Q 213 819 213 1659 
z
M 791 1659 
Q 791 1022 1069 705 
Q 1347 388 1769 388 
Q 2188 388 2466 706 
Q 2744 1025 2744 1678 
Q 2744 2294 2464 2611 
Q 2184 2928 1769 2928 
Q 1347 2928 1069 2612 
Q 791 2297 791 1659 
z
" transform="scale(0.015625)"/>
        <path id="ArialMT-75" d="M 2597 0 
L 2597 488 
Q 2209 -75 1544 -75 
Q 1250 -75 995 37 
Q 741 150 617 320 
Q 494 491 444 738 
Q 409 903 409 1263 
L 409 3319 
L 972 3319 
L 972 1478 
Q 972 1038 1006 884 
Q 1059 663 1231 536 
Q 1403 409 1656 409 
Q 1909 409 2131 539 
Q 2353 669 2445 892 
Q 2538 1116 2538 1541 
L 2538 3319 
L 3100 3319 
L 3100 0 
L 2597 0 
z
" transform="scale(0.015625)"/>
        <path id="ArialMT-63" d="M 2588 1216 
L 3141 1144 
Q 3050 572 2676 248 
Q 2303 -75 1759 -75 
Q 1078 -75 664 370 
Q 250 816 250 1647 
Q 250 2184 428 2587 
Q 606 2991 970 3192 
Q 1334 3394 1763 3394 
Q 2303 3394 2647 3120 
Q 2991 2847 3088 2344 
L 2541 2259 
Q 2463 2594 2264 2762 
Q 2066 2931 1784 2931 
Q 1359 2931 1093 2626 
Q 828 2322 828 1663 
Q 828 994 1084 691 
Q 1341 388 1753 388 
Q 2084 388 2306 591 
Q 2528 794 2588 1216 
z
" transform="scale(0.015625)"/>
       </defs>
       <use xlink:href="#ArialMT-43"/>
       <use xlink:href="#ArialMT-61" x="72.216797"/>
       <use xlink:href="#ArialMT-72" x="127.832031"/>
       <use xlink:href="#ArialMT-62" x="161.132812"/>
       <use xlink:href="#ArialMT-6f" x="216.748047"/>
       <use xlink:href="#ArialMT-6e" x="272.363281"/>
       <use xlink:href="#ArialMT-20" x="327.978516"/>
       <use xlink:href="#ArialMT-53" x="355.761719"/>
       <use xlink:href="#ArialMT-6f" x="422.460938"/>
       <use xlink:href="#ArialMT-75" x="478.076172"/>
       <use xlink:href="#ArialMT-72" x="533.691406"/>
       <use xlink:href="#ArialMT-63" x="566.992188"/>
       <use xlink:href="#ArialMT-65" x="616.992188"/>
       <use xlink:href="#ArialMT-20" x="672.607422"/>
       <use xlink:href="#ArialMT-28" x="700.390625"/>
       <use xlink:href="#ArialMT-6e" x="733.691406"/>
       <use xlink:href="#ArialMT-3d" x="789.306641"/>
       <use xlink:href="#ArialMT-32" x="847.705078"/>
       <use xlink:href="#ArialMT-30" x="903.320312"/>
       <use xlink:href="#ArialMT-29" x="958.935547"/>
      </g>
     </g>
    </g>
    <g id="ytick_2">
     <g id="line2d_8">
      <g>
       <use xlink:href="#m40fb50b947" x="133.260625" y="118.390909" style="stroke: #000000; stroke-width: 0.8"/>
      </g>
     </g>
     <g id="text_9">
      <!-- Base Media (n=34) -->
      <g transform="translate(24.541875 122.758722)scale(0.12 -0.12)">
       <defs>
        <path id="ArialMT-42" d="M 469 0 
L 469 4581 
L 2188 4581 
Q 2713 4581 3030 4442 
Q 3347 4303 3526 4014 
Q 3706 3725 3706 3409 
Q 3706 3116 3547 2856 
Q 3388 2597 3066 2438 
Q 3481 2316 3704 2022 
Q 3928 1728 3928 1328 
Q 3928 1006 3792 729 
Q 3656 453 3456 303 
Q 3256 153 2954 76 
Q 2653 0 2216 0 
L 469 0 
z
M 1075 2656 
L 2066 2656 
Q 2469 2656 2644 2709 
Q 2875 2778 2992 2937 
Q 3109 3097 3109 3338 
Q 3109 3566 3000 3739 
Q 2891 3913 2687 3977 
Q 2484 4041 1991 4041 
L 1075 4041 
L 1075 2656 
z
M 1075 541 
L 2216 541 
Q 2509 541 2628 563 
Q 2838 600 2978 687 
Q 3119 775 3209 942 
Q 3300 1109 3300 1328 
Q 3300 1584 3169 1773 
Q 3038 1963 2805 2039 
Q 2572 2116 2134 2116 
L 1075 2116 
L 1075 541 
z
" transform="scale(0.015625)"/>
        <path id="ArialMT-4d" d="M 475 0 
L 475 4581 
L 1388 4581 
L 2472 1338 
Q 2622 884 2691 659 
Q 2769 909 2934 1394 
L 4031 4581 
L 4847 4581 
L 4847 0 
L 4263 0 
L 4263 3834 
L 2931 0 
L 2384 0 
L 1059 3900 
L 1059 0 
L 475 0 
z
" transform="scale(0.015625)"/>
        <path id="ArialMT-64" d="M 2575 0 
L 2575 419 
Q 2259 -75 1647 -75 
Q 1250 -75 917 144 
Q 584 363 401 755 
Q 219 1147 219 1656 
Q 219 2153 384 2558 
Q 550 2963 881 3178 
Q 1213 3394 1622 3394 
Q 1922 3394 2156 3267 
Q 2391 3141 2538 2938 
L 2538 4581 
L 3097 4581 
L 3097 0 
L 2575 0 
z
M 797 1656 
Q 797 1019 1065 703 
Q 1334 388 1700 388 
Q 2069 388 2326 689 
Q 2584 991 2584 1609 
Q 2584 2291 2321 2609 
Q 2059 2928 1675 2928 
Q 1300 2928 1048 2622 
Q 797 2316 797 1656 
z
" transform="scale(0.015625)"/>
        <path id="ArialMT-69" d="M 425 3934 
L 425 4581 
L 988 4581 
L 988 3934 
L 425 3934 
z
M 425 0 
L 425 3319 
L 988 3319 
L 988 0 
L 425 0 
z
" transform="scale(0.015625)"/>
        <path id="ArialMT-33" d="M 269 1209 
L 831 1284 
Q 928 806 1161 595 
Q 1394 384 1728 384 
Q 2125 384 2398 659 
Q 2672 934 2672 1341 
Q 2672 1728 2419 1979 
Q 2166 2231 1775 2231 
Q 1616 2231 1378 2169 
L 1441 2663 
Q 1497 2656 1531 2656 
Q 1891 2656 2178 2843 
Q 2466 3031 2466 3422 
Q 2466 3731 2256 3934 
Q 2047 4138 1716 4138 
Q 1388 4138 1169 3931 
Q 950 3725 888 3313 
L 325 3413 
Q 428 3978 793 4289 
Q 1159 4600 1703 4600 
Q 2078 4600 2393 4439 
Q 2709 4278 2876 4000 
Q 3044 3722 3044 3409 
Q 3044 3113 2884 2869 
Q 2725 2625 2413 2481 
Q 2819 2388 3044 2092 
Q 3269 1797 3269 1353 
Q 3269 753 2831 336 
Q 2394 -81 1725 -81 
Q 1122 -81 723 278 
Q 325 638 269 1209 
z
" transform="scale(0.015625)"/>
        <path id="ArialMT-34" d="M 2069 0 
L 2069 1097 
L 81 1097 
L 81 1613 
L 2172 4581 
L 2631 4581 
L 2631 1613 
L 3250 1613 
L 3250 1097 
L 2631 1097 
L 2631 0 
L 2069 0 
z
M 2069 1613 
L 2069 3678 
L 634 1613 
L 2069 1613 
z
" transform="scale(0.015625)"/>
       </defs>
       <use xlink:href="#ArialMT-42"/>
       <use xlink:href="#ArialMT-61" x="66.699219"/>
       <use xlink:href="#ArialMT-73" x="122.314453"/>
       <use xlink:href="#ArialMT-65" x="172.314453"/>
       <use xlink:href="#ArialMT-20" x="227.929688"/>
       <use xlink:href="#ArialMT-4d" x="255.712891"/>
       <use xlink:href="#ArialMT-65" x="339.013672"/>
       <use xlink:href="#ArialMT-64" x="394.628906"/>
       <use xlink:href="#ArialMT-69" x="450.244141"/>
       <use xlink:href="#ArialMT-61" x="472.460938"/>
       <use xlink:href="#ArialMT-20" x="528.076172"/>
       <use xlink:href="#ArialMT-28" x="555.859375"/>
       <use xlink:href="#ArialMT-6e" x="589.160156"/>
       <use xlink:href="#ArialMT-3d" x="644.775391"/>
       <use xlink:href="#ArialMT-33" x="703.173828"/>
       <use xlink:href="#ArialMT-34" x="758.789062"/>
       <use xlink:href="#ArialMT-29" x="814.404297"/>
      </g>
     </g>
    </g>
    <g id="ytick_3">
     <g id="line2d_9">
      <g>
       <use xlink:href="#m40fb50b947" x="133.260625" y="88.74" style="stroke: #000000; stroke-width: 0.8"/>
      </g>
     </g>
     <g id="text_10">
      <!-- pH (n=9) -->
      <g transform="translate(79.24125 93.107813)scale(0.12 -0.12)">
       <defs>
        <path id="ArialMT-48" d="M 513 0 
L 513 4581 
L 1119 4581 
L 1119 2700 
L 3500 2700 
L 3500 4581 
L 4106 4581 
L 4106 0 
L 3500 0 
L 3500 2159 
L 1119 2159 
L 1119 0 
L 513 0 
z
" transform="scale(0.015625)"/>
        <path id="ArialMT-39" d="M 350 1059 
L 891 1109 
Q 959 728 1153 556 
Q 1347 384 1650 384 
Q 1909 384 2104 503 
Q 2300 622 2425 820 
Q 2550 1019 2634 1356 
Q 2719 1694 2719 2044 
Q 2719 2081 2716 2156 
Q 2547 1888 2255 1720 
Q 1963 1553 1622 1553 
Q 1053 1553 659 1965 
Q 266 2378 266 3053 
Q 266 3750 677 4175 
Q 1088 4600 1706 4600 
Q 2153 4600 2523 4359 
Q 2894 4119 3086 3673 
Q 3278 3228 3278 2384 
Q 3278 1506 3087 986 
Q 2897 466 2520 194 
Q 2144 -78 1638 -78 
Q 1100 -78 759 220 
Q 419 519 350 1059 
z
M 2653 3081 
Q 2653 3566 2395 3850 
Q 2138 4134 1775 4134 
Q 1400 4134 1122 3828 
Q 844 3522 844 3034 
Q 844 2597 1108 2323 
Q 1372 2050 1759 2050 
Q 2150 2050 2401 2323 
Q 2653 2597 2653 3081 
z
" transform="scale(0.015625)"/>
       </defs>
       <use xlink:href="#ArialMT-70"/>
       <use xlink:href="#ArialMT-48" x="55.615234"/>
       <use xlink:href="#ArialMT-20" x="127.832031"/>
       <use xlink:href="#ArialMT-28" x="155.615234"/>
       <use xlink:href="#ArialMT-6e" x="188.916016"/>
       <use xlink:href="#ArialMT-3d" x="244.53125"/>
       <use xlink:href="#ArialMT-39" x="302.929688"/>
       <use xlink:href="#ArialMT-29" x="358.544922"/>
      </g>
     </g>
    </g>
    <g id="ytick_4">
     <g id="line2d_10">
      <g>
       <use xlink:href="#m40fb50b947" x="133.260625" y="59.089091" style="stroke: #000000; stroke-width: 0.8"/>
      </g>
     </g>
     <g id="text_11">
      <!-- Temperature (C) (n=9) -->
      <g transform="translate(7.235625 63.456903)scale(0.12 -0.12)">
       <defs>
        <path id="ArialMT-54" d="M 1659 0 
L 1659 4041 
L 150 4041 
L 150 4581 
L 3781 4581 
L 3781 4041 
L 2266 4041 
L 2266 0 
L 1659 0 
z
" transform="scale(0.015625)"/>
        <path id="ArialMT-74" d="M 1650 503 
L 1731 6 
Q 1494 -44 1306 -44 
Q 1000 -44 831 53 
Q 663 150 594 308 
Q 525 466 525 972 
L 525 2881 
L 113 2881 
L 113 3319 
L 525 3319 
L 525 4141 
L 1084 4478 
L 1084 3319 
L 1650 3319 
L 1650 2881 
L 1084 2881 
L 1084 941 
Q 1084 700 1114 631 
Q 1144 563 1211 522 
Q 1278 481 1403 481 
Q 1497 481 1650 503 
z
" transform="scale(0.015625)"/>
       </defs>
       <use xlink:href="#ArialMT-54"/>
       <use xlink:href="#ArialMT-65" x="49.958984"/>
       <use xlink:href="#ArialMT-6d" x="105.574219"/>
       <use xlink:href="#ArialMT-70" x="188.875"/>
       <use xlink:href="#ArialMT-65" x="244.490234"/>
       <use xlink:href="#ArialMT-72" x="300.105469"/>
       <use xlink:href="#ArialMT-61" x="333.40625"/>
       <use xlink:href="#ArialMT-74" x="389.021484"/>
       <use xlink:href="#ArialMT-75" x="416.804688"/>
       <use xlink:href="#ArialMT-72" x="472.419922"/>
       <use xlink:href="#ArialMT-65" x="505.720703"/>
       <use xlink:href="#ArialMT-20" x="561.335938"/>
       <use xlink:href="#ArialMT-28" x="589.119141"/>
       <use xlink:href="#ArialMT-43" x="622.419922"/>
       <use xlink:href="#ArialMT-29" x="694.636719"/>
       <use xlink:href="#ArialMT-20" x="727.9375"/>
       <use xlink:href="#ArialMT-28" x="755.720703"/>
       <use xlink:href="#ArialMT-6e" x="789.021484"/>
       <use xlink:href="#ArialMT-3d" x="844.636719"/>
       <use xlink:href="#ArialMT-39" x="903.035156"/>
       <use xlink:href="#ArialMT-29" x="958.650391"/>
      </g>
     </g>
    </g>
    <g id="ytick_5">
     <g id="line2d_11">
      <g>
       <use xlink:href="#m40fb50b947" x="133.260625" y="29.438182" style="stroke: #000000; stroke-width: 0.8"/>
      </g>
     </g>
     <g id="text_12">
      <!-- Strain (n=15) -->
      <g transform="translate(56.56125 33.805994)scale(0.12 -0.12)">
       <use xlink:href="#ArialMT-53"/>
       <use xlink:href="#ArialMT-74" x="66.699219"/>
       <use xlink:href="#ArialMT-72" x="94.482422"/>
       <use xlink:href="#ArialMT-61" x="127.783203"/>
       <use xlink:href="#ArialMT-69" x="183.398438"/>
       <use xlink:href="#ArialMT-6e" x="205.615234"/>
       <use xlink:href="#ArialMT-20" x="261.230469"/>
       <use xlink:href="#ArialMT-28" x="289.013672"/>
       <use xlink:href="#ArialMT-6e" x="322.314453"/>
       <use xlink:href="#ArialMT-3d" x="377.929688"/>
       <use xlink:href="#ArialMT-31" x="436.328125"/>
       <use xlink:href="#ArialMT-35" x="491.943359"/>
       <use xlink:href="#ArialMT-29" x="547.558594"/>
      </g>
     </g>
    </g>
   </g>
  </g>
 </g>
 <defs>
  <clipPath id="p0488ead7fb">
   <rect x="133.260625" y="7.2" width="223.2" height="163.08"/>
  </clipPath>
 </defs>
</svg>
