<?xml version="1.0" encoding="utf-8" standalone="no"?>
<!DOCTYPE svg PUBLIC "-//W3C//DTD SVG 1.1//EN"
  "http://www.w3.org/Graphics/SVG/1.1/DTD/svg11.dtd">
<svg xmlns:xlink="http://www.w3.org/1999/xlink" width="217.99889pt" height="190.567689pt" viewBox="0 0 217.99889 190.567689" xmlns="http://www.w3.org/2000/svg" version="1.1">
 <metadata>
  <rdf:RDF xmlns:dc="http://purl.org/dc/elements/1.1/" xmlns:cc="http://creativecommons.org/ns#" xmlns:rdf="http://www.w3.org/1999/02/22-rdf-syntax-ns#">
   <cc:Work>
    <dc:type rdf:resource="http://purl.org/dc/dcmitype/StillImage"/>
    <dc:date>2023-04-24T15:02:32.154966</dc:date>
    <dc:format>image/svg+xml</dc:format>
    <dc:creator>
     <cc:Agent>
      <dc:title>Matplotlib v3.6.2, https://matplotlib.org/</dc:title>
     </cc:Agent>
    </dc:creator>
   </cc:Work>
  </rdf:RDF>
 </metadata>
 <defs>
  <style type="text/css">*{stroke-linejoin: round; stroke-linecap: butt}</style>
 </defs>
 <g id="figure_1">
  <g id="patch_1">
   <path d="M 0 190.567689 
L 217.99889 190.567689 
L 217.99889 0 
L 0 0 
z
" style="fill: #ffffff"/>
  </g>
  <g id="axes_1">
   <g id="patch_2">
    <path d="M 69.483673 128.933838 
C 61.899873 117.500245 57.853718 104.080097 57.853718 90.36 
C 57.853718 76.639903 61.899873 63.219755 69.483673 51.786162 
C 63.653828 50.389216 57.582439 50.331915 51.727265 51.618578 
C 45.872092 52.905241 40.384082 55.502699 35.677008 59.215113 
C 30.969935 62.927526 27.165148 67.65919 24.549514 73.053355 
C 21.933879 78.447519 20.574828 84.365123 20.574828 90.36 
C 20.574828 96.354877 21.933879 102.272481 24.549514 107.666645 
C 27.165148 113.06081 30.969935 117.792474 35.677008 121.504887 
C 40.384082 125.217301 45.872092 127.814759 51.727265 129.101422 
C 57.582439 130.388085 63.653828 130.330784 69.483673 128.933838 
" clip-path="url(#pc36ffe4393)" style="fill: #1f77b4"/>
   </g>
   <g id="patch_3">
    <path d="M 69.483673 51.786162 
C 78.149234 53.862602 85.867325 58.799732 91.385507 65.796389 
C 96.903689 72.793046 99.906411 81.449133 99.906411 90.36 
C 99.906411 99.270867 96.903689 107.926954 91.385507 114.923611 
C 85.867325 121.920268 78.149234 126.857398 69.483673 128.933838 
C 73.600391 135.140341 78.684258 140.647993 84.542012 145.247424 
C 90.399767 149.846856 96.95623 153.479035 103.962161 156.005889 
C 110.968091 158.532742 118.333575 159.921839 125.778616 160.120373 
C 133.223657 160.318907 140.652705 159.324331 147.783348 157.174452 
C 154.913992 155.024574 161.654715 151.746985 167.749273 147.466282 
C 173.84383 143.185579 179.214004 137.9567 183.65565 131.97842 
C 188.097295 126.000139 191.553408 119.349183 193.892605 112.278383 
C 196.231802 105.207583 197.424062 97.807688 197.424062 90.36 
C 197.424062 82.912312 196.231802 75.512417 193.892605 68.441617 
C 191.553408 61.370817 188.097295 54.719861 183.65565 48.74158 
C 179.214004 42.7633 173.84383 37.534421 167.749273 33.253718 
C 161.654715 28.973015 154.913992 25.695426 147.783348 23.545548 
C 140.652705 21.395669 133.223657 20.401093 125.778616 20.599627 
C 118.333575 20.798161 110.968091 22.187258 103.962161 24.714111 
C 96.95623 27.240965 90.399767 30.873144 84.542012 35.472576 
C 78.684258 40.072007 73.600391 45.579659 69.483673 51.786162 
" clip-path="url(#pc36ffe4393)" style="fill: #d62728"/>
   </g>
   <g id="patch_4">
    <path d="M 69.483673 128.933838 
C 78.149234 126.857398 85.867325 121.920268 91.385507 114.923611 
C 96.903689 107.926954 99.906411 99.270867 99.906411 90.36 
C 99.906411 81.449133 96.903689 72.793046 91.385507 65.796389 
C 85.867325 58.799732 78.149234 53.862602 69.483673 51.786162 
C 61.899873 63.219755 57.853718 76.639903 57.853718 90.36 
C 57.853718 104.080097 61.899873 117.500245 69.483673 128.933838 
" clip-path="url(#pc36ffe4393)" style="fill: #ab6f9a"/>
   </g>
   <g id="text_1">
    <!-- CsrA -->
    <g transform="translate(40.240932 141.940371) scale(0.09 -0.09)">
     <defs>
      <path id="ArialMT-43" d="M 3763 1606 
L 4369 1453 
Q 4178 706 3683 314 
Q 3188 -78 2472 -78 
Q 1731 -78 1267 223 
Q 803 525 561 1097 
Q 319 1669 319 2325 
Q 319 3041 592 3573 
Q 866 4106 1370 4382 
Q 1875 4659 2481 4659 
Q 3169 4659 3637 4309 
Q 4106 3959 4291 3325 
L 3694 3184 
Q 3534 3684 3231 3912 
Q 2928 4141 2469 4141 
Q 1941 4141 1586 3887 
Q 1231 3634 1087 3207 
Q 944 2781 944 2328 
Q 944 1744 1114 1308 
Q 1284 872 1643 656 
Q 2003 441 2422 441 
Q 2931 441 3284 734 
Q 3638 1028 3763 1606 
z
" transform="scale(0.015625)"/>
      <path id="ArialMT-73" d="M 197 991 
L 753 1078 
Q 800 744 1014 566 
Q 1228 388 1613 388 
Q 2000 388 2187 545 
Q 2375 703 2375 916 
Q 2375 1106 2209 1216 
Q 2094 1291 1634 1406 
Q 1016 1563 777 1677 
Q 538 1791 414 1992 
Q 291 2194 291 2438 
Q 291 2659 392 2848 
Q 494 3038 669 3163 
Q 800 3259 1026 3326 
Q 1253 3394 1513 3394 
Q 1903 3394 2198 3281 
Q 2494 3169 2634 2976 
Q 2775 2784 2828 2463 
L 2278 2388 
Q 2241 2644 2061 2787 
Q 1881 2931 1553 2931 
Q 1166 2931 1000 2803 
Q 834 2675 834 2503 
Q 834 2394 903 2306 
Q 972 2216 1119 2156 
Q 1203 2125 1616 2013 
Q 2213 1853 2448 1751 
Q 2684 1650 2818 1456 
Q 2953 1263 2953 975 
Q 2953 694 2789 445 
Q 2625 197 2315 61 
Q 2006 -75 1616 -75 
Q 969 -75 630 194 
Q 291 463 197 991 
z
" transform="scale(0.015625)"/>
      <path id="ArialMT-72" d="M 416 0 
L 416 3319 
L 922 3319 
L 922 2816 
Q 1116 3169 1280 3281 
Q 1444 3394 1641 3394 
Q 1925 3394 2219 3213 
L 2025 2691 
Q 1819 2813 1613 2813 
Q 1428 2813 1281 2702 
Q 1134 2591 1072 2394 
Q 978 2094 978 1738 
L 978 0 
L 416 0 
z
" transform="scale(0.015625)"/>
      <path id="ArialMT-41" d="M -9 0 
L 1750 4581 
L 2403 4581 
L 4278 0 
L 3588 0 
L 3053 1388 
L 1138 1388 
L 634 0 
L -9 0 
z
M 1313 1881 
L 2866 1881 
L 2388 3150 
Q 2169 3728 2063 4100 
Q 1975 3659 1816 3225 
L 1313 1881 
z
" transform="scale(0.015625)"/>
     </defs>
     <use xlink:href="#ArialMT-43"/>
     <use xlink:href="#ArialMT-73" x="72.216797"/>
     <use xlink:href="#ArialMT-72" x="122.216797"/>
     <use xlink:href="#ArialMT-41" x="155.517578"/>
    </g>
    <!-- Regulon -->
    <g transform="translate(26.717026 151.459558) scale(0.09 -0.09)">
     <defs>
      <path id="ArialMT-52" d="M 503 0 
L 503 4581 
L 2534 4581 
Q 3147 4581 3465 4457 
Q 3784 4334 3975 4021 
Q 4166 3709 4166 3331 
Q 4166 2844 3850 2509 
Q 3534 2175 2875 2084 
Q 3116 1969 3241 1856 
Q 3506 1613 3744 1247 
L 4541 0 
L 3778 0 
L 3172 953 
Q 2906 1366 2734 1584 
Q 2563 1803 2427 1890 
Q 2291 1978 2150 2013 
Q 2047 2034 1813 2034 
L 1109 2034 
L 1109 0 
L 503 0 
z
M 1109 2559 
L 2413 2559 
Q 2828 2559 3062 2645 
Q 3297 2731 3419 2920 
Q 3541 3109 3541 3331 
Q 3541 3656 3305 3865 
Q 3069 4075 2559 4075 
L 1109 4075 
L 1109 2559 
z
" transform="scale(0.015625)"/>
      <path id="ArialMT-65" d="M 2694 1069 
L 3275 997 
Q 3138 488 2766 206 
Q 2394 -75 1816 -75 
Q 1088 -75 661 373 
Q 234 822 234 1631 
Q 234 2469 665 2931 
Q 1097 3394 1784 3394 
Q 2450 3394 2872 2941 
Q 3294 2488 3294 1666 
Q 3294 1616 3291 1516 
L 816 1516 
Q 847 969 1125 678 
Q 1403 388 1819 388 
Q 2128 388 2347 550 
Q 2566 713 2694 1069 
z
M 847 1978 
L 2700 1978 
Q 2663 2397 2488 2606 
Q 2219 2931 1791 2931 
Q 1403 2931 1139 2672 
Q 875 2413 847 1978 
z
" transform="scale(0.015625)"/>
      <path id="ArialMT-67" d="M 319 -275 
L 866 -356 
Q 900 -609 1056 -725 
Q 1266 -881 1628 -881 
Q 2019 -881 2231 -725 
Q 2444 -569 2519 -288 
Q 2563 -116 2559 434 
Q 2191 0 1641 0 
Q 956 0 581 494 
Q 206 988 206 1678 
Q 206 2153 378 2554 
Q 550 2956 876 3175 
Q 1203 3394 1644 3394 
Q 2231 3394 2613 2919 
L 2613 3319 
L 3131 3319 
L 3131 450 
Q 3131 -325 2973 -648 
Q 2816 -972 2473 -1159 
Q 2131 -1347 1631 -1347 
Q 1038 -1347 672 -1080 
Q 306 -813 319 -275 
z
M 784 1719 
Q 784 1066 1043 766 
Q 1303 466 1694 466 
Q 2081 466 2343 764 
Q 2606 1063 2606 1700 
Q 2606 2309 2336 2618 
Q 2066 2928 1684 2928 
Q 1309 2928 1046 2623 
Q 784 2319 784 1719 
z
" transform="scale(0.015625)"/>
      <path id="ArialMT-75" d="M 2597 0 
L 2597 488 
Q 2209 -75 1544 -75 
Q 1250 -75 995 37 
Q 741 150 617 320 
Q 494 491 444 738 
Q 409 903 409 1263 
L 409 3319 
L 972 3319 
L 972 1478 
Q 972 1038 1006 884 
Q 1059 663 1231 536 
Q 1403 409 1656 409 
Q 1909 409 2131 539 
Q 2353 669 2445 892 
Q 2538 1116 2538 1541 
L 2538 3319 
L 3100 3319 
L 3100 0 
L 2597 0 
z
" transform="scale(0.015625)"/>
      <path id="ArialMT-6c" d="M 409 0 
L 409 4581 
L 972 4581 
L 972 0 
L 409 0 
z
" transform="scale(0.015625)"/>
      <path id="ArialMT-6f" d="M 213 1659 
Q 213 2581 725 3025 
Q 1153 3394 1769 3394 
Q 2453 3394 2887 2945 
Q 3322 2497 3322 1706 
Q 3322 1066 3130 698 
Q 2938 331 2570 128 
Q 2203 -75 1769 -75 
Q 1072 -75 642 372 
Q 213 819 213 1659 
z
M 791 1659 
Q 791 1022 1069 705 
Q 1347 388 1769 388 
Q 2188 388 2466 706 
Q 2744 1025 2744 1678 
Q 2744 2294 2464 2611 
Q 2184 2928 1769 2928 
Q 1347 2928 1069 2612 
Q 791 2297 791 1659 
z
" transform="scale(0.015625)"/>
      <path id="ArialMT-6e" d="M 422 0 
L 422 3319 
L 928 3319 
L 928 2847 
Q 1294 3394 1984 3394 
Q 2284 3394 2536 3286 
Q 2788 3178 2913 3003 
Q 3038 2828 3088 2588 
Q 3119 2431 3119 2041 
L 3119 0 
L 2556 0 
L 2556 2019 
Q 2556 2363 2490 2533 
Q 2425 2703 2258 2804 
Q 2091 2906 1866 2906 
Q 1506 2906 1245 2678 
Q 984 2450 984 1813 
L 984 0 
L 422 0 
z
" transform="scale(0.015625)"/>
     </defs>
     <use xlink:href="#ArialMT-52"/>
     <use xlink:href="#ArialMT-65" x="72.216797"/>
     <use xlink:href="#ArialMT-67" x="127.832031"/>
     <use xlink:href="#ArialMT-75" x="183.447266"/>
     <use xlink:href="#ArialMT-6c" x="239.0625"/>
     <use xlink:href="#ArialMT-6f" x="261.279297"/>
     <use xlink:href="#ArialMT-6e" x="316.894531"/>
    </g>
   </g>
   <g id="text_2">
    <!-- CsrA -->
    <g transform="translate(127.63889 172.059751) scale(0.09 -0.09)">
     <use xlink:href="#ArialMT-43"/>
     <use xlink:href="#ArialMT-73" x="72.216797"/>
     <use xlink:href="#ArialMT-72" x="122.216797"/>
     <use xlink:href="#ArialMT-41" x="155.517578"/>
    </g>
    <!-- iModulon -->
    <g transform="translate(127.63889 181.578939) scale(0.09 -0.09)">
     <defs>
      <path id="ArialMT-69" d="M 425 3934 
L 425 4581 
L 988 4581 
L 988 3934 
L 425 3934 
z
M 425 0 
L 425 3319 
L 988 3319 
L 988 0 
L 425 0 
z
" transform="scale(0.015625)"/>
      <path id="ArialMT-4d" d="M 475 0 
L 475 4581 
L 1388 4581 
L 2472 1338 
Q 2622 884 2691 659 
Q 2769 909 2934 1394 
L 4031 4581 
L 4847 4581 
L 4847 0 
L 4263 0 
L 4263 3834 
L 2931 0 
L 2384 0 
L 1059 3900 
L 1059 0 
L 475 0 
z
" transform="scale(0.015625)"/>
      <path id="ArialMT-64" d="M 2575 0 
L 2575 419 
Q 2259 -75 1647 -75 
Q 1250 -75 917 144 
Q 584 363 401 755 
Q 219 1147 219 1656 
Q 219 2153 384 2558 
Q 550 2963 881 3178 
Q 1213 3394 1622 3394 
Q 1922 3394 2156 3267 
Q 2391 3141 2538 2938 
L 2538 4581 
L 3097 4581 
L 3097 0 
L 2575 0 
z
M 797 1656 
Q 797 1019 1065 703 
Q 1334 388 1700 388 
Q 2069 388 2326 689 
Q 2584 991 2584 1609 
Q 2584 2291 2321 2609 
Q 2059 2928 1675 2928 
Q 1300 2928 1048 2622 
Q 797 2316 797 1656 
z
" transform="scale(0.015625)"/>
     </defs>
     <use xlink:href="#ArialMT-69"/>
     <use xlink:href="#ArialMT-4d" x="22.216797"/>
     <use xlink:href="#ArialMT-6f" x="105.517578"/>
     <use xlink:href="#ArialMT-64" x="161.132812"/>
     <use xlink:href="#ArialMT-75" x="216.748047"/>
     <use xlink:href="#ArialMT-6c" x="272.363281"/>
     <use xlink:href="#ArialMT-6f" x="294.580078"/>
     <use xlink:href="#ArialMT-6e" x="350.195312"/>
    </g>
   </g>
   <g id="text_3">
    <!-- dgcI -->
    <g transform="translate(33.563377 69.845734) scale(0.07 -0.07)">
     <defs>
      <path id="Arial-ItalicMT-64" d="M 2450 481 
Q 1966 -75 1438 -75 
Q 966 -75 652 273 
Q 338 622 338 1284 
Q 338 1891 586 2392 
Q 834 2894 1207 3144 
Q 1581 3394 1956 3394 
Q 2575 3394 2891 2797 
L 3266 4581 
L 3828 4581 
L 2872 0 
L 2350 0 
L 2450 481 
z
M 900 1391 
Q 900 1044 969 844 
Q 1038 644 1203 511 
Q 1369 378 1600 378 
Q 1984 378 2297 778 
Q 2716 1309 2716 2091 
Q 2716 2484 2509 2706 
Q 2303 2928 1991 2928 
Q 1788 2928 1620 2837 
Q 1453 2747 1289 2530 
Q 1125 2313 1012 1978 
Q 900 1644 900 1391 
z
" transform="scale(0.015625)"/>
      <path id="Arial-ItalicMT-67" d="M 181 -300 
L 753 -353 
Q 747 -547 800 -644 
Q 853 -741 969 -794 
Q 1122 -863 1366 -863 
Q 1878 -863 2103 -597 
Q 2250 -419 2375 178 
L 2431 447 
Q 1991 0 1494 0 
Q 991 0 652 370 
Q 313 741 313 1419 
Q 313 1978 580 2447 
Q 847 2916 1215 3155 
Q 1584 3394 1975 3394 
Q 2628 3394 2981 2775 
L 3094 3319 
L 3613 3319 
L 2944 116 
Q 2834 -413 2656 -708 
Q 2478 -1003 2161 -1165 
Q 1844 -1328 1428 -1328 
Q 1028 -1328 739 -1225 
Q 450 -1122 308 -923 
Q 166 -725 166 -469 
Q 166 -391 181 -300 
z
M 888 1469 
Q 888 1128 953 956 
Q 1047 716 1220 589 
Q 1394 463 1606 463 
Q 1884 463 2159 658 
Q 2434 853 2604 1262 
Q 2775 1672 2775 2044 
Q 2775 2453 2548 2695 
Q 2322 2938 1988 2938 
Q 1781 2938 1587 2827 
Q 1394 2716 1226 2489 
Q 1059 2263 973 1947 
Q 888 1631 888 1469 
z
" transform="scale(0.015625)"/>
      <path id="Arial-ItalicMT-63" d="M 2503 1209 
L 3069 1150 
Q 2856 528 2464 226 
Q 2072 -75 1572 -75 
Q 1031 -75 695 275 
Q 359 625 359 1253 
Q 359 1797 575 2322 
Q 791 2847 1192 3120 
Q 1594 3394 2109 3394 
Q 2644 3394 2956 3092 
Q 3269 2791 3269 2294 
L 2713 2256 
Q 2709 2572 2529 2750 
Q 2350 2928 2056 2928 
Q 1716 2928 1466 2712 
Q 1216 2497 1073 2058 
Q 931 1619 931 1213 
Q 931 788 1118 575 
Q 1306 363 1581 363 
Q 1856 363 2107 572 
Q 2359 781 2503 1209 
z
" transform="scale(0.015625)"/>
      <path id="Arial-ItalicMT-49" d="M 366 0 
L 1325 4581 
L 1934 4581 
L 978 0 
L 366 0 
z
" transform="scale(0.015625)"/>
     </defs>
     <use xlink:href="#Arial-ItalicMT-64"/>
     <use xlink:href="#Arial-ItalicMT-67" x="55.615234"/>
     <use xlink:href="#Arial-ItalicMT-63" x="111.230469"/>
     <use xlink:href="#Arial-ItalicMT-49" x="161.230469"/>
    </g>
    <!-- glgS -->
    <g transform="translate(33.173455 77.413172) scale(0.07 -0.07)">
     <defs>
      <path id="Arial-ItalicMT-6c" d="M 169 0 
L 1125 4581 
L 1691 4581 
L 734 0 
L 169 0 
z
" transform="scale(0.015625)"/>
      <path id="Arial-ItalicMT-53" d="M 450 1481 
L 1050 1538 
L 1044 1378 
Q 1044 1113 1166 892 
Q 1288 672 1569 551 
Q 1850 431 2238 431 
Q 2788 431 3077 672 
Q 3366 913 3366 1222 
Q 3366 1438 3213 1616 
Q 3056 1791 2359 2091 
Q 1819 2325 1622 2450 
Q 1313 2653 1166 2892 
Q 1019 3131 1019 3438 
Q 1019 3791 1212 4075 
Q 1406 4359 1779 4509 
Q 2153 4659 2622 4659 
Q 3181 4659 3565 4471 
Q 3950 4284 4123 3971 
Q 4297 3659 4297 3375 
Q 4297 3347 4294 3281 
L 3703 3234 
Q 3703 3428 3669 3538 
Q 3606 3728 3475 3859 
Q 3344 3991 3114 4070 
Q 2884 4150 2600 4150 
Q 2100 4150 1822 3925 
Q 1609 3753 1609 3469 
Q 1609 3300 1696 3167 
Q 1784 3034 2013 2906 
Q 2175 2816 2784 2547 
Q 3278 2328 3466 2203 
Q 3716 2038 3850 1802 
Q 3984 1566 3984 1266 
Q 3984 894 3757 580 
Q 3531 266 3131 94 
Q 2731 -78 2216 -78 
Q 1438 -78 945 261 
Q 453 600 450 1481 
z
" transform="scale(0.015625)"/>
     </defs>
     <use xlink:href="#Arial-ItalicMT-67"/>
     <use xlink:href="#Arial-ItalicMT-6c" x="55.615234"/>
     <use xlink:href="#Arial-ItalicMT-67" x="77.832031"/>
     <use xlink:href="#Arial-ItalicMT-53" x="133.447266"/>
    </g>
    <!-- iraD -->
    <g transform="translate(33.761346 84.878234) scale(0.07 -0.07)">
     <defs>
      <path id="Arial-ItalicMT-69" d="M 1016 3941 
L 1150 4581 
L 1713 4581 
L 1578 3941 
L 1016 3941 
z
M 191 0 
L 884 3319 
L 1450 3319 
L 756 0 
L 191 0 
z
" transform="scale(0.015625)"/>
      <path id="Arial-ItalicMT-72" d="M 213 0 
L 906 3319 
L 1406 3319 
L 1266 2641 
Q 1522 3025 1767 3209 
Q 2013 3394 2269 3394 
Q 2438 3394 2684 3272 
L 2453 2747 
Q 2306 2853 2131 2853 
Q 1834 2853 1521 2522 
Q 1209 2191 1031 1331 
L 750 0 
L 213 0 
z
" transform="scale(0.015625)"/>
      <path id="Arial-ItalicMT-61" d="M 2450 413 
Q 2156 159 1884 42 
Q 1613 -75 1303 -75 
Q 844 -75 562 195 
Q 281 466 281 888 
Q 281 1166 407 1380 
Q 534 1594 743 1723 
Q 953 1853 1256 1909 
Q 1447 1947 1980 1969 
Q 2513 1991 2744 2081 
Q 2809 2313 2809 2466 
Q 2809 2663 2666 2775 
Q 2469 2931 2091 2931 
Q 1734 2931 1507 2773 
Q 1281 2616 1178 2325 
L 606 2375 
Q 781 2869 1161 3131 
Q 1541 3394 2119 3394 
Q 2734 3394 3094 3100 
Q 3369 2881 3369 2531 
Q 3369 2266 3291 1916 
L 3106 1091 
Q 3019 697 3019 450 
Q 3019 294 3088 0 
L 2516 0 
Q 2469 163 2450 413 
z
M 2659 1681 
Q 2541 1634 2405 1609 
Q 2269 1584 1950 1556 
Q 1456 1513 1253 1445 
Q 1050 1378 947 1231 
Q 844 1084 844 906 
Q 844 669 1008 516 
Q 1172 363 1475 363 
Q 1756 363 2015 511 
Q 2275 659 2425 925 
Q 2575 1191 2659 1681 
z
" transform="scale(0.015625)"/>
      <path id="Arial-ItalicMT-44" d="M 284 0 
L 1241 4581 
L 2622 4581 
Q 3119 4581 3381 4509 
Q 3756 4413 4022 4164 
Q 4288 3916 4422 3544 
Q 4556 3172 4556 2709 
Q 4556 2156 4389 1701 
Q 4222 1247 3951 901 
Q 3681 556 3386 361 
Q 3091 166 2688 72 
Q 2381 0 1934 0 
L 284 0 
z
M 1006 519 
L 1731 519 
Q 2222 519 2603 609 
Q 2841 666 3009 775 
Q 3231 916 3413 1147 
Q 3650 1453 3792 1845 
Q 3934 2238 3934 2738 
Q 3934 3294 3740 3592 
Q 3547 3891 3247 3988 
Q 3025 4059 2556 4059 
L 1747 4059 
L 1006 519 
z
" transform="scale(0.015625)"/>
     </defs>
     <use xlink:href="#Arial-ItalicMT-69"/>
     <use xlink:href="#Arial-ItalicMT-72" x="22.216797"/>
     <use xlink:href="#Arial-ItalicMT-61" x="55.517578"/>
     <use xlink:href="#Arial-ItalicMT-44" x="111.132812"/>
    </g>
    <!-- moaABCDE -->
    <g transform="translate(21.31119 92.282047) scale(0.07 -0.07)">
     <defs>
      <path id="Arial-ItalicMT-6d" d="M 209 0 
L 903 3319 
L 1469 3319 
L 1353 2772 
Q 1669 3125 1917 3259 
Q 2166 3394 2456 3394 
Q 2766 3394 2973 3230 
Q 3181 3066 3247 2772 
Q 3500 3084 3779 3239 
Q 4059 3394 4369 3394 
Q 4784 3394 4992 3197 
Q 5200 3000 5200 2644 
Q 5200 2491 5128 2138 
L 4681 0 
L 4116 0 
L 4572 2194 
Q 4631 2463 4631 2578 
Q 4631 2741 4528 2834 
Q 4425 2928 4238 2928 
Q 3984 2928 3721 2775 
Q 3459 2622 3314 2373 
Q 3169 2125 3059 1609 
L 2722 0 
L 2156 0 
L 2625 2241 
Q 2675 2469 2675 2566 
Q 2675 2728 2573 2828 
Q 2472 2928 2309 2928 
Q 2069 2928 1805 2775 
Q 1541 2622 1375 2348 
Q 1209 2075 1103 1569 
L 775 0 
L 209 0 
z
" transform="scale(0.015625)"/>
      <path id="Arial-ItalicMT-6f" d="M 313 1259 
Q 313 2231 884 2869 
Q 1356 3394 2122 3394 
Q 2722 3394 3089 3019 
Q 3456 2644 3456 2006 
Q 3456 1434 3225 942 
Q 2994 450 2567 187 
Q 2141 -75 1669 -75 
Q 1281 -75 964 90 
Q 647 256 480 559 
Q 313 863 313 1259 
z
M 878 1316 
Q 878 847 1103 605 
Q 1328 363 1675 363 
Q 1856 363 2034 436 
Q 2213 509 2366 659 
Q 2519 809 2626 1001 
Q 2734 1194 2800 1416 
Q 2897 1725 2897 2009 
Q 2897 2459 2670 2707 
Q 2444 2956 2100 2956 
Q 1834 2956 1615 2829 
Q 1397 2703 1220 2459 
Q 1044 2216 961 1892 
Q 878 1569 878 1316 
z
" transform="scale(0.015625)"/>
      <path id="Arial-ItalicMT-41" d="M -128 0 
L 2469 4581 
L 3191 4581 
L 3947 0 
L 3353 0 
L 3131 1319 
L 1278 1319 
L 544 0 
L -128 0 
z
M 1541 1791 
L 3056 1791 
L 2878 2941 
Q 2775 3625 2750 4081 
Q 2594 3688 2294 3147 
L 1541 1791 
z
" transform="scale(0.015625)"/>
      <path id="Arial-ItalicMT-42" d="M 278 0 
L 1238 4581 
L 2656 4581 
Q 3044 4581 3231 4550 
Q 3538 4497 3748 4364 
Q 3959 4231 4075 4001 
Q 4191 3772 4191 3494 
Q 4191 3116 3983 2828 
Q 3775 2541 3347 2391 
Q 3719 2269 3903 2023 
Q 4088 1778 4088 1450 
Q 4088 1072 3870 725 
Q 3653 378 3295 189 
Q 2938 0 2497 0 
L 278 0 
z
M 1441 2625 
L 2369 2625 
Q 3034 2625 3326 2837 
Q 3619 3050 3619 3456 
Q 3619 3650 3528 3790 
Q 3438 3931 3286 3995 
Q 3134 4059 2716 4059 
L 1741 4059 
L 1441 2625 
z
M 1000 519 
L 2044 519 
Q 2459 519 2603 547 
Q 2894 597 3075 717 
Q 3256 838 3359 1034 
Q 3463 1231 3463 1447 
Q 3463 1769 3261 1936 
Q 3059 2103 2494 2103 
L 1331 2103 
L 1000 519 
z
" transform="scale(0.015625)"/>
      <path id="Arial-ItalicMT-43" d="M 3859 1613 
L 4466 1528 
Q 4178 734 3628 328 
Q 3078 -78 2394 -78 
Q 1559 -78 1070 431 
Q 581 941 581 1891 
Q 581 3128 1325 3938 
Q 1988 4659 2972 4659 
Q 3700 4659 4151 4268 
Q 4603 3878 4675 3219 
L 4103 3166 
Q 4013 3663 3730 3908 
Q 3447 4153 3000 4153 
Q 2159 4153 1641 3406 
Q 1191 2763 1191 1878 
Q 1191 1172 1537 800 
Q 1884 428 2441 428 
Q 2916 428 3300 737 
Q 3684 1047 3859 1613 
z
" transform="scale(0.015625)"/>
      <path id="Arial-ItalicMT-45" d="M 288 0 
L 1247 4581 
L 4553 4581 
L 4444 4059 
L 1750 4059 
L 1450 2634 
L 4075 2634 
L 3966 2113 
L 1341 2113 
L 1009 519 
L 3894 519 
L 3784 0 
L 288 0 
z
" transform="scale(0.015625)"/>
     </defs>
     <use xlink:href="#Arial-ItalicMT-6d"/>
     <use xlink:href="#Arial-ItalicMT-6f" x="83.300781"/>
     <use xlink:href="#Arial-ItalicMT-61" x="138.916016"/>
     <use xlink:href="#Arial-ItalicMT-41" x="194.53125"/>
     <use xlink:href="#Arial-ItalicMT-42" x="261.230469"/>
     <use xlink:href="#Arial-ItalicMT-43" x="327.929688"/>
     <use xlink:href="#Arial-ItalicMT-44" x="400.146484"/>
     <use xlink:href="#Arial-ItalicMT-45" x="472.363281"/>
    </g>
    <!-- pdeI -->
    <g transform="translate(33.367049 99.685859) scale(0.07 -0.07)">
     <defs>
      <path id="Arial-ItalicMT-70" d="M -66 -1272 
L 894 3319 
L 1416 3319 
L 1319 2856 
Q 1609 3159 1839 3276 
Q 2069 3394 2325 3394 
Q 2800 3394 3112 3048 
Q 3425 2703 3425 2059 
Q 3425 1541 3253 1114 
Q 3081 688 2831 428 
Q 2581 169 2325 47 
Q 2069 -75 1800 -75 
Q 1203 -75 875 531 
L 500 -1272 
L -66 -1272 
z
M 1053 1356 
Q 1053 984 1106 841 
Q 1184 638 1362 513 
Q 1541 388 1775 388 
Q 2263 388 2563 936 
Q 2863 1484 2863 2056 
Q 2863 2478 2661 2708 
Q 2459 2938 2159 2938 
Q 1944 2938 1759 2823 
Q 1575 2709 1417 2482 
Q 1259 2256 1156 1928 
Q 1053 1600 1053 1356 
z
" transform="scale(0.015625)"/>
      <path id="Arial-ItalicMT-65" d="M 2650 1128 
L 3200 1072 
Q 3081 663 2654 294 
Q 2228 -75 1638 -75 
Q 1269 -75 961 95 
Q 653 266 492 591 
Q 331 916 331 1331 
Q 331 1875 582 2386 
Q 834 2897 1234 3145 
Q 1634 3394 2100 3394 
Q 2694 3394 3048 3025 
Q 3403 2656 3403 2019 
Q 3403 1775 3359 1519 
L 916 1519 
Q 903 1422 903 1344 
Q 903 878 1117 633 
Q 1331 388 1641 388 
Q 1931 388 2212 578 
Q 2494 769 2650 1128 
z
M 1006 1950 
L 2869 1950 
Q 2872 2038 2872 2075 
Q 2872 2500 2659 2726 
Q 2447 2953 2113 2953 
Q 1750 2953 1451 2703 
Q 1153 2453 1006 1950 
z
" transform="scale(0.015625)"/>
     </defs>
     <use xlink:href="#Arial-ItalicMT-70"/>
     <use xlink:href="#Arial-ItalicMT-64" x="55.615234"/>
     <use xlink:href="#Arial-ItalicMT-65" x="111.230469"/>
     <use xlink:href="#Arial-ItalicMT-49" x="166.845703"/>
    </g>
    <!-- rpoE -->
    <g transform="translate(32.785721 107.089672) scale(0.07 -0.07)">
     <use xlink:href="#Arial-ItalicMT-72"/>
     <use xlink:href="#Arial-ItalicMT-70" x="33.300781"/>
     <use xlink:href="#Arial-ItalicMT-6f" x="88.916016"/>
     <use xlink:href="#Arial-ItalicMT-45" x="144.53125"/>
    </g>
    <!-- sdiA -->
    <g transform="translate(33.369783 114.493484) scale(0.07 -0.07)">
     <defs>
      <path id="Arial-ItalicMT-73" d="M 266 1134 
L 831 1169 
Q 831 925 906 753 
Q 981 581 1182 472 
Q 1384 363 1653 363 
Q 2028 363 2215 513 
Q 2403 663 2403 866 
Q 2403 1013 2291 1144 
Q 2175 1275 1726 1467 
Q 1278 1659 1153 1738 
Q 944 1866 837 2039 
Q 731 2213 731 2438 
Q 731 2831 1043 3112 
Q 1356 3394 1919 3394 
Q 2544 3394 2870 3105 
Q 3197 2816 3209 2344 
L 2656 2306 
Q 2644 2606 2444 2781 
Q 2244 2956 1878 2956 
Q 1584 2956 1421 2822 
Q 1259 2688 1259 2531 
Q 1259 2375 1400 2256 
Q 1494 2175 1884 2006 
Q 2534 1725 2703 1563 
Q 2972 1303 2972 931 
Q 2972 684 2820 446 
Q 2669 209 2358 67 
Q 2047 -75 1625 -75 
Q 1050 -75 647 209 
Q 244 494 266 1134 
z
" transform="scale(0.015625)"/>
     </defs>
     <use xlink:href="#Arial-ItalicMT-73"/>
     <use xlink:href="#Arial-ItalicMT-64" x="50"/>
     <use xlink:href="#Arial-ItalicMT-69" x="105.615234"/>
     <use xlink:href="#Arial-ItalicMT-41" x="127.832031"/>
    </g>
   </g>
   <g id="text_4">
    <!-- dgcTZ -->
    <g transform="translate(70.384736 80.869641) scale(0.07 -0.07)">
     <defs>
      <path id="Arial-ItalicMT-54" d="M 1453 0 
L 2300 4059 
L 797 4059 
L 906 4581 
L 4513 4581 
L 4403 4059 
L 2913 4059 
L 2066 0 
L 1453 0 
z
" transform="scale(0.015625)"/>
      <path id="Arial-ItalicMT-5a" d="M 156 0 
L 216 459 
L 2509 3200 
L 2984 3775 
Q 3128 3950 3263 4097 
Q 2972 4063 2856 4063 
L 2706 4066 
L 2525 4063 
L 2347 4059 
L 806 4059 
L 916 4581 
L 4075 4581 
L 4022 4103 
L 1563 1181 
Q 1109 641 988 503 
Q 1125 522 1166 522 
L 3663 522 
L 3553 0 
L 156 0 
z
" transform="scale(0.015625)"/>
     </defs>
     <use xlink:href="#Arial-ItalicMT-64"/>
     <use xlink:href="#Arial-ItalicMT-67" x="55.615234"/>
     <use xlink:href="#Arial-ItalicMT-63" x="111.230469"/>
     <use xlink:href="#Arial-ItalicMT-54" x="161.230469"/>
     <use xlink:href="#Arial-ItalicMT-5a" x="222.314453"/>
    </g>
    <!-- glgACP -->
    <g transform="translate(68.435674 88.437078) scale(0.07 -0.07)">
     <defs>
      <path id="Arial-ItalicMT-50" d="M 275 0 
L 1234 4581 
L 3147 4581 
Q 3644 4581 3892 4467 
Q 4141 4353 4303 4076 
Q 4466 3800 4466 3456 
Q 4466 3172 4350 2878 
Q 4234 2584 4057 2393 
Q 3881 2203 3700 2106 
Q 3519 2009 3313 1963 
Q 2872 1859 2422 1859 
L 1275 1859 
L 888 0 
L 275 0 
z
M 1384 2378 
L 2394 2378 
Q 2981 2378 3256 2504 
Q 3531 2631 3697 2890 
Q 3863 3150 3863 3441 
Q 3863 3666 3775 3808 
Q 3688 3950 3528 4017 
Q 3369 4084 2916 4084 
L 1741 4084 
L 1384 2378 
z
" transform="scale(0.015625)"/>
     </defs>
     <use xlink:href="#Arial-ItalicMT-67"/>
     <use xlink:href="#Arial-ItalicMT-6c" x="55.615234"/>
     <use xlink:href="#Arial-ItalicMT-67" x="77.832031"/>
     <use xlink:href="#Arial-ItalicMT-41" x="133.447266"/>
     <use xlink:href="#Arial-ItalicMT-43" x="200.146484"/>
     <use xlink:href="#Arial-ItalicMT-50" x="272.363281"/>
    </g>
    <!-- nhaR -->
    <g transform="translate(71.936221 95.902141) scale(0.07 -0.07)">
     <defs>
      <path id="Arial-ItalicMT-6e" d="M 213 0 
L 906 3319 
L 1419 3319 
L 1297 2741 
Q 1631 3081 1922 3237 
Q 2213 3394 2516 3394 
Q 2919 3394 3148 3175 
Q 3378 2956 3378 2591 
Q 3378 2406 3297 2009 
L 2875 0 
L 2309 0 
L 2750 2103 
Q 2816 2409 2816 2556 
Q 2816 2722 2702 2825 
Q 2588 2928 2372 2928 
Q 1938 2928 1598 2615 
Q 1259 2303 1100 1544 
L 778 0 
L 213 0 
z
" transform="scale(0.015625)"/>
      <path id="Arial-ItalicMT-68" d="M 213 0 
L 1169 4581 
L 1734 4581 
L 1369 2822 
Q 1684 3128 1956 3261 
Q 2228 3394 2516 3394 
Q 2928 3394 3156 3176 
Q 3384 2959 3384 2603 
Q 3384 2428 3284 1959 
L 2875 0 
L 2309 0 
L 2731 2009 
Q 2822 2447 2822 2559 
Q 2822 2722 2709 2825 
Q 2597 2928 2384 2928 
Q 2078 2928 1800 2767 
Q 1522 2606 1364 2326 
Q 1206 2047 1075 1425 
L 778 0 
L 213 0 
z
" transform="scale(0.015625)"/>
      <path id="Arial-ItalicMT-52" d="M 300 0 
L 1259 4581 
L 3181 4581 
Q 3750 4581 4044 4486 
Q 4338 4391 4505 4128 
Q 4672 3866 4672 3466 
Q 4672 2906 4306 2537 
Q 3941 2169 3125 2059 
Q 3375 1875 3503 1697 
Q 3791 1294 3966 863 
L 4316 0 
L 3631 0 
L 3303 853 
Q 3125 1316 2897 1653 
Q 2741 1888 2578 1961 
Q 2416 2034 2050 2034 
L 1338 2034 
L 913 0 
L 300 0 
z
M 1441 2531 
L 2288 2531 
Q 2875 2531 3053 2547 
Q 3400 2581 3622 2703 
Q 3844 2825 3966 3031 
Q 4088 3238 4088 3475 
Q 4088 3675 3997 3823 
Q 3906 3972 3759 4025 
Q 3613 4078 3259 4078 
L 1766 4078 
L 1441 2531 
z
" transform="scale(0.015625)"/>
     </defs>
     <use xlink:href="#Arial-ItalicMT-6e"/>
     <use xlink:href="#Arial-ItalicMT-68" x="55.615234"/>
     <use xlink:href="#Arial-ItalicMT-61" x="111.230469"/>
     <use xlink:href="#Arial-ItalicMT-52" x="166.845703"/>
    </g>
    <!-- pgaABCD -->
    <g transform="translate(64.739346 103.408328) scale(0.07 -0.07)">
     <use xlink:href="#Arial-ItalicMT-70"/>
     <use xlink:href="#Arial-ItalicMT-67" x="55.615234"/>
     <use xlink:href="#Arial-ItalicMT-61" x="111.230469"/>
     <use xlink:href="#Arial-ItalicMT-41" x="166.845703"/>
     <use xlink:href="#Arial-ItalicMT-42" x="233.544922"/>
     <use xlink:href="#Arial-ItalicMT-43" x="300.244141"/>
     <use xlink:href="#Arial-ItalicMT-44" x="372.460938"/>
    </g>
   </g>
   <g id="text_5">
    <!-- ansB aspA chbB -->
    <g transform="translate(111.924777 35.709141) scale(0.07 -0.07)">
     <defs>
      <path id="Arial-ItalicMT-20" transform="scale(0.015625)"/>
      <path id="Arial-ItalicMT-62" d="M 213 0 
L 1169 4581 
L 1734 4581 
L 1394 2944 
Q 1663 3191 1881 3292 
Q 2100 3394 2338 3394 
Q 2803 3394 3114 3047 
Q 3425 2700 3425 2038 
Q 3425 1597 3300 1231 
Q 3175 866 2990 617 
Q 2806 369 2609 220 
Q 2413 72 2206 -1 
Q 2000 -75 1809 -75 
Q 1481 -75 1231 98 
Q 981 272 841 628 
L 709 0 
L 213 0 
z
M 1050 1363 
L 1047 1256 
Q 1047 831 1250 609 
Q 1453 388 1756 388 
Q 2053 388 2301 595 
Q 2550 803 2709 1243 
Q 2869 1684 2869 2056 
Q 2869 2475 2667 2706 
Q 2466 2938 2169 2938 
Q 1863 2938 1606 2702 
Q 1350 2466 1178 1975 
Q 1050 1609 1050 1363 
z
" transform="scale(0.015625)"/>
     </defs>
     <use xlink:href="#Arial-ItalicMT-61"/>
     <use xlink:href="#Arial-ItalicMT-6e" x="55.615234"/>
     <use xlink:href="#Arial-ItalicMT-73" x="111.230469"/>
     <use xlink:href="#Arial-ItalicMT-42" x="161.230469"/>
     <use xlink:href="#Arial-ItalicMT-20" x="227.929688"/>
     <use xlink:href="#Arial-ItalicMT-61" x="255.712891"/>
     <use xlink:href="#Arial-ItalicMT-73" x="311.328125"/>
     <use xlink:href="#Arial-ItalicMT-70" x="361.328125"/>
     <use xlink:href="#Arial-ItalicMT-41" x="416.943359"/>
     <use xlink:href="#Arial-ItalicMT-20" x="479.892578"/>
     <use xlink:href="#Arial-ItalicMT-63" x="507.675781"/>
     <use xlink:href="#Arial-ItalicMT-68" x="557.675781"/>
     <use xlink:href="#Arial-ItalicMT-62" x="613.291016"/>
     <use xlink:href="#Arial-ItalicMT-42" x="668.90625"/>
    </g>
    <!-- dcuA elfA flxA -->
    <g transform="translate(116.145011 43.112953) scale(0.07 -0.07)">
     <defs>
      <path id="Arial-ItalicMT-75" d="M 2478 600 
Q 1881 -75 1256 -75 
Q 872 -75 636 145 
Q 400 366 400 684 
Q 400 894 506 1403 
L 906 3319 
L 1472 3319 
L 1028 1197 
Q 972 931 972 784 
Q 972 597 1086 492 
Q 1200 388 1422 388 
Q 1659 388 1886 503 
Q 2113 619 2277 816 
Q 2441 1013 2544 1281 
Q 2613 1453 2703 1884 
L 3003 3319 
L 3569 3319 
L 2875 0 
L 2353 0 
L 2478 600 
z
" transform="scale(0.015625)"/>
      <path id="Arial-ItalicMT-66" d="M 291 0 
L 894 2881 
L 388 2881 
L 478 3319 
L 984 3319 
L 1081 3791 
Q 1156 4144 1236 4300 
Q 1316 4456 1495 4557 
Q 1675 4659 1984 4659 
Q 2200 4659 2609 4569 
L 2506 4075 
Q 2219 4150 2025 4150 
Q 1859 4150 1773 4067 
Q 1688 3984 1625 3675 
L 1550 3319 
L 2181 3319 
L 2091 2881 
L 1459 2881 
L 856 0 
L 291 0 
z
" transform="scale(0.015625)"/>
      <path id="Arial-ItalicMT-78" d="M -9 0 
L 1434 1684 
L 606 3319 
L 1231 3319 
L 1513 2728 
Q 1669 2397 1794 2094 
L 2750 3319 
L 3441 3319 
L 2047 1641 
L 2884 0 
L 2259 0 
L 1928 675 
Q 1822 891 1688 1209 
L 700 0 
L -9 0 
z
" transform="scale(0.015625)"/>
     </defs>
     <use xlink:href="#Arial-ItalicMT-64"/>
     <use xlink:href="#Arial-ItalicMT-63" x="55.615234"/>
     <use xlink:href="#Arial-ItalicMT-75" x="105.615234"/>
     <use xlink:href="#Arial-ItalicMT-41" x="161.230469"/>
     <use xlink:href="#Arial-ItalicMT-20" x="224.179688"/>
     <use xlink:href="#Arial-ItalicMT-65" x="251.962891"/>
     <use xlink:href="#Arial-ItalicMT-6c" x="307.578125"/>
     <use xlink:href="#Arial-ItalicMT-66" x="329.794922"/>
     <use xlink:href="#Arial-ItalicMT-41" x="357.578125"/>
     <use xlink:href="#Arial-ItalicMT-20" x="420.527344"/>
     <use xlink:href="#Arial-ItalicMT-66" x="448.310547"/>
     <use xlink:href="#Arial-ItalicMT-6c" x="476.09375"/>
     <use xlink:href="#Arial-ItalicMT-78" x="498.310547"/>
     <use xlink:href="#Arial-ItalicMT-41" x="548.310547"/>
    </g>
    <!-- ftnB fucO glgBX -->
    <g transform="translate(112.769152 50.619141) scale(0.07 -0.07)">
     <defs>
      <path id="Arial-ItalicMT-74" d="M 1534 459 
L 1441 -3 
Q 1238 -56 1047 -56 
Q 709 -56 509 109 
Q 359 234 359 450 
Q 359 559 441 953 
L 844 2881 
L 397 2881 
L 488 3319 
L 934 3319 
L 1106 4134 
L 1753 4525 
L 1500 3319 
L 2056 3319 
L 1963 2881 
L 1409 2881 
L 1025 1047 
Q 953 697 953 628 
Q 953 528 1011 475 
Q 1069 422 1200 422 
Q 1388 422 1534 459 
z
" transform="scale(0.015625)"/>
      <path id="Arial-ItalicMT-4f" d="M 584 1919 
Q 584 3144 1292 3901 
Q 2000 4659 3009 4659 
Q 3866 4659 4405 4101 
Q 4944 3544 4944 2606 
Q 4944 1938 4672 1366 
Q 4469 938 4159 627 
Q 3850 316 3497 147 
Q 3028 -78 2503 -78 
Q 1953 -78 1501 184 
Q 1050 447 817 917 
Q 584 1388 584 1919 
z
M 1188 1888 
Q 1188 1484 1355 1146 
Q 1522 809 1853 618 
Q 2184 428 2550 428 
Q 2903 428 3222 595 
Q 3541 763 3792 1061 
Q 4044 1359 4189 1795 
Q 4334 2231 4334 2653 
Q 4334 3338 3951 3744 
Q 3569 4150 3006 4150 
Q 2288 4150 1738 3536 
Q 1188 2922 1188 1888 
z
" transform="scale(0.015625)"/>
      <path id="Arial-ItalicMT-58" d="M -203 0 
L 1984 2316 
L 688 4581 
L 1363 4581 
L 1953 3544 
Q 2188 3134 2222 3066 
Q 2303 2913 2400 2700 
Q 2631 3013 3116 3522 
L 4122 4581 
L 4922 4581 
L 2706 2216 
L 3963 0 
L 3297 0 
L 2553 1341 
Q 2444 1538 2300 1847 
Q 2131 1619 1888 1363 
L 609 0 
L -203 0 
z
" transform="scale(0.015625)"/>
     </defs>
     <use xlink:href="#Arial-ItalicMT-66"/>
     <use xlink:href="#Arial-ItalicMT-74" x="27.783203"/>
     <use xlink:href="#Arial-ItalicMT-6e" x="55.566406"/>
     <use xlink:href="#Arial-ItalicMT-42" x="111.181641"/>
     <use xlink:href="#Arial-ItalicMT-20" x="177.880859"/>
     <use xlink:href="#Arial-ItalicMT-66" x="205.664062"/>
     <use xlink:href="#Arial-ItalicMT-75" x="233.447266"/>
     <use xlink:href="#Arial-ItalicMT-63" x="289.0625"/>
     <use xlink:href="#Arial-ItalicMT-4f" x="339.0625"/>
     <use xlink:href="#Arial-ItalicMT-20" x="416.845703"/>
     <use xlink:href="#Arial-ItalicMT-67" x="444.628906"/>
     <use xlink:href="#Arial-ItalicMT-6c" x="500.244141"/>
     <use xlink:href="#Arial-ItalicMT-67" x="522.460938"/>
     <use xlink:href="#Arial-ItalicMT-42" x="578.076172"/>
     <use xlink:href="#Arial-ItalicMT-58" x="644.775391"/>
    </g>
    <!-- gstA intA leuO -->
    <g transform="translate(115.560949 58.186578) scale(0.07 -0.07)">
     <use xlink:href="#Arial-ItalicMT-67"/>
     <use xlink:href="#Arial-ItalicMT-73" x="55.615234"/>
     <use xlink:href="#Arial-ItalicMT-74" x="105.615234"/>
     <use xlink:href="#Arial-ItalicMT-41" x="133.398438"/>
     <use xlink:href="#Arial-ItalicMT-20" x="196.347656"/>
     <use xlink:href="#Arial-ItalicMT-69" x="224.130859"/>
     <use xlink:href="#Arial-ItalicMT-6e" x="246.347656"/>
     <use xlink:href="#Arial-ItalicMT-74" x="301.962891"/>
     <use xlink:href="#Arial-ItalicMT-41" x="329.746094"/>
     <use xlink:href="#Arial-ItalicMT-20" x="392.695312"/>
     <use xlink:href="#Arial-ItalicMT-6c" x="420.478516"/>
     <use xlink:href="#Arial-ItalicMT-65" x="442.695312"/>
     <use xlink:href="#Arial-ItalicMT-75" x="498.310547"/>
     <use xlink:href="#Arial-ItalicMT-4f" x="553.925781"/>
    </g>
    <!-- ltaE malY mmuM -->
    <g transform="translate(111.089152 65.651641) scale(0.07 -0.07)">
     <defs>
      <path id="Arial-ItalicMT-59" d="M 1788 0 
L 2156 1772 
L 747 4581 
L 1403 4581 
L 2078 3244 
Q 2300 2806 2509 2306 
Q 2741 2731 3141 3234 
L 4216 4581 
L 4947 4581 
L 2759 1725 
L 2400 0 
L 1788 0 
z
" transform="scale(0.015625)"/>
      <path id="Arial-ItalicMT-4d" d="M 281 0 
L 1238 4581 
L 1991 4581 
L 2453 1613 
Q 2544 1028 2572 491 
Q 2763 953 3209 1744 
L 4816 4581 
L 5581 4581 
L 4625 0 
L 4022 0 
L 4500 2228 
Q 4666 3000 4975 3959 
Q 4778 3513 4488 2997 
L 2781 0 
L 2191 0 
L 1731 2938 
Q 1669 3341 1641 3878 
Q 1563 3275 1488 2922 
L 878 0 
L 281 0 
z
" transform="scale(0.015625)"/>
     </defs>
     <use xlink:href="#Arial-ItalicMT-6c"/>
     <use xlink:href="#Arial-ItalicMT-74" x="22.216797"/>
     <use xlink:href="#Arial-ItalicMT-61" x="50"/>
     <use xlink:href="#Arial-ItalicMT-45" x="105.615234"/>
     <use xlink:href="#Arial-ItalicMT-20" x="172.314453"/>
     <use xlink:href="#Arial-ItalicMT-6d" x="200.097656"/>
     <use xlink:href="#Arial-ItalicMT-61" x="283.398438"/>
     <use xlink:href="#Arial-ItalicMT-6c" x="339.013672"/>
     <use xlink:href="#Arial-ItalicMT-59" x="361.230469"/>
     <use xlink:href="#Arial-ItalicMT-20" x="426.179688"/>
     <use xlink:href="#Arial-ItalicMT-6d" x="453.962891"/>
     <use xlink:href="#Arial-ItalicMT-6d" x="537.263672"/>
     <use xlink:href="#Arial-ItalicMT-75" x="620.564453"/>
     <use xlink:href="#Arial-ItalicMT-4d" x="676.179688"/>
    </g>
    <!-- mokB nudI ompF -->
    <g transform="translate(111.021886 73.055453) scale(0.07 -0.07)">
     <defs>
      <path id="Arial-ItalicMT-6b" d="M 219 0 
L 1178 4581 
L 1741 4581 
L 1147 1741 
L 2797 3319 
L 3544 3319 
L 2128 2081 
L 2984 0 
L 2366 0 
L 1703 1703 
L 1016 1109 
L 784 0 
L 219 0 
z
" transform="scale(0.015625)"/>
      <path id="Arial-ItalicMT-46" d="M 291 0 
L 1247 4581 
L 4225 4581 
L 4116 4059 
L 1750 4059 
L 1447 2600 
L 3856 2600 
L 3747 2078 
L 1338 2078 
L 903 0 
L 291 0 
z
" transform="scale(0.015625)"/>
     </defs>
     <use xlink:href="#Arial-ItalicMT-6d"/>
     <use xlink:href="#Arial-ItalicMT-6f" x="83.300781"/>
     <use xlink:href="#Arial-ItalicMT-6b" x="138.916016"/>
     <use xlink:href="#Arial-ItalicMT-42" x="188.916016"/>
     <use xlink:href="#Arial-ItalicMT-20" x="255.615234"/>
     <use xlink:href="#Arial-ItalicMT-6e" x="283.398438"/>
     <use xlink:href="#Arial-ItalicMT-75" x="339.013672"/>
     <use xlink:href="#Arial-ItalicMT-64" x="394.628906"/>
     <use xlink:href="#Arial-ItalicMT-49" x="450.244141"/>
     <use xlink:href="#Arial-ItalicMT-20" x="478.027344"/>
     <use xlink:href="#Arial-ItalicMT-6f" x="505.810547"/>
     <use xlink:href="#Arial-ItalicMT-6d" x="561.425781"/>
     <use xlink:href="#Arial-ItalicMT-70" x="644.726562"/>
     <use xlink:href="#Arial-ItalicMT-46" x="700.341797"/>
    </g>
    <!-- pgm proP qmcA -->
    <g transform="translate(112.709542 80.459266) scale(0.07 -0.07)">
     <defs>
      <path id="Arial-ItalicMT-71" d="M 2356 375 
Q 1872 -75 1428 -75 
Q 966 -75 647 276 
Q 328 628 328 1275 
Q 328 1894 570 2394 
Q 813 2894 1189 3144 
Q 1566 3394 1966 3394 
Q 2269 3394 2517 3223 
Q 2766 3053 2919 2709 
L 3047 3319 
L 3534 3319 
L 2578 -1272 
L 2013 -1272 
L 2356 375 
z
M 888 1350 
Q 888 859 1091 623 
Q 1294 388 1597 388 
Q 1853 388 2114 600 
Q 2375 813 2542 1238 
Q 2709 1663 2709 2059 
Q 2709 2466 2500 2697 
Q 2291 2928 1988 2928 
Q 1691 2928 1469 2734 
Q 1178 2484 1013 2013 
Q 888 1650 888 1350 
z
" transform="scale(0.015625)"/>
     </defs>
     <use xlink:href="#Arial-ItalicMT-70"/>
     <use xlink:href="#Arial-ItalicMT-67" x="55.615234"/>
     <use xlink:href="#Arial-ItalicMT-6d" x="111.230469"/>
     <use xlink:href="#Arial-ItalicMT-20" x="194.53125"/>
     <use xlink:href="#Arial-ItalicMT-70" x="222.314453"/>
     <use xlink:href="#Arial-ItalicMT-72" x="277.929688"/>
     <use xlink:href="#Arial-ItalicMT-6f" x="311.230469"/>
     <use xlink:href="#Arial-ItalicMT-50" x="366.845703"/>
     <use xlink:href="#Arial-ItalicMT-20" x="429.794922"/>
     <use xlink:href="#Arial-ItalicMT-71" x="457.578125"/>
     <use xlink:href="#Arial-ItalicMT-6d" x="513.193359"/>
     <use xlink:href="#Arial-ItalicMT-63" x="596.494141"/>
     <use xlink:href="#Arial-ItalicMT-41" x="646.494141"/>
    </g>
    <!-- rbbA speG torZ -->
    <g transform="translate(113.87712 88.026703) scale(0.07 -0.07)">
     <defs>
      <path id="Arial-ItalicMT-47" d="M 2622 1806 
L 2731 2325 
L 4738 2325 
L 4347 459 
Q 3969 222 3484 72 
Q 3000 -78 2531 -78 
Q 1531 -78 1038 525 
Q 622 1034 622 1834 
Q 622 2659 986 3336 
Q 1350 4013 1904 4336 
Q 2459 4659 3138 4659 
Q 3625 4659 4012 4482 
Q 4400 4306 4606 4011 
Q 4813 3716 4903 3241 
L 4303 3175 
Q 4206 3647 3901 3898 
Q 3597 4150 3119 4150 
Q 2622 4150 2190 3879 
Q 1759 3609 1501 3064 
Q 1244 2519 1244 1825 
Q 1244 1134 1584 781 
Q 1925 428 2525 428 
Q 3122 428 3809 822 
L 4016 1806 
L 2622 1806 
z
" transform="scale(0.015625)"/>
     </defs>
     <use xlink:href="#Arial-ItalicMT-72"/>
     <use xlink:href="#Arial-ItalicMT-62" x="33.300781"/>
     <use xlink:href="#Arial-ItalicMT-62" x="88.916016"/>
     <use xlink:href="#Arial-ItalicMT-41" x="144.53125"/>
     <use xlink:href="#Arial-ItalicMT-20" x="207.480469"/>
     <use xlink:href="#Arial-ItalicMT-73" x="235.263672"/>
     <use xlink:href="#Arial-ItalicMT-70" x="285.263672"/>
     <use xlink:href="#Arial-ItalicMT-65" x="340.878906"/>
     <use xlink:href="#Arial-ItalicMT-47" x="396.494141"/>
     <use xlink:href="#Arial-ItalicMT-20" x="474.277344"/>
     <use xlink:href="#Arial-ItalicMT-74" x="502.060547"/>
     <use xlink:href="#Arial-ItalicMT-6f" x="529.84375"/>
     <use xlink:href="#Arial-ItalicMT-72" x="585.458984"/>
     <use xlink:href="#Arial-ItalicMT-5a" x="618.759766"/>
    </g>
    <!-- ucpA uspEFG yajI -->
    <g transform="translate(109.595636 95.532891) scale(0.07 -0.07)">
     <defs>
      <path id="Arial-ItalicMT-79" d="M 0 -1281 
L 34 -750 
Q 209 -800 375 -800 
Q 547 -800 653 -722 
Q 791 -619 953 -334 
L 1134 -9 
L 581 3319 
L 1138 3319 
L 1388 1641 
Q 1463 1144 1516 647 
L 3000 3319 
L 3591 3319 
L 1475 -441 
Q 1169 -991 931 -1169 
Q 694 -1347 384 -1347 
Q 188 -1347 0 -1281 
z
" transform="scale(0.015625)"/>
      <path id="Arial-ItalicMT-6a" d="M 1016 3941 
L 1150 4581 
L 1709 4581 
L 1575 3941 
L 1016 3941 
z
M -775 -1247 
L -675 -766 
Q -481 -819 -331 -819 
Q -150 -819 -42 -698 
Q 66 -578 181 -31 
L 878 3319 
L 1444 3319 
L 725 -134 
Q 591 -781 416 -1016 
Q 181 -1328 -238 -1328 
Q -459 -1328 -775 -1247 
z
" transform="scale(0.015625)"/>
     </defs>
     <use xlink:href="#Arial-ItalicMT-75"/>
     <use xlink:href="#Arial-ItalicMT-63" x="55.615234"/>
     <use xlink:href="#Arial-ItalicMT-70" x="105.615234"/>
     <use xlink:href="#Arial-ItalicMT-41" x="161.230469"/>
     <use xlink:href="#Arial-ItalicMT-20" x="224.179688"/>
     <use xlink:href="#Arial-ItalicMT-75" x="251.962891"/>
     <use xlink:href="#Arial-ItalicMT-73" x="307.578125"/>
     <use xlink:href="#Arial-ItalicMT-70" x="357.578125"/>
     <use xlink:href="#Arial-ItalicMT-45" x="413.193359"/>
     <use xlink:href="#Arial-ItalicMT-46" x="479.892578"/>
     <use xlink:href="#Arial-ItalicMT-47" x="540.976562"/>
     <use xlink:href="#Arial-ItalicMT-20" x="618.759766"/>
     <use xlink:href="#Arial-ItalicMT-79" x="646.542969"/>
     <use xlink:href="#Arial-ItalicMT-61" x="696.542969"/>
     <use xlink:href="#Arial-ItalicMT-6a" x="752.158203"/>
     <use xlink:href="#Arial-ItalicMT-49" x="774.375"/>
    </g>
    <!-- ybaQV ybbJ ycjNQR -->
    <g transform="translate(105.577745 103.121109) scale(0.07 -0.07)">
     <defs>
      <path id="Arial-ItalicMT-51" d="M 3869 369 
Q 4100 94 4494 -163 
L 4222 -525 
Q 3806 -253 3475 134 
Q 3009 -84 2588 -84 
Q 2250 -84 1847 44 
Q 1444 172 1172 431 
Q 900 691 745 1098 
Q 591 1506 591 2000 
Q 591 2597 819 3144 
Q 1009 3594 1314 3920 
Q 1619 4247 1981 4425 
Q 2459 4659 3016 4659 
Q 3872 4659 4411 4101 
Q 4950 3544 4950 2606 
Q 4950 1916 4662 1333 
Q 4375 750 3869 369 
z
M 3494 763 
Q 3872 1056 4106 1570 
Q 4341 2084 4341 2641 
Q 4341 3334 3959 3742 
Q 3578 4150 3025 4150 
Q 2563 4150 2134 3879 
Q 1706 3609 1450 3087 
Q 1194 2566 1194 1950 
Q 1194 1178 1675 756 
Q 2050 428 2478 428 
Q 2819 428 3091 534 
Q 2806 794 2506 950 
L 2728 1331 
Q 2931 1244 3095 1123 
Q 3259 1003 3494 763 
z
" transform="scale(0.015625)"/>
      <path id="Arial-ItalicMT-56" d="M 1675 0 
L 794 4581 
L 1384 4581 
L 1916 1850 
Q 2063 1106 2106 650 
Q 2394 1238 2578 1581 
L 4213 4581 
L 4844 4581 
L 2331 0 
L 1675 0 
z
" transform="scale(0.015625)"/>
      <path id="Arial-ItalicMT-4a" d="M 259 1334 
L 828 1375 
Q 778 1109 778 984 
Q 778 731 936 579 
Q 1094 428 1375 428 
Q 1578 428 1733 520 
Q 1888 613 1984 806 
Q 2059 953 2138 1334 
L 2819 4581 
L 3428 4581 
L 2731 1234 
Q 2584 528 2240 225 
Q 1897 -78 1363 -78 
Q 794 -78 503 184 
Q 213 447 213 922 
Q 213 1131 259 1334 
z
" transform="scale(0.015625)"/>
      <path id="Arial-ItalicMT-4e" d="M 313 0 
L 1272 4581 
L 1866 4581 
L 2638 2863 
Q 2991 2075 3197 1538 
Q 3316 1225 3472 694 
Q 3556 1272 3684 1888 
L 4247 4581 
L 4844 4581 
L 3888 0 
L 3281 0 
L 2144 2647 
Q 1841 3347 1672 3881 
Q 1625 3434 1491 2784 
L 909 0 
L 313 0 
z
" transform="scale(0.015625)"/>
     </defs>
     <use xlink:href="#Arial-ItalicMT-79"/>
     <use xlink:href="#Arial-ItalicMT-62" x="50"/>
     <use xlink:href="#Arial-ItalicMT-61" x="105.615234"/>
     <use xlink:href="#Arial-ItalicMT-51" x="161.230469"/>
     <use xlink:href="#Arial-ItalicMT-56" x="239.013672"/>
     <use xlink:href="#Arial-ItalicMT-20" x="305.712891"/>
     <use xlink:href="#Arial-ItalicMT-79" x="333.496094"/>
     <use xlink:href="#Arial-ItalicMT-62" x="383.496094"/>
     <use xlink:href="#Arial-ItalicMT-62" x="439.111328"/>
     <use xlink:href="#Arial-ItalicMT-4a" x="494.726562"/>
     <use xlink:href="#Arial-ItalicMT-20" x="544.726562"/>
     <use xlink:href="#Arial-ItalicMT-79" x="572.509766"/>
     <use xlink:href="#Arial-ItalicMT-63" x="622.509766"/>
     <use xlink:href="#Arial-ItalicMT-6a" x="672.509766"/>
     <use xlink:href="#Arial-ItalicMT-4e" x="694.726562"/>
     <use xlink:href="#Arial-ItalicMT-51" x="766.943359"/>
     <use xlink:href="#Arial-ItalicMT-52" x="844.726562"/>
    </g>
    <!-- ydcY yehR yfeCD -->
    <g transform="translate(110.111339 110.709328) scale(0.07 -0.07)">
     <use xlink:href="#Arial-ItalicMT-79"/>
     <use xlink:href="#Arial-ItalicMT-64" x="50"/>
     <use xlink:href="#Arial-ItalicMT-63" x="105.615234"/>
     <use xlink:href="#Arial-ItalicMT-59" x="155.615234"/>
     <use xlink:href="#Arial-ItalicMT-20" x="220.564453"/>
     <use xlink:href="#Arial-ItalicMT-79" x="248.347656"/>
     <use xlink:href="#Arial-ItalicMT-65" x="298.347656"/>
     <use xlink:href="#Arial-ItalicMT-68" x="353.962891"/>
     <use xlink:href="#Arial-ItalicMT-52" x="409.578125"/>
     <use xlink:href="#Arial-ItalicMT-20" x="481.794922"/>
     <use xlink:href="#Arial-ItalicMT-79" x="509.578125"/>
     <use xlink:href="#Arial-ItalicMT-66" x="559.578125"/>
     <use xlink:href="#Arial-ItalicMT-65" x="587.361328"/>
     <use xlink:href="#Arial-ItalicMT-43" x="642.976562"/>
     <use xlink:href="#Arial-ItalicMT-44" x="715.193359"/>
    </g>
    <!-- ygeI yhaL yhbST -->
    <g transform="translate(111.467589 118.297547) scale(0.07 -0.07)">
     <defs>
      <path id="Arial-ItalicMT-4c" d="M 256 0 
L 1213 4581 
L 1825 4581 
L 978 519 
L 3356 519 
L 3247 0 
L 256 0 
z
" transform="scale(0.015625)"/>
     </defs>
     <use xlink:href="#Arial-ItalicMT-79"/>
     <use xlink:href="#Arial-ItalicMT-67" x="50"/>
     <use xlink:href="#Arial-ItalicMT-65" x="105.615234"/>
     <use xlink:href="#Arial-ItalicMT-49" x="161.230469"/>
     <use xlink:href="#Arial-ItalicMT-20" x="189.013672"/>
     <use xlink:href="#Arial-ItalicMT-79" x="216.796875"/>
     <use xlink:href="#Arial-ItalicMT-68" x="266.796875"/>
     <use xlink:href="#Arial-ItalicMT-61" x="322.412109"/>
     <use xlink:href="#Arial-ItalicMT-4c" x="378.027344"/>
     <use xlink:href="#Arial-ItalicMT-20" x="431.892578"/>
     <use xlink:href="#Arial-ItalicMT-79" x="459.675781"/>
     <use xlink:href="#Arial-ItalicMT-68" x="509.675781"/>
     <use xlink:href="#Arial-ItalicMT-62" x="565.291016"/>
     <use xlink:href="#Arial-ItalicMT-53" x="620.90625"/>
     <use xlink:href="#Arial-ItalicMT-54" x="687.605469"/>
    </g>
    <!-- yhfL yhiI yiiG -->
    <g transform="translate(117.697589 125.885766) scale(0.07 -0.07)">
     <use xlink:href="#Arial-ItalicMT-79"/>
     <use xlink:href="#Arial-ItalicMT-68" x="50"/>
     <use xlink:href="#Arial-ItalicMT-66" x="105.615234"/>
     <use xlink:href="#Arial-ItalicMT-4c" x="133.398438"/>
     <use xlink:href="#Arial-ItalicMT-20" x="187.263672"/>
     <use xlink:href="#Arial-ItalicMT-79" x="215.046875"/>
     <use xlink:href="#Arial-ItalicMT-68" x="265.046875"/>
     <use xlink:href="#Arial-ItalicMT-69" x="320.662109"/>
     <use xlink:href="#Arial-ItalicMT-49" x="342.878906"/>
     <use xlink:href="#Arial-ItalicMT-20" x="370.662109"/>
     <use xlink:href="#Arial-ItalicMT-79" x="398.445312"/>
     <use xlink:href="#Arial-ItalicMT-69" x="448.445312"/>
     <use xlink:href="#Arial-ItalicMT-69" x="470.662109"/>
     <use xlink:href="#Arial-ItalicMT-47" x="492.878906"/>
    </g>
    <!-- yjeJ yjfIJ ymdA -->
    <g transform="translate(114.332667 133.473984) scale(0.07 -0.07)">
     <use xlink:href="#Arial-ItalicMT-79"/>
     <use xlink:href="#Arial-ItalicMT-6a" x="50"/>
     <use xlink:href="#Arial-ItalicMT-65" x="72.216797"/>
     <use xlink:href="#Arial-ItalicMT-4a" x="127.832031"/>
     <use xlink:href="#Arial-ItalicMT-20" x="177.832031"/>
     <use xlink:href="#Arial-ItalicMT-79" x="205.615234"/>
     <use xlink:href="#Arial-ItalicMT-6a" x="255.615234"/>
     <use xlink:href="#Arial-ItalicMT-66" x="277.832031"/>
     <use xlink:href="#Arial-ItalicMT-49" x="305.615234"/>
     <use xlink:href="#Arial-ItalicMT-4a" x="333.398438"/>
     <use xlink:href="#Arial-ItalicMT-20" x="383.398438"/>
     <use xlink:href="#Arial-ItalicMT-79" x="411.181641"/>
     <use xlink:href="#Arial-ItalicMT-6d" x="461.181641"/>
     <use xlink:href="#Arial-ItalicMT-64" x="544.482422"/>
     <use xlink:href="#Arial-ItalicMT-41" x="600.097656"/>
    </g>
    <!-- ymjB yqiK yqjC -->
    <g transform="translate(114.137433 141.062203) scale(0.07 -0.07)">
     <defs>
      <path id="Arial-ItalicMT-4b" d="M 284 0 
L 1241 4581 
L 1853 4581 
L 1394 2375 
L 3881 4581 
L 4744 4581 
L 2616 2716 
L 4175 0 
L 3491 0 
L 2169 2322 
L 1209 1488 
L 897 0 
L 284 0 
z
" transform="scale(0.015625)"/>
     </defs>
     <use xlink:href="#Arial-ItalicMT-79"/>
     <use xlink:href="#Arial-ItalicMT-6d" x="50"/>
     <use xlink:href="#Arial-ItalicMT-6a" x="133.300781"/>
     <use xlink:href="#Arial-ItalicMT-42" x="155.517578"/>
     <use xlink:href="#Arial-ItalicMT-20" x="222.216797"/>
     <use xlink:href="#Arial-ItalicMT-79" x="250"/>
     <use xlink:href="#Arial-ItalicMT-71" x="300"/>
     <use xlink:href="#Arial-ItalicMT-69" x="355.615234"/>
     <use xlink:href="#Arial-ItalicMT-4b" x="377.832031"/>
     <use xlink:href="#Arial-ItalicMT-20" x="444.53125"/>
     <use xlink:href="#Arial-ItalicMT-79" x="472.314453"/>
     <use xlink:href="#Arial-ItalicMT-71" x="522.314453"/>
     <use xlink:href="#Arial-ItalicMT-6a" x="577.929688"/>
     <use xlink:href="#Arial-ItalicMT-43" x="600.146484"/>
    </g>
    <!-- yrbL -->
    <g transform="translate(130.861964 148.548047) scale(0.07 -0.07)">
     <use xlink:href="#Arial-ItalicMT-79"/>
     <use xlink:href="#Arial-ItalicMT-72" x="50"/>
     <use xlink:href="#Arial-ItalicMT-62" x="83.300781"/>
     <use xlink:href="#Arial-ItalicMT-4c" x="138.916016"/>
    </g>
   </g>
  </g>
 </g>
 <defs>
  <clipPath id="pc36ffe4393">
   <rect x="7.2" y="7.2" width="203.59889" height="166.32"/>
  </clipPath>
 </defs>
</svg>
