<?xml version="1.0" encoding="utf-8" standalone="no"?>
<!DOCTYPE svg PUBLIC "-//W3C//DTD SVG 1.1//EN"
  "http://www.w3.org/Graphics/SVG/1.1/DTD/svg11.dtd">
<svg xmlns:xlink="http://www.w3.org/1999/xlink" width="271.109727pt" height="179.755062pt" viewBox="0 0 271.109727 179.755062" xmlns="http://www.w3.org/2000/svg" version="1.1">
 <metadata>
  <rdf:RDF xmlns:dc="http://purl.org/dc/elements/1.1/" xmlns:cc="http://creativecommons.org/ns#" xmlns:rdf="http://www.w3.org/1999/02/22-rdf-syntax-ns#">
   <cc:Work>
    <dc:type rdf:resource="http://purl.org/dc/dcmitype/StillImage"/>
    <dc:date>2023-04-20T12:29:54.419777</dc:date>
    <dc:format>image/svg+xml</dc:format>
    <dc:creator>
     <cc:Agent>
      <dc:title>Matplotlib v3.6.2, https://matplotlib.org/</dc:title>
     </cc:Agent>
    </dc:creator>
   </cc:Work>
  </rdf:RDF>
 </metadata>
 <defs>
  <style type="text/css">*{stroke-linejoin: round; stroke-linecap: butt}</style>
 </defs>
 <g id="figure_1">
  <g id="patch_1">
   <path d="M 0 179.755062 
L 271.109727 179.755062 
L 271.109727 0 
L 0 0 
z
" style="fill: #ffffff"/>
  </g>
  <g id="axes_1">
   <g id="patch_2">
    <path d="M 38.584375 135.256 
L 261.784375 135.256 
L 261.784375 24.376 
L 38.584375 24.376 
z
" style="fill: #ffffff"/>
   </g>
   <g id="patch_3">
    <path d="M 49.212946 119.224578 
L 68.537622 119.224578 
L 68.537622 82.531482 
L 49.212946 82.531482 
z
" clip-path="url(#p9fe7425da3)" style="fill: #1f77b4"/>
   </g>
   <g id="patch_4">
    <path d="M 104.426304 119.224578 
L 123.75098 119.224578 
L 123.75098 76.95428 
L 104.426304 76.95428 
z
" clip-path="url(#p9fe7425da3)" style="fill: #1f77b4"/>
   </g>
   <g id="patch_5">
    <path d="M 159.639663 119.224578 
L 178.964338 119.224578 
L 178.964338 103.021017 
L 159.639663 103.021017 
z
" clip-path="url(#p9fe7425da3)" style="fill: #1f77b4"/>
   </g>
   <g id="patch_6">
    <path d="M 214.853021 119.224578 
L 234.177696 119.224578 
L 234.177696 119.224578 
L 214.853021 119.224578 
z
" clip-path="url(#p9fe7425da3)" style="fill: #1f77b4"/>
   </g>
   <g id="patch_7">
    <path d="M 68.537622 119.224578 
L 87.862297 119.224578 
L 87.862297 63.285795 
L 68.537622 63.285795 
z
" clip-path="url(#p9fe7425da3)" style="fill: #d62728"/>
   </g>
   <g id="patch_8">
    <path d="M 123.75098 119.224578 
L 143.075655 119.224578 
L 143.075655 29.926532 
L 123.75098 29.926532 
z
" clip-path="url(#p9fe7425da3)" style="fill: #d62728"/>
   </g>
   <g id="patch_9">
    <path d="M 178.964338 119.224578 
L 198.289013 119.224578 
L 198.289013 94.715743 
L 178.964338 94.715743 
z
" clip-path="url(#p9fe7425da3)" style="fill: #d62728"/>
   </g>
   <g id="patch_10">
    <path d="M 234.177696 119.224578 
L 253.502371 119.224578 
L 253.502371 119.224578 
L 234.177696 119.224578 
z
" clip-path="url(#p9fe7425da3)" style="fill: #d62728"/>
   </g>
   <g id="matplotlib.axis_1">
    <g id="xtick_1">
     <g id="line2d_1">
      <defs>
       <path id="m4894c85c75" d="M 0 0 
L 0 3.5 
" style="stroke: #000000; stroke-width: 0.8"/>
      </defs>
      <g>
       <use xlink:href="#m4894c85c75" x="68.537622" y="135.256" style="stroke: #000000; stroke-width: 0.8"/>
      </g>
     </g>
     <g id="text_1">
      <!-- BaeR-KO -->
      <g transform="translate(47.141528 149.413812) scale(0.1 -0.1)">
       <defs>
        <path id="ArialMT-42" d="M 469 0 
L 469 4581 
L 2188 4581 
Q 2713 4581 3030 4442 
Q 3347 4303 3526 4014 
Q 3706 3725 3706 3409 
Q 3706 3116 3547 2856 
Q 3388 2597 3066 2438 
Q 3481 2316 3704 2022 
Q 3928 1728 3928 1328 
Q 3928 1006 3792 729 
Q 3656 453 3456 303 
Q 3256 153 2954 76 
Q 2653 0 2216 0 
L 469 0 
z
M 1075 2656 
L 2066 2656 
Q 2469 2656 2644 2709 
Q 2875 2778 2992 2937 
Q 3109 3097 3109 3338 
Q 3109 3566 3000 3739 
Q 2891 3913 2687 3977 
Q 2484 4041 1991 4041 
L 1075 4041 
L 1075 2656 
z
M 1075 541 
L 2216 541 
Q 2509 541 2628 563 
Q 2838 600 2978 687 
Q 3119 775 3209 942 
Q 3300 1109 3300 1328 
Q 3300 1584 3169 1773 
Q 3038 1963 2805 2039 
Q 2572 2116 2134 2116 
L 1075 2116 
L 1075 541 
z
" transform="scale(0.015625)"/>
        <path id="ArialMT-61" d="M 2588 409 
Q 2275 144 1986 34 
Q 1697 -75 1366 -75 
Q 819 -75 525 192 
Q 231 459 231 875 
Q 231 1119 342 1320 
Q 453 1522 633 1644 
Q 813 1766 1038 1828 
Q 1203 1872 1538 1913 
Q 2219 1994 2541 2106 
Q 2544 2222 2544 2253 
Q 2544 2597 2384 2738 
Q 2169 2928 1744 2928 
Q 1347 2928 1158 2789 
Q 969 2650 878 2297 
L 328 2372 
Q 403 2725 575 2942 
Q 747 3159 1072 3276 
Q 1397 3394 1825 3394 
Q 2250 3394 2515 3294 
Q 2781 3194 2906 3042 
Q 3031 2891 3081 2659 
Q 3109 2516 3109 2141 
L 3109 1391 
Q 3109 606 3145 398 
Q 3181 191 3288 0 
L 2700 0 
Q 2613 175 2588 409 
z
M 2541 1666 
Q 2234 1541 1622 1453 
Q 1275 1403 1131 1340 
Q 988 1278 909 1158 
Q 831 1038 831 891 
Q 831 666 1001 516 
Q 1172 366 1500 366 
Q 1825 366 2078 508 
Q 2331 650 2450 897 
Q 2541 1088 2541 1459 
L 2541 1666 
z
" transform="scale(0.015625)"/>
        <path id="ArialMT-65" d="M 2694 1069 
L 3275 997 
Q 3138 488 2766 206 
Q 2394 -75 1816 -75 
Q 1088 -75 661 373 
Q 234 822 234 1631 
Q 234 2469 665 2931 
Q 1097 3394 1784 3394 
Q 2450 3394 2872 2941 
Q 3294 2488 3294 1666 
Q 3294 1616 3291 1516 
L 816 1516 
Q 847 969 1125 678 
Q 1403 388 1819 388 
Q 2128 388 2347 550 
Q 2566 713 2694 1069 
z
M 847 1978 
L 2700 1978 
Q 2663 2397 2488 2606 
Q 2219 2931 1791 2931 
Q 1403 2931 1139 2672 
Q 875 2413 847 1978 
z
" transform="scale(0.015625)"/>
        <path id="ArialMT-52" d="M 503 0 
L 503 4581 
L 2534 4581 
Q 3147 4581 3465 4457 
Q 3784 4334 3975 4021 
Q 4166 3709 4166 3331 
Q 4166 2844 3850 2509 
Q 3534 2175 2875 2084 
Q 3116 1969 3241 1856 
Q 3506 1613 3744 1247 
L 4541 0 
L 3778 0 
L 3172 953 
Q 2906 1366 2734 1584 
Q 2563 1803 2427 1890 
Q 2291 1978 2150 2013 
Q 2047 2034 1813 2034 
L 1109 2034 
L 1109 0 
L 503 0 
z
M 1109 2559 
L 2413 2559 
Q 2828 2559 3062 2645 
Q 3297 2731 3419 2920 
Q 3541 3109 3541 3331 
Q 3541 3656 3305 3865 
Q 3069 4075 2559 4075 
L 1109 4075 
L 1109 2559 
z
" transform="scale(0.015625)"/>
        <path id="ArialMT-2d" d="M 203 1375 
L 203 1941 
L 1931 1941 
L 1931 1375 
L 203 1375 
z
" transform="scale(0.015625)"/>
        <path id="ArialMT-4b" d="M 469 0 
L 469 4581 
L 1075 4581 
L 1075 2309 
L 3350 4581 
L 4172 4581 
L 2250 2725 
L 4256 0 
L 3456 0 
L 1825 2319 
L 1075 1588 
L 1075 0 
L 469 0 
z
" transform="scale(0.015625)"/>
        <path id="ArialMT-4f" d="M 309 2231 
Q 309 3372 921 4017 
Q 1534 4663 2503 4663 
Q 3138 4663 3647 4359 
Q 4156 4056 4423 3514 
Q 4691 2972 4691 2284 
Q 4691 1588 4409 1038 
Q 4128 488 3612 205 
Q 3097 -78 2500 -78 
Q 1853 -78 1343 234 
Q 834 547 571 1087 
Q 309 1628 309 2231 
z
M 934 2222 
Q 934 1394 1379 917 
Q 1825 441 2497 441 
Q 3181 441 3623 922 
Q 4066 1403 4066 2288 
Q 4066 2847 3877 3264 
Q 3688 3681 3323 3911 
Q 2959 4141 2506 4141 
Q 1863 4141 1398 3698 
Q 934 3256 934 2222 
z
" transform="scale(0.015625)"/>
       </defs>
       <use xlink:href="#ArialMT-42"/>
       <use xlink:href="#ArialMT-61" x="66.699219"/>
       <use xlink:href="#ArialMT-65" x="122.314453"/>
       <use xlink:href="#ArialMT-52" x="177.929688"/>
       <use xlink:href="#ArialMT-2d" x="250.146484"/>
       <use xlink:href="#ArialMT-4b" x="283.447266"/>
       <use xlink:href="#ArialMT-4f" x="350.146484"/>
      </g>
     </g>
    </g>
    <g id="xtick_2">
     <g id="line2d_2">
      <g>
       <use xlink:href="#m4894c85c75" x="123.75098" y="135.256" style="stroke: #000000; stroke-width: 0.8"/>
      </g>
     </g>
     <g id="text_2">
      <!-- CpxR-KO -->
      <g transform="translate(102.359574 149.541937) scale(0.1 -0.1)">
       <defs>
        <path id="ArialMT-43" d="M 3763 1606 
L 4369 1453 
Q 4178 706 3683 314 
Q 3188 -78 2472 -78 
Q 1731 -78 1267 223 
Q 803 525 561 1097 
Q 319 1669 319 2325 
Q 319 3041 592 3573 
Q 866 4106 1370 4382 
Q 1875 4659 2481 4659 
Q 3169 4659 3637 4309 
Q 4106 3959 4291 3325 
L 3694 3184 
Q 3534 3684 3231 3912 
Q 2928 4141 2469 4141 
Q 1941 4141 1586 3887 
Q 1231 3634 1087 3207 
Q 944 2781 944 2328 
Q 944 1744 1114 1308 
Q 1284 872 1643 656 
Q 2003 441 2422 441 
Q 2931 441 3284 734 
Q 3638 1028 3763 1606 
z
" transform="scale(0.015625)"/>
        <path id="ArialMT-70" d="M 422 -1272 
L 422 3319 
L 934 3319 
L 934 2888 
Q 1116 3141 1344 3267 
Q 1572 3394 1897 3394 
Q 2322 3394 2647 3175 
Q 2972 2956 3137 2557 
Q 3303 2159 3303 1684 
Q 3303 1175 3120 767 
Q 2938 359 2589 142 
Q 2241 -75 1856 -75 
Q 1575 -75 1351 44 
Q 1128 163 984 344 
L 984 -1272 
L 422 -1272 
z
M 931 1641 
Q 931 1000 1190 694 
Q 1450 388 1819 388 
Q 2194 388 2461 705 
Q 2728 1022 2728 1688 
Q 2728 2322 2467 2637 
Q 2206 2953 1844 2953 
Q 1484 2953 1207 2617 
Q 931 2281 931 1641 
z
" transform="scale(0.015625)"/>
        <path id="ArialMT-78" d="M 47 0 
L 1259 1725 
L 138 3319 
L 841 3319 
L 1350 2541 
Q 1494 2319 1581 2169 
Q 1719 2375 1834 2534 
L 2394 3319 
L 3066 3319 
L 1919 1756 
L 3153 0 
L 2463 0 
L 1781 1031 
L 1600 1309 
L 728 0 
L 47 0 
z
" transform="scale(0.015625)"/>
       </defs>
       <use xlink:href="#ArialMT-43"/>
       <use xlink:href="#ArialMT-70" x="72.216797"/>
       <use xlink:href="#ArialMT-78" x="127.832031"/>
       <use xlink:href="#ArialMT-52" x="177.832031"/>
       <use xlink:href="#ArialMT-2d" x="250.048828"/>
       <use xlink:href="#ArialMT-4b" x="283.349609"/>
       <use xlink:href="#ArialMT-4f" x="350.048828"/>
      </g>
     </g>
    </g>
    <g id="xtick_3">
     <g id="line2d_3">
      <g>
       <use xlink:href="#m4894c85c75" x="178.964338" y="135.256" style="stroke: #000000; stroke-width: 0.8"/>
      </g>
     </g>
     <g id="text_3">
      <!-- WT -->
      <g transform="translate(171.1909 149.413812) scale(0.1 -0.1)">
       <defs>
        <path id="ArialMT-57" d="M 1294 0 
L 78 4581 
L 700 4581 
L 1397 1578 
Q 1509 1106 1591 641 
Q 1766 1375 1797 1488 
L 2669 4581 
L 3400 4581 
L 4056 2263 
Q 4303 1400 4413 641 
Q 4500 1075 4641 1638 
L 5359 4581 
L 5969 4581 
L 4713 0 
L 4128 0 
L 3163 3491 
Q 3041 3928 3019 4028 
Q 2947 3713 2884 3491 
L 1913 0 
L 1294 0 
z
" transform="scale(0.015625)"/>
        <path id="ArialMT-54" d="M 1659 0 
L 1659 4041 
L 150 4041 
L 150 4581 
L 3781 4581 
L 3781 4041 
L 2266 4041 
L 2266 0 
L 1659 0 
z
" transform="scale(0.015625)"/>
       </defs>
       <use xlink:href="#ArialMT-57"/>
       <use xlink:href="#ArialMT-54" x="94.384766"/>
      </g>
      <!-- Control -->
      <g transform="translate(162.84715 159.990687) scale(0.1 -0.1)">
       <defs>
        <path id="ArialMT-6f" d="M 213 1659 
Q 213 2581 725 3025 
Q 1153 3394 1769 3394 
Q 2453 3394 2887 2945 
Q 3322 2497 3322 1706 
Q 3322 1066 3130 698 
Q 2938 331 2570 128 
Q 2203 -75 1769 -75 
Q 1072 -75 642 372 
Q 213 819 213 1659 
z
M 791 1659 
Q 791 1022 1069 705 
Q 1347 388 1769 388 
Q 2188 388 2466 706 
Q 2744 1025 2744 1678 
Q 2744 2294 2464 2611 
Q 2184 2928 1769 2928 
Q 1347 2928 1069 2612 
Q 791 2297 791 1659 
z
" transform="scale(0.015625)"/>
        <path id="ArialMT-6e" d="M 422 0 
L 422 3319 
L 928 3319 
L 928 2847 
Q 1294 3394 1984 3394 
Q 2284 3394 2536 3286 
Q 2788 3178 2913 3003 
Q 3038 2828 3088 2588 
Q 3119 2431 3119 2041 
L 3119 0 
L 2556 0 
L 2556 2019 
Q 2556 2363 2490 2533 
Q 2425 2703 2258 2804 
Q 2091 2906 1866 2906 
Q 1506 2906 1245 2678 
Q 984 2450 984 1813 
L 984 0 
L 422 0 
z
" transform="scale(0.015625)"/>
        <path id="ArialMT-74" d="M 1650 503 
L 1731 6 
Q 1494 -44 1306 -44 
Q 1000 -44 831 53 
Q 663 150 594 308 
Q 525 466 525 972 
L 525 2881 
L 113 2881 
L 113 3319 
L 525 3319 
L 525 4141 
L 1084 4478 
L 1084 3319 
L 1650 3319 
L 1650 2881 
L 1084 2881 
L 1084 941 
Q 1084 700 1114 631 
Q 1144 563 1211 522 
Q 1278 481 1403 481 
Q 1497 481 1650 503 
z
" transform="scale(0.015625)"/>
        <path id="ArialMT-72" d="M 416 0 
L 416 3319 
L 922 3319 
L 922 2816 
Q 1116 3169 1280 3281 
Q 1444 3394 1641 3394 
Q 1925 3394 2219 3213 
L 2025 2691 
Q 1819 2813 1613 2813 
Q 1428 2813 1281 2702 
Q 1134 2591 1072 2394 
Q 978 2094 978 1738 
L 978 0 
L 416 0 
z
" transform="scale(0.015625)"/>
        <path id="ArialMT-6c" d="M 409 0 
L 409 4581 
L 972 4581 
L 972 0 
L 409 0 
z
" transform="scale(0.015625)"/>
       </defs>
       <use xlink:href="#ArialMT-43"/>
       <use xlink:href="#ArialMT-6f" x="72.216797"/>
       <use xlink:href="#ArialMT-6e" x="127.832031"/>
       <use xlink:href="#ArialMT-74" x="183.447266"/>
       <use xlink:href="#ArialMT-72" x="211.230469"/>
       <use xlink:href="#ArialMT-6f" x="244.53125"/>
       <use xlink:href="#ArialMT-6c" x="300.146484"/>
      </g>
     </g>
    </g>
    <g id="xtick_4">
     <g id="line2d_4">
      <g>
       <use xlink:href="#m4894c85c75" x="234.177696" y="135.256" style="stroke: #000000; stroke-width: 0.8"/>
      </g>
     </g>
     <g id="text_4">
      <!-- All Other -->
      <g transform="translate(214.727696 149.413812) scale(0.1 -0.1)">
       <defs>
        <path id="ArialMT-41" d="M -9 0 
L 1750 4581 
L 2403 4581 
L 4278 0 
L 3588 0 
L 3053 1388 
L 1138 1388 
L 634 0 
L -9 0 
z
M 1313 1881 
L 2866 1881 
L 2388 3150 
Q 2169 3728 2063 4100 
Q 1975 3659 1816 3225 
L 1313 1881 
z
" transform="scale(0.015625)"/>
        <path id="ArialMT-20" transform="scale(0.015625)"/>
        <path id="ArialMT-68" d="M 422 0 
L 422 4581 
L 984 4581 
L 984 2938 
Q 1378 3394 1978 3394 
Q 2347 3394 2619 3248 
Q 2891 3103 3008 2847 
Q 3125 2591 3125 2103 
L 3125 0 
L 2563 0 
L 2563 2103 
Q 2563 2525 2380 2717 
Q 2197 2909 1863 2909 
Q 1613 2909 1392 2779 
Q 1172 2650 1078 2428 
Q 984 2206 984 1816 
L 984 0 
L 422 0 
z
" transform="scale(0.015625)"/>
       </defs>
       <use xlink:href="#ArialMT-41"/>
       <use xlink:href="#ArialMT-6c" x="66.699219"/>
       <use xlink:href="#ArialMT-6c" x="88.916016"/>
       <use xlink:href="#ArialMT-20" x="111.132812"/>
       <use xlink:href="#ArialMT-4f" x="138.916016"/>
       <use xlink:href="#ArialMT-74" x="216.699219"/>
       <use xlink:href="#ArialMT-68" x="244.482422"/>
       <use xlink:href="#ArialMT-65" x="300.097656"/>
       <use xlink:href="#ArialMT-72" x="355.712891"/>
      </g>
      <!-- PRECISE-1K -->
      <g transform="translate(204.445665 159.990687) scale(0.1 -0.1)">
       <defs>
        <path id="ArialMT-50" d="M 494 0 
L 494 4581 
L 2222 4581 
Q 2678 4581 2919 4538 
Q 3256 4481 3484 4323 
Q 3713 4166 3852 3881 
Q 3991 3597 3991 3256 
Q 3991 2672 3619 2267 
Q 3247 1863 2275 1863 
L 1100 1863 
L 1100 0 
L 494 0 
z
M 1100 2403 
L 2284 2403 
Q 2872 2403 3119 2622 
Q 3366 2841 3366 3238 
Q 3366 3525 3220 3729 
Q 3075 3934 2838 4000 
Q 2684 4041 2272 4041 
L 1100 4041 
L 1100 2403 
z
" transform="scale(0.015625)"/>
        <path id="ArialMT-45" d="M 506 0 
L 506 4581 
L 3819 4581 
L 3819 4041 
L 1113 4041 
L 1113 2638 
L 3647 2638 
L 3647 2100 
L 1113 2100 
L 1113 541 
L 3925 541 
L 3925 0 
L 506 0 
z
" transform="scale(0.015625)"/>
        <path id="ArialMT-49" d="M 597 0 
L 597 4581 
L 1203 4581 
L 1203 0 
L 597 0 
z
" transform="scale(0.015625)"/>
        <path id="ArialMT-53" d="M 288 1472 
L 859 1522 
Q 900 1178 1048 958 
Q 1197 738 1509 602 
Q 1822 466 2213 466 
Q 2559 466 2825 569 
Q 3091 672 3220 851 
Q 3350 1031 3350 1244 
Q 3350 1459 3225 1620 
Q 3100 1781 2813 1891 
Q 2628 1963 1997 2114 
Q 1366 2266 1113 2400 
Q 784 2572 623 2826 
Q 463 3081 463 3397 
Q 463 3744 659 4045 
Q 856 4347 1234 4503 
Q 1613 4659 2075 4659 
Q 2584 4659 2973 4495 
Q 3363 4331 3572 4012 
Q 3781 3694 3797 3291 
L 3216 3247 
Q 3169 3681 2898 3903 
Q 2628 4125 2100 4125 
Q 1550 4125 1298 3923 
Q 1047 3722 1047 3438 
Q 1047 3191 1225 3031 
Q 1400 2872 2139 2705 
Q 2878 2538 3153 2413 
Q 3553 2228 3743 1945 
Q 3934 1663 3934 1294 
Q 3934 928 3725 604 
Q 3516 281 3123 101 
Q 2731 -78 2241 -78 
Q 1619 -78 1198 103 
Q 778 284 539 648 
Q 300 1013 288 1472 
z
" transform="scale(0.015625)"/>
        <path id="ArialMT-31" d="M 2384 0 
L 1822 0 
L 1822 3584 
Q 1619 3391 1289 3197 
Q 959 3003 697 2906 
L 697 3450 
Q 1169 3672 1522 3987 
Q 1875 4303 2022 4600 
L 2384 4600 
L 2384 0 
z
" transform="scale(0.015625)"/>
       </defs>
       <use xlink:href="#ArialMT-50"/>
       <use xlink:href="#ArialMT-52" x="66.699219"/>
       <use xlink:href="#ArialMT-45" x="138.916016"/>
       <use xlink:href="#ArialMT-43" x="205.615234"/>
       <use xlink:href="#ArialMT-49" x="277.832031"/>
       <use xlink:href="#ArialMT-53" x="305.615234"/>
       <use xlink:href="#ArialMT-45" x="372.314453"/>
       <use xlink:href="#ArialMT-2d" x="439.013672"/>
       <use xlink:href="#ArialMT-31" x="472.314453"/>
       <use xlink:href="#ArialMT-4b" x="527.929688"/>
      </g>
      <!-- Experiments -->
      <g transform="translate(206.390977 170.567562) scale(0.1 -0.1)">
       <defs>
        <path id="ArialMT-69" d="M 425 3934 
L 425 4581 
L 988 4581 
L 988 3934 
L 425 3934 
z
M 425 0 
L 425 3319 
L 988 3319 
L 988 0 
L 425 0 
z
" transform="scale(0.015625)"/>
        <path id="ArialMT-6d" d="M 422 0 
L 422 3319 
L 925 3319 
L 925 2853 
Q 1081 3097 1340 3245 
Q 1600 3394 1931 3394 
Q 2300 3394 2536 3241 
Q 2772 3088 2869 2813 
Q 3263 3394 3894 3394 
Q 4388 3394 4653 3120 
Q 4919 2847 4919 2278 
L 4919 0 
L 4359 0 
L 4359 2091 
Q 4359 2428 4304 2576 
Q 4250 2725 4106 2815 
Q 3963 2906 3769 2906 
Q 3419 2906 3187 2673 
Q 2956 2441 2956 1928 
L 2956 0 
L 2394 0 
L 2394 2156 
Q 2394 2531 2256 2718 
Q 2119 2906 1806 2906 
Q 1569 2906 1367 2781 
Q 1166 2656 1075 2415 
Q 984 2175 984 1722 
L 984 0 
L 422 0 
z
" transform="scale(0.015625)"/>
        <path id="ArialMT-73" d="M 197 991 
L 753 1078 
Q 800 744 1014 566 
Q 1228 388 1613 388 
Q 2000 388 2187 545 
Q 2375 703 2375 916 
Q 2375 1106 2209 1216 
Q 2094 1291 1634 1406 
Q 1016 1563 777 1677 
Q 538 1791 414 1992 
Q 291 2194 291 2438 
Q 291 2659 392 2848 
Q 494 3038 669 3163 
Q 800 3259 1026 3326 
Q 1253 3394 1513 3394 
Q 1903 3394 2198 3281 
Q 2494 3169 2634 2976 
Q 2775 2784 2828 2463 
L 2278 2388 
Q 2241 2644 2061 2787 
Q 1881 2931 1553 2931 
Q 1166 2931 1000 2803 
Q 834 2675 834 2503 
Q 834 2394 903 2306 
Q 972 2216 1119 2156 
Q 1203 2125 1616 2013 
Q 2213 1853 2448 1751 
Q 2684 1650 2818 1456 
Q 2953 1263 2953 975 
Q 2953 694 2789 445 
Q 2625 197 2315 61 
Q 2006 -75 1616 -75 
Q 969 -75 630 194 
Q 291 463 197 991 
z
" transform="scale(0.015625)"/>
       </defs>
       <use xlink:href="#ArialMT-45"/>
       <use xlink:href="#ArialMT-78" x="66.699219"/>
       <use xlink:href="#ArialMT-70" x="116.699219"/>
       <use xlink:href="#ArialMT-65" x="172.314453"/>
       <use xlink:href="#ArialMT-72" x="227.929688"/>
       <use xlink:href="#ArialMT-69" x="261.230469"/>
       <use xlink:href="#ArialMT-6d" x="283.447266"/>
       <use xlink:href="#ArialMT-65" x="366.748047"/>
       <use xlink:href="#ArialMT-6e" x="422.363281"/>
       <use xlink:href="#ArialMT-74" x="477.978516"/>
       <use xlink:href="#ArialMT-73" x="505.761719"/>
      </g>
     </g>
    </g>
   </g>
   <g id="matplotlib.axis_2">
    <g id="ytick_1">
     <g id="line2d_5">
      <defs>
       <path id="me78d4778e0" d="M 0 0 
L -3.5 0 
" style="stroke: #000000; stroke-width: 0.8"/>
      </defs>
      <g>
       <use xlink:href="#me78d4778e0" x="38.584375" y="119.224578" style="stroke: #000000; stroke-width: 0.8"/>
      </g>
     </g>
     <g id="text_5">
      <!-- 0 -->
      <g transform="translate(26.023438 122.803485) scale(0.1 -0.1)">
       <defs>
        <path id="ArialMT-30" d="M 266 2259 
Q 266 3072 433 3567 
Q 600 4063 929 4331 
Q 1259 4600 1759 4600 
Q 2128 4600 2406 4451 
Q 2684 4303 2865 4023 
Q 3047 3744 3150 3342 
Q 3253 2941 3253 2259 
Q 3253 1453 3087 958 
Q 2922 463 2592 192 
Q 2263 -78 1759 -78 
Q 1097 -78 719 397 
Q 266 969 266 2259 
z
M 844 2259 
Q 844 1131 1108 757 
Q 1372 384 1759 384 
Q 2147 384 2411 759 
Q 2675 1134 2675 2259 
Q 2675 3391 2411 3762 
Q 2147 4134 1753 4134 
Q 1366 4134 1134 3806 
Q 844 3388 844 2259 
z
" transform="scale(0.015625)"/>
       </defs>
       <use xlink:href="#ArialMT-30"/>
      </g>
     </g>
    </g>
    <g id="ytick_2">
     <g id="line2d_6">
      <g>
       <use xlink:href="#me78d4778e0" x="38.584375" y="77.241853" style="stroke: #000000; stroke-width: 0.8"/>
      </g>
     </g>
     <g id="text_6">
      <!-- 20 -->
      <g transform="translate(20.4625 80.820759) scale(0.1 -0.1)">
       <defs>
        <path id="ArialMT-32" d="M 3222 541 
L 3222 0 
L 194 0 
Q 188 203 259 391 
Q 375 700 629 1000 
Q 884 1300 1366 1694 
Q 2113 2306 2375 2664 
Q 2638 3022 2638 3341 
Q 2638 3675 2398 3904 
Q 2159 4134 1775 4134 
Q 1369 4134 1125 3890 
Q 881 3647 878 3216 
L 300 3275 
Q 359 3922 746 4261 
Q 1134 4600 1788 4600 
Q 2447 4600 2831 4234 
Q 3216 3869 3216 3328 
Q 3216 3053 3103 2787 
Q 2991 2522 2730 2228 
Q 2469 1934 1863 1422 
Q 1356 997 1212 845 
Q 1069 694 975 541 
L 3222 541 
z
" transform="scale(0.015625)"/>
       </defs>
       <use xlink:href="#ArialMT-32"/>
       <use xlink:href="#ArialMT-30" x="55.615234"/>
      </g>
     </g>
    </g>
    <g id="ytick_3">
     <g id="line2d_7">
      <g>
       <use xlink:href="#me78d4778e0" x="38.584375" y="35.259127" style="stroke: #000000; stroke-width: 0.8"/>
      </g>
     </g>
     <g id="text_7">
      <!-- 40 -->
      <g transform="translate(20.4625 38.838033) scale(0.1 -0.1)">
       <defs>
        <path id="ArialMT-34" d="M 2069 0 
L 2069 1097 
L 81 1097 
L 81 1613 
L 2172 4581 
L 2631 4581 
L 2631 1613 
L 3250 1613 
L 3250 1097 
L 2631 1097 
L 2631 0 
L 2069 0 
z
M 2069 1613 
L 2069 3678 
L 634 1613 
L 2069 1613 
z
" transform="scale(0.015625)"/>
       </defs>
       <use xlink:href="#ArialMT-34"/>
       <use xlink:href="#ArialMT-30" x="55.615234"/>
      </g>
     </g>
    </g>
    <g id="text_8">
     <!-- YgeV iModulon Activity -->
     <g transform="translate(14.357813 130.674594) rotate(-90) scale(0.1 -0.1)">
      <defs>
       <path id="ArialMT-59" d="M 1784 0 
L 1784 1941 
L 19 4581 
L 756 4581 
L 1659 3200 
Q 1909 2813 2125 2425 
Q 2331 2784 2625 3234 
L 3513 4581 
L 4219 4581 
L 2391 1941 
L 2391 0 
L 1784 0 
z
" transform="scale(0.015625)"/>
       <path id="ArialMT-67" d="M 319 -275 
L 866 -356 
Q 900 -609 1056 -725 
Q 1266 -881 1628 -881 
Q 2019 -881 2231 -725 
Q 2444 -569 2519 -288 
Q 2563 -116 2559 434 
Q 2191 0 1641 0 
Q 956 0 581 494 
Q 206 988 206 1678 
Q 206 2153 378 2554 
Q 550 2956 876 3175 
Q 1203 3394 1644 3394 
Q 2231 3394 2613 2919 
L 2613 3319 
L 3131 3319 
L 3131 450 
Q 3131 -325 2973 -648 
Q 2816 -972 2473 -1159 
Q 2131 -1347 1631 -1347 
Q 1038 -1347 672 -1080 
Q 306 -813 319 -275 
z
M 784 1719 
Q 784 1066 1043 766 
Q 1303 466 1694 466 
Q 2081 466 2343 764 
Q 2606 1063 2606 1700 
Q 2606 2309 2336 2618 
Q 2066 2928 1684 2928 
Q 1309 2928 1046 2623 
Q 784 2319 784 1719 
z
" transform="scale(0.015625)"/>
       <path id="ArialMT-56" d="M 1803 0 
L 28 4581 
L 684 4581 
L 1875 1253 
Q 2019 853 2116 503 
Q 2222 878 2363 1253 
L 3600 4581 
L 4219 4581 
L 2425 0 
L 1803 0 
z
" transform="scale(0.015625)"/>
       <path id="ArialMT-4d" d="M 475 0 
L 475 4581 
L 1388 4581 
L 2472 1338 
Q 2622 884 2691 659 
Q 2769 909 2934 1394 
L 4031 4581 
L 4847 4581 
L 4847 0 
L 4263 0 
L 4263 3834 
L 2931 0 
L 2384 0 
L 1059 3900 
L 1059 0 
L 475 0 
z
" transform="scale(0.015625)"/>
       <path id="ArialMT-64" d="M 2575 0 
L 2575 419 
Q 2259 -75 1647 -75 
Q 1250 -75 917 144 
Q 584 363 401 755 
Q 219 1147 219 1656 
Q 219 2153 384 2558 
Q 550 2963 881 3178 
Q 1213 3394 1622 3394 
Q 1922 3394 2156 3267 
Q 2391 3141 2538 2938 
L 2538 4581 
L 3097 4581 
L 3097 0 
L 2575 0 
z
M 797 1656 
Q 797 1019 1065 703 
Q 1334 388 1700 388 
Q 2069 388 2326 689 
Q 2584 991 2584 1609 
Q 2584 2291 2321 2609 
Q 2059 2928 1675 2928 
Q 1300 2928 1048 2622 
Q 797 2316 797 1656 
z
" transform="scale(0.015625)"/>
       <path id="ArialMT-75" d="M 2597 0 
L 2597 488 
Q 2209 -75 1544 -75 
Q 1250 -75 995 37 
Q 741 150 617 320 
Q 494 491 444 738 
Q 409 903 409 1263 
L 409 3319 
L 972 3319 
L 972 1478 
Q 972 1038 1006 884 
Q 1059 663 1231 536 
Q 1403 409 1656 409 
Q 1909 409 2131 539 
Q 2353 669 2445 892 
Q 2538 1116 2538 1541 
L 2538 3319 
L 3100 3319 
L 3100 0 
L 2597 0 
z
" transform="scale(0.015625)"/>
       <path id="ArialMT-63" d="M 2588 1216 
L 3141 1144 
Q 3050 572 2676 248 
Q 2303 -75 1759 -75 
Q 1078 -75 664 370 
Q 250 816 250 1647 
Q 250 2184 428 2587 
Q 606 2991 970 3192 
Q 1334 3394 1763 3394 
Q 2303 3394 2647 3120 
Q 2991 2847 3088 2344 
L 2541 2259 
Q 2463 2594 2264 2762 
Q 2066 2931 1784 2931 
Q 1359 2931 1093 2626 
Q 828 2322 828 1663 
Q 828 994 1084 691 
Q 1341 388 1753 388 
Q 2084 388 2306 591 
Q 2528 794 2588 1216 
z
" transform="scale(0.015625)"/>
       <path id="ArialMT-76" d="M 1344 0 
L 81 3319 
L 675 3319 
L 1388 1331 
Q 1503 1009 1600 663 
Q 1675 925 1809 1294 
L 2547 3319 
L 3125 3319 
L 1869 0 
L 1344 0 
z
" transform="scale(0.015625)"/>
       <path id="ArialMT-79" d="M 397 -1278 
L 334 -750 
Q 519 -800 656 -800 
Q 844 -800 956 -737 
Q 1069 -675 1141 -563 
Q 1194 -478 1313 -144 
Q 1328 -97 1363 -6 
L 103 3319 
L 709 3319 
L 1400 1397 
Q 1534 1031 1641 628 
Q 1738 1016 1872 1384 
L 2581 3319 
L 3144 3319 
L 1881 -56 
Q 1678 -603 1566 -809 
Q 1416 -1088 1222 -1217 
Q 1028 -1347 759 -1347 
Q 597 -1347 397 -1278 
z
" transform="scale(0.015625)"/>
      </defs>
      <use xlink:href="#ArialMT-59"/>
      <use xlink:href="#ArialMT-67" x="66.699219"/>
      <use xlink:href="#ArialMT-65" x="122.314453"/>
      <use xlink:href="#ArialMT-56" x="177.929688"/>
      <use xlink:href="#ArialMT-20" x="244.628906"/>
      <use xlink:href="#ArialMT-69" x="272.412109"/>
      <use xlink:href="#ArialMT-4d" x="294.628906"/>
      <use xlink:href="#ArialMT-6f" x="377.929688"/>
      <use xlink:href="#ArialMT-64" x="433.544922"/>
      <use xlink:href="#ArialMT-75" x="489.160156"/>
      <use xlink:href="#ArialMT-6c" x="544.775391"/>
      <use xlink:href="#ArialMT-6f" x="566.992188"/>
      <use xlink:href="#ArialMT-6e" x="622.607422"/>
      <use xlink:href="#ArialMT-20" x="678.222656"/>
      <use xlink:href="#ArialMT-41" x="700.505859"/>
      <use xlink:href="#ArialMT-63" x="767.205078"/>
      <use xlink:href="#ArialMT-74" x="817.205078"/>
      <use xlink:href="#ArialMT-69" x="844.988281"/>
      <use xlink:href="#ArialMT-76" x="867.205078"/>
      <use xlink:href="#ArialMT-69" x="917.205078"/>
      <use xlink:href="#ArialMT-74" x="939.421875"/>
      <use xlink:href="#ArialMT-79" x="967.205078"/>
     </g>
    </g>
   </g>
   <g id="PathCollection_1">
    <defs>
     <path id="ma3eccf64c1" d="M 0 1.581139 
C 0.419323 1.581139 0.821528 1.41454 1.118034 1.118034 
C 1.41454 0.821528 1.581139 0.419323 1.581139 0 
C 1.581139 -0.419323 1.41454 -0.821528 1.118034 -1.118034 
C 0.821528 -1.41454 0.419323 -1.581139 0 -1.581139 
C -0.419323 -1.581139 -0.821528 -1.41454 -1.118034 -1.118034 
C -1.41454 -0.821528 -1.581139 -0.419323 -1.581139 0 
C -1.581139 0.419323 -1.41454 0.821528 -1.118034 1.118034 
C -0.821528 1.41454 -0.419323 1.581139 0 1.581139 
z
" style="stroke: #000000"/>
    </defs>
    <g clip-path="url(#p9fe7425da3)">
     <use xlink:href="#ma3eccf64c1" x="58.875284" y="82.837934" style="stroke: #000000"/>
     <use xlink:href="#ma3eccf64c1" x="58.875284" y="82.22503" style="stroke: #000000"/>
     <use xlink:href="#ma3eccf64c1" x="78.199959" y="64.582465" style="stroke: #000000"/>
     <use xlink:href="#ma3eccf64c1" x="78.199959" y="61.989124" style="stroke: #000000"/>
     <use xlink:href="#ma3eccf64c1" x="114.088642" y="77.195296" style="stroke: #000000"/>
     <use xlink:href="#ma3eccf64c1" x="114.088642" y="76.713264" style="stroke: #000000"/>
     <use xlink:href="#ma3eccf64c1" x="133.413317" y="29.416" style="stroke: #000000"/>
     <use xlink:href="#ma3eccf64c1" x="133.413317" y="30.437064" style="stroke: #000000"/>
     <use xlink:href="#ma3eccf64c1" x="169.302" y="102.94489" style="stroke: #000000"/>
     <use xlink:href="#ma3eccf64c1" x="169.302" y="103.097143" style="stroke: #000000"/>
     <use xlink:href="#ma3eccf64c1" x="188.626676" y="94.842465" style="stroke: #000000"/>
     <use xlink:href="#ma3eccf64c1" x="188.626676" y="94.589021" style="stroke: #000000"/>
    </g>
   </g>
   <g id="line2d_8">
    <path d="M 212.092353 135.256 
L 212.092353 24.376 
" clip-path="url(#p9fe7425da3)" style="fill: none; stroke-dasharray: 5.55,2.4; stroke-dashoffset: 0; stroke: #7f7f7f; stroke-width: 1.5"/>
   </g>
   <g id="line2d_9">
    <path d="M 38.584375 119.224578 
L 261.784375 119.224578 
" clip-path="url(#p9fe7425da3)" style="fill: none; stroke: #000000; stroke-width: 0.5; stroke-linecap: square"/>
   </g>
   <g id="patch_11">
    <path d="M 223.135024 120.222055 
L 245.220368 120.222055 
L 245.220368 116.647196 
L 223.135024 116.647196 
L 223.135024 120.222055 
z
" clip-path="url(#p9fe7425da3)" style="fill: #7f7f7f; stroke: #000000; stroke-linejoin: miter"/>
   </g>
   <g id="line2d_10">
    <path d="M 234.177696 120.222055 
L 234.177696 125.569046 
" clip-path="url(#p9fe7425da3)" style="fill: none; stroke: #000000; stroke-linecap: square"/>
   </g>
   <g id="line2d_11">
    <path d="M 234.177696 116.647196 
L 234.177696 111.318916 
" clip-path="url(#p9fe7425da3)" style="fill: none; stroke: #000000; stroke-linecap: square"/>
   </g>
   <g id="line2d_12">
    <path d="M 228.65636 125.569046 
L 239.699032 125.569046 
" clip-path="url(#p9fe7425da3)" style="fill: none; stroke: #000000; stroke-linecap: square"/>
   </g>
   <g id="line2d_13">
    <path d="M 228.65636 111.318916 
L 239.699032 111.318916 
" clip-path="url(#p9fe7425da3)" style="fill: none; stroke: #000000; stroke-linecap: square"/>
   </g>
   <g id="line2d_14">
    <defs>
     <path id="mfe7ac098b8" d="M 0 0.5 
C 0.132602 0.5 0.25979 0.447317 0.353553 0.353553 
C 0.447317 0.25979 0.5 0.132602 0.5 0 
C 0.5 -0.132602 0.447317 -0.25979 0.353553 -0.353553 
C 0.25979 -0.447317 0.132602 -0.5 0 -0.5 
C -0.132602 -0.5 -0.25979 -0.447317 -0.353553 -0.353553 
C -0.447317 -0.25979 -0.5 -0.132602 -0.5 0 
C -0.5 0.132602 -0.447317 0.25979 -0.353553 0.353553 
C -0.25979 0.447317 -0.132602 0.5 0 0.5 
z
" style="stroke: #000000"/>
    </defs>
    <g clip-path="url(#p9fe7425da3)">
     <use xlink:href="#mfe7ac098b8" x="234.177696" y="126.587878" style="fill-opacity: 0; stroke: #000000"/>
     <use xlink:href="#mfe7ac098b8" x="234.177696" y="127.000317" style="fill-opacity: 0; stroke: #000000"/>
     <use xlink:href="#mfe7ac098b8" x="234.177696" y="127.199707" style="fill-opacity: 0; stroke: #000000"/>
     <use xlink:href="#mfe7ac098b8" x="234.177696" y="128.066171" style="fill-opacity: 0; stroke: #000000"/>
     <use xlink:href="#mfe7ac098b8" x="234.177696" y="125.970609" style="fill-opacity: 0; stroke: #000000"/>
     <use xlink:href="#mfe7ac098b8" x="234.177696" y="127.944257" style="fill-opacity: 0; stroke: #000000"/>
     <use xlink:href="#mfe7ac098b8" x="234.177696" y="128.452437" style="fill-opacity: 0; stroke: #000000"/>
     <use xlink:href="#mfe7ac098b8" x="234.177696" y="128.412522" style="fill-opacity: 0; stroke: #000000"/>
     <use xlink:href="#mfe7ac098b8" x="234.177696" y="128.891892" style="fill-opacity: 0; stroke: #000000"/>
     <use xlink:href="#mfe7ac098b8" x="234.177696" y="128.661181" style="fill-opacity: 0; stroke: #000000"/>
     <use xlink:href="#mfe7ac098b8" x="234.177696" y="128.769408" style="fill-opacity: 0; stroke: #000000"/>
     <use xlink:href="#mfe7ac098b8" x="234.177696" y="130.216" style="fill-opacity: 0; stroke: #000000"/>
     <use xlink:href="#mfe7ac098b8" x="234.177696" y="129.78616" style="fill-opacity: 0; stroke: #000000"/>
     <use xlink:href="#mfe7ac098b8" x="234.177696" y="125.771479" style="fill-opacity: 0; stroke: #000000"/>
     <use xlink:href="#mfe7ac098b8" x="234.177696" y="126.734565" style="fill-opacity: 0; stroke: #000000"/>
     <use xlink:href="#mfe7ac098b8" x="234.177696" y="125.755223" style="fill-opacity: 0; stroke: #000000"/>
     <use xlink:href="#mfe7ac098b8" x="234.177696" y="125.745417" style="fill-opacity: 0; stroke: #000000"/>
     <use xlink:href="#mfe7ac098b8" x="234.177696" y="109.414037" style="fill-opacity: 0; stroke: #000000"/>
     <use xlink:href="#mfe7ac098b8" x="234.177696" y="108.746219" style="fill-opacity: 0; stroke: #000000"/>
     <use xlink:href="#mfe7ac098b8" x="234.177696" y="108.748989" style="fill-opacity: 0; stroke: #000000"/>
     <use xlink:href="#mfe7ac098b8" x="234.177696" y="109.35368" style="fill-opacity: 0; stroke: #000000"/>
     <use xlink:href="#mfe7ac098b8" x="234.177696" y="106.528591" style="fill-opacity: 0; stroke: #000000"/>
     <use xlink:href="#mfe7ac098b8" x="234.177696" y="108.701859" style="fill-opacity: 0; stroke: #000000"/>
     <use xlink:href="#mfe7ac098b8" x="234.177696" y="110.697737" style="fill-opacity: 0; stroke: #000000"/>
     <use xlink:href="#mfe7ac098b8" x="234.177696" y="110.870604" style="fill-opacity: 0; stroke: #000000"/>
     <use xlink:href="#mfe7ac098b8" x="234.177696" y="110.48401" style="fill-opacity: 0; stroke: #000000"/>
     <use xlink:href="#mfe7ac098b8" x="234.177696" y="106.826857" style="fill-opacity: 0; stroke: #000000"/>
     <use xlink:href="#mfe7ac098b8" x="234.177696" y="107.408468" style="fill-opacity: 0; stroke: #000000"/>
     <use xlink:href="#mfe7ac098b8" x="234.177696" y="106.207669" style="fill-opacity: 0; stroke: #000000"/>
     <use xlink:href="#mfe7ac098b8" x="234.177696" y="97.214405" style="fill-opacity: 0; stroke: #000000"/>
     <use xlink:href="#mfe7ac098b8" x="234.177696" y="110.261063" style="fill-opacity: 0; stroke: #000000"/>
     <use xlink:href="#mfe7ac098b8" x="234.177696" y="109.229813" style="fill-opacity: 0; stroke: #000000"/>
     <use xlink:href="#mfe7ac098b8" x="234.177696" y="110.63981" style="fill-opacity: 0; stroke: #000000"/>
     <use xlink:href="#mfe7ac098b8" x="234.177696" y="64.582465" style="fill-opacity: 0; stroke: #000000"/>
     <use xlink:href="#mfe7ac098b8" x="234.177696" y="61.989124" style="fill-opacity: 0; stroke: #000000"/>
     <use xlink:href="#mfe7ac098b8" x="234.177696" y="82.837934" style="fill-opacity: 0; stroke: #000000"/>
     <use xlink:href="#mfe7ac098b8" x="234.177696" y="82.22503" style="fill-opacity: 0; stroke: #000000"/>
     <use xlink:href="#mfe7ac098b8" x="234.177696" y="29.416" style="fill-opacity: 0; stroke: #000000"/>
     <use xlink:href="#mfe7ac098b8" x="234.177696" y="30.437064" style="fill-opacity: 0; stroke: #000000"/>
     <use xlink:href="#mfe7ac098b8" x="234.177696" y="77.195296" style="fill-opacity: 0; stroke: #000000"/>
     <use xlink:href="#mfe7ac098b8" x="234.177696" y="76.713264" style="fill-opacity: 0; stroke: #000000"/>
     <use xlink:href="#mfe7ac098b8" x="234.177696" y="110.636851" style="fill-opacity: 0; stroke: #000000"/>
     <use xlink:href="#mfe7ac098b8" x="234.177696" y="110.222764" style="fill-opacity: 0; stroke: #000000"/>
     <use xlink:href="#mfe7ac098b8" x="234.177696" y="109.181579" style="fill-opacity: 0; stroke: #000000"/>
     <use xlink:href="#mfe7ac098b8" x="234.177696" y="110.155518" style="fill-opacity: 0; stroke: #000000"/>
     <use xlink:href="#mfe7ac098b8" x="234.177696" y="97.974816" style="fill-opacity: 0; stroke: #000000"/>
     <use xlink:href="#mfe7ac098b8" x="234.177696" y="98.084634" style="fill-opacity: 0; stroke: #000000"/>
     <use xlink:href="#mfe7ac098b8" x="234.177696" y="99.188151" style="fill-opacity: 0; stroke: #000000"/>
     <use xlink:href="#mfe7ac098b8" x="234.177696" y="99.806243" style="fill-opacity: 0; stroke: #000000"/>
     <use xlink:href="#mfe7ac098b8" x="234.177696" y="94.842465" style="fill-opacity: 0; stroke: #000000"/>
     <use xlink:href="#mfe7ac098b8" x="234.177696" y="94.589021" style="fill-opacity: 0; stroke: #000000"/>
     <use xlink:href="#mfe7ac098b8" x="234.177696" y="102.94489" style="fill-opacity: 0; stroke: #000000"/>
     <use xlink:href="#mfe7ac098b8" x="234.177696" y="103.097143" style="fill-opacity: 0; stroke: #000000"/>
     <use xlink:href="#mfe7ac098b8" x="234.177696" y="107.026641" style="fill-opacity: 0; stroke: #000000"/>
     <use xlink:href="#mfe7ac098b8" x="234.177696" y="105.794822" style="fill-opacity: 0; stroke: #000000"/>
     <use xlink:href="#mfe7ac098b8" x="234.177696" y="104.104896" style="fill-opacity: 0; stroke: #000000"/>
     <use xlink:href="#mfe7ac098b8" x="234.177696" y="107.837298" style="fill-opacity: 0; stroke: #000000"/>
     <use xlink:href="#mfe7ac098b8" x="234.177696" y="106.159939" style="fill-opacity: 0; stroke: #000000"/>
     <use xlink:href="#mfe7ac098b8" x="234.177696" y="102.695982" style="fill-opacity: 0; stroke: #000000"/>
     <use xlink:href="#mfe7ac098b8" x="234.177696" y="101.190007" style="fill-opacity: 0; stroke: #000000"/>
     <use xlink:href="#mfe7ac098b8" x="234.177696" y="111.031601" style="fill-opacity: 0; stroke: #000000"/>
     <use xlink:href="#mfe7ac098b8" x="234.177696" y="110.09242" style="fill-opacity: 0; stroke: #000000"/>
     <use xlink:href="#mfe7ac098b8" x="234.177696" y="108.481717" style="fill-opacity: 0; stroke: #000000"/>
     <use xlink:href="#mfe7ac098b8" x="234.177696" y="104.984559" style="fill-opacity: 0; stroke: #000000"/>
     <use xlink:href="#mfe7ac098b8" x="234.177696" y="101.87247" style="fill-opacity: 0; stroke: #000000"/>
     <use xlink:href="#mfe7ac098b8" x="234.177696" y="99.982085" style="fill-opacity: 0; stroke: #000000"/>
     <use xlink:href="#mfe7ac098b8" x="234.177696" y="103.212994" style="fill-opacity: 0; stroke: #000000"/>
     <use xlink:href="#mfe7ac098b8" x="234.177696" y="111.011476" style="fill-opacity: 0; stroke: #000000"/>
     <use xlink:href="#mfe7ac098b8" x="234.177696" y="111.150559" style="fill-opacity: 0; stroke: #000000"/>
     <use xlink:href="#mfe7ac098b8" x="234.177696" y="110.488806" style="fill-opacity: 0; stroke: #000000"/>
     <use xlink:href="#mfe7ac098b8" x="234.177696" y="105.007855" style="fill-opacity: 0; stroke: #000000"/>
     <use xlink:href="#mfe7ac098b8" x="234.177696" y="106.179326" style="fill-opacity: 0; stroke: #000000"/>
     <use xlink:href="#mfe7ac098b8" x="234.177696" y="105.113181" style="fill-opacity: 0; stroke: #000000"/>
     <use xlink:href="#mfe7ac098b8" x="234.177696" y="106.617218" style="fill-opacity: 0; stroke: #000000"/>
     <use xlink:href="#mfe7ac098b8" x="234.177696" y="105.597567" style="fill-opacity: 0; stroke: #000000"/>
     <use xlink:href="#mfe7ac098b8" x="234.177696" y="107.222818" style="fill-opacity: 0; stroke: #000000"/>
     <use xlink:href="#mfe7ac098b8" x="234.177696" y="108.202866" style="fill-opacity: 0; stroke: #000000"/>
     <use xlink:href="#mfe7ac098b8" x="234.177696" y="110.828961" style="fill-opacity: 0; stroke: #000000"/>
     <use xlink:href="#mfe7ac098b8" x="234.177696" y="104.293744" style="fill-opacity: 0; stroke: #000000"/>
     <use xlink:href="#mfe7ac098b8" x="234.177696" y="106.199706" style="fill-opacity: 0; stroke: #000000"/>
     <use xlink:href="#mfe7ac098b8" x="234.177696" y="107.850999" style="fill-opacity: 0; stroke: #000000"/>
     <use xlink:href="#mfe7ac098b8" x="234.177696" y="103.389973" style="fill-opacity: 0; stroke: #000000"/>
     <use xlink:href="#mfe7ac098b8" x="234.177696" y="105.141801" style="fill-opacity: 0; stroke: #000000"/>
     <use xlink:href="#mfe7ac098b8" x="234.177696" y="108.635245" style="fill-opacity: 0; stroke: #000000"/>
     <use xlink:href="#mfe7ac098b8" x="234.177696" y="105.194617" style="fill-opacity: 0; stroke: #000000"/>
    </g>
   </g>
   <g id="line2d_15">
    <path d="M 223.135024 118.634911 
L 245.220368 118.634911 
" clip-path="url(#p9fe7425da3)" style="fill: none; stroke: #000000; stroke-linecap: square"/>
   </g>
   <g id="patch_12">
    <path d="M 38.584375 135.256 
L 38.584375 24.376 
" style="fill: none; stroke: #000000; stroke-linejoin: miter; stroke-linecap: square"/>
   </g>
   <g id="patch_13">
    <path d="M 261.784375 135.256 
L 261.784375 24.376 
" style="fill: none; stroke: #000000; stroke-linejoin: miter; stroke-linecap: square"/>
   </g>
   <g id="patch_14">
    <path d="M 38.584375 135.256 
L 261.784375 135.256 
" style="fill: none; stroke: #000000; stroke-linejoin: miter; stroke-linecap: square"/>
   </g>
   <g id="patch_15">
    <path d="M 38.584375 24.376 
L 261.784375 24.376 
" style="fill: none; stroke: #000000; stroke-linejoin: miter; stroke-linecap: square"/>
   </g>
   <g id="legend_1">
    <g id="patch_16">
     <path d="M 44.285312 18.357812 
L 64.285312 18.357812 
L 64.285312 11.357812 
L 44.285312 11.357812 
z
" style="fill: #1f77b4"/>
    </g>
    <g id="text_9">
     <!-- LB -->
     <g transform="translate(66.285312 18.357812) scale(0.1 -0.1)">
      <defs>
       <path id="ArialMT-4c" d="M 469 0 
L 469 4581 
L 1075 4581 
L 1075 541 
L 3331 541 
L 3331 0 
L 469 0 
z
" transform="scale(0.015625)"/>
      </defs>
      <use xlink:href="#ArialMT-4c"/>
      <use xlink:href="#ArialMT-42" x="55.615234"/>
     </g>
    </g>
    <g id="patch_17">
     <path d="M 98.516562 18.357812 
L 118.516562 18.357812 
L 118.516562 11.357812 
L 98.516562 11.357812 
z
" style="fill: #d62728"/>
    </g>
    <g id="text_10">
     <!-- LB + 5% EtOH -->
     <g transform="translate(120.516562 18.357812) scale(0.1 -0.1)">
      <defs>
       <path id="ArialMT-2b" d="M 1603 741 
L 1603 1997 
L 356 1997 
L 356 2522 
L 1603 2522 
L 1603 3769 
L 2134 3769 
L 2134 2522 
L 3381 2522 
L 3381 1997 
L 2134 1997 
L 2134 741 
L 1603 741 
z
" transform="scale(0.015625)"/>
       <path id="ArialMT-35" d="M 266 1200 
L 856 1250 
Q 922 819 1161 601 
Q 1400 384 1738 384 
Q 2144 384 2425 690 
Q 2706 997 2706 1503 
Q 2706 1984 2436 2262 
Q 2166 2541 1728 2541 
Q 1456 2541 1237 2417 
Q 1019 2294 894 2097 
L 366 2166 
L 809 4519 
L 3088 4519 
L 3088 3981 
L 1259 3981 
L 1013 2750 
Q 1425 3038 1878 3038 
Q 2478 3038 2890 2622 
Q 3303 2206 3303 1553 
Q 3303 931 2941 478 
Q 2500 -78 1738 -78 
Q 1113 -78 717 272 
Q 322 622 266 1200 
z
" transform="scale(0.015625)"/>
       <path id="ArialMT-25" d="M 372 3481 
Q 372 3972 619 4315 
Q 866 4659 1334 4659 
Q 1766 4659 2048 4351 
Q 2331 4044 2331 3447 
Q 2331 2866 2045 2552 
Q 1759 2238 1341 2238 
Q 925 2238 648 2547 
Q 372 2856 372 3481 
z
M 1350 4272 
Q 1141 4272 1002 4090 
Q 863 3909 863 3425 
Q 863 2984 1003 2804 
Q 1144 2625 1350 2625 
Q 1563 2625 1702 2806 
Q 1841 2988 1841 3469 
Q 1841 3913 1700 4092 
Q 1559 4272 1350 4272 
z
M 1353 -169 
L 3859 4659 
L 4316 4659 
L 1819 -169 
L 1353 -169 
z
M 3334 1075 
Q 3334 1569 3581 1911 
Q 3828 2253 4300 2253 
Q 4731 2253 5014 1945 
Q 5297 1638 5297 1041 
Q 5297 459 5011 145 
Q 4725 -169 4303 -169 
Q 3888 -169 3611 142 
Q 3334 453 3334 1075 
z
M 4316 1866 
Q 4103 1866 3964 1684 
Q 3825 1503 3825 1019 
Q 3825 581 3965 400 
Q 4106 219 4313 219 
Q 4528 219 4667 400 
Q 4806 581 4806 1063 
Q 4806 1506 4665 1686 
Q 4525 1866 4316 1866 
z
" transform="scale(0.015625)"/>
       <path id="ArialMT-48" d="M 513 0 
L 513 4581 
L 1119 4581 
L 1119 2700 
L 3500 2700 
L 3500 4581 
L 4106 4581 
L 4106 0 
L 3500 0 
L 3500 2159 
L 1119 2159 
L 1119 0 
L 513 0 
z
" transform="scale(0.015625)"/>
      </defs>
      <use xlink:href="#ArialMT-4c"/>
      <use xlink:href="#ArialMT-42" x="55.615234"/>
      <use xlink:href="#ArialMT-20" x="122.314453"/>
      <use xlink:href="#ArialMT-2b" x="150.097656"/>
      <use xlink:href="#ArialMT-20" x="208.496094"/>
      <use xlink:href="#ArialMT-35" x="236.279297"/>
      <use xlink:href="#ArialMT-25" x="291.894531"/>
      <use xlink:href="#ArialMT-20" x="380.810547"/>
      <use xlink:href="#ArialMT-45" x="408.59375"/>
      <use xlink:href="#ArialMT-74" x="475.292969"/>
      <use xlink:href="#ArialMT-4f" x="503.076172"/>
      <use xlink:href="#ArialMT-48" x="580.859375"/>
     </g>
    </g>
   </g>
  </g>
 </g>
 <defs>
  <clipPath id="p9fe7425da3">
   <rect x="38.584375" y="24.376" width="223.2" height="110.88"/>
  </clipPath>
 </defs>
</svg>
