<?xml version="1.0" encoding="utf-8" standalone="no"?>
<!DOCTYPE svg PUBLIC "-//W3C//DTD SVG 1.1//EN"
  "http://www.w3.org/Graphics/SVG/1.1/DTD/svg11.dtd">
<svg xmlns:xlink="http://www.w3.org/1999/xlink" width="223.274531pt" height="209.685313pt" viewBox="0 0 223.274531 209.685313" xmlns="http://www.w3.org/2000/svg" version="1.1">
 <metadata>
  <rdf:RDF xmlns:dc="http://purl.org/dc/elements/1.1/" xmlns:cc="http://creativecommons.org/ns#" xmlns:rdf="http://www.w3.org/1999/02/22-rdf-syntax-ns#">
   <cc:Work>
    <dc:type rdf:resource="http://purl.org/dc/dcmitype/StillImage"/>
    <dc:date>2022-12-06T10:03:19.433152</dc:date>
    <dc:format>image/svg+xml</dc:format>
    <dc:creator>
     <cc:Agent>
      <dc:title>Matplotlib v3.6.2, https://matplotlib.org/</dc:title>
     </cc:Agent>
    </dc:creator>
   </cc:Work>
  </rdf:RDF>
 </metadata>
 <defs>
  <style type="text/css">*{stroke-linejoin: round; stroke-linecap: butt}</style>
 </defs>
 <g id="figure_1">
  <g id="patch_1">
   <path d="M 0 209.685313 
L 223.274531 209.685313 
L 223.274531 0 
L 0 0 
z
" style="fill: #ffffff"/>
  </g>
  <g id="axes_1">
   <g id="patch_2">
    <path d="M 43.113594 173.52 
L 210.513594 173.52 
L 210.513594 7.2 
L 43.113594 7.2 
z
" style="fill: #ffffff"/>
   </g>
   <g id="matplotlib.axis_1">
    <g id="xtick_1">
     <g id="line2d_1">
      <defs>
       <path id="md650fdd1f1" d="M 0 0 
L 0 3.5 
" style="stroke: #262626; stroke-width: 0.8"/>
      </defs>
      <g>
       <use xlink:href="#md650fdd1f1" x="43.113594" y="173.52" style="fill: #262626; stroke: #262626; stroke-width: 0.8"/>
      </g>
     </g>
     <g id="text_1">
      <!-- 0 -->
      <g style="fill: #262626" transform="translate(40.333125 187.677813) scale(0.1 -0.1)">
       <defs>
        <path id="ArialMT-30" d="M 266 2259 
Q 266 3072 433 3567 
Q 600 4063 929 4331 
Q 1259 4600 1759 4600 
Q 2128 4600 2406 4451 
Q 2684 4303 2865 4023 
Q 3047 3744 3150 3342 
Q 3253 2941 3253 2259 
Q 3253 1453 3087 958 
Q 2922 463 2592 192 
Q 2263 -78 1759 -78 
Q 1097 -78 719 397 
Q 266 969 266 2259 
z
M 844 2259 
Q 844 1131 1108 757 
Q 1372 384 1759 384 
Q 2147 384 2411 759 
Q 2675 1134 2675 2259 
Q 2675 3391 2411 3762 
Q 2147 4134 1753 4134 
Q 1366 4134 1134 3806 
Q 844 3388 844 2259 
z
" transform="scale(0.015625)"/>
       </defs>
       <use xlink:href="#ArialMT-30"/>
      </g>
     </g>
    </g>
    <g id="xtick_2">
     <g id="line2d_2">
      <g>
       <use xlink:href="#md650fdd1f1" x="67.027879" y="173.52" style="fill: #262626; stroke: #262626; stroke-width: 0.8"/>
      </g>
     </g>
     <g id="text_2">
      <!-- 2 -->
      <g style="fill: #262626" transform="translate(64.247411 187.677813) scale(0.1 -0.1)">
       <defs>
        <path id="ArialMT-32" d="M 3222 541 
L 3222 0 
L 194 0 
Q 188 203 259 391 
Q 375 700 629 1000 
Q 884 1300 1366 1694 
Q 2113 2306 2375 2664 
Q 2638 3022 2638 3341 
Q 2638 3675 2398 3904 
Q 2159 4134 1775 4134 
Q 1369 4134 1125 3890 
Q 881 3647 878 3216 
L 300 3275 
Q 359 3922 746 4261 
Q 1134 4600 1788 4600 
Q 2447 4600 2831 4234 
Q 3216 3869 3216 3328 
Q 3216 3053 3103 2787 
Q 2991 2522 2730 2228 
Q 2469 1934 1863 1422 
Q 1356 997 1212 845 
Q 1069 694 975 541 
L 3222 541 
z
" transform="scale(0.015625)"/>
       </defs>
       <use xlink:href="#ArialMT-32"/>
      </g>
     </g>
    </g>
    <g id="xtick_3">
     <g id="line2d_3">
      <g>
       <use xlink:href="#md650fdd1f1" x="90.942165" y="173.52" style="fill: #262626; stroke: #262626; stroke-width: 0.8"/>
      </g>
     </g>
     <g id="text_3">
      <!-- 4 -->
      <g style="fill: #262626" transform="translate(88.161696 187.677813) scale(0.1 -0.1)">
       <defs>
        <path id="ArialMT-34" d="M 2069 0 
L 2069 1097 
L 81 1097 
L 81 1613 
L 2172 4581 
L 2631 4581 
L 2631 1613 
L 3250 1613 
L 3250 1097 
L 2631 1097 
L 2631 0 
L 2069 0 
z
M 2069 1613 
L 2069 3678 
L 634 1613 
L 2069 1613 
z
" transform="scale(0.015625)"/>
       </defs>
       <use xlink:href="#ArialMT-34"/>
      </g>
     </g>
    </g>
    <g id="xtick_4">
     <g id="line2d_4">
      <g>
       <use xlink:href="#md650fdd1f1" x="114.856451" y="173.52" style="fill: #262626; stroke: #262626; stroke-width: 0.8"/>
      </g>
     </g>
     <g id="text_4">
      <!-- 6 -->
      <g style="fill: #262626" transform="translate(112.075982 187.677813) scale(0.1 -0.1)">
       <defs>
        <path id="ArialMT-36" d="M 3184 3459 
L 2625 3416 
Q 2550 3747 2413 3897 
Q 2184 4138 1850 4138 
Q 1581 4138 1378 3988 
Q 1113 3794 959 3422 
Q 806 3050 800 2363 
Q 1003 2672 1297 2822 
Q 1591 2972 1913 2972 
Q 2475 2972 2870 2558 
Q 3266 2144 3266 1488 
Q 3266 1056 3080 686 
Q 2894 316 2569 119 
Q 2244 -78 1831 -78 
Q 1128 -78 684 439 
Q 241 956 241 2144 
Q 241 3472 731 4075 
Q 1159 4600 1884 4600 
Q 2425 4600 2770 4297 
Q 3116 3994 3184 3459 
z
M 888 1484 
Q 888 1194 1011 928 
Q 1134 663 1356 523 
Q 1578 384 1822 384 
Q 2178 384 2434 671 
Q 2691 959 2691 1453 
Q 2691 1928 2437 2201 
Q 2184 2475 1800 2475 
Q 1419 2475 1153 2201 
Q 888 1928 888 1484 
z
" transform="scale(0.015625)"/>
       </defs>
       <use xlink:href="#ArialMT-36"/>
      </g>
     </g>
    </g>
    <g id="xtick_5">
     <g id="line2d_5">
      <g>
       <use xlink:href="#md650fdd1f1" x="138.770737" y="173.52" style="fill: #262626; stroke: #262626; stroke-width: 0.8"/>
      </g>
     </g>
     <g id="text_5">
      <!-- 8 -->
      <g style="fill: #262626" transform="translate(135.990268 187.677813) scale(0.1 -0.1)">
       <defs>
        <path id="ArialMT-38" d="M 1131 2484 
Q 781 2613 612 2850 
Q 444 3088 444 3419 
Q 444 3919 803 4259 
Q 1163 4600 1759 4600 
Q 2359 4600 2725 4251 
Q 3091 3903 3091 3403 
Q 3091 3084 2923 2848 
Q 2756 2613 2416 2484 
Q 2838 2347 3058 2040 
Q 3278 1734 3278 1309 
Q 3278 722 2862 322 
Q 2447 -78 1769 -78 
Q 1091 -78 675 323 
Q 259 725 259 1325 
Q 259 1772 486 2073 
Q 713 2375 1131 2484 
z
M 1019 3438 
Q 1019 3113 1228 2906 
Q 1438 2700 1772 2700 
Q 2097 2700 2305 2904 
Q 2513 3109 2513 3406 
Q 2513 3716 2298 3927 
Q 2084 4138 1766 4138 
Q 1444 4138 1231 3931 
Q 1019 3725 1019 3438 
z
M 838 1322 
Q 838 1081 952 856 
Q 1066 631 1291 507 
Q 1516 384 1775 384 
Q 2178 384 2440 643 
Q 2703 903 2703 1303 
Q 2703 1709 2433 1975 
Q 2163 2241 1756 2241 
Q 1359 2241 1098 1978 
Q 838 1716 838 1322 
z
" transform="scale(0.015625)"/>
       </defs>
       <use xlink:href="#ArialMT-38"/>
      </g>
     </g>
    </g>
    <g id="xtick_6">
     <g id="line2d_6">
      <g>
       <use xlink:href="#md650fdd1f1" x="162.685022" y="173.52" style="fill: #262626; stroke: #262626; stroke-width: 0.8"/>
      </g>
     </g>
     <g id="text_6">
      <!-- 10 -->
      <g style="fill: #262626" transform="translate(157.124085 187.677813) scale(0.1 -0.1)">
       <defs>
        <path id="ArialMT-31" d="M 2384 0 
L 1822 0 
L 1822 3584 
Q 1619 3391 1289 3197 
Q 959 3003 697 2906 
L 697 3450 
Q 1169 3672 1522 3987 
Q 1875 4303 2022 4600 
L 2384 4600 
L 2384 0 
z
" transform="scale(0.015625)"/>
       </defs>
       <use xlink:href="#ArialMT-31"/>
       <use xlink:href="#ArialMT-30" x="55.615234"/>
      </g>
     </g>
    </g>
    <g id="xtick_7">
     <g id="line2d_7">
      <g>
       <use xlink:href="#md650fdd1f1" x="186.599308" y="173.52" style="fill: #262626; stroke: #262626; stroke-width: 0.8"/>
      </g>
     </g>
     <g id="text_7">
      <!-- 12 -->
      <g style="fill: #262626" transform="translate(181.038371 187.677813) scale(0.1 -0.1)">
       <use xlink:href="#ArialMT-31"/>
       <use xlink:href="#ArialMT-32" x="55.615234"/>
      </g>
     </g>
    </g>
    <g id="xtick_8">
     <g id="line2d_8">
      <g>
       <use xlink:href="#md650fdd1f1" x="210.513594" y="173.52" style="fill: #262626; stroke: #262626; stroke-width: 0.8"/>
      </g>
     </g>
     <g id="text_8">
      <!-- 14 -->
      <g style="fill: #262626" transform="translate(204.952656 187.677813) scale(0.1 -0.1)">
       <use xlink:href="#ArialMT-31"/>
       <use xlink:href="#ArialMT-34" x="55.615234"/>
      </g>
     </g>
    </g>
    <g id="text_9">
     <!-- (Max - Median) $log_{2}$[TPM] -->
     <g style="fill: #262626" transform="translate(74.298594 200.505313) scale(0.09 -0.09)">
      <defs>
       <path id="ArialMT-28" d="M 1497 -1347 
Q 1031 -759 709 28 
Q 388 816 388 1659 
Q 388 2403 628 3084 
Q 909 3875 1497 4659 
L 1900 4659 
Q 1522 4009 1400 3731 
Q 1209 3300 1100 2831 
Q 966 2247 966 1656 
Q 966 153 1900 -1347 
L 1497 -1347 
z
" transform="scale(0.015625)"/>
       <path id="ArialMT-4d" d="M 475 0 
L 475 4581 
L 1388 4581 
L 2472 1338 
Q 2622 884 2691 659 
Q 2769 909 2934 1394 
L 4031 4581 
L 4847 4581 
L 4847 0 
L 4263 0 
L 4263 3834 
L 2931 0 
L 2384 0 
L 1059 3900 
L 1059 0 
L 475 0 
z
" transform="scale(0.015625)"/>
       <path id="ArialMT-61" d="M 2588 409 
Q 2275 144 1986 34 
Q 1697 -75 1366 -75 
Q 819 -75 525 192 
Q 231 459 231 875 
Q 231 1119 342 1320 
Q 453 1522 633 1644 
Q 813 1766 1038 1828 
Q 1203 1872 1538 1913 
Q 2219 1994 2541 2106 
Q 2544 2222 2544 2253 
Q 2544 2597 2384 2738 
Q 2169 2928 1744 2928 
Q 1347 2928 1158 2789 
Q 969 2650 878 2297 
L 328 2372 
Q 403 2725 575 2942 
Q 747 3159 1072 3276 
Q 1397 3394 1825 3394 
Q 2250 3394 2515 3294 
Q 2781 3194 2906 3042 
Q 3031 2891 3081 2659 
Q 3109 2516 3109 2141 
L 3109 1391 
Q 3109 606 3145 398 
Q 3181 191 3288 0 
L 2700 0 
Q 2613 175 2588 409 
z
M 2541 1666 
Q 2234 1541 1622 1453 
Q 1275 1403 1131 1340 
Q 988 1278 909 1158 
Q 831 1038 831 891 
Q 831 666 1001 516 
Q 1172 366 1500 366 
Q 1825 366 2078 508 
Q 2331 650 2450 897 
Q 2541 1088 2541 1459 
L 2541 1666 
z
" transform="scale(0.015625)"/>
       <path id="ArialMT-78" d="M 47 0 
L 1259 1725 
L 138 3319 
L 841 3319 
L 1350 2541 
Q 1494 2319 1581 2169 
Q 1719 2375 1834 2534 
L 2394 3319 
L 3066 3319 
L 1919 1756 
L 3153 0 
L 2463 0 
L 1781 1031 
L 1600 1309 
L 728 0 
L 47 0 
z
" transform="scale(0.015625)"/>
       <path id="ArialMT-20" transform="scale(0.015625)"/>
       <path id="ArialMT-2d" d="M 203 1375 
L 203 1941 
L 1931 1941 
L 1931 1375 
L 203 1375 
z
" transform="scale(0.015625)"/>
       <path id="ArialMT-65" d="M 2694 1069 
L 3275 997 
Q 3138 488 2766 206 
Q 2394 -75 1816 -75 
Q 1088 -75 661 373 
Q 234 822 234 1631 
Q 234 2469 665 2931 
Q 1097 3394 1784 3394 
Q 2450 3394 2872 2941 
Q 3294 2488 3294 1666 
Q 3294 1616 3291 1516 
L 816 1516 
Q 847 969 1125 678 
Q 1403 388 1819 388 
Q 2128 388 2347 550 
Q 2566 713 2694 1069 
z
M 847 1978 
L 2700 1978 
Q 2663 2397 2488 2606 
Q 2219 2931 1791 2931 
Q 1403 2931 1139 2672 
Q 875 2413 847 1978 
z
" transform="scale(0.015625)"/>
       <path id="ArialMT-64" d="M 2575 0 
L 2575 419 
Q 2259 -75 1647 -75 
Q 1250 -75 917 144 
Q 584 363 401 755 
Q 219 1147 219 1656 
Q 219 2153 384 2558 
Q 550 2963 881 3178 
Q 1213 3394 1622 3394 
Q 1922 3394 2156 3267 
Q 2391 3141 2538 2938 
L 2538 4581 
L 3097 4581 
L 3097 0 
L 2575 0 
z
M 797 1656 
Q 797 1019 1065 703 
Q 1334 388 1700 388 
Q 2069 388 2326 689 
Q 2584 991 2584 1609 
Q 2584 2291 2321 2609 
Q 2059 2928 1675 2928 
Q 1300 2928 1048 2622 
Q 797 2316 797 1656 
z
" transform="scale(0.015625)"/>
       <path id="ArialMT-69" d="M 425 3934 
L 425 4581 
L 988 4581 
L 988 3934 
L 425 3934 
z
M 425 0 
L 425 3319 
L 988 3319 
L 988 0 
L 425 0 
z
" transform="scale(0.015625)"/>
       <path id="ArialMT-6e" d="M 422 0 
L 422 3319 
L 928 3319 
L 928 2847 
Q 1294 3394 1984 3394 
Q 2284 3394 2536 3286 
Q 2788 3178 2913 3003 
Q 3038 2828 3088 2588 
Q 3119 2431 3119 2041 
L 3119 0 
L 2556 0 
L 2556 2019 
Q 2556 2363 2490 2533 
Q 2425 2703 2258 2804 
Q 2091 2906 1866 2906 
Q 1506 2906 1245 2678 
Q 984 2450 984 1813 
L 984 0 
L 422 0 
z
" transform="scale(0.015625)"/>
       <path id="ArialMT-29" d="M 791 -1347 
L 388 -1347 
Q 1322 153 1322 1656 
Q 1322 2244 1188 2822 
Q 1081 3291 891 3722 
Q 769 4003 388 4659 
L 791 4659 
Q 1378 3875 1659 3084 
Q 1900 2403 1900 1659 
Q 1900 816 1576 28 
Q 1253 -759 791 -1347 
z
" transform="scale(0.015625)"/>
       <path id="DejaVuSans-Oblique-6c" d="M 1172 4863 
L 1747 4863 
L 800 0 
L 225 0 
L 1172 4863 
z
" transform="scale(0.015625)"/>
       <path id="DejaVuSans-Oblique-6f" d="M 1625 -91 
Q 1009 -91 651 289 
Q 294 669 294 1325 
Q 294 1706 417 2101 
Q 541 2497 738 2766 
Q 1047 3184 1428 3384 
Q 1809 3584 2291 3584 
Q 2888 3584 3255 3212 
Q 3622 2841 3622 2241 
Q 3622 1825 3500 1412 
Q 3378 1000 3181 728 
Q 2875 309 2494 109 
Q 2113 -91 1625 -91 
z
M 891 1344 
Q 891 869 1089 633 
Q 1288 397 1691 397 
Q 2269 397 2648 901 
Q 3028 1406 3028 2181 
Q 3028 2634 2825 2865 
Q 2622 3097 2228 3097 
Q 1903 3097 1650 2945 
Q 1397 2794 1197 2484 
Q 1050 2253 970 1956 
Q 891 1659 891 1344 
z
" transform="scale(0.015625)"/>
       <path id="DejaVuSans-Oblique-67" d="M 3816 3500 
L 3219 434 
Q 3047 -456 2561 -893 
Q 2075 -1331 1253 -1331 
Q 950 -1331 690 -1286 
Q 431 -1241 206 -1147 
L 313 -588 
Q 525 -725 762 -790 
Q 1000 -856 1269 -856 
Q 1816 -856 2167 -557 
Q 2519 -259 2631 300 
L 2681 563 
Q 2441 288 2122 144 
Q 1803 0 1434 0 
Q 903 0 598 351 
Q 294 703 294 1319 
Q 294 1803 478 2267 
Q 663 2731 997 3091 
Q 1219 3328 1514 3456 
Q 1809 3584 2131 3584 
Q 2484 3584 2746 3420 
Q 3009 3256 3138 2956 
L 3238 3500 
L 3816 3500 
z
M 2950 2216 
Q 2950 2641 2750 2872 
Q 2550 3103 2181 3103 
Q 1953 3103 1747 3012 
Q 1541 2922 1394 2759 
Q 1156 2491 1023 2127 
Q 891 1763 891 1375 
Q 891 944 1092 712 
Q 1294 481 1672 481 
Q 2219 481 2584 976 
Q 2950 1472 2950 2216 
z
" transform="scale(0.015625)"/>
       <path id="DejaVuSans-32" d="M 1228 531 
L 3431 531 
L 3431 0 
L 469 0 
L 469 531 
Q 828 903 1448 1529 
Q 2069 2156 2228 2338 
Q 2531 2678 2651 2914 
Q 2772 3150 2772 3378 
Q 2772 3750 2511 3984 
Q 2250 4219 1831 4219 
Q 1534 4219 1204 4116 
Q 875 4013 500 3803 
L 500 4441 
Q 881 4594 1212 4672 
Q 1544 4750 1819 4750 
Q 2544 4750 2975 4387 
Q 3406 4025 3406 3419 
Q 3406 3131 3298 2873 
Q 3191 2616 2906 2266 
Q 2828 2175 2409 1742 
Q 1991 1309 1228 531 
z
" transform="scale(0.015625)"/>
       <path id="ArialMT-5b" d="M 434 -1272 
L 434 4581 
L 1675 4581 
L 1675 4116 
L 997 4116 
L 997 -806 
L 1675 -806 
L 1675 -1272 
L 434 -1272 
z
" transform="scale(0.015625)"/>
       <path id="ArialMT-54" d="M 1659 0 
L 1659 4041 
L 150 4041 
L 150 4581 
L 3781 4581 
L 3781 4041 
L 2266 4041 
L 2266 0 
L 1659 0 
z
" transform="scale(0.015625)"/>
       <path id="ArialMT-50" d="M 494 0 
L 494 4581 
L 2222 4581 
Q 2678 4581 2919 4538 
Q 3256 4481 3484 4323 
Q 3713 4166 3852 3881 
Q 3991 3597 3991 3256 
Q 3991 2672 3619 2267 
Q 3247 1863 2275 1863 
L 1100 1863 
L 1100 0 
L 494 0 
z
M 1100 2403 
L 2284 2403 
Q 2872 2403 3119 2622 
Q 3366 2841 3366 3238 
Q 3366 3525 3220 3729 
Q 3075 3934 2838 4000 
Q 2684 4041 2272 4041 
L 1100 4041 
L 1100 2403 
z
" transform="scale(0.015625)"/>
       <path id="ArialMT-5d" d="M 1363 -1272 
L 122 -1272 
L 122 -806 
L 800 -806 
L 800 4116 
L 122 4116 
L 122 4581 
L 1363 4581 
L 1363 -1272 
z
" transform="scale(0.015625)"/>
      </defs>
      <use xlink:href="#ArialMT-28" transform="translate(0 0.015625)"/>
      <use xlink:href="#ArialMT-4d" transform="translate(33.300781 0.015625)"/>
      <use xlink:href="#ArialMT-61" transform="translate(116.601562 0.015625)"/>
      <use xlink:href="#ArialMT-78" transform="translate(172.216797 0.015625)"/>
      <use xlink:href="#ArialMT-20" transform="translate(222.216797 0.015625)"/>
      <use xlink:href="#ArialMT-2d" transform="translate(250 0.015625)"/>
      <use xlink:href="#ArialMT-20" transform="translate(283.300781 0.015625)"/>
      <use xlink:href="#ArialMT-4d" transform="translate(311.083984 0.015625)"/>
      <use xlink:href="#ArialMT-65" transform="translate(394.384766 0.015625)"/>
      <use xlink:href="#ArialMT-64" transform="translate(450 0.015625)"/>
      <use xlink:href="#ArialMT-69" transform="translate(505.615234 0.015625)"/>
      <use xlink:href="#ArialMT-61" transform="translate(527.832031 0.015625)"/>
      <use xlink:href="#ArialMT-6e" transform="translate(583.447266 0.015625)"/>
      <use xlink:href="#ArialMT-29" transform="translate(639.0625 0.015625)"/>
      <use xlink:href="#ArialMT-20" transform="translate(672.363281 0.015625)"/>
      <use xlink:href="#DejaVuSans-Oblique-6c" transform="translate(700.146484 0.015625)"/>
      <use xlink:href="#DejaVuSans-Oblique-6f" transform="translate(727.929688 0.015625)"/>
      <use xlink:href="#DejaVuSans-Oblique-67" transform="translate(789.111328 0.015625)"/>
      <use xlink:href="#DejaVuSans-32" transform="translate(852.587891 -16.390625) scale(0.7)"/>
      <use xlink:href="#ArialMT-5b" transform="translate(899.858398 0.015625)"/>
      <use xlink:href="#ArialMT-54" transform="translate(927.641602 0.015625)"/>
      <use xlink:href="#ArialMT-50" transform="translate(988.725586 0.015625)"/>
      <use xlink:href="#ArialMT-4d" transform="translate(1055.424805 0.015625)"/>
      <use xlink:href="#ArialMT-5d" transform="translate(1138.725586 0.015625)"/>
     </g>
    </g>
   </g>
   <g id="matplotlib.axis_2">
    <g id="ytick_1">
     <g id="line2d_9">
      <defs>
       <path id="m4a5412c1ca" d="M 0 0 
L -3.5 0 
" style="stroke: #262626; stroke-width: 0.8"/>
      </defs>
      <g>
       <use xlink:href="#m4a5412c1ca" x="43.113594" y="173.52" style="fill: #262626; stroke: #262626; stroke-width: 0.8"/>
      </g>
     </g>
     <g id="text_10">
      <!-- 0 -->
      <g style="fill: #262626" transform="translate(30.552656 177.098906) scale(0.1 -0.1)">
       <use xlink:href="#ArialMT-30"/>
      </g>
     </g>
    </g>
    <g id="ytick_2">
     <g id="line2d_10">
      <g>
       <use xlink:href="#m4a5412c1ca" x="43.113594" y="134.385882" style="fill: #262626; stroke: #262626; stroke-width: 0.8"/>
      </g>
     </g>
     <g id="text_11">
      <!-- 100 -->
      <g style="fill: #262626" transform="translate(19.430781 137.964789) scale(0.1 -0.1)">
       <use xlink:href="#ArialMT-31"/>
       <use xlink:href="#ArialMT-30" x="55.615234"/>
       <use xlink:href="#ArialMT-30" x="111.230469"/>
      </g>
     </g>
    </g>
    <g id="ytick_3">
     <g id="line2d_11">
      <g>
       <use xlink:href="#m4a5412c1ca" x="43.113594" y="95.251765" style="fill: #262626; stroke: #262626; stroke-width: 0.8"/>
      </g>
     </g>
     <g id="text_12">
      <!-- 200 -->
      <g style="fill: #262626" transform="translate(19.430781 98.830671) scale(0.1 -0.1)">
       <use xlink:href="#ArialMT-32"/>
       <use xlink:href="#ArialMT-30" x="55.615234"/>
       <use xlink:href="#ArialMT-30" x="111.230469"/>
      </g>
     </g>
    </g>
    <g id="ytick_4">
     <g id="line2d_12">
      <g>
       <use xlink:href="#m4a5412c1ca" x="43.113594" y="56.117647" style="fill: #262626; stroke: #262626; stroke-width: 0.8"/>
      </g>
     </g>
     <g id="text_13">
      <!-- 300 -->
      <g style="fill: #262626" transform="translate(19.430781 59.696553) scale(0.1 -0.1)">
       <defs>
        <path id="ArialMT-33" d="M 269 1209 
L 831 1284 
Q 928 806 1161 595 
Q 1394 384 1728 384 
Q 2125 384 2398 659 
Q 2672 934 2672 1341 
Q 2672 1728 2419 1979 
Q 2166 2231 1775 2231 
Q 1616 2231 1378 2169 
L 1441 2663 
Q 1497 2656 1531 2656 
Q 1891 2656 2178 2843 
Q 2466 3031 2466 3422 
Q 2466 3731 2256 3934 
Q 2047 4138 1716 4138 
Q 1388 4138 1169 3931 
Q 950 3725 888 3313 
L 325 3413 
Q 428 3978 793 4289 
Q 1159 4600 1703 4600 
Q 2078 4600 2393 4439 
Q 2709 4278 2876 4000 
Q 3044 3722 3044 3409 
Q 3044 3113 2884 2869 
Q 2725 2625 2413 2481 
Q 2819 2388 3044 2092 
Q 3269 1797 3269 1353 
Q 3269 753 2831 336 
Q 2394 -81 1725 -81 
Q 1122 -81 723 278 
Q 325 638 269 1209 
z
" transform="scale(0.015625)"/>
       </defs>
       <use xlink:href="#ArialMT-33"/>
       <use xlink:href="#ArialMT-30" x="55.615234"/>
       <use xlink:href="#ArialMT-30" x="111.230469"/>
      </g>
     </g>
    </g>
    <g id="ytick_5">
     <g id="line2d_13">
      <g>
       <use xlink:href="#m4a5412c1ca" x="43.113594" y="16.983529" style="fill: #262626; stroke: #262626; stroke-width: 0.8"/>
      </g>
     </g>
     <g id="text_14">
      <!-- 400 -->
      <g style="fill: #262626" transform="translate(19.430781 20.562436) scale(0.1 -0.1)">
       <use xlink:href="#ArialMT-34"/>
       <use xlink:href="#ArialMT-30" x="55.615234"/>
       <use xlink:href="#ArialMT-30" x="111.230469"/>
      </g>
     </g>
    </g>
    <g id="text_15">
     <!-- # of Genes -->
     <g style="fill: #262626" transform="translate(13.642031 112.372734) rotate(-90) scale(0.09 -0.09)">
      <defs>
       <path id="ArialMT-23" d="M 322 -78 
L 594 1253 
L 66 1253 
L 66 1719 
L 688 1719 
L 919 2853 
L 66 2853 
L 66 3319 
L 1013 3319 
L 1284 4659 
L 1753 4659 
L 1481 3319 
L 2466 3319 
L 2738 4659 
L 3209 4659 
L 2938 3319 
L 3478 3319 
L 3478 2853 
L 2844 2853 
L 2609 1719 
L 3478 1719 
L 3478 1253 
L 2516 1253 
L 2244 -78 
L 1775 -78 
L 2044 1253 
L 1063 1253 
L 791 -78 
L 322 -78 
z
M 1156 1719 
L 2138 1719 
L 2372 2853 
L 1388 2853 
L 1156 1719 
z
" transform="scale(0.015625)"/>
       <path id="ArialMT-6f" d="M 213 1659 
Q 213 2581 725 3025 
Q 1153 3394 1769 3394 
Q 2453 3394 2887 2945 
Q 3322 2497 3322 1706 
Q 3322 1066 3130 698 
Q 2938 331 2570 128 
Q 2203 -75 1769 -75 
Q 1072 -75 642 372 
Q 213 819 213 1659 
z
M 791 1659 
Q 791 1022 1069 705 
Q 1347 388 1769 388 
Q 2188 388 2466 706 
Q 2744 1025 2744 1678 
Q 2744 2294 2464 2611 
Q 2184 2928 1769 2928 
Q 1347 2928 1069 2612 
Q 791 2297 791 1659 
z
" transform="scale(0.015625)"/>
       <path id="ArialMT-66" d="M 556 0 
L 556 2881 
L 59 2881 
L 59 3319 
L 556 3319 
L 556 3672 
Q 556 4006 616 4169 
Q 697 4388 901 4523 
Q 1106 4659 1475 4659 
Q 1713 4659 2000 4603 
L 1916 4113 
Q 1741 4144 1584 4144 
Q 1328 4144 1222 4034 
Q 1116 3925 1116 3625 
L 1116 3319 
L 1763 3319 
L 1763 2881 
L 1116 2881 
L 1116 0 
L 556 0 
z
" transform="scale(0.015625)"/>
       <path id="ArialMT-47" d="M 2638 1797 
L 2638 2334 
L 4578 2338 
L 4578 638 
Q 4131 281 3656 101 
Q 3181 -78 2681 -78 
Q 2006 -78 1454 211 
Q 903 500 622 1047 
Q 341 1594 341 2269 
Q 341 2938 620 3517 
Q 900 4097 1425 4378 
Q 1950 4659 2634 4659 
Q 3131 4659 3532 4498 
Q 3934 4338 4162 4050 
Q 4391 3763 4509 3300 
L 3963 3150 
Q 3859 3500 3706 3700 
Q 3553 3900 3268 4020 
Q 2984 4141 2638 4141 
Q 2222 4141 1919 4014 
Q 1616 3888 1430 3681 
Q 1244 3475 1141 3228 
Q 966 2803 966 2306 
Q 966 1694 1177 1281 
Q 1388 869 1791 669 
Q 2194 469 2647 469 
Q 3041 469 3416 620 
Q 3791 772 3984 944 
L 3984 1797 
L 2638 1797 
z
" transform="scale(0.015625)"/>
       <path id="ArialMT-73" d="M 197 991 
L 753 1078 
Q 800 744 1014 566 
Q 1228 388 1613 388 
Q 2000 388 2187 545 
Q 2375 703 2375 916 
Q 2375 1106 2209 1216 
Q 2094 1291 1634 1406 
Q 1016 1563 777 1677 
Q 538 1791 414 1992 
Q 291 2194 291 2438 
Q 291 2659 392 2848 
Q 494 3038 669 3163 
Q 800 3259 1026 3326 
Q 1253 3394 1513 3394 
Q 1903 3394 2198 3281 
Q 2494 3169 2634 2976 
Q 2775 2784 2828 2463 
L 2278 2388 
Q 2241 2644 2061 2787 
Q 1881 2931 1553 2931 
Q 1166 2931 1000 2803 
Q 834 2675 834 2503 
Q 834 2394 903 2306 
Q 972 2216 1119 2156 
Q 1203 2125 1616 2013 
Q 2213 1853 2448 1751 
Q 2684 1650 2818 1456 
Q 2953 1263 2953 975 
Q 2953 694 2789 445 
Q 2625 197 2315 61 
Q 2006 -75 1616 -75 
Q 969 -75 630 194 
Q 291 463 197 991 
z
" transform="scale(0.015625)"/>
      </defs>
      <use xlink:href="#ArialMT-23"/>
      <use xlink:href="#ArialMT-20" x="55.615234"/>
      <use xlink:href="#ArialMT-6f" x="83.398438"/>
      <use xlink:href="#ArialMT-66" x="139.013672"/>
      <use xlink:href="#ArialMT-20" x="166.796875"/>
      <use xlink:href="#ArialMT-47" x="194.580078"/>
      <use xlink:href="#ArialMT-65" x="272.363281"/>
      <use xlink:href="#ArialMT-6e" x="327.978516"/>
      <use xlink:href="#ArialMT-65" x="383.59375"/>
      <use xlink:href="#ArialMT-73" x="439.208984"/>
     </g>
    </g>
   </g>
   <g id="patch_3">
    <path d="M 53.2396 173.52 
L 56.2898 173.52 
L 56.2898 147.691482 
L 53.2396 147.691482 
z
" clip-path="url(#p9876d43b0b)" style="fill: #1f77b4; fill-opacity: 0.75; stroke: #ffffff; stroke-width: 0.304364; stroke-linejoin: miter"/>
   </g>
   <g id="patch_4">
    <path d="M 56.2898 173.52 
L 59.339999 173.52 
L 59.339999 101.121882 
L 56.2898 101.121882 
z
" clip-path="url(#p9876d43b0b)" style="fill: #1f77b4; fill-opacity: 0.75; stroke: #ffffff; stroke-width: 0.304364; stroke-linejoin: miter"/>
   </g>
   <g id="patch_5">
    <path d="M 59.339999 173.52 
L 62.390199 173.52 
L 62.390199 53.378259 
L 59.339999 53.378259 
z
" clip-path="url(#p9876d43b0b)" style="fill: #1f77b4; fill-opacity: 0.75; stroke: #ffffff; stroke-width: 0.304364; stroke-linejoin: miter"/>
   </g>
   <g id="patch_6">
    <path d="M 62.390199 173.52 
L 65.440398 173.52 
L 65.440398 26.375718 
L 62.390199 26.375718 
z
" clip-path="url(#p9876d43b0b)" style="fill: #1f77b4; fill-opacity: 0.75; stroke: #ffffff; stroke-width: 0.304364; stroke-linejoin: miter"/>
   </g>
   <g id="patch_7">
    <path d="M 65.440398 173.52 
L 68.490598 173.52 
L 68.490598 38.115953 
L 65.440398 38.115953 
z
" clip-path="url(#p9876d43b0b)" style="fill: #1f77b4; fill-opacity: 0.75; stroke: #ffffff; stroke-width: 0.304364; stroke-linejoin: miter"/>
   </g>
   <g id="patch_8">
    <path d="M 68.490598 173.52 
L 71.540797 173.52 
L 71.540797 34.593882 
L 68.490598 34.593882 
z
" clip-path="url(#p9876d43b0b)" style="fill: #1f77b4; fill-opacity: 0.75; stroke: #ffffff; stroke-width: 0.304364; stroke-linejoin: miter"/>
   </g>
   <g id="patch_9">
    <path d="M 71.540797 173.52 
L 74.590997 173.52 
L 74.590997 51.030212 
L 71.540797 51.030212 
z
" clip-path="url(#p9876d43b0b)" style="fill: #1f77b4; fill-opacity: 0.75; stroke: #ffffff; stroke-width: 0.304364; stroke-linejoin: miter"/>
   </g>
   <g id="patch_10">
    <path d="M 74.590997 173.52 
L 77.641196 173.52 
L 77.641196 69.814588 
L 74.590997 69.814588 
z
" clip-path="url(#p9876d43b0b)" style="fill: #1f77b4; fill-opacity: 0.75; stroke: #ffffff; stroke-width: 0.304364; stroke-linejoin: miter"/>
   </g>
   <g id="patch_11">
    <path d="M 77.641196 173.52 
L 80.691395 173.52 
L 80.691395 94.077741 
L 77.641196 94.077741 
z
" clip-path="url(#p9876d43b0b)" style="fill: #1f77b4; fill-opacity: 0.75; stroke: #ffffff; stroke-width: 0.304364; stroke-linejoin: miter"/>
   </g>
   <g id="patch_12">
    <path d="M 80.691395 173.52 
L 83.741595 173.52 
L 83.741595 93.295059 
L 80.691395 93.295059 
z
" clip-path="url(#p9876d43b0b)" style="fill: #1f77b4; fill-opacity: 0.75; stroke: #ffffff; stroke-width: 0.304364; stroke-linejoin: miter"/>
   </g>
   <g id="patch_13">
    <path d="M 83.741595 173.52 
L 86.791794 173.52 
L 86.791794 105.035294 
L 83.741595 105.035294 
z
" clip-path="url(#p9876d43b0b)" style="fill: #1f77b4; fill-opacity: 0.75; stroke: #ffffff; stroke-width: 0.304364; stroke-linejoin: miter"/>
   </g>
   <g id="patch_14">
    <path d="M 86.791794 173.52 
L 89.841994 173.52 
L 89.841994 105.426635 
L 86.791794 105.426635 
z
" clip-path="url(#p9876d43b0b)" style="fill: #1f77b4; fill-opacity: 0.75; stroke: #ffffff; stroke-width: 0.304364; stroke-linejoin: miter"/>
   </g>
   <g id="patch_15">
    <path d="M 89.841994 173.52 
L 92.892193 173.52 
L 92.892193 123.819671 
L 89.841994 123.819671 
z
" clip-path="url(#p9876d43b0b)" style="fill: #1f77b4; fill-opacity: 0.75; stroke: #ffffff; stroke-width: 0.304364; stroke-linejoin: miter"/>
   </g>
   <g id="patch_16">
    <path d="M 92.892193 173.52 
L 95.942393 173.52 
L 95.942393 124.211012 
L 92.892193 124.211012 
z
" clip-path="url(#p9876d43b0b)" style="fill: #1f77b4; fill-opacity: 0.75; stroke: #ffffff; stroke-width: 0.304364; stroke-linejoin: miter"/>
   </g>
   <g id="patch_17">
    <path d="M 95.942393 173.52 
L 98.992592 173.52 
L 98.992592 128.515765 
L 95.942393 128.515765 
z
" clip-path="url(#p9876d43b0b)" style="fill: #1f77b4; fill-opacity: 0.75; stroke: #ffffff; stroke-width: 0.304364; stroke-linejoin: miter"/>
   </g>
   <g id="patch_18">
    <path d="M 98.992592 173.52 
L 102.042792 173.52 
L 102.042792 137.907953 
L 98.992592 137.907953 
z
" clip-path="url(#p9876d43b0b)" style="fill: #1f77b4; fill-opacity: 0.75; stroke: #ffffff; stroke-width: 0.304364; stroke-linejoin: miter"/>
   </g>
   <g id="patch_19">
    <path d="M 102.042792 173.52 
L 105.092991 173.52 
L 105.092991 138.690635 
L 102.042792 138.690635 
z
" clip-path="url(#p9876d43b0b)" style="fill: #1f77b4; fill-opacity: 0.75; stroke: #ffffff; stroke-width: 0.304364; stroke-linejoin: miter"/>
   </g>
   <g id="patch_20">
    <path d="M 105.092991 173.52 
L 108.14319 173.52 
L 108.14319 142.995388 
L 105.092991 142.995388 
z
" clip-path="url(#p9876d43b0b)" style="fill: #1f77b4; fill-opacity: 0.75; stroke: #ffffff; stroke-width: 0.304364; stroke-linejoin: miter"/>
   </g>
   <g id="patch_21">
    <path d="M 108.14319 173.52 
L 111.19339 173.52 
L 111.19339 142.995388 
L 108.14319 142.995388 
z
" clip-path="url(#p9876d43b0b)" style="fill: #1f77b4; fill-opacity: 0.75; stroke: #ffffff; stroke-width: 0.304364; stroke-linejoin: miter"/>
   </g>
   <g id="patch_22">
    <path d="M 111.19339 173.52 
L 114.243589 173.52 
L 114.243589 151.996235 
L 111.19339 151.996235 
z
" clip-path="url(#p9876d43b0b)" style="fill: #1f77b4; fill-opacity: 0.75; stroke: #ffffff; stroke-width: 0.304364; stroke-linejoin: miter"/>
   </g>
   <g id="patch_23">
    <path d="M 114.243589 173.52 
L 117.293789 173.52 
L 117.293789 150.039529 
L 114.243589 150.039529 
z
" clip-path="url(#p9876d43b0b)" style="fill: #1f77b4; fill-opacity: 0.75; stroke: #ffffff; stroke-width: 0.304364; stroke-linejoin: miter"/>
   </g>
   <g id="patch_24">
    <path d="M 117.293789 173.52 
L 120.343988 173.52 
L 120.343988 151.213553 
L 117.293789 151.213553 
z
" clip-path="url(#p9876d43b0b)" style="fill: #1f77b4; fill-opacity: 0.75; stroke: #ffffff; stroke-width: 0.304364; stroke-linejoin: miter"/>
   </g>
   <g id="patch_25">
    <path d="M 120.343988 173.52 
L 123.394188 173.52 
L 123.394188 155.518306 
L 120.343988 155.518306 
z
" clip-path="url(#p9876d43b0b)" style="fill: #1f77b4; fill-opacity: 0.75; stroke: #ffffff; stroke-width: 0.304364; stroke-linejoin: miter"/>
   </g>
   <g id="patch_26">
    <path d="M 123.394188 173.52 
L 126.444387 173.52 
L 126.444387 153.952941 
L 123.394188 153.952941 
z
" clip-path="url(#p9876d43b0b)" style="fill: #1f77b4; fill-opacity: 0.75; stroke: #ffffff; stroke-width: 0.304364; stroke-linejoin: miter"/>
   </g>
   <g id="patch_27">
    <path d="M 126.444387 173.52 
L 129.494587 173.52 
L 129.494587 160.997082 
L 126.444387 160.997082 
z
" clip-path="url(#p9876d43b0b)" style="fill: #1f77b4; fill-opacity: 0.75; stroke: #ffffff; stroke-width: 0.304364; stroke-linejoin: miter"/>
   </g>
   <g id="patch_28">
    <path d="M 129.494587 173.52 
L 132.544786 173.52 
L 132.544786 160.605741 
L 129.494587 160.605741 
z
" clip-path="url(#p9876d43b0b)" style="fill: #1f77b4; fill-opacity: 0.75; stroke: #ffffff; stroke-width: 0.304364; stroke-linejoin: miter"/>
   </g>
   <g id="patch_29">
    <path d="M 132.544786 173.52 
L 135.594986 173.52 
L 135.594986 160.2144 
L 132.544786 160.2144 
z
" clip-path="url(#p9876d43b0b)" style="fill: #1f77b4; fill-opacity: 0.75; stroke: #ffffff; stroke-width: 0.304364; stroke-linejoin: miter"/>
   </g>
   <g id="patch_30">
    <path d="M 135.594986 173.52 
L 138.645185 173.52 
L 138.645185 162.953788 
L 135.594986 162.953788 
z
" clip-path="url(#p9876d43b0b)" style="fill: #1f77b4; fill-opacity: 0.75; stroke: #ffffff; stroke-width: 0.304364; stroke-linejoin: miter"/>
   </g>
   <g id="patch_31">
    <path d="M 138.645185 173.52 
L 141.695384 173.52 
L 141.695384 166.475859 
L 138.645185 166.475859 
z
" clip-path="url(#p9876d43b0b)" style="fill: #1f77b4; fill-opacity: 0.75; stroke: #ffffff; stroke-width: 0.304364; stroke-linejoin: miter"/>
   </g>
   <g id="patch_32">
    <path d="M 141.695384 173.52 
L 144.745584 173.52 
L 144.745584 162.953788 
L 141.695384 162.953788 
z
" clip-path="url(#p9876d43b0b)" style="fill: #1f77b4; fill-opacity: 0.75; stroke: #ffffff; stroke-width: 0.304364; stroke-linejoin: miter"/>
   </g>
   <g id="patch_33">
    <path d="M 144.745584 173.52 
L 147.795783 173.52 
L 147.795783 165.301835 
L 144.745584 165.301835 
z
" clip-path="url(#p9876d43b0b)" style="fill: #1f77b4; fill-opacity: 0.75; stroke: #ffffff; stroke-width: 0.304364; stroke-linejoin: miter"/>
   </g>
   <g id="patch_34">
    <path d="M 147.795783 173.52 
L 150.845983 173.52 
L 150.845983 166.8672 
L 147.795783 166.8672 
z
" clip-path="url(#p9876d43b0b)" style="fill: #1f77b4; fill-opacity: 0.75; stroke: #ffffff; stroke-width: 0.304364; stroke-linejoin: miter"/>
   </g>
   <g id="patch_35">
    <path d="M 150.845983 173.52 
L 153.896182 173.52 
L 153.896182 166.8672 
L 150.845983 166.8672 
z
" clip-path="url(#p9876d43b0b)" style="fill: #1f77b4; fill-opacity: 0.75; stroke: #ffffff; stroke-width: 0.304364; stroke-linejoin: miter"/>
   </g>
   <g id="patch_36">
    <path d="M 153.896182 173.52 
L 156.946382 173.52 
L 156.946382 168.823906 
L 153.896182 168.823906 
z
" clip-path="url(#p9876d43b0b)" style="fill: #1f77b4; fill-opacity: 0.75; stroke: #ffffff; stroke-width: 0.304364; stroke-linejoin: miter"/>
   </g>
   <g id="patch_37">
    <path d="M 156.946382 173.52 
L 159.996581 173.52 
L 159.996581 169.215247 
L 156.946382 169.215247 
z
" clip-path="url(#p9876d43b0b)" style="fill: #1f77b4; fill-opacity: 0.75; stroke: #ffffff; stroke-width: 0.304364; stroke-linejoin: miter"/>
   </g>
   <g id="patch_38">
    <path d="M 159.996581 173.52 
L 163.046781 173.52 
L 163.046781 170.780612 
L 159.996581 170.780612 
z
" clip-path="url(#p9876d43b0b)" style="fill: #1f77b4; fill-opacity: 0.75; stroke: #ffffff; stroke-width: 0.304364; stroke-linejoin: miter"/>
   </g>
   <g id="patch_39">
    <path d="M 163.046781 173.52 
L 166.09698 173.52 
L 166.09698 168.432565 
L 163.046781 168.432565 
z
" clip-path="url(#p9876d43b0b)" style="fill: #1f77b4; fill-opacity: 0.75; stroke: #ffffff; stroke-width: 0.304364; stroke-linejoin: miter"/>
   </g>
   <g id="patch_40">
    <path d="M 166.09698 173.52 
L 169.14718 173.52 
L 169.14718 170.780612 
L 166.09698 170.780612 
z
" clip-path="url(#p9876d43b0b)" style="fill: #1f77b4; fill-opacity: 0.75; stroke: #ffffff; stroke-width: 0.304364; stroke-linejoin: miter"/>
   </g>
   <g id="patch_41">
    <path d="M 169.14718 173.52 
L 172.197379 173.52 
L 172.197379 168.823906 
L 169.14718 168.823906 
z
" clip-path="url(#p9876d43b0b)" style="fill: #1f77b4; fill-opacity: 0.75; stroke: #ffffff; stroke-width: 0.304364; stroke-linejoin: miter"/>
   </g>
   <g id="patch_42">
    <path d="M 172.197379 173.52 
L 175.247578 173.52 
L 175.247578 170.389271 
L 172.197379 170.389271 
z
" clip-path="url(#p9876d43b0b)" style="fill: #1f77b4; fill-opacity: 0.75; stroke: #ffffff; stroke-width: 0.304364; stroke-linejoin: miter"/>
   </g>
   <g id="patch_43">
    <path d="M 175.247578 173.52 
L 178.297778 173.52 
L 178.297778 170.780612 
L 175.247578 170.780612 
z
" clip-path="url(#p9876d43b0b)" style="fill: #1f77b4; fill-opacity: 0.75; stroke: #ffffff; stroke-width: 0.304364; stroke-linejoin: miter"/>
   </g>
   <g id="patch_44">
    <path d="M 178.297778 173.52 
L 181.347977 173.52 
L 181.347977 171.954635 
L 178.297778 171.954635 
z
" clip-path="url(#p9876d43b0b)" style="fill: #1f77b4; fill-opacity: 0.75; stroke: #ffffff; stroke-width: 0.304364; stroke-linejoin: miter"/>
   </g>
   <g id="patch_45">
    <path d="M 181.347977 173.52 
L 184.398177 173.52 
L 184.398177 173.128659 
L 181.347977 173.128659 
z
" clip-path="url(#p9876d43b0b)" style="fill: #1f77b4; fill-opacity: 0.75; stroke: #ffffff; stroke-width: 0.304364; stroke-linejoin: miter"/>
   </g>
   <g id="patch_46">
    <path d="M 184.398177 173.52 
L 187.448376 173.52 
L 187.448376 172.737318 
L 184.398177 172.737318 
z
" clip-path="url(#p9876d43b0b)" style="fill: #1f77b4; fill-opacity: 0.75; stroke: #ffffff; stroke-width: 0.304364; stroke-linejoin: miter"/>
   </g>
   <g id="patch_47">
    <path d="M 187.448376 173.52 
L 190.498576 173.52 
L 190.498576 172.737318 
L 187.448376 172.737318 
z
" clip-path="url(#p9876d43b0b)" style="fill: #1f77b4; fill-opacity: 0.75; stroke: #ffffff; stroke-width: 0.304364; stroke-linejoin: miter"/>
   </g>
   <g id="patch_48">
    <path d="M 190.498576 173.52 
L 193.548775 173.52 
L 193.548775 173.52 
L 190.498576 173.52 
z
" clip-path="url(#p9876d43b0b)" style="fill: #1f77b4; fill-opacity: 0.75; stroke: #ffffff; stroke-width: 0.304364; stroke-linejoin: miter"/>
   </g>
   <g id="patch_49">
    <path d="M 193.548775 173.52 
L 196.598975 173.52 
L 196.598975 173.52 
L 193.548775 173.52 
z
" clip-path="url(#p9876d43b0b)" style="fill: #1f77b4; fill-opacity: 0.75; stroke: #ffffff; stroke-width: 0.304364; stroke-linejoin: miter"/>
   </g>
   <g id="patch_50">
    <path d="M 196.598975 173.52 
L 199.649174 173.52 
L 199.649174 173.128659 
L 196.598975 173.128659 
z
" clip-path="url(#p9876d43b0b)" style="fill: #1f77b4; fill-opacity: 0.75; stroke: #ffffff; stroke-width: 0.304364; stroke-linejoin: miter"/>
   </g>
   <g id="patch_51">
    <path d="M 199.649174 173.52 
L 202.699373 173.52 
L 202.699373 173.128659 
L 199.649174 173.128659 
z
" clip-path="url(#p9876d43b0b)" style="fill: #1f77b4; fill-opacity: 0.75; stroke: #ffffff; stroke-width: 0.304364; stroke-linejoin: miter"/>
   </g>
   <g id="patch_52">
    <path d="M 202.699373 173.52 
L 205.749573 173.52 
L 205.749573 173.128659 
L 202.699373 173.128659 
z
" clip-path="url(#p9876d43b0b)" style="fill: #1f77b4; fill-opacity: 0.75; stroke: #ffffff; stroke-width: 0.304364; stroke-linejoin: miter"/>
   </g>
   <g id="line2d_14">
    <path d="M 78.985022 173.52 
L 78.985022 7.2 
" clip-path="url(#p9876d43b0b)" style="fill: none; stroke: #d62728; stroke-width: 0.5; stroke-linecap: round"/>
   </g>
   <g id="line2d_15">
    <path d="M 114.856451 173.52 
L 114.856451 7.2 
" clip-path="url(#p9876d43b0b)" style="fill: none; stroke: #d62728; stroke-width: 0.5; stroke-linecap: round"/>
   </g>
   <g id="patch_53">
    <path d="M 43.113594 173.52 
L 43.113594 7.2 
" style="fill: none; stroke: #000000; stroke-width: 1.2; stroke-linejoin: miter; stroke-linecap: square"/>
   </g>
   <g id="patch_54">
    <path d="M 210.513594 173.52 
L 210.513594 7.2 
" style="fill: none; stroke: #000000; stroke-width: 1.2; stroke-linejoin: miter; stroke-linecap: square"/>
   </g>
   <g id="patch_55">
    <path d="M 43.113594 173.52 
L 210.513594 173.52 
" style="fill: none; stroke: #000000; stroke-width: 1.2; stroke-linejoin: miter; stroke-linecap: square"/>
   </g>
   <g id="patch_56">
    <path d="M 43.113594 7.2 
L 210.513594 7.2 
" style="fill: none; stroke: #000000; stroke-width: 1.2; stroke-linejoin: miter; stroke-linecap: square"/>
   </g>
   <g id="text_16">
    <!-- Low -->
    <g style="fill: #262626" transform="translate(53.711808 14.715529) scale(0.08 -0.08)">
     <defs>
      <path id="ArialMT-4c" d="M 469 0 
L 469 4581 
L 1075 4581 
L 1075 541 
L 3331 541 
L 3331 0 
L 469 0 
z
" transform="scale(0.015625)"/>
      <path id="ArialMT-77" d="M 1034 0 
L 19 3319 
L 600 3319 
L 1128 1403 
L 1325 691 
Q 1338 744 1497 1375 
L 2025 3319 
L 2603 3319 
L 3100 1394 
L 3266 759 
L 3456 1400 
L 4025 3319 
L 4572 3319 
L 3534 0 
L 2950 0 
L 2422 1988 
L 2294 2553 
L 1622 0 
L 1034 0 
z
" transform="scale(0.015625)"/>
     </defs>
     <use xlink:href="#ArialMT-4c"/>
     <use xlink:href="#ArialMT-6f" x="55.615234"/>
     <use xlink:href="#ArialMT-77" x="111.230469"/>
    </g>
    <!-- (n=2312) -->
    <g style="fill: #262626" transform="translate(44.927433 23.294029) scale(0.08 -0.08)">
     <defs>
      <path id="ArialMT-3d" d="M 3381 2694 
L 356 2694 
L 356 3219 
L 3381 3219 
L 3381 2694 
z
M 3381 1303 
L 356 1303 
L 356 1828 
L 3381 1828 
L 3381 1303 
z
" transform="scale(0.015625)"/>
     </defs>
     <use xlink:href="#ArialMT-28"/>
     <use xlink:href="#ArialMT-6e" x="33.300781"/>
     <use xlink:href="#ArialMT-3d" x="88.916016"/>
     <use xlink:href="#ArialMT-32" x="147.314453"/>
     <use xlink:href="#ArialMT-33" x="202.929688"/>
     <use xlink:href="#ArialMT-31" x="258.544922"/>
     <use xlink:href="#ArialMT-32" x="314.160156"/>
     <use xlink:href="#ArialMT-29" x="369.775391"/>
    </g>
   </g>
   <g id="text_17">
    <!-- Medium -->
    <g style="fill: #262626" transform="translate(82.695112 14.715529) scale(0.08 -0.08)">
     <defs>
      <path id="ArialMT-75" d="M 2597 0 
L 2597 488 
Q 2209 -75 1544 -75 
Q 1250 -75 995 37 
Q 741 150 617 320 
Q 494 491 444 738 
Q 409 903 409 1263 
L 409 3319 
L 972 3319 
L 972 1478 
Q 972 1038 1006 884 
Q 1059 663 1231 536 
Q 1403 409 1656 409 
Q 1909 409 2131 539 
Q 2353 669 2445 892 
Q 2538 1116 2538 1541 
L 2538 3319 
L 3100 3319 
L 3100 0 
L 2597 0 
z
" transform="scale(0.015625)"/>
      <path id="ArialMT-6d" d="M 422 0 
L 422 3319 
L 925 3319 
L 925 2853 
Q 1081 3097 1340 3245 
Q 1600 3394 1931 3394 
Q 2300 3394 2536 3241 
Q 2772 3088 2869 2813 
Q 3263 3394 3894 3394 
Q 4388 3394 4653 3120 
Q 4919 2847 4919 2278 
L 4919 0 
L 4359 0 
L 4359 2091 
Q 4359 2428 4304 2576 
Q 4250 2725 4106 2815 
Q 3963 2906 3769 2906 
Q 3419 2906 3187 2673 
Q 2956 2441 2956 1928 
L 2956 0 
L 2394 0 
L 2394 2156 
Q 2394 2531 2256 2718 
Q 2119 2906 1806 2906 
Q 1569 2906 1367 2781 
Q 1166 2656 1075 2415 
Q 984 2175 984 1722 
L 984 0 
L 422 0 
z
" transform="scale(0.015625)"/>
     </defs>
     <use xlink:href="#ArialMT-4d"/>
     <use xlink:href="#ArialMT-65" x="83.300781"/>
     <use xlink:href="#ArialMT-64" x="138.916016"/>
     <use xlink:href="#ArialMT-69" x="194.53125"/>
     <use xlink:href="#ArialMT-75" x="216.748047"/>
     <use xlink:href="#ArialMT-6d" x="272.363281"/>
    </g>
    <!-- (n=1428) -->
    <g style="fill: #262626" transform="translate(80.798862 23.294029) scale(0.08 -0.08)">
     <use xlink:href="#ArialMT-28"/>
     <use xlink:href="#ArialMT-6e" x="33.300781"/>
     <use xlink:href="#ArialMT-3d" x="88.916016"/>
     <use xlink:href="#ArialMT-31" x="147.314453"/>
     <use xlink:href="#ArialMT-34" x="202.929688"/>
     <use xlink:href="#ArialMT-32" x="258.544922"/>
     <use xlink:href="#ArialMT-38" x="314.160156"/>
     <use xlink:href="#ArialMT-29" x="369.775391"/>
    </g>
   </g>
   <g id="text_18">
    <!-- High -->
    <g style="fill: #262626" transform="translate(154.458772 14.668654) scale(0.08 -0.08)">
     <defs>
      <path id="ArialMT-48" d="M 513 0 
L 513 4581 
L 1119 4581 
L 1119 2700 
L 3500 2700 
L 3500 4581 
L 4106 4581 
L 4106 0 
L 3500 0 
L 3500 2159 
L 1119 2159 
L 1119 0 
L 513 0 
z
" transform="scale(0.015625)"/>
      <path id="ArialMT-67" d="M 319 -275 
L 866 -356 
Q 900 -609 1056 -725 
Q 1266 -881 1628 -881 
Q 2019 -881 2231 -725 
Q 2444 -569 2519 -288 
Q 2563 -116 2559 434 
Q 2191 0 1641 0 
Q 956 0 581 494 
Q 206 988 206 1678 
Q 206 2153 378 2554 
Q 550 2956 876 3175 
Q 1203 3394 1644 3394 
Q 2231 3394 2613 2919 
L 2613 3319 
L 3131 3319 
L 3131 450 
Q 3131 -325 2973 -648 
Q 2816 -972 2473 -1159 
Q 2131 -1347 1631 -1347 
Q 1038 -1347 672 -1080 
Q 306 -813 319 -275 
z
M 784 1719 
Q 784 1066 1043 766 
Q 1303 466 1694 466 
Q 2081 466 2343 764 
Q 2606 1063 2606 1700 
Q 2606 2309 2336 2618 
Q 2066 2928 1684 2928 
Q 1309 2928 1046 2623 
Q 784 2319 784 1719 
z
" transform="scale(0.015625)"/>
      <path id="ArialMT-68" d="M 422 0 
L 422 4581 
L 984 4581 
L 984 2938 
Q 1378 3394 1978 3394 
Q 2347 3394 2619 3248 
Q 2891 3103 3008 2847 
Q 3125 2591 3125 2103 
L 3125 0 
L 2563 0 
L 2563 2103 
Q 2563 2525 2380 2717 
Q 2197 2909 1863 2909 
Q 1613 2909 1392 2779 
Q 1172 2650 1078 2428 
Q 984 2206 984 1816 
L 984 0 
L 422 0 
z
" transform="scale(0.015625)"/>
     </defs>
     <use xlink:href="#ArialMT-48"/>
     <use xlink:href="#ArialMT-69" x="72.216797"/>
     <use xlink:href="#ArialMT-67" x="94.433594"/>
     <use xlink:href="#ArialMT-68" x="150.048828"/>
    </g>
    <!-- (n=517) -->
    <g style="fill: #262626" transform="translate(148.787522 23.340904) scale(0.08 -0.08)">
     <defs>
      <path id="ArialMT-35" d="M 266 1200 
L 856 1250 
Q 922 819 1161 601 
Q 1400 384 1738 384 
Q 2144 384 2425 690 
Q 2706 997 2706 1503 
Q 2706 1984 2436 2262 
Q 2166 2541 1728 2541 
Q 1456 2541 1237 2417 
Q 1019 2294 894 2097 
L 366 2166 
L 809 4519 
L 3088 4519 
L 3088 3981 
L 1259 3981 
L 1013 2750 
Q 1425 3038 1878 3038 
Q 2478 3038 2890 2622 
Q 3303 2206 3303 1553 
Q 3303 931 2941 478 
Q 2500 -78 1738 -78 
Q 1113 -78 717 272 
Q 322 622 266 1200 
z
" transform="scale(0.015625)"/>
      <path id="ArialMT-37" d="M 303 3981 
L 303 4522 
L 3269 4522 
L 3269 4084 
Q 2831 3619 2401 2847 
Q 1972 2075 1738 1259 
Q 1569 684 1522 0 
L 944 0 
Q 953 541 1156 1306 
Q 1359 2072 1739 2783 
Q 2119 3494 2547 3981 
L 303 3981 
z
" transform="scale(0.015625)"/>
     </defs>
     <use xlink:href="#ArialMT-28"/>
     <use xlink:href="#ArialMT-6e" x="33.300781"/>
     <use xlink:href="#ArialMT-3d" x="88.916016"/>
     <use xlink:href="#ArialMT-35" x="147.314453"/>
     <use xlink:href="#ArialMT-31" x="202.929688"/>
     <use xlink:href="#ArialMT-37" x="258.544922"/>
     <use xlink:href="#ArialMT-29" x="314.160156"/>
    </g>
   </g>
  </g>
 </g>
 <defs>
  <clipPath id="p9876d43b0b">
   <rect x="43.113594" y="7.2" width="167.4" height="166.32"/>
  </clipPath>
 </defs>
</svg>
