<?xml version="1.0" encoding="utf-8" standalone="no"?>
<!DOCTYPE svg PUBLIC "-//W3C//DTD SVG 1.1//EN"
  "http://www.w3.org/Graphics/SVG/1.1/DTD/svg11.dtd">
<svg xmlns:xlink="http://www.w3.org/1999/xlink" width="223.274531pt" height="209.595313pt" viewBox="0 0 223.274531 209.595313" xmlns="http://www.w3.org/2000/svg" version="1.1">
 <metadata>
  <rdf:RDF xmlns:dc="http://purl.org/dc/elements/1.1/" xmlns:cc="http://creativecommons.org/ns#" xmlns:rdf="http://www.w3.org/1999/02/22-rdf-syntax-ns#">
   <cc:Work>
    <dc:type rdf:resource="http://purl.org/dc/dcmitype/StillImage"/>
    <dc:date>2023-04-17T17:14:31.637355</dc:date>
    <dc:format>image/svg+xml</dc:format>
    <dc:creator>
     <cc:Agent>
      <dc:title>Matplotlib v3.6.2, https://matplotlib.org/</dc:title>
     </cc:Agent>
    </dc:creator>
   </cc:Work>
  </rdf:RDF>
 </metadata>
 <defs>
  <style type="text/css">*{stroke-linejoin: round; stroke-linecap: butt}</style>
 </defs>
 <g id="figure_1">
  <g id="patch_1">
   <path d="M 0 209.595313 
L 223.274531 209.595313 
L 223.274531 0 
L 0 0 
z
" style="fill: #ffffff"/>
  </g>
  <g id="axes_1">
   <g id="patch_2">
    <path d="M 43.113594 173.52 
L 210.513594 173.52 
L 210.513594 7.2 
L 43.113594 7.2 
z
" style="fill: #ffffff"/>
   </g>
   <g id="matplotlib.axis_1">
    <g id="xtick_1">
     <g id="line2d_1">
      <defs>
       <path id="m57f2cc02f4" d="M 0 0 
L 0 3.5 
" style="stroke: #262626; stroke-width: 0.8"/>
      </defs>
      <g>
       <use xlink:href="#m57f2cc02f4" x="43.113594" y="173.52" style="fill: #262626; stroke: #262626; stroke-width: 0.8"/>
      </g>
     </g>
     <g id="text_1">
      <!-- 0 -->
      <g style="fill: #262626" transform="translate(40.333125 187.677813) scale(0.1 -0.1)">
       <defs>
        <path id="ArialMT-30" d="M 266 2259 
Q 266 3072 433 3567 
Q 600 4063 929 4331 
Q 1259 4600 1759 4600 
Q 2128 4600 2406 4451 
Q 2684 4303 2865 4023 
Q 3047 3744 3150 3342 
Q 3253 2941 3253 2259 
Q 3253 1453 3087 958 
Q 2922 463 2592 192 
Q 2263 -78 1759 -78 
Q 1097 -78 719 397 
Q 266 969 266 2259 
z
M 844 2259 
Q 844 1131 1108 757 
Q 1372 384 1759 384 
Q 2147 384 2411 759 
Q 2675 1134 2675 2259 
Q 2675 3391 2411 3762 
Q 2147 4134 1753 4134 
Q 1366 4134 1134 3806 
Q 844 3388 844 2259 
z
" transform="scale(0.015625)"/>
       </defs>
       <use xlink:href="#ArialMT-30"/>
      </g>
     </g>
    </g>
    <g id="xtick_2">
     <g id="line2d_2">
      <g>
       <use xlink:href="#m57f2cc02f4" x="76.593594" y="173.52" style="fill: #262626; stroke: #262626; stroke-width: 0.8"/>
      </g>
     </g>
     <g id="text_2">
      <!-- 3 -->
      <g style="fill: #262626" transform="translate(73.813125 187.677813) scale(0.1 -0.1)">
       <defs>
        <path id="ArialMT-33" d="M 269 1209 
L 831 1284 
Q 928 806 1161 595 
Q 1394 384 1728 384 
Q 2125 384 2398 659 
Q 2672 934 2672 1341 
Q 2672 1728 2419 1979 
Q 2166 2231 1775 2231 
Q 1616 2231 1378 2169 
L 1441 2663 
Q 1497 2656 1531 2656 
Q 1891 2656 2178 2843 
Q 2466 3031 2466 3422 
Q 2466 3731 2256 3934 
Q 2047 4138 1716 4138 
Q 1388 4138 1169 3931 
Q 950 3725 888 3313 
L 325 3413 
Q 428 3978 793 4289 
Q 1159 4600 1703 4600 
Q 2078 4600 2393 4439 
Q 2709 4278 2876 4000 
Q 3044 3722 3044 3409 
Q 3044 3113 2884 2869 
Q 2725 2625 2413 2481 
Q 2819 2388 3044 2092 
Q 3269 1797 3269 1353 
Q 3269 753 2831 336 
Q 2394 -81 1725 -81 
Q 1122 -81 723 278 
Q 325 638 269 1209 
z
" transform="scale(0.015625)"/>
       </defs>
       <use xlink:href="#ArialMT-33"/>
      </g>
     </g>
    </g>
    <g id="xtick_3">
     <g id="line2d_3">
      <g>
       <use xlink:href="#m57f2cc02f4" x="110.073594" y="173.52" style="fill: #262626; stroke: #262626; stroke-width: 0.8"/>
      </g>
     </g>
     <g id="text_3">
      <!-- 6 -->
      <g style="fill: #262626" transform="translate(107.293125 187.677813) scale(0.1 -0.1)">
       <defs>
        <path id="ArialMT-36" d="M 3184 3459 
L 2625 3416 
Q 2550 3747 2413 3897 
Q 2184 4138 1850 4138 
Q 1581 4138 1378 3988 
Q 1113 3794 959 3422 
Q 806 3050 800 2363 
Q 1003 2672 1297 2822 
Q 1591 2972 1913 2972 
Q 2475 2972 2870 2558 
Q 3266 2144 3266 1488 
Q 3266 1056 3080 686 
Q 2894 316 2569 119 
Q 2244 -78 1831 -78 
Q 1128 -78 684 439 
Q 241 956 241 2144 
Q 241 3472 731 4075 
Q 1159 4600 1884 4600 
Q 2425 4600 2770 4297 
Q 3116 3994 3184 3459 
z
M 888 1484 
Q 888 1194 1011 928 
Q 1134 663 1356 523 
Q 1578 384 1822 384 
Q 2178 384 2434 671 
Q 2691 959 2691 1453 
Q 2691 1928 2437 2201 
Q 2184 2475 1800 2475 
Q 1419 2475 1153 2201 
Q 888 1928 888 1484 
z
" transform="scale(0.015625)"/>
       </defs>
       <use xlink:href="#ArialMT-36"/>
      </g>
     </g>
    </g>
    <g id="xtick_4">
     <g id="line2d_4">
      <g>
       <use xlink:href="#m57f2cc02f4" x="143.553594" y="173.52" style="fill: #262626; stroke: #262626; stroke-width: 0.8"/>
      </g>
     </g>
     <g id="text_4">
      <!-- 9 -->
      <g style="fill: #262626" transform="translate(140.773125 187.677813) scale(0.1 -0.1)">
       <defs>
        <path id="ArialMT-39" d="M 350 1059 
L 891 1109 
Q 959 728 1153 556 
Q 1347 384 1650 384 
Q 1909 384 2104 503 
Q 2300 622 2425 820 
Q 2550 1019 2634 1356 
Q 2719 1694 2719 2044 
Q 2719 2081 2716 2156 
Q 2547 1888 2255 1720 
Q 1963 1553 1622 1553 
Q 1053 1553 659 1965 
Q 266 2378 266 3053 
Q 266 3750 677 4175 
Q 1088 4600 1706 4600 
Q 2153 4600 2523 4359 
Q 2894 4119 3086 3673 
Q 3278 3228 3278 2384 
Q 3278 1506 3087 986 
Q 2897 466 2520 194 
Q 2144 -78 1638 -78 
Q 1100 -78 759 220 
Q 419 519 350 1059 
z
M 2653 3081 
Q 2653 3566 2395 3850 
Q 2138 4134 1775 4134 
Q 1400 4134 1122 3828 
Q 844 3522 844 3034 
Q 844 2597 1108 2323 
Q 1372 2050 1759 2050 
Q 2150 2050 2401 2323 
Q 2653 2597 2653 3081 
z
" transform="scale(0.015625)"/>
       </defs>
       <use xlink:href="#ArialMT-39"/>
      </g>
     </g>
    </g>
    <g id="xtick_5">
     <g id="line2d_5">
      <g>
       <use xlink:href="#m57f2cc02f4" x="177.033594" y="173.52" style="fill: #262626; stroke: #262626; stroke-width: 0.8"/>
      </g>
     </g>
     <g id="text_5">
      <!-- 12 -->
      <g style="fill: #262626" transform="translate(171.472656 187.677813) scale(0.1 -0.1)">
       <defs>
        <path id="ArialMT-31" d="M 2384 0 
L 1822 0 
L 1822 3584 
Q 1619 3391 1289 3197 
Q 959 3003 697 2906 
L 697 3450 
Q 1169 3672 1522 3987 
Q 1875 4303 2022 4600 
L 2384 4600 
L 2384 0 
z
" transform="scale(0.015625)"/>
        <path id="ArialMT-32" d="M 3222 541 
L 3222 0 
L 194 0 
Q 188 203 259 391 
Q 375 700 629 1000 
Q 884 1300 1366 1694 
Q 2113 2306 2375 2664 
Q 2638 3022 2638 3341 
Q 2638 3675 2398 3904 
Q 2159 4134 1775 4134 
Q 1369 4134 1125 3890 
Q 881 3647 878 3216 
L 300 3275 
Q 359 3922 746 4261 
Q 1134 4600 1788 4600 
Q 2447 4600 2831 4234 
Q 3216 3869 3216 3328 
Q 3216 3053 3103 2787 
Q 2991 2522 2730 2228 
Q 2469 1934 1863 1422 
Q 1356 997 1212 845 
Q 1069 694 975 541 
L 3222 541 
z
" transform="scale(0.015625)"/>
       </defs>
       <use xlink:href="#ArialMT-31"/>
       <use xlink:href="#ArialMT-32" x="55.615234"/>
      </g>
     </g>
    </g>
    <g id="xtick_6">
     <g id="line2d_6">
      <g>
       <use xlink:href="#m57f2cc02f4" x="210.513594" y="173.52" style="fill: #262626; stroke: #262626; stroke-width: 0.8"/>
      </g>
     </g>
     <g id="text_6">
      <!-- 15 -->
      <g style="fill: #262626" transform="translate(204.952656 187.677813) scale(0.1 -0.1)">
       <defs>
        <path id="ArialMT-35" d="M 266 1200 
L 856 1250 
Q 922 819 1161 601 
Q 1400 384 1738 384 
Q 2144 384 2425 690 
Q 2706 997 2706 1503 
Q 2706 1984 2436 2262 
Q 2166 2541 1728 2541 
Q 1456 2541 1237 2417 
Q 1019 2294 894 2097 
L 366 2166 
L 809 4519 
L 3088 4519 
L 3088 3981 
L 1259 3981 
L 1013 2750 
Q 1425 3038 1878 3038 
Q 2478 3038 2890 2622 
Q 3303 2206 3303 1553 
Q 3303 931 2941 478 
Q 2500 -78 1738 -78 
Q 1113 -78 717 272 
Q 322 622 266 1200 
z
" transform="scale(0.015625)"/>
       </defs>
       <use xlink:href="#ArialMT-31"/>
       <use xlink:href="#ArialMT-35" x="55.615234"/>
      </g>
     </g>
    </g>
    <g id="text_7">
     <!-- Median $log_{2}$[TPM] -->
     <g style="fill: #262626" transform="translate(89.778594 200.505313) scale(0.09 -0.09)">
      <defs>
       <path id="ArialMT-4d" d="M 475 0 
L 475 4581 
L 1388 4581 
L 2472 1338 
Q 2622 884 2691 659 
Q 2769 909 2934 1394 
L 4031 4581 
L 4847 4581 
L 4847 0 
L 4263 0 
L 4263 3834 
L 2931 0 
L 2384 0 
L 1059 3900 
L 1059 0 
L 475 0 
z
" transform="scale(0.015625)"/>
       <path id="ArialMT-65" d="M 2694 1069 
L 3275 997 
Q 3138 488 2766 206 
Q 2394 -75 1816 -75 
Q 1088 -75 661 373 
Q 234 822 234 1631 
Q 234 2469 665 2931 
Q 1097 3394 1784 3394 
Q 2450 3394 2872 2941 
Q 3294 2488 3294 1666 
Q 3294 1616 3291 1516 
L 816 1516 
Q 847 969 1125 678 
Q 1403 388 1819 388 
Q 2128 388 2347 550 
Q 2566 713 2694 1069 
z
M 847 1978 
L 2700 1978 
Q 2663 2397 2488 2606 
Q 2219 2931 1791 2931 
Q 1403 2931 1139 2672 
Q 875 2413 847 1978 
z
" transform="scale(0.015625)"/>
       <path id="ArialMT-64" d="M 2575 0 
L 2575 419 
Q 2259 -75 1647 -75 
Q 1250 -75 917 144 
Q 584 363 401 755 
Q 219 1147 219 1656 
Q 219 2153 384 2558 
Q 550 2963 881 3178 
Q 1213 3394 1622 3394 
Q 1922 3394 2156 3267 
Q 2391 3141 2538 2938 
L 2538 4581 
L 3097 4581 
L 3097 0 
L 2575 0 
z
M 797 1656 
Q 797 1019 1065 703 
Q 1334 388 1700 388 
Q 2069 388 2326 689 
Q 2584 991 2584 1609 
Q 2584 2291 2321 2609 
Q 2059 2928 1675 2928 
Q 1300 2928 1048 2622 
Q 797 2316 797 1656 
z
" transform="scale(0.015625)"/>
       <path id="ArialMT-69" d="M 425 3934 
L 425 4581 
L 988 4581 
L 988 3934 
L 425 3934 
z
M 425 0 
L 425 3319 
L 988 3319 
L 988 0 
L 425 0 
z
" transform="scale(0.015625)"/>
       <path id="ArialMT-61" d="M 2588 409 
Q 2275 144 1986 34 
Q 1697 -75 1366 -75 
Q 819 -75 525 192 
Q 231 459 231 875 
Q 231 1119 342 1320 
Q 453 1522 633 1644 
Q 813 1766 1038 1828 
Q 1203 1872 1538 1913 
Q 2219 1994 2541 2106 
Q 2544 2222 2544 2253 
Q 2544 2597 2384 2738 
Q 2169 2928 1744 2928 
Q 1347 2928 1158 2789 
Q 969 2650 878 2297 
L 328 2372 
Q 403 2725 575 2942 
Q 747 3159 1072 3276 
Q 1397 3394 1825 3394 
Q 2250 3394 2515 3294 
Q 2781 3194 2906 3042 
Q 3031 2891 3081 2659 
Q 3109 2516 3109 2141 
L 3109 1391 
Q 3109 606 3145 398 
Q 3181 191 3288 0 
L 2700 0 
Q 2613 175 2588 409 
z
M 2541 1666 
Q 2234 1541 1622 1453 
Q 1275 1403 1131 1340 
Q 988 1278 909 1158 
Q 831 1038 831 891 
Q 831 666 1001 516 
Q 1172 366 1500 366 
Q 1825 366 2078 508 
Q 2331 650 2450 897 
Q 2541 1088 2541 1459 
L 2541 1666 
z
" transform="scale(0.015625)"/>
       <path id="ArialMT-6e" d="M 422 0 
L 422 3319 
L 928 3319 
L 928 2847 
Q 1294 3394 1984 3394 
Q 2284 3394 2536 3286 
Q 2788 3178 2913 3003 
Q 3038 2828 3088 2588 
Q 3119 2431 3119 2041 
L 3119 0 
L 2556 0 
L 2556 2019 
Q 2556 2363 2490 2533 
Q 2425 2703 2258 2804 
Q 2091 2906 1866 2906 
Q 1506 2906 1245 2678 
Q 984 2450 984 1813 
L 984 0 
L 422 0 
z
" transform="scale(0.015625)"/>
       <path id="ArialMT-20" transform="scale(0.015625)"/>
       <path id="DejaVuSans-Oblique-6c" d="M 1172 4863 
L 1747 4863 
L 800 0 
L 225 0 
L 1172 4863 
z
" transform="scale(0.015625)"/>
       <path id="DejaVuSans-Oblique-6f" d="M 1625 -91 
Q 1009 -91 651 289 
Q 294 669 294 1325 
Q 294 1706 417 2101 
Q 541 2497 738 2766 
Q 1047 3184 1428 3384 
Q 1809 3584 2291 3584 
Q 2888 3584 3255 3212 
Q 3622 2841 3622 2241 
Q 3622 1825 3500 1412 
Q 3378 1000 3181 728 
Q 2875 309 2494 109 
Q 2113 -91 1625 -91 
z
M 891 1344 
Q 891 869 1089 633 
Q 1288 397 1691 397 
Q 2269 397 2648 901 
Q 3028 1406 3028 2181 
Q 3028 2634 2825 2865 
Q 2622 3097 2228 3097 
Q 1903 3097 1650 2945 
Q 1397 2794 1197 2484 
Q 1050 2253 970 1956 
Q 891 1659 891 1344 
z
" transform="scale(0.015625)"/>
       <path id="DejaVuSans-Oblique-67" d="M 3816 3500 
L 3219 434 
Q 3047 -456 2561 -893 
Q 2075 -1331 1253 -1331 
Q 950 -1331 690 -1286 
Q 431 -1241 206 -1147 
L 313 -588 
Q 525 -725 762 -790 
Q 1000 -856 1269 -856 
Q 1816 -856 2167 -557 
Q 2519 -259 2631 300 
L 2681 563 
Q 2441 288 2122 144 
Q 1803 0 1434 0 
Q 903 0 598 351 
Q 294 703 294 1319 
Q 294 1803 478 2267 
Q 663 2731 997 3091 
Q 1219 3328 1514 3456 
Q 1809 3584 2131 3584 
Q 2484 3584 2746 3420 
Q 3009 3256 3138 2956 
L 3238 3500 
L 3816 3500 
z
M 2950 2216 
Q 2950 2641 2750 2872 
Q 2550 3103 2181 3103 
Q 1953 3103 1747 3012 
Q 1541 2922 1394 2759 
Q 1156 2491 1023 2127 
Q 891 1763 891 1375 
Q 891 944 1092 712 
Q 1294 481 1672 481 
Q 2219 481 2584 976 
Q 2950 1472 2950 2216 
z
" transform="scale(0.015625)"/>
       <path id="DejaVuSans-32" d="M 1228 531 
L 3431 531 
L 3431 0 
L 469 0 
L 469 531 
Q 828 903 1448 1529 
Q 2069 2156 2228 2338 
Q 2531 2678 2651 2914 
Q 2772 3150 2772 3378 
Q 2772 3750 2511 3984 
Q 2250 4219 1831 4219 
Q 1534 4219 1204 4116 
Q 875 4013 500 3803 
L 500 4441 
Q 881 4594 1212 4672 
Q 1544 4750 1819 4750 
Q 2544 4750 2975 4387 
Q 3406 4025 3406 3419 
Q 3406 3131 3298 2873 
Q 3191 2616 2906 2266 
Q 2828 2175 2409 1742 
Q 1991 1309 1228 531 
z
" transform="scale(0.015625)"/>
       <path id="ArialMT-5b" d="M 434 -1272 
L 434 4581 
L 1675 4581 
L 1675 4116 
L 997 4116 
L 997 -806 
L 1675 -806 
L 1675 -1272 
L 434 -1272 
z
" transform="scale(0.015625)"/>
       <path id="ArialMT-54" d="M 1659 0 
L 1659 4041 
L 150 4041 
L 150 4581 
L 3781 4581 
L 3781 4041 
L 2266 4041 
L 2266 0 
L 1659 0 
z
" transform="scale(0.015625)"/>
       <path id="ArialMT-50" d="M 494 0 
L 494 4581 
L 2222 4581 
Q 2678 4581 2919 4538 
Q 3256 4481 3484 4323 
Q 3713 4166 3852 3881 
Q 3991 3597 3991 3256 
Q 3991 2672 3619 2267 
Q 3247 1863 2275 1863 
L 1100 1863 
L 1100 0 
L 494 0 
z
M 1100 2403 
L 2284 2403 
Q 2872 2403 3119 2622 
Q 3366 2841 3366 3238 
Q 3366 3525 3220 3729 
Q 3075 3934 2838 4000 
Q 2684 4041 2272 4041 
L 1100 4041 
L 1100 2403 
z
" transform="scale(0.015625)"/>
       <path id="ArialMT-5d" d="M 1363 -1272 
L 122 -1272 
L 122 -806 
L 800 -806 
L 800 4116 
L 122 4116 
L 122 4581 
L 1363 4581 
L 1363 -1272 
z
" transform="scale(0.015625)"/>
      </defs>
      <use xlink:href="#ArialMT-4d" transform="translate(0 0.015625)"/>
      <use xlink:href="#ArialMT-65" transform="translate(83.300781 0.015625)"/>
      <use xlink:href="#ArialMT-64" transform="translate(138.916016 0.015625)"/>
      <use xlink:href="#ArialMT-69" transform="translate(194.53125 0.015625)"/>
      <use xlink:href="#ArialMT-61" transform="translate(216.748047 0.015625)"/>
      <use xlink:href="#ArialMT-6e" transform="translate(272.363281 0.015625)"/>
      <use xlink:href="#ArialMT-20" transform="translate(327.978516 0.015625)"/>
      <use xlink:href="#DejaVuSans-Oblique-6c" transform="translate(355.761719 0.015625)"/>
      <use xlink:href="#DejaVuSans-Oblique-6f" transform="translate(383.544922 0.015625)"/>
      <use xlink:href="#DejaVuSans-Oblique-67" transform="translate(444.726562 0.015625)"/>
      <use xlink:href="#DejaVuSans-32" transform="translate(508.203125 -16.390625) scale(0.7)"/>
      <use xlink:href="#ArialMT-5b" transform="translate(555.473633 0.015625)"/>
      <use xlink:href="#ArialMT-54" transform="translate(583.256836 0.015625)"/>
      <use xlink:href="#ArialMT-50" transform="translate(644.34082 0.015625)"/>
      <use xlink:href="#ArialMT-4d" transform="translate(711.040039 0.015625)"/>
      <use xlink:href="#ArialMT-5d" transform="translate(794.34082 0.015625)"/>
     </g>
    </g>
   </g>
   <g id="matplotlib.axis_2">
    <g id="ytick_1">
     <g id="line2d_7">
      <defs>
       <path id="md556ad8206" d="M 0 0 
L -3.5 0 
" style="stroke: #262626; stroke-width: 0.8"/>
      </defs>
      <g>
       <use xlink:href="#md556ad8206" x="43.113594" y="173.52" style="fill: #262626; stroke: #262626; stroke-width: 0.8"/>
      </g>
     </g>
     <g id="text_8">
      <!-- 0 -->
      <g style="fill: #262626" transform="translate(30.552656 177.098906) scale(0.1 -0.1)">
       <use xlink:href="#ArialMT-30"/>
      </g>
     </g>
    </g>
    <g id="ytick_2">
     <g id="line2d_8">
      <g>
       <use xlink:href="#md556ad8206" x="43.113594" y="138.87" style="fill: #262626; stroke: #262626; stroke-width: 0.8"/>
      </g>
     </g>
     <g id="text_9">
      <!-- 50 -->
      <g style="fill: #262626" transform="translate(24.991719 142.448906) scale(0.1 -0.1)">
       <use xlink:href="#ArialMT-35"/>
       <use xlink:href="#ArialMT-30" x="55.615234"/>
      </g>
     </g>
    </g>
    <g id="ytick_3">
     <g id="line2d_9">
      <g>
       <use xlink:href="#md556ad8206" x="43.113594" y="104.22" style="fill: #262626; stroke: #262626; stroke-width: 0.8"/>
      </g>
     </g>
     <g id="text_10">
      <!-- 100 -->
      <g style="fill: #262626" transform="translate(19.430781 107.798906) scale(0.1 -0.1)">
       <use xlink:href="#ArialMT-31"/>
       <use xlink:href="#ArialMT-30" x="55.615234"/>
       <use xlink:href="#ArialMT-30" x="111.230469"/>
      </g>
     </g>
    </g>
    <g id="ytick_4">
     <g id="line2d_10">
      <g>
       <use xlink:href="#md556ad8206" x="43.113594" y="69.57" style="fill: #262626; stroke: #262626; stroke-width: 0.8"/>
      </g>
     </g>
     <g id="text_11">
      <!-- 150 -->
      <g style="fill: #262626" transform="translate(19.430781 73.148906) scale(0.1 -0.1)">
       <use xlink:href="#ArialMT-31"/>
       <use xlink:href="#ArialMT-35" x="55.615234"/>
       <use xlink:href="#ArialMT-30" x="111.230469"/>
      </g>
     </g>
    </g>
    <g id="ytick_5">
     <g id="line2d_11">
      <g>
       <use xlink:href="#md556ad8206" x="43.113594" y="34.92" style="fill: #262626; stroke: #262626; stroke-width: 0.8"/>
      </g>
     </g>
     <g id="text_12">
      <!-- 200 -->
      <g style="fill: #262626" transform="translate(19.430781 38.498906) scale(0.1 -0.1)">
       <use xlink:href="#ArialMT-32"/>
       <use xlink:href="#ArialMT-30" x="55.615234"/>
       <use xlink:href="#ArialMT-30" x="111.230469"/>
      </g>
     </g>
    </g>
    <g id="text_13">
     <!-- # of Genes -->
     <g style="fill: #262626" transform="translate(13.642031 112.372734) rotate(-90) scale(0.09 -0.09)">
      <defs>
       <path id="ArialMT-23" d="M 322 -78 
L 594 1253 
L 66 1253 
L 66 1719 
L 688 1719 
L 919 2853 
L 66 2853 
L 66 3319 
L 1013 3319 
L 1284 4659 
L 1753 4659 
L 1481 3319 
L 2466 3319 
L 2738 4659 
L 3209 4659 
L 2938 3319 
L 3478 3319 
L 3478 2853 
L 2844 2853 
L 2609 1719 
L 3478 1719 
L 3478 1253 
L 2516 1253 
L 2244 -78 
L 1775 -78 
L 2044 1253 
L 1063 1253 
L 791 -78 
L 322 -78 
z
M 1156 1719 
L 2138 1719 
L 2372 2853 
L 1388 2853 
L 1156 1719 
z
" transform="scale(0.015625)"/>
       <path id="ArialMT-6f" d="M 213 1659 
Q 213 2581 725 3025 
Q 1153 3394 1769 3394 
Q 2453 3394 2887 2945 
Q 3322 2497 3322 1706 
Q 3322 1066 3130 698 
Q 2938 331 2570 128 
Q 2203 -75 1769 -75 
Q 1072 -75 642 372 
Q 213 819 213 1659 
z
M 791 1659 
Q 791 1022 1069 705 
Q 1347 388 1769 388 
Q 2188 388 2466 706 
Q 2744 1025 2744 1678 
Q 2744 2294 2464 2611 
Q 2184 2928 1769 2928 
Q 1347 2928 1069 2612 
Q 791 2297 791 1659 
z
" transform="scale(0.015625)"/>
       <path id="ArialMT-66" d="M 556 0 
L 556 2881 
L 59 2881 
L 59 3319 
L 556 3319 
L 556 3672 
Q 556 4006 616 4169 
Q 697 4388 901 4523 
Q 1106 4659 1475 4659 
Q 1713 4659 2000 4603 
L 1916 4113 
Q 1741 4144 1584 4144 
Q 1328 4144 1222 4034 
Q 1116 3925 1116 3625 
L 1116 3319 
L 1763 3319 
L 1763 2881 
L 1116 2881 
L 1116 0 
L 556 0 
z
" transform="scale(0.015625)"/>
       <path id="ArialMT-47" d="M 2638 1797 
L 2638 2334 
L 4578 2338 
L 4578 638 
Q 4131 281 3656 101 
Q 3181 -78 2681 -78 
Q 2006 -78 1454 211 
Q 903 500 622 1047 
Q 341 1594 341 2269 
Q 341 2938 620 3517 
Q 900 4097 1425 4378 
Q 1950 4659 2634 4659 
Q 3131 4659 3532 4498 
Q 3934 4338 4162 4050 
Q 4391 3763 4509 3300 
L 3963 3150 
Q 3859 3500 3706 3700 
Q 3553 3900 3268 4020 
Q 2984 4141 2638 4141 
Q 2222 4141 1919 4014 
Q 1616 3888 1430 3681 
Q 1244 3475 1141 3228 
Q 966 2803 966 2306 
Q 966 1694 1177 1281 
Q 1388 869 1791 669 
Q 2194 469 2647 469 
Q 3041 469 3416 620 
Q 3791 772 3984 944 
L 3984 1797 
L 2638 1797 
z
" transform="scale(0.015625)"/>
       <path id="ArialMT-73" d="M 197 991 
L 753 1078 
Q 800 744 1014 566 
Q 1228 388 1613 388 
Q 2000 388 2187 545 
Q 2375 703 2375 916 
Q 2375 1106 2209 1216 
Q 2094 1291 1634 1406 
Q 1016 1563 777 1677 
Q 538 1791 414 1992 
Q 291 2194 291 2438 
Q 291 2659 392 2848 
Q 494 3038 669 3163 
Q 800 3259 1026 3326 
Q 1253 3394 1513 3394 
Q 1903 3394 2198 3281 
Q 2494 3169 2634 2976 
Q 2775 2784 2828 2463 
L 2278 2388 
Q 2241 2644 2061 2787 
Q 1881 2931 1553 2931 
Q 1166 2931 1000 2803 
Q 834 2675 834 2503 
Q 834 2394 903 2306 
Q 972 2216 1119 2156 
Q 1203 2125 1616 2013 
Q 2213 1853 2448 1751 
Q 2684 1650 2818 1456 
Q 2953 1263 2953 975 
Q 2953 694 2789 445 
Q 2625 197 2315 61 
Q 2006 -75 1616 -75 
Q 969 -75 630 194 
Q 291 463 197 991 
z
" transform="scale(0.015625)"/>
      </defs>
      <use xlink:href="#ArialMT-23"/>
      <use xlink:href="#ArialMT-20" x="55.615234"/>
      <use xlink:href="#ArialMT-6f" x="83.398438"/>
      <use xlink:href="#ArialMT-66" x="139.013672"/>
      <use xlink:href="#ArialMT-20" x="166.796875"/>
      <use xlink:href="#ArialMT-47" x="194.580078"/>
      <use xlink:href="#ArialMT-65" x="272.363281"/>
      <use xlink:href="#ArialMT-6e" x="327.978516"/>
      <use xlink:href="#ArialMT-65" x="383.59375"/>
      <use xlink:href="#ArialMT-73" x="439.208984"/>
     </g>
    </g>
   </g>
   <g id="patch_3">
    <path d="M 43.113594 173.52 
L 46.425931 173.52 
L 46.425931 154.116 
L 43.113594 154.116 
z
" clip-path="url(#pd8ff0ec316)" style="fill: #1f77b4; fill-opacity: 0.75; stroke: #ffffff; stroke-width: 0.304364; stroke-linejoin: miter"/>
   </g>
   <g id="patch_4">
    <path d="M 46.425931 173.52 
L 49.738268 173.52 
L 49.738268 137.484 
L 46.425931 137.484 
z
" clip-path="url(#pd8ff0ec316)" style="fill: #1f77b4; fill-opacity: 0.75; stroke: #ffffff; stroke-width: 0.304364; stroke-linejoin: miter"/>
   </g>
   <g id="patch_5">
    <path d="M 49.738268 173.52 
L 53.050606 173.52 
L 53.050606 102.141 
L 49.738268 102.141 
z
" clip-path="url(#pd8ff0ec316)" style="fill: #1f77b4; fill-opacity: 0.75; stroke: #ffffff; stroke-width: 0.304364; stroke-linejoin: miter"/>
   </g>
   <g id="patch_6">
    <path d="M 53.050606 173.52 
L 56.362943 173.52 
L 56.362943 89.667 
L 53.050606 89.667 
z
" clip-path="url(#pd8ff0ec316)" style="fill: #1f77b4; fill-opacity: 0.75; stroke: #ffffff; stroke-width: 0.304364; stroke-linejoin: miter"/>
   </g>
   <g id="patch_7">
    <path d="M 56.362943 173.52 
L 59.67528 173.52 
L 59.67528 79.272 
L 56.362943 79.272 
z
" clip-path="url(#pd8ff0ec316)" style="fill: #1f77b4; fill-opacity: 0.75; stroke: #ffffff; stroke-width: 0.304364; stroke-linejoin: miter"/>
   </g>
   <g id="patch_8">
    <path d="M 59.67528 173.52 
L 62.987617 173.52 
L 62.987617 82.044 
L 59.67528 82.044 
z
" clip-path="url(#pd8ff0ec316)" style="fill: #1f77b4; fill-opacity: 0.75; stroke: #ffffff; stroke-width: 0.304364; stroke-linejoin: miter"/>
   </g>
   <g id="patch_9">
    <path d="M 62.987617 173.52 
L 66.299955 173.52 
L 66.299955 65.412 
L 62.987617 65.412 
z
" clip-path="url(#pd8ff0ec316)" style="fill: #1f77b4; fill-opacity: 0.75; stroke: #ffffff; stroke-width: 0.304364; stroke-linejoin: miter"/>
   </g>
   <g id="patch_10">
    <path d="M 66.299955 173.52 
L 69.612292 173.52 
L 69.612292 84.123 
L 66.299955 84.123 
z
" clip-path="url(#pd8ff0ec316)" style="fill: #1f77b4; fill-opacity: 0.75; stroke: #ffffff; stroke-width: 0.304364; stroke-linejoin: miter"/>
   </g>
   <g id="patch_11">
    <path d="M 69.612292 173.52 
L 72.924629 173.52 
L 72.924629 67.491 
L 69.612292 67.491 
z
" clip-path="url(#pd8ff0ec316)" style="fill: #1f77b4; fill-opacity: 0.75; stroke: #ffffff; stroke-width: 0.304364; stroke-linejoin: miter"/>
   </g>
   <g id="patch_12">
    <path d="M 72.924629 173.52 
L 76.236967 173.52 
L 76.236967 74.421 
L 72.924629 74.421 
z
" clip-path="url(#pd8ff0ec316)" style="fill: #1f77b4; fill-opacity: 0.75; stroke: #ffffff; stroke-width: 0.304364; stroke-linejoin: miter"/>
   </g>
   <g id="patch_13">
    <path d="M 76.236967 173.52 
L 79.549304 173.52 
L 79.549304 91.746 
L 76.236967 91.746 
z
" clip-path="url(#pd8ff0ec316)" style="fill: #1f77b4; fill-opacity: 0.75; stroke: #ffffff; stroke-width: 0.304364; stroke-linejoin: miter"/>
   </g>
   <g id="patch_14">
    <path d="M 79.549304 173.52 
L 82.861641 173.52 
L 82.861641 104.22 
L 79.549304 104.22 
z
" clip-path="url(#pd8ff0ec316)" style="fill: #1f77b4; fill-opacity: 0.75; stroke: #ffffff; stroke-width: 0.304364; stroke-linejoin: miter"/>
   </g>
   <g id="patch_15">
    <path d="M 82.861641 173.52 
L 86.173978 173.52 
L 86.173978 73.728 
L 82.861641 73.728 
z
" clip-path="url(#pd8ff0ec316)" style="fill: #1f77b4; fill-opacity: 0.75; stroke: #ffffff; stroke-width: 0.304364; stroke-linejoin: miter"/>
   </g>
   <g id="patch_16">
    <path d="M 86.173978 173.52 
L 89.486316 173.52 
L 89.486316 78.579 
L 86.173978 78.579 
z
" clip-path="url(#pd8ff0ec316)" style="fill: #1f77b4; fill-opacity: 0.75; stroke: #ffffff; stroke-width: 0.304364; stroke-linejoin: miter"/>
   </g>
   <g id="patch_17">
    <path d="M 89.486316 173.52 
L 92.798653 173.52 
L 92.798653 73.728 
L 89.486316 73.728 
z
" clip-path="url(#pd8ff0ec316)" style="fill: #1f77b4; fill-opacity: 0.75; stroke: #ffffff; stroke-width: 0.304364; stroke-linejoin: miter"/>
   </g>
   <g id="patch_18">
    <path d="M 92.798653 173.52 
L 96.11099 173.52 
L 96.11099 73.035 
L 92.798653 73.035 
z
" clip-path="url(#pd8ff0ec316)" style="fill: #1f77b4; fill-opacity: 0.75; stroke: #ffffff; stroke-width: 0.304364; stroke-linejoin: miter"/>
   </g>
   <g id="patch_19">
    <path d="M 96.11099 173.52 
L 99.423328 173.52 
L 99.423328 82.044 
L 96.11099 82.044 
z
" clip-path="url(#pd8ff0ec316)" style="fill: #1f77b4; fill-opacity: 0.75; stroke: #ffffff; stroke-width: 0.304364; stroke-linejoin: miter"/>
   </g>
   <g id="patch_20">
    <path d="M 99.423328 173.52 
L 102.735665 173.52 
L 102.735665 62.64 
L 99.423328 62.64 
z
" clip-path="url(#pd8ff0ec316)" style="fill: #1f77b4; fill-opacity: 0.75; stroke: #ffffff; stroke-width: 0.304364; stroke-linejoin: miter"/>
   </g>
   <g id="patch_21">
    <path d="M 102.735665 173.52 
L 106.048002 173.52 
L 106.048002 51.552 
L 102.735665 51.552 
z
" clip-path="url(#pd8ff0ec316)" style="fill: #1f77b4; fill-opacity: 0.75; stroke: #ffffff; stroke-width: 0.304364; stroke-linejoin: miter"/>
   </g>
   <g id="patch_22">
    <path d="M 106.048002 173.52 
L 109.36034 173.52 
L 109.36034 56.403 
L 106.048002 56.403 
z
" clip-path="url(#pd8ff0ec316)" style="fill: #1f77b4; fill-opacity: 0.75; stroke: #ffffff; stroke-width: 0.304364; stroke-linejoin: miter"/>
   </g>
   <g id="patch_23">
    <path d="M 109.36034 173.52 
L 112.672677 173.52 
L 112.672677 34.92 
L 109.36034 34.92 
z
" clip-path="url(#pd8ff0ec316)" style="fill: #1f77b4; fill-opacity: 0.75; stroke: #ffffff; stroke-width: 0.304364; stroke-linejoin: miter"/>
   </g>
   <g id="patch_24">
    <path d="M 112.672677 173.52 
L 115.985014 173.52 
L 115.985014 32.148 
L 112.672677 32.148 
z
" clip-path="url(#pd8ff0ec316)" style="fill: #1f77b4; fill-opacity: 0.75; stroke: #ffffff; stroke-width: 0.304364; stroke-linejoin: miter"/>
   </g>
   <g id="patch_25">
    <path d="M 115.985014 173.52 
L 119.297351 173.52 
L 119.297351 40.464 
L 115.985014 40.464 
z
" clip-path="url(#pd8ff0ec316)" style="fill: #1f77b4; fill-opacity: 0.75; stroke: #ffffff; stroke-width: 0.304364; stroke-linejoin: miter"/>
   </g>
   <g id="patch_26">
    <path d="M 119.297351 173.52 
L 122.609689 173.52 
L 122.609689 78.579 
L 119.297351 78.579 
z
" clip-path="url(#pd8ff0ec316)" style="fill: #1f77b4; fill-opacity: 0.75; stroke: #ffffff; stroke-width: 0.304364; stroke-linejoin: miter"/>
   </g>
   <g id="patch_27">
    <path d="M 122.609689 173.52 
L 125.922026 173.52 
L 125.922026 73.728 
L 122.609689 73.728 
z
" clip-path="url(#pd8ff0ec316)" style="fill: #1f77b4; fill-opacity: 0.75; stroke: #ffffff; stroke-width: 0.304364; stroke-linejoin: miter"/>
   </g>
   <g id="patch_28">
    <path d="M 125.922026 173.52 
L 129.234363 173.52 
L 129.234363 73.035 
L 125.922026 73.035 
z
" clip-path="url(#pd8ff0ec316)" style="fill: #1f77b4; fill-opacity: 0.75; stroke: #ffffff; stroke-width: 0.304364; stroke-linejoin: miter"/>
   </g>
   <g id="patch_29">
    <path d="M 129.234363 173.52 
L 132.546701 173.52 
L 132.546701 82.737 
L 129.234363 82.737 
z
" clip-path="url(#pd8ff0ec316)" style="fill: #1f77b4; fill-opacity: 0.75; stroke: #ffffff; stroke-width: 0.304364; stroke-linejoin: miter"/>
   </g>
   <g id="patch_30">
    <path d="M 132.546701 173.52 
L 135.859038 173.52 
L 135.859038 108.378 
L 132.546701 108.378 
z
" clip-path="url(#pd8ff0ec316)" style="fill: #1f77b4; fill-opacity: 0.75; stroke: #ffffff; stroke-width: 0.304364; stroke-linejoin: miter"/>
   </g>
   <g id="patch_31">
    <path d="M 135.859038 173.52 
L 139.171375 173.52 
L 139.171375 120.159 
L 135.859038 120.159 
z
" clip-path="url(#pd8ff0ec316)" style="fill: #1f77b4; fill-opacity: 0.75; stroke: #ffffff; stroke-width: 0.304364; stroke-linejoin: miter"/>
   </g>
   <g id="patch_32">
    <path d="M 139.171375 173.52 
L 142.483712 173.52 
L 142.483712 125.01 
L 139.171375 125.01 
z
" clip-path="url(#pd8ff0ec316)" style="fill: #1f77b4; fill-opacity: 0.75; stroke: #ffffff; stroke-width: 0.304364; stroke-linejoin: miter"/>
   </g>
   <g id="patch_33">
    <path d="M 142.483712 173.52 
L 145.79605 173.52 
L 145.79605 141.642 
L 142.483712 141.642 
z
" clip-path="url(#pd8ff0ec316)" style="fill: #1f77b4; fill-opacity: 0.75; stroke: #ffffff; stroke-width: 0.304364; stroke-linejoin: miter"/>
   </g>
   <g id="patch_34">
    <path d="M 145.79605 173.52 
L 149.108387 173.52 
L 149.108387 143.028 
L 145.79605 143.028 
z
" clip-path="url(#pd8ff0ec316)" style="fill: #1f77b4; fill-opacity: 0.75; stroke: #ffffff; stroke-width: 0.304364; stroke-linejoin: miter"/>
   </g>
   <g id="patch_35">
    <path d="M 149.108387 173.52 
L 152.420724 173.52 
L 152.420724 152.73 
L 149.108387 152.73 
z
" clip-path="url(#pd8ff0ec316)" style="fill: #1f77b4; fill-opacity: 0.75; stroke: #ffffff; stroke-width: 0.304364; stroke-linejoin: miter"/>
   </g>
   <g id="patch_36">
    <path d="M 152.420724 173.52 
L 155.733062 173.52 
L 155.733062 160.353 
L 152.420724 160.353 
z
" clip-path="url(#pd8ff0ec316)" style="fill: #1f77b4; fill-opacity: 0.75; stroke: #ffffff; stroke-width: 0.304364; stroke-linejoin: miter"/>
   </g>
   <g id="patch_37">
    <path d="M 155.733062 173.52 
L 159.045399 173.52 
L 159.045399 150.651 
L 155.733062 150.651 
z
" clip-path="url(#pd8ff0ec316)" style="fill: #1f77b4; fill-opacity: 0.75; stroke: #ffffff; stroke-width: 0.304364; stroke-linejoin: miter"/>
   </g>
   <g id="patch_38">
    <path d="M 159.045399 173.52 
L 162.357736 173.52 
L 162.357736 161.046 
L 159.045399 161.046 
z
" clip-path="url(#pd8ff0ec316)" style="fill: #1f77b4; fill-opacity: 0.75; stroke: #ffffff; stroke-width: 0.304364; stroke-linejoin: miter"/>
   </g>
   <g id="patch_39">
    <path d="M 162.357736 173.52 
L 165.670073 173.52 
L 165.670073 169.362 
L 162.357736 169.362 
z
" clip-path="url(#pd8ff0ec316)" style="fill: #1f77b4; fill-opacity: 0.75; stroke: #ffffff; stroke-width: 0.304364; stroke-linejoin: miter"/>
   </g>
   <g id="patch_40">
    <path d="M 165.670073 173.52 
L 168.982411 173.52 
L 168.982411 163.125 
L 165.670073 163.125 
z
" clip-path="url(#pd8ff0ec316)" style="fill: #1f77b4; fill-opacity: 0.75; stroke: #ffffff; stroke-width: 0.304364; stroke-linejoin: miter"/>
   </g>
   <g id="patch_41">
    <path d="M 168.982411 173.52 
L 172.294748 173.52 
L 172.294748 160.353 
L 168.982411 160.353 
z
" clip-path="url(#pd8ff0ec316)" style="fill: #1f77b4; fill-opacity: 0.75; stroke: #ffffff; stroke-width: 0.304364; stroke-linejoin: miter"/>
   </g>
   <g id="patch_42">
    <path d="M 172.294748 173.52 
L 175.607085 173.52 
L 175.607085 163.818 
L 172.294748 163.818 
z
" clip-path="url(#pd8ff0ec316)" style="fill: #1f77b4; fill-opacity: 0.75; stroke: #ffffff; stroke-width: 0.304364; stroke-linejoin: miter"/>
   </g>
   <g id="patch_43">
    <path d="M 175.607085 173.52 
L 178.919423 173.52 
L 178.919423 163.125 
L 175.607085 163.125 
z
" clip-path="url(#pd8ff0ec316)" style="fill: #1f77b4; fill-opacity: 0.75; stroke: #ffffff; stroke-width: 0.304364; stroke-linejoin: miter"/>
   </g>
   <g id="patch_44">
    <path d="M 178.919423 173.52 
L 182.23176 173.52 
L 182.23176 163.125 
L 178.919423 163.125 
z
" clip-path="url(#pd8ff0ec316)" style="fill: #1f77b4; fill-opacity: 0.75; stroke: #ffffff; stroke-width: 0.304364; stroke-linejoin: miter"/>
   </g>
   <g id="patch_45">
    <path d="M 182.23176 173.52 
L 185.544097 173.52 
L 185.544097 170.748 
L 182.23176 170.748 
z
" clip-path="url(#pd8ff0ec316)" style="fill: #1f77b4; fill-opacity: 0.75; stroke: #ffffff; stroke-width: 0.304364; stroke-linejoin: miter"/>
   </g>
   <g id="patch_46">
    <path d="M 185.544097 173.52 
L 188.856434 173.52 
L 188.856434 172.134 
L 185.544097 172.134 
z
" clip-path="url(#pd8ff0ec316)" style="fill: #1f77b4; fill-opacity: 0.75; stroke: #ffffff; stroke-width: 0.304364; stroke-linejoin: miter"/>
   </g>
   <g id="patch_47">
    <path d="M 188.856434 173.52 
L 192.168772 173.52 
L 192.168772 171.441 
L 188.856434 171.441 
z
" clip-path="url(#pd8ff0ec316)" style="fill: #1f77b4; fill-opacity: 0.75; stroke: #ffffff; stroke-width: 0.304364; stroke-linejoin: miter"/>
   </g>
   <g id="patch_48">
    <path d="M 192.168772 173.52 
L 195.481109 173.52 
L 195.481109 172.827 
L 192.168772 172.827 
z
" clip-path="url(#pd8ff0ec316)" style="fill: #1f77b4; fill-opacity: 0.75; stroke: #ffffff; stroke-width: 0.304364; stroke-linejoin: miter"/>
   </g>
   <g id="patch_49">
    <path d="M 195.481109 173.52 
L 198.793446 173.52 
L 198.793446 173.52 
L 195.481109 173.52 
z
" clip-path="url(#pd8ff0ec316)" style="fill: #1f77b4; fill-opacity: 0.75; stroke: #ffffff; stroke-width: 0.304364; stroke-linejoin: miter"/>
   </g>
   <g id="patch_50">
    <path d="M 198.793446 173.52 
L 202.105784 173.52 
L 202.105784 173.52 
L 198.793446 173.52 
z
" clip-path="url(#pd8ff0ec316)" style="fill: #1f77b4; fill-opacity: 0.75; stroke: #ffffff; stroke-width: 0.304364; stroke-linejoin: miter"/>
   </g>
   <g id="patch_51">
    <path d="M 202.105784 173.52 
L 205.418121 173.52 
L 205.418121 173.52 
L 202.105784 173.52 
z
" clip-path="url(#pd8ff0ec316)" style="fill: #1f77b4; fill-opacity: 0.75; stroke: #ffffff; stroke-width: 0.304364; stroke-linejoin: miter"/>
   </g>
   <g id="patch_52">
    <path d="M 205.418121 173.52 
L 208.730458 173.52 
L 208.730458 172.827 
L 205.418121 172.827 
z
" clip-path="url(#pd8ff0ec316)" style="fill: #1f77b4; fill-opacity: 0.75; stroke: #ffffff; stroke-width: 0.304364; stroke-linejoin: miter"/>
   </g>
   <g id="line2d_12">
    <path d="M 71.068198 173.52 
L 71.068198 7.2 
" clip-path="url(#pd8ff0ec316)" style="fill: none; stroke: #d62728; stroke-width: 0.5; stroke-linecap: round"/>
   </g>
   <g id="line2d_13">
    <path d="M 130.47206 173.52 
L 130.47206 7.2 
" clip-path="url(#pd8ff0ec316)" style="fill: none; stroke: #d62728; stroke-width: 0.5; stroke-linecap: round"/>
   </g>
   <g id="patch_53">
    <path d="M 43.113594 173.52 
L 43.113594 7.2 
" style="fill: none; stroke: #000000; stroke-width: 1.2; stroke-linejoin: miter; stroke-linecap: square"/>
   </g>
   <g id="patch_54">
    <path d="M 210.513594 173.52 
L 210.513594 7.2 
" style="fill: none; stroke: #000000; stroke-width: 1.2; stroke-linejoin: miter; stroke-linecap: square"/>
   </g>
   <g id="patch_55">
    <path d="M 43.113594 173.52 
L 210.513594 173.52 
" style="fill: none; stroke: #000000; stroke-width: 1.2; stroke-linejoin: miter; stroke-linecap: square"/>
   </g>
   <g id="patch_56">
    <path d="M 43.113594 7.2 
L 210.513594 7.2 
" style="fill: none; stroke: #000000; stroke-width: 1.2; stroke-linejoin: miter; stroke-linecap: square"/>
   </g>
  </g>
 </g>
 <defs>
  <clipPath id="pd8ff0ec316">
   <rect x="43.113594" y="7.2" width="167.4" height="166.32"/>
  </clipPath>
 </defs>
</svg>
