<?xml version="1.0" encoding="utf-8" standalone="no"?>
<!DOCTYPE svg PUBLIC "-//W3C//DTD SVG 1.1//EN"
  "http://www.w3.org/Graphics/SVG/1.1/DTD/svg11.dtd">
<svg xmlns:xlink="http://www.w3.org/1999/xlink" width="266.738906pt" height="155.485156pt" viewBox="0 0 266.738906 155.485156" xmlns="http://www.w3.org/2000/svg" version="1.1">
 <metadata>
  <rdf:RDF xmlns:dc="http://purl.org/dc/elements/1.1/" xmlns:cc="http://creativecommons.org/ns#" xmlns:rdf="http://www.w3.org/1999/02/22-rdf-syntax-ns#">
   <cc:Work>
    <dc:type rdf:resource="http://purl.org/dc/dcmitype/StillImage"/>
    <dc:date>2022-12-01T15:23:18.964084</dc:date>
    <dc:format>image/svg+xml</dc:format>
    <dc:creator>
     <cc:Agent>
      <dc:title>Matplotlib v3.6.2, https://matplotlib.org/</dc:title>
     </cc:Agent>
    </dc:creator>
   </cc:Work>
  </rdf:RDF>
 </metadata>
 <defs>
  <style type="text/css">*{stroke-linejoin: round; stroke-linecap: butt}</style>
 </defs>
 <g id="figure_1">
  <g id="patch_1">
   <path d="M 0 155.485156 
L 266.738906 155.485156 
L 266.738906 0 
L 0 0 
z
" style="fill: #ffffff"/>
  </g>
  <g id="axes_1">
   <g id="patch_2">
    <path d="M 56.064531 118.08 
L 223.464531 118.08 
L 223.464531 7.2 
L 56.064531 7.2 
z
" style="fill: #ffffff"/>
   </g>
   <g id="matplotlib.axis_1">
    <g id="xtick_1">
     <g id="line2d_1">
      <defs>
       <path id="ma2286d4313" d="M 0 0 
L 0 3.5 
" style="stroke: #262626; stroke-width: 0.8"/>
      </defs>
      <g>
       <use xlink:href="#ma2286d4313" x="80.582713" y="118.08" style="fill: #262626; stroke: #262626; stroke-width: 0.8"/>
      </g>
     </g>
     <g id="text_1">
      <!-- 0.6 -->
      <g style="fill: #262626" transform="translate(73.632713 132.237812) scale(0.1 -0.1)">
       <defs>
        <path id="ArialMT-30" d="M 266 2259 
Q 266 3072 433 3567 
Q 600 4063 929 4331 
Q 1259 4600 1759 4600 
Q 2128 4600 2406 4451 
Q 2684 4303 2865 4023 
Q 3047 3744 3150 3342 
Q 3253 2941 3253 2259 
Q 3253 1453 3087 958 
Q 2922 463 2592 192 
Q 2263 -78 1759 -78 
Q 1097 -78 719 397 
Q 266 969 266 2259 
z
M 844 2259 
Q 844 1131 1108 757 
Q 1372 384 1759 384 
Q 2147 384 2411 759 
Q 2675 1134 2675 2259 
Q 2675 3391 2411 3762 
Q 2147 4134 1753 4134 
Q 1366 4134 1134 3806 
Q 844 3388 844 2259 
z
" transform="scale(0.015625)"/>
        <path id="ArialMT-2e" d="M 581 0 
L 581 641 
L 1222 641 
L 1222 0 
L 581 0 
z
" transform="scale(0.015625)"/>
        <path id="ArialMT-36" d="M 3184 3459 
L 2625 3416 
Q 2550 3747 2413 3897 
Q 2184 4138 1850 4138 
Q 1581 4138 1378 3988 
Q 1113 3794 959 3422 
Q 806 3050 800 2363 
Q 1003 2672 1297 2822 
Q 1591 2972 1913 2972 
Q 2475 2972 2870 2558 
Q 3266 2144 3266 1488 
Q 3266 1056 3080 686 
Q 2894 316 2569 119 
Q 2244 -78 1831 -78 
Q 1128 -78 684 439 
Q 241 956 241 2144 
Q 241 3472 731 4075 
Q 1159 4600 1884 4600 
Q 2425 4600 2770 4297 
Q 3116 3994 3184 3459 
z
M 888 1484 
Q 888 1194 1011 928 
Q 1134 663 1356 523 
Q 1578 384 1822 384 
Q 2178 384 2434 671 
Q 2691 959 2691 1453 
Q 2691 1928 2437 2201 
Q 2184 2475 1800 2475 
Q 1419 2475 1153 2201 
Q 888 1928 888 1484 
z
" transform="scale(0.015625)"/>
       </defs>
       <use xlink:href="#ArialMT-30"/>
       <use xlink:href="#ArialMT-2e" x="55.615234"/>
       <use xlink:href="#ArialMT-36" x="83.398438"/>
      </g>
     </g>
    </g>
    <g id="xtick_2">
     <g id="line2d_2">
      <g>
       <use xlink:href="#ma2286d4313" x="114.400895" y="118.08" style="fill: #262626; stroke: #262626; stroke-width: 0.8"/>
      </g>
     </g>
     <g id="text_2">
      <!-- 0.7 -->
      <g style="fill: #262626" transform="translate(107.450895 132.237812) scale(0.1 -0.1)">
       <defs>
        <path id="ArialMT-37" d="M 303 3981 
L 303 4522 
L 3269 4522 
L 3269 4084 
Q 2831 3619 2401 2847 
Q 1972 2075 1738 1259 
Q 1569 684 1522 0 
L 944 0 
Q 953 541 1156 1306 
Q 1359 2072 1739 2783 
Q 2119 3494 2547 3981 
L 303 3981 
z
" transform="scale(0.015625)"/>
       </defs>
       <use xlink:href="#ArialMT-30"/>
       <use xlink:href="#ArialMT-2e" x="55.615234"/>
       <use xlink:href="#ArialMT-37" x="83.398438"/>
      </g>
     </g>
    </g>
    <g id="xtick_3">
     <g id="line2d_3">
      <g>
       <use xlink:href="#ma2286d4313" x="148.219077" y="118.08" style="fill: #262626; stroke: #262626; stroke-width: 0.8"/>
      </g>
     </g>
     <g id="text_3">
      <!-- 0.8 -->
      <g style="fill: #262626" transform="translate(141.269077 132.237812) scale(0.1 -0.1)">
       <defs>
        <path id="ArialMT-38" d="M 1131 2484 
Q 781 2613 612 2850 
Q 444 3088 444 3419 
Q 444 3919 803 4259 
Q 1163 4600 1759 4600 
Q 2359 4600 2725 4251 
Q 3091 3903 3091 3403 
Q 3091 3084 2923 2848 
Q 2756 2613 2416 2484 
Q 2838 2347 3058 2040 
Q 3278 1734 3278 1309 
Q 3278 722 2862 322 
Q 2447 -78 1769 -78 
Q 1091 -78 675 323 
Q 259 725 259 1325 
Q 259 1772 486 2073 
Q 713 2375 1131 2484 
z
M 1019 3438 
Q 1019 3113 1228 2906 
Q 1438 2700 1772 2700 
Q 2097 2700 2305 2904 
Q 2513 3109 2513 3406 
Q 2513 3716 2298 3927 
Q 2084 4138 1766 4138 
Q 1444 4138 1231 3931 
Q 1019 3725 1019 3438 
z
M 838 1322 
Q 838 1081 952 856 
Q 1066 631 1291 507 
Q 1516 384 1775 384 
Q 2178 384 2440 643 
Q 2703 903 2703 1303 
Q 2703 1709 2433 1975 
Q 2163 2241 1756 2241 
Q 1359 2241 1098 1978 
Q 838 1716 838 1322 
z
" transform="scale(0.015625)"/>
       </defs>
       <use xlink:href="#ArialMT-30"/>
       <use xlink:href="#ArialMT-2e" x="55.615234"/>
       <use xlink:href="#ArialMT-38" x="83.398438"/>
      </g>
     </g>
    </g>
    <g id="xtick_4">
     <g id="line2d_4">
      <g>
       <use xlink:href="#ma2286d4313" x="182.037259" y="118.08" style="fill: #262626; stroke: #262626; stroke-width: 0.8"/>
      </g>
     </g>
     <g id="text_4">
      <!-- 0.9 -->
      <g style="fill: #262626" transform="translate(175.087259 132.237812) scale(0.1 -0.1)">
       <defs>
        <path id="ArialMT-39" d="M 350 1059 
L 891 1109 
Q 959 728 1153 556 
Q 1347 384 1650 384 
Q 1909 384 2104 503 
Q 2300 622 2425 820 
Q 2550 1019 2634 1356 
Q 2719 1694 2719 2044 
Q 2719 2081 2716 2156 
Q 2547 1888 2255 1720 
Q 1963 1553 1622 1553 
Q 1053 1553 659 1965 
Q 266 2378 266 3053 
Q 266 3750 677 4175 
Q 1088 4600 1706 4600 
Q 2153 4600 2523 4359 
Q 2894 4119 3086 3673 
Q 3278 3228 3278 2384 
Q 3278 1506 3087 986 
Q 2897 466 2520 194 
Q 2144 -78 1638 -78 
Q 1100 -78 759 220 
Q 419 519 350 1059 
z
M 2653 3081 
Q 2653 3566 2395 3850 
Q 2138 4134 1775 4134 
Q 1400 4134 1122 3828 
Q 844 3522 844 3034 
Q 844 2597 1108 2323 
Q 1372 2050 1759 2050 
Q 2150 2050 2401 2323 
Q 2653 2597 2653 3081 
z
" transform="scale(0.015625)"/>
       </defs>
       <use xlink:href="#ArialMT-30"/>
       <use xlink:href="#ArialMT-2e" x="55.615234"/>
       <use xlink:href="#ArialMT-39" x="83.398438"/>
      </g>
     </g>
    </g>
    <g id="xtick_5">
     <g id="line2d_5">
      <g>
       <use xlink:href="#ma2286d4313" x="215.85544" y="118.08" style="fill: #262626; stroke: #262626; stroke-width: 0.8"/>
      </g>
     </g>
     <g id="text_5">
      <!-- 1.0 -->
      <g style="fill: #262626" transform="translate(208.90544 132.237812) scale(0.1 -0.1)">
       <defs>
        <path id="ArialMT-31" d="M 2384 0 
L 1822 0 
L 1822 3584 
Q 1619 3391 1289 3197 
Q 959 3003 697 2906 
L 697 3450 
Q 1169 3672 1522 3987 
Q 1875 4303 2022 4600 
L 2384 4600 
L 2384 0 
z
" transform="scale(0.015625)"/>
       </defs>
       <use xlink:href="#ArialMT-31"/>
       <use xlink:href="#ArialMT-2e" x="55.615234"/>
       <use xlink:href="#ArialMT-30" x="83.398438"/>
      </g>
     </g>
    </g>
    <g id="text_6">
     <!-- Pearson's r -->
     <g style="fill: #262626" transform="translate(112.121016 146.098906) scale(0.11 -0.11)">
      <defs>
       <path id="ArialMT-50" d="M 494 0 
L 494 4581 
L 2222 4581 
Q 2678 4581 2919 4538 
Q 3256 4481 3484 4323 
Q 3713 4166 3852 3881 
Q 3991 3597 3991 3256 
Q 3991 2672 3619 2267 
Q 3247 1863 2275 1863 
L 1100 1863 
L 1100 0 
L 494 0 
z
M 1100 2403 
L 2284 2403 
Q 2872 2403 3119 2622 
Q 3366 2841 3366 3238 
Q 3366 3525 3220 3729 
Q 3075 3934 2838 4000 
Q 2684 4041 2272 4041 
L 1100 4041 
L 1100 2403 
z
" transform="scale(0.015625)"/>
       <path id="ArialMT-65" d="M 2694 1069 
L 3275 997 
Q 3138 488 2766 206 
Q 2394 -75 1816 -75 
Q 1088 -75 661 373 
Q 234 822 234 1631 
Q 234 2469 665 2931 
Q 1097 3394 1784 3394 
Q 2450 3394 2872 2941 
Q 3294 2488 3294 1666 
Q 3294 1616 3291 1516 
L 816 1516 
Q 847 969 1125 678 
Q 1403 388 1819 388 
Q 2128 388 2347 550 
Q 2566 713 2694 1069 
z
M 847 1978 
L 2700 1978 
Q 2663 2397 2488 2606 
Q 2219 2931 1791 2931 
Q 1403 2931 1139 2672 
Q 875 2413 847 1978 
z
" transform="scale(0.015625)"/>
       <path id="ArialMT-61" d="M 2588 409 
Q 2275 144 1986 34 
Q 1697 -75 1366 -75 
Q 819 -75 525 192 
Q 231 459 231 875 
Q 231 1119 342 1320 
Q 453 1522 633 1644 
Q 813 1766 1038 1828 
Q 1203 1872 1538 1913 
Q 2219 1994 2541 2106 
Q 2544 2222 2544 2253 
Q 2544 2597 2384 2738 
Q 2169 2928 1744 2928 
Q 1347 2928 1158 2789 
Q 969 2650 878 2297 
L 328 2372 
Q 403 2725 575 2942 
Q 747 3159 1072 3276 
Q 1397 3394 1825 3394 
Q 2250 3394 2515 3294 
Q 2781 3194 2906 3042 
Q 3031 2891 3081 2659 
Q 3109 2516 3109 2141 
L 3109 1391 
Q 3109 606 3145 398 
Q 3181 191 3288 0 
L 2700 0 
Q 2613 175 2588 409 
z
M 2541 1666 
Q 2234 1541 1622 1453 
Q 1275 1403 1131 1340 
Q 988 1278 909 1158 
Q 831 1038 831 891 
Q 831 666 1001 516 
Q 1172 366 1500 366 
Q 1825 366 2078 508 
Q 2331 650 2450 897 
Q 2541 1088 2541 1459 
L 2541 1666 
z
" transform="scale(0.015625)"/>
       <path id="ArialMT-72" d="M 416 0 
L 416 3319 
L 922 3319 
L 922 2816 
Q 1116 3169 1280 3281 
Q 1444 3394 1641 3394 
Q 1925 3394 2219 3213 
L 2025 2691 
Q 1819 2813 1613 2813 
Q 1428 2813 1281 2702 
Q 1134 2591 1072 2394 
Q 978 2094 978 1738 
L 978 0 
L 416 0 
z
" transform="scale(0.015625)"/>
       <path id="ArialMT-73" d="M 197 991 
L 753 1078 
Q 800 744 1014 566 
Q 1228 388 1613 388 
Q 2000 388 2187 545 
Q 2375 703 2375 916 
Q 2375 1106 2209 1216 
Q 2094 1291 1634 1406 
Q 1016 1563 777 1677 
Q 538 1791 414 1992 
Q 291 2194 291 2438 
Q 291 2659 392 2848 
Q 494 3038 669 3163 
Q 800 3259 1026 3326 
Q 1253 3394 1513 3394 
Q 1903 3394 2198 3281 
Q 2494 3169 2634 2976 
Q 2775 2784 2828 2463 
L 2278 2388 
Q 2241 2644 2061 2787 
Q 1881 2931 1553 2931 
Q 1166 2931 1000 2803 
Q 834 2675 834 2503 
Q 834 2394 903 2306 
Q 972 2216 1119 2156 
Q 1203 2125 1616 2013 
Q 2213 1853 2448 1751 
Q 2684 1650 2818 1456 
Q 2953 1263 2953 975 
Q 2953 694 2789 445 
Q 2625 197 2315 61 
Q 2006 -75 1616 -75 
Q 969 -75 630 194 
Q 291 463 197 991 
z
" transform="scale(0.015625)"/>
       <path id="ArialMT-6f" d="M 213 1659 
Q 213 2581 725 3025 
Q 1153 3394 1769 3394 
Q 2453 3394 2887 2945 
Q 3322 2497 3322 1706 
Q 3322 1066 3130 698 
Q 2938 331 2570 128 
Q 2203 -75 1769 -75 
Q 1072 -75 642 372 
Q 213 819 213 1659 
z
M 791 1659 
Q 791 1022 1069 705 
Q 1347 388 1769 388 
Q 2188 388 2466 706 
Q 2744 1025 2744 1678 
Q 2744 2294 2464 2611 
Q 2184 2928 1769 2928 
Q 1347 2928 1069 2612 
Q 791 2297 791 1659 
z
" transform="scale(0.015625)"/>
       <path id="ArialMT-6e" d="M 422 0 
L 422 3319 
L 928 3319 
L 928 2847 
Q 1294 3394 1984 3394 
Q 2284 3394 2536 3286 
Q 2788 3178 2913 3003 
Q 3038 2828 3088 2588 
Q 3119 2431 3119 2041 
L 3119 0 
L 2556 0 
L 2556 2019 
Q 2556 2363 2490 2533 
Q 2425 2703 2258 2804 
Q 2091 2906 1866 2906 
Q 1506 2906 1245 2678 
Q 984 2450 984 1813 
L 984 0 
L 422 0 
z
" transform="scale(0.015625)"/>
       <path id="ArialMT-27" d="M 425 2959 
L 281 3816 
L 281 4581 
L 922 4581 
L 922 3816 
L 772 2959 
L 425 2959 
z
" transform="scale(0.015625)"/>
       <path id="ArialMT-20" transform="scale(0.015625)"/>
      </defs>
      <use xlink:href="#ArialMT-50"/>
      <use xlink:href="#ArialMT-65" x="66.699219"/>
      <use xlink:href="#ArialMT-61" x="122.314453"/>
      <use xlink:href="#ArialMT-72" x="177.929688"/>
      <use xlink:href="#ArialMT-73" x="211.230469"/>
      <use xlink:href="#ArialMT-6f" x="261.230469"/>
      <use xlink:href="#ArialMT-6e" x="316.845703"/>
      <use xlink:href="#ArialMT-27" x="372.460938"/>
      <use xlink:href="#ArialMT-73" x="391.552734"/>
      <use xlink:href="#ArialMT-20" x="441.552734"/>
      <use xlink:href="#ArialMT-72" x="469.335938"/>
     </g>
    </g>
   </g>
   <g id="matplotlib.axis_2">
    <g id="ytick_1">
     <g id="line2d_6">
      <defs>
       <path id="m605928a6f7" d="M 0 0 
L -3.5 0 
" style="stroke: #262626; stroke-width: 0.8"/>
      </defs>
      <g>
       <use xlink:href="#m605928a6f7" x="56.064531" y="118.08" style="fill: #262626; stroke: #262626; stroke-width: 0.8"/>
      </g>
     </g>
     <g id="text_7">
      <!-- 0 -->
      <g style="fill: #262626" transform="translate(43.503594 121.658906) scale(0.1 -0.1)">
       <use xlink:href="#ArialMT-30"/>
      </g>
     </g>
    </g>
    <g id="ytick_2">
     <g id="line2d_7">
      <g>
       <use xlink:href="#m605928a6f7" x="56.064531" y="83.400197" style="fill: #262626; stroke: #262626; stroke-width: 0.8"/>
      </g>
     </g>
     <g id="text_8">
      <!-- 10000 -->
      <g style="fill: #262626" transform="translate(21.259844 86.979103) scale(0.1 -0.1)">
       <use xlink:href="#ArialMT-31"/>
       <use xlink:href="#ArialMT-30" x="55.615234"/>
       <use xlink:href="#ArialMT-30" x="111.230469"/>
       <use xlink:href="#ArialMT-30" x="166.845703"/>
       <use xlink:href="#ArialMT-30" x="222.460938"/>
      </g>
     </g>
    </g>
    <g id="ytick_3">
     <g id="line2d_8">
      <g>
       <use xlink:href="#m605928a6f7" x="56.064531" y="48.720394" style="fill: #262626; stroke: #262626; stroke-width: 0.8"/>
      </g>
     </g>
     <g id="text_9">
      <!-- 20000 -->
      <g style="fill: #262626" transform="translate(21.259844 52.2993) scale(0.1 -0.1)">
       <defs>
        <path id="ArialMT-32" d="M 3222 541 
L 3222 0 
L 194 0 
Q 188 203 259 391 
Q 375 700 629 1000 
Q 884 1300 1366 1694 
Q 2113 2306 2375 2664 
Q 2638 3022 2638 3341 
Q 2638 3675 2398 3904 
Q 2159 4134 1775 4134 
Q 1369 4134 1125 3890 
Q 881 3647 878 3216 
L 300 3275 
Q 359 3922 746 4261 
Q 1134 4600 1788 4600 
Q 2447 4600 2831 4234 
Q 3216 3869 3216 3328 
Q 3216 3053 3103 2787 
Q 2991 2522 2730 2228 
Q 2469 1934 1863 1422 
Q 1356 997 1212 845 
Q 1069 694 975 541 
L 3222 541 
z
" transform="scale(0.015625)"/>
       </defs>
       <use xlink:href="#ArialMT-32"/>
       <use xlink:href="#ArialMT-30" x="55.615234"/>
       <use xlink:href="#ArialMT-30" x="111.230469"/>
       <use xlink:href="#ArialMT-30" x="166.845703"/>
       <use xlink:href="#ArialMT-30" x="222.460938"/>
      </g>
     </g>
    </g>
    <g id="ytick_4">
     <g id="line2d_9">
      <g>
       <use xlink:href="#m605928a6f7" x="56.064531" y="14.040591" style="fill: #262626; stroke: #262626; stroke-width: 0.8"/>
      </g>
     </g>
     <g id="text_10">
      <!-- 30000 -->
      <g style="fill: #262626" transform="translate(21.259844 17.619497) scale(0.1 -0.1)">
       <defs>
        <path id="ArialMT-33" d="M 269 1209 
L 831 1284 
Q 928 806 1161 595 
Q 1394 384 1728 384 
Q 2125 384 2398 659 
Q 2672 934 2672 1341 
Q 2672 1728 2419 1979 
Q 2166 2231 1775 2231 
Q 1616 2231 1378 2169 
L 1441 2663 
Q 1497 2656 1531 2656 
Q 1891 2656 2178 2843 
Q 2466 3031 2466 3422 
Q 2466 3731 2256 3934 
Q 2047 4138 1716 4138 
Q 1388 4138 1169 3931 
Q 950 3725 888 3313 
L 325 3413 
Q 428 3978 793 4289 
Q 1159 4600 1703 4600 
Q 2078 4600 2393 4439 
Q 2709 4278 2876 4000 
Q 3044 3722 3044 3409 
Q 3044 3113 2884 2869 
Q 2725 2625 2413 2481 
Q 2819 2388 3044 2092 
Q 3269 1797 3269 1353 
Q 3269 753 2831 336 
Q 2394 -81 1725 -81 
Q 1122 -81 723 278 
Q 325 638 269 1209 
z
" transform="scale(0.015625)"/>
       </defs>
       <use xlink:href="#ArialMT-33"/>
       <use xlink:href="#ArialMT-30" x="55.615234"/>
       <use xlink:href="#ArialMT-30" x="111.230469"/>
       <use xlink:href="#ArialMT-30" x="166.845703"/>
       <use xlink:href="#ArialMT-30" x="222.460938"/>
      </g>
     </g>
    </g>
    <g id="text_11">
     <!-- Non-Replicate Pairs -->
     <g style="fill: #262626" transform="translate(15.073594 111.547031) rotate(-90) scale(0.11 -0.11)">
      <defs>
       <path id="ArialMT-4e" d="M 488 0 
L 488 4581 
L 1109 4581 
L 3516 984 
L 3516 4581 
L 4097 4581 
L 4097 0 
L 3475 0 
L 1069 3600 
L 1069 0 
L 488 0 
z
" transform="scale(0.015625)"/>
       <path id="ArialMT-2d" d="M 203 1375 
L 203 1941 
L 1931 1941 
L 1931 1375 
L 203 1375 
z
" transform="scale(0.015625)"/>
       <path id="ArialMT-52" d="M 503 0 
L 503 4581 
L 2534 4581 
Q 3147 4581 3465 4457 
Q 3784 4334 3975 4021 
Q 4166 3709 4166 3331 
Q 4166 2844 3850 2509 
Q 3534 2175 2875 2084 
Q 3116 1969 3241 1856 
Q 3506 1613 3744 1247 
L 4541 0 
L 3778 0 
L 3172 953 
Q 2906 1366 2734 1584 
Q 2563 1803 2427 1890 
Q 2291 1978 2150 2013 
Q 2047 2034 1813 2034 
L 1109 2034 
L 1109 0 
L 503 0 
z
M 1109 2559 
L 2413 2559 
Q 2828 2559 3062 2645 
Q 3297 2731 3419 2920 
Q 3541 3109 3541 3331 
Q 3541 3656 3305 3865 
Q 3069 4075 2559 4075 
L 1109 4075 
L 1109 2559 
z
" transform="scale(0.015625)"/>
       <path id="ArialMT-70" d="M 422 -1272 
L 422 3319 
L 934 3319 
L 934 2888 
Q 1116 3141 1344 3267 
Q 1572 3394 1897 3394 
Q 2322 3394 2647 3175 
Q 2972 2956 3137 2557 
Q 3303 2159 3303 1684 
Q 3303 1175 3120 767 
Q 2938 359 2589 142 
Q 2241 -75 1856 -75 
Q 1575 -75 1351 44 
Q 1128 163 984 344 
L 984 -1272 
L 422 -1272 
z
M 931 1641 
Q 931 1000 1190 694 
Q 1450 388 1819 388 
Q 2194 388 2461 705 
Q 2728 1022 2728 1688 
Q 2728 2322 2467 2637 
Q 2206 2953 1844 2953 
Q 1484 2953 1207 2617 
Q 931 2281 931 1641 
z
" transform="scale(0.015625)"/>
       <path id="ArialMT-6c" d="M 409 0 
L 409 4581 
L 972 4581 
L 972 0 
L 409 0 
z
" transform="scale(0.015625)"/>
       <path id="ArialMT-69" d="M 425 3934 
L 425 4581 
L 988 4581 
L 988 3934 
L 425 3934 
z
M 425 0 
L 425 3319 
L 988 3319 
L 988 0 
L 425 0 
z
" transform="scale(0.015625)"/>
       <path id="ArialMT-63" d="M 2588 1216 
L 3141 1144 
Q 3050 572 2676 248 
Q 2303 -75 1759 -75 
Q 1078 -75 664 370 
Q 250 816 250 1647 
Q 250 2184 428 2587 
Q 606 2991 970 3192 
Q 1334 3394 1763 3394 
Q 2303 3394 2647 3120 
Q 2991 2847 3088 2344 
L 2541 2259 
Q 2463 2594 2264 2762 
Q 2066 2931 1784 2931 
Q 1359 2931 1093 2626 
Q 828 2322 828 1663 
Q 828 994 1084 691 
Q 1341 388 1753 388 
Q 2084 388 2306 591 
Q 2528 794 2588 1216 
z
" transform="scale(0.015625)"/>
       <path id="ArialMT-74" d="M 1650 503 
L 1731 6 
Q 1494 -44 1306 -44 
Q 1000 -44 831 53 
Q 663 150 594 308 
Q 525 466 525 972 
L 525 2881 
L 113 2881 
L 113 3319 
L 525 3319 
L 525 4141 
L 1084 4478 
L 1084 3319 
L 1650 3319 
L 1650 2881 
L 1084 2881 
L 1084 941 
Q 1084 700 1114 631 
Q 1144 563 1211 522 
Q 1278 481 1403 481 
Q 1497 481 1650 503 
z
" transform="scale(0.015625)"/>
      </defs>
      <use xlink:href="#ArialMT-4e"/>
      <use xlink:href="#ArialMT-6f" x="72.216797"/>
      <use xlink:href="#ArialMT-6e" x="127.832031"/>
      <use xlink:href="#ArialMT-2d" x="183.447266"/>
      <use xlink:href="#ArialMT-52" x="216.748047"/>
      <use xlink:href="#ArialMT-65" x="288.964844"/>
      <use xlink:href="#ArialMT-70" x="344.580078"/>
      <use xlink:href="#ArialMT-6c" x="400.195312"/>
      <use xlink:href="#ArialMT-69" x="422.412109"/>
      <use xlink:href="#ArialMT-63" x="444.628906"/>
      <use xlink:href="#ArialMT-61" x="494.628906"/>
      <use xlink:href="#ArialMT-74" x="550.244141"/>
      <use xlink:href="#ArialMT-65" x="578.027344"/>
      <use xlink:href="#ArialMT-20" x="633.642578"/>
      <use xlink:href="#ArialMT-50" x="661.425781"/>
      <use xlink:href="#ArialMT-61" x="728.125"/>
      <use xlink:href="#ArialMT-69" x="783.740234"/>
      <use xlink:href="#ArialMT-72" x="805.957031"/>
      <use xlink:href="#ArialMT-73" x="839.257812"/>
     </g>
    </g>
   </g>
   <g id="patch_3">
    <path d="M 63.673622 118.08 
L 66.717259 118.08 
L 66.717259 117.795626 
L 63.673622 117.795626 
z
" clip-path="url(#p397a95da90)" style="fill: #a9a9a9; opacity: 0.9"/>
   </g>
   <g id="patch_4">
    <path d="M 66.717259 118.08 
L 69.760895 118.08 
L 69.760895 117.68465 
L 66.717259 117.68465 
z
" clip-path="url(#p397a95da90)" style="fill: #a9a9a9; opacity: 0.9"/>
   </g>
   <g id="patch_5">
    <path d="M 69.760895 118.08 
L 72.804531 118.08 
L 72.804531 117.708926 
L 69.760895 117.708926 
z
" clip-path="url(#p397a95da90)" style="fill: #a9a9a9; opacity: 0.9"/>
   </g>
   <g id="patch_6">
    <path d="M 72.804531 118.08 
L 75.848168 118.08 
L 75.848168 117.452296 
L 72.804531 117.452296 
z
" clip-path="url(#p397a95da90)" style="fill: #a9a9a9; opacity: 0.9"/>
   </g>
   <g id="patch_7">
    <path d="M 75.848168 118.08 
L 78.891804 118.08 
L 78.891804 117.226877 
L 75.848168 117.226877 
z
" clip-path="url(#p397a95da90)" style="fill: #a9a9a9; opacity: 0.9"/>
   </g>
   <g id="patch_8">
    <path d="M 78.891804 118.08 
L 81.93544 118.08 
L 81.93544 117.056946 
L 78.891804 117.056946 
z
" clip-path="url(#p397a95da90)" style="fill: #a9a9a9; opacity: 0.9"/>
   </g>
   <g id="patch_9">
    <path d="M 81.93544 118.08 
L 84.979077 118.08 
L 84.979077 116.678936 
L 81.93544 116.678936 
z
" clip-path="url(#p397a95da90)" style="fill: #a9a9a9; opacity: 0.9"/>
   </g>
   <g id="patch_10">
    <path d="M 84.979077 118.08 
L 88.022713 118.08 
L 88.022713 115.805005 
L 84.979077 115.805005 
z
" clip-path="url(#p397a95da90)" style="fill: #a9a9a9; opacity: 0.9"/>
   </g>
   <g id="patch_11">
    <path d="M 88.022713 118.08 
L 91.066349 118.08 
L 91.066349 114.220138 
L 88.022713 114.220138 
z
" clip-path="url(#p397a95da90)" style="fill: #a9a9a9; opacity: 0.9"/>
   </g>
   <g id="patch_12">
    <path d="M 91.066349 118.08 
L 94.109986 118.08 
L 94.109986 112.936985 
L 91.066349 112.936985 
z
" clip-path="url(#p397a95da90)" style="fill: #a9a9a9; opacity: 0.9"/>
   </g>
   <g id="patch_13">
    <path d="M 94.109986 118.08 
L 97.153622 118.08 
L 97.153622 112.541635 
L 94.109986 112.541635 
z
" clip-path="url(#p397a95da90)" style="fill: #a9a9a9; opacity: 0.9"/>
   </g>
   <g id="patch_14">
    <path d="M 97.153622 118.08 
L 100.197259 118.08 
L 100.197259 111.012256 
L 97.153622 111.012256 
z
" clip-path="url(#p397a95da90)" style="fill: #a9a9a9; opacity: 0.9"/>
   </g>
   <g id="patch_15">
    <path d="M 100.197259 118.08 
L 103.240895 118.08 
L 103.240895 109.281734 
L 100.197259 109.281734 
z
" clip-path="url(#p397a95da90)" style="fill: #a9a9a9; opacity: 0.9"/>
   </g>
   <g id="patch_16">
    <path d="M 103.240895 118.08 
L 106.284531 118.08 
L 106.284531 107.762759 
L 103.240895 107.762759 
z
" clip-path="url(#p397a95da90)" style="fill: #a9a9a9; opacity: 0.9"/>
   </g>
   <g id="patch_17">
    <path d="M 106.284531 118.08 
L 109.328168 118.08 
L 109.328168 106.337419 
L 106.284531 106.337419 
z
" clip-path="url(#p397a95da90)" style="fill: #a9a9a9; opacity: 0.9"/>
   </g>
   <g id="patch_18">
    <path d="M 109.328168 118.08 
L 112.371804 118.08 
L 112.371804 104.6173 
L 109.328168 104.6173 
z
" clip-path="url(#p397a95da90)" style="fill: #a9a9a9; opacity: 0.9"/>
   </g>
   <g id="patch_19">
    <path d="M 112.371804 118.08 
L 115.41544 118.08 
L 115.41544 101.666049 
L 112.371804 101.666049 
z
" clip-path="url(#p397a95da90)" style="fill: #a9a9a9; opacity: 0.9"/>
   </g>
   <g id="patch_20">
    <path d="M 115.41544 118.08 
L 118.459077 118.08 
L 118.459077 99.699704 
L 115.41544 99.699704 
z
" clip-path="url(#p397a95da90)" style="fill: #a9a9a9; opacity: 0.9"/>
   </g>
   <g id="patch_21">
    <path d="M 118.459077 118.08 
L 121.502713 118.08 
L 121.502713 101.145852 
L 118.459077 101.145852 
z
" clip-path="url(#p397a95da90)" style="fill: #a9a9a9; opacity: 0.9"/>
   </g>
   <g id="patch_22">
    <path d="M 121.502713 118.08 
L 124.546349 118.08 
L 124.546349 102.914522 
L 121.502713 102.914522 
z
" clip-path="url(#p397a95da90)" style="fill: #a9a9a9; opacity: 0.9"/>
   </g>
   <g id="patch_23">
    <path d="M 124.546349 118.08 
L 127.589986 118.08 
L 127.589986 104.117911 
L 124.546349 104.117911 
z
" clip-path="url(#p397a95da90)" style="fill: #a9a9a9; opacity: 0.9"/>
   </g>
   <g id="patch_24">
    <path d="M 127.589986 118.08 
L 130.633622 118.08 
L 130.633622 103.98266 
L 127.589986 103.98266 
z
" clip-path="url(#p397a95da90)" style="fill: #a9a9a9; opacity: 0.9"/>
   </g>
   <g id="patch_25">
    <path d="M 130.633622 118.08 
L 133.677259 118.08 
L 133.677259 101.041813 
L 130.633622 101.041813 
z
" clip-path="url(#p397a95da90)" style="fill: #a9a9a9; opacity: 0.9"/>
   </g>
   <g id="patch_26">
    <path d="M 133.677259 118.08 
L 136.720895 118.08 
L 136.720895 97.830463 
L 133.677259 97.830463 
z
" clip-path="url(#p397a95da90)" style="fill: #a9a9a9; opacity: 0.9"/>
   </g>
   <g id="patch_27">
    <path d="M 136.720895 118.08 
L 139.764531 118.08 
L 139.764531 93.37064 
L 136.720895 93.37064 
z
" clip-path="url(#p397a95da90)" style="fill: #a9a9a9; opacity: 0.9"/>
   </g>
   <g id="patch_28">
    <path d="M 139.764531 118.08 
L 142.808168 118.08 
L 142.808168 87.683153 
L 139.764531 87.683153 
z
" clip-path="url(#p397a95da90)" style="fill: #a9a9a9; opacity: 0.9"/>
   </g>
   <g id="patch_29">
    <path d="M 142.808168 118.08 
L 145.851804 118.08 
L 145.851804 81.693951 
L 142.808168 81.693951 
z
" clip-path="url(#p397a95da90)" style="fill: #a9a9a9; opacity: 0.9"/>
   </g>
   <g id="patch_30">
    <path d="M 145.851804 118.08 
L 148.89544 118.08 
L 148.89544 75.930167 
L 145.851804 75.930167 
z
" clip-path="url(#p397a95da90)" style="fill: #a9a9a9; opacity: 0.9"/>
   </g>
   <g id="patch_31">
    <path d="M 148.89544 118.08 
L 151.939077 118.08 
L 151.939077 67.430148 
L 148.89544 67.430148 
z
" clip-path="url(#p397a95da90)" style="fill: #a9a9a9; opacity: 0.9"/>
   </g>
   <g id="patch_32">
    <path d="M 151.939077 118.08 
L 154.982713 118.08 
L 154.982713 55.604335 
L 151.939077 55.604335 
z
" clip-path="url(#p397a95da90)" style="fill: #a9a9a9; opacity: 0.9"/>
   </g>
   <g id="patch_33">
    <path d="M 154.982713 118.08 
L 158.026349 118.08 
L 158.026349 46.414187 
L 154.982713 46.414187 
z
" clip-path="url(#p397a95da90)" style="fill: #a9a9a9; opacity: 0.9"/>
   </g>
   <g id="patch_34">
    <path d="M 158.026349 118.08 
L 161.069986 118.08 
L 161.069986 36.710778 
L 158.026349 36.710778 
z
" clip-path="url(#p397a95da90)" style="fill: #a9a9a9; opacity: 0.9"/>
   </g>
   <g id="patch_35">
    <path d="M 161.069986 118.08 
L 164.113622 118.08 
L 164.113622 27.662818 
L 161.069986 27.662818 
z
" clip-path="url(#p397a95da90)" style="fill: #a9a9a9; opacity: 0.9"/>
   </g>
   <g id="patch_36">
    <path d="M 164.113622 118.08 
L 167.157259 118.08 
L 167.157259 19.859862 
L 164.113622 19.859862 
z
" clip-path="url(#p397a95da90)" style="fill: #a9a9a9; opacity: 0.9"/>
   </g>
   <g id="patch_37">
    <path d="M 167.157259 118.08 
L 170.200895 118.08 
L 170.200895 17.258877 
L 167.157259 17.258877 
z
" clip-path="url(#p397a95da90)" style="fill: #a9a9a9; opacity: 0.9"/>
   </g>
   <g id="patch_38">
    <path d="M 170.200895 118.08 
L 173.244531 118.08 
L 173.244531 13.933084 
L 170.200895 13.933084 
z
" clip-path="url(#p397a95da90)" style="fill: #a9a9a9; opacity: 0.9"/>
   </g>
   <g id="patch_39">
    <path d="M 173.244531 118.08 
L 176.288168 118.08 
L 176.288168 12.48 
L 173.244531 12.48 
z
" clip-path="url(#p397a95da90)" style="fill: #a9a9a9; opacity: 0.9"/>
   </g>
   <g id="patch_40">
    <path d="M 176.288168 118.08 
L 179.331804 118.08 
L 179.331804 16.149123 
L 176.288168 16.149123 
z
" clip-path="url(#p397a95da90)" style="fill: #a9a9a9; opacity: 0.9"/>
   </g>
   <g id="patch_41">
    <path d="M 179.331804 118.08 
L 182.37544 118.08 
L 182.37544 17.661163 
L 179.331804 17.661163 
z
" clip-path="url(#p397a95da90)" style="fill: #a9a9a9; opacity: 0.9"/>
   </g>
   <g id="patch_42">
    <path d="M 182.37544 118.08 
L 185.419077 118.08 
L 185.419077 15.937576 
L 182.37544 15.937576 
z
" clip-path="url(#p397a95da90)" style="fill: #a9a9a9; opacity: 0.9"/>
   </g>
   <g id="patch_43">
    <path d="M 185.419077 118.08 
L 188.462713 118.08 
L 188.462713 16.846187 
L 185.419077 16.846187 
z
" clip-path="url(#p397a95da90)" style="fill: #a9a9a9; opacity: 0.9"/>
   </g>
   <g id="patch_44">
    <path d="M 188.462713 118.08 
L 191.506349 118.08 
L 191.506349 23.00532 
L 188.462713 23.00532 
z
" clip-path="url(#p397a95da90)" style="fill: #a9a9a9; opacity: 0.9"/>
   </g>
   <g id="patch_45">
    <path d="M 191.506349 118.08 
L 194.549986 118.08 
L 194.549986 36.606739 
L 191.506349 36.606739 
z
" clip-path="url(#p397a95da90)" style="fill: #a9a9a9; opacity: 0.9"/>
   </g>
   <g id="patch_46">
    <path d="M 194.549986 118.08 
L 197.593622 118.08 
L 197.593622 55.951133 
L 194.549986 55.951133 
z
" clip-path="url(#p397a95da90)" style="fill: #a9a9a9; opacity: 0.9"/>
   </g>
   <g id="patch_47">
    <path d="M 197.593622 118.08 
L 200.637259 118.08 
L 200.637259 80.35531 
L 197.593622 80.35531 
z
" clip-path="url(#p397a95da90)" style="fill: #a9a9a9; opacity: 0.9"/>
   </g>
   <g id="patch_48">
    <path d="M 200.637259 118.08 
L 203.680895 118.08 
L 203.680895 92.579941 
L 200.637259 92.579941 
z
" clip-path="url(#p397a95da90)" style="fill: #a9a9a9; opacity: 0.9"/>
   </g>
   <g id="patch_49">
    <path d="M 203.680895 118.08 
L 206.724531 118.08 
L 206.724531 99.245399 
L 203.680895 99.245399 
z
" clip-path="url(#p397a95da90)" style="fill: #a9a9a9; opacity: 0.9"/>
   </g>
   <g id="patch_50">
    <path d="M 206.724531 118.08 
L 209.768168 118.08 
L 209.768168 105.69931 
L 206.724531 105.69931 
z
" clip-path="url(#p397a95da90)" style="fill: #a9a9a9; opacity: 0.9"/>
   </g>
   <g id="patch_51">
    <path d="M 209.768168 118.08 
L 212.811804 118.08 
L 212.811804 110.568355 
L 209.768168 110.568355 
z
" clip-path="url(#p397a95da90)" style="fill: #a9a9a9; opacity: 0.9"/>
   </g>
   <g id="patch_52">
    <path d="M 212.811804 118.08 
L 215.85544 118.08 
L 215.85544 115.981872 
L 212.811804 115.981872 
z
" clip-path="url(#p397a95da90)" style="fill: #a9a9a9; opacity: 0.9"/>
   </g>
   <g id="patch_53">
    <path d="M 56.064531 118.08 
L 56.064531 7.2 
" style="fill: none; stroke: #000000; stroke-width: 1.5; stroke-linejoin: miter; stroke-linecap: square"/>
   </g>
   <g id="patch_54">
    <path d="M 223.464531 118.08 
L 223.464531 7.2 
" style="fill: none; stroke: #000000; stroke-width: 1.5; stroke-linejoin: miter; stroke-linecap: square"/>
   </g>
   <g id="patch_55">
    <path d="M 56.064531 118.08 
L 223.464531 118.08 
" style="fill: none; stroke: #000000; stroke-width: 1.5; stroke-linejoin: miter; stroke-linecap: square"/>
   </g>
   <g id="patch_56">
    <path d="M 56.064531 7.2 
L 223.464531 7.2 
" style="fill: none; stroke: #000000; stroke-width: 1.5; stroke-linejoin: miter; stroke-linecap: square"/>
   </g>
   <g id="text_12">
    <!-- Non-rep. Median: 0.87 -->
    <g style="fill: #262626" transform="translate(64.434531 18.288) scale(0.1 -0.1)">
     <defs>
      <path id="ArialMT-4d" d="M 475 0 
L 475 4581 
L 1388 4581 
L 2472 1338 
Q 2622 884 2691 659 
Q 2769 909 2934 1394 
L 4031 4581 
L 4847 4581 
L 4847 0 
L 4263 0 
L 4263 3834 
L 2931 0 
L 2384 0 
L 1059 3900 
L 1059 0 
L 475 0 
z
" transform="scale(0.015625)"/>
      <path id="ArialMT-64" d="M 2575 0 
L 2575 419 
Q 2259 -75 1647 -75 
Q 1250 -75 917 144 
Q 584 363 401 755 
Q 219 1147 219 1656 
Q 219 2153 384 2558 
Q 550 2963 881 3178 
Q 1213 3394 1622 3394 
Q 1922 3394 2156 3267 
Q 2391 3141 2538 2938 
L 2538 4581 
L 3097 4581 
L 3097 0 
L 2575 0 
z
M 797 1656 
Q 797 1019 1065 703 
Q 1334 388 1700 388 
Q 2069 388 2326 689 
Q 2584 991 2584 1609 
Q 2584 2291 2321 2609 
Q 2059 2928 1675 2928 
Q 1300 2928 1048 2622 
Q 797 2316 797 1656 
z
" transform="scale(0.015625)"/>
      <path id="ArialMT-3a" d="M 578 2678 
L 578 3319 
L 1219 3319 
L 1219 2678 
L 578 2678 
z
M 578 0 
L 578 641 
L 1219 641 
L 1219 0 
L 578 0 
z
" transform="scale(0.015625)"/>
     </defs>
     <use xlink:href="#ArialMT-4e"/>
     <use xlink:href="#ArialMT-6f" x="72.216797"/>
     <use xlink:href="#ArialMT-6e" x="127.832031"/>
     <use xlink:href="#ArialMT-2d" x="183.447266"/>
     <use xlink:href="#ArialMT-72" x="216.748047"/>
     <use xlink:href="#ArialMT-65" x="250.048828"/>
     <use xlink:href="#ArialMT-70" x="305.664062"/>
     <use xlink:href="#ArialMT-2e" x="361.279297"/>
     <use xlink:href="#ArialMT-20" x="389.0625"/>
     <use xlink:href="#ArialMT-4d" x="416.845703"/>
     <use xlink:href="#ArialMT-65" x="500.146484"/>
     <use xlink:href="#ArialMT-64" x="555.761719"/>
     <use xlink:href="#ArialMT-69" x="611.376953"/>
     <use xlink:href="#ArialMT-61" x="633.59375"/>
     <use xlink:href="#ArialMT-6e" x="689.208984"/>
     <use xlink:href="#ArialMT-3a" x="744.824219"/>
     <use xlink:href="#ArialMT-20" x="772.607422"/>
     <use xlink:href="#ArialMT-30" x="800.390625"/>
     <use xlink:href="#ArialMT-2e" x="856.005859"/>
     <use xlink:href="#ArialMT-38" x="883.789062"/>
     <use xlink:href="#ArialMT-37" x="939.404297"/>
    </g>
   </g>
   <g id="text_13">
    <!-- Rep. Median: 0.99 -->
    <g style="fill: #b22222" transform="translate(64.434531 29.376) scale(0.1 -0.1)">
     <use xlink:href="#ArialMT-52"/>
     <use xlink:href="#ArialMT-65" x="72.216797"/>
     <use xlink:href="#ArialMT-70" x="127.832031"/>
     <use xlink:href="#ArialMT-2e" x="183.447266"/>
     <use xlink:href="#ArialMT-20" x="211.230469"/>
     <use xlink:href="#ArialMT-4d" x="239.013672"/>
     <use xlink:href="#ArialMT-65" x="322.314453"/>
     <use xlink:href="#ArialMT-64" x="377.929688"/>
     <use xlink:href="#ArialMT-69" x="433.544922"/>
     <use xlink:href="#ArialMT-61" x="455.761719"/>
     <use xlink:href="#ArialMT-6e" x="511.376953"/>
     <use xlink:href="#ArialMT-3a" x="566.992188"/>
     <use xlink:href="#ArialMT-20" x="594.775391"/>
     <use xlink:href="#ArialMT-30" x="622.558594"/>
     <use xlink:href="#ArialMT-2e" x="678.173828"/>
     <use xlink:href="#ArialMT-39" x="705.957031"/>
     <use xlink:href="#ArialMT-39" x="761.572266"/>
    </g>
   </g>
  </g>
  <g id="axes_2">
   <g id="matplotlib.axis_3">
    <g id="ytick_5">
     <g id="line2d_10">
      <defs>
       <path id="m916af9ab9e" d="M 0 0 
L 3.5 0 
" style="stroke: #b22222; stroke-width: 0.8"/>
      </defs>
      <g>
       <use xlink:href="#m916af9ab9e" x="223.464531" y="118.08" style="fill: #b22222; stroke: #b22222; stroke-width: 0.8"/>
      </g>
     </g>
     <g id="text_14">
      <!-- 0 -->
      <g style="fill: #b22222" transform="translate(230.464531 121.301016) scale(0.09 -0.09)">
       <use xlink:href="#ArialMT-30"/>
      </g>
     </g>
    </g>
    <g id="ytick_6">
     <g id="line2d_11">
      <g>
       <use xlink:href="#m916af9ab9e" x="223.464531" y="86.651429" style="fill: #b22222; stroke: #b22222; stroke-width: 0.8"/>
      </g>
     </g>
     <g id="text_15">
      <!-- 100 -->
      <g style="fill: #b22222" transform="translate(230.464531 89.872444) scale(0.09 -0.09)">
       <use xlink:href="#ArialMT-31"/>
       <use xlink:href="#ArialMT-30" x="55.615234"/>
       <use xlink:href="#ArialMT-30" x="111.230469"/>
      </g>
     </g>
    </g>
    <g id="ytick_7">
     <g id="line2d_12">
      <g>
       <use xlink:href="#m916af9ab9e" x="223.464531" y="55.222857" style="fill: #b22222; stroke: #b22222; stroke-width: 0.8"/>
      </g>
     </g>
     <g id="text_16">
      <!-- 200 -->
      <g style="fill: #b22222" transform="translate(230.464531 58.443873) scale(0.09 -0.09)">
       <use xlink:href="#ArialMT-32"/>
       <use xlink:href="#ArialMT-30" x="55.615234"/>
       <use xlink:href="#ArialMT-30" x="111.230469"/>
      </g>
     </g>
    </g>
    <g id="ytick_8">
     <g id="line2d_13">
      <g>
       <use xlink:href="#m916af9ab9e" x="223.464531" y="23.794286" style="fill: #b22222; stroke: #b22222; stroke-width: 0.8"/>
      </g>
     </g>
     <g id="text_17">
      <!-- 300 -->
      <g style="fill: #b22222" transform="translate(230.464531 27.015301) scale(0.09 -0.09)">
       <use xlink:href="#ArialMT-33"/>
       <use xlink:href="#ArialMT-30" x="55.615234"/>
       <use xlink:href="#ArialMT-30" x="111.230469"/>
      </g>
     </g>
    </g>
    <g id="text_18">
     <!-- Replicate Pairs -->
     <g style="fill: #b22222" transform="translate(257.352656 99.626641) rotate(-90) scale(0.11 -0.11)">
      <use xlink:href="#ArialMT-52"/>
      <use xlink:href="#ArialMT-65" x="72.216797"/>
      <use xlink:href="#ArialMT-70" x="127.832031"/>
      <use xlink:href="#ArialMT-6c" x="183.447266"/>
      <use xlink:href="#ArialMT-69" x="205.664062"/>
      <use xlink:href="#ArialMT-63" x="227.880859"/>
      <use xlink:href="#ArialMT-61" x="277.880859"/>
      <use xlink:href="#ArialMT-74" x="333.496094"/>
      <use xlink:href="#ArialMT-65" x="361.279297"/>
      <use xlink:href="#ArialMT-20" x="416.894531"/>
      <use xlink:href="#ArialMT-50" x="444.677734"/>
      <use xlink:href="#ArialMT-61" x="511.376953"/>
      <use xlink:href="#ArialMT-69" x="566.992188"/>
      <use xlink:href="#ArialMT-72" x="589.208984"/>
      <use xlink:href="#ArialMT-73" x="622.509766"/>
     </g>
    </g>
   </g>
   <g id="patch_57">
    <path d="M 63.673622 118.08 
L 66.717259 118.08 
L 66.717259 118.08 
L 63.673622 118.08 
z
" clip-path="url(#p397a95da90)" style="fill: #b22222; opacity: 0.9"/>
   </g>
   <g id="patch_58">
    <path d="M 66.717259 118.08 
L 69.760895 118.08 
L 69.760895 118.08 
L 66.717259 118.08 
z
" clip-path="url(#p397a95da90)" style="fill: #b22222; opacity: 0.9"/>
   </g>
   <g id="patch_59">
    <path d="M 69.760895 118.08 
L 72.804531 118.08 
L 72.804531 118.08 
L 69.760895 118.08 
z
" clip-path="url(#p397a95da90)" style="fill: #b22222; opacity: 0.9"/>
   </g>
   <g id="patch_60">
    <path d="M 72.804531 118.08 
L 75.848168 118.08 
L 75.848168 118.08 
L 72.804531 118.08 
z
" clip-path="url(#p397a95da90)" style="fill: #b22222; opacity: 0.9"/>
   </g>
   <g id="patch_61">
    <path d="M 75.848168 118.08 
L 78.891804 118.08 
L 78.891804 118.08 
L 75.848168 118.08 
z
" clip-path="url(#p397a95da90)" style="fill: #b22222; opacity: 0.9"/>
   </g>
   <g id="patch_62">
    <path d="M 78.891804 118.08 
L 81.93544 118.08 
L 81.93544 118.08 
L 78.891804 118.08 
z
" clip-path="url(#p397a95da90)" style="fill: #b22222; opacity: 0.9"/>
   </g>
   <g id="patch_63">
    <path d="M 81.93544 118.08 
L 84.979077 118.08 
L 84.979077 118.08 
L 81.93544 118.08 
z
" clip-path="url(#p397a95da90)" style="fill: #b22222; opacity: 0.9"/>
   </g>
   <g id="patch_64">
    <path d="M 84.979077 118.08 
L 88.022713 118.08 
L 88.022713 118.08 
L 84.979077 118.08 
z
" clip-path="url(#p397a95da90)" style="fill: #b22222; opacity: 0.9"/>
   </g>
   <g id="patch_65">
    <path d="M 88.022713 118.08 
L 91.066349 118.08 
L 91.066349 118.08 
L 88.022713 118.08 
z
" clip-path="url(#p397a95da90)" style="fill: #b22222; opacity: 0.9"/>
   </g>
   <g id="patch_66">
    <path d="M 91.066349 118.08 
L 94.109986 118.08 
L 94.109986 118.08 
L 91.066349 118.08 
z
" clip-path="url(#p397a95da90)" style="fill: #b22222; opacity: 0.9"/>
   </g>
   <g id="patch_67">
    <path d="M 94.109986 118.08 
L 97.153622 118.08 
L 97.153622 118.08 
L 94.109986 118.08 
z
" clip-path="url(#p397a95da90)" style="fill: #b22222; opacity: 0.9"/>
   </g>
   <g id="patch_68">
    <path d="M 97.153622 118.08 
L 100.197259 118.08 
L 100.197259 118.08 
L 97.153622 118.08 
z
" clip-path="url(#p397a95da90)" style="fill: #b22222; opacity: 0.9"/>
   </g>
   <g id="patch_69">
    <path d="M 100.197259 118.08 
L 103.240895 118.08 
L 103.240895 118.08 
L 100.197259 118.08 
z
" clip-path="url(#p397a95da90)" style="fill: #b22222; opacity: 0.9"/>
   </g>
   <g id="patch_70">
    <path d="M 103.240895 118.08 
L 106.284531 118.08 
L 106.284531 118.08 
L 103.240895 118.08 
z
" clip-path="url(#p397a95da90)" style="fill: #b22222; opacity: 0.9"/>
   </g>
   <g id="patch_71">
    <path d="M 106.284531 118.08 
L 109.328168 118.08 
L 109.328168 118.08 
L 106.284531 118.08 
z
" clip-path="url(#p397a95da90)" style="fill: #b22222; opacity: 0.9"/>
   </g>
   <g id="patch_72">
    <path d="M 109.328168 118.08 
L 112.371804 118.08 
L 112.371804 118.08 
L 109.328168 118.08 
z
" clip-path="url(#p397a95da90)" style="fill: #b22222; opacity: 0.9"/>
   </g>
   <g id="patch_73">
    <path d="M 112.371804 118.08 
L 115.41544 118.08 
L 115.41544 118.08 
L 112.371804 118.08 
z
" clip-path="url(#p397a95da90)" style="fill: #b22222; opacity: 0.9"/>
   </g>
   <g id="patch_74">
    <path d="M 115.41544 118.08 
L 118.459077 118.08 
L 118.459077 118.08 
L 115.41544 118.08 
z
" clip-path="url(#p397a95da90)" style="fill: #b22222; opacity: 0.9"/>
   </g>
   <g id="patch_75">
    <path d="M 118.459077 118.08 
L 121.502713 118.08 
L 121.502713 118.08 
L 118.459077 118.08 
z
" clip-path="url(#p397a95da90)" style="fill: #b22222; opacity: 0.9"/>
   </g>
   <g id="patch_76">
    <path d="M 121.502713 118.08 
L 124.546349 118.08 
L 124.546349 118.08 
L 121.502713 118.08 
z
" clip-path="url(#p397a95da90)" style="fill: #b22222; opacity: 0.9"/>
   </g>
   <g id="patch_77">
    <path d="M 124.546349 118.08 
L 127.589986 118.08 
L 127.589986 118.08 
L 124.546349 118.08 
z
" clip-path="url(#p397a95da90)" style="fill: #b22222; opacity: 0.9"/>
   </g>
   <g id="patch_78">
    <path d="M 127.589986 118.08 
L 130.633622 118.08 
L 130.633622 118.08 
L 127.589986 118.08 
z
" clip-path="url(#p397a95da90)" style="fill: #b22222; opacity: 0.9"/>
   </g>
   <g id="patch_79">
    <path d="M 130.633622 118.08 
L 133.677259 118.08 
L 133.677259 118.08 
L 130.633622 118.08 
z
" clip-path="url(#p397a95da90)" style="fill: #b22222; opacity: 0.9"/>
   </g>
   <g id="patch_80">
    <path d="M 133.677259 118.08 
L 136.720895 118.08 
L 136.720895 118.08 
L 133.677259 118.08 
z
" clip-path="url(#p397a95da90)" style="fill: #b22222; opacity: 0.9"/>
   </g>
   <g id="patch_81">
    <path d="M 136.720895 118.08 
L 139.764531 118.08 
L 139.764531 118.08 
L 136.720895 118.08 
z
" clip-path="url(#p397a95da90)" style="fill: #b22222; opacity: 0.9"/>
   </g>
   <g id="patch_82">
    <path d="M 139.764531 118.08 
L 142.808168 118.08 
L 142.808168 118.08 
L 139.764531 118.08 
z
" clip-path="url(#p397a95da90)" style="fill: #b22222; opacity: 0.9"/>
   </g>
   <g id="patch_83">
    <path d="M 142.808168 118.08 
L 145.851804 118.08 
L 145.851804 118.08 
L 142.808168 118.08 
z
" clip-path="url(#p397a95da90)" style="fill: #b22222; opacity: 0.9"/>
   </g>
   <g id="patch_84">
    <path d="M 145.851804 118.08 
L 148.89544 118.08 
L 148.89544 118.08 
L 145.851804 118.08 
z
" clip-path="url(#p397a95da90)" style="fill: #b22222; opacity: 0.9"/>
   </g>
   <g id="patch_85">
    <path d="M 148.89544 118.08 
L 151.939077 118.08 
L 151.939077 118.08 
L 148.89544 118.08 
z
" clip-path="url(#p397a95da90)" style="fill: #b22222; opacity: 0.9"/>
   </g>
   <g id="patch_86">
    <path d="M 151.939077 118.08 
L 154.982713 118.08 
L 154.982713 118.08 
L 151.939077 118.08 
z
" clip-path="url(#p397a95da90)" style="fill: #b22222; opacity: 0.9"/>
   </g>
   <g id="patch_87">
    <path d="M 154.982713 118.08 
L 158.026349 118.08 
L 158.026349 118.08 
L 154.982713 118.08 
z
" clip-path="url(#p397a95da90)" style="fill: #b22222; opacity: 0.9"/>
   </g>
   <g id="patch_88">
    <path d="M 158.026349 118.08 
L 161.069986 118.08 
L 161.069986 118.08 
L 158.026349 118.08 
z
" clip-path="url(#p397a95da90)" style="fill: #b22222; opacity: 0.9"/>
   </g>
   <g id="patch_89">
    <path d="M 161.069986 118.08 
L 164.113622 118.08 
L 164.113622 118.08 
L 161.069986 118.08 
z
" clip-path="url(#p397a95da90)" style="fill: #b22222; opacity: 0.9"/>
   </g>
   <g id="patch_90">
    <path d="M 164.113622 118.08 
L 167.157259 118.08 
L 167.157259 118.08 
L 164.113622 118.08 
z
" clip-path="url(#p397a95da90)" style="fill: #b22222; opacity: 0.9"/>
   </g>
   <g id="patch_91">
    <path d="M 167.157259 118.08 
L 170.200895 118.08 
L 170.200895 118.08 
L 167.157259 118.08 
z
" clip-path="url(#p397a95da90)" style="fill: #b22222; opacity: 0.9"/>
   </g>
   <g id="patch_92">
    <path d="M 170.200895 118.08 
L 173.244531 118.08 
L 173.244531 118.08 
L 170.200895 118.08 
z
" clip-path="url(#p397a95da90)" style="fill: #b22222; opacity: 0.9"/>
   </g>
   <g id="patch_93">
    <path d="M 173.244531 118.08 
L 176.288168 118.08 
L 176.288168 118.08 
L 173.244531 118.08 
z
" clip-path="url(#p397a95da90)" style="fill: #b22222; opacity: 0.9"/>
   </g>
   <g id="patch_94">
    <path d="M 176.288168 118.08 
L 179.331804 118.08 
L 179.331804 118.08 
L 176.288168 118.08 
z
" clip-path="url(#p397a95da90)" style="fill: #b22222; opacity: 0.9"/>
   </g>
   <g id="patch_95">
    <path d="M 179.331804 118.08 
L 182.37544 118.08 
L 182.37544 118.08 
L 179.331804 118.08 
z
" clip-path="url(#p397a95da90)" style="fill: #b22222; opacity: 0.9"/>
   </g>
   <g id="patch_96">
    <path d="M 182.37544 118.08 
L 185.419077 118.08 
L 185.419077 118.08 
L 182.37544 118.08 
z
" clip-path="url(#p397a95da90)" style="fill: #b22222; opacity: 0.9"/>
   </g>
   <g id="patch_97">
    <path d="M 185.419077 118.08 
L 188.462713 118.08 
L 188.462713 118.08 
L 185.419077 118.08 
z
" clip-path="url(#p397a95da90)" style="fill: #b22222; opacity: 0.9"/>
   </g>
   <g id="patch_98">
    <path d="M 188.462713 118.08 
L 191.506349 118.08 
L 191.506349 118.08 
L 188.462713 118.08 
z
" clip-path="url(#p397a95da90)" style="fill: #b22222; opacity: 0.9"/>
   </g>
   <g id="patch_99">
    <path d="M 191.506349 118.08 
L 194.549986 118.08 
L 194.549986 118.08 
L 191.506349 118.08 
z
" clip-path="url(#p397a95da90)" style="fill: #b22222; opacity: 0.9"/>
   </g>
   <g id="patch_100">
    <path d="M 194.549986 118.08 
L 197.593622 118.08 
L 197.593622 118.08 
L 194.549986 118.08 
z
" clip-path="url(#p397a95da90)" style="fill: #b22222; opacity: 0.9"/>
   </g>
   <g id="patch_101">
    <path d="M 197.593622 118.08 
L 200.637259 118.08 
L 200.637259 118.08 
L 197.593622 118.08 
z
" clip-path="url(#p397a95da90)" style="fill: #b22222; opacity: 0.9"/>
   </g>
   <g id="patch_102">
    <path d="M 200.637259 118.08 
L 203.680895 118.08 
L 203.680895 116.194286 
L 200.637259 116.194286 
z
" clip-path="url(#p397a95da90)" style="fill: #b22222; opacity: 0.9"/>
   </g>
   <g id="patch_103">
    <path d="M 203.680895 118.08 
L 206.724531 118.08 
L 206.724531 109.908571 
L 203.680895 109.908571 
z
" clip-path="url(#p397a95da90)" style="fill: #b22222; opacity: 0.9"/>
   </g>
   <g id="patch_104">
    <path d="M 206.724531 118.08 
L 209.768168 118.08 
L 209.768168 100.48 
L 206.724531 100.48 
z
" clip-path="url(#p397a95da90)" style="fill: #b22222; opacity: 0.9"/>
   </g>
   <g id="patch_105">
    <path d="M 209.768168 118.08 
L 212.811804 118.08 
L 212.811804 81.308571 
L 209.768168 81.308571 
z
" clip-path="url(#p397a95da90)" style="fill: #b22222; opacity: 0.9"/>
   </g>
   <g id="patch_106">
    <path d="M 212.811804 118.08 
L 215.85544 118.08 
L 215.85544 12.48 
L 212.811804 12.48 
z
" clip-path="url(#p397a95da90)" style="fill: #b22222; opacity: 0.9"/>
   </g>
   <g id="patch_107">
    <path d="M 56.064531 118.08 
L 56.064531 7.2 
" style="fill: none; stroke: #262626; stroke-width: 0.8; stroke-linejoin: miter; stroke-linecap: square"/>
   </g>
   <g id="patch_108">
    <path d="M 223.464531 118.08 
L 223.464531 7.2 
" style="fill: none; stroke: #262626; stroke-width: 0.8; stroke-linejoin: miter; stroke-linecap: square"/>
   </g>
   <g id="patch_109">
    <path d="M 56.064531 118.08 
L 223.464531 118.08 
" style="fill: none; stroke: #262626; stroke-width: 0.8; stroke-linejoin: miter; stroke-linecap: square"/>
   </g>
   <g id="patch_110">
    <path d="M 56.064531 7.2 
L 223.464531 7.2 
" style="fill: none; stroke: #262626; stroke-width: 0.8; stroke-linejoin: miter; stroke-linecap: square"/>
   </g>
  </g>
 </g>
 <defs>
  <clipPath id="p397a95da90">
   <rect x="56.064531" y="7.2" width="167.4" height="110.88"/>
  </clipPath>
 </defs>
</svg>
