<?xml version="1.0" encoding="utf-8" standalone="no"?>
<!DOCTYPE svg PUBLIC "-//W3C//DTD SVG 1.1//EN"
  "http://www.w3.org/Graphics/SVG/1.1/DTD/svg11.dtd">
<svg xmlns:xlink="http://www.w3.org/1999/xlink" width="214.455313pt" height="205.856094pt" viewBox="0 0 214.455313 205.856094" xmlns="http://www.w3.org/2000/svg" version="1.1">
 <metadata>
  <rdf:RDF xmlns:dc="http://purl.org/dc/elements/1.1/" xmlns:cc="http://creativecommons.org/ns#" xmlns:rdf="http://www.w3.org/1999/02/22-rdf-syntax-ns#">
   <cc:Work>
    <dc:type rdf:resource="http://purl.org/dc/dcmitype/StillImage"/>
    <dc:date>2022-06-10T15:10:11.743538</dc:date>
    <dc:format>image/svg+xml</dc:format>
    <dc:creator>
     <cc:Agent>
      <dc:title>Matplotlib v3.5.1, https://matplotlib.org/</dc:title>
     </cc:Agent>
    </dc:creator>
   </cc:Work>
  </rdf:RDF>
 </metadata>
 <defs>
  <style type="text/css">*{stroke-linejoin: round; stroke-linecap: butt}</style>
 </defs>
 <g id="figure_1">
  <g id="patch_1">
   <path d="M 0 205.856094 
L 214.455313 205.856094 
L 214.455313 0 
L 0 0 
z
" style="fill: #ffffff"/>
  </g>
  <g id="axes_1">
   <g id="patch_2">
    <path d="M 39.855313 170.28 
L 207.255313 170.28 
L 207.255313 7.2 
L 39.855313 7.2 
z
" style="fill: #ffffff"/>
   </g>
   <g id="matplotlib.axis_1">
    <g id="xtick_1">
     <g id="line2d_1">
      <defs>
       <path id="m54f309abc5" d="M 0 0 
L 0 3.5 
" style="stroke: #000000; stroke-width: 0.8"/>
      </defs>
      <g>
       <use xlink:href="#m54f309abc5" x="47.301627" y="170.28" style="stroke: #000000; stroke-width: 0.8"/>
      </g>
     </g>
     <g id="text_1">
      <!-- 0.0 -->
      <g transform="translate(41.046627 183.722031)scale(0.09 -0.09)">
       <defs>
        <path id="ArialMT-30" d="M 266 2259 
Q 266 3072 433 3567 
Q 600 4063 929 4331 
Q 1259 4600 1759 4600 
Q 2128 4600 2406 4451 
Q 2684 4303 2865 4023 
Q 3047 3744 3150 3342 
Q 3253 2941 3253 2259 
Q 3253 1453 3087 958 
Q 2922 463 2592 192 
Q 2263 -78 1759 -78 
Q 1097 -78 719 397 
Q 266 969 266 2259 
z
M 844 2259 
Q 844 1131 1108 757 
Q 1372 384 1759 384 
Q 2147 384 2411 759 
Q 2675 1134 2675 2259 
Q 2675 3391 2411 3762 
Q 2147 4134 1753 4134 
Q 1366 4134 1134 3806 
Q 844 3388 844 2259 
z
" transform="scale(0.015625)"/>
        <path id="ArialMT-2e" d="M 581 0 
L 581 641 
L 1222 641 
L 1222 0 
L 581 0 
z
" transform="scale(0.015625)"/>
       </defs>
       <use xlink:href="#ArialMT-30"/>
       <use xlink:href="#ArialMT-2e" x="55.615234"/>
       <use xlink:href="#ArialMT-30" x="83.398438"/>
      </g>
     </g>
    </g>
    <g id="xtick_2">
     <g id="line2d_2">
      <g>
       <use xlink:href="#m54f309abc5" x="78.03989" y="170.28" style="stroke: #000000; stroke-width: 0.8"/>
      </g>
     </g>
     <g id="text_2">
      <!-- 0.2 -->
      <g transform="translate(71.78489 183.722031)scale(0.09 -0.09)">
       <defs>
        <path id="ArialMT-32" d="M 3222 541 
L 3222 0 
L 194 0 
Q 188 203 259 391 
Q 375 700 629 1000 
Q 884 1300 1366 1694 
Q 2113 2306 2375 2664 
Q 2638 3022 2638 3341 
Q 2638 3675 2398 3904 
Q 2159 4134 1775 4134 
Q 1369 4134 1125 3890 
Q 881 3647 878 3216 
L 300 3275 
Q 359 3922 746 4261 
Q 1134 4600 1788 4600 
Q 2447 4600 2831 4234 
Q 3216 3869 3216 3328 
Q 3216 3053 3103 2787 
Q 2991 2522 2730 2228 
Q 2469 1934 1863 1422 
Q 1356 997 1212 845 
Q 1069 694 975 541 
L 3222 541 
z
" transform="scale(0.015625)"/>
       </defs>
       <use xlink:href="#ArialMT-30"/>
       <use xlink:href="#ArialMT-2e" x="55.615234"/>
       <use xlink:href="#ArialMT-32" x="83.398438"/>
      </g>
     </g>
    </g>
    <g id="xtick_3">
     <g id="line2d_3">
      <g>
       <use xlink:href="#m54f309abc5" x="108.778154" y="170.28" style="stroke: #000000; stroke-width: 0.8"/>
      </g>
     </g>
     <g id="text_3">
      <!-- 0.4 -->
      <g transform="translate(102.523154 183.722031)scale(0.09 -0.09)">
       <defs>
        <path id="ArialMT-34" d="M 2069 0 
L 2069 1097 
L 81 1097 
L 81 1613 
L 2172 4581 
L 2631 4581 
L 2631 1613 
L 3250 1613 
L 3250 1097 
L 2631 1097 
L 2631 0 
L 2069 0 
z
M 2069 1613 
L 2069 3678 
L 634 1613 
L 2069 1613 
z
" transform="scale(0.015625)"/>
       </defs>
       <use xlink:href="#ArialMT-30"/>
       <use xlink:href="#ArialMT-2e" x="55.615234"/>
       <use xlink:href="#ArialMT-34" x="83.398438"/>
      </g>
     </g>
    </g>
    <g id="xtick_4">
     <g id="line2d_4">
      <g>
       <use xlink:href="#m54f309abc5" x="139.516418" y="170.28" style="stroke: #000000; stroke-width: 0.8"/>
      </g>
     </g>
     <g id="text_4">
      <!-- 0.6 -->
      <g transform="translate(133.261418 183.722031)scale(0.09 -0.09)">
       <defs>
        <path id="ArialMT-36" d="M 3184 3459 
L 2625 3416 
Q 2550 3747 2413 3897 
Q 2184 4138 1850 4138 
Q 1581 4138 1378 3988 
Q 1113 3794 959 3422 
Q 806 3050 800 2363 
Q 1003 2672 1297 2822 
Q 1591 2972 1913 2972 
Q 2475 2972 2870 2558 
Q 3266 2144 3266 1488 
Q 3266 1056 3080 686 
Q 2894 316 2569 119 
Q 2244 -78 1831 -78 
Q 1128 -78 684 439 
Q 241 956 241 2144 
Q 241 3472 731 4075 
Q 1159 4600 1884 4600 
Q 2425 4600 2770 4297 
Q 3116 3994 3184 3459 
z
M 888 1484 
Q 888 1194 1011 928 
Q 1134 663 1356 523 
Q 1578 384 1822 384 
Q 2178 384 2434 671 
Q 2691 959 2691 1453 
Q 2691 1928 2437 2201 
Q 2184 2475 1800 2475 
Q 1419 2475 1153 2201 
Q 888 1928 888 1484 
z
" transform="scale(0.015625)"/>
       </defs>
       <use xlink:href="#ArialMT-30"/>
       <use xlink:href="#ArialMT-2e" x="55.615234"/>
       <use xlink:href="#ArialMT-36" x="83.398438"/>
      </g>
     </g>
    </g>
    <g id="xtick_5">
     <g id="line2d_5">
      <g>
       <use xlink:href="#m54f309abc5" x="170.254682" y="170.28" style="stroke: #000000; stroke-width: 0.8"/>
      </g>
     </g>
     <g id="text_5">
      <!-- 0.8 -->
      <g transform="translate(163.999682 183.722031)scale(0.09 -0.09)">
       <defs>
        <path id="ArialMT-38" d="M 1131 2484 
Q 781 2613 612 2850 
Q 444 3088 444 3419 
Q 444 3919 803 4259 
Q 1163 4600 1759 4600 
Q 2359 4600 2725 4251 
Q 3091 3903 3091 3403 
Q 3091 3084 2923 2848 
Q 2756 2613 2416 2484 
Q 2838 2347 3058 2040 
Q 3278 1734 3278 1309 
Q 3278 722 2862 322 
Q 2447 -78 1769 -78 
Q 1091 -78 675 323 
Q 259 725 259 1325 
Q 259 1772 486 2073 
Q 713 2375 1131 2484 
z
M 1019 3438 
Q 1019 3113 1228 2906 
Q 1438 2700 1772 2700 
Q 2097 2700 2305 2904 
Q 2513 3109 2513 3406 
Q 2513 3716 2298 3927 
Q 2084 4138 1766 4138 
Q 1444 4138 1231 3931 
Q 1019 3725 1019 3438 
z
M 838 1322 
Q 838 1081 952 856 
Q 1066 631 1291 507 
Q 1516 384 1775 384 
Q 2178 384 2440 643 
Q 2703 903 2703 1303 
Q 2703 1709 2433 1975 
Q 2163 2241 1756 2241 
Q 1359 2241 1098 1978 
Q 838 1716 838 1322 
z
" transform="scale(0.015625)"/>
       </defs>
       <use xlink:href="#ArialMT-30"/>
       <use xlink:href="#ArialMT-2e" x="55.615234"/>
       <use xlink:href="#ArialMT-38" x="83.398438"/>
      </g>
     </g>
    </g>
    <g id="xtick_6">
     <g id="line2d_6">
      <g>
       <use xlink:href="#m54f309abc5" x="200.992946" y="170.28" style="stroke: #000000; stroke-width: 0.8"/>
      </g>
     </g>
     <g id="text_6">
      <!-- 1.0 -->
      <g transform="translate(194.737946 183.722031)scale(0.09 -0.09)">
       <defs>
        <path id="ArialMT-31" d="M 2384 0 
L 1822 0 
L 1822 3584 
Q 1619 3391 1289 3197 
Q 959 3003 697 2906 
L 697 3450 
Q 1169 3672 1522 3987 
Q 1875 4303 2022 4600 
L 2384 4600 
L 2384 0 
z
" transform="scale(0.015625)"/>
       </defs>
       <use xlink:href="#ArialMT-31"/>
       <use xlink:href="#ArialMT-2e" x="55.615234"/>
       <use xlink:href="#ArialMT-30" x="83.398438"/>
      </g>
     </g>
    </g>
    <g id="text_7">
     <!-- Class I Fraction Bound -->
     <g transform="translate(72.979531 196.668594)scale(0.1 -0.1)">
      <defs>
       <path id="ArialMT-43" d="M 3763 1606 
L 4369 1453 
Q 4178 706 3683 314 
Q 3188 -78 2472 -78 
Q 1731 -78 1267 223 
Q 803 525 561 1097 
Q 319 1669 319 2325 
Q 319 3041 592 3573 
Q 866 4106 1370 4382 
Q 1875 4659 2481 4659 
Q 3169 4659 3637 4309 
Q 4106 3959 4291 3325 
L 3694 3184 
Q 3534 3684 3231 3912 
Q 2928 4141 2469 4141 
Q 1941 4141 1586 3887 
Q 1231 3634 1087 3207 
Q 944 2781 944 2328 
Q 944 1744 1114 1308 
Q 1284 872 1643 656 
Q 2003 441 2422 441 
Q 2931 441 3284 734 
Q 3638 1028 3763 1606 
z
" transform="scale(0.015625)"/>
       <path id="ArialMT-6c" d="M 409 0 
L 409 4581 
L 972 4581 
L 972 0 
L 409 0 
z
" transform="scale(0.015625)"/>
       <path id="ArialMT-61" d="M 2588 409 
Q 2275 144 1986 34 
Q 1697 -75 1366 -75 
Q 819 -75 525 192 
Q 231 459 231 875 
Q 231 1119 342 1320 
Q 453 1522 633 1644 
Q 813 1766 1038 1828 
Q 1203 1872 1538 1913 
Q 2219 1994 2541 2106 
Q 2544 2222 2544 2253 
Q 2544 2597 2384 2738 
Q 2169 2928 1744 2928 
Q 1347 2928 1158 2789 
Q 969 2650 878 2297 
L 328 2372 
Q 403 2725 575 2942 
Q 747 3159 1072 3276 
Q 1397 3394 1825 3394 
Q 2250 3394 2515 3294 
Q 2781 3194 2906 3042 
Q 3031 2891 3081 2659 
Q 3109 2516 3109 2141 
L 3109 1391 
Q 3109 606 3145 398 
Q 3181 191 3288 0 
L 2700 0 
Q 2613 175 2588 409 
z
M 2541 1666 
Q 2234 1541 1622 1453 
Q 1275 1403 1131 1340 
Q 988 1278 909 1158 
Q 831 1038 831 891 
Q 831 666 1001 516 
Q 1172 366 1500 366 
Q 1825 366 2078 508 
Q 2331 650 2450 897 
Q 2541 1088 2541 1459 
L 2541 1666 
z
" transform="scale(0.015625)"/>
       <path id="ArialMT-73" d="M 197 991 
L 753 1078 
Q 800 744 1014 566 
Q 1228 388 1613 388 
Q 2000 388 2187 545 
Q 2375 703 2375 916 
Q 2375 1106 2209 1216 
Q 2094 1291 1634 1406 
Q 1016 1563 777 1677 
Q 538 1791 414 1992 
Q 291 2194 291 2438 
Q 291 2659 392 2848 
Q 494 3038 669 3163 
Q 800 3259 1026 3326 
Q 1253 3394 1513 3394 
Q 1903 3394 2198 3281 
Q 2494 3169 2634 2976 
Q 2775 2784 2828 2463 
L 2278 2388 
Q 2241 2644 2061 2787 
Q 1881 2931 1553 2931 
Q 1166 2931 1000 2803 
Q 834 2675 834 2503 
Q 834 2394 903 2306 
Q 972 2216 1119 2156 
Q 1203 2125 1616 2013 
Q 2213 1853 2448 1751 
Q 2684 1650 2818 1456 
Q 2953 1263 2953 975 
Q 2953 694 2789 445 
Q 2625 197 2315 61 
Q 2006 -75 1616 -75 
Q 969 -75 630 194 
Q 291 463 197 991 
z
" transform="scale(0.015625)"/>
       <path id="ArialMT-20" transform="scale(0.015625)"/>
       <path id="ArialMT-49" d="M 597 0 
L 597 4581 
L 1203 4581 
L 1203 0 
L 597 0 
z
" transform="scale(0.015625)"/>
       <path id="ArialMT-46" d="M 525 0 
L 525 4581 
L 3616 4581 
L 3616 4041 
L 1131 4041 
L 1131 2622 
L 3281 2622 
L 3281 2081 
L 1131 2081 
L 1131 0 
L 525 0 
z
" transform="scale(0.015625)"/>
       <path id="ArialMT-72" d="M 416 0 
L 416 3319 
L 922 3319 
L 922 2816 
Q 1116 3169 1280 3281 
Q 1444 3394 1641 3394 
Q 1925 3394 2219 3213 
L 2025 2691 
Q 1819 2813 1613 2813 
Q 1428 2813 1281 2702 
Q 1134 2591 1072 2394 
Q 978 2094 978 1738 
L 978 0 
L 416 0 
z
" transform="scale(0.015625)"/>
       <path id="ArialMT-63" d="M 2588 1216 
L 3141 1144 
Q 3050 572 2676 248 
Q 2303 -75 1759 -75 
Q 1078 -75 664 370 
Q 250 816 250 1647 
Q 250 2184 428 2587 
Q 606 2991 970 3192 
Q 1334 3394 1763 3394 
Q 2303 3394 2647 3120 
Q 2991 2847 3088 2344 
L 2541 2259 
Q 2463 2594 2264 2762 
Q 2066 2931 1784 2931 
Q 1359 2931 1093 2626 
Q 828 2322 828 1663 
Q 828 994 1084 691 
Q 1341 388 1753 388 
Q 2084 388 2306 591 
Q 2528 794 2588 1216 
z
" transform="scale(0.015625)"/>
       <path id="ArialMT-74" d="M 1650 503 
L 1731 6 
Q 1494 -44 1306 -44 
Q 1000 -44 831 53 
Q 663 150 594 308 
Q 525 466 525 972 
L 525 2881 
L 113 2881 
L 113 3319 
L 525 3319 
L 525 4141 
L 1084 4478 
L 1084 3319 
L 1650 3319 
L 1650 2881 
L 1084 2881 
L 1084 941 
Q 1084 700 1114 631 
Q 1144 563 1211 522 
Q 1278 481 1403 481 
Q 1497 481 1650 503 
z
" transform="scale(0.015625)"/>
       <path id="ArialMT-69" d="M 425 3934 
L 425 4581 
L 988 4581 
L 988 3934 
L 425 3934 
z
M 425 0 
L 425 3319 
L 988 3319 
L 988 0 
L 425 0 
z
" transform="scale(0.015625)"/>
       <path id="ArialMT-6f" d="M 213 1659 
Q 213 2581 725 3025 
Q 1153 3394 1769 3394 
Q 2453 3394 2887 2945 
Q 3322 2497 3322 1706 
Q 3322 1066 3130 698 
Q 2938 331 2570 128 
Q 2203 -75 1769 -75 
Q 1072 -75 642 372 
Q 213 819 213 1659 
z
M 791 1659 
Q 791 1022 1069 705 
Q 1347 388 1769 388 
Q 2188 388 2466 706 
Q 2744 1025 2744 1678 
Q 2744 2294 2464 2611 
Q 2184 2928 1769 2928 
Q 1347 2928 1069 2612 
Q 791 2297 791 1659 
z
" transform="scale(0.015625)"/>
       <path id="ArialMT-6e" d="M 422 0 
L 422 3319 
L 928 3319 
L 928 2847 
Q 1294 3394 1984 3394 
Q 2284 3394 2536 3286 
Q 2788 3178 2913 3003 
Q 3038 2828 3088 2588 
Q 3119 2431 3119 2041 
L 3119 0 
L 2556 0 
L 2556 2019 
Q 2556 2363 2490 2533 
Q 2425 2703 2258 2804 
Q 2091 2906 1866 2906 
Q 1506 2906 1245 2678 
Q 984 2450 984 1813 
L 984 0 
L 422 0 
z
" transform="scale(0.015625)"/>
       <path id="ArialMT-42" d="M 469 0 
L 469 4581 
L 2188 4581 
Q 2713 4581 3030 4442 
Q 3347 4303 3526 4014 
Q 3706 3725 3706 3409 
Q 3706 3116 3547 2856 
Q 3388 2597 3066 2438 
Q 3481 2316 3704 2022 
Q 3928 1728 3928 1328 
Q 3928 1006 3792 729 
Q 3656 453 3456 303 
Q 3256 153 2954 76 
Q 2653 0 2216 0 
L 469 0 
z
M 1075 2656 
L 2066 2656 
Q 2469 2656 2644 2709 
Q 2875 2778 2992 2937 
Q 3109 3097 3109 3338 
Q 3109 3566 3000 3739 
Q 2891 3913 2687 3977 
Q 2484 4041 1991 4041 
L 1075 4041 
L 1075 2656 
z
M 1075 541 
L 2216 541 
Q 2509 541 2628 563 
Q 2838 600 2978 687 
Q 3119 775 3209 942 
Q 3300 1109 3300 1328 
Q 3300 1584 3169 1773 
Q 3038 1963 2805 2039 
Q 2572 2116 2134 2116 
L 1075 2116 
L 1075 541 
z
" transform="scale(0.015625)"/>
       <path id="ArialMT-75" d="M 2597 0 
L 2597 488 
Q 2209 -75 1544 -75 
Q 1250 -75 995 37 
Q 741 150 617 320 
Q 494 491 444 738 
Q 409 903 409 1263 
L 409 3319 
L 972 3319 
L 972 1478 
Q 972 1038 1006 884 
Q 1059 663 1231 536 
Q 1403 409 1656 409 
Q 1909 409 2131 539 
Q 2353 669 2445 892 
Q 2538 1116 2538 1541 
L 2538 3319 
L 3100 3319 
L 3100 0 
L 2597 0 
z
" transform="scale(0.015625)"/>
       <path id="ArialMT-64" d="M 2575 0 
L 2575 419 
Q 2259 -75 1647 -75 
Q 1250 -75 917 144 
Q 584 363 401 755 
Q 219 1147 219 1656 
Q 219 2153 384 2558 
Q 550 2963 881 3178 
Q 1213 3394 1622 3394 
Q 1922 3394 2156 3267 
Q 2391 3141 2538 2938 
L 2538 4581 
L 3097 4581 
L 3097 0 
L 2575 0 
z
M 797 1656 
Q 797 1019 1065 703 
Q 1334 388 1700 388 
Q 2069 388 2326 689 
Q 2584 991 2584 1609 
Q 2584 2291 2321 2609 
Q 2059 2928 1675 2928 
Q 1300 2928 1048 2622 
Q 797 2316 797 1656 
z
" transform="scale(0.015625)"/>
      </defs>
      <use xlink:href="#ArialMT-43"/>
      <use xlink:href="#ArialMT-6c" x="72.216797"/>
      <use xlink:href="#ArialMT-61" x="94.433594"/>
      <use xlink:href="#ArialMT-73" x="150.048828"/>
      <use xlink:href="#ArialMT-73" x="200.048828"/>
      <use xlink:href="#ArialMT-20" x="250.048828"/>
      <use xlink:href="#ArialMT-49" x="277.832031"/>
      <use xlink:href="#ArialMT-20" x="305.615234"/>
      <use xlink:href="#ArialMT-46" x="333.398438"/>
      <use xlink:href="#ArialMT-72" x="394.482422"/>
      <use xlink:href="#ArialMT-61" x="427.783203"/>
      <use xlink:href="#ArialMT-63" x="483.398438"/>
      <use xlink:href="#ArialMT-74" x="533.398438"/>
      <use xlink:href="#ArialMT-69" x="561.181641"/>
      <use xlink:href="#ArialMT-6f" x="583.398438"/>
      <use xlink:href="#ArialMT-6e" x="639.013672"/>
      <use xlink:href="#ArialMT-20" x="694.628906"/>
      <use xlink:href="#ArialMT-42" x="722.412109"/>
      <use xlink:href="#ArialMT-6f" x="789.111328"/>
      <use xlink:href="#ArialMT-75" x="844.726562"/>
      <use xlink:href="#ArialMT-6e" x="900.341797"/>
      <use xlink:href="#ArialMT-64" x="955.957031"/>
     </g>
    </g>
   </g>
   <g id="matplotlib.axis_2">
    <g id="ytick_1">
     <g id="line2d_7">
      <defs>
       <path id="m501310bf9b" d="M 0 0 
L -3.5 0 
" style="stroke: #000000; stroke-width: 0.8"/>
      </defs>
      <g>
       <use xlink:href="#m501310bf9b" x="39.855313" y="166.798327" style="stroke: #000000; stroke-width: 0.8"/>
      </g>
     </g>
     <g id="text_8">
      <!-- 0.0 -->
      <g transform="translate(20.345313 170.019342)scale(0.09 -0.09)">
       <use xlink:href="#ArialMT-30"/>
       <use xlink:href="#ArialMT-2e" x="55.615234"/>
       <use xlink:href="#ArialMT-30" x="83.398438"/>
      </g>
     </g>
    </g>
    <g id="ytick_2">
     <g id="line2d_8">
      <g>
       <use xlink:href="#m501310bf9b" x="39.855313" y="136.350444" style="stroke: #000000; stroke-width: 0.8"/>
      </g>
     </g>
     <g id="text_9">
      <!-- 0.2 -->
      <g transform="translate(20.345313 139.57146)scale(0.09 -0.09)">
       <use xlink:href="#ArialMT-30"/>
       <use xlink:href="#ArialMT-2e" x="55.615234"/>
       <use xlink:href="#ArialMT-32" x="83.398438"/>
      </g>
     </g>
    </g>
    <g id="ytick_3">
     <g id="line2d_9">
      <g>
       <use xlink:href="#m501310bf9b" x="39.855313" y="105.902562" style="stroke: #000000; stroke-width: 0.8"/>
      </g>
     </g>
     <g id="text_10">
      <!-- 0.4 -->
      <g transform="translate(20.345313 109.123578)scale(0.09 -0.09)">
       <use xlink:href="#ArialMT-30"/>
       <use xlink:href="#ArialMT-2e" x="55.615234"/>
       <use xlink:href="#ArialMT-34" x="83.398438"/>
      </g>
     </g>
    </g>
    <g id="ytick_4">
     <g id="line2d_10">
      <g>
       <use xlink:href="#m501310bf9b" x="39.855313" y="75.454679" style="stroke: #000000; stroke-width: 0.8"/>
      </g>
     </g>
     <g id="text_11">
      <!-- 0.6 -->
      <g transform="translate(20.345313 78.675695)scale(0.09 -0.09)">
       <use xlink:href="#ArialMT-30"/>
       <use xlink:href="#ArialMT-2e" x="55.615234"/>
       <use xlink:href="#ArialMT-36" x="83.398438"/>
      </g>
     </g>
    </g>
    <g id="ytick_5">
     <g id="line2d_11">
      <g>
       <use xlink:href="#m501310bf9b" x="39.855313" y="45.006797" style="stroke: #000000; stroke-width: 0.8"/>
      </g>
     </g>
     <g id="text_12">
      <!-- 0.8 -->
      <g transform="translate(20.345313 48.227813)scale(0.09 -0.09)">
       <use xlink:href="#ArialMT-30"/>
       <use xlink:href="#ArialMT-2e" x="55.615234"/>
       <use xlink:href="#ArialMT-38" x="83.398438"/>
      </g>
     </g>
    </g>
    <g id="ytick_6">
     <g id="line2d_12">
      <g>
       <use xlink:href="#m501310bf9b" x="39.855313" y="14.558915" style="stroke: #000000; stroke-width: 0.8"/>
      </g>
     </g>
     <g id="text_13">
      <!-- 1.0 -->
      <g transform="translate(20.345313 17.77993)scale(0.09 -0.09)">
       <use xlink:href="#ArialMT-31"/>
       <use xlink:href="#ArialMT-2e" x="55.615234"/>
       <use xlink:href="#ArialMT-30" x="83.398438"/>
      </g>
     </g>
    </g>
    <g id="text_14">
     <!-- Class II Fraction Bound -->
     <g transform="translate(14.357813 140.704844)rotate(-90)scale(0.1 -0.1)">
      <use xlink:href="#ArialMT-43"/>
      <use xlink:href="#ArialMT-6c" x="72.216797"/>
      <use xlink:href="#ArialMT-61" x="94.433594"/>
      <use xlink:href="#ArialMT-73" x="150.048828"/>
      <use xlink:href="#ArialMT-73" x="200.048828"/>
      <use xlink:href="#ArialMT-20" x="250.048828"/>
      <use xlink:href="#ArialMT-49" x="277.832031"/>
      <use xlink:href="#ArialMT-49" x="305.615234"/>
      <use xlink:href="#ArialMT-20" x="333.398438"/>
      <use xlink:href="#ArialMT-46" x="361.181641"/>
      <use xlink:href="#ArialMT-72" x="422.265625"/>
      <use xlink:href="#ArialMT-61" x="455.566406"/>
      <use xlink:href="#ArialMT-63" x="511.181641"/>
      <use xlink:href="#ArialMT-74" x="561.181641"/>
      <use xlink:href="#ArialMT-69" x="588.964844"/>
      <use xlink:href="#ArialMT-6f" x="611.181641"/>
      <use xlink:href="#ArialMT-6e" x="666.796875"/>
      <use xlink:href="#ArialMT-20" x="722.412109"/>
      <use xlink:href="#ArialMT-42" x="750.195312"/>
      <use xlink:href="#ArialMT-6f" x="816.894531"/>
      <use xlink:href="#ArialMT-75" x="872.509766"/>
      <use xlink:href="#ArialMT-6e" x="928.125"/>
      <use xlink:href="#ArialMT-64" x="983.740234"/>
     </g>
    </g>
   </g>
   <g id="PathCollection_1">
    <defs>
     <path id="me568d67045" d="M 0 1.581139 
C 0.419323 1.581139 0.821528 1.41454 1.118034 1.118034 
C 1.41454 0.821528 1.581139 0.419323 1.581139 0 
C 1.581139 -0.419323 1.41454 -0.821528 1.118034 -1.118034 
C 0.821528 -1.41454 0.419323 -1.581139 0 -1.581139 
C -0.419323 -1.581139 -0.821528 -1.41454 -1.118034 -1.118034 
C -1.41454 -0.821528 -1.581139 -0.419323 -1.581139 0 
C -1.581139 0.419323 -1.41454 0.821528 -1.118034 1.118034 
C -0.821528 1.41454 -0.419323 1.581139 0 1.581139 
z
" style="stroke: #ffffff; stroke-width: 0.252982"/>
    </defs>
    <g clip-path="url(#p8c768b3821)">
     <use xlink:href="#me568d67045" x="199.646222" y="14.612727" style="fill: #1f77b4; stroke: #ffffff; stroke-width: 0.252982"/>
     <use xlink:href="#me568d67045" x="199.578962" y="14.615439" style="fill: #1f77b4; stroke: #ffffff; stroke-width: 0.252982"/>
     <use xlink:href="#me568d67045" x="199.508347" y="14.618288" style="fill: #1f77b4; stroke: #ffffff; stroke-width: 0.252982"/>
     <use xlink:href="#me568d67045" x="199.43421" y="14.621282" style="fill: #1f77b4; stroke: #ffffff; stroke-width: 0.252982"/>
     <use xlink:href="#me568d67045" x="199.356376" y="14.624429" style="fill: #1f77b4; stroke: #ffffff; stroke-width: 0.252982"/>
     <use xlink:href="#me568d67045" x="199.27466" y="14.627735" style="fill: #1f77b4; stroke: #ffffff; stroke-width: 0.252982"/>
     <use xlink:href="#me568d67045" x="199.188871" y="14.63121" style="fill: #1f77b4; stroke: #ffffff; stroke-width: 0.252982"/>
     <use xlink:href="#me568d67045" x="199.098805" y="14.634863" style="fill: #1f77b4; stroke: #ffffff; stroke-width: 0.252982"/>
     <use xlink:href="#me568d67045" x="199.00425" y="14.638702" style="fill: #1f77b4; stroke: #ffffff; stroke-width: 0.252982"/>
     <use xlink:href="#me568d67045" x="198.904983" y="14.642737" style="fill: #1f77b4; stroke: #ffffff; stroke-width: 0.252982"/>
     <use xlink:href="#me568d67045" x="198.80077" y="14.646979" style="fill: #1f77b4; stroke: #ffffff; stroke-width: 0.252982"/>
     <use xlink:href="#me568d67045" x="198.691366" y="14.651438" style="fill: #1f77b4; stroke: #ffffff; stroke-width: 0.252982"/>
     <use xlink:href="#me568d67045" x="198.576513" y="14.656126" style="fill: #1f77b4; stroke: #ffffff; stroke-width: 0.252982"/>
     <use xlink:href="#me568d67045" x="198.45594" y="14.661055" style="fill: #1f77b4; stroke: #ffffff; stroke-width: 0.252982"/>
     <use xlink:href="#me568d67045" x="198.329364" y="14.666237" style="fill: #1f77b4; stroke: #ffffff; stroke-width: 0.252982"/>
     <use xlink:href="#me568d67045" x="198.196489" y="14.671686" style="fill: #1f77b4; stroke: #ffffff; stroke-width: 0.252982"/>
     <use xlink:href="#me568d67045" x="198.057001" y="14.677416" style="fill: #1f77b4; stroke: #ffffff; stroke-width: 0.252982"/>
     <use xlink:href="#me568d67045" x="197.910574" y="14.683442" style="fill: #1f77b4; stroke: #ffffff; stroke-width: 0.252982"/>
     <use xlink:href="#me568d67045" x="197.756863" y="14.68978" style="fill: #1f77b4; stroke: #ffffff; stroke-width: 0.252982"/>
     <use xlink:href="#me568d67045" x="197.59551" y="14.696447" style="fill: #1f77b4; stroke: #ffffff; stroke-width: 0.252982"/>
     <use xlink:href="#me568d67045" x="197.426136" y="14.703459" style="fill: #1f77b4; stroke: #ffffff; stroke-width: 0.252982"/>
     <use xlink:href="#me568d67045" x="197.248346" y="14.710837" style="fill: #1f77b4; stroke: #ffffff; stroke-width: 0.252982"/>
     <use xlink:href="#me568d67045" x="197.061723" y="14.718599" style="fill: #1f77b4; stroke: #ffffff; stroke-width: 0.252982"/>
     <use xlink:href="#me568d67045" x="196.865833" y="14.726767" style="fill: #1f77b4; stroke: #ffffff; stroke-width: 0.252982"/>
     <use xlink:href="#me568d67045" x="196.660219" y="14.735362" style="fill: #1f77b4; stroke: #ffffff; stroke-width: 0.252982"/>
     <use xlink:href="#me568d67045" x="196.444401" y="14.744408" style="fill: #1f77b4; stroke: #ffffff; stroke-width: 0.252982"/>
     <use xlink:href="#me568d67045" x="196.217879" y="14.753929" style="fill: #1f77b4; stroke: #ffffff; stroke-width: 0.252982"/>
     <use xlink:href="#me568d67045" x="195.980125" y="14.763953" style="fill: #1f77b4; stroke: #ffffff; stroke-width: 0.252982"/>
     <use xlink:href="#me568d67045" x="195.730589" y="14.774507" style="fill: #1f77b4; stroke: #ffffff; stroke-width: 0.252982"/>
     <use xlink:href="#me568d67045" x="195.468692" y="14.78562" style="fill: #1f77b4; stroke: #ffffff; stroke-width: 0.252982"/>
     <use xlink:href="#me568d67045" x="195.19383" y="14.797324" style="fill: #1f77b4; stroke: #ffffff; stroke-width: 0.252982"/>
     <use xlink:href="#me568d67045" x="194.905366" y="14.809652" style="fill: #1f77b4; stroke: #ffffff; stroke-width: 0.252982"/>
     <use xlink:href="#me568d67045" x="194.602638" y="14.822639" style="fill: #1f77b4; stroke: #ffffff; stroke-width: 0.252982"/>
     <use xlink:href="#me568d67045" x="194.284947" y="14.836323" style="fill: #1f77b4; stroke: #ffffff; stroke-width: 0.252982"/>
     <use xlink:href="#me568d67045" x="193.951566" y="14.850744" style="fill: #1f77b4; stroke: #ffffff; stroke-width: 0.252982"/>
     <use xlink:href="#me568d67045" x="193.60173" y="14.865945" style="fill: #1f77b4; stroke: #ffffff; stroke-width: 0.252982"/>
     <use xlink:href="#me568d67045" x="193.234641" y="14.881971" style="fill: #1f77b4; stroke: #ffffff; stroke-width: 0.252982"/>
     <use xlink:href="#me568d67045" x="192.84946" y="14.898869" style="fill: #1f77b4; stroke: #ffffff; stroke-width: 0.252982"/>
     <use xlink:href="#me568d67045" x="192.445312" y="14.916692" style="fill: #1f77b4; stroke: #ffffff; stroke-width: 0.252982"/>
     <use xlink:href="#me568d67045" x="192.021281" y="14.935494" style="fill: #1f77b4; stroke: #ffffff; stroke-width: 0.252982"/>
     <use xlink:href="#me568d67045" x="191.576409" y="14.955335" style="fill: #1f77b4; stroke: #ffffff; stroke-width: 0.252982"/>
     <use xlink:href="#me568d67045" x="191.109691" y="14.976275" style="fill: #1f77b4; stroke: #ffffff; stroke-width: 0.252982"/>
     <use xlink:href="#me568d67045" x="190.620081" y="14.998383" style="fill: #1f77b4; stroke: #ffffff; stroke-width: 0.252982"/>
     <use xlink:href="#me568d67045" x="190.106483" y="15.021731" style="fill: #1f77b4; stroke: #ffffff; stroke-width: 0.252982"/>
     <use xlink:href="#me568d67045" x="189.567751" y="15.046394" style="fill: #1f77b4; stroke: #ffffff; stroke-width: 0.252982"/>
     <use xlink:href="#me568d67045" x="189.00269" y="15.072455" style="fill: #1f77b4; stroke: #ffffff; stroke-width: 0.252982"/>
     <use xlink:href="#me568d67045" x="188.410052" y="15.100003" style="fill: #1f77b4; stroke: #ffffff; stroke-width: 0.252982"/>
     <use xlink:href="#me568d67045" x="187.788534" y="15.129132" style="fill: #1f77b4; stroke: #ffffff; stroke-width: 0.252982"/>
     <use xlink:href="#me568d67045" x="187.136776" y="15.159944" style="fill: #1f77b4; stroke: #ffffff; stroke-width: 0.252982"/>
     <use xlink:href="#me568d67045" x="186.453361" y="15.192549" style="fill: #1f77b4; stroke: #ffffff; stroke-width: 0.252982"/>
     <use xlink:href="#me568d67045" x="185.736813" y="15.227066" style="fill: #1f77b4; stroke: #ffffff; stroke-width: 0.252982"/>
     <use xlink:href="#me568d67045" x="184.985594" y="15.263621" style="fill: #1f77b4; stroke: #ffffff; stroke-width: 0.252982"/>
     <use xlink:href="#me568d67045" x="184.198103" y="15.302353" style="fill: #1f77b4; stroke: #ffffff; stroke-width: 0.252982"/>
     <use xlink:href="#me568d67045" x="183.372676" y="15.34341" style="fill: #1f77b4; stroke: #ffffff; stroke-width: 0.252982"/>
     <use xlink:href="#me568d67045" x="182.507584" y="15.386953" style="fill: #1f77b4; stroke: #ffffff; stroke-width: 0.252982"/>
     <use xlink:href="#me568d67045" x="181.601031" y="15.433158" style="fill: #1f77b4; stroke: #ffffff; stroke-width: 0.252982"/>
     <use xlink:href="#me568d67045" x="180.651155" y="15.482215" style="fill: #1f77b4; stroke: #ffffff; stroke-width: 0.252982"/>
     <use xlink:href="#me568d67045" x="179.656029" y="15.534328" style="fill: #1f77b4; stroke: #ffffff; stroke-width: 0.252982"/>
     <use xlink:href="#me568d67045" x="178.613658" y="15.589724" style="fill: #1f77b4; stroke: #ffffff; stroke-width: 0.252982"/>
     <use xlink:href="#me568d67045" x="177.521982" y="15.648645" style="fill: #1f77b4; stroke: #ffffff; stroke-width: 0.252982"/>
     <use xlink:href="#me568d67045" x="176.378875" y="15.711361" style="fill: #1f77b4; stroke: #ffffff; stroke-width: 0.252982"/>
     <use xlink:href="#me568d67045" x="175.182152" y="15.778162" style="fill: #1f77b4; stroke: #ffffff; stroke-width: 0.252982"/>
     <use xlink:href="#me568d67045" x="173.929567" y="15.849369" style="fill: #1f77b4; stroke: #ffffff; stroke-width: 0.252982"/>
     <use xlink:href="#me568d67045" x="172.618819" y="15.925332" style="fill: #1f77b4; stroke: #ffffff; stroke-width: 0.252982"/>
     <use xlink:href="#me568d67045" x="171.247559" y="16.006437" style="fill: #1f77b4; stroke: #ffffff; stroke-width: 0.252982"/>
     <use xlink:href="#me568d67045" x="169.813396" y="16.093109" style="fill: #1f77b4; stroke: #ffffff; stroke-width: 0.252982"/>
     <use xlink:href="#me568d67045" x="168.313904" y="16.185815" style="fill: #1f77b4; stroke: #ffffff; stroke-width: 0.252982"/>
     <use xlink:href="#me568d67045" x="166.746636" y="16.285072" style="fill: #1f77b4; stroke: #ffffff; stroke-width: 0.252982"/>
     <use xlink:href="#me568d67045" x="165.109137" y="16.391454" style="fill: #1f77b4; stroke: #ffffff; stroke-width: 0.252982"/>
     <use xlink:href="#me568d67045" x="163.398959" y="16.505593" style="fill: #1f77b4; stroke: #ffffff; stroke-width: 0.252982"/>
     <use xlink:href="#me568d67045" x="161.613684" y="16.628194" style="fill: #1f77b4; stroke: #ffffff; stroke-width: 0.252982"/>
     <use xlink:href="#me568d67045" x="159.750946" y="16.760041" style="fill: #1f77b4; stroke: #ffffff; stroke-width: 0.252982"/>
     <use xlink:href="#me568d67045" x="157.808462" y="16.902008" style="fill: #1f77b4; stroke: #ffffff; stroke-width: 0.252982"/>
     <use xlink:href="#me568d67045" x="155.784068" y="17.055069" style="fill: #1f77b4; stroke: #ffffff; stroke-width: 0.252982"/>
     <use xlink:href="#me568d67045" x="153.67576" y="17.220317" style="fill: #1f77b4; stroke: #ffffff; stroke-width: 0.252982"/>
     <use xlink:href="#me568d67045" x="151.481744" y="17.398973" style="fill: #1f77b4; stroke: #ffffff; stroke-width: 0.252982"/>
     <use xlink:href="#me568d67045" x="149.200495" y="17.592409" style="fill: #1f77b4; stroke: #ffffff; stroke-width: 0.252982"/>
     <use xlink:href="#me568d67045" x="146.830828" y="17.802163" style="fill: #1f77b4; stroke: #ffffff; stroke-width: 0.252982"/>
     <use xlink:href="#me568d67045" x="144.371975" y="18.029968" style="fill: #1f77b4; stroke: #ffffff; stroke-width: 0.252982"/>
     <use xlink:href="#me568d67045" x="141.823684" y="18.277772" style="fill: #1f77b4; stroke: #ffffff; stroke-width: 0.252982"/>
     <use xlink:href="#me568d67045" x="139.186321" y="18.547769" style="fill: #1f77b4; stroke: #ffffff; stroke-width: 0.252982"/>
     <use xlink:href="#me568d67045" x="136.460997" y="18.842427" style="fill: #1f77b4; stroke: #ffffff; stroke-width: 0.252982"/>
     <use xlink:href="#me568d67045" x="133.649706" y="19.164524" style="fill: #1f77b4; stroke: #ffffff; stroke-width: 0.252982"/>
     <use xlink:href="#me568d67045" x="130.755473" y="19.517179" style="fill: #1f77b4; stroke: #ffffff; stroke-width: 0.252982"/>
     <use xlink:href="#me568d67045" x="127.782518" y="19.903888" style="fill: #1f77b4; stroke: #ffffff; stroke-width: 0.252982"/>
     <use xlink:href="#me568d67045" x="124.736429" y="20.328555" style="fill: #1f77b4; stroke: #ffffff; stroke-width: 0.252982"/>
     <use xlink:href="#me568d67045" x="121.624332" y="20.795523" style="fill: #1f77b4; stroke: #ffffff; stroke-width: 0.252982"/>
     <use xlink:href="#me568d67045" x="118.455043" y="21.309587" style="fill: #1f77b4; stroke: #ffffff; stroke-width: 0.252982"/>
     <use xlink:href="#me568d67045" x="115.239205" y="21.876003" style="fill: #1f77b4; stroke: #ffffff; stroke-width: 0.252982"/>
     <use xlink:href="#me568d67045" x="111.98936" y="22.500468" style="fill: #1f77b4; stroke: #ffffff; stroke-width: 0.252982"/>
     <use xlink:href="#me568d67045" x="108.719957" y="23.189077" style="fill: #1f77b4; stroke: #ffffff; stroke-width: 0.252982"/>
     <use xlink:href="#me568d67045" x="105.447251" y="23.948244" style="fill: #1f77b4; stroke: #ffffff; stroke-width: 0.252982"/>
     <use xlink:href="#me568d67045" x="102.189071" y="24.784575" style="fill: #1f77b4; stroke: #ffffff; stroke-width: 0.252982"/>
     <use xlink:href="#me568d67045" x="98.964442" y="25.704704" style="fill: #1f77b4; stroke: #ffffff; stroke-width: 0.252982"/>
     <use xlink:href="#me568d67045" x="95.793046" y="26.71508" style="fill: #1f77b4; stroke: #ffffff; stroke-width: 0.252982"/>
     <use xlink:href="#me568d67045" x="92.69455" y="27.821724" style="fill: #1f77b4; stroke: #ffffff; stroke-width: 0.252982"/>
     <use xlink:href="#me568d67045" x="89.687835" y="29.029964" style="fill: #1f77b4; stroke: #ffffff; stroke-width: 0.252982"/>
     <use xlink:href="#me568d67045" x="86.790201" y="30.344178" style="fill: #1f77b4; stroke: #ffffff; stroke-width: 0.252982"/>
     <use xlink:href="#me568d67045" x="84.016631" y="31.767574" style="fill: #1f77b4; stroke: #ffffff; stroke-width: 0.252982"/>
     <use xlink:href="#me568d67045" x="81.3792" y="33.302025" style="fill: #1f77b4; stroke: #ffffff; stroke-width: 0.252982"/>
     <use xlink:href="#me568d67045" x="78.886701" y="34.947977" style="fill: #1f77b4; stroke: #ffffff; stroke-width: 0.252982"/>
     <use xlink:href="#me568d67045" x="76.54451" y="36.704446" style="fill: #1f77b4; stroke: #ffffff; stroke-width: 0.252982"/>
     <use xlink:href="#me568d67045" x="74.354705" y="38.569085" style="fill: #1f77b4; stroke: #ffffff; stroke-width: 0.252982"/>
     <use xlink:href="#me568d67045" x="72.316376" y="40.538315" style="fill: #1f77b4; stroke: #ffffff; stroke-width: 0.252982"/>
     <use xlink:href="#me568d67045" x="70.42609" y="42.607491" style="fill: #1f77b4; stroke: #ffffff; stroke-width: 0.252982"/>
     <use xlink:href="#me568d67045" x="68.678411" y="44.771086" style="fill: #1f77b4; stroke: #ffffff; stroke-width: 0.252982"/>
     <use xlink:href="#me568d67045" x="67.066443" y="47.022878" style="fill: #1f77b4; stroke: #ffffff; stroke-width: 0.252982"/>
     <use xlink:href="#me568d67045" x="65.582323" y="49.356109" style="fill: #1f77b4; stroke: #ffffff; stroke-width: 0.252982"/>
     <use xlink:href="#me568d67045" x="64.217654" y="51.763638" style="fill: #1f77b4; stroke: #ffffff; stroke-width: 0.252982"/>
     <use xlink:href="#me568d67045" x="62.963851" y="54.238059" style="fill: #1f77b4; stroke: #ffffff; stroke-width: 0.252982"/>
     <use xlink:href="#me568d67045" x="61.81241" y="56.771799" style="fill: #1f77b4; stroke: #ffffff; stroke-width: 0.252982"/>
     <use xlink:href="#me568d67045" x="60.7551" y="59.357198" style="fill: #1f77b4; stroke: #ffffff; stroke-width: 0.252982"/>
     <use xlink:href="#me568d67045" x="59.784089" y="61.986571" style="fill: #1f77b4; stroke: #ffffff; stroke-width: 0.252982"/>
     <use xlink:href="#me568d67045" x="58.892026" y="64.652266" style="fill: #1f77b4; stroke: #ffffff; stroke-width: 0.252982"/>
     <use xlink:href="#me568d67045" x="58.072081" y="67.346703" style="fill: #1f77b4; stroke: #ffffff; stroke-width: 0.252982"/>
     <use xlink:href="#me568d67045" x="57.317953" y="70.062419" style="fill: #1f77b4; stroke: #ffffff; stroke-width: 0.252982"/>
     <use xlink:href="#me568d67045" x="56.623865" y="72.792104" style="fill: #1f77b4; stroke: #ffffff; stroke-width: 0.252982"/>
     <use xlink:href="#me568d67045" x="55.984541" y="75.528636" style="fill: #1f77b4; stroke: #ffffff; stroke-width: 0.252982"/>
     <use xlink:href="#me568d67045" x="55.39518" y="78.265114" style="fill: #1f77b4; stroke: #ffffff; stroke-width: 0.252982"/>
     <use xlink:href="#me568d67045" x="54.851418" y="80.994895" style="fill: #1f77b4; stroke: #ffffff; stroke-width: 0.252982"/>
     <use xlink:href="#me568d67045" x="54.349297" y="83.711623" style="fill: #1f77b4; stroke: #ffffff; stroke-width: 0.252982"/>
     <use xlink:href="#me568d67045" x="53.885229" y="86.409256" style="fill: #1f77b4; stroke: #ffffff; stroke-width: 0.252982"/>
     <use xlink:href="#me568d67045" x="53.455963" y="89.082097" style="fill: #1f77b4; stroke: #ffffff; stroke-width: 0.252982"/>
     <use xlink:href="#me568d67045" x="53.05855" y="91.724816" style="fill: #1f77b4; stroke: #ffffff; stroke-width: 0.252982"/>
     <use xlink:href="#me568d67045" x="52.690319" y="94.332467" style="fill: #1f77b4; stroke: #ffffff; stroke-width: 0.252982"/>
     <use xlink:href="#me568d67045" x="52.348844" y="96.900508" style="fill: #1f77b4; stroke: #ffffff; stroke-width: 0.252982"/>
     <use xlink:href="#me568d67045" x="52.031926" y="99.424808" style="fill: #1f77b4; stroke: #ffffff; stroke-width: 0.252982"/>
     <use xlink:href="#me568d67045" x="51.737566" y="101.901657" style="fill: #1f77b4; stroke: #ffffff; stroke-width: 0.252982"/>
     <use xlink:href="#me568d67045" x="51.463944" y="104.327761" style="fill: #1f77b4; stroke: #ffffff; stroke-width: 0.252982"/>
     <use xlink:href="#me568d67045" x="51.209407" y="106.700247" style="fill: #1f77b4; stroke: #ffffff; stroke-width: 0.252982"/>
     <use xlink:href="#me568d67045" x="50.972448" y="109.01665" style="fill: #1f77b4; stroke: #ffffff; stroke-width: 0.252982"/>
     <use xlink:href="#me568d67045" x="50.751691" y="111.274904" style="fill: #1f77b4; stroke: #ffffff; stroke-width: 0.252982"/>
     <use xlink:href="#me568d67045" x="50.545882" y="113.473326" style="fill: #1f77b4; stroke: #ffffff; stroke-width: 0.252982"/>
     <use xlink:href="#me568d67045" x="50.353875" y="115.610599" style="fill: #1f77b4; stroke: #ffffff; stroke-width: 0.252982"/>
     <use xlink:href="#me568d67045" x="50.174623" y="117.685752" style="fill: #1f77b4; stroke: #ffffff; stroke-width: 0.252982"/>
     <use xlink:href="#me568d67045" x="50.007166" y="119.698137" style="fill: #1f77b4; stroke: #ffffff; stroke-width: 0.252982"/>
     <use xlink:href="#me568d67045" x="49.850627" y="121.647407" style="fill: #1f77b4; stroke: #ffffff; stroke-width: 0.252982"/>
     <use xlink:href="#me568d67045" x="49.704199" y="123.533491" style="fill: #1f77b4; stroke: #ffffff; stroke-width: 0.252982"/>
     <use xlink:href="#me568d67045" x="49.567144" y="125.35657" style="fill: #1f77b4; stroke: #ffffff; stroke-width: 0.252982"/>
     <use xlink:href="#me568d67045" x="49.438785" y="127.11705" style="fill: #1f77b4; stroke: #ffffff; stroke-width: 0.252982"/>
     <use xlink:href="#me568d67045" x="49.318496" y="128.815542" style="fill: #1f77b4; stroke: #ffffff; stroke-width: 0.252982"/>
     <use xlink:href="#me568d67045" x="49.205706" y="130.452837" style="fill: #1f77b4; stroke: #ffffff; stroke-width: 0.252982"/>
     <use xlink:href="#me568d67045" x="49.099887" y="132.029883" style="fill: #1f77b4; stroke: #ffffff; stroke-width: 0.252982"/>
     <use xlink:href="#me568d67045" x="49.000553" y="133.547763" style="fill: #1f77b4; stroke: #ffffff; stroke-width: 0.252982"/>
     <use xlink:href="#me568d67045" x="48.907256" y="135.007677" style="fill: #1f77b4; stroke: #ffffff; stroke-width: 0.252982"/>
     <use xlink:href="#me568d67045" x="48.819584" y="136.410922" style="fill: #1f77b4; stroke: #ffffff; stroke-width: 0.252982"/>
     <use xlink:href="#me568d67045" x="48.737155" y="137.758874" style="fill: #1f77b4; stroke: #ffffff; stroke-width: 0.252982"/>
     <use xlink:href="#me568d67045" x="48.659616" y="139.052976" style="fill: #1f77b4; stroke: #ffffff; stroke-width: 0.252982"/>
     <use xlink:href="#me568d67045" x="48.586644" y="140.294718" style="fill: #1f77b4; stroke: #ffffff; stroke-width: 0.252982"/>
     <use xlink:href="#me568d67045" x="48.517936" y="141.485628" style="fill: #1f77b4; stroke: #ffffff; stroke-width: 0.252982"/>
     <use xlink:href="#me568d67045" x="48.453214" y="142.62726" style="fill: #1f77b4; stroke: #ffffff; stroke-width: 0.252982"/>
     <use xlink:href="#me568d67045" x="48.39222" y="143.721182" style="fill: #1f77b4; stroke: #ffffff; stroke-width: 0.252982"/>
     <use xlink:href="#me568d67045" x="48.334715" y="144.768966" style="fill: #1f77b4; stroke: #ffffff; stroke-width: 0.252982"/>
     <use xlink:href="#me568d67045" x="48.280477" y="145.772184" style="fill: #1f77b4; stroke: #ffffff; stroke-width: 0.252982"/>
     <use xlink:href="#me568d67045" x="48.2293" y="146.732398" style="fill: #1f77b4; stroke: #ffffff; stroke-width: 0.252982"/>
     <use xlink:href="#me568d67045" x="48.180992" y="147.651153" style="fill: #1f77b4; stroke: #ffffff; stroke-width: 0.252982"/>
     <use xlink:href="#me568d67045" x="48.135376" y="148.529974" style="fill: #1f77b4; stroke: #ffffff; stroke-width: 0.252982"/>
     <use xlink:href="#me568d67045" x="48.092286" y="149.370361" style="fill: #1f77b4; stroke: #ffffff; stroke-width: 0.252982"/>
     <use xlink:href="#me568d67045" x="48.051568" y="150.173785" style="fill: #1f77b4; stroke: #ffffff; stroke-width: 0.252982"/>
     <use xlink:href="#me568d67045" x="48.013079" y="150.941684" style="fill: #1f77b4; stroke: #ffffff; stroke-width: 0.252982"/>
     <use xlink:href="#me568d67045" x="47.976686" y="151.675462" style="fill: #1f77b4; stroke: #ffffff; stroke-width: 0.252982"/>
     <use xlink:href="#me568d67045" x="47.942262" y="152.376489" style="fill: #1f77b4; stroke: #ffffff; stroke-width: 0.252982"/>
     <use xlink:href="#me568d67045" x="47.909693" y="153.046094" style="fill: #1f77b4; stroke: #ffffff; stroke-width: 0.252982"/>
     <use xlink:href="#me568d67045" x="47.87887" y="153.685568" style="fill: #1f77b4; stroke: #ffffff; stroke-width: 0.252982"/>
     <use xlink:href="#me568d67045" x="47.84969" y="154.296162" style="fill: #1f77b4; stroke: #ffffff; stroke-width: 0.252982"/>
     <use xlink:href="#me568d67045" x="47.822059" y="154.879089" style="fill: #1f77b4; stroke: #ffffff; stroke-width: 0.252982"/>
     <use xlink:href="#me568d67045" x="47.795889" y="155.435518" style="fill: #1f77b4; stroke: #ffffff; stroke-width: 0.252982"/>
     <use xlink:href="#me568d67045" x="47.771095" y="155.966582" style="fill: #1f77b4; stroke: #ffffff; stroke-width: 0.252982"/>
     <use xlink:href="#me568d67045" x="47.7476" y="156.47337" style="fill: #1f77b4; stroke: #ffffff; stroke-width: 0.252982"/>
     <use xlink:href="#me568d67045" x="47.725331" y="156.956935" style="fill: #1f77b4; stroke: #ffffff; stroke-width: 0.252982"/>
     <use xlink:href="#me568d67045" x="47.70422" y="157.418287" style="fill: #1f77b4; stroke: #ffffff; stroke-width: 0.252982"/>
     <use xlink:href="#me568d67045" x="47.684201" y="157.858402" style="fill: #1f77b4; stroke: #ffffff; stroke-width: 0.252982"/>
     <use xlink:href="#me568d67045" x="47.665216" y="158.278215" style="fill: #1f77b4; stroke: #ffffff; stroke-width: 0.252982"/>
     <use xlink:href="#me568d67045" x="47.647206" y="158.678627" style="fill: #1f77b4; stroke: #ffffff; stroke-width: 0.252982"/>
     <use xlink:href="#me568d67045" x="47.63012" y="159.0605" style="fill: #1f77b4; stroke: #ffffff; stroke-width: 0.252982"/>
     <use xlink:href="#me568d67045" x="47.613906" y="159.424664" style="fill: #1f77b4; stroke: #ffffff; stroke-width: 0.252982"/>
     <use xlink:href="#me568d67045" x="47.598518" y="159.771914" style="fill: #1f77b4; stroke: #ffffff; stroke-width: 0.252982"/>
     <use xlink:href="#me568d67045" x="47.583911" y="160.103011" style="fill: #1f77b4; stroke: #ffffff; stroke-width: 0.252982"/>
     <use xlink:href="#me568d67045" x="47.570044" y="160.418688" style="fill: #1f77b4; stroke: #ffffff; stroke-width: 0.252982"/>
     <use xlink:href="#me568d67045" x="47.556877" y="160.719642" style="fill: #1f77b4; stroke: #ffffff; stroke-width: 0.252982"/>
     <use xlink:href="#me568d67045" x="47.544373" y="161.006544" style="fill: #1f77b4; stroke: #ffffff; stroke-width: 0.252982"/>
     <use xlink:href="#me568d67045" x="47.532497" y="161.280036" style="fill: #1f77b4; stroke: #ffffff; stroke-width: 0.252982"/>
     <use xlink:href="#me568d67045" x="47.521216" y="161.54073" style="fill: #1f77b4; stroke: #ffffff; stroke-width: 0.252982"/>
     <use xlink:href="#me568d67045" x="47.5105" y="161.789214" style="fill: #1f77b4; stroke: #ffffff; stroke-width: 0.252982"/>
     <use xlink:href="#me568d67045" x="47.500318" y="162.026048" style="fill: #1f77b4; stroke: #ffffff; stroke-width: 0.252982"/>
     <use xlink:href="#me568d67045" x="47.490642" y="162.251769" style="fill: #1f77b4; stroke: #ffffff; stroke-width: 0.252982"/>
     <use xlink:href="#me568d67045" x="47.481448" y="162.466891" style="fill: #1f77b4; stroke: #ffffff; stroke-width: 0.252982"/>
     <use xlink:href="#me568d67045" x="47.472709" y="162.671903" style="fill: #1f77b4; stroke: #ffffff; stroke-width: 0.252982"/>
     <use xlink:href="#me568d67045" x="47.464403" y="162.867273" style="fill: #1f77b4; stroke: #ffffff; stroke-width: 0.252982"/>
    </g>
   </g>
   <g id="patch_3">
    <path d="M 39.855313 170.28 
L 39.855313 7.2 
" style="fill: none; stroke: #262626; stroke-linejoin: miter; stroke-linecap: square"/>
   </g>
   <g id="patch_4">
    <path d="M 207.255313 170.28 
L 207.255313 7.2 
" style="fill: none; stroke: #262626; stroke-linejoin: miter; stroke-linecap: square"/>
   </g>
   <g id="patch_5">
    <path d="M 39.855313 170.28 
L 207.255313 170.28 
" style="fill: none; stroke: #262626; stroke-linejoin: miter; stroke-linecap: square"/>
   </g>
   <g id="patch_6">
    <path d="M 39.855313 7.2 
L 207.255313 7.2 
" style="fill: none; stroke: #262626; stroke-linejoin: miter; stroke-linecap: square"/>
   </g>
  </g>
 </g>
 <defs>
  <clipPath id="p8c768b3821">
   <rect x="39.855313" y="7.2" width="167.4" height="163.08"/>
  </clipPath>
 </defs>
</svg>
