<?xml version="1.0" encoding="utf-8" standalone="no"?>
<!DOCTYPE svg PUBLIC "-//W3C//DTD SVG 1.1//EN"
  "http://www.w3.org/Graphics/SVG/1.1/DTD/svg11.dtd">
<svg xmlns:xlink="http://www.w3.org/1999/xlink" width="386.307812pt" height="263.829556pt" viewBox="0 0 386.307812 263.829556" xmlns="http://www.w3.org/2000/svg" version="1.1">
 <metadata>
  <rdf:RDF xmlns:dc="http://purl.org/dc/elements/1.1/" xmlns:cc="http://creativecommons.org/ns#" xmlns:rdf="http://www.w3.org/1999/02/22-rdf-syntax-ns#">
   <cc:Work>
    <dc:type rdf:resource="http://purl.org/dc/dcmitype/StillImage"/>
    <dc:date>2022-07-28T17:11:06.933135</dc:date>
    <dc:format>image/svg+xml</dc:format>
    <dc:creator>
     <cc:Agent>
      <dc:title>Matplotlib v3.5.1, https://matplotlib.org/</dc:title>
     </cc:Agent>
    </dc:creator>
   </cc:Work>
  </rdf:RDF>
 </metadata>
 <defs>
  <style type="text/css">*{stroke-linejoin: round; stroke-linecap: butt}</style>
 </defs>
 <g id="figure_1">
  <g id="patch_1">
   <path d="M 0 263.829556 
L 386.307812 263.829556 
L 386.307812 0 
L 0 0 
z
" style="fill: #ffffff"/>
  </g>
  <g id="axes_1">
   <g id="patch_2">
    <path d="M 44.307813 227.338931 
L 379.107813 227.338931 
L 379.107813 9.898931 
L 44.307813 9.898931 
z
" style="fill: #ffffff"/>
   </g>
   <g id="line2d_1">
    <path d="M 53.945082 227.338931 
L 343.869169 9.898931 
" clip-path="url(#pff0d5344f8)" style="fill: none; stroke-dasharray: 1.85,0.8; stroke-dashoffset: 0; stroke: #000000; stroke-width: 0.5"/>
   </g>
   <g id="matplotlib.axis_1">
    <g id="xtick_1">
     <g id="line2d_2">
      <defs>
       <path id="m62cbdc2873" d="M 0 0 
L 0 3.5 
" style="stroke: #262626; stroke-width: 0.8"/>
      </defs>
      <g>
       <use xlink:href="#m62cbdc2873" x="61.557768" y="227.338931" style="fill: #262626; stroke: #262626; stroke-width: 0.8"/>
      </g>
     </g>
     <g id="text_1">
      <!-- −10 -->
      <g style="fill: #262626" transform="translate(53.076518 241.496744)scale(0.1 -0.1)">
       <defs>
        <path id="ArialMT-2212" d="M 3381 1997 
L 356 1997 
L 356 2522 
L 3381 2522 
L 3381 1997 
z
" transform="scale(0.015625)"/>
        <path id="ArialMT-31" d="M 2384 0 
L 1822 0 
L 1822 3584 
Q 1619 3391 1289 3197 
Q 959 3003 697 2906 
L 697 3450 
Q 1169 3672 1522 3987 
Q 1875 4303 2022 4600 
L 2384 4600 
L 2384 0 
z
" transform="scale(0.015625)"/>
        <path id="ArialMT-30" d="M 266 2259 
Q 266 3072 433 3567 
Q 600 4063 929 4331 
Q 1259 4600 1759 4600 
Q 2128 4600 2406 4451 
Q 2684 4303 2865 4023 
Q 3047 3744 3150 3342 
Q 3253 2941 3253 2259 
Q 3253 1453 3087 958 
Q 2922 463 2592 192 
Q 2263 -78 1759 -78 
Q 1097 -78 719 397 
Q 266 969 266 2259 
z
M 844 2259 
Q 844 1131 1108 757 
Q 1372 384 1759 384 
Q 2147 384 2411 759 
Q 2675 1134 2675 2259 
Q 2675 3391 2411 3762 
Q 2147 4134 1753 4134 
Q 1366 4134 1134 3806 
Q 844 3388 844 2259 
z
" transform="scale(0.015625)"/>
       </defs>
       <use xlink:href="#ArialMT-2212"/>
       <use xlink:href="#ArialMT-31" x="58.398438"/>
       <use xlink:href="#ArialMT-30" x="114.013672"/>
      </g>
     </g>
    </g>
    <g id="xtick_2">
     <g id="line2d_3">
      <g>
       <use xlink:href="#m62cbdc2873" x="108.414115" y="227.338931" style="fill: #262626; stroke: #262626; stroke-width: 0.8"/>
      </g>
     </g>
     <g id="text_2">
      <!-- −5 -->
      <g style="fill: #262626" transform="translate(102.713334 241.496744)scale(0.1 -0.1)">
       <defs>
        <path id="ArialMT-35" d="M 266 1200 
L 856 1250 
Q 922 819 1161 601 
Q 1400 384 1738 384 
Q 2144 384 2425 690 
Q 2706 997 2706 1503 
Q 2706 1984 2436 2262 
Q 2166 2541 1728 2541 
Q 1456 2541 1237 2417 
Q 1019 2294 894 2097 
L 366 2166 
L 809 4519 
L 3088 4519 
L 3088 3981 
L 1259 3981 
L 1013 2750 
Q 1425 3038 1878 3038 
Q 2478 3038 2890 2622 
Q 3303 2206 3303 1553 
Q 3303 931 2941 478 
Q 2500 -78 1738 -78 
Q 1113 -78 717 272 
Q 322 622 266 1200 
z
" transform="scale(0.015625)"/>
       </defs>
       <use xlink:href="#ArialMT-2212"/>
       <use xlink:href="#ArialMT-35" x="58.398438"/>
      </g>
     </g>
    </g>
    <g id="xtick_3">
     <g id="line2d_4">
      <g>
       <use xlink:href="#m62cbdc2873" x="155.270462" y="227.338931" style="fill: #262626; stroke: #262626; stroke-width: 0.8"/>
      </g>
     </g>
     <g id="text_3">
      <!-- 0 -->
      <g style="fill: #262626" transform="translate(152.489994 241.496744)scale(0.1 -0.1)">
       <use xlink:href="#ArialMT-30"/>
      </g>
     </g>
    </g>
    <g id="xtick_4">
     <g id="line2d_5">
      <g>
       <use xlink:href="#m62cbdc2873" x="202.12681" y="227.338931" style="fill: #262626; stroke: #262626; stroke-width: 0.8"/>
      </g>
     </g>
     <g id="text_4">
      <!-- 5 -->
      <g style="fill: #262626" transform="translate(199.346341 241.496744)scale(0.1 -0.1)">
       <use xlink:href="#ArialMT-35"/>
      </g>
     </g>
    </g>
    <g id="xtick_5">
     <g id="line2d_6">
      <g>
       <use xlink:href="#m62cbdc2873" x="248.983157" y="227.338931" style="fill: #262626; stroke: #262626; stroke-width: 0.8"/>
      </g>
     </g>
     <g id="text_5">
      <!-- 10 -->
      <g style="fill: #262626" transform="translate(243.42222 241.496744)scale(0.1 -0.1)">
       <use xlink:href="#ArialMT-31"/>
       <use xlink:href="#ArialMT-30" x="55.615234"/>
      </g>
     </g>
    </g>
    <g id="xtick_6">
     <g id="line2d_7">
      <g>
       <use xlink:href="#m62cbdc2873" x="295.839505" y="227.338931" style="fill: #262626; stroke: #262626; stroke-width: 0.8"/>
      </g>
     </g>
     <g id="text_6">
      <!-- 15 -->
      <g style="fill: #262626" transform="translate(290.278567 241.496744)scale(0.1 -0.1)">
       <use xlink:href="#ArialMT-31"/>
       <use xlink:href="#ArialMT-35" x="55.615234"/>
      </g>
     </g>
    </g>
    <g id="xtick_7">
     <g id="line2d_8">
      <g>
       <use xlink:href="#m62cbdc2873" x="342.695852" y="227.338931" style="fill: #262626; stroke: #262626; stroke-width: 0.8"/>
      </g>
     </g>
     <g id="text_7">
      <!-- 20 -->
      <g style="fill: #262626" transform="translate(337.134915 241.496744)scale(0.1 -0.1)">
       <defs>
        <path id="ArialMT-32" d="M 3222 541 
L 3222 0 
L 194 0 
Q 188 203 259 391 
Q 375 700 629 1000 
Q 884 1300 1366 1694 
Q 2113 2306 2375 2664 
Q 2638 3022 2638 3341 
Q 2638 3675 2398 3904 
Q 2159 4134 1775 4134 
Q 1369 4134 1125 3890 
Q 881 3647 878 3216 
L 300 3275 
Q 359 3922 746 4261 
Q 1134 4600 1788 4600 
Q 2447 4600 2831 4234 
Q 3216 3869 3216 3328 
Q 3216 3053 3103 2787 
Q 2991 2522 2730 2228 
Q 2469 1934 1863 1422 
Q 1356 997 1212 845 
Q 1069 694 975 541 
L 3222 541 
z
" transform="scale(0.015625)"/>
       </defs>
       <use xlink:href="#ArialMT-32"/>
       <use xlink:href="#ArialMT-30" x="55.615234"/>
      </g>
     </g>
    </g>
    <g id="text_8">
     <!-- WT -->
     <g style="fill: #262626" transform="translate(203.934375 254.642056)scale(0.1 -0.1)">
      <defs>
       <path id="ArialMT-57" d="M 1294 0 
L 78 4581 
L 700 4581 
L 1397 1578 
Q 1509 1106 1591 641 
Q 1766 1375 1797 1488 
L 2669 4581 
L 3400 4581 
L 4056 2263 
Q 4303 1400 4413 641 
Q 4500 1075 4641 1638 
L 5359 4581 
L 5969 4581 
L 4713 0 
L 4128 0 
L 3163 3491 
Q 3041 3928 3019 4028 
Q 2947 3713 2884 3491 
L 1913 0 
L 1294 0 
z
" transform="scale(0.015625)"/>
       <path id="ArialMT-54" d="M 1659 0 
L 1659 4041 
L 150 4041 
L 150 4581 
L 3781 4581 
L 3781 4041 
L 2266 4041 
L 2266 0 
L 1659 0 
z
" transform="scale(0.015625)"/>
      </defs>
      <use xlink:href="#ArialMT-57"/>
      <use xlink:href="#ArialMT-54" x="94.384766"/>
     </g>
    </g>
   </g>
   <g id="matplotlib.axis_2">
    <g id="ytick_1">
     <g id="line2d_9">
      <defs>
       <path id="m62dd023cbd" d="M 0 0 
L -3.5 0 
" style="stroke: #262626; stroke-width: 0.8"/>
      </defs>
      <g>
       <use xlink:href="#m62dd023cbd" x="44.307813" y="221.629498" style="fill: #262626; stroke: #262626; stroke-width: 0.8"/>
      </g>
     </g>
     <g id="text_9">
      <!-- −10 -->
      <g style="fill: #262626" transform="translate(20.345313 225.208404)scale(0.1 -0.1)">
       <use xlink:href="#ArialMT-2212"/>
       <use xlink:href="#ArialMT-31" x="58.398438"/>
       <use xlink:href="#ArialMT-30" x="114.013672"/>
      </g>
     </g>
    </g>
    <g id="ytick_2">
     <g id="line2d_10">
      <g>
       <use xlink:href="#m62dd023cbd" x="44.307813" y="186.487732" style="fill: #262626; stroke: #262626; stroke-width: 0.8"/>
      </g>
     </g>
     <g id="text_10">
      <!-- −5 -->
      <g style="fill: #262626" transform="translate(25.90625 190.066639)scale(0.1 -0.1)">
       <use xlink:href="#ArialMT-2212"/>
       <use xlink:href="#ArialMT-35" x="58.398438"/>
      </g>
     </g>
    </g>
    <g id="ytick_3">
     <g id="line2d_11">
      <g>
       <use xlink:href="#m62dd023cbd" x="44.307813" y="151.345967" style="fill: #262626; stroke: #262626; stroke-width: 0.8"/>
      </g>
     </g>
     <g id="text_11">
      <!-- 0 -->
      <g style="fill: #262626" transform="translate(31.746875 154.924873)scale(0.1 -0.1)">
       <use xlink:href="#ArialMT-30"/>
      </g>
     </g>
    </g>
    <g id="ytick_4">
     <g id="line2d_12">
      <g>
       <use xlink:href="#m62dd023cbd" x="44.307813" y="116.204202" style="fill: #262626; stroke: #262626; stroke-width: 0.8"/>
      </g>
     </g>
     <g id="text_12">
      <!-- 5 -->
      <g style="fill: #262626" transform="translate(31.746875 119.783108)scale(0.1 -0.1)">
       <use xlink:href="#ArialMT-35"/>
      </g>
     </g>
    </g>
    <g id="ytick_5">
     <g id="line2d_13">
      <g>
       <use xlink:href="#m62dd023cbd" x="44.307813" y="81.062437" style="fill: #262626; stroke: #262626; stroke-width: 0.8"/>
      </g>
     </g>
     <g id="text_13">
      <!-- 10 -->
      <g style="fill: #262626" transform="translate(26.185938 84.641343)scale(0.1 -0.1)">
       <use xlink:href="#ArialMT-31"/>
       <use xlink:href="#ArialMT-30" x="55.615234"/>
      </g>
     </g>
    </g>
    <g id="ytick_6">
     <g id="line2d_14">
      <g>
       <use xlink:href="#m62dd023cbd" x="44.307813" y="45.920671" style="fill: #262626; stroke: #262626; stroke-width: 0.8"/>
      </g>
     </g>
     <g id="text_14">
      <!-- 15 -->
      <g style="fill: #262626" transform="translate(26.185938 49.499578)scale(0.1 -0.1)">
       <use xlink:href="#ArialMT-31"/>
       <use xlink:href="#ArialMT-35" x="55.615234"/>
      </g>
     </g>
    </g>
    <g id="ytick_7">
     <g id="line2d_15">
      <g>
       <use xlink:href="#m62dd023cbd" x="44.307813" y="10.778906" style="fill: #262626; stroke: #262626; stroke-width: 0.8"/>
      </g>
     </g>
     <g id="text_15">
      <!-- 20 -->
      <g style="fill: #262626" transform="translate(26.185938 14.357813)scale(0.1 -0.1)">
       <use xlink:href="#ArialMT-32"/>
       <use xlink:href="#ArialMT-30" x="55.615234"/>
      </g>
     </g>
    </g>
    <g id="text_16">
     <!-- fur KO -->
     <g style="fill: #262626" transform="translate(14.357813 133.066587)rotate(-90)scale(0.1 -0.1)">
      <defs>
       <path id="ArialMT-66" d="M 556 0 
L 556 2881 
L 59 2881 
L 59 3319 
L 556 3319 
L 556 3672 
Q 556 4006 616 4169 
Q 697 4388 901 4523 
Q 1106 4659 1475 4659 
Q 1713 4659 2000 4603 
L 1916 4113 
Q 1741 4144 1584 4144 
Q 1328 4144 1222 4034 
Q 1116 3925 1116 3625 
L 1116 3319 
L 1763 3319 
L 1763 2881 
L 1116 2881 
L 1116 0 
L 556 0 
z
" transform="scale(0.015625)"/>
       <path id="ArialMT-75" d="M 2597 0 
L 2597 488 
Q 2209 -75 1544 -75 
Q 1250 -75 995 37 
Q 741 150 617 320 
Q 494 491 444 738 
Q 409 903 409 1263 
L 409 3319 
L 972 3319 
L 972 1478 
Q 972 1038 1006 884 
Q 1059 663 1231 536 
Q 1403 409 1656 409 
Q 1909 409 2131 539 
Q 2353 669 2445 892 
Q 2538 1116 2538 1541 
L 2538 3319 
L 3100 3319 
L 3100 0 
L 2597 0 
z
" transform="scale(0.015625)"/>
       <path id="ArialMT-72" d="M 416 0 
L 416 3319 
L 922 3319 
L 922 2816 
Q 1116 3169 1280 3281 
Q 1444 3394 1641 3394 
Q 1925 3394 2219 3213 
L 2025 2691 
Q 1819 2813 1613 2813 
Q 1428 2813 1281 2702 
Q 1134 2591 1072 2394 
Q 978 2094 978 1738 
L 978 0 
L 416 0 
z
" transform="scale(0.015625)"/>
       <path id="ArialMT-20" transform="scale(0.015625)"/>
       <path id="ArialMT-4b" d="M 469 0 
L 469 4581 
L 1075 4581 
L 1075 2309 
L 3350 4581 
L 4172 4581 
L 2250 2725 
L 4256 0 
L 3456 0 
L 1825 2319 
L 1075 1588 
L 1075 0 
L 469 0 
z
" transform="scale(0.015625)"/>
       <path id="ArialMT-4f" d="M 309 2231 
Q 309 3372 921 4017 
Q 1534 4663 2503 4663 
Q 3138 4663 3647 4359 
Q 4156 4056 4423 3514 
Q 4691 2972 4691 2284 
Q 4691 1588 4409 1038 
Q 4128 488 3612 205 
Q 3097 -78 2500 -78 
Q 1853 -78 1343 234 
Q 834 547 571 1087 
Q 309 1628 309 2231 
z
M 934 2222 
Q 934 1394 1379 917 
Q 1825 441 2497 441 
Q 3181 441 3623 922 
Q 4066 1403 4066 2288 
Q 4066 2847 3877 3264 
Q 3688 3681 3323 3911 
Q 2959 4141 2506 4141 
Q 1863 4141 1398 3698 
Q 934 3256 934 2222 
z
" transform="scale(0.015625)"/>
      </defs>
      <use xlink:href="#ArialMT-66"/>
      <use xlink:href="#ArialMT-75" x="27.783203"/>
      <use xlink:href="#ArialMT-72" x="83.398438"/>
      <use xlink:href="#ArialMT-20" x="116.699219"/>
      <use xlink:href="#ArialMT-4b" x="144.482422"/>
      <use xlink:href="#ArialMT-4f" x="211.181641"/>
     </g>
    </g>
   </g>
   <g id="PathCollection_1">
    <defs>
     <path id="m200327fa7e" d="M 0 3 
C 0.795609 3 1.55874 2.683901 2.12132 2.12132 
C 2.683901 1.55874 3 0.795609 3 0 
C 3 -0.795609 2.683901 -1.55874 2.12132 -2.12132 
C 1.55874 -2.683901 0.795609 -3 0 -3 
C -0.795609 -3 -1.55874 -2.683901 -2.12132 -2.12132 
C -2.683901 -1.55874 -3 -0.795609 -3 0 
C -3 0.795609 -2.683901 1.55874 -2.12132 2.12132 
C -1.55874 2.683901 -0.795609 3 0 3 
z
" style="stroke: #1f77b4"/>
    </defs>
    <g clip-path="url(#pff0d5344f8)">
     <use xlink:href="#m200327fa7e" x="351.207813" y="116.450377" style="fill: #1f77b4; stroke: #1f77b4"/>
     <use xlink:href="#m200327fa7e" x="104.920087" y="28.018931" style="fill: #1f77b4; stroke: #1f77b4"/>
     <use xlink:href="#m200327fa7e" x="157.616731" y="112.333997" style="fill: #1f77b4; stroke: #1f77b4"/>
     <use xlink:href="#m200327fa7e" x="169.039786" y="181.59741" style="fill: #1f77b4; stroke: #1f77b4"/>
     <use xlink:href="#m200327fa7e" x="151.247959" y="190.692766" style="fill: #1f77b4; stroke: #1f77b4"/>
     <use xlink:href="#m200327fa7e" x="150.23103" y="76.12893" style="fill: #1f77b4; stroke: #1f77b4"/>
     <use xlink:href="#m200327fa7e" x="159.596906" y="195.917708" style="fill: #1f77b4; stroke: #1f77b4"/>
     <use xlink:href="#m200327fa7e" x="131.962197" y="209.218931" style="fill: #1f77b4; stroke: #1f77b4"/>
     <use xlink:href="#m200327fa7e" x="171.503608" y="73.923687" style="fill: #1f77b4; stroke: #1f77b4"/>
     <use xlink:href="#m200327fa7e" x="132.898212" y="100.175579" style="fill: #1f77b4; stroke: #1f77b4"/>
     <use xlink:href="#m200327fa7e" x="137.113922" y="123.910296" style="fill: #1f77b4; stroke: #1f77b4"/>
    </g>
   </g>
   <g id="PathCollection_2">
    <defs>
     <path id="m81f620cb36" d="M 0 3 
C 0.795609 3 1.55874 2.683901 2.12132 2.12132 
C 2.683901 1.55874 3 0.795609 3 0 
C 3 -0.795609 2.683901 -1.55874 2.12132 -2.12132 
C 1.55874 -2.683901 0.795609 -3 0 -3 
C -0.795609 -3 -1.55874 -2.683901 -2.12132 -2.12132 
C -2.683901 -1.55874 -3 -0.795609 -3 0 
C -3 0.795609 -2.683901 1.55874 -2.12132 2.12132 
C -1.55874 2.683901 -0.795609 3 0 3 
z
"/>
    </defs>
    <g clip-path="url(#pff0d5344f8)">
     <use xlink:href="#m81f620cb36" x="158.110368" y="148.873449" style="fill: #808080; fill-opacity: 0.7"/>
     <use xlink:href="#m81f620cb36" x="172.171262" y="163.172228" style="fill: #808080; fill-opacity: 0.7"/>
     <use xlink:href="#m81f620cb36" x="145.521516" y="157.085317" style="fill: #808080; fill-opacity: 0.7"/>
     <use xlink:href="#m81f620cb36" x="152.572341" y="148.817747" style="fill: #808080; fill-opacity: 0.7"/>
     <use xlink:href="#m81f620cb36" x="90.122147" y="168.373355" style="fill: #808080; fill-opacity: 0.7"/>
     <use xlink:href="#m81f620cb36" x="154.715197" y="133.556479" style="fill: #808080; fill-opacity: 0.7"/>
     <use xlink:href="#m81f620cb36" x="153.49604" y="148.533652" style="fill: #808080; fill-opacity: 0.7"/>
     <use xlink:href="#m81f620cb36" x="161.775968" y="139.292173" style="fill: #808080; fill-opacity: 0.7"/>
     <use xlink:href="#m81f620cb36" x="147.001458" y="144.000559" style="fill: #808080; fill-opacity: 0.7"/>
     <use xlink:href="#m81f620cb36" x="156.11971" y="143.480641" style="fill: #808080; fill-opacity: 0.7"/>
     <use xlink:href="#m81f620cb36" x="149.779784" y="157.251044" style="fill: #808080; fill-opacity: 0.7"/>
     <use xlink:href="#m81f620cb36" x="175.366567" y="134.860078" style="fill: #808080; fill-opacity: 0.7"/>
     <use xlink:href="#m81f620cb36" x="152.845668" y="143.214236" style="fill: #808080; fill-opacity: 0.7"/>
     <use xlink:href="#m81f620cb36" x="156.554952" y="121.116212" style="fill: #808080; fill-opacity: 0.7"/>
     <use xlink:href="#m81f620cb36" x="153.380249" y="146.323959" style="fill: #808080; fill-opacity: 0.7"/>
     <use xlink:href="#m81f620cb36" x="155.81256" y="154.155619" style="fill: #808080; fill-opacity: 0.7"/>
     <use xlink:href="#m81f620cb36" x="151.800812" y="123.277729" style="fill: #808080; fill-opacity: 0.7"/>
     <use xlink:href="#m81f620cb36" x="159.371902" y="135.137025" style="fill: #808080; fill-opacity: 0.7"/>
     <use xlink:href="#m81f620cb36" x="158.943539" y="150.479061" style="fill: #808080; fill-opacity: 0.7"/>
     <use xlink:href="#m81f620cb36" x="152.290217" y="150.479134" style="fill: #808080; fill-opacity: 0.7"/>
     <use xlink:href="#m81f620cb36" x="155.599445" y="161.479617" style="fill: #808080; fill-opacity: 0.7"/>
     <use xlink:href="#m81f620cb36" x="148.801152" y="147.83793" style="fill: #808080; fill-opacity: 0.7"/>
     <use xlink:href="#m81f620cb36" x="164.396516" y="152.421486" style="fill: #808080; fill-opacity: 0.7"/>
     <use xlink:href="#m81f620cb36" x="158.157313" y="159.237904" style="fill: #808080; fill-opacity: 0.7"/>
     <use xlink:href="#m81f620cb36" x="165.916725" y="155.47631" style="fill: #808080; fill-opacity: 0.7"/>
     <use xlink:href="#m81f620cb36" x="155.93382" y="134.882911" style="fill: #808080; fill-opacity: 0.7"/>
     <use xlink:href="#m81f620cb36" x="182.179695" y="136.453143" style="fill: #808080; fill-opacity: 0.7"/>
     <use xlink:href="#m81f620cb36" x="153.463295" y="146.685827" style="fill: #808080; fill-opacity: 0.7"/>
     <use xlink:href="#m81f620cb36" x="157.861986" y="145.98155" style="fill: #808080; fill-opacity: 0.7"/>
     <use xlink:href="#m81f620cb36" x="144.387889" y="161.977428" style="fill: #808080; fill-opacity: 0.7"/>
     <use xlink:href="#m81f620cb36" x="155.054121" y="147.458853" style="fill: #808080; fill-opacity: 0.7"/>
     <use xlink:href="#m81f620cb36" x="141.624274" y="158.285105" style="fill: #808080; fill-opacity: 0.7"/>
     <use xlink:href="#m81f620cb36" x="146.252572" y="160.92607" style="fill: #808080; fill-opacity: 0.7"/>
     <use xlink:href="#m81f620cb36" x="153.589964" y="153.149329" style="fill: #808080; fill-opacity: 0.7"/>
     <use xlink:href="#m81f620cb36" x="157.596297" y="155.064343" style="fill: #808080; fill-opacity: 0.7"/>
     <use xlink:href="#m81f620cb36" x="159.779902" y="158.542315" style="fill: #808080; fill-opacity: 0.7"/>
     <use xlink:href="#m81f620cb36" x="151.163394" y="152.522453" style="fill: #808080; fill-opacity: 0.7"/>
     <use xlink:href="#m81f620cb36" x="166.809359" y="142.820978" style="fill: #808080; fill-opacity: 0.7"/>
     <use xlink:href="#m81f620cb36" x="158.17727" y="144.377971" style="fill: #808080; fill-opacity: 0.7"/>
     <use xlink:href="#m81f620cb36" x="154.910221" y="149.97014" style="fill: #808080; fill-opacity: 0.7"/>
     <use xlink:href="#m81f620cb36" x="149.34885" y="155.828051" style="fill: #808080; fill-opacity: 0.7"/>
     <use xlink:href="#m81f620cb36" x="147.668968" y="136.321379" style="fill: #808080; fill-opacity: 0.7"/>
     <use xlink:href="#m81f620cb36" x="196.37754" y="152.718163" style="fill: #808080; fill-opacity: 0.7"/>
     <use xlink:href="#m81f620cb36" x="183.931518" y="142.186555" style="fill: #808080; fill-opacity: 0.7"/>
     <use xlink:href="#m81f620cb36" x="180.665279" y="133.395078" style="fill: #808080; fill-opacity: 0.7"/>
     <use xlink:href="#m81f620cb36" x="145.133973" y="149.319191" style="fill: #808080; fill-opacity: 0.7"/>
     <use xlink:href="#m81f620cb36" x="157.466149" y="134.124742" style="fill: #808080; fill-opacity: 0.7"/>
     <use xlink:href="#m81f620cb36" x="157.511746" y="147.234102" style="fill: #808080; fill-opacity: 0.7"/>
     <use xlink:href="#m81f620cb36" x="159.717339" y="150.139612" style="fill: #808080; fill-opacity: 0.7"/>
     <use xlink:href="#m81f620cb36" x="159.750814" y="147.557979" style="fill: #808080; fill-opacity: 0.7"/>
     <use xlink:href="#m81f620cb36" x="139.074968" y="133.288821" style="fill: #808080; fill-opacity: 0.7"/>
     <use xlink:href="#m81f620cb36" x="146.436729" y="150.002501" style="fill: #808080; fill-opacity: 0.7"/>
     <use xlink:href="#m81f620cb36" x="129.115828" y="171.043678" style="fill: #808080; fill-opacity: 0.7"/>
     <use xlink:href="#m81f620cb36" x="176.4561" y="145.269739" style="fill: #808080; fill-opacity: 0.7"/>
     <use xlink:href="#m81f620cb36" x="161.030692" y="135.926296" style="fill: #808080; fill-opacity: 0.7"/>
     <use xlink:href="#m81f620cb36" x="158.135202" y="153.558252" style="fill: #808080; fill-opacity: 0.7"/>
     <use xlink:href="#m81f620cb36" x="133.848905" y="109.701602" style="fill: #808080; fill-opacity: 0.7"/>
     <use xlink:href="#m81f620cb36" x="160.925118" y="154.276238" style="fill: #808080; fill-opacity: 0.7"/>
     <use xlink:href="#m81f620cb36" x="176.420625" y="157.141212" style="fill: #808080; fill-opacity: 0.7"/>
     <use xlink:href="#m81f620cb36" x="156.484084" y="153.347463" style="fill: #808080; fill-opacity: 0.7"/>
     <use xlink:href="#m81f620cb36" x="159.224551" y="172.449762" style="fill: #808080; fill-opacity: 0.7"/>
     <use xlink:href="#m81f620cb36" x="164.200975" y="155.562957" style="fill: #808080; fill-opacity: 0.7"/>
     <use xlink:href="#m81f620cb36" x="158.431789" y="153.663672" style="fill: #808080; fill-opacity: 0.7"/>
     <use xlink:href="#m81f620cb36" x="188.057888" y="144.47407" style="fill: #808080; fill-opacity: 0.7"/>
     <use xlink:href="#m81f620cb36" x="157.769415" y="147.322031" style="fill: #808080; fill-opacity: 0.7"/>
     <use xlink:href="#m81f620cb36" x="161.777233" y="137.10797" style="fill: #808080; fill-opacity: 0.7"/>
     <use xlink:href="#m81f620cb36" x="160.551174" y="140.34788" style="fill: #808080; fill-opacity: 0.7"/>
     <use xlink:href="#m81f620cb36" x="161.884602" y="150.672125" style="fill: #808080; fill-opacity: 0.7"/>
     <use xlink:href="#m81f620cb36" x="159.961911" y="140.341398" style="fill: #808080; fill-opacity: 0.7"/>
     <use xlink:href="#m81f620cb36" x="170.507639" y="139.939097" style="fill: #808080; fill-opacity: 0.7"/>
     <use xlink:href="#m81f620cb36" x="155.196221" y="153.474841" style="fill: #808080; fill-opacity: 0.7"/>
     <use xlink:href="#m81f620cb36" x="154.250283" y="152.674335" style="fill: #808080; fill-opacity: 0.7"/>
     <use xlink:href="#m81f620cb36" x="150.386182" y="169.947926" style="fill: #808080; fill-opacity: 0.7"/>
     <use xlink:href="#m81f620cb36" x="162.397084" y="141.061189" style="fill: #808080; fill-opacity: 0.7"/>
     <use xlink:href="#m81f620cb36" x="150.155387" y="154.137223" style="fill: #808080; fill-opacity: 0.7"/>
     <use xlink:href="#m81f620cb36" x="152.942131" y="153.16516" style="fill: #808080; fill-opacity: 0.7"/>
     <use xlink:href="#m81f620cb36" x="159.845663" y="148.345524" style="fill: #808080; fill-opacity: 0.7"/>
     <use xlink:href="#m81f620cb36" x="148.128703" y="169.857313" style="fill: #808080; fill-opacity: 0.7"/>
     <use xlink:href="#m81f620cb36" x="156.356875" y="150.268098" style="fill: #808080; fill-opacity: 0.7"/>
     <use xlink:href="#m81f620cb36" x="152.924459" y="142.980324" style="fill: #808080; fill-opacity: 0.7"/>
     <use xlink:href="#m81f620cb36" x="158.6583" y="153.022707" style="fill: #808080; fill-opacity: 0.7"/>
     <use xlink:href="#m81f620cb36" x="158.897976" y="148.442789" style="fill: #808080; fill-opacity: 0.7"/>
     <use xlink:href="#m81f620cb36" x="168.932904" y="170.877047" style="fill: #808080; fill-opacity: 0.7"/>
     <use xlink:href="#m81f620cb36" x="145.08781" y="162.901934" style="fill: #808080; fill-opacity: 0.7"/>
     <use xlink:href="#m81f620cb36" x="154.135491" y="138.115535" style="fill: #808080; fill-opacity: 0.7"/>
     <use xlink:href="#m81f620cb36" x="161.233769" y="149.773016" style="fill: #808080; fill-opacity: 0.7"/>
     <use xlink:href="#m81f620cb36" x="144.856471" y="161.798481" style="fill: #808080; fill-opacity: 0.7"/>
     <use xlink:href="#m81f620cb36" x="159.695178" y="140.552714" style="fill: #808080; fill-opacity: 0.7"/>
     <use xlink:href="#m81f620cb36" x="145.780154" y="152.990615" style="fill: #808080; fill-opacity: 0.7"/>
     <use xlink:href="#m81f620cb36" x="147.372659" y="152.443838" style="fill: #808080; fill-opacity: 0.7"/>
     <use xlink:href="#m81f620cb36" x="159.975167" y="148.118504" style="fill: #808080; fill-opacity: 0.7"/>
     <use xlink:href="#m81f620cb36" x="157.434422" y="150.409546" style="fill: #808080; fill-opacity: 0.7"/>
     <use xlink:href="#m81f620cb36" x="151.978338" y="151.606017" style="fill: #808080; fill-opacity: 0.7"/>
     <use xlink:href="#m81f620cb36" x="155.479322" y="150.51626" style="fill: #808080; fill-opacity: 0.7"/>
     <use xlink:href="#m81f620cb36" x="153.115512" y="162.501331" style="fill: #808080; fill-opacity: 0.7"/>
     <use xlink:href="#m81f620cb36" x="152.47339" y="153.464726" style="fill: #808080; fill-opacity: 0.7"/>
     <use xlink:href="#m81f620cb36" x="166.221601" y="152.893924" style="fill: #808080; fill-opacity: 0.7"/>
     <use xlink:href="#m81f620cb36" x="161.100742" y="145.588873" style="fill: #808080; fill-opacity: 0.7"/>
     <use xlink:href="#m81f620cb36" x="155.685117" y="157.654983" style="fill: #808080; fill-opacity: 0.7"/>
     <use xlink:href="#m81f620cb36" x="160.072474" y="153.83837" style="fill: #808080; fill-opacity: 0.7"/>
     <use xlink:href="#m81f620cb36" x="154.115429" y="149.50798" style="fill: #808080; fill-opacity: 0.7"/>
     <use xlink:href="#m81f620cb36" x="163.785302" y="143.307788" style="fill: #808080; fill-opacity: 0.7"/>
     <use xlink:href="#m81f620cb36" x="171.721082" y="131.841134" style="fill: #808080; fill-opacity: 0.7"/>
     <use xlink:href="#m81f620cb36" x="155.385575" y="138.981496" style="fill: #808080; fill-opacity: 0.7"/>
     <use xlink:href="#m81f620cb36" x="157.023679" y="151.220337" style="fill: #808080; fill-opacity: 0.7"/>
     <use xlink:href="#m81f620cb36" x="156.272921" y="153.823455" style="fill: #808080; fill-opacity: 0.7"/>
     <use xlink:href="#m81f620cb36" x="158.319259" y="150.478641" style="fill: #808080; fill-opacity: 0.7"/>
     <use xlink:href="#m81f620cb36" x="155.78738" y="149.999755" style="fill: #808080; fill-opacity: 0.7"/>
     <use xlink:href="#m81f620cb36" x="159.358245" y="144.884226" style="fill: #808080; fill-opacity: 0.7"/>
     <use xlink:href="#m81f620cb36" x="151.964954" y="153.956078" style="fill: #808080; fill-opacity: 0.7"/>
     <use xlink:href="#m81f620cb36" x="158.077821" y="150.892969" style="fill: #808080; fill-opacity: 0.7"/>
     <use xlink:href="#m81f620cb36" x="170.33623" y="164.137836" style="fill: #808080; fill-opacity: 0.7"/>
     <use xlink:href="#m81f620cb36" x="145.881694" y="160.619532" style="fill: #808080; fill-opacity: 0.7"/>
     <use xlink:href="#m81f620cb36" x="146.946701" y="151.829726" style="fill: #808080; fill-opacity: 0.7"/>
     <use xlink:href="#m81f620cb36" x="135.656193" y="177.392316" style="fill: #808080; fill-opacity: 0.7"/>
     <use xlink:href="#m81f620cb36" x="149.18739" y="150.240503" style="fill: #808080; fill-opacity: 0.7"/>
     <use xlink:href="#m81f620cb36" x="144.203959" y="167.204382" style="fill: #808080; fill-opacity: 0.7"/>
     <use xlink:href="#m81f620cb36" x="72.207813" y="178.023535" style="fill: #808080; fill-opacity: 0.7"/>
     <use xlink:href="#m81f620cb36" x="153.746531" y="156.664585" style="fill: #808080; fill-opacity: 0.7"/>
     <use xlink:href="#m81f620cb36" x="151.043387" y="148.197744" style="fill: #808080; fill-opacity: 0.7"/>
     <use xlink:href="#m81f620cb36" x="138.799288" y="166.255967" style="fill: #808080; fill-opacity: 0.7"/>
     <use xlink:href="#m81f620cb36" x="147.213738" y="149.859812" style="fill: #808080; fill-opacity: 0.7"/>
     <use xlink:href="#m81f620cb36" x="162.536021" y="146.710347" style="fill: #808080; fill-opacity: 0.7"/>
     <use xlink:href="#m81f620cb36" x="164.006812" y="141.408556" style="fill: #808080; fill-opacity: 0.7"/>
     <use xlink:href="#m81f620cb36" x="156.220065" y="127.359118" style="fill: #808080; fill-opacity: 0.7"/>
     <use xlink:href="#m81f620cb36" x="158.620034" y="147.449498" style="fill: #808080; fill-opacity: 0.7"/>
     <use xlink:href="#m81f620cb36" x="156.563493" y="144.767238" style="fill: #808080; fill-opacity: 0.7"/>
     <use xlink:href="#m81f620cb36" x="155.707327" y="163.967225" style="fill: #808080; fill-opacity: 0.7"/>
     <use xlink:href="#m81f620cb36" x="174.978002" y="130.571759" style="fill: #808080; fill-opacity: 0.7"/>
     <use xlink:href="#m81f620cb36" x="156.317791" y="144.67707" style="fill: #808080; fill-opacity: 0.7"/>
     <use xlink:href="#m81f620cb36" x="163.696995" y="136.801927" style="fill: #808080; fill-opacity: 0.7"/>
     <use xlink:href="#m81f620cb36" x="155.05317" y="141.586165" style="fill: #808080; fill-opacity: 0.7"/>
     <use xlink:href="#m81f620cb36" x="156.318803" y="125.79719" style="fill: #808080; fill-opacity: 0.7"/>
     <use xlink:href="#m81f620cb36" x="155.179833" y="144.036398" style="fill: #808080; fill-opacity: 0.7"/>
     <use xlink:href="#m81f620cb36" x="153.983387" y="170.116095" style="fill: #808080; fill-opacity: 0.7"/>
     <use xlink:href="#m81f620cb36" x="157.937364" y="158.888776" style="fill: #808080; fill-opacity: 0.7"/>
     <use xlink:href="#m81f620cb36" x="165.033309" y="148.816698" style="fill: #808080; fill-opacity: 0.7"/>
     <use xlink:href="#m81f620cb36" x="167.060709" y="170.95126" style="fill: #808080; fill-opacity: 0.7"/>
     <use xlink:href="#m81f620cb36" x="179.217095" y="153.917292" style="fill: #808080; fill-opacity: 0.7"/>
     <use xlink:href="#m81f620cb36" x="158.000256" y="154.544984" style="fill: #808080; fill-opacity: 0.7"/>
     <use xlink:href="#m81f620cb36" x="157.489138" y="161.306267" style="fill: #808080; fill-opacity: 0.7"/>
     <use xlink:href="#m81f620cb36" x="174.287261" y="156.316648" style="fill: #808080; fill-opacity: 0.7"/>
     <use xlink:href="#m81f620cb36" x="130.211227" y="160.807387" style="fill: #808080; fill-opacity: 0.7"/>
     <use xlink:href="#m81f620cb36" x="167.816023" y="159.800335" style="fill: #808080; fill-opacity: 0.7"/>
     <use xlink:href="#m81f620cb36" x="167.168289" y="150.829245" style="fill: #808080; fill-opacity: 0.7"/>
     <use xlink:href="#m81f620cb36" x="152.957673" y="154.033141" style="fill: #808080; fill-opacity: 0.7"/>
     <use xlink:href="#m81f620cb36" x="154.321121" y="179.70492" style="fill: #808080; fill-opacity: 0.7"/>
     <use xlink:href="#m81f620cb36" x="156.491165" y="143.341672" style="fill: #808080; fill-opacity: 0.7"/>
     <use xlink:href="#m81f620cb36" x="171.20374" y="156.399364" style="fill: #808080; fill-opacity: 0.7"/>
     <use xlink:href="#m81f620cb36" x="164.843611" y="145.161768" style="fill: #808080; fill-opacity: 0.7"/>
     <use xlink:href="#m81f620cb36" x="157.870802" y="149.405525" style="fill: #808080; fill-opacity: 0.7"/>
     <use xlink:href="#m81f620cb36" x="152.815174" y="142.352888" style="fill: #808080; fill-opacity: 0.7"/>
     <use xlink:href="#m81f620cb36" x="146.679494" y="156.352231" style="fill: #808080; fill-opacity: 0.7"/>
     <use xlink:href="#m81f620cb36" x="154.724331" y="152.963373" style="fill: #808080; fill-opacity: 0.7"/>
     <use xlink:href="#m81f620cb36" x="200.188579" y="147.27823" style="fill: #808080; fill-opacity: 0.7"/>
     <use xlink:href="#m81f620cb36" x="159.78683" y="153.874226" style="fill: #808080; fill-opacity: 0.7"/>
     <use xlink:href="#m81f620cb36" x="162.697765" y="155.913832" style="fill: #808080; fill-opacity: 0.7"/>
     <use xlink:href="#m81f620cb36" x="152.809713" y="154.331676" style="fill: #808080; fill-opacity: 0.7"/>
     <use xlink:href="#m81f620cb36" x="155.838138" y="152.423703" style="fill: #808080; fill-opacity: 0.7"/>
     <use xlink:href="#m81f620cb36" x="158.998632" y="149.007931" style="fill: #808080; fill-opacity: 0.7"/>
     <use xlink:href="#m81f620cb36" x="164.187066" y="154.054253" style="fill: #808080; fill-opacity: 0.7"/>
     <use xlink:href="#m81f620cb36" x="156.853309" y="163.541419" style="fill: #808080; fill-opacity: 0.7"/>
     <use xlink:href="#m81f620cb36" x="194.894085" y="120.084586" style="fill: #808080; fill-opacity: 0.7"/>
     <use xlink:href="#m81f620cb36" x="159.780374" y="151.459876" style="fill: #808080; fill-opacity: 0.7"/>
     <use xlink:href="#m81f620cb36" x="162.485114" y="152.522074" style="fill: #808080; fill-opacity: 0.7"/>
     <use xlink:href="#m81f620cb36" x="161.612796" y="145.353853" style="fill: #808080; fill-opacity: 0.7"/>
     <use xlink:href="#m81f620cb36" x="159.260155" y="148.554917" style="fill: #808080; fill-opacity: 0.7"/>
     <use xlink:href="#m81f620cb36" x="163.966217" y="144.875602" style="fill: #808080; fill-opacity: 0.7"/>
     <use xlink:href="#m81f620cb36" x="140.319552" y="155.05234" style="fill: #808080; fill-opacity: 0.7"/>
     <use xlink:href="#m81f620cb36" x="157.547437" y="156.584133" style="fill: #808080; fill-opacity: 0.7"/>
     <use xlink:href="#m81f620cb36" x="153.922383" y="151.897455" style="fill: #808080; fill-opacity: 0.7"/>
     <use xlink:href="#m81f620cb36" x="165.540358" y="151.241907" style="fill: #808080; fill-opacity: 0.7"/>
     <use xlink:href="#m81f620cb36" x="156.5819" y="150.627173" style="fill: #808080; fill-opacity: 0.7"/>
     <use xlink:href="#m81f620cb36" x="153.2672" y="152.173385" style="fill: #808080; fill-opacity: 0.7"/>
     <use xlink:href="#m81f620cb36" x="155.814956" y="161.578879" style="fill: #808080; fill-opacity: 0.7"/>
     <use xlink:href="#m81f620cb36" x="149.654626" y="144.919896" style="fill: #808080; fill-opacity: 0.7"/>
     <use xlink:href="#m81f620cb36" x="154.587666" y="132.599497" style="fill: #808080; fill-opacity: 0.7"/>
     <use xlink:href="#m81f620cb36" x="154.976777" y="142.946529" style="fill: #808080; fill-opacity: 0.7"/>
     <use xlink:href="#m81f620cb36" x="171.552736" y="152.285203" style="fill: #808080; fill-opacity: 0.7"/>
     <use xlink:href="#m81f620cb36" x="145.193512" y="158.671474" style="fill: #808080; fill-opacity: 0.7"/>
     <use xlink:href="#m81f620cb36" x="156.206965" y="153.923851" style="fill: #808080; fill-opacity: 0.7"/>
     <use xlink:href="#m81f620cb36" x="155.899345" y="150.553277" style="fill: #808080; fill-opacity: 0.7"/>
     <use xlink:href="#m81f620cb36" x="160.150317" y="142.938619" style="fill: #808080; fill-opacity: 0.7"/>
     <use xlink:href="#m81f620cb36" x="142.878223" y="155.201321" style="fill: #808080; fill-opacity: 0.7"/>
     <use xlink:href="#m81f620cb36" x="170.198214" y="129.035195" style="fill: #808080; fill-opacity: 0.7"/>
     <use xlink:href="#m81f620cb36" x="150.051233" y="147.890843" style="fill: #808080; fill-opacity: 0.7"/>
     <use xlink:href="#m81f620cb36" x="165.817652" y="139.709505" style="fill: #808080; fill-opacity: 0.7"/>
     <use xlink:href="#m81f620cb36" x="150.547566" y="160.56727" style="fill: #808080; fill-opacity: 0.7"/>
     <use xlink:href="#m81f620cb36" x="146.904588" y="160.324093" style="fill: #808080; fill-opacity: 0.7"/>
     <use xlink:href="#m81f620cb36" x="156.168742" y="139.669888" style="fill: #808080; fill-opacity: 0.7"/>
    </g>
   </g>
   <g id="LineCollection_1">
    <path d="M 44.307812 151.345967 
L 379.107813 151.345967 
" clip-path="url(#pff0d5344f8)" style="fill: none; stroke: #808080; stroke-width: 0.5"/>
   </g>
   <g id="LineCollection_2">
    <path d="M 155.270462 227.338931 
L 155.270462 9.898931 
" clip-path="url(#pff0d5344f8)" style="fill: none; stroke: #808080; stroke-width: 0.5"/>
   </g>
   <g id="patch_3">
    <path d="M 44.307813 227.338931 
L 44.307813 9.898931 
" style="fill: none; stroke: #000000; stroke-linejoin: miter; stroke-linecap: square"/>
   </g>
   <g id="patch_4">
    <path d="M 379.107813 227.338931 
L 379.107813 9.898931 
" style="fill: none; stroke: #000000; stroke-linejoin: miter; stroke-linecap: square"/>
   </g>
   <g id="patch_5">
    <path d="M 44.307812 227.338931 
L 379.107813 227.338931 
" style="fill: none; stroke: #000000; stroke-linejoin: miter; stroke-linecap: square"/>
   </g>
   <g id="patch_6">
    <path d="M 44.307812 9.898931 
L 379.107813 9.898931 
" style="fill: none; stroke: #000000; stroke-linejoin: miter; stroke-linecap: square"/>
   </g>
   <g id="text_17">
    <!-- Fur-1 -->
    <g style="fill: #262626" transform="translate(108.497115 24.681432)scale(0.1 -0.1)">
     <defs>
      <path id="ArialMT-46" d="M 525 0 
L 525 4581 
L 3616 4581 
L 3616 4041 
L 1131 4041 
L 1131 2622 
L 3281 2622 
L 3281 2081 
L 1131 2081 
L 1131 0 
L 525 0 
z
" transform="scale(0.015625)"/>
      <path id="ArialMT-2d" d="M 203 1375 
L 203 1941 
L 1931 1941 
L 1931 1375 
L 203 1375 
z
" transform="scale(0.015625)"/>
     </defs>
     <use xlink:href="#ArialMT-46"/>
     <use xlink:href="#ArialMT-75" x="61.083984"/>
     <use xlink:href="#ArialMT-72" x="116.699219"/>
     <use xlink:href="#ArialMT-2d" x="150"/>
     <use xlink:href="#ArialMT-31" x="183.300781"/>
    </g>
   </g>
   <g id="text_18">
    <!-- yjjZ -->
    <g style="fill: #262626" transform="translate(152.064298 72.845742)scale(0.1 -0.1)">
     <defs>
      <path id="ArialMT-79" d="M 397 -1278 
L 334 -750 
Q 519 -800 656 -800 
Q 844 -800 956 -737 
Q 1069 -675 1141 -563 
Q 1194 -478 1313 -144 
Q 1328 -97 1363 -6 
L 103 3319 
L 709 3319 
L 1400 1397 
Q 1534 1031 1641 628 
Q 1738 1016 1872 1384 
L 2581 3319 
L 3144 3319 
L 1881 -56 
Q 1678 -603 1566 -809 
Q 1416 -1088 1222 -1217 
Q 1028 -1347 759 -1347 
Q 597 -1347 397 -1278 
z
" transform="scale(0.015625)"/>
      <path id="ArialMT-6a" d="M 419 3928 
L 419 4581 
L 981 4581 
L 981 3928 
L 419 3928 
z
M -294 -1288 
L -188 -809 
Q -19 -853 78 -853 
Q 250 -853 334 -739 
Q 419 -625 419 -169 
L 419 3319 
L 981 3319 
L 981 -181 
Q 981 -794 822 -1034 
Q 619 -1347 147 -1347 
Q -81 -1347 -294 -1288 
z
" transform="scale(0.015625)"/>
      <path id="ArialMT-5a" d="M 128 0 
L 128 563 
L 2475 3497 
Q 2725 3809 2950 4041 
L 394 4041 
L 394 4581 
L 3675 4581 
L 3675 4041 
L 1103 863 
L 825 541 
L 3750 541 
L 3750 0 
L 128 0 
z
" transform="scale(0.015625)"/>
     </defs>
     <use xlink:href="#ArialMT-79"/>
     <use xlink:href="#ArialMT-6a" x="50"/>
     <use xlink:href="#ArialMT-6a" x="72.216797"/>
     <use xlink:href="#ArialMT-5a" x="94.433594"/>
    </g>
   </g>
   <g id="text_19">
    <!-- NrdR -->
    <g style="fill: #262626" transform="translate(132.987698 96.825553)scale(0.1 -0.1)">
     <defs>
      <path id="ArialMT-4e" d="M 488 0 
L 488 4581 
L 1109 4581 
L 3516 984 
L 3516 4581 
L 4097 4581 
L 4097 0 
L 3475 0 
L 1069 3600 
L 1069 0 
L 488 0 
z
" transform="scale(0.015625)"/>
      <path id="ArialMT-64" d="M 2575 0 
L 2575 419 
Q 2259 -75 1647 -75 
Q 1250 -75 917 144 
Q 584 363 401 755 
Q 219 1147 219 1656 
Q 219 2153 384 2558 
Q 550 2963 881 3178 
Q 1213 3394 1622 3394 
Q 1922 3394 2156 3267 
Q 2391 3141 2538 2938 
L 2538 4581 
L 3097 4581 
L 3097 0 
L 2575 0 
z
M 797 1656 
Q 797 1019 1065 703 
Q 1334 388 1700 388 
Q 2069 388 2326 689 
Q 2584 991 2584 1609 
Q 2584 2291 2321 2609 
Q 2059 2928 1675 2928 
Q 1300 2928 1048 2622 
Q 797 2316 797 1656 
z
" transform="scale(0.015625)"/>
      <path id="ArialMT-52" d="M 503 0 
L 503 4581 
L 2534 4581 
Q 3147 4581 3465 4457 
Q 3784 4334 3975 4021 
Q 4166 3709 4166 3331 
Q 4166 2844 3850 2509 
Q 3534 2175 2875 2084 
Q 3116 1969 3241 1856 
Q 3506 1613 3744 1247 
L 4541 0 
L 3778 0 
L 3172 953 
Q 2906 1366 2734 1584 
Q 2563 1803 2427 1890 
Q 2291 1978 2150 2013 
Q 2047 2034 1813 2034 
L 1109 2034 
L 1109 0 
L 503 0 
z
M 1109 2559 
L 2413 2559 
Q 2828 2559 3062 2645 
Q 3297 2731 3419 2920 
Q 3541 3109 3541 3331 
Q 3541 3656 3305 3865 
Q 3069 4075 2559 4075 
L 1109 4075 
L 1109 2559 
z
" transform="scale(0.015625)"/>
     </defs>
     <use xlink:href="#ArialMT-4e"/>
     <use xlink:href="#ArialMT-72" x="72.216797"/>
     <use xlink:href="#ArialMT-64" x="105.517578"/>
     <use xlink:href="#ArialMT-52" x="161.132812"/>
    </g>
   </g>
   <g id="text_20">
    <!-- YmfT -->
    <g style="fill: #262626" transform="translate(174.892868 60.605466)scale(0.1 -0.1)">
     <defs>
      <path id="ArialMT-59" d="M 1784 0 
L 1784 1941 
L 19 4581 
L 756 4581 
L 1659 3200 
Q 1909 2813 2125 2425 
Q 2331 2784 2625 3234 
L 3513 4581 
L 4219 4581 
L 2391 1941 
L 2391 0 
L 1784 0 
z
" transform="scale(0.015625)"/>
      <path id="ArialMT-6d" d="M 422 0 
L 422 3319 
L 925 3319 
L 925 2853 
Q 1081 3097 1340 3245 
Q 1600 3394 1931 3394 
Q 2300 3394 2536 3241 
Q 2772 3088 2869 2813 
Q 3263 3394 3894 3394 
Q 4388 3394 4653 3120 
Q 4919 2847 4919 2278 
L 4919 0 
L 4359 0 
L 4359 2091 
Q 4359 2428 4304 2576 
Q 4250 2725 4106 2815 
Q 3963 2906 3769 2906 
Q 3419 2906 3187 2673 
Q 2956 2441 2956 1928 
L 2956 0 
L 2394 0 
L 2394 2156 
Q 2394 2531 2256 2718 
Q 2119 2906 1806 2906 
Q 1569 2906 1367 2781 
Q 1166 2656 1075 2415 
Q 984 2175 984 1722 
L 984 0 
L 422 0 
z
" transform="scale(0.015625)"/>
     </defs>
     <use xlink:href="#ArialMT-59"/>
     <use xlink:href="#ArialMT-6d" x="66.699219"/>
     <use xlink:href="#ArialMT-66" x="150"/>
     <use xlink:href="#ArialMT-54" x="177.783203"/>
    </g>
   </g>
   <g id="text_21">
    <!-- Suf System -->
    <g style="fill: #262626" transform="translate(150.389132 120.579019)scale(0.1 -0.1)">
     <defs>
      <path id="ArialMT-53" d="M 288 1472 
L 859 1522 
Q 900 1178 1048 958 
Q 1197 738 1509 602 
Q 1822 466 2213 466 
Q 2559 466 2825 569 
Q 3091 672 3220 851 
Q 3350 1031 3350 1244 
Q 3350 1459 3225 1620 
Q 3100 1781 2813 1891 
Q 2628 1963 1997 2114 
Q 1366 2266 1113 2400 
Q 784 2572 623 2826 
Q 463 3081 463 3397 
Q 463 3744 659 4045 
Q 856 4347 1234 4503 
Q 1613 4659 2075 4659 
Q 2584 4659 2973 4495 
Q 3363 4331 3572 4012 
Q 3781 3694 3797 3291 
L 3216 3247 
Q 3169 3681 2898 3903 
Q 2628 4125 2100 4125 
Q 1550 4125 1298 3923 
Q 1047 3722 1047 3438 
Q 1047 3191 1225 3031 
Q 1400 2872 2139 2705 
Q 2878 2538 3153 2413 
Q 3553 2228 3743 1945 
Q 3934 1663 3934 1294 
Q 3934 928 3725 604 
Q 3516 281 3123 101 
Q 2731 -78 2241 -78 
Q 1619 -78 1198 103 
Q 778 284 539 648 
Q 300 1013 288 1472 
z
" transform="scale(0.015625)"/>
      <path id="ArialMT-73" d="M 197 991 
L 753 1078 
Q 800 744 1014 566 
Q 1228 388 1613 388 
Q 2000 388 2187 545 
Q 2375 703 2375 916 
Q 2375 1106 2209 1216 
Q 2094 1291 1634 1406 
Q 1016 1563 777 1677 
Q 538 1791 414 1992 
Q 291 2194 291 2438 
Q 291 2659 392 2848 
Q 494 3038 669 3163 
Q 800 3259 1026 3326 
Q 1253 3394 1513 3394 
Q 1903 3394 2198 3281 
Q 2494 3169 2634 2976 
Q 2775 2784 2828 2463 
L 2278 2388 
Q 2241 2644 2061 2787 
Q 1881 2931 1553 2931 
Q 1166 2931 1000 2803 
Q 834 2675 834 2503 
Q 834 2394 903 2306 
Q 972 2216 1119 2156 
Q 1203 2125 1616 2013 
Q 2213 1853 2448 1751 
Q 2684 1650 2818 1456 
Q 2953 1263 2953 975 
Q 2953 694 2789 445 
Q 2625 197 2315 61 
Q 2006 -75 1616 -75 
Q 969 -75 630 194 
Q 291 463 197 991 
z
" transform="scale(0.015625)"/>
      <path id="ArialMT-74" d="M 1650 503 
L 1731 6 
Q 1494 -44 1306 -44 
Q 1000 -44 831 53 
Q 663 150 594 308 
Q 525 466 525 972 
L 525 2881 
L 113 2881 
L 113 3319 
L 525 3319 
L 525 4141 
L 1084 4478 
L 1084 3319 
L 1650 3319 
L 1650 2881 
L 1084 2881 
L 1084 941 
Q 1084 700 1114 631 
Q 1144 563 1211 522 
Q 1278 481 1403 481 
Q 1497 481 1650 503 
z
" transform="scale(0.015625)"/>
      <path id="ArialMT-65" d="M 2694 1069 
L 3275 997 
Q 3138 488 2766 206 
Q 2394 -75 1816 -75 
Q 1088 -75 661 373 
Q 234 822 234 1631 
Q 234 2469 665 2931 
Q 1097 3394 1784 3394 
Q 2450 3394 2872 2941 
Q 3294 2488 3294 1666 
Q 3294 1616 3291 1516 
L 816 1516 
Q 847 969 1125 678 
Q 1403 388 1819 388 
Q 2128 388 2347 550 
Q 2566 713 2694 1069 
z
M 847 1978 
L 2700 1978 
Q 2663 2397 2488 2606 
Q 2219 2931 1791 2931 
Q 1403 2931 1139 2672 
Q 875 2413 847 1978 
z
" transform="scale(0.015625)"/>
     </defs>
     <use xlink:href="#ArialMT-53"/>
     <use xlink:href="#ArialMT-75" x="66.699219"/>
     <use xlink:href="#ArialMT-66" x="122.314453"/>
     <use xlink:href="#ArialMT-20" x="150.097656"/>
     <use xlink:href="#ArialMT-53" x="177.880859"/>
     <use xlink:href="#ArialMT-79" x="244.580078"/>
     <use xlink:href="#ArialMT-73" x="294.580078"/>
     <use xlink:href="#ArialMT-74" x="344.580078"/>
     <use xlink:href="#ArialMT-65" x="372.363281"/>
     <use xlink:href="#ArialMT-6d" x="427.978516"/>
    </g>
   </g>
   <g id="text_22">
    <!-- DNA Damage -->
    <g style="fill: #262626" transform="translate(207.897753 107.981127)scale(0.1 -0.1)">
     <defs>
      <path id="ArialMT-44" d="M 494 0 
L 494 4581 
L 2072 4581 
Q 2606 4581 2888 4516 
Q 3281 4425 3559 4188 
Q 3922 3881 4101 3404 
Q 4281 2928 4281 2316 
Q 4281 1794 4159 1391 
Q 4038 988 3847 723 
Q 3656 459 3429 307 
Q 3203 156 2883 78 
Q 2563 0 2147 0 
L 494 0 
z
M 1100 541 
L 2078 541 
Q 2531 541 2789 625 
Q 3047 709 3200 863 
Q 3416 1078 3536 1442 
Q 3656 1806 3656 2325 
Q 3656 3044 3420 3430 
Q 3184 3816 2847 3947 
Q 2603 4041 2063 4041 
L 1100 4041 
L 1100 541 
z
" transform="scale(0.015625)"/>
      <path id="ArialMT-41" d="M -9 0 
L 1750 4581 
L 2403 4581 
L 4278 0 
L 3588 0 
L 3053 1388 
L 1138 1388 
L 634 0 
L -9 0 
z
M 1313 1881 
L 2866 1881 
L 2388 3150 
Q 2169 3728 2063 4100 
Q 1975 3659 1816 3225 
L 1313 1881 
z
" transform="scale(0.015625)"/>
      <path id="ArialMT-61" d="M 2588 409 
Q 2275 144 1986 34 
Q 1697 -75 1366 -75 
Q 819 -75 525 192 
Q 231 459 231 875 
Q 231 1119 342 1320 
Q 453 1522 633 1644 
Q 813 1766 1038 1828 
Q 1203 1872 1538 1913 
Q 2219 1994 2541 2106 
Q 2544 2222 2544 2253 
Q 2544 2597 2384 2738 
Q 2169 2928 1744 2928 
Q 1347 2928 1158 2789 
Q 969 2650 878 2297 
L 328 2372 
Q 403 2725 575 2942 
Q 747 3159 1072 3276 
Q 1397 3394 1825 3394 
Q 2250 3394 2515 3294 
Q 2781 3194 2906 3042 
Q 3031 2891 3081 2659 
Q 3109 2516 3109 2141 
L 3109 1391 
Q 3109 606 3145 398 
Q 3181 191 3288 0 
L 2700 0 
Q 2613 175 2588 409 
z
M 2541 1666 
Q 2234 1541 1622 1453 
Q 1275 1403 1131 1340 
Q 988 1278 909 1158 
Q 831 1038 831 891 
Q 831 666 1001 516 
Q 1172 366 1500 366 
Q 1825 366 2078 508 
Q 2331 650 2450 897 
Q 2541 1088 2541 1459 
L 2541 1666 
z
" transform="scale(0.015625)"/>
      <path id="ArialMT-67" d="M 319 -275 
L 866 -356 
Q 900 -609 1056 -725 
Q 1266 -881 1628 -881 
Q 2019 -881 2231 -725 
Q 2444 -569 2519 -288 
Q 2563 -116 2559 434 
Q 2191 0 1641 0 
Q 956 0 581 494 
Q 206 988 206 1678 
Q 206 2153 378 2554 
Q 550 2956 876 3175 
Q 1203 3394 1644 3394 
Q 2231 3394 2613 2919 
L 2613 3319 
L 3131 3319 
L 3131 450 
Q 3131 -325 2973 -648 
Q 2816 -972 2473 -1159 
Q 2131 -1347 1631 -1347 
Q 1038 -1347 672 -1080 
Q 306 -813 319 -275 
z
M 784 1719 
Q 784 1066 1043 766 
Q 1303 466 1694 466 
Q 2081 466 2343 764 
Q 2606 1063 2606 1700 
Q 2606 2309 2336 2618 
Q 2066 2928 1684 2928 
Q 1309 2928 1046 2623 
Q 784 2319 784 1719 
z
" transform="scale(0.015625)"/>
     </defs>
     <use xlink:href="#ArialMT-44"/>
     <use xlink:href="#ArialMT-4e" x="72.216797"/>
     <use xlink:href="#ArialMT-41" x="144.433594"/>
     <use xlink:href="#ArialMT-20" x="205.632812"/>
     <use xlink:href="#ArialMT-44" x="233.416016"/>
     <use xlink:href="#ArialMT-61" x="305.632812"/>
     <use xlink:href="#ArialMT-6d" x="361.248047"/>
     <use xlink:href="#ArialMT-61" x="444.548828"/>
     <use xlink:href="#ArialMT-67" x="500.164062"/>
     <use xlink:href="#ArialMT-65" x="555.779297"/>
    </g>
   </g>
   <g id="text_23">
    <!-- Dipeptide -->
    <g style="fill: #262626" transform="translate(106.268582 185.264619)scale(0.1 -0.1)">
     <defs>
      <path id="ArialMT-69" d="M 425 3934 
L 425 4581 
L 988 4581 
L 988 3934 
L 425 3934 
z
M 425 0 
L 425 3319 
L 988 3319 
L 988 0 
L 425 0 
z
" transform="scale(0.015625)"/>
      <path id="ArialMT-70" d="M 422 -1272 
L 422 3319 
L 934 3319 
L 934 2888 
Q 1116 3141 1344 3267 
Q 1572 3394 1897 3394 
Q 2322 3394 2647 3175 
Q 2972 2956 3137 2557 
Q 3303 2159 3303 1684 
Q 3303 1175 3120 767 
Q 2938 359 2589 142 
Q 2241 -75 1856 -75 
Q 1575 -75 1351 44 
Q 1128 163 984 344 
L 984 -1272 
L 422 -1272 
z
M 931 1641 
Q 931 1000 1190 694 
Q 1450 388 1819 388 
Q 2194 388 2461 705 
Q 2728 1022 2728 1688 
Q 2728 2322 2467 2637 
Q 2206 2953 1844 2953 
Q 1484 2953 1207 2617 
Q 931 2281 931 1641 
z
" transform="scale(0.015625)"/>
     </defs>
     <use xlink:href="#ArialMT-44"/>
     <use xlink:href="#ArialMT-69" x="72.216797"/>
     <use xlink:href="#ArialMT-70" x="94.433594"/>
     <use xlink:href="#ArialMT-65" x="150.048828"/>
     <use xlink:href="#ArialMT-70" x="205.664062"/>
     <use xlink:href="#ArialMT-74" x="261.279297"/>
     <use xlink:href="#ArialMT-69" x="289.0625"/>
     <use xlink:href="#ArialMT-64" x="311.279297"/>
     <use xlink:href="#ArialMT-65" x="366.894531"/>
    </g>
   </g>
   <g id="text_24">
    <!-- Putrescine -->
    <g style="fill: #262626" transform="translate(134.096347 205.911129)scale(0.1 -0.1)">
     <defs>
      <path id="ArialMT-50" d="M 494 0 
L 494 4581 
L 2222 4581 
Q 2678 4581 2919 4538 
Q 3256 4481 3484 4323 
Q 3713 4166 3852 3881 
Q 3991 3597 3991 3256 
Q 3991 2672 3619 2267 
Q 3247 1863 2275 1863 
L 1100 1863 
L 1100 0 
L 494 0 
z
M 1100 2403 
L 2284 2403 
Q 2872 2403 3119 2622 
Q 3366 2841 3366 3238 
Q 3366 3525 3220 3729 
Q 3075 3934 2838 4000 
Q 2684 4041 2272 4041 
L 1100 4041 
L 1100 2403 
z
" transform="scale(0.015625)"/>
      <path id="ArialMT-63" d="M 2588 1216 
L 3141 1144 
Q 3050 572 2676 248 
Q 2303 -75 1759 -75 
Q 1078 -75 664 370 
Q 250 816 250 1647 
Q 250 2184 428 2587 
Q 606 2991 970 3192 
Q 1334 3394 1763 3394 
Q 2303 3394 2647 3120 
Q 2991 2847 3088 2344 
L 2541 2259 
Q 2463 2594 2264 2762 
Q 2066 2931 1784 2931 
Q 1359 2931 1093 2626 
Q 828 2322 828 1663 
Q 828 994 1084 691 
Q 1341 388 1753 388 
Q 2084 388 2306 591 
Q 2528 794 2588 1216 
z
" transform="scale(0.015625)"/>
      <path id="ArialMT-6e" d="M 422 0 
L 422 3319 
L 928 3319 
L 928 2847 
Q 1294 3394 1984 3394 
Q 2284 3394 2536 3286 
Q 2788 3178 2913 3003 
Q 3038 2828 3088 2588 
Q 3119 2431 3119 2041 
L 3119 0 
L 2556 0 
L 2556 2019 
Q 2556 2363 2490 2533 
Q 2425 2703 2258 2804 
Q 2091 2906 1866 2906 
Q 1506 2906 1245 2678 
Q 984 2450 984 1813 
L 984 0 
L 422 0 
z
" transform="scale(0.015625)"/>
     </defs>
     <use xlink:href="#ArialMT-50"/>
     <use xlink:href="#ArialMT-75" x="66.699219"/>
     <use xlink:href="#ArialMT-74" x="122.314453"/>
     <use xlink:href="#ArialMT-72" x="150.097656"/>
     <use xlink:href="#ArialMT-65" x="183.398438"/>
     <use xlink:href="#ArialMT-73" x="239.013672"/>
     <use xlink:href="#ArialMT-63" x="289.013672"/>
     <use xlink:href="#ArialMT-69" x="339.013672"/>
     <use xlink:href="#ArialMT-6e" x="361.230469"/>
     <use xlink:href="#ArialMT-65" x="416.845703"/>
    </g>
   </g>
   <g id="text_25">
    <!-- NDH-1 -->
    <g style="fill: #262626" transform="translate(173.56204 178.259911)scale(0.1 -0.1)">
     <defs>
      <path id="ArialMT-48" d="M 513 0 
L 513 4581 
L 1119 4581 
L 1119 2700 
L 3500 2700 
L 3500 4581 
L 4106 4581 
L 4106 0 
L 3500 0 
L 3500 2159 
L 1119 2159 
L 1119 0 
L 513 0 
z
" transform="scale(0.015625)"/>
     </defs>
     <use xlink:href="#ArialMT-4e"/>
     <use xlink:href="#ArialMT-44" x="72.216797"/>
     <use xlink:href="#ArialMT-48" x="144.433594"/>
     <use xlink:href="#ArialMT-2d" x="216.650391"/>
     <use xlink:href="#ArialMT-31" x="249.951172"/>
    </g>
   </g>
   <g id="text_26">
    <!-- Membrane -->
    <g style="fill: #262626" transform="translate(193.603313 193.353129)scale(0.1 -0.1)">
     <defs>
      <path id="ArialMT-4d" d="M 475 0 
L 475 4581 
L 1388 4581 
L 2472 1338 
Q 2622 884 2691 659 
Q 2769 909 2934 1394 
L 4031 4581 
L 4847 4581 
L 4847 0 
L 4263 0 
L 4263 3834 
L 2931 0 
L 2384 0 
L 1059 3900 
L 1059 0 
L 475 0 
z
" transform="scale(0.015625)"/>
      <path id="ArialMT-62" d="M 941 0 
L 419 0 
L 419 4581 
L 981 4581 
L 981 2947 
Q 1338 3394 1891 3394 
Q 2197 3394 2470 3270 
Q 2744 3147 2920 2923 
Q 3097 2700 3197 2384 
Q 3297 2069 3297 1709 
Q 3297 856 2875 390 
Q 2453 -75 1863 -75 
Q 1275 -75 941 416 
L 941 0 
z
M 934 1684 
Q 934 1088 1097 822 
Q 1363 388 1816 388 
Q 2184 388 2453 708 
Q 2722 1028 2722 1663 
Q 2722 2313 2464 2622 
Q 2206 2931 1841 2931 
Q 1472 2931 1203 2611 
Q 934 2291 934 1684 
z
" transform="scale(0.015625)"/>
     </defs>
     <use xlink:href="#ArialMT-4d"/>
     <use xlink:href="#ArialMT-65" x="83.300781"/>
     <use xlink:href="#ArialMT-6d" x="138.916016"/>
     <use xlink:href="#ArialMT-62" x="222.216797"/>
     <use xlink:href="#ArialMT-72" x="277.832031"/>
     <use xlink:href="#ArialMT-61" x="311.132812"/>
     <use xlink:href="#ArialMT-6e" x="366.748047"/>
     <use xlink:href="#ArialMT-65" x="422.363281"/>
    </g>
   </g>
   <g id="text_27">
    <!-- Zinc-1 -->
    <g style="fill: #262626" transform="translate(319.274985 113.112878)scale(0.1 -0.1)">
     <use xlink:href="#ArialMT-5a"/>
     <use xlink:href="#ArialMT-69" x="61.083984"/>
     <use xlink:href="#ArialMT-6e" x="83.300781"/>
     <use xlink:href="#ArialMT-63" x="138.916016"/>
     <use xlink:href="#ArialMT-2d" x="188.916016"/>
     <use xlink:href="#ArialMT-31" x="222.216797"/>
    </g>
   </g>
   <g id="patch_7">
    <path d="M 106.657257 27.369139 
Q 105.788672 27.694035 104.920087 28.018931 
" style="fill: none; stroke: #000000; stroke-width: 0.5; stroke-linecap: round"/>
   </g>
   <g id="patch_8">
    <path d="M 150.508934 75.965327 
Q 150.369982 76.047129 150.23103 76.12893 
" style="fill: none; stroke: #000000; stroke-width: 0.5; stroke-linecap: round"/>
   </g>
   <g id="patch_9">
    <path d="M 133.840816 99.706355 
Q 133.369514 99.940967 132.898212 100.175579 
" style="fill: none; stroke: #000000; stroke-width: 0.5; stroke-linecap: round"/>
   </g>
   <g id="patch_10">
    <path d="M 181.122093 64.029283 
Q 177.009111 68.260252 172.896128 72.491221 
" style="fill: none; stroke: #000000; stroke-width: 0.5; stroke-linecap: round"/>
   </g>
   <g id="patch_11">
    <path d="M 148.408289 122.250294 
Q 143.749638 122.935004 139.090988 123.619715 
" style="fill: none; stroke: #000000; stroke-width: 0.5; stroke-linecap: round"/>
   </g>
   <g id="patch_12">
    <path d="M 205.910255 108.302833 
Q 182.761256 110.235129 159.612258 112.167426 
" style="fill: none; stroke: #000000; stroke-width: 0.5; stroke-linecap: round"/>
   </g>
   <g id="patch_13">
    <path d="M 142.834982 187.885081 
Q 146.0946 188.972922 149.354218 190.060763 
" style="fill: none; stroke: #000000; stroke-width: 0.5; stroke-linecap: round"/>
   </g>
   <g id="patch_14">
    <path d="M 135.882882 208.337327 
Q 134.896968 208.55902 133.911053 208.780712 
" style="fill: none; stroke: #000000; stroke-width: 0.5; stroke-linecap: round"/>
   </g>
   <g id="patch_15">
    <path d="M 171.68288 180.8154 
Q 171.320229 180.922697 170.957578 181.029994 
" style="fill: none; stroke: #000000; stroke-width: 0.5; stroke-linecap: round"/>
   </g>
   <g id="patch_16">
    <path d="M 191.613159 193.112425 
Q 176.599678 194.427915 161.586197 195.743405 
" style="fill: none; stroke: #000000; stroke-width: 0.5; stroke-linecap: round"/>
   </g>
   <g id="patch_17">
    <path d="M 348.921697 115.713594 
Q 349.111463 115.774753 349.301228 115.835911 
" style="fill: none; stroke: #000000; stroke-width: 0.5; stroke-linecap: round"/>
   </g>
  </g>
 </g>
 <defs>
  <clipPath id="pff0d5344f8">
   <rect x="44.307813" y="9.898931" width="334.8" height="217.44"/>
  </clipPath>
 </defs>
</svg>
