<?xml version="1.0" encoding="utf-8" standalone="no"?>
<!DOCTYPE svg PUBLIC "-//W3C//DTD SVG 1.1//EN"
  "http://www.w3.org/Graphics/SVG/1.1/DTD/svg11.dtd">
<svg xmlns:xlink="http://www.w3.org/1999/xlink" width="222.086563pt" height="153.656094pt" viewBox="0 0 222.086563 153.656094" xmlns="http://www.w3.org/2000/svg" version="1.1">
 <metadata>
  <rdf:RDF xmlns:dc="http://purl.org/dc/elements/1.1/" xmlns:cc="http://creativecommons.org/ns#" xmlns:rdf="http://www.w3.org/1999/02/22-rdf-syntax-ns#">
   <cc:Work>
    <dc:type rdf:resource="http://purl.org/dc/dcmitype/StillImage"/>
    <dc:date>2022-12-06T17:12:57.010300</dc:date>
    <dc:format>image/svg+xml</dc:format>
    <dc:creator>
     <cc:Agent>
      <dc:title>Matplotlib v3.6.2, https://matplotlib.org/</dc:title>
     </cc:Agent>
    </dc:creator>
   </cc:Work>
  </rdf:RDF>
 </metadata>
 <defs>
  <style type="text/css">*{stroke-linejoin: round; stroke-linecap: butt}</style>
 </defs>
 <g id="figure_1">
  <g id="patch_1">
   <path d="M 0 153.656094 
L 222.086563 153.656094 
L 222.086563 0 
L 0 0 
z
" style="fill: #ffffff"/>
  </g>
  <g id="axes_1">
   <g id="patch_2">
    <path d="M 47.486563 118.08 
L 214.886562 118.08 
L 214.886562 7.2 
L 47.486563 7.2 
z
" style="fill: #ffffff"/>
   </g>
   <g id="matplotlib.axis_1">
    <g id="xtick_1">
     <g id="line2d_1">
      <defs>
       <path id="m983b335ae2" d="M 0 0 
L 0 3.5 
" style="stroke: #262626; stroke-width: 0.8"/>
      </defs>
      <g>
       <use xlink:href="#m983b335ae2" x="55.095653" y="118.08" style="fill: #262626; stroke: #262626; stroke-width: 0.8"/>
      </g>
     </g>
     <g id="text_1">
      <!-- 0 -->
      <g style="fill: #262626" transform="translate(52.593232 131.522031) scale(0.09 -0.09)">
       <defs>
        <path id="ArialMT-30" d="M 266 2259 
Q 266 3072 433 3567 
Q 600 4063 929 4331 
Q 1259 4600 1759 4600 
Q 2128 4600 2406 4451 
Q 2684 4303 2865 4023 
Q 3047 3744 3150 3342 
Q 3253 2941 3253 2259 
Q 3253 1453 3087 958 
Q 2922 463 2592 192 
Q 2263 -78 1759 -78 
Q 1097 -78 719 397 
Q 266 969 266 2259 
z
M 844 2259 
Q 844 1131 1108 757 
Q 1372 384 1759 384 
Q 2147 384 2411 759 
Q 2675 1134 2675 2259 
Q 2675 3391 2411 3762 
Q 2147 4134 1753 4134 
Q 1366 4134 1134 3806 
Q 844 3388 844 2259 
z
" transform="scale(0.015625)"/>
       </defs>
       <use xlink:href="#ArialMT-30"/>
      </g>
     </g>
    </g>
    <g id="xtick_2">
     <g id="line2d_2">
      <g>
       <use xlink:href="#m983b335ae2" x="84.645521" y="118.08" style="fill: #262626; stroke: #262626; stroke-width: 0.8"/>
      </g>
     </g>
     <g id="text_2">
      <!-- 20 -->
      <g style="fill: #262626" transform="translate(79.640677 131.522031) scale(0.09 -0.09)">
       <defs>
        <path id="ArialMT-32" d="M 3222 541 
L 3222 0 
L 194 0 
Q 188 203 259 391 
Q 375 700 629 1000 
Q 884 1300 1366 1694 
Q 2113 2306 2375 2664 
Q 2638 3022 2638 3341 
Q 2638 3675 2398 3904 
Q 2159 4134 1775 4134 
Q 1369 4134 1125 3890 
Q 881 3647 878 3216 
L 300 3275 
Q 359 3922 746 4261 
Q 1134 4600 1788 4600 
Q 2447 4600 2831 4234 
Q 3216 3869 3216 3328 
Q 3216 3053 3103 2787 
Q 2991 2522 2730 2228 
Q 2469 1934 1863 1422 
Q 1356 997 1212 845 
Q 1069 694 975 541 
L 3222 541 
z
" transform="scale(0.015625)"/>
       </defs>
       <use xlink:href="#ArialMT-32"/>
       <use xlink:href="#ArialMT-30" x="55.615234"/>
      </g>
     </g>
    </g>
    <g id="xtick_3">
     <g id="line2d_3">
      <g>
       <use xlink:href="#m983b335ae2" x="114.195389" y="118.08" style="fill: #262626; stroke: #262626; stroke-width: 0.8"/>
      </g>
     </g>
     <g id="text_3">
      <!-- 40 -->
      <g style="fill: #262626" transform="translate(109.190545 131.522031) scale(0.09 -0.09)">
       <defs>
        <path id="ArialMT-34" d="M 2069 0 
L 2069 1097 
L 81 1097 
L 81 1613 
L 2172 4581 
L 2631 4581 
L 2631 1613 
L 3250 1613 
L 3250 1097 
L 2631 1097 
L 2631 0 
L 2069 0 
z
M 2069 1613 
L 2069 3678 
L 634 1613 
L 2069 1613 
z
" transform="scale(0.015625)"/>
       </defs>
       <use xlink:href="#ArialMT-34"/>
       <use xlink:href="#ArialMT-30" x="55.615234"/>
      </g>
     </g>
    </g>
    <g id="xtick_4">
     <g id="line2d_4">
      <g>
       <use xlink:href="#m983b335ae2" x="143.745256" y="118.08" style="fill: #262626; stroke: #262626; stroke-width: 0.8"/>
      </g>
     </g>
     <g id="text_4">
      <!-- 60 -->
      <g style="fill: #262626" transform="translate(138.740412 131.522031) scale(0.09 -0.09)">
       <defs>
        <path id="ArialMT-36" d="M 3184 3459 
L 2625 3416 
Q 2550 3747 2413 3897 
Q 2184 4138 1850 4138 
Q 1581 4138 1378 3988 
Q 1113 3794 959 3422 
Q 806 3050 800 2363 
Q 1003 2672 1297 2822 
Q 1591 2972 1913 2972 
Q 2475 2972 2870 2558 
Q 3266 2144 3266 1488 
Q 3266 1056 3080 686 
Q 2894 316 2569 119 
Q 2244 -78 1831 -78 
Q 1128 -78 684 439 
Q 241 956 241 2144 
Q 241 3472 731 4075 
Q 1159 4600 1884 4600 
Q 2425 4600 2770 4297 
Q 3116 3994 3184 3459 
z
M 888 1484 
Q 888 1194 1011 928 
Q 1134 663 1356 523 
Q 1578 384 1822 384 
Q 2178 384 2434 671 
Q 2691 959 2691 1453 
Q 2691 1928 2437 2201 
Q 2184 2475 1800 2475 
Q 1419 2475 1153 2201 
Q 888 1928 888 1484 
z
" transform="scale(0.015625)"/>
       </defs>
       <use xlink:href="#ArialMT-36"/>
       <use xlink:href="#ArialMT-30" x="55.615234"/>
      </g>
     </g>
    </g>
    <g id="xtick_5">
     <g id="line2d_5">
      <g>
       <use xlink:href="#m983b335ae2" x="173.295124" y="118.08" style="fill: #262626; stroke: #262626; stroke-width: 0.8"/>
      </g>
     </g>
     <g id="text_5">
      <!-- 80 -->
      <g style="fill: #262626" transform="translate(168.29028 131.522031) scale(0.09 -0.09)">
       <defs>
        <path id="ArialMT-38" d="M 1131 2484 
Q 781 2613 612 2850 
Q 444 3088 444 3419 
Q 444 3919 803 4259 
Q 1163 4600 1759 4600 
Q 2359 4600 2725 4251 
Q 3091 3903 3091 3403 
Q 3091 3084 2923 2848 
Q 2756 2613 2416 2484 
Q 2838 2347 3058 2040 
Q 3278 1734 3278 1309 
Q 3278 722 2862 322 
Q 2447 -78 1769 -78 
Q 1091 -78 675 323 
Q 259 725 259 1325 
Q 259 1772 486 2073 
Q 713 2375 1131 2484 
z
M 1019 3438 
Q 1019 3113 1228 2906 
Q 1438 2700 1772 2700 
Q 2097 2700 2305 2904 
Q 2513 3109 2513 3406 
Q 2513 3716 2298 3927 
Q 2084 4138 1766 4138 
Q 1444 4138 1231 3931 
Q 1019 3725 1019 3438 
z
M 838 1322 
Q 838 1081 952 856 
Q 1066 631 1291 507 
Q 1516 384 1775 384 
Q 2178 384 2440 643 
Q 2703 903 2703 1303 
Q 2703 1709 2433 1975 
Q 2163 2241 1756 2241 
Q 1359 2241 1098 1978 
Q 838 1716 838 1322 
z
" transform="scale(0.015625)"/>
       </defs>
       <use xlink:href="#ArialMT-38"/>
       <use xlink:href="#ArialMT-30" x="55.615234"/>
      </g>
     </g>
    </g>
    <g id="xtick_6">
     <g id="line2d_6">
      <g>
       <use xlink:href="#m983b335ae2" x="202.844991" y="118.08" style="fill: #262626; stroke: #262626; stroke-width: 0.8"/>
      </g>
     </g>
     <g id="text_6">
      <!-- 100 -->
      <g style="fill: #262626" transform="translate(195.337726 131.522031) scale(0.09 -0.09)">
       <defs>
        <path id="ArialMT-31" d="M 2384 0 
L 1822 0 
L 1822 3584 
Q 1619 3391 1289 3197 
Q 959 3003 697 2906 
L 697 3450 
Q 1169 3672 1522 3987 
Q 1875 4303 2022 4600 
L 2384 4600 
L 2384 0 
z
" transform="scale(0.015625)"/>
       </defs>
       <use xlink:href="#ArialMT-31"/>
       <use xlink:href="#ArialMT-30" x="55.615234"/>
       <use xlink:href="#ArialMT-30" x="111.230469"/>
      </g>
     </g>
    </g>
    <g id="text_7">
     <!-- # DIMAs -->
     <g style="fill: #262626" transform="translate(112.017031 144.468594) scale(0.1 -0.1)">
      <defs>
       <path id="ArialMT-23" d="M 322 -78 
L 594 1253 
L 66 1253 
L 66 1719 
L 688 1719 
L 919 2853 
L 66 2853 
L 66 3319 
L 1013 3319 
L 1284 4659 
L 1753 4659 
L 1481 3319 
L 2466 3319 
L 2738 4659 
L 3209 4659 
L 2938 3319 
L 3478 3319 
L 3478 2853 
L 2844 2853 
L 2609 1719 
L 3478 1719 
L 3478 1253 
L 2516 1253 
L 2244 -78 
L 1775 -78 
L 2044 1253 
L 1063 1253 
L 791 -78 
L 322 -78 
z
M 1156 1719 
L 2138 1719 
L 2372 2853 
L 1388 2853 
L 1156 1719 
z
" transform="scale(0.015625)"/>
       <path id="ArialMT-20" transform="scale(0.015625)"/>
       <path id="ArialMT-44" d="M 494 0 
L 494 4581 
L 2072 4581 
Q 2606 4581 2888 4516 
Q 3281 4425 3559 4188 
Q 3922 3881 4101 3404 
Q 4281 2928 4281 2316 
Q 4281 1794 4159 1391 
Q 4038 988 3847 723 
Q 3656 459 3429 307 
Q 3203 156 2883 78 
Q 2563 0 2147 0 
L 494 0 
z
M 1100 541 
L 2078 541 
Q 2531 541 2789 625 
Q 3047 709 3200 863 
Q 3416 1078 3536 1442 
Q 3656 1806 3656 2325 
Q 3656 3044 3420 3430 
Q 3184 3816 2847 3947 
Q 2603 4041 2063 4041 
L 1100 4041 
L 1100 541 
z
" transform="scale(0.015625)"/>
       <path id="ArialMT-49" d="M 597 0 
L 597 4581 
L 1203 4581 
L 1203 0 
L 597 0 
z
" transform="scale(0.015625)"/>
       <path id="ArialMT-4d" d="M 475 0 
L 475 4581 
L 1388 4581 
L 2472 1338 
Q 2622 884 2691 659 
Q 2769 909 2934 1394 
L 4031 4581 
L 4847 4581 
L 4847 0 
L 4263 0 
L 4263 3834 
L 2931 0 
L 2384 0 
L 1059 3900 
L 1059 0 
L 475 0 
z
" transform="scale(0.015625)"/>
       <path id="ArialMT-41" d="M -9 0 
L 1750 4581 
L 2403 4581 
L 4278 0 
L 3588 0 
L 3053 1388 
L 1138 1388 
L 634 0 
L -9 0 
z
M 1313 1881 
L 2866 1881 
L 2388 3150 
Q 2169 3728 2063 4100 
Q 1975 3659 1816 3225 
L 1313 1881 
z
" transform="scale(0.015625)"/>
       <path id="ArialMT-73" d="M 197 991 
L 753 1078 
Q 800 744 1014 566 
Q 1228 388 1613 388 
Q 2000 388 2187 545 
Q 2375 703 2375 916 
Q 2375 1106 2209 1216 
Q 2094 1291 1634 1406 
Q 1016 1563 777 1677 
Q 538 1791 414 1992 
Q 291 2194 291 2438 
Q 291 2659 392 2848 
Q 494 3038 669 3163 
Q 800 3259 1026 3326 
Q 1253 3394 1513 3394 
Q 1903 3394 2198 3281 
Q 2494 3169 2634 2976 
Q 2775 2784 2828 2463 
L 2278 2388 
Q 2241 2644 2061 2787 
Q 1881 2931 1553 2931 
Q 1166 2931 1000 2803 
Q 834 2675 834 2503 
Q 834 2394 903 2306 
Q 972 2216 1119 2156 
Q 1203 2125 1616 2013 
Q 2213 1853 2448 1751 
Q 2684 1650 2818 1456 
Q 2953 1263 2953 975 
Q 2953 694 2789 445 
Q 2625 197 2315 61 
Q 2006 -75 1616 -75 
Q 969 -75 630 194 
Q 291 463 197 991 
z
" transform="scale(0.015625)"/>
      </defs>
      <use xlink:href="#ArialMT-23"/>
      <use xlink:href="#ArialMT-20" x="55.615234"/>
      <use xlink:href="#ArialMT-44" x="83.398438"/>
      <use xlink:href="#ArialMT-49" x="155.615234"/>
      <use xlink:href="#ArialMT-4d" x="183.398438"/>
      <use xlink:href="#ArialMT-41" x="266.699219"/>
      <use xlink:href="#ArialMT-73" x="333.398438"/>
     </g>
    </g>
   </g>
   <g id="matplotlib.axis_2">
    <g id="ytick_1">
     <g id="line2d_7">
      <defs>
       <path id="m61aa502720" d="M 0 0 
L -3.5 0 
" style="stroke: #262626; stroke-width: 0.8"/>
      </defs>
      <g>
       <use xlink:href="#m61aa502720" x="47.486563" y="118.08" style="fill: #262626; stroke: #262626; stroke-width: 0.8"/>
      </g>
     </g>
     <g id="text_8">
      <!-- 0 -->
      <g style="fill: #262626" transform="translate(35.481719 121.301016) scale(0.09 -0.09)">
       <use xlink:href="#ArialMT-30"/>
      </g>
     </g>
    </g>
    <g id="ytick_2">
     <g id="line2d_8">
      <g>
       <use xlink:href="#m61aa502720" x="47.486563" y="95.301743" style="fill: #262626; stroke: #262626; stroke-width: 0.8"/>
      </g>
     </g>
     <g id="text_9">
      <!-- 500 -->
      <g style="fill: #262626" transform="translate(25.472031 98.522759) scale(0.09 -0.09)">
       <defs>
        <path id="ArialMT-35" d="M 266 1200 
L 856 1250 
Q 922 819 1161 601 
Q 1400 384 1738 384 
Q 2144 384 2425 690 
Q 2706 997 2706 1503 
Q 2706 1984 2436 2262 
Q 2166 2541 1728 2541 
Q 1456 2541 1237 2417 
Q 1019 2294 894 2097 
L 366 2166 
L 809 4519 
L 3088 4519 
L 3088 3981 
L 1259 3981 
L 1013 2750 
Q 1425 3038 1878 3038 
Q 2478 3038 2890 2622 
Q 3303 2206 3303 1553 
Q 3303 931 2941 478 
Q 2500 -78 1738 -78 
Q 1113 -78 717 272 
Q 322 622 266 1200 
z
" transform="scale(0.015625)"/>
       </defs>
       <use xlink:href="#ArialMT-35"/>
       <use xlink:href="#ArialMT-30" x="55.615234"/>
       <use xlink:href="#ArialMT-30" x="111.230469"/>
      </g>
     </g>
    </g>
    <g id="ytick_3">
     <g id="line2d_9">
      <g>
       <use xlink:href="#m61aa502720" x="47.486563" y="72.523486" style="fill: #262626; stroke: #262626; stroke-width: 0.8"/>
      </g>
     </g>
     <g id="text_10">
      <!-- 1000 -->
      <g style="fill: #262626" transform="translate(20.467188 75.744501) scale(0.09 -0.09)">
       <use xlink:href="#ArialMT-31"/>
       <use xlink:href="#ArialMT-30" x="55.615234"/>
       <use xlink:href="#ArialMT-30" x="111.230469"/>
       <use xlink:href="#ArialMT-30" x="166.845703"/>
      </g>
     </g>
    </g>
    <g id="ytick_4">
     <g id="line2d_10">
      <g>
       <use xlink:href="#m61aa502720" x="47.486563" y="49.745229" style="fill: #262626; stroke: #262626; stroke-width: 0.8"/>
      </g>
     </g>
     <g id="text_11">
      <!-- 1500 -->
      <g style="fill: #262626" transform="translate(20.467188 52.966244) scale(0.09 -0.09)">
       <use xlink:href="#ArialMT-31"/>
       <use xlink:href="#ArialMT-35" x="55.615234"/>
       <use xlink:href="#ArialMT-30" x="111.230469"/>
       <use xlink:href="#ArialMT-30" x="166.845703"/>
      </g>
     </g>
    </g>
    <g id="ytick_5">
     <g id="line2d_11">
      <g>
       <use xlink:href="#m61aa502720" x="47.486563" y="26.966972" style="fill: #262626; stroke: #262626; stroke-width: 0.8"/>
      </g>
     </g>
     <g id="text_12">
      <!-- 2000 -->
      <g style="fill: #262626" transform="translate(20.467188 30.187987) scale(0.09 -0.09)">
       <use xlink:href="#ArialMT-32"/>
       <use xlink:href="#ArialMT-30" x="55.615234"/>
       <use xlink:href="#ArialMT-30" x="111.230469"/>
       <use xlink:href="#ArialMT-30" x="166.845703"/>
      </g>
     </g>
    </g>
    <g id="text_13">
     <!-- # Comparisons -->
     <g style="fill: #262626" transform="translate(14.479688 96.263437) rotate(-90) scale(0.1 -0.1)">
      <defs>
       <path id="ArialMT-43" d="M 3763 1606 
L 4369 1453 
Q 4178 706 3683 314 
Q 3188 -78 2472 -78 
Q 1731 -78 1267 223 
Q 803 525 561 1097 
Q 319 1669 319 2325 
Q 319 3041 592 3573 
Q 866 4106 1370 4382 
Q 1875 4659 2481 4659 
Q 3169 4659 3637 4309 
Q 4106 3959 4291 3325 
L 3694 3184 
Q 3534 3684 3231 3912 
Q 2928 4141 2469 4141 
Q 1941 4141 1586 3887 
Q 1231 3634 1087 3207 
Q 944 2781 944 2328 
Q 944 1744 1114 1308 
Q 1284 872 1643 656 
Q 2003 441 2422 441 
Q 2931 441 3284 734 
Q 3638 1028 3763 1606 
z
" transform="scale(0.015625)"/>
       <path id="ArialMT-6f" d="M 213 1659 
Q 213 2581 725 3025 
Q 1153 3394 1769 3394 
Q 2453 3394 2887 2945 
Q 3322 2497 3322 1706 
Q 3322 1066 3130 698 
Q 2938 331 2570 128 
Q 2203 -75 1769 -75 
Q 1072 -75 642 372 
Q 213 819 213 1659 
z
M 791 1659 
Q 791 1022 1069 705 
Q 1347 388 1769 388 
Q 2188 388 2466 706 
Q 2744 1025 2744 1678 
Q 2744 2294 2464 2611 
Q 2184 2928 1769 2928 
Q 1347 2928 1069 2612 
Q 791 2297 791 1659 
z
" transform="scale(0.015625)"/>
       <path id="ArialMT-6d" d="M 422 0 
L 422 3319 
L 925 3319 
L 925 2853 
Q 1081 3097 1340 3245 
Q 1600 3394 1931 3394 
Q 2300 3394 2536 3241 
Q 2772 3088 2869 2813 
Q 3263 3394 3894 3394 
Q 4388 3394 4653 3120 
Q 4919 2847 4919 2278 
L 4919 0 
L 4359 0 
L 4359 2091 
Q 4359 2428 4304 2576 
Q 4250 2725 4106 2815 
Q 3963 2906 3769 2906 
Q 3419 2906 3187 2673 
Q 2956 2441 2956 1928 
L 2956 0 
L 2394 0 
L 2394 2156 
Q 2394 2531 2256 2718 
Q 2119 2906 1806 2906 
Q 1569 2906 1367 2781 
Q 1166 2656 1075 2415 
Q 984 2175 984 1722 
L 984 0 
L 422 0 
z
" transform="scale(0.015625)"/>
       <path id="ArialMT-70" d="M 422 -1272 
L 422 3319 
L 934 3319 
L 934 2888 
Q 1116 3141 1344 3267 
Q 1572 3394 1897 3394 
Q 2322 3394 2647 3175 
Q 2972 2956 3137 2557 
Q 3303 2159 3303 1684 
Q 3303 1175 3120 767 
Q 2938 359 2589 142 
Q 2241 -75 1856 -75 
Q 1575 -75 1351 44 
Q 1128 163 984 344 
L 984 -1272 
L 422 -1272 
z
M 931 1641 
Q 931 1000 1190 694 
Q 1450 388 1819 388 
Q 2194 388 2461 705 
Q 2728 1022 2728 1688 
Q 2728 2322 2467 2637 
Q 2206 2953 1844 2953 
Q 1484 2953 1207 2617 
Q 931 2281 931 1641 
z
" transform="scale(0.015625)"/>
       <path id="ArialMT-61" d="M 2588 409 
Q 2275 144 1986 34 
Q 1697 -75 1366 -75 
Q 819 -75 525 192 
Q 231 459 231 875 
Q 231 1119 342 1320 
Q 453 1522 633 1644 
Q 813 1766 1038 1828 
Q 1203 1872 1538 1913 
Q 2219 1994 2541 2106 
Q 2544 2222 2544 2253 
Q 2544 2597 2384 2738 
Q 2169 2928 1744 2928 
Q 1347 2928 1158 2789 
Q 969 2650 878 2297 
L 328 2372 
Q 403 2725 575 2942 
Q 747 3159 1072 3276 
Q 1397 3394 1825 3394 
Q 2250 3394 2515 3294 
Q 2781 3194 2906 3042 
Q 3031 2891 3081 2659 
Q 3109 2516 3109 2141 
L 3109 1391 
Q 3109 606 3145 398 
Q 3181 191 3288 0 
L 2700 0 
Q 2613 175 2588 409 
z
M 2541 1666 
Q 2234 1541 1622 1453 
Q 1275 1403 1131 1340 
Q 988 1278 909 1158 
Q 831 1038 831 891 
Q 831 666 1001 516 
Q 1172 366 1500 366 
Q 1825 366 2078 508 
Q 2331 650 2450 897 
Q 2541 1088 2541 1459 
L 2541 1666 
z
" transform="scale(0.015625)"/>
       <path id="ArialMT-72" d="M 416 0 
L 416 3319 
L 922 3319 
L 922 2816 
Q 1116 3169 1280 3281 
Q 1444 3394 1641 3394 
Q 1925 3394 2219 3213 
L 2025 2691 
Q 1819 2813 1613 2813 
Q 1428 2813 1281 2702 
Q 1134 2591 1072 2394 
Q 978 2094 978 1738 
L 978 0 
L 416 0 
z
" transform="scale(0.015625)"/>
       <path id="ArialMT-69" d="M 425 3934 
L 425 4581 
L 988 4581 
L 988 3934 
L 425 3934 
z
M 425 0 
L 425 3319 
L 988 3319 
L 988 0 
L 425 0 
z
" transform="scale(0.015625)"/>
       <path id="ArialMT-6e" d="M 422 0 
L 422 3319 
L 928 3319 
L 928 2847 
Q 1294 3394 1984 3394 
Q 2284 3394 2536 3286 
Q 2788 3178 2913 3003 
Q 3038 2828 3088 2588 
Q 3119 2431 3119 2041 
L 3119 0 
L 2556 0 
L 2556 2019 
Q 2556 2363 2490 2533 
Q 2425 2703 2258 2804 
Q 2091 2906 1866 2906 
Q 1506 2906 1245 2678 
Q 984 2450 984 1813 
L 984 0 
L 422 0 
z
" transform="scale(0.015625)"/>
      </defs>
      <use xlink:href="#ArialMT-23"/>
      <use xlink:href="#ArialMT-20" x="55.615234"/>
      <use xlink:href="#ArialMT-43" x="83.398438"/>
      <use xlink:href="#ArialMT-6f" x="155.615234"/>
      <use xlink:href="#ArialMT-6d" x="211.230469"/>
      <use xlink:href="#ArialMT-70" x="294.53125"/>
      <use xlink:href="#ArialMT-61" x="350.146484"/>
      <use xlink:href="#ArialMT-72" x="405.761719"/>
      <use xlink:href="#ArialMT-69" x="439.0625"/>
      <use xlink:href="#ArialMT-73" x="461.279297"/>
      <use xlink:href="#ArialMT-6f" x="511.279297"/>
      <use xlink:href="#ArialMT-6e" x="566.894531"/>
      <use xlink:href="#ArialMT-73" x="622.509766"/>
     </g>
    </g>
   </g>
   <g id="patch_3">
    <path d="M 55.095653 118.08 
L 61.182926 118.08 
L 61.182926 12.48 
L 55.095653 12.48 
z
" clip-path="url(#p94bf2ec0bf)" style="fill: #1f77b4; fill-opacity: 0.5; stroke: #ffffff; stroke-width: 0.608727; stroke-linejoin: miter"/>
   </g>
   <g id="patch_4">
    <path d="M 61.182926 118.08 
L 67.270199 118.08 
L 67.270199 103.000794 
L 61.182926 103.000794 
z
" clip-path="url(#p94bf2ec0bf)" style="fill: #1f77b4; fill-opacity: 0.5; stroke: #ffffff; stroke-width: 0.608727; stroke-linejoin: miter"/>
   </g>
   <g id="patch_5">
    <path d="M 67.270199 118.08 
L 73.357472 118.08 
L 73.357472 105.050837 
L 67.270199 105.050837 
z
" clip-path="url(#p94bf2ec0bf)" style="fill: #1f77b4; fill-opacity: 0.5; stroke: #ffffff; stroke-width: 0.608727; stroke-linejoin: miter"/>
   </g>
   <g id="patch_6">
    <path d="M 73.357472 118.08 
L 79.444744 118.08 
L 79.444744 106.007524 
L 73.357472 106.007524 
z
" clip-path="url(#p94bf2ec0bf)" style="fill: #1f77b4; fill-opacity: 0.5; stroke: #ffffff; stroke-width: 0.608727; stroke-linejoin: miter"/>
   </g>
   <g id="patch_7">
    <path d="M 79.444744 118.08 
L 85.532017 118.08 
L 85.532017 106.827541 
L 79.444744 106.827541 
z
" clip-path="url(#p94bf2ec0bf)" style="fill: #1f77b4; fill-opacity: 0.5; stroke: #ffffff; stroke-width: 0.608727; stroke-linejoin: miter"/>
   </g>
   <g id="patch_8">
    <path d="M 85.532017 118.08 
L 91.61929 118.08 
L 91.61929 106.690871 
L 85.532017 106.690871 
z
" clip-path="url(#p94bf2ec0bf)" style="fill: #1f77b4; fill-opacity: 0.5; stroke: #ffffff; stroke-width: 0.608727; stroke-linejoin: miter"/>
   </g>
   <g id="patch_9">
    <path d="M 91.61929 118.08 
L 97.706563 118.08 
L 97.706563 105.870854 
L 91.61929 105.870854 
z
" clip-path="url(#p94bf2ec0bf)" style="fill: #1f77b4; fill-opacity: 0.5; stroke: #ffffff; stroke-width: 0.608727; stroke-linejoin: miter"/>
   </g>
   <g id="patch_10">
    <path d="M 97.706562 118.08 
L 103.793835 118.08 
L 103.793835 105.779741 
L 97.706562 105.779741 
z
" clip-path="url(#p94bf2ec0bf)" style="fill: #1f77b4; fill-opacity: 0.5; stroke: #ffffff; stroke-width: 0.608727; stroke-linejoin: miter"/>
   </g>
   <g id="patch_11">
    <path d="M 103.793835 118.08 
L 109.881108 118.08 
L 109.881108 101.269646 
L 103.793835 101.269646 
z
" clip-path="url(#p94bf2ec0bf)" style="fill: #1f77b4; fill-opacity: 0.5; stroke: #ffffff; stroke-width: 0.608727; stroke-linejoin: miter"/>
   </g>
   <g id="patch_12">
    <path d="M 109.881108 118.08 
L 115.968381 118.08 
L 115.968381 103.501915 
L 109.881108 103.501915 
z
" clip-path="url(#p94bf2ec0bf)" style="fill: #1f77b4; fill-opacity: 0.5; stroke: #ffffff; stroke-width: 0.608727; stroke-linejoin: miter"/>
   </g>
   <g id="patch_13">
    <path d="M 115.968381 118.08 
L 122.055653 118.08 
L 122.055653 108.877584 
L 115.968381 108.877584 
z
" clip-path="url(#p94bf2ec0bf)" style="fill: #1f77b4; fill-opacity: 0.5; stroke: #ffffff; stroke-width: 0.608727; stroke-linejoin: miter"/>
   </g>
   <g id="patch_14">
    <path d="M 122.055653 118.08 
L 128.142926 118.08 
L 128.142926 110.517619 
L 122.055653 110.517619 
z
" clip-path="url(#p94bf2ec0bf)" style="fill: #1f77b4; fill-opacity: 0.5; stroke: #ffffff; stroke-width: 0.608727; stroke-linejoin: miter"/>
   </g>
   <g id="patch_15">
    <path d="M 128.142926 118.08 
L 134.230199 118.08 
L 134.230199 111.474305 
L 128.142926 111.474305 
z
" clip-path="url(#p94bf2ec0bf)" style="fill: #1f77b4; fill-opacity: 0.5; stroke: #ffffff; stroke-width: 0.608727; stroke-linejoin: miter"/>
   </g>
   <g id="patch_16">
    <path d="M 134.230199 118.08 
L 140.317472 118.08 
L 140.317472 114.207696 
L 134.230199 114.207696 
z
" clip-path="url(#p94bf2ec0bf)" style="fill: #1f77b4; fill-opacity: 0.5; stroke: #ffffff; stroke-width: 0.608727; stroke-linejoin: miter"/>
   </g>
   <g id="patch_17">
    <path d="M 140.317472 118.08 
L 146.404744 118.08 
L 146.404744 114.298809 
L 140.317472 114.298809 
z
" clip-path="url(#p94bf2ec0bf)" style="fill: #1f77b4; fill-opacity: 0.5; stroke: #ffffff; stroke-width: 0.608727; stroke-linejoin: miter"/>
   </g>
   <g id="patch_18">
    <path d="M 146.404744 118.08 
L 152.492017 118.08 
L 152.492017 114.982157 
L 146.404744 114.982157 
z
" clip-path="url(#p94bf2ec0bf)" style="fill: #1f77b4; fill-opacity: 0.5; stroke: #ffffff; stroke-width: 0.608727; stroke-linejoin: miter"/>
   </g>
   <g id="patch_19">
    <path d="M 152.492017 118.08 
L 158.57929 118.08 
L 158.57929 115.711061 
L 152.492017 115.711061 
z
" clip-path="url(#p94bf2ec0bf)" style="fill: #1f77b4; fill-opacity: 0.5; stroke: #ffffff; stroke-width: 0.608727; stroke-linejoin: miter"/>
   </g>
   <g id="patch_20">
    <path d="M 158.57929 118.08 
L 164.666562 118.08 
L 164.666562 114.799931 
L 158.57929 114.799931 
z
" clip-path="url(#p94bf2ec0bf)" style="fill: #1f77b4; fill-opacity: 0.5; stroke: #ffffff; stroke-width: 0.608727; stroke-linejoin: miter"/>
   </g>
   <g id="patch_21">
    <path d="M 164.666562 118.08 
L 170.753835 118.08 
L 170.753835 113.797688 
L 164.666562 113.797688 
z
" clip-path="url(#p94bf2ec0bf)" style="fill: #1f77b4; fill-opacity: 0.5; stroke: #ffffff; stroke-width: 0.608727; stroke-linejoin: miter"/>
   </g>
   <g id="patch_22">
    <path d="M 170.753835 118.08 
L 176.841108 118.08 
L 176.841108 114.708818 
L 170.753835 114.708818 
z
" clip-path="url(#p94bf2ec0bf)" style="fill: #1f77b4; fill-opacity: 0.5; stroke: #ffffff; stroke-width: 0.608727; stroke-linejoin: miter"/>
   </g>
   <g id="patch_23">
    <path d="M 176.841108 118.08 
L 182.928381 118.08 
L 182.928381 115.346609 
L 176.841108 115.346609 
z
" clip-path="url(#p94bf2ec0bf)" style="fill: #1f77b4; fill-opacity: 0.5; stroke: #ffffff; stroke-width: 0.608727; stroke-linejoin: miter"/>
   </g>
   <g id="patch_24">
    <path d="M 182.928381 118.08 
L 189.015653 118.08 
L 189.015653 116.576635 
L 182.928381 116.576635 
z
" clip-path="url(#p94bf2ec0bf)" style="fill: #1f77b4; fill-opacity: 0.5; stroke: #ffffff; stroke-width: 0.608727; stroke-linejoin: miter"/>
   </g>
   <g id="patch_25">
    <path d="M 189.015653 118.08 
L 195.102926 118.08 
L 195.102926 116.667748 
L 189.015653 116.667748 
z
" clip-path="url(#p94bf2ec0bf)" style="fill: #1f77b4; fill-opacity: 0.5; stroke: #ffffff; stroke-width: 0.608727; stroke-linejoin: miter"/>
   </g>
   <g id="patch_26">
    <path d="M 195.102926 118.08 
L 201.190199 118.08 
L 201.190199 117.487765 
L 195.102926 117.487765 
z
" clip-path="url(#p94bf2ec0bf)" style="fill: #1f77b4; fill-opacity: 0.5; stroke: #ffffff; stroke-width: 0.608727; stroke-linejoin: miter"/>
   </g>
   <g id="patch_27">
    <path d="M 201.190199 118.08 
L 207.277472 118.08 
L 207.277472 118.034443 
L 201.190199 118.034443 
z
" clip-path="url(#p94bf2ec0bf)" style="fill: #1f77b4; fill-opacity: 0.5; stroke: #ffffff; stroke-width: 0.608727; stroke-linejoin: miter"/>
   </g>
   <g id="line2d_12">
    <path d="M 75.780561 118.08 
L 75.780561 7.2 
" clip-path="url(#p94bf2ec0bf)" style="fill: none; stroke-dasharray: 5.55,2.4; stroke-dashoffset: 0; stroke: #b22222; stroke-width: 1.5"/>
   </g>
   <g id="patch_28">
    <path d="M 47.486563 118.08 
L 47.486563 7.2 
" style="fill: none; stroke: #000000; stroke-linejoin: miter; stroke-linecap: square"/>
   </g>
   <g id="patch_29">
    <path d="M 214.886562 118.08 
L 214.886562 7.2 
" style="fill: none; stroke: #000000; stroke-linejoin: miter; stroke-linecap: square"/>
   </g>
   <g id="patch_30">
    <path d="M 47.486563 118.08 
L 214.886562 118.08 
" style="fill: none; stroke: #000000; stroke-linejoin: miter; stroke-linecap: square"/>
   </g>
   <g id="patch_31">
    <path d="M 47.486563 7.2 
L 214.886562 7.2 
" style="fill: none; stroke: #000000; stroke-linejoin: miter; stroke-linecap: square"/>
   </g>
   <g id="text_14">
    <!-- Median DIMAs = 14 -->
    <g style="fill: #b22222" transform="translate(79.474294 65.234443) scale(0.1 -0.1)">
     <defs>
      <path id="ArialMT-65" d="M 2694 1069 
L 3275 997 
Q 3138 488 2766 206 
Q 2394 -75 1816 -75 
Q 1088 -75 661 373 
Q 234 822 234 1631 
Q 234 2469 665 2931 
Q 1097 3394 1784 3394 
Q 2450 3394 2872 2941 
Q 3294 2488 3294 1666 
Q 3294 1616 3291 1516 
L 816 1516 
Q 847 969 1125 678 
Q 1403 388 1819 388 
Q 2128 388 2347 550 
Q 2566 713 2694 1069 
z
M 847 1978 
L 2700 1978 
Q 2663 2397 2488 2606 
Q 2219 2931 1791 2931 
Q 1403 2931 1139 2672 
Q 875 2413 847 1978 
z
" transform="scale(0.015625)"/>
      <path id="ArialMT-64" d="M 2575 0 
L 2575 419 
Q 2259 -75 1647 -75 
Q 1250 -75 917 144 
Q 584 363 401 755 
Q 219 1147 219 1656 
Q 219 2153 384 2558 
Q 550 2963 881 3178 
Q 1213 3394 1622 3394 
Q 1922 3394 2156 3267 
Q 2391 3141 2538 2938 
L 2538 4581 
L 3097 4581 
L 3097 0 
L 2575 0 
z
M 797 1656 
Q 797 1019 1065 703 
Q 1334 388 1700 388 
Q 2069 388 2326 689 
Q 2584 991 2584 1609 
Q 2584 2291 2321 2609 
Q 2059 2928 1675 2928 
Q 1300 2928 1048 2622 
Q 797 2316 797 1656 
z
" transform="scale(0.015625)"/>
      <path id="ArialMT-3d" d="M 3381 2694 
L 356 2694 
L 356 3219 
L 3381 3219 
L 3381 2694 
z
M 3381 1303 
L 356 1303 
L 356 1828 
L 3381 1828 
L 3381 1303 
z
" transform="scale(0.015625)"/>
     </defs>
     <use xlink:href="#ArialMT-4d"/>
     <use xlink:href="#ArialMT-65" x="83.300781"/>
     <use xlink:href="#ArialMT-64" x="138.916016"/>
     <use xlink:href="#ArialMT-69" x="194.53125"/>
     <use xlink:href="#ArialMT-61" x="216.748047"/>
     <use xlink:href="#ArialMT-6e" x="272.363281"/>
     <use xlink:href="#ArialMT-20" x="327.978516"/>
     <use xlink:href="#ArialMT-44" x="355.761719"/>
     <use xlink:href="#ArialMT-49" x="427.978516"/>
     <use xlink:href="#ArialMT-4d" x="455.761719"/>
     <use xlink:href="#ArialMT-41" x="539.0625"/>
     <use xlink:href="#ArialMT-73" x="605.761719"/>
     <use xlink:href="#ArialMT-20" x="655.761719"/>
     <use xlink:href="#ArialMT-3d" x="683.544922"/>
     <use xlink:href="#ArialMT-20" x="741.943359"/>
     <use xlink:href="#ArialMT-31" x="769.726562"/>
     <use xlink:href="#ArialMT-34" x="825.341797"/>
    </g>
   </g>
  </g>
 </g>
 <defs>
  <clipPath id="p94bf2ec0bf">
   <rect x="47.486563" y="7.2" width="167.4" height="110.88"/>
  </clipPath>
 </defs>
</svg>
