<?xml version="1.0" encoding="utf-8" standalone="no"?>
<!DOCTYPE svg PUBLIC "-//W3C//DTD SVG 1.1//EN"
  "http://www.w3.org/Graphics/SVG/1.1/DTD/svg11.dtd">
<svg xmlns:xlink="http://www.w3.org/1999/xlink" width="69.84pt" height="69.84pt" viewBox="0 0 69.84 69.84" xmlns="http://www.w3.org/2000/svg" version="1.1">
 <metadata>
  <rdf:RDF xmlns:dc="http://purl.org/dc/elements/1.1/" xmlns:cc="http://creativecommons.org/ns#" xmlns:rdf="http://www.w3.org/1999/02/22-rdf-syntax-ns#">
   <cc:Work>
    <dc:type rdf:resource="http://purl.org/dc/dcmitype/StillImage"/>
    <dc:date>2023-04-20T17:47:45.970334</dc:date>
    <dc:format>image/svg+xml</dc:format>
    <dc:creator>
     <cc:Agent>
      <dc:title>Matplotlib v3.6.2, https://matplotlib.org/</dc:title>
     </cc:Agent>
    </dc:creator>
   </cc:Work>
  </rdf:RDF>
 </metadata>
 <defs>
  <style type="text/css">*{stroke-linejoin: round; stroke-linecap: butt}</style>
 </defs>
 <g id="figure_1">
  <g id="patch_1">
   <path d="M 0 69.84 
L 69.84 69.84 
L 69.84 0 
L 0 0 
z
" style="fill: #ffffff"/>
  </g>
  <g id="axes_1">
   <g id="matplotlib.axis_1"/>
   <g id="matplotlib.axis_2"/>
   <g id="patch_2">
    <path d="M 57.096 34.92 
C 57.096 31.941459 56.495912 28.99322 55.331634 26.251657 
C 54.167357 23.510095 52.46258 21.030991 50.319289 18.962655 
C 48.175999 16.894319 45.637804 15.278835 42.85655 14.212848 
C 40.075295 13.14686 37.10757 12.652058 34.130915 12.758043 
C 31.15426 12.864028 28.229241 13.568643 25.530843 14.829736 
C 22.832445 16.090829 20.415572 17.882739 18.42481 20.09827 
C 16.434048 22.3138 14.909904 24.907871 13.943556 27.725295 
C 12.977208 30.54272 12.58832 33.526171 12.800156 36.49717 
L 34.92 34.92 
L 57.096 34.92 
z
" style="fill: #1f77b4; stroke: #000000; stroke-width: 0.5; stroke-linejoin: miter"/>
   </g>
   <g id="patch_3">
    <path d="M 12.800156 36.49717 
C 13.110415 40.848563 14.697886 45.013163 17.362835 48.46699 
C 20.027785 51.920817 23.653556 54.512679 27.78396 55.916474 
C 31.914365 57.320268 36.368594 57.474543 40.586227 56.359889 
C 44.803859 55.245235 48.600268 52.910446 51.497796 49.649279 
L 34.92 34.92 
L 12.800156 36.49717 
z
" style="fill: #d62728; stroke: #000000; stroke-width: 0.5; stroke-linejoin: miter"/>
   </g>
   <g id="patch_4">
    <path d="M 51.497796 49.649279 
C 53.285962 47.636699 54.692775 45.315209 55.649257 42.798634 
C 56.60574 40.282058 57.096 37.612211 57.096 34.919998 
L 34.92 34.92 
L 51.497796 49.649279 
z
" style="fill: #9467bd; stroke: #000000; stroke-width: 0.5; stroke-linejoin: miter"/>
   </g>
   <g id="patch_5">
    <path d="M 57.096 34.919998 
C 57.096 34.919998 57.096 34.919998 57.096 34.919998 
L 34.92 34.92 
L 57.096 34.919998 
z
" style="fill: #e377c2; stroke: #000000; stroke-width: 0.5; stroke-linejoin: miter"/>
   </g>
  </g>
 </g>
</svg>
