<?xml version="1.0" encoding="utf-8" standalone="no"?>
<!DOCTYPE svg PUBLIC "-//W3C//DTD SVG 1.1//EN"
  "http://www.w3.org/Graphics/SVG/1.1/DTD/svg11.dtd">
<svg xmlns:xlink="http://www.w3.org/1999/xlink" width="68.76pt" height="68.76pt" viewBox="0 0 68.76 68.76" xmlns="http://www.w3.org/2000/svg" version="1.1">
 <metadata>
  <rdf:RDF xmlns:dc="http://purl.org/dc/elements/1.1/" xmlns:cc="http://creativecommons.org/ns#" xmlns:rdf="http://www.w3.org/1999/02/22-rdf-syntax-ns#">
   <cc:Work>
    <dc:type rdf:resource="http://purl.org/dc/dcmitype/StillImage"/>
    <dc:date>2022-09-14T15:17:18.468573</dc:date>
    <dc:format>image/svg+xml</dc:format>
    <dc:creator>
     <cc:Agent>
      <dc:title>Matplotlib v3.5.1, https://matplotlib.org/</dc:title>
     </cc:Agent>
    </dc:creator>
   </cc:Work>
  </rdf:RDF>
 </metadata>
 <defs>
  <style type="text/css">*{stroke-linejoin: round; stroke-linecap: butt}</style>
 </defs>
 <g id="figure_1">
  <g id="patch_1">
   <path d="M 0 68.76 
L 68.76 68.76 
L 68.76 0 
L 0 0 
z
" style="fill: #ffffff"/>
  </g>
  <g id="axes_1">
   <g id="matplotlib.axis_1"/>
   <g id="matplotlib.axis_2"/>
   <g id="patch_2">
    <path d="M 56.124 34.38 
C 56.124 31.459482 55.535602 28.568677 54.394005 25.880521 
C 53.252408 23.192366 51.580841 20.761556 49.479303 18.733512 
C 47.377765 16.705469 44.889016 15.121455 42.161942 14.076234 
C 39.434867 13.031012 36.524955 12.54585 33.606287 12.64977 
C 30.687619 12.75369 27.819581 13.444579 25.173749 14.681105 
C 22.527917 15.917631 20.158126 17.674634 18.206145 19.847005 
C 16.254164 22.019376 14.759711 24.562912 13.812188 27.325452 
C 12.864665 30.087991 12.483353 33.013324 12.691062 35.926446 
L 34.38 34.38 
L 56.124 34.38 
z
" style="fill: #2ca02c; stroke: #000000; stroke-width: 0.5; stroke-linejoin: miter"/>
   </g>
   <g id="patch_3">
    <path d="M 12.691062 35.926446 
C 12.995277 40.193071 14.551823 44.276543 17.164858 47.663088 
C 19.777893 51.049633 23.333032 53.591004 27.382974 54.967452 
C 31.432916 56.343899 35.800375 56.495169 39.935846 55.402229 
C 44.071317 54.309289 47.793769 52.019982 50.634852 48.822345 
L 34.38 34.38 
L 12.691062 35.926446 
z
" style="fill: #d62728; stroke: #000000; stroke-width: 0.5; stroke-linejoin: miter"/>
   </g>
   <g id="patch_4">
    <path d="M 50.634852 48.822345 
C 52.388183 46.848971 53.767591 44.572705 54.705441 42.105154 
C 55.643291 39.637603 56.124 37.019765 56.124 34.379998 
L 34.38 34.38 
L 50.634852 48.822345 
z
" style="fill: #7f7f7f; stroke: #000000; stroke-width: 0.5; stroke-linejoin: miter"/>
   </g>
   <g id="patch_5">
    <path d="M 56.124 34.379998 
C 56.124 34.379998 56.124 34.379998 56.124 34.379998 
L 34.38 34.38 
L 56.124 34.379998 
z
" style="fill: #1f77b4; stroke: #000000; stroke-width: 0.5; stroke-linejoin: miter"/>
   </g>
  </g>
 </g>
</svg>
