<?xml version="1.0" encoding="utf-8" standalone="no"?>
<!DOCTYPE svg PUBLIC "-//W3C//DTD SVG 1.1//EN"
  "http://www.w3.org/Graphics/SVG/1.1/DTD/svg11.dtd">
<svg xmlns:xlink="http://www.w3.org/1999/xlink" width="69.84pt" height="69.84pt" viewBox="0 0 69.84 69.84" xmlns="http://www.w3.org/2000/svg" version="1.1">
 <metadata>
  <rdf:RDF xmlns:dc="http://purl.org/dc/elements/1.1/" xmlns:cc="http://creativecommons.org/ns#" xmlns:rdf="http://www.w3.org/1999/02/22-rdf-syntax-ns#">
   <cc:Work>
    <dc:type rdf:resource="http://purl.org/dc/dcmitype/StillImage"/>
    <dc:date>2023-04-20T17:47:45.890946</dc:date>
    <dc:format>image/svg+xml</dc:format>
    <dc:creator>
     <cc:Agent>
      <dc:title>Matplotlib v3.6.2, https://matplotlib.org/</dc:title>
     </cc:Agent>
    </dc:creator>
   </cc:Work>
  </rdf:RDF>
 </metadata>
 <defs>
  <style type="text/css">*{stroke-linejoin: round; stroke-linecap: butt}</style>
 </defs>
 <g id="figure_1">
  <g id="patch_1">
   <path d="M 0 69.84 
L 69.84 69.84 
L 69.84 0 
L 0 0 
z
" style="fill: #ffffff"/>
  </g>
  <g id="axes_1">
   <g id="matplotlib.axis_1"/>
   <g id="matplotlib.axis_2"/>
   <g id="patch_2">
    <path d="M 57.096 34.92 
C 57.096 32.433683 56.677861 29.964978 55.859105 27.617339 
C 55.040349 25.269699 53.832576 23.076385 52.286398 21.129308 
C 50.740221 19.182232 48.877544 17.508977 46.776425 16.179665 
C 44.675307 14.850353 42.365512 13.883815 39.943837 13.320555 
C 37.522162 12.757295 35.022914 12.605293 32.550827 12.870918 
C 30.07874 13.136544 27.668836 13.816034 25.422104 14.880914 
C 23.175373 15.945794 21.123643 17.380978 19.352896 19.126322 
C 17.582149 20.871666 16.11747 22.902445 15.020239 25.133556 
C 13.923008 27.364666 13.208768 29.764501 12.907452 32.232492 
C 12.606135 34.700483 12.72201 37.201667 13.250221 39.631227 
C 13.778432 42.060788 14.711496 44.384306 16.01031 46.504413 
C 17.309125 48.624519 18.955292 50.511178 20.879825 52.085327 
C 22.804357 53.659476 24.979992 54.898814 27.315557 55.751405 
C 29.651121 56.603995 32.113527 57.057761 34.599584 57.093685 
C 37.085641 57.129609 39.56013 56.747183 41.919355 55.962434 
C 44.278579 55.177684 46.489115 54.001727 48.458329 52.483844 
L 34.92 34.92 
L 57.096 34.92 
z
" style="fill: #1f77b4; stroke: #000000; stroke-width: 0.5; stroke-linejoin: miter"/>
   </g>
   <g id="patch_3">
    <path d="M 48.458329 52.483844 
C 50.805763 50.674426 52.766804 48.412628 54.225269 45.83245 
C 55.683734 43.252272 56.610241 40.405696 56.949899 37.461367 
L 34.92 34.92 
L 48.458329 52.483844 
z
" style="fill: #9467bd; stroke: #000000; stroke-width: 0.5; stroke-linejoin: miter"/>
   </g>
   <g id="patch_4">
    <path d="M 56.949899 37.461367 
C 56.998549 37.039641 57.035079 36.616605 57.059445 36.192781 
C 57.08381 35.768958 57.096 35.344523 57.096 34.919999 
L 34.92 34.92 
L 56.949899 37.461367 
z
" style="fill: #e377c2; stroke: #000000; stroke-width: 0.5; stroke-linejoin: miter"/>
   </g>
   <g id="patch_5">
    <path d="M 57.096 34.919999 
C 57.096 34.919999 57.096 34.919999 57.096 34.919999 
L 34.92 34.92 
L 57.096 34.919999 
z
" style="fill: #d62728; stroke: #000000; stroke-width: 0.5; stroke-linejoin: miter"/>
   </g>
  </g>
 </g>
</svg>
