<?xml version="1.0" encoding="utf-8" standalone="no"?>
<!DOCTYPE svg PUBLIC "-//W3C//DTD SVG 1.1//EN"
  "http://www.w3.org/Graphics/SVG/1.1/DTD/svg11.dtd">
<svg xmlns:xlink="http://www.w3.org/1999/xlink" width="69.84pt" height="69.84pt" viewBox="0 0 69.84 69.84" xmlns="http://www.w3.org/2000/svg" version="1.1">
 <metadata>
  <rdf:RDF xmlns:dc="http://purl.org/dc/elements/1.1/" xmlns:cc="http://creativecommons.org/ns#" xmlns:rdf="http://www.w3.org/1999/02/22-rdf-syntax-ns#">
   <cc:Work>
    <dc:type rdf:resource="http://purl.org/dc/dcmitype/StillImage"/>
    <dc:date>2023-04-20T17:47:45.934874</dc:date>
    <dc:format>image/svg+xml</dc:format>
    <dc:creator>
     <cc:Agent>
      <dc:title>Matplotlib v3.6.2, https://matplotlib.org/</dc:title>
     </cc:Agent>
    </dc:creator>
   </cc:Work>
  </rdf:RDF>
 </metadata>
 <defs>
  <style type="text/css">*{stroke-linejoin: round; stroke-linecap: butt}</style>
 </defs>
 <g id="figure_1">
  <g id="patch_1">
   <path d="M 0 69.84 
L 69.84 69.84 
L 69.84 0 
L 0 0 
z
" style="fill: #ffffff"/>
  </g>
  <g id="axes_1">
   <g id="matplotlib.axis_1"/>
   <g id="matplotlib.axis_2"/>
   <g id="patch_2">
    <path d="M 57.096 34.92 
C 57.096 31.771566 56.425503 28.658932 55.129234 25.78973 
C 53.832966 22.920528 51.940405 20.360006 49.577798 18.278968 
C 47.21519 16.19793 44.436264 14.6437 41.426392 13.719957 
C 38.41652 12.796213 35.244149 12.523962 32.120897 12.921364 
C 28.997644 13.318766 25.994537 14.376784 23.3119 16.024842 
C 20.629264 17.6729 18.328104 19.873519 16.561924 22.479903 
C 14.795743 25.086288 13.604707 28.039166 13.068264 31.141562 
C 12.531821 34.243958 12.66217 37.425321 13.450618 40.473432 
L 34.92 34.92 
L 57.096 34.92 
z
" style="fill: #1f77b4; stroke: #000000; stroke-width: 0.5; stroke-linejoin: miter"/>
   </g>
   <g id="patch_3">
    <path d="M 13.450618 40.473432 
C 14.524983 44.626892 16.7819 48.380676 19.94641 51.277462 
C 23.110919 54.174248 27.049071 56.091418 31.281079 56.795402 
C 35.513087 57.499387 39.859816 56.960387 43.791704 55.24407 
C 47.723593 53.527753 51.074207 50.706768 53.435343 47.124796 
L 34.92 34.92 
L 13.450618 40.473432 
z
" style="fill: #d62728; stroke: #000000; stroke-width: 0.5; stroke-linejoin: miter"/>
   </g>
   <g id="patch_4">
    <path d="M 53.435343 47.124796 
C 54.473907 45.549238 55.307129 43.847539 55.91479 42.060993 
C 56.522451 40.274446 56.899596 38.417621 57.037072 36.535575 
L 34.92 34.92 
L 53.435343 47.124796 
z
" style="fill: #9467bd; stroke: #000000; stroke-width: 0.5; stroke-linejoin: miter"/>
   </g>
   <g id="patch_5">
    <path d="M 57.037072 36.535575 
C 57.056707 36.266782 57.071439 35.997655 57.081263 35.728325 
C 57.091087 35.458996 57.096 35.18951 57.096 34.920002 
L 34.92 34.92 
L 57.037072 36.535575 
z
" style="fill: #e377c2; stroke: #000000; stroke-width: 0.5; stroke-linejoin: miter"/>
   </g>
  </g>
 </g>
</svg>
