<?xml version="1.0" encoding="utf-8" standalone="no"?>
<!DOCTYPE svg PUBLIC "-//W3C//DTD SVG 1.1//EN"
  "http://www.w3.org/Graphics/SVG/1.1/DTD/svg11.dtd">
<svg xmlns:xlink="http://www.w3.org/1999/xlink" width="68.76pt" height="68.76pt" viewBox="0 0 68.76 68.76" xmlns="http://www.w3.org/2000/svg" version="1.1">
 <metadata>
  <rdf:RDF xmlns:dc="http://purl.org/dc/elements/1.1/" xmlns:cc="http://creativecommons.org/ns#" xmlns:rdf="http://www.w3.org/1999/02/22-rdf-syntax-ns#">
   <cc:Work>
    <dc:type rdf:resource="http://purl.org/dc/dcmitype/StillImage"/>
    <dc:date>2022-09-14T15:17:18.373300</dc:date>
    <dc:format>image/svg+xml</dc:format>
    <dc:creator>
     <cc:Agent>
      <dc:title>Matplotlib v3.5.1, https://matplotlib.org/</dc:title>
     </cc:Agent>
    </dc:creator>
   </cc:Work>
  </rdf:RDF>
 </metadata>
 <defs>
  <style type="text/css">*{stroke-linejoin: round; stroke-linecap: butt}</style>
 </defs>
 <g id="figure_1">
  <g id="patch_1">
   <path d="M 0 68.76 
L 68.76 68.76 
L 68.76 0 
L 0 0 
z
" style="fill: #ffffff"/>
  </g>
  <g id="axes_1">
   <g id="matplotlib.axis_1"/>
   <g id="matplotlib.axis_2"/>
   <g id="patch_2">
    <path d="M 56.124 34.38 
C 56.124 31.2929 55.466564 28.240901 54.195548 25.427593 
C 52.924531 22.614284 51.068839 20.103642 48.752256 18.063144 
C 46.435673 16.022646 43.710883 14.498693 40.759644 13.592945 
C 37.808406 12.687196 34.697834 12.420248 31.635425 12.809909 
C 28.573015 13.199569 25.628409 14.236977 22.998032 15.85293 
C 20.367655 17.468882 18.111323 19.626632 16.379549 22.182243 
C 14.647774 24.737853 13.47994 27.633208 12.953947 30.675168 
C 12.427954 33.717128 12.555764 36.836516 13.328853 39.825248 
L 34.38 34.38 
L 56.124 34.38 
z
" style="fill: #2ca02c; stroke: #000000; stroke-width: 0.5; stroke-linejoin: miter"/>
   </g>
   <g id="patch_3">
    <path d="M 13.328853 39.825248 
C 14.382289 43.897797 16.59524 47.578455 19.698103 50.418811 
C 22.800966 53.259166 26.6624 55.138988 30.811967 55.829258 
C 34.961534 56.519529 39.223586 55.991029 43.078879 54.308147 
C 46.934172 52.625265 50.219515 49.859234 52.534655 46.34704 
L 34.38 34.38 
L 13.328853 39.825248 
z
" style="fill: #d62728; stroke: #000000; stroke-width: 0.5; stroke-linejoin: miter"/>
   </g>
   <g id="patch_4">
    <path d="M 52.534655 46.34704 
C 53.552987 44.802175 54.369977 43.133626 54.9658 41.381882 
C 55.561624 39.630139 55.931422 37.809486 56.06622 35.964102 
L 34.38 34.38 
L 52.534655 46.34704 
z
" style="fill: #7f7f7f; stroke: #000000; stroke-width: 0.5; stroke-linejoin: miter"/>
   </g>
   <g id="patch_5">
    <path d="M 56.06622 35.964102 
C 56.085472 35.700546 56.099918 35.436661 56.10955 35.172579 
C 56.119183 34.908496 56.124 34.64426 56.124 34.380002 
L 34.38 34.38 
L 56.06622 35.964102 
z
" style="fill: #1f77b4; stroke: #000000; stroke-width: 0.5; stroke-linejoin: miter"/>
   </g>
  </g>
 </g>
</svg>
